<svg xmlns="http://www.w3.org/2000/svg" viewBox="0 0 100 100">
	<path fill="#d91935" d="M50 0c-3.7 0-7.3.4-10.8 1.2V50c0 6 4.9 10.9 10.9 10.9S61 56 61 50c0-5.8-4.5-10.5-10.1-10.8v-8.7c10.4.4 18.8 9 18.8 19.5 0 10.8-8.8 19.6-19.6 19.6S30.5 60.8 30.5 50V4c-1.2.5-2.4 1.1-3.6 1.7V50c0 12.8 10.4 23.2 23.2 23.2 12.8 0 23.2-10.4 23.2-23.2 0-12.5-10-22.8-22.5-23.2v-8.7C68 18.6 81.9 32.7 81.9 50c0 17.6-14.3 31.9-31.9 31.9-17.6 0-31.9-14.3-31.9-31.9V11.5C7.1 20.6 0 34.5 0 50c0 27.6 22.4 50 50 50s50-22.4 50-50S77.6 0 50 0z"/>
</svg>