<svg xmlns="http://www.w3.org/2000/svg" viewBox="0 0 100 100">
	<path fill="#D20A11" d="M51.767 68.243c-1.997-.154-4.148-.461-5.838-.922-.307-.154-1.69-.614-1.997-.768-6.144-2.765-10.291-9.063-10.291-16.129 0-9.831 7.987-17.819 17.818-17.819 9.678 0 17.665 7.834 17.819 17.665h6.452C75.422 36.753 64.67 26 51.306 26c-13.364 0-24.27 10.906-24.27 24.27 0 9.217 5.222 17.205 12.749 21.352 1.382.768 3.38 1.536 3.994 1.69 2.15.614 4.762 1.075 7.22 1.229.767 0 3.532.153 4.454.153h44.393v-6.451h-48.08Zm3.84-10.138h-3.38c-.768 0-1.843-.154-2.611-.308a8.417 8.417 0 0 1-1.843-.614c-2.458-1.23-3.994-3.84-3.994-6.759 0-4.301 3.38-7.68 7.68-7.68 4.148 0 7.527 3.379 7.68 7.373h6.145c-.153-7.527-6.298-13.671-13.825-13.671A13.767 13.767 0 0 0 37.634 50.27c0 5.377 3.073 10.139 7.68 12.29.769.46 1.998.767 2.305.92 1.229.308 2.919.615 4.301.615H100v-6.144H55.607v.154ZM23.04 74.695h-6.45V32.451H7.066V26h15.976v48.694ZM0 35.676v6.298h7.066v32.72h6.298V35.676H0Z"/>
</svg>