<svg xmlns="http://www.w3.org/2000/svg" viewBox="0 0 100 100">
	<path fill="#40b9bb" d="M50.6 0c-12.4 0-22.8 6.4-28 15.7 0 0-4.1 7.7-4.1 11 0 3.4 3.1 3.7 3.1 3.7 15.7 1.5 14.6 1.3 15.7 1.5 0-2.3 1-4.4 3.2-6.1 6.9-5.2 18-1.8 18.8 5.3 0 .3.1.6 0 .9-.4.4-.8.7-1.2 1-6.8 5.6-14.4 9.4-23 11.5v10.2c.9.4 6 3.5 15 3.7 2.2 0 4.3-.2 6.5-.6 2.7 1.6 3.2 4.2 3.6 5.1 0 14.4-19.8 14.8-23.6 2-.2 0-14.4 1.8-15.1 1.9-.4 0-1.3.4-2.1 1.6-3.5 5.8 1.6 13.7 5.5 19.2 17.5 23.1 56 11.4 56-16.7 0-13.2-8.9-20.1-9.1-20.6C92.3 33.2 79.7.3 50.6 0z"/>
	<linearGradient id="a" x1="44.2996" x2="69.101" y1="1039.429" y2="1065.5724" gradientTransform="translate(0 -978.567)" gradientUnits="userSpaceOnUse">
		<stop offset="0" stop-color="#215f6c"/>
		<stop offset="1" stop-color="#1ed7dd"/>
	</linearGradient>
	<path fill="url(#a)" d="M73.4 68.3c0-5.7-2.1-11-5.4-14.9-3.4 2.1-7.2 3.7-11.3 4.4 2.7 1.6 3.2 4.2 3.6 5.1 0 .1.7 3-.2 6-6.6 10.3-19.3 8.2-23.4.1-7.8 2-4.3 22.1 14 22.1 11.5 0 22.7-10.4 22.7-22.8z"/>
	<linearGradient id="b" x1="39.7088" x2="67.4288" y1="1033.3545" y2="1076.5527" gradientTransform="translate(0 -978.567)" gradientUnits="userSpaceOnUse">
		<stop offset=".382" stop-color="#5cafb7"/>
		<stop offset=".886" stop-color="#3a7e7d"/>
	</linearGradient>
	<path fill="url(#b)" d="M71.8 50.5c-1.2 1-2.5 2-3.8 2.8 3.9 4.5 5.4 9.7 5.4 15.6C73 81.6 61.3 91 50.6 91c-12.8 0-19.5-10.2-17.5-18.2.7-2.9 3.5-3.7 3.5-3.8v-4.1c-.9 0-14.5 1.7-15.1 1.8-.4 0-1.3.4-2.1 1.6-3.5 5.8 1.6 13.7 5.5 19.2 17.5 23.1 56 11.4 56-16.7 0-12.8-9-20-9.1-20.3z"/>
	<linearGradient id="c" x1="36.7" x2="60.5697" y1="1048.0638" y2="1048.0638" gradientTransform="translate(0 -978.567)" gradientUnits="userSpaceOnUse">
		<stop offset="0" stop-color="#23969b"/>
		<stop offset="1" stop-color="#367e7b"/>
	</linearGradient>
	<path fill="url(#c)" d="M60.1 69c-7 10.9-19.9 7.6-23.4 0v-4.1s2.7 9.2 12.3 9.2S60.5 65.9 60.3 63c.5 2 .2 4-.2 6z"/>
	<linearGradient id="d" x1="48.4" x2="48.4" y1="1047.5397" y2="1054.6158" gradientTransform="translate(0 -978.567)" gradientUnits="userSpaceOnUse">
		<stop offset="0" stop-color="#38818c"/>
		<stop offset="1" stop-color="#6dc7d0"/>
	</linearGradient>
	<path fill="url(#d)" d="M51.9 75.8c-.6.2-1.2.3-1.8.4l-.4-.2c-2.9 0-3 0-3.1-.1-.5 0-1.7-.3-1.8-.4-1.1-.4-.8-.3-1.1-.4-1.8 0-6.2-3.8-7-6.1.1.3.3.5.4.8 1.4 2.1 3.3 3.7 4.9 4.5 0 0 .1 0 .1.1h.1l.4.2c.1 0 .1.1.2.1l.2.1h.3l.4.2h.2c.4.2.6.2 1 .4.1 0 .1 0 .2.1.4 0 .1 0 1 .2.5 0 .7 0 .8.1 3 0 2.6.1 4.5-.3 3.5-.9 7-4.1 8.7-6.5-1.7 3.3-5.9 6.4-8.2 6.8z"/>
	<linearGradient id="e" x1="46.369" x2="62.298" y1="1037.5115" y2="1064.8328" gradientTransform="translate(0 -978.567)" gradientUnits="userSpaceOnUse">
		<stop offset=".524" stop-color="#206e78"/>
		<stop offset="1" stop-color="#76cbd0"/>
	</linearGradient>
	<path fill="url(#e)" d="M36.7 69c-.1.1-2 .4-3 2.5-1.1 2.2-1.1 4.7-.7 6.2 1.7 6.8 5.1 8.4 5.1 8.8l.2.2c.1.1.9.7 1 .8 2.2 2.2 10 4.3 15 3.1 8.1-1 18.9-11 18.9-20.8 0-1.5 0-6.6-1.1-8.8-.1-.7-.1-.5-.2-.9 0-.1-.1-.2-.1-.3l-.2-.6V59h-.1l-.2-.6s0-.1-.1-.1l-.1-.1-.3-.6-.2-.2-.1-.4c-1-1.4-.6-1-.8-1.2v-.2c-.6-.8-1.1-1.4-1.7-2.2.1.1 1.5 1.8 1.8 2.3v.2c.2.2.7 1.2 1.2 1.7l.3.6.1.1s0 .1.1.1l.2.6.1.1v.2l.2.6c0 .1.1.2.1.3.4 1.1.5 1.6.9 2.7v.4l.1.3c0 .1.2 1.2.3 1.5 0 .7.9 9.1-2.9 14.5-8.9 15.6-33 16.4-37.5-1.5-.5-1.9-.1-5.7 1.1-6.9.2-.4 1-1.2 2-1.7.2-.4.4-.5.6-.5z"/>
	<linearGradient id="f" x1="23.4021" x2="70.1646" y1="1026.2946" y2="975.1369" gradientTransform="translate(0 -978.567)" gradientUnits="userSpaceOnUse">
		<stop offset="0" stop-color="#206270"/>
		<stop offset="1" stop-color="#0ca19f"/>
	</linearGradient>
	<path fill="url(#f)" d="M35.3 54.6V44.5c9.2-2.3 17.2-6.7 22.9-11.4.4-.3.8-.7 1.2-1 0-11.8-22-11.2-22-.1-1-.1 0 0-15.7-1.5 0 0-3.1-.4-3.1-3.7s4.1-11 4.1-11c3.6-6.4 9.7-11.4 17-13.9C48.4 0 58 2.8 64.2 8.3c15.9 14.4 1.3 36.2-28.9 46.3z"/>
	<linearGradient id="g" x1="58.5362" x2="58.5362" y1="978.556" y2="1036.9296" gradientTransform="translate(0 -978.567)" gradientUnits="userSpaceOnUse">
		<stop offset="0" stop-color="#8ed4d6"/>
		<stop offset="1" stop-color="#0fa9ab"/>
	</linearGradient>
	<path fill="url(#g)" d="M50.3 58.3c-5.8 0-11.8-1.8-15-3.7 5.9-1.8 17-7.1 22.6-11.6C85.6 21.7 62.6-3.2 39.6 1.8c16-5.6 34.4 2.4 40.2 17.3 7.5 19.1-7.3 39.2-29.5 39.2z"/>
	<path fill="#058183" d="M69.6 52.3c-8.8 7-24.8 8.2-34.4 2.4 1.4-.4 7-2.5 11.1-4.6 6 4.3 14.2 5.6 21.3 2.9.8-.2 1.4-.4 2-.7z"/>
	<linearGradient id="h" x1="37.4" x2="60.8556" y1="1004.317" y2="1004.317" gradientTransform="translate(0 -978.567)" gradientUnits="userSpaceOnUse">
		<stop offset="0" stop-color="#1d636f"/>
		<stop offset="1" stop-color="#0f9d9e"/>
	</linearGradient>
	<path fill="url(#h)" d="M50.5 19.6h-1.8c-6.2 0-11.3 3.9-11.3 8.7v3.5c0-2.2 1-4.3 3.2-6.1 6.9-5.2 18-1.8 18.8 5.3 0 .3.1.6 0 .9 4.6-7.4-2.9-12.3-8.9-12.3z"/>
	<linearGradient id="i" x1="55.2665" x2="55.2665" y1="979.767" y2="1028.667" gradientTransform="translate(0 -978.567)" gradientUnits="userSpaceOnUse">
		<stop offset="0" stop-color="#1f6472"/>
		<stop offset="1" stop-color="#63c0c8"/>
	</linearGradient>
	<path fill="url(#i)" d="M39.6 1.8c1-.2 3.8-.6 5-.6 6.8 0 9.1.8 15.8 4.1.3.2 2.9 2 3.2 2.3.4.4.5.5.6.5 2.4 2.4 3.1 2.9 4.8 6.2l.2.2.4 1.2.1.1c.1.3 0 0 .5 1.4v.4l.2.6c0 .1 0 .2.1.3l.1.3c0 .1 0 .2.1.3.1.8.4 4.4.1 5-.1.7-.1.5-.1 1l-.1.3c0 .1 0 .2-.1.3l-.2.6v.4c-.2.3-.3.5-.3.7-2 6.1-5 9.1-5.1 9.1-.4.4-.1.2-.8.9l-.1.2c-5.4 5.4-5.8 5.1-6.7 6-2.7 1.9-7.8 5.4-10.9 6.5 5.2-2.6 13.3-7.6 16.9-12.2.5-.6.3-.4.8-.9.9-.9.7-.8.8-.8 4.4-5.5 4.8-8.6 5.1-9.3v-.4l.2-.6c0-.1 0-.2.1-.3l.1-.3c0-.5.1-1.4.2-1.6 0-2.4-.1-4.5-.3-4.7l-.1-.3c0-.1 0-.2-.1-.3V18l-.1-.3v-.4l-.4-1.2s0-.1-.1-.1l-.1-.1c-.4-1.1-.3-.8-.4-1.1l-.2-.2c-2-4-4.8-6.1-4.8-6.3-1.9-1.9-5.1-3.7-5.3-3.7l-.3-.1c-.1 0-.2-.1-.3-.1l-.6-.4c-.1 0-.2-.1-.3-.1l-.3-.1c-.1 0-.2-.1-.3-.1l-.3-.1-.3-.2s-.1 0-.1-.1l-.1-.1L52.2 2h-.7l-.3-.1c-.1 0-.2 0-.3-.1l-.3-.1c-.1 0-.2 0-.3-.1l-.6-.1c-3.6 0-1.3-.2-4.9-.2-.3 0-4 .2-5.2.5z"/>
</svg>