<svg xmlns="http://www.w3.org/2000/svg" viewBox="0 0 100 100">
	<path fill="#1C1B29" d="M99.3 49.888C99.3 22.321 76.983 0 49.424 0h-1.116v31.473h1.116c10.153 0 18.521 8.26 18.521 18.527A18.487 18.487 0 0 1 56.52 67.129a18.472 18.472 0 0 1-7.094 1.398H48.31V100h1.116c9.707 0 19.302-2.79 27.336-8.147l2.9 6.696h19.75l-.112-48.66Z"/>
	<path fill="#FA4216" d="M39.27 98.996c-1.561 0-2.677-1.228-2.677-2.679V68.192c0-1.563 1.227-2.679 2.678-2.679 1.562 0 2.678 1.228 2.678 2.679v28.125c0 1.45-1.228 2.679-2.678 2.679ZM3.79 70.424c-1.563 0-2.79-1.228-2.79-2.678V32.03c.112-1.562 1.45-2.678 2.901-2.567a2.856 2.856 0 0 1 2.566 2.567v35.603c0 1.562-1.227 2.79-2.678 2.79Zm11.826-31.25c-1.561 0-2.789-1.228-2.789-2.678V15.401c-.111-1.563 1.004-2.79 2.566-2.902 1.563-.112 2.79 1.005 2.901 2.567v21.428c0 1.451-1.227 2.68-2.678 2.68Zm0 48.214c-1.561 0-2.789-1.227-2.789-2.678V49.777c-.111-1.563 1.004-2.79 2.566-2.902 1.563-.112 2.79 1.005 2.901 2.567V84.71c0 1.45-1.227 2.678-2.678 2.678Zm11.828 7.59c-1.562 0-2.79-1.228-2.79-2.679V73.55c.112-1.562 1.45-2.678 2.901-2.567a2.856 2.856 0 0 1 2.567 2.567V92.3c0 1.451-1.228 2.679-2.678 2.679Zm0-32.143a2.763 2.763 0 0 1-2.79-2.79V6.808c-.111-1.562 1.004-2.79 2.567-2.902 1.562-.111 2.789 1.005 2.9 2.567v53.572c0 1.562-1.227 2.79-2.677 2.79ZM39.27 34.487c-1.562 0-2.678-1.228-2.678-2.79V3.46c0-1.563 1.227-2.679 2.678-2.679 1.562 0 2.678 1.228 2.678 2.679v28.236c0 1.563-1.228 2.79-2.678 2.79Z"/>
</svg>