<svg xmlns="http://www.w3.org/2000/svg" viewBox="0 0 100 100">
	<path fill="#00005B" d="M0 17.5C0 7.835 7.835 0 17.5 0h65C92.165 0 100 7.835 100 17.5v65c0 9.665-7.835 17.5-17.5 17.5h-65C7.835 100 0 92.165 0 82.5v-65Z"/>
	<path fill="#99F" d="M23.773 69.371V26.506c0-.312.135-.469.404-.469.713 0 1.367 0 2.35-.035l3.187-.067c1.142-.023 2.348-.048 3.623-.068a257.4 257.4 0 0 1 3.791-.034c2.914-.075 5.82.357 8.587 1.275a14.91 14.91 0 0 1 5.595 3.419 13.113 13.113 0 0 1 3.054 4.73 15.65 15.65 0 0 1 .938 5.4 14.886 14.886 0 0 1-2.481 8.853 14.025 14.025 0 0 1-6.706 5.067 26.77 26.77 0 0 1-9.393 1.406c-.985 0-1.68-.01-2.083-.031a37.66 37.66 0 0 0-1.813-.034v13.385a.534.534 0 0 1-.604.604h-7.985c-.312-.009-.464-.177-.464-.536Zm9.06-35.284v13.98c.58.044 1.118.066 1.61.066h2.216a15.636 15.636 0 0 0 4.792-.766 7.216 7.216 0 0 0 3.418-2.212 6.44 6.44 0 0 0 1.31-4.294 6.816 6.816 0 0 0-.972-3.691 6.264 6.264 0 0 0-2.917-2.381 12.423 12.423 0 0 0-4.897-.834c-1.075 0-2.025.012-2.85.034-.833.023-1.4.056-1.712.1l.002-.002Zm28.256 2.397h7.31a.91.91 0 0 1 .872.67c.125.33.21.673.25 1.024.096.432.166.87.209 1.31.044.47.066.973.066 1.51a15.638 15.638 0 0 1 4.462-3.587 13.06 13.06 0 0 1 6.325-1.63.535.535 0 0 1 .604.603v8.125c0 .312-.223.468-.673.468a17.385 17.385 0 0 0-4.512.417c-1.2.238-2.37.609-3.487 1.106-.811.365-1.54.89-2.144 1.544v21.263c0 .404-.179.604-.537.604h-8.229a.59.59 0 0 1-.668-.673V46.163a163.665 163.665 0 0 0-.135-6.379 24.578 24.578 0 0 0-.186-2.837.387.387 0 0 1 .279-.469.414.414 0 0 1 .194 0v.006Z"/>
</svg>