<svg xmlns="http://www.w3.org/2000/svg" viewBox="0 0 100 100">
	<path fill="#49021F" d="M0 17.5C0 7.835 7.835 0 17.5 0h65C92.165 0 100 7.835 100 17.5v65c0 9.665-7.835 17.5-17.5 17.5h-65C7.835 100 0 92.165 0 82.5v-65Z"/>
	<path fill="#F36" d="M36.333 26.5v42.75c0 .458-.208.667-.583.667h-8.167c-.375 0-.541-.209-.541-.667V26.5c0-.375.208-.542.583-.542h8.125a.47.47 0 0 1 .541.417c.042.042.042.083.042.125Zm24 44.084c-3.083.041-6.166-.584-8.958-1.876-2.625-1.208-4.792-3.208-6.292-5.666-1.541-2.542-2.291-5.709-2.291-9.5a17.112 17.112 0 0 1 2.291-8.792 17.303 17.303 0 0 1 6.625-6.458c2.917-1.625 6.417-2.417 10.542-2.417.208 0 .5 0 .875.042.375.041.792.041 1.292.083V22.834c0-.292.125-.459.416-.459h8.459c.208-.041.375.125.416.292v39.75c0 .75.042 1.583.084 2.5.083.875.125 1.708.166 2.416 0 .292-.125.542-.416.667a31.815 31.815 0 0 1-6.792 2 36.39 36.39 0 0 1-6.417.584Zm4.084-8.334V43.917c-.375-.084-.75-.167-1.125-.209a15.204 15.204 0 0 0-1.375-.083c-1.625 0-3.25.334-4.709 1.084a9.34 9.34 0 0 0-3.541 3.083c-.917 1.333-1.375 3.125-1.375 5.291A11.61 11.61 0 0 0 53 57.376a8.145 8.145 0 0 0 1.875 2.959A7.198 7.198 0 0 0 57.708 62a10.91 10.91 0 0 0 3.459.542c.625 0 1.208-.042 1.75-.084a3.548 3.548 0 0 0 1.5-.208Z"/>
</svg>