<svg xmlns="http://www.w3.org/2000/svg" viewBox="0 0 100 100">
	<path fill="#001E36" d="M0 17.5C0 7.835 7.835 0 17.5 0h65C92.165 0 100 7.835 100 17.5v65c0 9.665-7.835 17.5-17.5 17.5h-65C7.835 100 0 92.165 0 82.5v-65Z"/>
	<path fill="#31A8FF" d="M52.496 69.916H26.092c-.468 0-.663-.234-.663-.741v-42.59a.524.524 0 0 1 .468-.585h8.307c.195-.039.468.117.468.351v35.101H53.94c.43 0 .546.196.468.586l-1.209 7.254c0 .195-.117.39-.234.507a1.038 1.038 0 0 1-.468.117Zm6.669-33.346h7.294c.429 0 .74.273.858.663.156.273.273.624.35.975.079.429.157.858.196 1.287.039.468.078.975.078 1.482 1.248-1.443 2.769-2.652 4.446-3.588a11.953 11.953 0 0 1 6.201-1.483.524.524 0 0 1 .585.468v8.307c0 .352-.195.469-.663.469-2.69-.156-5.421.35-7.878 1.404-.82.39-1.638.858-2.262 1.56V69.37c0 .429-.156.585-.546.585h-8.112c-.352.039-.625-.156-.664-.507V46.202c0-1.013 0-2.027-.039-3.12-.039-1.091-.039-2.183-.078-3.236a33.137 33.137 0 0 0-.234-2.77c-.039-.194.078-.428.273-.468.078-.077.117-.077.195-.038Z"/>
</svg>