<svg xmlns="http://www.w3.org/2000/svg" viewBox="0 0 100 100">
	<path fill="#241d1b" d="M100 0H0v100h100V0z"/>
	<linearGradient id="a" x1="0" x2="100" y1="51.4331" y2="51.4331" gradientTransform="matrix(1 0 0 -1 0 101.433)" gradientUnits="userSpaceOnUse">
		<stop offset="0" stop-color="#666"/>
		<stop offset=".503" stop-color="#ccc"/>
		<stop offset="1" stop-color="#666"/>
	</linearGradient>
	<path fill="url(#a)" d="M0 0v100h100V0H0zm7.5 7.7h85v84.6h-85V7.7z"/>
	<path fill="#fff" d="M39.8 29c3.9 0 7 .5 8.7 1.4.2.1.3.2.3.6v5.6c0 .4-.2.4-.4.4-2-.9-4.8-1.5-8.3-1.5-8.5 0-14.4 5.4-14.4 14.2 0 11.2 8 14.2 14.2 14.2 3.6 0 6.7-.8 9-1.7.2-.1.4 0 .4.4V68c0 .4-.1.6-.4.8-2.2 1.1-5.9 1.9-10.2 1.9-10.7 0-20.7-6-20.7-20.8C18 38.2 26.5 29 39.8 29zM55.2 67.5c-.4-.2-.4-.5-.4-.9v-5.9c0-.3.2-.5.5-.3 3.4 2.4 8.1 4 12.5 4 4.8 0 6.6-2.2 6.6-4.6 0-2.6-1.2-4-7.9-6.8-8.5-3.6-11.3-6.8-11.3-12.6 0-6 4.9-11.3 14.2-11.3 4.4 0 7.9 1 10 2.2.2.2.4.4.4.8v5.6c0 .2-.2.4-.5.2-2.7-1.6-6.3-2.8-10-2.8-5.6 0-6.7 3-6.7 4.6 0 2.2 1.2 3.9 7.4 6.5 9.9 4.1 12.1 7.6 12.1 12.9 0 7.1-5.6 11.6-14.5 11.6-4.6-.1-9.3-1.1-12.4-3.2z"/>
</svg>