<svg xmlns="http://www.w3.org/2000/svg" viewBox="0 0 100 100">
	<path fill="#470137" d="M0 17.5C0 7.835 7.835 0 17.5 0h65C92.165 0 100 7.835 100 17.5v65c0 9.665-7.835 17.5-17.5 17.5h-65C7.835 100 0 92.165 0 82.5v-65Z"/>
	<path fill="#FF61F6" d="M52.584 26.875 40.084 47.5l13.333 21.875c.083.167.125.333.083.5-.041.167-.208.042-.458.083H43.5c-.666 0-1.125-.041-1.416-.458-.875-1.75-1.792-3.458-2.667-5.208a168.275 168.275 0 0 0-2.833-5.25c-1-1.792-2-3.584-3-5.417H33.5c-.875 1.792-1.833 3.583-2.791 5.375a699.505 699.505 0 0 0-2.834 5.333c-.958 1.75-1.916 3.542-2.875 5.25-.166.417-.5.459-.958.459h-9.167c-.166 0-.291.083-.291-.125a.579.579 0 0 1 .083-.459l12.958-21.25L15 26.833c-.125-.166-.166-.333-.083-.416.083-.125.25-.167.417-.167h9.458c.208 0 .417.042.583.083.167.084.292.209.417.375.792 1.792 1.708 3.584 2.667 5.375 1 1.792 1.958 3.542 3 5.292 1 1.75 1.916 3.5 2.791 5.292h.084a161.51 161.51 0 0 1 2.708-5.375c.917-1.75 1.875-3.5 2.833-5.25.959-1.75 1.875-3.542 2.792-5.25.042-.167.125-.334.25-.417a.794.794 0 0 1 .542-.083h8.791a.384.384 0 0 1 .459.291c.041.042-.042.209-.125.292Zm19.25 43.959c-3.083.041-6.167-.584-8.958-1.876-2.625-1.208-4.792-3.208-6.292-5.666-1.542-2.542-2.292-5.709-2.292-9.5A17.113 17.113 0 0 1 56.584 45a17.303 17.303 0 0 1 6.625-6.458c2.917-1.625 6.417-2.417 10.542-2.417.208 0 .5 0 .875.042.375.041.791.041 1.291.083V23.084c0-.292.125-.459.417-.459h8.458c.209-.041.375.125.417.292v39.75c0 .75.042 1.583.083 2.5.084.875.125 1.708.167 2.416 0 .292-.125.542-.417.667a31.815 31.815 0 0 1-6.791 2c-2.125.375-4.25.584-6.417.584Zm4.083-8.334V44.167c-.375-.084-.75-.167-1.125-.209a15.202 15.202 0 0 0-1.375-.083c-1.625 0-3.25.334-4.708 1.084a9.34 9.34 0 0 0-3.542 3.083c-.916 1.333-1.375 3.125-1.375 5.291a11.612 11.612 0 0 0 .709 4.292 8.142 8.142 0 0 0 1.875 2.959 7.198 7.198 0 0 0 2.833 1.666c1.125.375 2.292.542 3.458.542.625 0 1.209-.042 1.75-.084.542.042 1-.041 1.5-.208Z"/>
</svg>