<svg xmlns="http://www.w3.org/2000/svg" viewBox="0 0 100 100">
	<path fill="#001E36" d="M0 17.5C0 7.835 7.835 0 17.5 0h65C92.165 0 100 7.835 100 17.5v65c0 9.665-7.835 17.5-17.5 17.5h-65C7.835 100 0 92.165 0 82.5v-65Z"/>
	<path fill="#31A8FF" d="M22.517 69.373V26.507c0-.313.135-.47.403-.47a95.3 95.3 0 0 0 2.352-.033 1341.58 1341.58 0 0 1 6.809-.135 230.03 230.03 0 0 1 3.79-.033c3.398 0 6.26.425 8.586 1.275a14.897 14.897 0 0 1 5.602 3.42 13.123 13.123 0 0 1 3.052 4.73c.628 1.731.946 3.56.94 5.4 0 3.579-.828 6.53-2.483 8.855a14.025 14.025 0 0 1-6.708 5.065c-2.818 1.051-5.949 1.408-9.392 1.408-.984 0-1.677-.011-2.08-.033a36.35 36.35 0 0 0-1.81-.034v13.384a.534.534 0 0 1-.604.604h-7.987c-.313 0-.47-.178-.47-.537Zm9.06-35.286v13.981a20.48 20.48 0 0 0 1.61.068h2.214a15.732 15.732 0 0 0 4.797-.766 7.233 7.233 0 0 0 3.421-2.214c.872-1.028 1.308-2.46 1.308-4.293a6.784 6.784 0 0 0-.973-3.69 6.255 6.255 0 0 0-2.918-2.381 12.434 12.434 0 0 0-4.897-.839c-1.073 0-2.024.011-2.85.034-.829.023-1.4.056-1.712.1Zm48.411 11.439a15.685 15.685 0 0 0-3.992-1.409 21.2 21.2 0 0 0-4.662-.536 8.676 8.676 0 0 0-2.515.302 2.26 2.26 0 0 0-1.309.838c-.218.34-.335.736-.335 1.14.012.393.154.77.403 1.074.391.458.87.835 1.408 1.107a28.12 28.12 0 0 0 2.952 1.375 29.247 29.247 0 0 1 6.406 3.052 9.742 9.742 0 0 1 3.288 3.455c.666 1.332 1 2.805.972 4.294a9.643 9.643 0 0 1-1.61 5.534 10.59 10.59 0 0 1-4.662 3.723c-2.036.894-4.551 1.341-7.547 1.342a27.29 27.29 0 0 1-5.668-.537c-1.47-.27-2.901-.72-4.26-1.342a.87.87 0 0 1-.47-.805v-7.245a.394.394 0 0 1 .168-.369.325.325 0 0 1 .369.034 17.924 17.924 0 0 0 5.165 2.046c1.602.402 3.246.615 4.897.637 1.565 0 2.717-.201 3.455-.603a1.895 1.895 0 0 0 1.107-1.745c0-.58-.335-1.14-1.006-1.677-.671-.536-2.035-1.185-4.093-1.945a24.66 24.66 0 0 1-5.936-3.019 10.24 10.24 0 0 1-3.153-3.522 9.25 9.25 0 0 1-.973-4.26 9.616 9.616 0 0 1 1.409-5.03 10.237 10.237 0 0 1 4.36-3.825c1.968-.983 4.427-1.475 7.38-1.475 1.728-.014 3.456.11 5.165.369 1.238.157 2.448.484 3.596.972a.61.61 0 0 1 .402.37c.046.163.068.332.068.502v6.776a.451.451 0 0 1-.202.402.648.648 0 0 1-.577 0Z"/>
</svg>