<svg xmlns="http://www.w3.org/2000/svg" viewBox="0 0 100 100">
	<path fill="#300" d="M0 17.5C0 7.835 7.835 0 17.5 0h65C92.165 0 100 7.835 100 17.5v65c0 9.665-7.835 17.5-17.5 17.5h-65C7.835 100 0 92.165 0 82.5v-65Z"/>
	<path fill="#FF9A00" d="M48.459 59.512H32.962l-3.153 9.794a.79.79 0 0 1-.805.604h-7.848c-.448 0-.604-.246-.47-.738l13.417-38.64c.134-.402.268-.86.402-1.375.176-.895.266-1.805.269-2.717a.415.415 0 0 1 .47-.47h10.665c.313 0 .492.112.537.336l15.228 42.933c.134.447 0 .671-.403.67h-8.72a.62.62 0 0 1-.671-.469l-3.422-9.928Zm-13.082-8.453h10.6c-.269-.894-.582-1.9-.94-3.018a717.458 717.458 0 0 1-1.14-3.59l-1.208-3.823a128.05 128.05 0 0 1-1.106-3.69 336.949 336.949 0 0 1-.906-3.253h-.067a54.214 54.214 0 0 1-1.41 5.365c-.627 2.013-1.264 4.07-1.912 6.172a165.104 165.104 0 0 1-1.912 5.836ZM70.73 33.081a4.867 4.867 0 0 1-3.69-1.476 5.307 5.307 0 0 1-1.41-3.824 4.923 4.923 0 0 1 1.51-3.723 5.185 5.185 0 0 1 3.724-1.442c1.61 0 2.873.48 3.79 1.442a5.18 5.18 0 0 1 1.375 3.723 5.241 5.241 0 0 1-1.442 3.824 5.147 5.147 0 0 1-3.858 1.476ZM66.1 69.239V37.173c0-.403.179-.604.537-.604h8.251c.358 0 .537.201.537.604v32.066c0 .447-.179.671-.537.67h-8.184c-.402 0-.603-.223-.603-.67Z"/>
</svg>