<svg xmlns="http://www.w3.org/2000/svg" viewBox="0 0 100 100">
	<path fill="#470137" d="M0 17.5C0 7.835 7.835 0 17.5 0h65C92.165 0 100 7.835 100 17.5v65c0 9.665-7.835 17.5-17.5 17.5h-65C7.835 100 0 92.165 0 82.5v-65Z"/>
	<path fill="#FF61F6" d="M9.5 69.75V27.083c-.042-.25.167-.5.417-.542h.041a43.02 43.02 0 0 1 2.792-.083c1.25-.042 2.667-.042 4.333-.083 1.667-.042 3.417-.042 5.292-.042 5.083 0 9.333.917 12.667 2.75a18.271 18.271 0 0 1 7.541 7.542c1.667 3.208 2.5 6.875 2.5 11.041.042 2.917-.375 5.792-1.291 8.542a20.3 20.3 0 0 1-3.584 6.417 21.81 21.81 0 0 1-5.125 4.458c-1.875 1.167-3.958 2.042-6.125 2.625-2.083.542-4.25.833-6.416.833h-4.709c-1.666 0-3.25 0-4.666-.041-1.459-.042-2.542-.042-3.25-.084-.292 0-.417-.25-.417-.666Zm8.792-35.167v27.792c.458 0 .875 0 1.291.041.375.042.792.042 1.167.084.417.041.875.041 1.375.041a15.588 15.588 0 0 0 5.667-.958c1.666-.583 3.125-1.542 4.375-2.833a12.868 12.868 0 0 0 2.791-4.625c.667-2 1-4.125 1-6.25.042-2-.291-4-.958-5.875a10.866 10.866 0 0 0-7.125-6.75c-1.792-.542-3.625-.834-5.5-.792-.833 0-1.542 0-2.125.042-.583 0-1.25.041-1.958.083Zm64.125 35.833h-7.792c-.167.042-.375-.041-.5-.166a1.408 1.408 0 0 1-.25-.5 392.79 392.79 0 0 1-2-8.875c-.542-2.584-1-4.75-1.333-6.542a342.054 342.054 0 0 0-.875-4.542c-.209-1.25-.417-2.291-.542-3.166h-.042c-.416 1.833-.791 3.625-1.166 5.333-.334 1.708-.75 3.458-1.167 5.208a280.21 280.21 0 0 1-1.417 5.75c-.5 2.084-1.083 4.375-1.708 6.834-.083.458-.292.666-.667.666h-7.791c-.209.042-.417-.041-.584-.125-.125-.125-.208-.291-.291-.458l-8.125-32.208c-.125-.375.041-.542.5-.542h7.875c.375 0 .583.125.625.417.833 3.666 1.541 6.833 2.083 9.5.542 2.666 1 4.916 1.292 6.791.291 1.875.583 3.417.791 4.584.209 1.166.375 2.166.5 2.916h.125a31.7 31.7 0 0 1 .292-1.958c.167-.792.375-1.833.625-3.125s.542-2.792.917-4.542.791-3.75 1.291-6.083c.459-2.292 1.125-4.917 1.917-7.875 0-.167.083-.375.167-.542.041-.083.208-.125.458-.125h8.167c.25 0 .375.167.416.459a566.104 566.104 0 0 1 1.792 8c.458 2.291.875 4.333 1.25 6.125.333 1.75.625 3.291.792 4.541.166 1.292.375 2.334.541 3.209.125.708.25 1.416.292 2.125H79c.208-.834.375-1.834.542-2.959.166-1.125.375-2.375.666-3.791.25-1.417.542-2.959.875-4.667.292-1.708.709-3.583 1.167-5.708.458-2.084.958-4.375 1.542-6.834.083-.375.25-.541.541-.541h7.292c.375 0 .5.208.417.583l-9 32.125a.992.992 0 0 1-.25.458c0 .209-.167.292-.375.25Z"/>
</svg>