<svg xmlns="http://www.w3.org/2000/svg" viewBox="0 0 100 100">
	<path fill="#D20E10" d="M0 17.5C0 7.835 7.835 0 17.5 0h65C92.165 0 100 7.835 100 17.5v65c0 9.665-7.835 17.5-17.5 17.5h-65C7.835 100 0 92.165 0 82.5v-65Z"/>
	<path fill="#F5F5F5" d="M55.972 17.74c6.426-2.295 13.954 2.168 15.454 8.732 1.278 4.315-.972 8.556-.99 12.88-.39 7.018 1.934 14.093 6.295 19.583 2.01 2.611 4.667 4.935 5.436 8.278 1.86 5.963-1.732 12.926-7.648 14.907-4.278 1.593-9.306.269-12.51-2.898-5.166-5.064-12.065-8.805-19.463-8.666-5.722-.37-11.694 2.453-17.203-.148-6.084-2.5-8.843-10.464-5.908-16.278 1.565-3.649 5.047-6.111 8.834-7.065 9.287-2.657 16.703-10.38 19.296-19.648 1.055-4.334 3.981-8.38 8.407-9.676Zm-6.537 24.047a12.13 12.13 0 0 0-7.648 13.176c.787 6.102 6.76 10.972 12.926 10.306 6.574-.612 11.648-7.232 10.546-13.75-.713-7.241-8.99-12.602-15.824-9.732Z"/>
</svg>