<svg xmlns="http://www.w3.org/2000/svg" viewBox="0 0 100 100">
	<path fill="#4F4929" d="M0 17.5C0 7.835 7.835 0 17.5 0h65C92.165 0 100 7.835 100 17.5v65c0 9.665-7.835 17.5-17.5 17.5h-65C7.835 100 0 92.165 0 82.5v-65Z"/>
	<path fill="#D9D9D9" d="M13.83 15.92h74.32v68.378H13.83V15.92Z"/>
	<path fill="#000" d="M10.494 83.823a6 6 0 0 0 6 6h69.2a6 6 0 0 0 6-6V16.708a6 6 0 0 0-6-6h-69.2a6 6 0 0 0-6 6v67.115Zm30.933-56.284.963 7.113c-5.42.053-10.84 0-16.26-.028 0 3.67-.044 7.335-.139 11.003 4.84 0 9.686-.064 14.523.136v6.952c-4.75.004-9.5.128-14.249.246l-.258 16.374c-2.773.083-5.547.11-8.321.152 0-14.041.05-28.082.139-42.123 7.867.05 15.735.09 23.602.174ZM57.42 59.316l3.96-22 8.41-.133 3.975 22.144 4.083-22.092 8.151.096-8.052 32.081-8.629-.052-3.966-22.373-5.194 22.353-8.355-.091-7.209-31.907 9.168-.16 3.658 22.134Z"/>
</svg>