<svg xmlns="http://www.w3.org/2000/svg" viewBox="0 0 100 100">
	<path fill="#1f2600" d="M100 0H0v100h100V0z"/>
	<path fill="#c1e800" d="M0 0v100h100V0H0zm95.8 95.8H4.2V4.2h91.7v91.6z"/>
	<path fill="#c1e800" d="M73.2 73c5.1 0 9.1-1.5 12.8-2.8.2-.1.3-.2.3-.5-.2-2.3-.3-3.7-.3-4.2h.1V39c0-.3-.1-.5-.5-.5H79c-.4 0-.5.2-.5.5v26.6c-1 .4-2.6.8-4.3.8-4.2 0-5.8-2.2-5.8-6.2V39c0-.3-.2-.5-.5-.5h-6.5c-.4 0-.5.2-.5.5v22c0 9.6 6 12 12.3 12zM14.5 72.5h6c.3 0 .5-.1.5-.5.5-14.9 1.1-33.8 1.1-39.2h.1c1.6 7.8 6.2 29 8.8 39.2.1.3.3.5.6.5h6c.2 0 .5-.1.5-.5 2.6-9.8 8.7-33.3 9.8-39.2h.1c0 3.7 0 24.5.3 39.2 0 .3.1.5.5.5h6.7c.4 0 .6-.1.5-.5l-1.7-45c-.1-.2-.2-.3-.5-.3h-9.4c-.3 0-.5.1-.5.4-1.8 6.8-7.6 27.8-8.9 34.2h-.1c-1.2-7-6.1-27.8-7.8-34.2 0-.3-.2-.4-.5-.4H17c-.4 0-.4 0-.5.4L14 72c0 .3.1.5.5.5z"/>
</svg>