<svg xmlns="http://www.w3.org/2000/svg" viewBox="0 0 100 100">
	<path fill="#00005B" d="M0 17.5C0 7.835 7.835 0 17.5 0h65C92.165 0 100 7.835 100 17.5v65c0 9.665-7.835 17.5-17.5 17.5h-65C7.835 100 0 92.165 0 82.5v-65Z"/>
	<path fill="#99F" d="M40.173 59.833H24.677l-3.153 9.813a.79.79 0 0 1-.805.604H12.87c-.448 0-.604-.246-.47-.738l13.417-38.48c.134-.403.268-.796.403-1.31.175-.896.265-1.806.268-2.718a.415.415 0 0 1 .47-.47h10.666c.312 0 .491.113.536.336l15.228 42.71c.134.447 0 .67-.402.67h-8.721a.62.62 0 0 1-.67-.47l-3.422-9.947ZM27.092 51.56H37.69c-.268-.894-.582-1.9-.94-3.019a707.645 707.645 0 0 1-1.14-3.588l-1.207-3.824a128.71 128.71 0 0 1-1.107-3.69 351.172 351.172 0 0 1-.906-3.253h-.067a54.102 54.102 0 0 1-1.409 5.366c-.626 2.013-1.264 4.07-1.911 6.172a165.32 165.32 0 0 1-1.912 5.836Zm50.983 4.454H64.86a9.424 9.424 0 0 0 1.275 3.696 6.9 6.9 0 0 0 3.052 2.515 12.745 12.745 0 0 0 5.333 1.046 24.177 24.177 0 0 0 4.327-.475 15.949 15.949 0 0 0 3.72-.97c.223-.178.336-.067.336.335v6.373a.994.994 0 0 1-.101.503.96.96 0 0 1-.302.302 17.059 17.059 0 0 1-4.156 1.238 29.485 29.485 0 0 1-5.904.504c-3.176 0-5.837-.493-7.983-1.476a14.226 14.226 0 0 1-5.232-3.958 15.497 15.497 0 0 1-2.885-5.468 21.532 21.532 0 0 1-.872-6.07 21.147 21.147 0 0 1 1.04-6.608 17.26 17.26 0 0 1 3.12-5.702 14.985 14.985 0 0 1 5.03-3.958c1.968-.962 4.294-1.306 6.977-1.306a15.14 15.14 0 0 1 6.474 1.274 11.41 11.41 0 0 1 4.394 3.319 15.258 15.258 0 0 1 2.482 4.73c.528 1.647.8 3.367.805 5.098 0 .984-.034 1.878-.1 2.683a47.472 47.472 0 0 1-.168 1.744.608.608 0 0 1-.604.537c-.269 0-.727.033-1.375.1a31.25 31.25 0 0 1-2.415.134c-.963.023-1.98-.14-3.053-.14ZM64.86 49.903h8.788a60.5 60.5 0 0 0 2.381-.034c.344-.034.677-.144.973-.322v-.403a5.362 5.362 0 0 0-.268-1.543 5.48 5.48 0 0 0-5.434-3.823 5.828 5.828 0 0 0-5.534 3.152 9.707 9.707 0 0 0-.906 2.973Z"/>
</svg>