<svg xmlns="http://www.w3.org/2000/svg" viewBox="0 0 100 100">
	<path fill="#FA0F00" d="M0 17.5C0 7.835 7.835 0 17.5 0h65C92.165 0 100 7.835 100 17.5v65c0 9.665-7.835 17.5-17.5 17.5h-65C7.835 100 0 92.165 0 82.5v-65Z"/>
	<path fill="#fff" d="M81.333 57.778c-4.814-5-17.963-2.963-21.11-2.593-4.63-4.444-7.779-9.815-8.89-11.666 1.667-5 2.778-10 2.963-15.37 0-4.63-1.852-9.63-7.037-9.63-1.852 0-3.518 1.11-4.444 2.592-2.222 3.889-1.296 11.667 2.222 19.63-2.037 5.74-3.889 11.296-9.074 21.11-5.37 2.223-16.667 7.408-17.593 12.964-.37 1.666.185 3.333 1.482 4.63 1.296 1.11 2.963 1.666 4.63 1.666 6.851 0 13.518-9.444 18.148-17.407 3.889-1.297 10-3.148 16.11-4.26 7.223 6.297 13.52 7.223 16.853 7.223 4.444 0 6.11-1.852 6.666-3.519.926-1.852.37-3.889-.926-5.37Zm-4.63 3.148c-.184 1.296-1.851 2.593-4.814 1.852-3.519-.926-6.667-2.593-9.445-4.815 2.408-.37 7.778-.926 11.667-.185 1.481.37 2.963 1.296 2.593 3.148ZM45.779 22.778c.37-.556.926-.926 1.481-.926 1.667 0 2.037 2.037 2.037 3.704a40.696 40.696 0 0 1-2.222 11.481c-2.778-7.407-2.222-12.592-1.296-14.26Zm-.37 35.926c1.48-2.963 3.518-8.148 4.259-10.37 1.666 2.777 4.444 6.11 5.926 7.592 0 .185-5.741 1.296-10.186 2.778ZM34.48 66.11c-4.259 7.037-8.703 11.482-11.11 11.482-.371 0-.741-.186-1.112-.37-.555-.371-.74-.927-.555-1.667.555-2.593 5.37-6.111 12.777-9.445Z"/>
</svg>