<svg xmlns="http://www.w3.org/2000/svg" viewBox="0 0 100 100">
	<path fill="#2c5bb4" d="M0 50C0 22.4 22.4 0 50 0s50 22.4 50 50-22.4 50-50 50S0 77.6 0 50zm50 45.8c10.3 0 20.3-3.5 28.4-9.9l-1.3-2.7c-1.6.5-3.4-.4-3.9-2-.3-.8-.2-1.7.2-2.5.3-.5.6-.9 1.1-1.1l-3-6.5c-1.5.5-3.2.3-4.5-.7-.9-.6-1.5-1.4-1.9-2.4l-10.3 2.6c0 1.7-1.4 3.1-3.1 3.1-1.7 0-3.1-1.4-3.1-3.1 0-.2 0-.5.1-.7l-14.5-6.2c-1.1 1.9-3.2 2.9-5.3 2.5L25.8 77c1.5.8 2.1 2.7 1.3 4.2-.4.8-1.1 1.4-2 1.6l.2 5.7c7.3 4.8 15.9 7.4 24.7 7.3zm-26-8.1-.2-4.8c-1.7-.3-2.8-1.9-2.6-3.6.3-1.5 1.5-2.6 3.1-2.6h.3l3-10.7c-1.9-.8-3.2-2.7-3.2-4.8L5 58.8c2.3 11.8 9.1 22.1 19 28.9zm55.4-2.5c4.7-3.9 8.6-8.8 11.4-14.3l-15.9-3.1c-.4 1.2-1.2 2.2-2.2 2.8l3.1 6.6c1.7-.2 3.3.9 3.5 2.6.1.6 0 1.2-.2 1.7-.2.4-.4.8-.8 1.1l1.1 2.6zm12-15.4c3-6.2 4.5-12.9 4.5-19.8 0-10.6-3.7-20.8-10.4-29l-6.3 2.1c.3 1.1-.1 2.2-.8 2.9-1.2 1.2-3.2 1.2-4.4 0-.3-.3-.5-.6-.6-.9l-13.1 4.5c.2.9.4 1.8.4 2.8 0 3.5-1.7 6.7-4.6 8.6L68 61.4c.6-.3 1.3-.4 2-.4 2.9 0 5.2 2.3 5.2 5.2v.4l16.2 3.2zm-36.9-.3 10.3-2.6c-.2-1.9.5-3.7 2-4.8L54.9 41.6c-1.5.7-3.1 1.1-4.7 1.1-1.9 0-3.8-.5-5.5-1.6L33.2 57.4c1.5 1.3 2 3.4 1.5 5.3l14.5 6.2c.6-.8 1.5-1.3 2.5-1.3 1.2 0 2.3.7 2.8 1.9zM24.6 60c.6-2.3 2.7-3.9 5-3.9.9 0 1.7.2 2.5.6l11.5-16.2c-2.5-2-3.9-4.9-3.9-8.1 0-2.5.9-4.9 2.6-6.8L27 10.4C10.5 19.9 1.7 38.7 4.8 57.6L24.6 60zm35.2-31.6L73 23.9c0-1.7 1.4-3.1 3.1-3.1 1 0 1.9.5 2.5 1.2l6-2C75.9 9.9 63.3 4.2 50 4.1c-7.6 0-15.2 1.9-21.9 5.6l15.2 14.9c1.9-1.7 4.4-2.7 6.9-2.7 4.2.1 8 2.6 9.6 6.5z"/>
</svg>