<svg xmlns="http://www.w3.org/2000/svg" viewBox="0 0 100 100">
	<path fill="#FF5A5F" d="M95.6 71.071c-.5-1.201-1.001-2.502-1.502-3.603-.8-1.802-1.601-3.504-2.302-5.106l-.1-.1c-6.907-15.015-14.314-30.23-22.122-45.245l-.3-.6a204.31 204.31 0 0 1-2.403-4.705c-1-1.802-2.002-3.704-3.603-5.506C60.064 2.202 55.46 0 50.555 0c-5.005 0-9.51 2.202-12.813 6.006-1.501 1.802-2.602 3.704-3.603 5.505a202.5 202.5 0 0 1-2.403 4.705l-.3.6C23.728 31.833 16.22 47.048 9.314 62.063l-.1.2c-.701 1.602-1.502 3.304-2.303 5.105a65.907 65.907 0 0 0-1.501 3.604c-1.302 3.704-1.702 7.207-1.201 10.81 1.1 7.508 6.106 13.815 13.013 16.617C19.824 99.5 22.527 100 25.33 100c.8 0 1.802-.1 2.602-.2 3.304-.4 6.707-1.502 10.01-3.404 4.104-2.302 8.008-5.605 12.413-10.41 4.404 4.805 8.408 8.108 12.412 10.41 3.303 1.902 6.707 3.003 10.01 3.404.8.1 1.802.2 2.603.2 2.803 0 5.605-.5 8.108-1.602C90.495 95.596 95.4 89.19 96.5 81.782c.8-3.504.4-7.007-.901-10.71Zm-45.145 5.205c-5.406-6.806-8.91-13.213-10.11-18.618-.5-2.303-.6-4.305-.3-6.106.2-1.602.8-3.004 1.601-4.205 1.902-2.702 5.105-4.404 8.809-4.404 3.703 0 7.007 1.602 8.809 4.404.8 1.201 1.401 2.603 1.601 4.205.3 1.801.2 3.904-.3 6.106-1.201 5.305-4.705 11.711-10.11 18.618Zm39.94 4.705c-.701 5.205-4.204 9.71-9.11 11.712-2.402 1-5.004 1.301-7.607 1-2.502-.3-5.005-1.1-7.608-2.602-3.603-2.002-7.207-5.105-11.411-9.71 6.607-8.108 10.61-15.515 12.112-22.122.7-3.103.8-5.906.5-8.508-.4-2.503-1.3-4.805-2.702-6.807-3.103-4.505-8.308-7.107-14.114-7.107-5.806 0-11.011 2.702-14.114 7.107-1.402 2.002-2.303 4.304-2.703 6.807-.4 2.602-.3 5.505.5 8.508 1.502 6.607 5.606 14.114 12.113 22.222-4.104 4.605-7.808 7.708-11.412 9.71-2.602 1.502-5.105 2.302-7.607 2.603-2.703.3-5.306-.1-7.608-1.001-4.905-2.002-8.408-6.507-9.11-11.712-.3-2.502-.1-5.005.902-7.808.3-1 .8-2.002 1.301-3.203.7-1.601 1.502-3.303 2.302-5.005l.1-.2c6.907-14.915 14.315-30.13 22.023-44.945l.3-.6c.8-1.502 1.601-3.104 2.402-4.605.801-1.602 1.702-3.103 2.803-4.405 2.102-2.402 4.905-3.703 8.008-3.703 3.103 0 5.906 1.3 8.008 3.703 1.101 1.302 2.002 2.803 2.803 4.405.8 1.501 1.601 3.103 2.402 4.604l.3.6A1327.833 1327.833 0 0 1 86.09 64.966v.1c.801 1.602 1.502 3.404 2.303 5.005.5 1.201 1 2.202 1.301 3.203.8 2.603 1.101 5.105.7 7.708Z"/>
</svg>