<svg xmlns="http://www.w3.org/2000/svg" viewBox="0 0 100 100">
	<path fill="#017CEE" d="M1.612 99.599 49.49 50.52a.885.885 0 0 0 .107-1.131c-2.911-4.065-8.284-4.77-10.275-7.501-5.897-8.09-7.394-12.67-9.928-12.387a.775.775 0 0 0-.46.243l-17.295 17.73C1.689 57.667.259 80.131 0 98.943a.937.937 0 0 0 1.612.656Z"/>
	<path fill="#00AD46" d="M99.6 98.389 50.522 50.507a.885.885 0 0 0-1.133-.107c-4.065 2.913-4.77 8.284-7.501 10.275-8.09 5.897-12.67 7.394-12.386 9.928a.774.774 0 0 0 .242.459l17.73 17.295c10.192 9.95 32.656 11.38 51.468 11.639a.937.937 0 0 0 .658-1.607Z"/>
	<path fill="#04D659" d="M47.475 88.36c-5.572-5.435-8.154-16.187 2.524-38.359-17.358 7.758-23.441 17.954-20.45 20.874l17.926 17.486Z"/>
	<path fill="#00C7D4" d="M98.386.403 50.51 49.481a.883.883 0 0 0-.107 1.131c2.913 4.065 8.282 4.77 10.275 7.501 5.897 8.09 7.395 12.67 9.928 12.386a.771.771 0 0 0 .46-.243l17.295-17.73C98.311 42.335 99.742 19.871 100 1.06a.934.934 0 0 0-.585-.872.94.94 0 0 0-1.029.216Z"/>
	<path fill="#11E1EE" d="M88.37 52.525c-5.436 5.572-16.188 8.153-38.362-2.524 7.758 17.358 17.954 23.44 20.874 20.45L88.37 52.524Z"/>
	<path fill="#E43921" d="M.397 1.614 49.475 49.49a.886.886 0 0 0 1.131.107c4.065-2.913 4.77-8.284 7.501-10.274 8.09-5.898 12.67-7.394 12.386-9.929a.78.78 0 0 0-.242-.46L52.52 11.639C42.329 1.689 19.865.259 1.053 0a.938.938 0 0 0-.656 1.614Z"/>
	<path fill="#FF7557" d="M52.53 11.64c5.57 5.435 8.152 16.187-2.525 38.36 17.358-7.757 23.44-17.955 20.45-20.873L52.529 11.64Z"/>
	<path fill="#0CB6FF" d="M11.639 47.478c5.435-5.57 16.188-8.153 38.361 2.525-7.757-17.358-17.954-23.441-20.874-20.45L11.64 47.478Z"/>
	<path fill="#4A4848" d="M50.007 52.133a2.14 2.14 0 1 0 0-4.28 2.14 2.14 0 0 0 0 4.28Z"/>
</svg>