<svg xmlns="http://www.w3.org/2000/svg" viewBox="0 0 100 100">
	<path fill="#8c96a1" d="M10.1 41.1.4 62.8h6.3l1.9-4.6h9.7l1.9 4.6h6.3l-9.7-21.7h-6.7zm3.4 13.4h-3.3l1.6-4.1 1.6-4.1 1.6 4.1 1.6 4.1h-3.1zM90.4 51.6l8.5-10.5h-7.1L87 48l-4.6-6.9h-7.2l8.3 10.6-9.2 11.2h7.6l5.2-7.4 5.2 7.4h7.2zM57 41.1l-9.7 21.7h6.3l1.9-4.6h9.7l1.9 4.6h6.3l-9.7-21.7H57zm3.5 13.4h-3.3l1.6-4.1 1.6-4.1 1.6 4.1 1.6 4.1h-3.1zM50.6 43l2.6-2.7-8.5-8.5-8.6 8.5 3 2.7 2.8-2.8h.3v16.2c0 2-1.6 3.7-3.7 3.7h-2.9c-2 0-3.7-1.6-3.7-3.7v-1.7h-5.7v2.2c0 3.7 3 6.7 6.7 6.7h7.6c3.7 0 6.7-3 6.7-6.7V40.2h.2l3.2 2.8z"/>
	<path fill="#8c96a1" d="m37.6 44.4-3-2.7-2.8 2.8h-.3V28.4c0-2 1.6-3.7 3.7-3.7h2.9c2 0 3.7 1.6 3.7 3.7v1.7h5.7V28c0-3.7-3-6.7-6.7-6.7h-7.6c-3.7 0-6.7 3-6.7 6.7v16.6h-.2L23 41.8l-2.6 2.7 8.5 8.5 8.7-8.6z"/>
	<linearGradient id="a" x1="49.9326" x2="49.9326" y1="81.0423" y2="38.575" gradientTransform="matrix(1 0 0 -1 0 101.433)" gradientUnits="userSpaceOnUse">
		<stop offset="0" stop-color="#70b0df"/>
		<stop offset=".5" stop-color="#1b81c5"/>
		<stop offset="1" stop-color="#4a98ce"/>
	</linearGradient>
	<path fill="url(#a)" d="M33.3 20.7c-3.7 0-6.7 3-6.7 6.7V44h-.2l-3.3-2.8-2.6 2.7 8.5 8.5 8.6-8.5-3-2.7-2.8 2.8h-.3V27.9c0-2 1.6-3.7 3.7-3.7h2.9c2 0 3.7 1.6 3.7 3.7v1.7h5.7v-2.1c0-3.7-3-6.7-6.7-6.7h-7.5zm11.4 10.7-8.6 8.5 3 2.7 2.8-2.8h.3V56c0 2-1.6 3.7-3.7 3.7h-2.9c-2 0-3.7-1.6-3.7-3.7v-1.7h-5.7v2.2c0 3.7 3 6.7 6.7 6.7h7.6c3.7 0 6.7-3 6.7-6.7V39.7h.2l3.3 2.8 2.6-2.7c-.1 0-8.6-8.4-8.6-8.4zm30.5 9.1 8.4 10.6-9.3 11.2H82l5.1-7.4 5.2 7.4h7.2L90.4 51l8.5-10.5h-7.1l-4.8 7-4.6-6.9-7.2-.1zm-65.1.1L.4 62.3h6.3l1.9-4.6h9.7l1.9 4.6h6.3l-9.7-21.7h-6.7zm46.9 0-9.7 21.7h6.3l1.9-4.6h9.7l1.9 4.6h6.3l-9.7-21.7H57zm-43.5 5.1 1.6 4.1 1.6 4.1h-6.6l1.6-4.1c.2.1 1.8-4.1 1.8-4.1zm47 0 1.6 4.1 1.6 4.1h-6.6l1.6-4.1c.1.1 1.8-4.1 1.8-4.1z"/>
	<path fill="#0c4c75" d="M26.3 27.4c0-3.8 3.1-6.9 6.9-6.9h7.6c3.8 0 6.9 3.1 6.9 6.9v2.4h-6.2v-2c0-1.9-1.5-3.5-3.4-3.5h-2.9c-1.9 0-3.5 1.5-3.5 3.4v15.9l2.9-2.9 3.3 3-9 8.8-8.8-8.8 2.9-3 3.3 2.8V27.4zm7-6.4c-3.6 0-6.4 2.9-6.5 6.4v16.8h-.6L23 41.5l-2.2 2.3L29 52l8.2-8.1-2.6-2.3-2.7 2.7h-.7V27.9c0-2.2 1.8-4 4-4h2.9c2.2 0 4 1.8 4 4v1.5h5.2v-1.9c0-3.6-2.9-6.4-6.4-6.5h-7.6zm11.4 10 8.8 8.8-2.9 3-3.3-2.8v16.2c0 3.8-3.1 6.9-6.9 6.9h-7.6c-3.8 0-6.9-3.1-6.9-6.9v-2.4h6.2v2c0 1.9 1.5 3.5 3.4 3.5h2.9c1.9 0 3.5-1.5 3.5-3.4V40L39 42.9l-3.3-3c.1-.1 9-8.9 9-8.9zm-8.2 8.8 2.6 2.3 2.7-2.7h.7v16.4c0 2.2-1.8 3.9-3.9 4h-2.9c-2.2 0-4-1.8-4-4v-1.5h-5.2v1.9c0 3.6 2.9 6.4 6.4 6.5h7.6c3.6 0 6.4-2.9 6.5-6.4V39.5h.6l3.2 2.7 2.2-2.3-8.1-8.1-8.4 8zm38.2.5h7.8L87 47l4.7-6.7h7.7l-8.7 10.8 9.3 11.6h-7.8l-5.1-7.2-5 7.2h-8.3l.1-.1H67L65.1 58h-9.4l-1.9 4.6H47l9.9-22.2H64l9.9 22.1 9.4-11.3-8.6-10.9zm1 .5 8.2 10.4-9.1 11h7l5.2-7.6 5.4 7.6H99l-8.9-11.1 8.3-10.3H92l-5 7.1-4.7-7.1h-6.6zm-65.8-.4H17l9.9 22.2H20L18.2 58H8.8l-1.9 4.6H0l9.9-22.2zm.3.5L.8 62.1h5.8l1.9-4.6h10.1l1.9 4.6h5.8l-9.5-21.2h-6.6zm47 0-9.5 21.2h5.8l1.9-4.6h10.1l1.9 4.6h5.8l-9.5-21.2h-6.5zm-43.7 4.2 1.9 4.7 1.8 4.5H9.9c0-.1 3.6-9.2 3.6-9.2zm47 0 1.9 4.7 1.8 4.5h-7.3l3.6-9.2zm-47 1.3-2.9 7.3h5.8l-2.9-7.3zm47 0-2.9 7.3h5.8l-2.9-7.3z"/>
</svg>