<svg xmlns="http://www.w3.org/2000/svg" viewBox="0 0 100 100">
	<path fill="#009AD3" d="M51.865 27.87c7.696 0 13.935-6.24 13.935-13.936C65.8 6.24 59.56 0 51.865 0c-7.696 0-13.934 6.239-13.934 13.934 0 7.696 6.238 13.935 13.934 13.935Zm0 38.485c6.23 0 11.28-5.05 11.28-11.28 0-5.505-3.942-10.088-9.157-11.081v-13.47h-3.98v13.423c-5.347.886-9.423 5.53-9.423 11.128 0 6.23 5.05 11.28 11.28 11.28ZM10.91 63.963c4.866 3.89 11.965 3.098 15.855-1.768 3.447-4.313 3.218-10.379-.267-14.41l15.38-19.34-3.117-2.479-15.354 19.31c-4.723-2.616-10.78-1.526-14.265 2.832-3.89 4.867-3.098 11.965 1.768 15.855ZM4.83 97.256a7.034 7.034 0 0 0 6.25-12.436l5.12-15.725-3.785-1.233-5.108 15.685A7.034 7.034 0 0 0 4.83 97.256Zm29.432 2.23a7.034 7.034 0 0 1-7.013-12.029l-7.095-17.982 3.703-1.462 7.082 17.95a7.033 7.033 0 0 1 3.322 13.523Zm60.313-2.07a7.033 7.033 0 0 1-5.81-12.67L84.32 69.02l3.832-1.083 4.438 15.71a7.034 7.034 0 0 1 1.984 13.769Zm-26.089-.09A7.034 7.034 0 0 1 56.57 90.13L27.499 65.893l2.55-3.058 29.04 24.211a7.034 7.034 0 0 1 9.396 10.28ZM92.82 63.964c-4.866 3.89-11.965 3.098-15.854-1.768-3.448-4.313-3.218-10.379.266-14.41l-15.38-19.34 3.117-2.479 15.354 19.31c4.723-2.616 10.78-1.526 14.265 2.832 3.89 4.867 3.098 11.965-1.768 15.855Z"/>
</svg>