<svg xmlns="http://www.w3.org/2000/svg" viewBox="0 0 100 100">
	<linearGradient id="a" x1="50" x2="50" y1="100.879" y2="1.9871" gradientTransform="matrix(1 0 0 -1 0 101.433)" gradientUnits="userSpaceOnUse">
		<stop offset="0" stop-color="#0db0d3"/>
		<stop offset="1" stop-color="#9d31fe"/>
	</linearGradient>
	<path fill="url(#a)" d="M71.3.6H42.6v22.3h12.8V34h-9.6v4.8H31.4V42h14.4v4.8h9.6v10.1L41.2 66l14.1 9v8.5H46c-2.8 0-5 2.2-5 5v6c0 2.8 2.2 5 5 5h21.9c2.8 0 5-2.2 5-5v-6c0-2.8-2.2-5-5-5h-9.4V75l14.1-9-14.1-9V46.8h9.6V34h-9.6V22.9h12.8V.6zM45.8 19.7v-16h22.3v16H45.8zm44.9-6.4H74.5v-3.2h16.2c.7-1.9 2.4-3.2 4.5-3.2 2.6 0 4.8 2.1 4.8 4.8 0 2.1-1.3 3.9-3.2 4.5v45.2c1.9.7 3.2 2.4 3.2 4.5 0 2.6-2.1 4.8-4.8 4.8-2.1 0-3.9-1.3-4.5-3.2H79.9l3.7 3.7-2.3 2.3-7.5-7.5 7.5-7.5 2.3 2.3-3.7 3.7h10.8c.5-1.4 1.6-2.4 2.9-2.9V16.2c-1.3-.4-2.4-1.5-2.9-2.9zm2.9-1.6c0-.9.7-1.6 1.6-1.6.9 0 1.6.7 1.6 1.6 0 .9-.7 1.6-1.6 1.6-.9 0-1.6-.7-1.6-1.6zm1.6 52.7c-.9 0-1.6.7-1.6 1.6 0 .9.7 1.6 1.6 1.6.9 0 1.6-.7 1.6-1.6 0-.9-.7-1.6-1.6-1.6zM15.5 87c1.4.5 2.4 1.6 2.9 2.9h14l-3.7-3.7L31 84l7.5 7.5-7.6 7.5-2.3-2.3 3.7-3.7h-14c-.7 1.9-2.4 3.2-4.5 3.2-2.6 0-4.8-2.1-4.8-4.8 0-2.1 1.3-3.9 3.2-4.5V53.2h3.2V87zm0 4.5c0-.9-.7-1.6-1.6-1.6-.9 0-1.6.7-1.6 1.6 0 .9.7 1.6 1.6 1.6.8 0 1.6-.7 1.6-1.6zM49 37.2v6.4h16v-6.4H49zm-4.8 51.3c0-1 .8-1.8 1.8-1.8h21.9c1 0 1.8.8 1.8 1.8v6c0 1-.8 1.8-1.8 1.8H46c-1 0-1.8-.8-1.8-1.8v-6zm12.7-28.8L47.1 66l9.8 6.3 9.8-6.3-9.8-6.3zm-43.1-9.2 13.8-10.1-13.8-10L0 40.4l13.8 10.1zM5.4 40.4l8.4-6.1 8.4 6.1-8.4 6.1-8.4-6.1zM49 6.9h16v3.2H49V6.9zm0 6.4h9.6v3.2H49v-3.2zm-9.6 0h-3.2v3.2h3.2v-3.2zm49.4 76.6H92v3.2h-3.2v-3.2zM33 13.3h-3.2v3.2H33v-3.2zm49.5 76.6h3.2v3.2h-3.2v-3.2zM26.6 13.3h-3.2v3.2h3.2v-3.2zm49.5 76.6h3.2v3.2h-3.2v-3.2zM64.9 13.3h-3.2v3.2h3.2v-3.2z"/>
</svg>