<svg xmlns="http://www.w3.org/2000/svg" viewBox="0 0 100 100">
	<linearGradient id="d" x1="32.3161" x2="24.5315" y1="15.0625" y2="28.3785" gradientTransform="matrix(1 0 0 -1 0 101.433)" gradientUnits="userSpaceOnUse">
		<stop offset="0" stop-color="#d9c185"/>
		<stop offset="1" stop-color="#8e783e"/>
	</linearGradient>
	<path fill="url(#d)" d="M35.1 67v17.8l-10.9 6.3c-.4.2-.9.3-1.3.3-.7 0-1.4-.3-1.9-.8s-.8-1.2-.9-1.9V77.4c0-.5.1-1.1.4-1.5.3-.5.7-.8 1.2-1.1L35.1 67z"/>
	<linearGradient id="a" x1="18.8966" x2="31.6495" y1="62.0665" y2="89.0869" gradientTransform="matrix(1 0 0 -1 0 101.433)" gradientUnits="userSpaceOnUse">
		<stop offset=".18" stop-color="#d9c185"/>
		<stop offset="1" stop-color="#907c44"/>
	</linearGradient>
	<path fill="url(#a)" d="M24.1 8.8c.1 0 11 6.4 11 6.4v16.2c0 .3-.1.5-.4.6l-13.6 8.1c-.3.2-.8.1-1-.3-.1-.1-.1-.3-.1-.4V11.2c0-.7.3-1.4.8-2 .5-.5 1.2-.8 2-.8.3 0 .7.1 1 .2l.3.2z"/>
	<linearGradient id="b" x1="21.9166" x2="47.3654" y1="22.7893" y2="61.507" gradientTransform="matrix(1 0 0 -1 0 101.433)" gradientUnits="userSpaceOnUse">
		<stop offset="0" stop-color="#d9c185"/>
		<stop offset=".28" stop-color="#c8b176"/>
		<stop offset="1" stop-color="#9f8951"/>
	</linearGradient>
	<path fill="url(#b)" d="M20 77.4v-17c0-.6.2-1.3.5-1.8.3-.6.8-1 1.3-1.3l27.1-15.8c.3-.2.8-.1 1 .3.1.1.1.2.1.4V58c0 .3-.1.5-.4.6l-28 16.2c-.5.2-.9.6-1.2 1.1-.2.4-.4.9-.4 1.5z"/>
	<linearGradient id="c" x1="50.8105" x2="50.8105" y1="101.4329" y2="1.4334" gradientTransform="matrix(1 0 0 -1 0 101.433)" gradientUnits="userSpaceOnUse">
		<stop offset="0" stop-color="#d9c185"/>
		<stop offset=".23" stop-color="#ceb67a"/>
		<stop offset=".62" stop-color="#b0995e"/>
		<stop offset="1" stop-color="#8e783e"/>
	</linearGradient>
	<path fill="url(#c)" d="m24.2 91 39.2-22.8c.5-.3 1-.8 1.3-1.3.3-.6.5-1.2.5-1.8V34.8c0-.6-.2-1.3-.5-1.8-.3-.6-.8-1-1.3-1.3L24.2 8.8c-.4-.2-.9-.4-1.4-.4-.4 0-.7.1-1 .2L35.9.4c1.1-.6 2.5-.6 3.6 0L78.4 23c.5.3 1 .8 1.3 1.3.3.6.5 1.2.5 1.8V74c0 .6-.2 1.3-.5 1.8s-.8 1-1.3 1.3L39.7 99.5c-1.1.6-2.5.6-3.6 0l-14.5-8.4c.8.4 1.8.4 2.6-.1z"/>
</svg>