<svg xmlns="http://www.w3.org/2000/svg" viewBox="0 0 100 100">
	<path fill="#252f3e" d="M28.2 41.7c-.1 4.7 2.9 6 1 7.1-2.8 1.9-3.5 3.3-6.2-2.3-5.1 6-13 5.5-16.4 2.2-3.3-3.2-3.5-9.7.6-13.2 4.2-3.6 10.2-2.8 15.5-1.6 0-2.6.2-5.9-1.6-7.7-1.9-1.9-6.4-1.7-9-1.1-4.2 1-6 2.8-6 .6 0-2.1-.1-2.3.2-2.8 1.7-2.1 13.9-5.1 19-.1 3.6 3.4 2.8 8.6 2.9 18.9zm-13.5 5.1c2.4 0 4.9-.8 6.6-2.7 1.6-1.8 1.5-4.2 1.5-6.4C8 34 9 43.4 11.2 45.5c.8.8 1.9 1.3 3.5 1.3zM31.6 23c-.3-.9-.6-2 .3-2.2h3.4c2.3 0 1.5-.4 7.6 23.6 5.5-23.2 5.3-22.9 5.8-23.3.7-.4 1-.3 4-.3 1.1 0 1.8.3 2 1.6L60 44.7c6-23.5 5.7-22.7 6.4-23.5.7-.4.8-.3 4.4-.3 1.1-.1.9 1.2.5 2.2-8.4 27-8.2 26.6-8.7 27-.7.4-.9.3-4.1.3-1.1 0-1.8-.3-2-1.7l-5.2-21.5c-5.4 22.7-5.1 22-5.8 22.7-.6.4-.8.3-4.2.3-2 .2-1.2.6-9.7-27.2zm52.5 28.3c-3.8 0-7.5-1.1-8.9-1.9-1.5-.7-1.2-1.8-1.2-3.6 0-2.8 2.8 1 9.8 1 3.2 0 6.7-1 6.6-4.3.1-5.3-10.5-3.7-14.4-8.9-4.5-5.8.2-14.8 11.5-13.4 1.8.2 5.3.9 6.5 2.3.4.6.3.9.3 2.7 0 1.3-.9 1.3-2 .7-3.2-1.4-8.4-1.9-10.8-.4-1.9 1.2-2 3.9-.6 5.3C84.4 34.1 96.1 33.1 96 42c.1 4.3-3 7.5-7 8.6-1.7.4-3.3.7-4.9.7z"/>
	<path fill="#f90" d="M90.4 67.4C67.5 84.3 27.6 85.5.4 60.9c-1-.9-.1-2.2 1.1-1.5 26.2 15.2 58.6 17.5 87.2 5.4 1.9-.7 3.5 1.3 1.7 2.6zm4.6-5.2c-1.4-1.8-9.2-.9-12.8-.4-1.1.1-1.2-.8-.3-1.5 6.3-4.4 16.5-3.1 17.7-1.7 1.2 1.5-.3 11.8-6.2 16.7-.9.8-1.8.4-1.4-.6 1.4-3.3 4.4-10.7 3-12.5z"/>
</svg>