<svg xmlns="http://www.w3.org/2000/svg" viewBox="0 0 100 100">
	<path fill="#C7C8CA" d="M97.175 50.91c1.883 0 2.825 2.406 2.825 7.219a19.615 19.615 0 0 1-3.295 9.493 42.265 42.265 0 0 1-8.552 10.2 48.358 48.358 0 0 1-11.691 7.61 29.736 29.736 0 0 1-12.554 2.982c-5.544 0-9.258-4.864-11.141-14.594A34.234 34.234 0 0 1 42.07 84.883 31.83 31.83 0 0 1 24.417 89.2a23.774 23.774 0 0 1-17.81-6.905 22.57 22.57 0 0 1-6.592-16.79c0-17.785 5.911-31.803 17.732-42.055a41.61 41.61 0 0 1 14.045-8.474 45.665 45.665 0 0 1 13.73-2.04c4.081-.133 8.13.767 11.77 2.616C58.755 12.517 60.43 11 62.311 11a14.907 14.907 0 0 1 10.462 4.786 13.285 13.285 0 0 1 4.943 9.023 111.012 111.012 0 0 1-6.433 12.397 125.254 125.254 0 0 0-1.256 20.242c0 8.718 1.099 13.077 3.295 13.077 2.72 0 9.311-5.44 19.773-16.32 1.882-2.196 3.242-3.295 4.08-3.295ZM23.11 60.325c0 8.056 2.981 12.083 8.944 12.083 6.382-.104 11.665-3.504 15.85-10.2a31.777 31.777 0 0 0 3.609-8.473 125.69 125.69 0 0 1 3.138-30.129 41.4 41.4 0 0 0-22.126 12.24 33.79 33.79 0 0 0-9.415 24.48Z"/>
</svg>