<svg xmlns="http://www.w3.org/2000/svg" viewBox="0 0 100 100">
	<path fill="#1E61F0" d="M44.356 22.515a1.151 1.151 0 0 0-.905-.56 1.3 1.3 0 0 0-.694.242c-2.558 2.088-6.06 10.95-8.93 22.624l2.54.032c5.018.057 10.198.12 15.321.202-1.353-5.35-2.618-9.933-3.798-13.63a42.992 42.992 0 0 0-3.534-8.91Z"/>
	<path fill="#1E61F0" d="M50.054 0C23.514 0 2 22.387 2 50.002 2 77.617 23.515 100 50.054 100c26.54 0 48.055-22.385 48.055-49.998C98.11 22.389 76.592 0 50.055 0ZM84.6 50.906l-.012.012c-.05.04-.103.085-.16.123l-.052.04-.113.069a2.445 2.445 0 0 1-1.287.367H60.203c.185.783.384 1.675.604 2.646 1.247 5.609 4.56 20.508 8.08 20.508h.181c2.753 0 4.155-4.137 7.23-13.2l.038-.112c.496-1.456 1.052-3.098 1.658-4.834l.153-.445a1.091 1.091 0 0 1 1.208-.705 1.133 1.133 0 0 1 .858 1.436l-.129.445c-.32 1.08-.66 2.55-1.055 4.25-1.833 7.906-4.604 19.849-11.709 19.849h-.052c-4.59-.038-7.331-7.675-8.511-10.938-2.195-6.096-3.861-12.597-5.456-18.888H32.356l-4.35 14.476-.067-.053a2.17 2.17 0 0 1-2.477.977 2.297 2.297 0 0 1-1.6-2.201v-.079l.263-1.637c.604-3.72 1.32-7.587 2.143-11.492h-8.831l-.032-.034a3.499 3.499 0 0 1-.113-6.847 7.57 7.57 0 0 1 1.033-.044h.43c2.806.05 5.791.094 9.044.136 4.611-19.523 9.968-29.445 15.906-29.465 6.366 0 11.088 15.086 14.867 29.842l.016.06c7.77.164 16.049.403 24.096 1.008l.339.032c.129.003.257.015.384.034h.11a2.598 2.598 0 0 1 1.975 1.976 2.711 2.711 0 0 1-.892 2.688Z"/>
</svg>