<svg xmlns="http://www.w3.org/2000/svg" viewBox="0 0 100 100">
	<path fill="#4faf53" d="M99.8 68.7C96.6 55.4 87.9 44 77.1 37.4c.3-.3 4.8-8.2 8.4-14.3 2.7-5.3-4.9-9.6-8.1-4.7-2.1 3.5-8.1 13.8-8.6 14.8-12.1-4.9-26.1-4.5-37.4 0-1.3-2-1.7-3.2-8.6-14.8-1.3-2.2-4.2-3-6.4-1.7s-3 4.2-1.7 6.4c4.1 7 1.7 3 8.3 14.2C11.8 44.2 3.6 55.1.2 68.8c-.9 3.5 2 6.7 5.6 6.7h88.5c3.6-.1 6.4-3.3 5.5-6.8z"/>
	<linearGradient id="a" x1="13.7975" x2="29.3159" y1="53.3451" y2="43.6119" gradientTransform="matrix(1 0 0 -1 0 102)" gradientUnits="userSpaceOnUse">
		<stop offset="0" stop-color="#a8f0b9"/>
		<stop offset=".807" stop-color="#adeebc" stop-opacity="0"/>
	</linearGradient>
	<path fill="url(#a)" fill-opacity=".4" opacity=".4" d="M13.4 75.4c3.5-15.5 13.3-21.5 27.4-28.2 7.5-3.5 12.3-5.8 7.1-10-13-5.3-39.2 8.9-45.8 36.9 1.7 1.3 2.4 1.3 11.3 1.3z"/>
	<linearGradient id="b" x1="87.5393" x2="72.2931" y1="54.9499" y2="44.3101" gradientTransform="matrix(1 0 0 -1 0 102)" gradientUnits="userSpaceOnUse">
		<stop offset=".292" stop-color="#a8f0b9"/>
		<stop offset=".828" stop-color="#adeebc" stop-opacity="0"/>
	</linearGradient>
	<path fill="url(#b)" fill-opacity=".4" opacity=".4" d="M100 70.1c-8.5-25.9-34.5-37.7-47.6-32.9-10.9 7.7 19.7 8.6 31.6 25.5 2.7 3.8 4.2 8.2 5.2 12.7h5.1c3.1 0 5.7-2.4 5.7-5.3z"/>
	<path fill="#8bd8a0" opacity=".3" d="M99.5 72.1C94.7 59.9 97 57.8 80.1 39.5l-.2-.3c14 9.7 21.6 28.4 19.6 32.9z"/>
	<path fill="#0d652d" opacity=".1" d="M23.7 36.6c.6-.4-1.2-3.6-5.3-10.3-2.9-4.2-3.2-7.2-2.8-9.1-1.7 1.5-2.1 3.9-1 5.9 1.7 2.9 3.1 5.1 7 12.1 1.1 1.1 1.8 1.5 2.1 1.4z"/>
	<path fill="#202124" opacity=".1" d="M22.9 37.3c1.1-.6-6.9-12.5-8.6-14.9.7 1.5 8.5 14.8 8.6 14.9z"/>
	<path fill="#fff" opacity=".1" d="M14.4 19c1.4 2.8 3.7-6.1 9.2 3.9 4.3 7.1 6.4 10.3 6.9 10 .2-.1.1-.8-.3-1.9-5.5-9.2-7.3-12.7-8-13.4-2.7-2-5.6-1-7 .2-.4.3-.7.7-.8 1.2z"/>
	<radialGradient id="c" cx="-909.0148" cy="591.0281" r=".9956" gradientTransform="matrix(-42065.9414 12606.7842 9539.001 31829.4531 -43867344 -7400526.5)" gradientUnits="userSpaceOnUse">
		<stop offset="0" stop-color="#fff"/>
		<stop offset=".948" stop-color="#fff" stop-opacity="0"/>
	</radialGradient>
	<path fill="url(#c)" fill-opacity=".9" opacity=".15" d="M20.5 16.4c-4-1.7-8.5 2.6-5.4 7.2 5.7 0 7-5.6 5.4-7.2z"/>
	<radialGradient id="d" cx="-909.0125" cy="591.0182" r="1.0008" gradientTransform="matrix(-49172.1211 14713.998 10662.334 35632.0273 -50995672 -7738095.5)" gradientUnits="userSpaceOnUse">
		<stop offset="0" stop-color="#fff"/>
		<stop offset=".948" stop-color="#fff" stop-opacity="0"/>
	</radialGradient>
	<path fill="url(#d)" fill-opacity=".9" opacity=".15" d="M85.6 22.8c-4.7 1.2-8-2.6-6.8-5.9 3.8-2.4 8.7 1.2 6.8 5.9z"/>
	<path fill="#0d652d" opacity=".1" d="M76.8 37c-.6-.3 1.1-3.6 5.1-10.4 2.8-4.3 3-7.2 2.5-9.2 1.6 1.4 2 3.8 1 5.7-2.8 4.7-1.7 2.8-7.9 13.6-.3.3-.6.3-.7.3z"/>
	<path fill="#fff" opacity=".1" d="M76.4 23.1c3.2-6.2 5.7-5.5 9.1-4.4-1.1-2.3-3.9-3.3-6.3-2.2-1.6.8-2 1.4-8.6 13.3-.7 2 1.8.3 5.8-6.7z"/>
	<radialGradient id="e" cx="-909.0162" cy="591.1852" r=".9035" gradientTransform="matrix(-11001.2061 11808.9141 21495.6445 20025.3828 -22726318 -1133805)" gradientUnits="userSpaceOnUse">
		<stop offset="0" stop-color="#93e19f"/>
		<stop offset="1" stop-color="#93e19f" stop-opacity="0"/>
	</radialGradient>
	<path fill="url(#e)" fill-opacity=".7" d="M29.2 50.8c-3.1-2.8-5.6-.3-2.4 2.7 1.3 1.2 5.8.4 2.4-2.7z"/>
	<radialGradient id="f" cx="-210.8837" cy="721.1622" r=".9333" gradientTransform="matrix(.9541 1.0241 1.8649 -1.7374 -1069.333 1520.744)" gradientUnits="userSpaceOnUse">
		<stop offset="0" stop-color="#93e19f"/>
		<stop offset="1" stop-color="#93e19f" stop-opacity="0"/>
	</radialGradient>
	<path fill="url(#f)" fill-opacity=".7" d="M76.3 50c-1.8-1.8-6.4 2.7-4.8 4.3.6.8 6.5-2.6 4.8-4.3z"/>
	<path fill="#011b04" opacity=".09" d="M29.9 59.2c1.6-4.1-.1-6.6-1.1-7.3-4.5-5.5-12.7 2.3-9.7 9.2 1.7 3.9 8.7 3.2 10.8-1.9zm42.2.1c-1.6-4 .1-6.6 1.1-7.3 4.5-5.5 12.7 2.3 9.7 9.2-1.8 3.9-8.8 3.2-10.8-1.9z"/>
	<path fill="#202124" d="M81.3 62.1c2.5-1.7 2.9-5.6.9-8.7-2-3.1-5.7-4.2-8.3-2.5-2.5 1.7-2.9 5.6-.9 8.7 2 3.1 5.7 4.2 8.3 2.5z"/>
	<path d="M28.9 59.5c2-3.1 1.7-6.9-.8-8.6-2.5-1.6-6.1-.5-8.1 2.5-2 3.1-1.7 6.9.8 8.6 2.4 1.7 6 .5 8.1-2.5zm44.1 0c-2-3.1-1.7-6.9.8-8.6 2.5-1.6 6.1-.5 8.1 2.5 2 3.1 1.7 6.9-.8 8.6-2.4 1.7-6.1.6-8.1-2.5z"/>
	<path d="M18.8 59.5c-.9-4.3 1.1-8.1 5.2-9.2.2 0 .4-.1.5-.1.2-.1.5-.1.7-.1-.1 0-1.2.2-1.2.2-2.8 1.1-6 5.9-5.2 9.2z"/>
	<linearGradient id="g" x1="26.8625" x2="27.0695" y1="53.2965" y2="48.4703" gradientTransform="matrix(1 0 0 -1 0 102)" gradientUnits="userSpaceOnUse">
		<stop offset="0" stop-color="#e2dde2"/>
		<stop offset="1" stop-color="#e2dde2" stop-opacity="0"/>
	</linearGradient>
	<path fill="url(#g)" opacity=".8" d="M29.4 53.7c-.8-3.4-3.5-3.7-4.8-3.5 1.7-.8 4.8.7 4.8 3.5z"/>
	<linearGradient id="h" x1="76.95" x2="76.95" y1="51.231" y2="47.29" gradientTransform="matrix(1 0 0 -1 0 102)" gradientUnits="userSpaceOnUse">
		<stop offset="0" stop-color="#373637"/>
		<stop offset="1" stop-color="#373637" stop-opacity="0"/>
	</linearGradient>
	<path fill="url(#h)" d="M72.3 54.4c.3-.7 1.3-2.1 3.2-2.5 1.8-.3 4.2 1.8 5.2 2.9l.9-1c-2.6-4.5-8.9-3.7-9.3.6z"/>
	<path d="M83.1 59.6c.9-4.3-1.1-8.1-5.2-9.2-.2 0-.4-.1-.5-.1-.2-.1-.5-.1-.7-.1.1 0 1.2.2 1.2.2.8.2 6.1 5.6 5.2 9.2z"/>
	<path fill="#e2dce1" opacity=".8" d="M23.2 52.2c-1.1.2-2 1.4-2.2 2l.6.9c.4-.7 1.4-1.7 2.3-2.3l-.7-.6zm55.5 0c1.1.2 2 1.4 2.2 1.9l-.5.9c-.5-.9-1.4-1.6-2.3-2.2 0-.1.6-.6.6-.6zm-50.8 6.1c-.5.3-1.4.7-1.8.9l-.3 1c.6-.2 1.2-.6 1.7-1l.4-.9zm1.7-4.3-.3-.9v.4c.2.3.3.8.3 1.1V54zm44.3 4.4c.5.3 1.4.7 1.8.9l.3 1c-.6-.2-1.2-.6-1.7-1l-.4-.9zm-1.6-4.3c.1-.3.2-.7.3-.9v.4c-.2.3-.3.7-.3 1.1 0-.1-.1-.3 0-.6z"/>
</svg>