<svg xmlns="http://www.w3.org/2000/svg" viewBox="0 0 100 100">
	<path fill="none" d="M0 0h100v100H0z"/>
	<path fill="#073042" d="M39.9 12.6H17.3C12.7 12.7 9 16.4 9 21c-.1 4.4 3.4 8.2 7.8 8.3h23.3l-.2-16.7z"/>
	<path fill="#4285f4" d="M91.3 86.5h-74c-4.6 0-8.2-3.7-8.3-8.3V20.9c0 4.6 3.7 8.3 8.3 8.4h62s12.1-1 12.1 8c-.1 0-.1 49.2-.1 49.2z"/>
	<path d="M52.2 46.7c-2.5 0-4.6 2-4.7 4.6 0 2.5 2 4.6 4.6 4.7.6 0 1.3-.1 1.9-.4 2.4-.9 3.5-3.6 2.6-6-.7-1.8-2.5-3-4.4-2.9z"/>
	<path fill="#3870b2" d="M56.8 57.2c3.3-2.5 4-7.2 1.5-10.4-1.4-1.8-3.5-2.9-5.7-3h1.5v-4.6c0-.5-.2-1-.7-1.3-.5-.3-1-.3-1.5 0s-.7.8-.7 1.3v4.7c-4.1.6-6.9 4.5-6.2 8.6.3 1.9 1.4 3.7 2.9 4.9l-13.6 29h8.9L49.5 73c.8-1.6 2.7-2.3 4.4-1.5.1.1.2.1.3.2.5.3.9.8 1.2 1.4l6.5 13.4h9L56.8 57.2zm-4.6-1.3c-2.5 0-4.6-2.1-4.6-4.7 0-1.2.5-2.4 1.3-3.2 1.8-1.8 4.7-1.8 6.5-.1.9.9 1.4 2.1 1.4 3.3 0 2.6-2 4.7-4.6 4.7z"/>
	<path fill="#fff" d="M35 16.7h31.7v5.8H35v-5.8z"/>
	<path fill="#073042" d="M72 93.9 54.3 57.2c2.2-1.8 3.3-4.6 2.7-7.4-.6-2.8-2.6-5-5.4-5.7h-.1v-4.8c0-.5-.2-1-.7-1.3-.5-.3-1-.3-1.5 0s-.7.8-.7 1.3V44c-4.1.6-6.9 4.5-6.2 8.6.3 1.9 1.4 3.7 2.9 4.8l-17 36.7c-.6 1.3-.5 2.9.3 4.1.8 1.2 2.3 1.9 3.7 1.7 1.5-.1 2.7-1.1 3.3-2.4L47.1 73c.6-1.1 1.7-1.8 3-1.9 1.3 0 2.4.7 2.9 1.8l11.7 24.4c1 2 3.4 2.9 5.4 1.9 2-.9 2.8-3.3 1.9-5.3zM49.7 55.8c-2.5 0-4.6-2.1-4.6-4.6 0-1.2.5-2.4 1.3-3.2.9-.9 2-1.3 3.3-1.3 2.5 0 4.6 2.1 4.6 4.6s-2.1 4.5-4.6 4.5z"/>
	<path fill="#3ddc84" d="m62.9 8.8 4.3-7.5c.2-.5 0-1-.5-1.2-.4-.1-.8 0-1 .3L61.3 8c-7-3.2-15.1-3.2-22.2 0L34.7.4c-.1-.2-.4-.4-.7-.4-.3 0-.6.2-.8.5-.2.3-.2.6 0 .9l4.3 7.5C29.9 13 25 20.6 24.3 29.2h51.8c-.7-8.6-5.7-16.2-13.2-20.4zM39.8 21.2c-.4.4-1 .6-1.5.6-1.2 0-2.2-.9-2.2-2.1 0-.6.2-1.1.6-1.6.8-.9 2.1-1.1 3.1-.3.5.4.8 1.1.8 1.8-.1.7-.4 1.2-.8 1.6zm22.3.6c-1.2 0-2.2-.9-2.2-2.1 0-.6.2-1.2.6-1.6.9-.8 2.2-.8 3.1 0 .4.4.6.9.6 1.5 0 1.3-.9 2.2-2.1 2.2z"/>
	<path fill="#073042" d="M83.9 45.1h-3.4c-.2 0-.4.2-.4.4v53.8c0 .2.2.4.4.4H84c4.1 0 7.4-3.4 7.4-7.5V37.7c0 4.1-3.3 7.5-7.5 7.4 0 .1 0 .1 0 0z"/>
</svg>