<svg xmlns="http://www.w3.org/2000/svg" viewBox="0 0 100 100">
	<path fill="#B3B3B3" d="M50.049 0 3 16.558 10.434 78.2 50.099 100l39.869-22.095 7.431-61.64L50.05 0Z"/>
	<path fill="#A6120D" d="M92.706 19.827 49.94 5.243v89.549l35.84-19.836 6.926-55.129Z"/>
	<path fill="#DD1B16" d="m8.278 20.09 6.373 55.13 35.287 19.572V5.242L8.278 20.09Z"/>
	<path fill="#F2F2F2" d="M61.712 52.914 49.939 58.42H37.531l-5.833 14.59-10.849.2L49.94 8.495l11.773 44.42Zm-1.14-2.772L50.018 29.244l-8.66 20.539h8.581l10.635.36Z"/>
	<path fill="#B3B3B3" d="m49.938 8.494.078 20.75 9.826 20.554H49.96l-.022 8.608 13.664.014 6.385 14.791 10.38.192L49.939 8.494Z"/>
</svg>