<svg xmlns="http://www.w3.org/2000/svg" viewBox="0 0 100 100">
	<path fill="#00ACC1" d="M50.4 0 4 16.65l7 61.4L50.4 100l39.45-21.95L97 16.65 50.4 0Z"/>
	<path fill="#00838F" d="M50.4 0v100l39.45-21.95L97 16.65 50.4 0Z"/>
	<path fill="#fff" d="M64.5 20h-28a6 6 0 0 0-6 6v48a6 6 0 0 0 6 6h28a6 6 0 0 0 6-6V26a6 6 0 0 0-6-6Zm-14 55a5 5 0 1 1 0-10 5 5 0 0 1 0 10Zm15-22a2 2 0 0 1-2 2h-26a2 2 0 0 1-2-2v-6a2 2 0 0 1 2-2h26a2 2 0 0 1 2 2v6Zm0-15a2 2 0 0 1-2 2h-26a2 2 0 0 1-2-2v-6a2 2 0 0 1 2-2h26a2 2 0 0 1 2 2v6Z"/>
	<path fill="#80D6E0" d="M63.5 30h-26a2 2 0 0 0-2 2v6a2 2 0 0 0 2 2h26a2 2 0 0 0 2-2v-6a2 2 0 0 0-2-2Zm0 15h-26a2 2 0 0 0-2 2v6a2 2 0 0 0 2 2h26a2 2 0 0 0 2-2v-6a2 2 0 0 0-2-2Zm-13 30a5 5 0 1 0 0-10 5 5 0 0 0 0 10Z"/>
</svg>