<svg xmlns="http://www.w3.org/2000/svg" viewBox="0 0 100 100">
	<linearGradient id="a" x1="62.8144" x2="83.7769" y1="7221.0469" y2="7215.2192" gradientTransform="translate(0 -7212.5669)" gradientUnits="userSpaceOnUse">
		<stop offset="0" stop-color="#f69923"/>
		<stop offset=".3123" stop-color="#f79a23"/>
		<stop offset=".8383" stop-color="#e97826"/>
	</linearGradient>
	<path fill="url(#a)" d="M67.7.5c-1.6.9-4.2 3.5-7.3 7.3l2.9 5.4c2-2.9 4.1-5.5 6.1-7.7.1-.2.2-.3.2-.3-.1.1-.2.2-.2.3-.7.7-2.7 3.1-5.7 7.8 2.9-.1 7.4-.7 11.1-1.4C75.9 5.8 73.7 3 73.7 3s-2.8-4.4-6-2.5z"/>
	<linearGradient id="b" x1="16.7485" x2="59.3847" y1="7315.0234" y2="7223.5864" gradientTransform="translate(0 -7212.5669)" gradientUnits="userSpaceOnUse">
		<stop offset=".3233" stop-color="#9e2064"/>
		<stop offset=".6302" stop-color="#c92037"/>
		<stop offset=".7514" stop-color="#cd2335"/>
		<stop offset="1" stop-color="#e97826"/>
	</linearGradient>
	<path fill="url(#b)" d="M60.4 17.3c.9-1.5 1.9-2.9 2.8-4.3l-2.9-5.4c-.4.7-1.7 1.3-9.2 12.6-.8 1.3-1.6 2.6-2.5 3.9 0 .1-.1.1-.1.1l3.7 7.3c2.2-3.2 7.1-13.1 8.2-14.2z"/>
	<linearGradient id="c" x1="31.272" x2="56.6791" y1="7308.3574" y2="7253.8701" gradientTransform="translate(0 -7212.5669)" gradientUnits="userSpaceOnUse">
		<stop offset="0" stop-color="#282662"/>
		<stop offset=".09548389" stop-color="#662e8d"/>
		<stop offset=".7882" stop-color="#9f2064"/>
		<stop offset=".9487" stop-color="#cd2032"/>
	</linearGradient>
	<path fill="url(#c)" d="M37.8 68.6c-.5 1.3-1 2.7-1.5 4.1v.1c-.1.1 0 0-1.5 4.4 1.1.5 2 1.8 2.8 3.3-.1-1.5-.7-3-1.9-4.1 5.7.2 10.6-1.1 13.1-6.2-1.1 1.4-2.4 2-5 1.8 4.1-1.8 6.3-3.7 8.5-8.1-3.3 3.4-7.1 4.3-11.1 3.6l-3 .3c-.2.3-.3.6-.4.8z"/>
	<linearGradient id="d" x1="18.4435" x2="61.0798" y1="7309.5615" y2="7218.1245" gradientTransform="translate(0 -7212.5669)" gradientUnits="userSpaceOnUse">
		<stop offset=".3233" stop-color="#9e2064"/>
		<stop offset=".6302" stop-color="#c92037"/>
		<stop offset=".7514" stop-color="#cd2335"/>
		<stop offset="1" stop-color="#e97826"/>
	</linearGradient>
	<path fill="url(#d)" d="M52.2 32c0-.1.1-.1.1-.2l-3.7-7.3c-1.3 1.3-11.6 18.8-15 35l3.7 7.4c4.8-12.4 8.6-22.4 14.9-34.9z"/>
	<linearGradient id="e" x1="22.6628" x2="45.0694" y1="7303.4111" y2="7255.3584" gradientTransform="translate(0 -7212.5669)" gradientUnits="userSpaceOnUse">
		<stop offset="0" stop-color="#282662"/>
		<stop offset=".09548389" stop-color="#662e8d"/>
		<stop offset=".7882" stop-color="#9f2064"/>
		<stop offset=".9487" stop-color="#cd2032"/>
	</linearGradient>
	<path fill="url(#e)" d="M32.4 67.2c-1.2-1.9-4.3-3.7-4.3-3.7 2.2 3.2 3.9 6.5 4.2 9.6-1.2.2-2.8-.1-4.7-.8 2 1.8 3.5 2.3 4 2.4-1.8.1-3.7 1.4-5.6 2.8 2.8-1.1 5-1.6 6.6-1.2-2.6 7.2-5.1 15.2-7.7 23.7 2.2-.5 1.1-2 9.9-26.2 0-.1.5-1.3.5-1.4.1-.4 1.8-5 2-5.3l-3.7-7.4c-.4.4-1.2 6.1-1.2 7.5z"/>
	<linearGradient id="f" x1="27.7964" x2="70.4326" y1="7313.9219" y2="7222.4849" gradientTransform="translate(0 -7212.5669)" gradientUnits="userSpaceOnUse">
		<stop offset=".3233" stop-color="#9e2064"/>
		<stop offset=".6302" stop-color="#c92037"/>
		<stop offset=".7514" stop-color="#cd2335"/>
		<stop offset="1" stop-color="#e97826"/>
	</linearGradient>
	<path fill="url(#f)" d="M52.9 32.4c-6.4 12.7-11.7 27-12.9 30 0 .1-.1.2-.1.2-.6 1.6-1.3 3.3-1.9 5.1v.1l3-.3h-.2c10.3-1.1 16.8-12.4 19.9-22.6-.8.4-1.8.7-2.8 1-.1 0-1.1.2-1.2.2 3.4-1.3 5.5-3.8 7-6.8-1.3.9-3.4 1.9-4.9 1.9 2.1-.9 3.1-1.7 4.2-2.8.1-.2 1-1.2 1.3-1.8.1-.1.2-.3.3-.4.1-.1 1.2-2.4 1.8-4.1 0-.3.6-1.8.6-2.4-.7.7-3.2 1.5-4.5 1.7l2.8-.3c-3.4.4-3.2.3-3.3.4h.1l-9.4 1 .2-.1z"/>
	<linearGradient id="g" x1="24.8951" x2="67.5312" y1="7319.4751" y2="7228.0381" gradientTransform="translate(0 -7212.5669)" gradientUnits="userSpaceOnUse">
		<stop offset=".3233" stop-color="#9e2064"/>
		<stop offset=".6302" stop-color="#c92037"/>
		<stop offset=".7514" stop-color="#cd2335"/>
		<stop offset="1" stop-color="#e97826"/>
	</linearGradient>
	<path fill="url(#g)" d="M63.6 13.3c-.8 1.3-1.8 2.8-2.7 4.4-.1.1-.1.2-.1.3-1.3 2-5.6 9.8-7.7 14.3l9.4-1c4.4-2.1 4.9-3.8 6.2-5.5 2.4-3.7 5.4-9.4 6.1-13.8-3.7.6-8.2 1.2-11.2 1.3z"/>
</svg>