<svg xmlns="http://www.w3.org/2000/svg" viewBox="0 0 100 100">
	<path fill="#809cc9" d="M100 7H.5v72.6H100V7z"/>
	<path fill="#fff" d="M26 35.9c-1.6-6.1 37.4-17.8 73.9-23.4V6.9C91.2 6.9 31.3 20.4.5 33.3V52c31.5-2.3 56.2-6 70.4-6 16.7 0 13.2 8.6-28.4 19.1C30 68.2 16 70.9.5 73.2v6.2c27.2-4.2 72.2-15.2 99.5-26V32.6c-37.9 2.2-72.6 9.3-74 3.3z"/>
	<path fill="#fff" d="M5.4 59.6c.9-.9-.5-2.3-1.4-1.4-.7.7-.1 1.7.7 1.7.3-.1.5-.2.7-.3zm.3 5.5c0-1.3-2-1.3-2 0 0 .5 2 1.3 2 0zm2.4-5.3c1.3 0 1.3-2 0-2-.8 0-1.4 1-.7 1.7.2.2.4.4.7.3zm-.7 6c.9.9 2.3-.5 1.4-1.4-.7-.7-1.7-.1-1.7.7 0 .3.1.6.3.7z"/>
	<path fill="#809cc9" d="M5.5 85.4c-.5-.5-2.3-.8-2.4-.9-.1 0-.3-.1-.4-.2-.1-.1-.2-.1-.3-.2-.5-.5.6-1.5 1.9-.9.2.2.3.4.4.6.1.1.2.3.3.4.5.5 1.2-.6.8-1-.1-.2-.2-.4-.4-.5-1.1-1.1-4.2-.8-4.2 1.3 0 1.9 2.5 1.9 3.1 2.2 2 1-.6 2.6-1.8 1.4-.1-.1-.5-.8-.5-.9-.1-.1-.5-.2-.8.1-.2-.2-.2 0-.2.1 0 1.7 2.5 2.5 4 1.7 1.8-.9 1.2-2.8.5-3.2zm10.4-3.1c-.3.3-.2.4-.2 3.9 0 1.4-.5 1.7-1.4 1.7-.6 0-1.3-.2-1.3-.8-.3-.6.1-4.4-.3-4.8-.3-.3-.7-.3-1 0-.3.3-.2.8-.2 3.7 0 .7.2 1.7.7 2.2 1.6 1 3.3.8 4.1 0 1-1 .8-1.8.8-5.4 0-.3-.1-.5-.2-.6-.4-.2-.8-.1-1 .1zm10.9 3c1.2-.5 1.1-1.7.9-1.9-.4-1.3-2.6-1.1-4.2-1.1-.5 0-.8.3-.8.8 0 5.4-.1 5.3.2 5.6.3.3 3.1.2 3.5.1 1.9 0 2.6-3 .4-3.5zM24 83.2c1.2 0 1.4-.1 2.2.2.5.3.4 1 .3 1.1-.3.6-.7.5-2.5.5v-1.8zm0 4.6v-1.9c1.7 0 1.8 0 2.5.2.2.2.4.4.4.7-.2 1.2-1.5 1-2.9 1z"/>
	<path fill="#999" d="M37.7 82.2c-.1.1-.1.2-.2.2-.1.3-.6 1.7-1.7 5-1.7-4.9-1.5-4.6-1.8-5.1-.4-.4-.7-.1-1 0 0 .6 0 .8.1.8 0 .1.1.2.1.2.2.6 1.7 4.6 1.8 4.8.2.2-.1.1.5.7.2.2.8.1 1 0 .5-.5.4-.6.5-.7.1-.2 1.6-4.2 1.8-4.8 0-.1.1-.2.1-.2 0-.1 0-.1.1-.2 0-.2 0-.4-.1-.5-.4-.3-1-.4-1.2-.2zm7.6 5.5v-1.9c3 0 3.1 0 3.2-.1.1-.1.2-.7-.1-.8-.1-.1-.2-.1-3.3-.1v-1.6h3c.8 0 .8-.6.5-.9-.1-.1-.3-.1-.5-.1-4 0-3.7 0-4 .1-.1.1-.2.1-.3.3-.1.1-.1.3-.1.5 0 5.4-.1 5.3.2 5.6.3.3.4.2 4.2.2.8 0 .9-.5.5-.9.2-.4 0-.3-3.3-.3zm13.9-.6c-.5-.8-.9-1.2-1.3-1.4 2.5-.4 1.8-3.1.7-3.4-.2-.1-.4-.1-.6-.2-3 0-3.3-.1-3.6.2-.3.3-.2.1-.2 5.7 0 1.1 1.4 1.1 1.4 0v-2.1c1 0 1.4-.2 2.8 2.6.4.4.4.4.7.4.1 0 .2 0 .3-.1.1 0 .2-.1.2-.2.2-.2.1-.6 0-.8-.1-.1-.3-.4-.4-.7zm-1.6-2.2c-.4.1-.5.1-2.1.1v-1.8c1.5 0 2 0 2.1.1.5.2.7.6.3 1.4 0 .1-.2.2-.3.2zm11.7.5c-.5-.5-2.3-.8-2.4-.9-.1 0-.3-.1-.4-.2s-.2-.1-.3-.2c-.2-.2-.1-.6.2-.8.3-.3 1.2-.2 1.6 0 .2.2.3.4.4.6.1.1.4.9 1 .3.3-.3.2-.8.1-.9-.1-.2-.2-.4-.4-.5-.4-.4-1.4-.8-3-.4-1.8.9-1.4 2.9-.1 3.3 1.2.6 2.7.4 2.7 1.4 0 1-1.8 1.3-2.5.6-.1-.1-.5-.8-.5-.9-.4-.4-1.5.1-.7 1.4 1.5 2.2 6 .8 4.7-1.8 0-.7-.1-.9-.4-1zm6.2-3.1c-.3.3-.2.2-.2 5.8 0 1.1 1.4 1.1 1.4 0 0-5.4.1-5.5-.2-5.8-.1-.3-.8-.2-1 0zm7.4.7c-1.1 1.1-2 6.9 3.8 5.7.8-.4 1.4-.9 1.6-1.8.3-1 .3-2.3-.2-3.2-.3-1-3.3-2.6-5.2-.7zm4 3.8c-.6 1.1-1.9 1.3-2.3.9-.6-.3-.8-.7-1-1.3-.1-.4-.1-1.6 0-2 .6-1.9 3.6-1.8 3.6 1.1-.1.5-.2.9-.3 1.3zm12.3-4.6c-.2-.2-.6-.3-.9 0-.3.3-.2.4-.2 4.5-3.5-5.2-2.9-4.4-3.2-4.7-.1 0-.2-.1-.3-.1-.4 0-.3 0-.7.4 0 .1-.1.3-.1.5 0 5.7-.1 5.1.2 5.7.4.4.7.1 1 0 .3-.3.2-.4.2-4.5.6.9 2.8 4.3 2.9 4.4 1.7.9 1.3-.7 1.3-5.9-.1.1-.1-.1-.2-.3z"/>
	<path fill="#809cc9" d="M99.8 93H0v-1h99.8v1z"/>
</svg>