<svg xmlns="http://www.w3.org/2000/svg" viewBox="0 0 100 100">
	<path opacity=".15" d="M.9 59.2c8.3 4.1 15.8-.6 25.3 2.1 7.2 2 16 4.6 28 2.8 12-1.7 22.2-6.9 27.1-16.2 1.5-4.1 7.7.9 7.7.9-5.6-2.4-6.9-1.3 2.4 3 0 0-6-1.9-5.7-.5.4 1.4 7.6 7.1 7.6 7.1-10.8-8.3-10.9-5.6-5.3-1.1 0 0-6.9-4.2-9.3-3-1.7.9 7.1 6.7 7.1 6.7s-5.8-4.4-7.1-3.3c-1.4 1.2 6.5 10.6 6.5 10.6s-8.9-9.7-9.8-9.2c-.9.5 2.5 5.1 2.5 5.1s-4.4-4.8-5.6-4c-1.2.8 6.3 13.4 6.3 13.4S70.3 60.8 67 63c5.3 11.6 3.3 13.2 3.3 13.2s-.7-11.8-7.3-11.5c-3.3.2 1.6 8.8 1.6 8.8s-4.5-7.9-7.5-7.7c5.5 10.4 3.5 14.7 3.5 14.7s.9-8.9-6.6-13.9c2.8 2.5-1.8 13.9-1.8 13.9s4.1-16.7-3-13.5c-1.1.5-.1 8.3-.1 8.3s-1.4-9-3.5-8.5c-1.2.3-7.9 12.4-7.9 12.4s5.4-13.1 3.8-12.6c-1.2.4-3.5 5.8-3.5 5.8s1.1-5.3 0-5.7c-1.1-.3-7.2 5.7-7.2 5.7s4.6-5.3 3.8-6.5c-2.7-3.8-7.1.5-9.9 4.2 4.9-6.7 3.8-10.5-7.6-.9 0 0 5.5-5.2 4.2-6.3-1.3-1.1-8.1-.8-10.2-.8-6.1.1-8.3-1.4-10.2-2.9"/>
	<path fill="#bbe6fb" d="M79.7 46.3c.7 8.3-12.7 16.2-30 17.6-17.3 1.4-32-4.1-32.7-12.4-.7-8.3 12.7-16.2 30-17.6 17.3-1.4 32 4.1 32.7 12.4z"/>
	<path fill="#cdf0fe" d="M26.9 40.5C24.1 52 33.8 63 46.9 63c14.6 0 24.4-13.4 18.9-25.5-12.3-3.2-28.2-1.6-38.9 3z"/>
	<path fill="#fff" d="M46.9 33.9c-3.7-.2-10 1.7-15.2 3.6C27.1 48.4 36 59.7 47 59.7c11.2 0 20.9-13 14.4-24-5.4-1-11.2-1.6-14.5-1.8z"/>
	<g fill="#373535">
		<path d="M37.5 42.5c.4-1 1.1-1.5 1.8-2.3-.8-2.1.9-3.3 2.2-2.7 3.4-2.6 7.9-3.4 12-2.1-3.9-.5-8.3.8-11.3 3.3.6 1.5.4 2.3-1.3 2.3-.2 0-.4 0-.6-.1-.7.9-1.5 2.6-1.9 3.7 1.7 1.5 3.2 2 5.1 2.8-.2-2.8 2.4-5.7 5.7-5.7 2.7 0 4.9 1.9 5.4 4.5 1.3-.9 2.6-1.5 3.6-2.8-1.1-1.3-.2-3.5 1.5-3.1.5-1 .9-2.1 1.1-3.3-5.5-4.1-20.2-3.8-26-1 .4 2.3 1.3 4.6 2.7 6.5"/>
		<path d="M40.3 56.2c.8-2.2 2.8-4 4.7-5.5-.3-.4-.7-1.3-.9-1.8-2.3-.7-4.3-2-5.9-3.7-.3 1.1-.4 2.6-.2 4.1 1.8.3 2.8 2.7.9 4.5.4 1.1.8 1.6 1.4 2.4zm19.8-15.1c1.7 1.5.1 2.5-1 2.3-1 1.6-2.8 3.6-4.4 4.7 2.4.4 4.7 1.4 6.6 2.9 1.3-2.4 2.4-5.8 2.4-8.8 0-2.2-1-3.9-2.5-5.1-.1 1.3-.8 2.9-1.1 4"/>
		<path d="M54.3 48.8c-1.2 3.5-5.6 4.8-8.5 2.5-1.9 1.5-3.6 4.1-4.5 6.4.4.4.7.8 1.1 1.2 1.3.3 3.2 0 4.6 0 5.8 0 11-2.6 13.9-7.1-1.9-1.5-4.2-2.8-6.6-3zm-14.2 9.3c-1-1-1.6-2.9-2.3-4.1-2.3.4-4.2-2.5-1.3-3.9-.6-4.5.5-6 .5-6.1-1.6-2.3-2.5-5.2-2.4-8-2.5 1.2-4.3 3.2-4.3 6.2.2 6.8 4 13.4 9.8 15.9"/>
	</g>
	<g fill="#1287b1">
		<path d="M37.4 43.3c.4-1 1-1.9 1.7-2.7-.5-1.5.9-2.9 2.4-2.3 3.4-2.6 7.9-3.4 12-2.1-3.9-.5-8 .7-11 3.1.6 1.5-.8 3-2.3 2.4-.7.9-1.2 1.9-1.6 3 1.4 1.5 3.2 2.8 5.1 3.5-.3-6.9 9.7-7.9 10.8-1.2 1.4-.9 2.5-2 3.5-3.2-1-1.2.1-3 1.6-2.6.5-1 .9-2.1 1.1-3.3-5.5-4.1-20.2-3.8-26-1 .4 2.2 1.3 4.5 2.7 6.4z"/>
		<path d="M40.5 56.8c.8-2.3 2.2-4.3 4.1-5.8-.3-.4-.5-.8-.7-1.2-2.3-.7-4.3-2-5.9-3.7-.3 1.4-.4 2.6-.2 4.1 1.9.4 2.6 2.8 1.2 4.1.4.8.9 1.7 1.5 2.5m19.8-15.4c1.2 1.1.2 3.1-1.4 2.8-1 1.6-2.4 3-4 4 2.3.4 4.6 1.4 6.4 2.9 1.4-2.5 2.1-5.2 2.1-8.1 0-2.2-1-3.9-2.5-5.1 0 1.2-.2 2.4-.6 3.5z"/>
		<path d="M54.2 49.6c-1.2 3.5-5.6 4.8-8.5 2.5-1.9 1.5-3.4 3.5-4.2 5.8.4.4.8.8 1.3 1.2 6.8 1.8 14.1-.9 18.1-7-2.1-1.4-4.4-2.3-6.7-2.5m-14.1 8.5c-1-1-1.8-2.1-2.4-3.3-2.6.4-3.9-3.3-1.4-4.5-.2-1.9 0-3.9.6-5.8-1.5-2.2-2.3-4.9-2.3-7.7-2.4 1.2-4.3 3.2-4.3 6.2 0 6.8 4 12.6 9.8 15.1z"/>
	</g>
	<path fill="#373535" d="M60.8 33.3c.4-.5.7-1 1-1.5-.2-.2-.4-.4-.7-.6-1.3 1-2.9 1.8-4.8 1.2-.9-.3 1.1-2.6 1.1-2.6-3.4 3.3-6.8 3-4.3-1.3-3.2 5-5.1 6.9-3.5 1.3-3.1 5.1-5.2 4.5-3.6-.3-.1.3-1.4 4.1-2.4 3.8-1-.3-1.3-2.7-1.3-2.7-.5 5.7-1.9 2-14.8 7.4-.4.8-.6 1.7-.9 2.6 10.7-4.6 26.6-6.1 38.9-3-.7-1.5-1.6-3-2.7-4.3-.4.2-1.1.3-2 0z"/>
	<path opacity=".15" d="M42.8 31.4s.2 2.4 1.3 2.7c1 .3 2.4-3.8 2.4-3.8-1.6 4.8.4 5.4 3.6.3-1.6 5.7.3 3.7 3.5-1.3-2.5 4.4.9 4.7 4.3 1.3 0 0-2 2.3-1.1 2.6 3.9 1.4 7-3.7 7-3.7s-.7 2.2-2.6 4.6c4.1 1 7.1-5.1 7.1-5.1l-3 6.2c1.4 1 7.7-6.2 7.7-6.2s-3.2 5.7-5.1 6.8c1.1.8 4.8-2.5 4.8-2.5s-3 3.8-1.9 4c1.7 1.4 7.9-7 7.9-7s-1.4 4.3-4.9 8.2c3 1.5 9.3-7.4 9.3-7.4s-.2 3-5.6 7.9c4-.5 9.1-8.1 9.1-8.1s-1.9 5.7-6.4 9.7c3.9-.4 10.2-10.1 10.2-10.1S88 37.1 83.1 41c5.5 1.2 13.3-6.9 13.3-6.9s-3.1 5.8-7.1 8.1c4.5 1.7 10.7-5.4 10.7-5.4s-6.2 9.5-16.1 9.1c-3.2-.1-13-9.8-34-9-27.7 1-33.6 12.8-48.4 20.8C17.2 42 29.7 37.2 41 35c.6 0 1.6-1.1 1.8-3.6z"/>
	<path fill="#373535" d="M63.5 28.7s-.9 1.4-2.3 2.5c.2.2.5.4.7.6 1.1-1.7 1.6-3.1 1.6-3.1zM1.4 56.6c9.5-5.1 15.3-11.8 25.6-16.2.2-.9.5-1.8.9-2.6-8 3.4-16.6 8.9-26.5 18.8zm87.7-15.4c4-2.4 7.1-8.1 7.1-8.1s-7.9 8.1-13.3 6.9c4.9-3.9 7.3-10.6 7.3-10.6S84 39 80 39.4c4.5-4 6.4-9.7 6.4-9.7s-5.1 7.6-9.1 8.1c5.3-4.8 5.6-7.9 5.6-7.9s-6.4 8.9-9.3 7.4c3.6-3.9 4.9-8.2 4.9-8.2s-6.2 8.4-7.9 7c-1.2-.2 1.9-4 1.9-4s-3.8 3.4-4.8 2.5c1.9-1.2 5.1-6.8 5.1-6.8s-6.3 7.2-7.9 6.4l3-6.2s-2 4-4.8 5c1.1 1.3 2 2.7 2.7 4.3 10.2 2.6 15.6 7.3 17.9 7.4 9.9.4 16.1-9.1 16.1-9.1s-6.2 7.3-10.7 5.6zM0 58.6c8.3 4.1 15.8-.6 25.3 2.1 7.2 2 16 4.6 28 2.8 12-1.7 22.2-6.9 27.1-16.2 1.5-4.1 7.7.9 7.7.9-5.6-2.4-6.9-1.3 2.4 3 0 0-6-1.9-5.7-.5.4 1.4 7.6 7.1 7.6 7.1-10.8-8.3-10.9-5.6-5.4-1.1 0 0-6.9-4.2-9.3-3-1.7.9 7.1 6.7 7.1 6.7S79 56 77.7 57.1c-1.4 1.2 6.5 10.6 6.5 10.6s-8.9-9.7-9.8-9.2c-.9.5 2.5 5.1 2.5 5.1s-4.4-4.8-5.6-4c-1.2.8 6.3 13.4 6.3 13.4s-8.1-12.8-11.5-10.7c5.3 11.6 3.3 13.2 3.3 13.2s-.7-11.8-7.2-11.5c-3.3.2 1.6 8.8 1.6 8.8s-4.5-7.9-7.5-7.7c5.5 10.4 3.5 14.7 3.5 14.7s.9-8.9-6.6-13.9c2.8 2.5-1.8 13.9-1.8 13.9s4.1-16.7-3-13.5c-1.1.5-.1 8.3-.1 8.3s-1.4-9-3.5-8.5c-1.2.3-7.8 12.5-7.8 12.5s5.4-13.1 3.8-12.6c-1.2.4-3.5 5.8-3.5 5.8s1.1-5.3 0-5.7c-1.1-.3-7.2 5.7-7.2 5.7s4.6-5.3 3.8-6.5c-2.7-3.8-7.1.5-9.9 4.2 4.9-6.7 3.8-10.5-7.6-.9 0 0 5.5-5.2 4.2-6.3-1.3-1.1-8.1-.8-10.2-.8-6.3.1-8.5-1.4-10.4-2.9"/>
</svg>