<svg xmlns="http://www.w3.org/2000/svg" viewBox="0 0 100 100">
	<path fill="#d1a41a" d="M89.8 79 73.7 61.9l-1.9 1.2c-8.9-5.3-15.6-12.8-19-24.2-12.2 3-26.4 10.7-35.5 21.1C8.3 69.8 2.4 79.1.9 82.5l8.9.1c-.3-4 .7-7.3 3.4-11 12.3-16.7 58.3 2.5 76.5 13l9.7-.1c-.1-.1-1.6-6.4-9.6-5.5z"/>
	<path fill="#ffdc76" d="M72.2 63.1C53.5 53.8 48.4 31 53 15.4c0 0 3.5 1.6 6.8 9.4 7.6-2.2 16.4-2.4 24.1-.3 0 0 .9-6.1 6.5-9 .9 3.7 6.5 32.5-18.2 47.6z"/>
	<path d="m38.5 45 5.4-2.6 3.1 8.4-8.5-5.8zm-6.2 3.1 3.4-2 3.1 5.5-6.5-3.5zm-6.5 4.3 3-1.9 1.5 5.1-4.5-3.2zm52.3 14-1.9-1.9-2.7 4.3 4.6-2.4zM82 71l-1.6-1.6-4.7 3.1L82 71zM52.8 33.8l5.4 2.8-5.2.3-.2-3.1zm2 7.7-1.1-2.3 3.8 1.6c0-.1-2.7.7-2.7.7zm35.8-3.3.8-2.3-4.3 1.8 3.5.5zM89 42.9l.4-1.9-3.1 1 2.7.9zM61.5 49v1.3H51.3V49h10.2zm-10.2-3.1h10.2v1.3H51.3v-1.3zM82.4 49h10.2v1.3H82.4V49zm0-3.1h10.2v1.3H82.4v-1.3z"/>
	<path d="M92.4 26.7c0-2-.6-10.3-1.8-12.6-3 1.2-8.6 4.9-9.8 8.8-6-.9-12.7-.8-18.6.2-1-4.1-5.9-7.3-9.7-9.1-1.6 2.7-2.3 8.9-2.1 13.3.7 18.5 9.7 30 21.5 37 12.2-7 20.9-20.6 20.5-37.6 0-.1 0 0 0 0zM72.1 61.9c-18.5-9.3-22-32.8-18.9-45.3.9 4.8 2.5 7.9 5.9 9.3 3.2-.9 6.9-1.5 10.8-1.7l2.8 6.4 2-6.4c3.5.1 7 .6 10 1.5 3.2-2.3 4.4-5.9 5.1-9 .8 3.6.7 11.4.7 11.4V28c.4 15.4-7.4 27.6-18.4 33.9z"/>
	<path d="M98.6 81.1c-1.9-2.1-5.6-3.1-8.8-3-2.2-2.6-15-16.2-15-16.2l-.9 1.1 15.5 16.7c4.9-.4 7.9 1.9 8.8 4h-8.5C70.2 73.4 53.1 66.2 35 64.6c0-2.5.5-5.4 1.4-8.6l-1.7-.5c-.9 3.3-1.4 6.3-1.4 9-3.2-.2-7.1-.4-10.2.2-1.8-1.8-3.3-3.5-4.5-5.1C27 50.8 40.9 42.8 53 39.8l-.4-1.7c-13 3.2-27.3 11.7-35.2 20.1-5.2-7.1-8.3-15.8-2.9-22.6 3.6-4.5 8.7-4.8 14.1-4-.1.8 0 1.6.3 2.1 1.4 2.1 8.9 2.8 13.4.8-3.3-4.6-10-6.9-11.9-6-.6.3-1.1.9-1.4 1.5-6.3-1.1-11.8-.7-15.9 4.4-6.1 7.6-2.8 17.2 3 25-3.6 4-16.2 19-16.2 24H11c-1.5-8 3.8-15 11.5-16.9 3.7 3.7 8.5 7.5 13.8 11.3h8.2c0-1 .2-2.3-1.4-3.3-1.3-.9-3.3-1-5.2-.3-1.8-2-2.8-4.6-3-7.9 17.9 1.6 35 8.9 54.3 19H100c0-1.7-.6-3.2-1.4-4.2zM12.7 70.8c-2.6 3.2-4 7.4-3.7 11H2C3.4 78.7 9 69.9 17.3 61c1.2 1.5 2.5 2.9 3.8 4.3-4.1 1.1-6.8 3.4-8.4 5.5zm49.1-37.7zm23.8.2v-1.1c-4.2 0-6.7 1.7-7.9 5.2h-9.1c2.6-11.8-6-9.7-7.9-4.6l1.1.4c1-3.3 8.3-6.9 5.7 4.2h-5.2v1.1h4.9c-.7 2.4-1.5 4.1-2.4 5.6l6.5 4.1-3.7 2.4.6 1 4.1-2.7 4.4 2.9.6-1-4.1-2.5 6.4-4.2c-1.3-2-1.8-3.7-1.2-5.6h5.3v-1.1h-4.9c1-2.2 2.3-4.1 6.8-4.1zM72.3 47.5l-4.8-3h9.4l-4.6 3zm5-9c-.4 1.3-.2 3.2.8 4.9H66.5c.7-1.4 1.4-3.1 1.8-4.9h9z"/>
</svg>