<svg xmlns="http://www.w3.org/2000/svg" viewBox="0 0 100 100">
	<linearGradient id="a" x1="22.848" x2="2084.2356" y1="1000.9226" y2="314.8179" gradientTransform="translate(0 -978.567)" gradientUnits="userSpaceOnUse">
		<stop offset="0" stop-color="#f69923"/>
		<stop offset=".3123" stop-color="#f79a23"/>
		<stop offset=".8383" stop-color="#e97826"/>
	</linearGradient>
	<path fill="url(#a)" d="M67.6.5c-1.6.9-4.2 3.5-7.3 7.4v.2l2.7 5.1.1.1c4.4-6.3 6.3-7.7 6.3-8-.1.1-.2.2-.2.3-.7.7-2.7 3.1-5.7 7.8l.4.1s7.1-.7 10.6-1.3l.2-.2C76.2 2.9 71-1.5 67.6.5z"/>
	<linearGradient id="b" x1="-6500.0337" x2="565.6434" y1="6184.374" y2="595.4692" gradientTransform="translate(0 -978.567)" gradientUnits="userSpaceOnUse">
		<stop offset=".3233" stop-color="#9e2064"/>
		<stop offset=".6302" stop-color="#c92037"/>
		<stop offset=".7514" stop-color="#cd2335"/>
		<stop offset="1" stop-color="#e97826"/>
	</linearGradient>
	<path fill="url(#b)" d="m63.2 13.1-2.9-5.4c-.9 1.3-5 5.7-11.6 16.5 0 .1-.1.1-.1.2v.2l3.6 7.1.2.1c.8-1.8 4.4-8.7 10.8-18.7z"/>
	<linearGradient id="c" x1="-3825.8047" x2="3054.9727" y1="2648.2292" y2="-240.6039" gradientTransform="translate(0 -978.567)" gradientUnits="userSpaceOnUse">
		<stop offset=".3233" stop-color="#9e2064"/>
		<stop offset=".6302" stop-color="#c92037"/>
		<stop offset=".7514" stop-color="#cd2335"/>
		<stop offset="1" stop-color="#e97826"/>
	</linearGradient>
	<path fill="url(#c)" d="M52.2 31.8c0-.1.1-.1.1-.2l-3.7-7.4c-.4.4-11.3 16.7-15.1 35l3.7 7.3.1.1c.5-1.3 1-2.7 1.5-4 .4 0 4.6-13.2 13.4-30.8z"/>
	<linearGradient id="d" x1="-775.7499" x2="2284.7981" y1="1216.0176" y2="616.9068" gradientTransform="translate(0 -978.567)" gradientUnits="userSpaceOnUse">
		<stop offset="0" stop-color="#282662"/>
		<stop offset=".09548389" stop-color="#662e8d"/>
		<stop offset=".7882" stop-color="#9f2064"/>
		<stop offset=".9487" stop-color="#cd2032"/>
	</linearGradient>
	<path fill="url(#d)" d="M32.5 67.2c-1.2-1.9-4.3-3.7-4.3-3.7 2.2 3.2 3.9 6.5 4.2 9.6-1.2.3-2.8-.1-4.7-.8 2 1.8 3.5 2.3 4 2.5-1.8.1-3.7 1.4-5.6 2.8 2.8-1.1 5-1.6 6.7-1.2-2.6 7.2-5.1 15.2-7.7 23.7 2.2-.5.6-1.4 9.7-26.4.1-.4.3-.8.4-1.1 0-.1.1-.2.1-.3 1.8-5.1 1.8-4.7 2-5.3l-3.7-7.4c-.2.2-1.1 5.8-1.1 7.6z"/>
	<linearGradient id="e" x1="-3700.7549" x2="153.0093" y1="10090.0342" y2="786.1014" gradientTransform="translate(0 -978.567)" gradientUnits="userSpaceOnUse">
		<stop offset=".3233" stop-color="#9e2064"/>
		<stop offset=".6302" stop-color="#c92037"/>
		<stop offset=".7514" stop-color="#cd2335"/>
		<stop offset="1" stop-color="#e97826"/>
	</linearGradient>
	<path fill="url(#e)" d="M63.6 13.3c-.1.1-5.5 7.9-10.7 19l.2.1 9.1-1 .2-.2c6.2-2.9 11.3-13.3 12.3-19.3-3.7.7-8.2 1.3-11.1 1.4z"/>
	<linearGradient id="f" x1="-3846.0203" x2="2267.2202" y1="5918.7881" y2="-1754.8124" gradientTransform="translate(0 -978.567)" gradientUnits="userSpaceOnUse">
		<stop offset=".3233" stop-color="#9e2064"/>
		<stop offset=".6302" stop-color="#c92037"/>
		<stop offset=".7514" stop-color="#cd2335"/>
		<stop offset="1" stop-color="#e97826"/>
	</linearGradient>
	<path fill="url(#f)" d="M40.2 62.3c0 .1-.1.2-.1.2-.6 1.7-1.2 3.3-1.9 5.1 0 0-.1.1-.1.2.2 0 .1 0 2.8-.3l.2-.1c-.1 0-.1-.1-.2-.1 10.3-1.1 16.8-12.4 19.9-22.6-2 1-3.9 1.2-4 1.2 3.4-1.3 5.5-3.8 7-6.8-.9.6-2.3 1.4-4 1.8-.1.1-.6.1-.8.1 4.4-1.8 5.2-4.4 5.8-5 .1-.1 1.2-2.4 1.8-4.1 0 0 .6-2 .6-2.4-1.8 1.8-7.3 2-14.5 2.8.2.1 0 .5-.1.8-2.6 4-12.4 29.1-12.4 29.2z"/>
	<linearGradient id="g" x1="-1146.1652" x2="1179.6417" y1="3877.8669" y2="-1654.0782" gradientTransform="translate(0 -978.567)" gradientUnits="userSpaceOnUse">
		<stop offset="0" stop-color="#282662"/>
		<stop offset=".09548389" stop-color="#662e8d"/>
		<stop offset=".7882" stop-color="#9f2064"/>
		<stop offset=".9487" stop-color="#cd2032"/>
	</linearGradient>
	<path fill="url(#g)" d="M36.3 72.7c-.1.4.1.1-1.5 4.4 1.1.5 2 1.8 2.8 3.3-.1-1.5-.7-3-2-4.1 5.7.2 10.6-1.1 13.1-6.2-1.1 1.4-2.5 2-5 1.8 4.1-1.8 6.3-3.7 8.5-8.1-3.3 3.4-7.1 4.3-11.1 3.6l-3 .3c-.1.6-.2.5-1.8 5z"/>
</svg>