<svg xmlns="http://www.w3.org/2000/svg" viewBox="0 0 100 100">
	<path fill="#202A5A" d="M89.167 25.5 51 3.333 9.333 26.667v46.666L51 96.667l40-23.334V24.667l-1.833.833Z"/>
	<path fill="#2C448A" d="M9.333 26.667 51 50l40-23.333L51 3.333 9.333 26.667Z"/>
	<path fill="#283A79" d="m91 24.666-13.333 7-.167 3L51 50v46.666l40-23.333V24.666Z"/>
	<path fill="#202A5A" d="M9.333 26.667v46.666L51 96.667V50L9.333 26.667Z"/>
	<path fill="#3558A7" d="M6 73.333v-15L51 85v15L6 73.333Zm0-46.666V35l45 26.667v-8.334L6 26.667Z"/>
	<path fill="#416FB5" d="M94.333 73.333V65l-36.5-15.833L51 53.333V61.5l22.167 9.833L51 85v15l43.333-26.667Z"/>
	<path fill="#477FC1" d="m73.167 71.333-2.667-1L51 81.666 9.333 58.333v-2l-3.333 2L51 85l22.167-13.667ZM25.667 30 51 15l26.667 16.667 13.333-7L51 0 6 26.667l45 26.666 6.833-4.166L25.667 30Z"/>
	<path fill="#202A5A" d="m77.5 34.667.166-3L51 15 25.666 30l2.834 1.667L51 18.333l26.5 16.334Z"/>
</svg>