<svg xmlns="http://www.w3.org/2000/svg" viewBox="0 0 100 100">
	<path fill="#32383D" d="M90.918 97.53H74.729l1.13-13.648h-7.953l-1.13 13.647H33.224l-1.13-13.647h-7.953l1.13 13.647H9.082L0 38.377 22.73 2h54.54L100 38.377l-9.082 59.152ZM72.706 20.211H58.118l.988 6.823H40.894l.988-6.823H27.294l-9.13 18.165 4.565 36.376h54.542l4.564-36.377-9.13-18.164Zm-7.953 42.494c-1.27 0-2.259-3.765-2.259-8.47 0-4.707 1.035-8.471 2.259-8.471 1.27 0 2.259 3.764 2.259 8.47 0 4.706-.989 8.47-2.26 8.47Zm-28.659.706c-1.27 0-2.259-3.765-2.259-8.47 0-4.707 1.036-8.471 2.26-8.471 1.27 0 2.258 3.764 2.258 8.47 0 4.706-1.035 8.47-2.259 8.47Z"/>
</svg>