<svg xmlns="http://www.w3.org/2000/svg" viewBox="0 0 100 100">
	<path fill="#c6203a" d="m34.8 47-11.6 2L20 33.1c8.1-6.7 7.9-6.3 8.4-7.6.5-1.3 1-1.3 1.5 0 2.5 6.8-.5 11.6 1.7 8.5.9-1.2.6 3.2.2 5-.3 1.1 1 .5 1.5 1.8.6 2.1 1.2 4.1 1.5 6.2zm22.7-21.7c.2 2 .7 4.2 2.6 7.9L39.3 66.8c-1.4-1.5-2.7-3.4-3.9-5.8 5-13 12.3-24.9 22.1-35.7zm-44.9 5.9 6.3 1.8 7.9 34.5-5.5-.5c-5.2-10.8-8-22.8-8.7-35.8zm48.7 2.2 10 1.3c2.6-.5 5-1.4 3.8.9-1 1.9-3.8 6.3-5.7 7.1-1.8.8-4 1.5-2.3 1.4 2-.1 3.1-1.2 2.7-.1-.5 1.8-4.1 3.7-5.8 4.5-1.3.6.8.9 1.2.6 3.3-2.2.3 1.5-6.5 11.8-3.2-3-6.8-5.3-10.7-6.9l13.3-20.6z"/>
	<path fill="#e15e2b" d="M24.8 6.4c3.3 7.1 4.1 14.1 2.3 20.8l-7 5.9c-2.3-18.8-2.2-18.8-2.5-18.8-.3 0-.4-1.6 1.4 18.8l-6.3-1.8-.7-18.8c3-.9 2.3.2 3.4.9.7.4 1.5.4 2 .1.9-.6.3-1.5 1.6-1.6.4 0 .7-.2.9-.5 1.3-1.8 4.6-3.3 4.9-5zm47 3.8 2.8 4.7L60 33.2c-1.8-3.7-2.4-5.9-2.6-7.9l14.4-15.1zm3.1 5.6c2.5 1.9 3.6-.2 5 .6 1.3.7 2.6-1 6 .2-3.1 8.2-8 14.2-14.7 18l-10-1.3 13.7-17.5z"/>
	<g fill="#822778">
		<path d="M35.5 61c1.1 2.4 2.4 4.4 3.9 5.8-4.4 9.3-5.5 9.3-5.4 11 .1 1.2-3.4 2.3-1.8 6.7 1.7 4.8 3.3 9.6 4.6 14.5.1.4-.2.4-.6.5C30.9 84 31 82.9 30 84.8L22.2 100h-.7c9.1-18.6 8.9-17.9 8.9-18.7-.1-.9-.9-1.7-1.8-1.9-.9-.2-1.1.3-2.5 2.1s-.4-1.3.9-2.6c.4-.4 0-1.1-.5-1-1.6.3-3.2.7-2-.2 3.4-2.4 3.4-1.6-4.2-5.9-.9-.5.6-.8 1.6-.4.8.4 2.1.3 1.6-.6l-2.1-3.7 5.5.5c3.3 11.1 3.8 14.5 5 11.1.3-.8-1-.7-1.3-1.9l-2.4-9.1c1.1.1 2.1-.3 3-1.3 2.2-1 3.7-2.7 4.3-5.4z"/>
		<path d="M40 68.4c0 .8 1 1.1 2.9.9 3.8 1.4 7.1 1.1 9.8-.8 1.8-1.2 2-1 .6.6-1.8 2.1-4.1 3.6-6.8 4.6-.3.1-.4.4-.4.7.3 1.1 4.3-1.2 3.1.1-3.1 3.4-7.7 4-12 3.5-2.4-.3-.7 1.3-.4 2.5.6 1.9-.9-.2-2.3-1.9-.4-.5.4-.6.8-1.3l4.7-8.9z"/>
	</g>
	<path fill="#f69823" d="M20 11.2c-.7.9-1.7.2-2 1.4-.4 1.5-2.5 1.4-3.3-.1-.3-.5-1.2-.5-2.7 0l1.4-9.6C13.7 1 15.6-.3 17.5.2c3.4.9 5.8 3 7.3 6.3 0 1.3-3.6 3.2-4.8 4.7zm66 5.5c-3.4-1.2-4.7.6-6-.2-1.4-.8-2.5 1.3-5-.6.2-.5.1-.8-.4-.9l-2.8-4.7c2.6-2.8 5.7-5.1 9.2-6.9.4-.2 1-.3 1.4-.1 5.6 1.5 5.5 9.2 3.6 13.4z"/>
	<path fill="#b3204e" d="M34.8 47c1.6 7 .3 13.4-3.6 19.3-.9 1-2 1.4-3 1.3l-5-18.6 11.6-2zm23.9 13.9c-4.2 4.7-9.5 7.5-15.9 8.4-1.9.2-2.9-.1-2.9-.9L48 54c3.9 1.7 7.5 3.9 10.7 6.9z"/>
</svg>