<svg xmlns="http://www.w3.org/2000/svg" viewBox="0 0 100 100">
	<path fill="#00acd2" d="M78.6 9.9C66.6-.5 40.1-5.6 20.2 9.3 1.5 21.8.6 44.7.6 44.7c3.2 12.5 15.8 24.5 40.1 18.7-2.9-16.9 2.8-59.5 37.9-53.5z"/>
	<path fill="#c8e9eb" d="M66.1 50.6C53 61.5 13 78.1.6 44.7c-3 15.6 5.3 41.5 28.1 51.3 20.2 9.9 41.2-1.6 41.2-1.6 9.2-9 13.5-25.7-3.8-43.8z"/>
	<path fill="#662d91" d="M42.4 35.3c16 5.9 50.2 31.6 27.5 59.1 15-5.2 32.5-25.2 29.6-49.8C98 22.1 78.6 9.9 78.6 9.9c-12.4-3.5-29.1 1.4-36.2 25.4z"/>
</svg>