<svg xmlns="http://www.w3.org/2000/svg" viewBox="0 0 100 100">
	<path fill="#000" d="M77.004 53.127c.14 15.133 13.275 20.169 13.42 20.233-.11.355-2.098 7.177-6.92 14.223-4.167 6.092-8.493 12.161-15.308 12.287-6.695.123-8.849-3.97-16.504-3.97-7.653 0-10.045 3.844-16.383 4.093-6.578.249-11.587-6.587-15.79-12.656-8.587-12.416-15.15-35.083-6.337-50.384 4.377-7.598 12.2-12.41 20.692-12.534 6.459-.123 12.555 4.346 16.504 4.346 3.946 0 11.354-5.374 19.143-4.585 3.26.136 12.413 1.317 18.29 9.92-.474.293-10.921 6.375-10.807 19.027Zm-12.585-37.16C67.912 11.739 70.263 5.855 69.621 0 64.587.202 58.5 3.354 54.89 7.579c-3.236 3.741-6.07 9.73-5.305 15.468 5.61.434 11.342-2.85 14.834-7.08Z"/>
</svg>