<svg xmlns="http://www.w3.org/2000/svg" viewBox="0 0 100 100">
	<path fill="#7ad143" d="m4.4 31.7 15.2 28.2c1.1 2 3.6 3.5 5.7 3.5h31c2.1 0 3-1.5 2-3.5L43 31.5c-1.1-2-3.6-3.5-5.7-3.5H6.1c-1.8.2-2.7 1.7-1.7 3.7zM63.3 64.4l9.2 16.8c.6 1.2 2.1 2.1 3.5 2.1l18.3-.3c1.2 0 1.8-.9 1.2-2.1l-9.2-16.8c-.6-1.2-2.1-2.1-3.5-2.1l-18.5.2c-1.1.3-1.7 1.2-1 2.2z"/>
	<path fill="#00c2ff" d="m63.3 1.1-18.4 23c-1.2 1.5-1.4 4.4-.3 6.3L60 58.5c1.1 2 2.9 2.3 4.2.6L82.7 36c1.2-1.5 1.4-4.4.3-6.3l-15.5-28C66.9.6 66 0 65.1 0c-.6 0-1.2.3-1.8 1.1zM59.1 64.7l-11 13.7c-.8.9-.9 2.6-.2 3.8L57.1 99c.6 1.2 1.8 1.4 2.6.3l11-13.7c.8-.9.9-2.6.2-3.8L61.7 65c-.3-.6-.9-1.1-1.4-.9-.6 0-.9.2-1.2.6z"/>
</svg>