<svg xmlns="http://www.w3.org/2000/svg" viewBox="0 0 100 100">
	<linearGradient id="a" x1="6.3084" x2="94.3923" y1="51.433" y2="51.433" gradientTransform="matrix(1 0 0 -1 0 101.433)" gradientUnits="userSpaceOnUse">
		<stop offset="0" stop-color="#6190f8"/>
		<stop offset="1" stop-color="#2d50a5"/>
	</linearGradient>
	<path fill="url(#a)" d="M67.8 8.9c-2.8.3-6.5 1.3-9.4 2.5-2.6 1.2-6.6 3.5-9.3 5.5-3 2.2-6.4 5.2-9.8 8.6-9 9.1-18.3 21.5-27.6 37-2.9 4.8-5.1 8.7-7.6 13.4C1.6 80.6.4 83.1.2 84c-.5 2 .1 4 1.6 5.5 2.1 2.2 5.6 2.3 7.9.4.8-.7 1.1-1.1 2.9-4.6 1.5-3 4.5-8.5 5.7-10.6.4-.6.9-1.5 1.1-1.8 3.1-5.5 10.4-17 14-21.8 6.1-8.3 10.1-13.1 15.1-18 4.2-4.2 7.4-6.7 11.5-9.1 2.4-1.4 5.7-2.6 8.1-3 1.5-.3 3.9-.3 5.2-.1 3.1.4 5.7 1.7 8 3.9s4.2 5.6 5.5 9.8c.7 2.4 1.2 5.4 1.4 8.8.1 1 .2 2.1.3 2.4.5 1.9 2.2 3.7 4.2 4.3.7.2 2.2.2 3 0 2.1-.5 3.8-2.3 4.3-4.3.4-1.5 0-6.8-.8-10.6-.9-4.4-2.6-9.1-4.5-12.3-4.2-7.4-9.8-11.6-17.7-13.2-3-.9-6.6-1.1-9.2-.8zm24.9 47.5c-2 .5-3.5 1.9-4.2 3.9-.3.9-.4 2.4-.1 3.4.4 1.4 1.3 2.6 2.5 3.4 1.2.8 3.1 1.1 4.5.8 2.2-.6 3.8-2.2 4.4-4.3.2-.8.2-2.2 0-3-.4-1.5-1.5-3-2.8-3.7-1.3-.6-3-.8-4.3-.5z"/>
</svg>