<svg xmlns="http://www.w3.org/2000/svg" viewBox="0 0 100 100">
	<path fill="#00979C" d="M0 53.348v-7.544c.157-.079.157-.236.157-.393 2.358-10.295 8.802-16.503 19.018-18.94.865-.235 1.808-.157 2.672-.471h5.03c.079.157.314.079.471.079 5.03.55 9.588 2.357 13.596 5.5 3.458 2.594 6.13 5.895 8.566 9.431.314.472.471.472.786 0 1.415-2.043 2.908-4.008 4.636-5.815 4.166-4.48 9.195-7.623 15.325-8.724.864-.235 1.886-.157 2.75-.471h4.873c.079.157.236.079.393.079 1.493.157 2.908.471 4.322.864 10.531 3.065 17.997 12.731 17.368 23.655-.471 9.194-5.108 15.796-13.203 19.961-4.008 2.2-8.408 2.75-12.967 2.672-5.972-.079-11.159-2.122-15.638-6.051-3.144-2.75-5.58-6.052-7.86-9.51-.314-.47-.47-.392-.785.08-1.415 2.121-2.908 4.243-4.637 6.286-3.064 3.458-6.601 6.287-11.002 7.78-5.422 1.886-10.924 1.965-16.425.472-7.937-2.28-13.36-7.309-16.346-15.01-.47-1.258-.707-2.672-1.1-3.93Zm24.99 11.553c4.48.157 8.331-1.336 11.632-4.401 3.379-3.144 5.815-7.073 8.251-10.924.079-.236.079-.393-.078-.629-2.044-3.222-4.165-6.444-6.995-9.116-5.422-5.186-11.788-6.915-18.939-4.636-5.894 1.964-9.666 6.13-10.53 12.416-.865 5.895 1.414 10.61 6.13 14.146 3.143 2.28 6.679 3.222 10.53 3.144Zm49.825 0c1.73 0 3.458-.079 5.108-.55 6.209-1.886 10.295-5.737 11.474-12.181 1.179-6.366-1.257-11.474-6.601-15.09-5.894-4.086-14.46-3.693-20.433.787-4.008 2.986-6.68 6.994-9.352 11.16-.157.235-.079.392 0 .628 2.122 3.379 4.244 6.758 6.994 9.666 3.458 3.694 7.623 5.816 12.81 5.58Z"/>
	<path fill="#00979C" d="M24.912 47.061c2.515 0 5.108.079 7.623 0 .629 0 .708.157.708.786a9.577 9.577 0 0 0 0 2.122c.078.629-.08.786-.786.786h-10.06c-1.728 0-3.457-.079-5.186 0-.55 0-.708-.157-.708-.786a10.29 10.29 0 0 0 0-2.2c0-.55.158-.708.708-.708 2.515.079 5.108 0 7.701 0Zm49.51-5.03c.629 0 1.258.08 1.808 0 .393 0 .55.158.55.55-.079 1.101 0 2.201-.079 3.301 0 .55.158.708.708.708 1.021-.079 2.121 0 3.222-.079.471 0 .628.079.628.629v3.615c0 .393-.157.55-.55.55-1.1-.078-2.2 0-3.379-.078-.471 0-.629.157-.629.628.079 1.1 0 2.2.079 3.3 0 .472-.157.708-.629.708a26.548 26.548 0 0 0-3.536 0c-.472 0-.629-.157-.629-.629.079-1.178 0-2.279.079-3.457 0-.393-.157-.55-.55-.55-1.1.078-2.2 0-3.301.078-.629 0-.707-.236-.707-.707 0-1.1.078-2.2 0-3.3-.079-.63.235-.787.785-.787 1.1.079 2.122 0 3.223.079.392 0 .55-.157.55-.55-.079-1.1 0-2.28-.079-3.38 0-.471.157-.628.629-.628.629.078 1.179 0 1.807 0Z"/>
</svg>