<svg xmlns="http://www.w3.org/2000/svg" viewBox="0 0 100 100">
	<path fill="#2E52A9" d="M25 7h50l25 42.935L75 92.87H25L0 49.935 25 7Z"/>
	<path fill="#354593" d="m75 7 25 42.935H50L75 7Z"/>
	<path fill="#4A6CB5" d="M100 49.935 75 92.87H25l25-42.935h50Z"/>
	<path fill="#fff" d="m57.592 37.001.747.642a.14.14 0 0 1 .016.193c-.82.994-1.635 2-2.446 3.015-.1.126-.203.147-.31.063-2.21-1.79-4.719-2.563-7.527-2.315-1.795.158-3.757 1.049-3.82 3.134-.058 1.928 1.549 2.895 3.107 3.507a111.56 111.56 0 0 1 4.396 1.841c1.347.557 2.226.934 2.638 1.132.756.365 1.549.847 2.379 1.446 1.338 1.393 2.244 2.592 2.483 4.621.31 2.627-.447 4.864-2.27 6.712-3.605 3.656-9.965 3.656-14.44 1.87a15.558 15.558 0 0 1-4.753-3.007.095.095 0 0 1-.01-.13l2.915-3.423a.078.078 0 0 1 .055-.027.082.082 0 0 1 .06.02 13.385 13.385 0 0 0 4.097 2.496c2.055.796 4.128.954 6.221.475 1.82-.417 3.16-1.888 2.832-3.846-.388-2.312-3.024-3.098-4.868-3.857-1.628-.7-3.258-1.405-4.89-2.116-2.813-1.227-4.974-3.535-5.188-6.69-.353-5.205 4.232-8.286 8.877-8.636 3.646-.274 6.88.686 9.7 2.88ZM18.802 55.75l-2.219 7.675a.085.085 0 0 1-.081.062l-5.129-.004a.084.084 0 0 1-.07-.035.085.085 0 0 1-.011-.077l9.355-28.71a.086.086 0 0 1 .081-.058h6a.085.085 0 0 1 .082.058l9.358 28.717a.086.086 0 0 1-.011.077.086.086 0 0 1-.07.035l-5.352-.009a.085.085 0 0 1-.081-.061l-2.176-7.67a.085.085 0 0 0-.083-.062h-9.511a.085.085 0 0 0-.082.061Zm1.252-4.209a.058.058 0 0 0 .056.073l7.087-.013a.058.058 0 0 0 .056-.072l-3.565-12.8a.058.058 0 0 0-.056-.043.058.058 0 0 0-.056.044l-3.522 12.81Zm63.64-1.755-.004 13.608c0 .026-.01.05-.027.067a.091.091 0 0 1-.065.028h-4.335a.165.165 0 0 1-.165-.167l.029-13.457c.185-3.231.422-6.472.712-9.722a.086.086 0 0 0-.01-.055.136.136 0 0 0-.037-.047c-.038-.027-.063-.018-.076.027l-1.61 5.602c-.394 1.373-.925 2.766-1.389 4.148l-2.078 5.903a.192.192 0 0 1-.18.128h-2.633a.243.243 0 0 1-.226-.161l-2.067-5.942c-.508-1.473-1.026-2.926-1.444-4.433l-1.459-5.245c-.004-.017-.015-.024-.032-.021l-.05.009c-.042.008-.06.034-.057.076l.72 9.578.02 13.672c0 .03-.013.06-.034.08a.112.112 0 0 1-.08.034l-4.244-.006a.13.13 0 0 1-.128-.13l-.004-13.513.007-15.126c0-.076.038-.114.114-.114l5.54-.01a.17.17 0 0 1 .097.03.14.14 0 0 1 .055.075L73.18 50.07a.074.074 0 0 0 .144-.002c.523-1.909 1.025-3.831 1.608-5.719a3571.4 3571.4 0 0 0 2.97-9.641c.019-.064.062-.096.128-.096l5.553-.01c.078 0 .117.04.117.119l-.005 15.065Z"/>
</svg>