<svg xmlns="http://www.w3.org/2000/svg" viewBox="0 0 100 100">
	<path fill="#F58220" d="m68.083 64.132-12.35-7.868.329 15.08-11.694.055.328-15.3-12.185 8.033-6.01-10.71 12.73-7.049-12.73-6.72 5.955-10.656 12.13 7.923-.382-15.08 12.076-.165-.437 15.245 12.294-8.032 5.738 10.6-12.513 6.94 12.677 6.994-5.956 10.71ZM17.21 23.752c-39.014 37.047-7.54 90.104 52.675 60.816l19.671 5.355L82.4 74.405c24.698-26.447 22.239-52.238-.11-65.898 5.301 4.59 8.962 8.578 9.454 12.294C72.89-6.902 25.79 7.195 9.67 39.051c.983-4.207 3.825-9.507 7.54-15.3Zm7.213 1.257c16.83-14.809 45.735-19.945 58.904-7.05 13.169 12.896 8.196 39.124-8.633 53.987-16.83 14.808-43.769 16.174-56.937 3.278C4.589 62.33 7.594 39.816 24.424 25.008Z"/>
</svg>