<svg xmlns="http://www.w3.org/2000/svg" viewBox="0 0 100 100">
	<path d="M44.8 9.8c2.1 1.7-.5 4.9-2.6 3.2-14.6-11.7-19.3-1-15.3 17.4 3.9-.6 8.1-1 12.5-1.2 24-31 46.5-30.4 41.4-3.2-.5 2.7-4.6 1.9-4.1-.8C81.5-.2 61.3 9.1 44.8 29.1c12.3.1 26.6 1.9 38 6.2 23.5 9.1 21.1 22.2 4.7 28.7-2.5.9-4-2.8-1.5-3.9 27.4-10.8-6.7-27.5-44.5-26.8-3.3 4.4-6.3 9-9.2 14 4.8 11.5 10.9 22.1 19 31.6 25.3 29 31.6 1.8 14.1-34.4-1.3-2.5 2.5-4.4 3.7-1.8 6.9 14.3 17 44.8 4.1 51.4-8.6 4.4-20.1-6.6-26.3-14-6.9-8.1-12.8-18.3-17.2-28-12.3 24.5-12.3 47.1 9.7 31.3 2.2-1.6 4.6 1.8 2.4 3.4-23.7 17.1-33.5-4.2-14.2-39.6-1.5-3.8-2.8-7.6-3.9-11.9C5.1 39.1-3.8 47.7 13.1 56.4c2.4 1.3.5 4.9-1.9 3.7-16.8-8.7-16-23.3 11.6-28.9C17.1 4.1 30.2-2 44.8 9.8zm11.4 38.5c.7 3.2-1.3 6.3-4.5 7-3.2.7-6.4-1.3-7.1-4.6-.7-3.2 1.4-6.3 4.6-7 3.2-.5 6.3 1.5 7 4.6zM36.1 33.6c-2.9.2-5.6.5-8.3.9.7 2.7 1.6 5.4 2.5 7.9 1.8-3 3.8-5.9 5.8-8.8z"/>
</svg>