<svg xmlns="http://www.w3.org/2000/svg" viewBox="0 0 100 100">
	<path fill="#5d83ac" d="M50 94.8c24.8 0 44.8-20.1 44.8-44.8 0-24.8-20-44.8-44.8-44.8S5.2 25.2 5.2 50s20 44.8 44.8 44.8z"/>
	<path fill="#f0f0f0" d="M50 0C22.4 0 0 22.4 0 50s22.4 50 50 50 50-22.4 50-50S77.6 0 50 0zm0 90c-22.1 0-40-17.9-40-40s17.9-40 40-40 40 17.9 40 40-17.9 40-40 40z"/>
	<path fill="#f0f0f0" d="m80.6 64.8-22.8-33c-.8-1.1-1.8-2.1-2.9-2.9-1.1-.8-2.6-1.2-4.3-1.2-1.8 0-3.3.4-4.4 1.3-1.2.8-2.1 1.8-2.9 2.8l-23.5 33h13.4l17.2-24.3 6.6 9.7c.6.9 1.3 1.8 1.9 2.8.6.8 1.2 1.7 1.8 2.5-1-.1-2.1-.1-3.1-.1H44.9l-6.8 9.4h42.5z"/>
</svg>