<svg xmlns="http://www.w3.org/2000/svg" viewBox="0 0 100 100">
	<linearGradient id="a" x1="49.6644" x2="106.5243" y1="56.1902" y2="67.2429" gradientTransform="matrix(1 0 0 -1 0 101.433)" gradientUnits="userSpaceOnUse">
		<stop offset="0" stop-color="#0f6067"/>
		<stop offset=".5" stop-color="#05abac"/>
		<stop offset="1" stop-color="#58bec4"/>
	</linearGradient>
	<path fill="url(#a)" d="M70 5.2h30L59.9 79.3s-6.8-19.6-9.7-26.6"/>
	<linearGradient id="b" x1="88.6249" x2="96.7517" y1="3.7878" y2="96.6833" gradientTransform="matrix(1 0 0 -1 0 101.433)" gradientUnits="userSpaceOnUse">
		<stop offset="0" stop-color="#117c83"/>
		<stop offset=".5" stop-color="#21b5b5"/>
		<stop offset="1" stop-color="#7ed4d4"/>
	</linearGradient>
	<path fill="url(#b)" d="M77.4 96.8H100V5.2c0 47.9-20.1 91.6-22.6 91.6z"/>
	<linearGradient id="c" x1="41.6784" x2="20.2366" y1="95.2795" y2="29.2962" gradientTransform="matrix(1 0 0 -1 0 101.433)" gradientUnits="userSpaceOnUse">
		<stop offset="0" stop-color="#9accd3"/>
		<stop offset=".5" stop-color="#72aeb3"/>
		<stop offset="1" stop-color="#317d7f"/>
	</linearGradient>
	<path fill="url(#c)" d="M59.9 79.3H41.2L0 5.2C7.3 4.3 21.9 3 29.1 2.4l30.8 76.9z"/>
	<linearGradient id="d" x1="-4.2782" x2="31.7131" y1="19.891" y2="31.5852" gradientTransform="matrix(1 0 0 -1 0 101.433)" gradientUnits="userSpaceOnUse">
		<stop offset="0" stop-color="#21626e"/>
		<stop offset=".5" stop-color="#157c84"/>
		<stop offset="1" stop-color="#03a3a5"/>
	</linearGradient>
	<path fill="url(#d)" d="M23.9 50.1C17.7 74.5 0 97.6 0 97.5c20.5 0 25-3 25-4.6v-41c-.4-.6-.7-1.2-1.1-1.8z"/>
	<linearGradient id="e" x1="23.5442" x2="-22.5077" y1="72.0037" y2="29.0576" gradientTransform="matrix(1 0 0 -1 0 101.433)" gradientUnits="userSpaceOnUse">
		<stop offset="0" stop-color="#0b7c81"/>
		<stop offset=".5" stop-color="#068d90"/>
		<stop offset="1" stop-color="#16b1b1"/>
	</linearGradient>
	<path fill="url(#e)" d="M0 5.2v92.3c11.2-18.6 17.8-30.7 23.6-48C9.3 24.3 0 5.2 0 5.2z"/>
	<linearGradient id="f" x1="66.1998" x2="89.7294" y1="19.5775" y2="38.6312" gradientTransform="matrix(1 0 0 -1 0 101.433)" gradientUnits="userSpaceOnUse">
		<stop offset="0" stop-color="#0a8a8f"/>
		<stop offset=".5" stop-color="#0f7c82"/>
		<stop offset="1" stop-color="#1a5964"/>
	</linearGradient>
	<path fill="url(#f)" d="m75.8 93.2 1.6 3.6V48.7l-1.6 2.6"/>
	<linearGradient id="g" x1="101.8148" x2="76.7895" y1="42.1927" y2="57.8321" gradientTransform="matrix(1 0 0 -1 0 101.433)" gradientUnits="userSpaceOnUse">
		<stop offset="0" stop-color="#256a77"/>
		<stop offset=".5" stop-color="#0d9499"/>
		<stop offset="1" stop-color="#06a0a2"/>
	</linearGradient>
	<path fill="url(#g)" d="M77.3 48.8v47.9l.1.2C79 96.8 100 45.1 100 5.2c0 0-12.8 26.8-22.7 43.6z"/>
</svg>