<svg xmlns="http://www.w3.org/2000/svg" viewBox="0 0 100 100">
	<linearGradient id="a" x1="44.7" x2="44.7" y1="991.2459" y2="1041.6459" gradientTransform="translate(0 -978.567)" gradientUnits="userSpaceOnUse">
		<stop offset="0" stop-color="#702a2f"/>
		<stop offset="1" stop-color="#cc6d69"/>
	</linearGradient>
	<path fill="url(#a)" d="M64.4 40.5c-2.5 1.5-3.8 2.2-6.6 3.7-2.7-7.6-5.2-14.1-5.8-15.7-.9-2.2-2.4-2-3.2.3-4.4 12.3-7.7 20.4-9.5 25.4-6.1 3.4-9.9 6.1-14.3 8.8 7.1-12.9 24.4-50.4 25.6-50.4.9 0 13.4 26.9 13.8 27.9z"/>
	<linearGradient id="b" x1="21.1" x2="21.1" y1="1054.6959" y2="1078.5529" gradientTransform="translate(0 -978.567)" gradientUnits="userSpaceOnUse">
		<stop offset="0" stop-color="#ad5a55"/>
		<stop offset="1" stop-color="#e58079"/>
	</linearGradient>
	<path fill="url(#b)" d="M18.3 78.7c5-1 8.4-1.8 13.1-2.6-4.1 10.4-7.8 20.4-9 23.9l-11.6-.8c1.3-4.4 6.2-16.9 7.5-20.2v-.3z"/>
	<linearGradient id="c" x1="78.8" x2="78.8" y1="1048.467" y2="1078.267" gradientTransform="translate(0 -978.567)" gradientUnits="userSpaceOnUse">
		<stop offset="0" stop-color="#9f514d"/>
		<stop offset="1" stop-color="#d67670"/>
	</linearGradient>
	<path fill="url(#c)" d="M87.2 90c1.5 3.3 2.6 7.2 3.1 8.7l-11.9 1c-2.2-6.2-6.7-17.6-11.1-28.6 4.6-.5 7.1-.9 10.6-1.2 1.9 4.3 7.5 15.6 9.3 20.1"/>
	<linearGradient id="d" x1="27.65" x2="27.65" y1="1054.467" y2="1078.567" gradientTransform="translate(0 -978.567)" gradientUnits="userSpaceOnUse">
		<stop offset="0" stop-color="#8c282e"/>
		<stop offset="1" stop-color="#ad2b32"/>
	</linearGradient>
	<path fill="url(#d)" d="m31.4 76.1 1.4-.2c-1.4 7.3-1.6 6.7-1.9 19l-8.2 5.1h-.2c2.8-8 5.8-15.9 8.9-23.9"/>
	<linearGradient id="e" x1="72.7" x2="72.7" y1="1049.667" y2="1078.267" gradientTransform="translate(0 -978.567)" gradientUnits="userSpaceOnUse">
		<stop offset="0" stop-color="#bd2e35"/>
		<stop offset="1" stop-color="#90292e"/>
	</linearGradient>
	<path fill="url(#e)" d="M67.3 71.1c4.4 11 8.9 22.4 11.1 28.6l-6.2-4.2c-.3-7.3-3-17.8-5.2-24.4h.3z"/>
	<linearGradient id="f" x1="27.25" x2="27.25" y1="978.567" y2="1057.067" gradientTransform="translate(0 -978.567)" gradientUnits="userSpaceOnUse">
		<stop offset="0" stop-color="#ab292d"/>
		<stop offset="1" stop-color="#73272b"/>
	</linearGradient>
	<path fill="url(#f)" d="M39 0h6C21 43.3 10.7 76.7 9.5 78.5 18.3 45.1 28.8 19.3 39 0"/>
	<linearGradient id="g" x1="73.65" x2="73.65" y1="978.567" y2="1060.467" gradientTransform="translate(0 -978.567)" gradientUnits="userSpaceOnUse">
		<stop offset="0" stop-color="#e02b2b"/>
		<stop offset="1" stop-color="#e02b2b"/>
	</linearGradient>
	<path fill="url(#g)" d="M61 0h-5.4c12.3 23.6 27.7 56.6 36.1 81.9C85.7 56.5 74.2 22.5 61 0z"/>
	<linearGradient id="h" x1="23.35" x2="23.35" y1="31.957" y2="38.973" gradientTransform="matrix(1 0 0 -1 0 102)" gradientUnits="userSpaceOnUse">
		<stop offset="0" stop-color="#c32223"/>
		<stop offset="1" stop-color="#752326"/>
	</linearGradient>
	<path fill="url(#h)" d="M21.8 70c1.2-3.1 2.9-6.8 3.1-7-.1.2-2.2 4.5-3.1 7z"/>
	<linearGradient id="i" x1="50.4096" x2="50.4096" y1="2.9" y2="102" gradientTransform="matrix(1 0 0 -1 0 102)" gradientUnits="userSpaceOnUse">
		<stop offset="0" stop-color="#c32223"/>
		<stop offset="1" stop-color="#752326"/>
	</linearGradient>
	<path fill="url(#i)" d="M91.7 81.9C83.5 57.4 66.5 20.5 55.5 0H45.1C20.9 43.3 10.8 76.6 9.5 78.5 8.4 82.6 5.7 92.4 5 96.6l5.7 2.5h.1c1.4-5.1 10.9-28.9 10.9-29C37.6 63.7 54 58.7 70.8 55.2c16.4 35.1 15.1 30.2 19.5 43.5l5.5-1.7c.3 0-2.1-7.6-4.1-15.1zM24.8 63c3-5.5 23.1-46.4 24.4-48.9.6-1.1 1.5-1.5 2.5.3.9 1.5 9.7 19.7 12.6 26.1C61.6 42 31.2 58 24.8 63z"/>
	<linearGradient id="j" x1="18.1" x2="77.78" y1="1045.517" y2="1045.517" gradientTransform="translate(0 -978.567)" gradientUnits="userSpaceOnUse">
		<stop offset="0" stop-color="#702326"/>
		<stop offset="1" stop-color="#af2324"/>
	</linearGradient>
	<path fill="url(#j)" d="M70.8 55.2c2.8 6.1 5.8 12.2 7 14.7-12.2 1-36.5 4.2-59.6 8.8.9-2.2 2.2-5.5 3.4-8.6C37.5 63.4 54 58.4 70.8 55.2z"/>
	<g fill="#d97871">
		<path d="M25.4 62.7c5.4-4.6 36.7-21.5 38.9-22.7l-.1.3c0-.1-12.5-25.1-12.6-25.3v-.5c-.6-1.1-1.6-1.3-2.2 0 0 0 0 .1-.1.2-15.7 31.5-24.1 46.9-30.9 63.9 8.1-20.2 20.8-44.7 30.7-64.4.1-.4.9-1.1 1.5-1.1h.5c.1.1.6.2 1.1 1.1v.1c2.4 4.7 10.8 21.6 12.9 26-2.2 1.1-10 5.6-10.1 5.7-.8.5-24.2 12.6-29.3 17"/>
		<path d="M22 70.1c23.5-9.7 46.7-14.9 49-14.9l.1.1c8.9 18.5 22.1 48.5 13.1 28.6-2.4-5.4-9.9-21.1-13.5-28.7l.2.1C52.6 59 29.3 66.8 25.3 69l-3 1.1"/>
	</g>
</svg>