<svg xmlns="http://www.w3.org/2000/svg" viewBox="0 0 100 100">
	<path fill="#4b4b77" d="M22.7 29.1c2 1.2 1.7.2 10.5 20.8C38 61.2 38 61.7 37.4 63.7c-.4 1.4-1.3 2.3-2.7 2.8-1.6.6-4.5.6-6.2-.1-3.6-1.5-3.4-4.3-5.8-6.1-1-.7-2.4-.5-5.5-.5-6.2 0-3.2 7.1-11.5 7.1-4.1 0-5.9-2.1-5.9-4.6 0-3.1 9-22.7 12.6-30.7 1.6-3 6.3-4.9 10.3-2.5zM68 32.6c0 4.2-11.6 29.8-11.6 29.9-1.5 2.6-3.2 4.5-6.2 4.5-6.9 0-7.5-6.8-15.6-26.9-.7-1.7-2.2-5.5-2.2-7.4 0-3.3 2.5-4.7 5.9-4.7 4.8 0 6.6 2.2 8.3 6.7 4.5 11.6 3.6 11.4 7.9.1 1.8-4.6 3.6-6.8 8.6-6.8 1.3.1 4.9 1.9 4.9 4.6zm17-3.5c2.3 1.5 2.3 2.3 5.1 8.4 10.6 23.7 10.2 24 9.6 26.1-.3 1.4-1.3 2.4-2.7 2.9-1.6.6-4.5.6-6.2-.1-3.6-1.5-3.4-4.3-5.8-6.1-1-.7-2.4-.5-5.5-.5-6.2 0-3.2 7.1-11.5 7.1-4.1 0-5.9-2.1-5.9-4.5 0-3.2 10.5-26 12.5-30.7 1.6-3.2 6.5-5 10.4-2.6z"/>
	<path fill="#e0c7c1" d="M19.6 82.1c0-.1 4.7-8.7 4.7-12.1 0-8.2-10.9-8.2-10.9 0 0 3.4 4.7 12 4.7 12.1.4.6 1.2.6 1.5 0zm62.3 0c0-.1 4.7-8.7 4.7-12.1 0-8.2-10.9-8.2-10.9 0 0 1.4.8 3.5 1.3 4.8 1.4 3.5 3.4 7.2 3.4 7.2.4.7 1.2.7 1.5.1z"/>
</svg>