<svg xmlns="http://www.w3.org/2000/svg" viewBox="0 0 100 100">
	<g fill="#000">
		<path d="M4.8 48.9H0c0 .5-.1.5.3.6h.1l.4.2c.2.2.1-.3.1 8.7 0 1.1-.9.4-.9 1v.3h3.3c0-.5 0-.5-.2-.6-.8 0-.6.1-.6-4.4h2c2.3 0 3.7-1.5 3.7-3-.1-.9-1.3-2.8-3.4-2.8zm-2.3 5v-4.3c1.7 0 3.9-.4 3.9 2.2 0 2.3-2.2 2.1-3.9 2.1zm27.1-21.8-.4-.3c-1.9 2.1-4.1 1-4.1-1.8h4.5c0-4.3-5.8-3.7-5.8.2-.1 1.9 3.6 4.6 5.8 1.9zm-1.5-2.8h-3c.2-2.3 3-2.5 3 0zm-13.9 24c-2.2 2.2-1 6.6 2.8 6.6 2.2 0 3.8-1.7 3.8-4 0-3.5-4.1-5.1-6.6-2.6zm2.8 6.1c-1.5 0-2.2-1.3-2.2-3.6 0-2 .8-3.1 2.2-3.1s2.2 1.2 2.2 3.3c0 2.2-.8 3.4-2.2 3.4zM9.6 25.9c.3-1.2 1-1.1 2.4-1.1 0 8.2.2 7.8-.4 8-.3 0-.3 0-.3.5h2.9c0-.4 0-.4-.2-.6-.8 0-.6.3-.6-8 1.6 0 1.8-.1 2.2.7.5.9.4.8.9.8V24c-1.1.3.1.2-6.5.2-.6 0-.8 0-1.1-.2v2.3h.4c.2 0 .3-.1.3-.4zm9.7 7.1c0-.2-.1-.2-.2-.3H19c-.5-.2-.4.2-.4-4.4.6-.8 1.9-1.1 2.6-.4.4.4.3.8.3 4.2 0 .4 0 .6-.5.6-.1 0-.2.1-.2.5h2.5c0-.5-.1-.5-.3-.5-.3-.1-.4-.1-.4-.6 0-3.4.2-3.9-.5-4.6-1.1-.8-2.4-.5-3.6.1v-3.4h-1.9c0 .5.1.5.3.5.3.1.4.1.4.6 0 7.8.2 7.2-.4 7.3-.3 0-.3.1-.3.5l2.7-.1zm-6.7 19.2c-.5 0-.9.2-1.3.8-.4.4-.6.8-.8 1.7v-2.4H8.2c0 .5 0 .6.1.6l.3.1c.5.3.4-.2.4 5.3 0 .7 0 .6-.5.8-.3.2-.3.1-.3.6h3.2c0-.4 0-.6-.3-.6-.5 0-.8 0-.7-.8 0-1.2 0-2.2.5-3.6.3-.7.7-1.1.9-1.1.1 0 .1 0 .3.1s.4.1.6.1c1.2.2 1.3-1.6-.1-1.6zM93.1 54c0 .1 0 .3.1.3.9.5-.1-.8-.1-.3zm-11-12.2c.2.1.4.1.5.2 0 0 .2-.3.3-.6.6-.8.3-.8-.1-.8-.6 0-.9.4-1.3 1l.6.2z"/>
		<path d="M98.4 54.9c.1-.1.2 0 .3.1.3.3.5.2.4-.1-.2-.7.2 0 .8 0-.5-.6-1-1.1-2.6-2.9-2.1 0-3.6-.1-2.7.4.4.2 1.6 3.1 1.9 3.1.1.1.1.2.1.3-.1.1 0 .3.2.5.3.3.3.3 0 .3-1.1 0-2.4-1.9-2.9-1.9-.1.1.2.4.6.7s.7.7.6.7c-.4.4-1.6-1.5-1.6-1.1-.2.2.8.9.5.9-.3 0-.5-.4-.8-.4-.1 0-.2-.1-.2-.3s-.1-.3-.5-.4c-1.6-.2-1.4-1.2-1.9-1.7-.4-.4-.4-1.3-.8-1.3-.5 0-.6-.9-.9-1.4-.2-.4-.2-.5-.4-.3-.4.4.2-.6-.2-.6-.3 0-.1-.4-.5-1-.5-1.4-.6-1.4-.5-2.4.1-1.2 0-1.5-1.3-2.9-.5-.5-.8-.9-.8-1 0 0 .3 0 .7.1 1.1.3 1.2-.2 2.2 0 .5.2.6.9.2.8-.4 0-.3.7.3 1.6.6 1 .7 1.1 1.9 1.5 1.7.6 2.1 1.1 2.4 2.5.1.7.9 2.5 1.2 2.7.3.3 1.6.1 2.3.3.7.1 1.1-.1.8-.4-.3-.3-1.3-4.6-4.6-5.9-4.2-2.1-1.1-4.1-4.4-4.9-.6-.1-2.7 0-2.7.2 0 .1.2.2.4.3.6.3-.2.3-.6-.1-.7-.5-1.3-.4-1.6.2-.5.8-.4 1 .5 1.1 1.2.3.5-.5 3.2 2.7.2 4.1-.1 4 2.3 7.1 1.8 2.5 2.3 3 3 3.4.8.4.8.7.1.4-1.4-.4-1.6-.3-2.2.5.7.2.8.1.8.5 0 .8.6-.3 1.5 0 .3.1.6.1.9.1.6-.2.3.3-.8.3-1.5 0-1.7.9-1.3.9.1 0 .1.2.1.5-.1.5.1.6.5.3.3-.3.7.1.6.6-.1.2-.1.4 0 .4l.8-.6c.7-.6 1.2-1.6 1.2-2.2 0-.3.1-.3.6-.3.4 0 .8.1 1 .2.4.2 3.8.4 4 .3-1-1.3-2.3-2.2-2.1-2.4zm-2.8-2.3c-.2-.3-.2-.3.2-.1l.2.2c.1.2-.1.1-.4-.1zM94.2 51c-.2.2-.5-.7-.1-.3.1.1.1.3.1.3zm.3-1.9c1.2.2 1.7 1.5.1.4-.4-.5-.4-.5-.1-.4zm-.3-1.6c-.1.1-.3-.1-.3-.3 0-.2.5.1.3.3zm-1.1 1.9c.1-.1 1.1.5 1.4.8.2.2-.5 0-.9-.3-.2-.2-.5-.4-.5-.5zm-.3-3.2c.1.1.2.1.2.2-.3.3-.6-.2-.2-.2zm-2-.4c.3.2.3.2 0 .2-.1 0-.3-.1-.4-.2-.1-.2.1-.3.4 0zm-3.5-4.2c0 .1 0 .2-.1.2l-.2-.2c-.2-.2.3-.3.3 0zm-3.5-.2c-.5-.3.5-.3.5 0-.1.2-.2.2-.5 0zm10.1 15.9c0 .2-.4 1.2-.7.9-.1-.2-.1-.2-.1 0 .1.4-.3.6-.6.3-.1-.2-.4-.3-.5-.3-.6 0 .1-1 1.4-1.2.5 0 .6.1.5.3zm3.7-3.8c-.1.1-.3.1-.3.1s-.2-.1-.4-.1c-.2-.1-.4-.2-.4-.3-.1-.2.2-.3.4 0 .1.1.3.1.6.1.4-.2.5.1.1.2zm.2 1.8c.1 0 .2.1.3.2 0 .5-.7-.2-.3-.2z"/>
		<path d="M90.6 51.2c-.2.2 1.2 1.5 1.2.9 0-.1-.2-.2-.4-.3-.4 0-.4-.6-.8-.6zm1.7 6.8c.2 0 .9-.4.9-.5.1-.2-.3-.1-.9.5zm-60.5-5.8c-.5 0-.9.2-1.3.8-.4.4-.6.8-.8 1.7v-2.4h-1.8c0-.1.1-.2.1-.3 0-.4-.4-.8-.9-.8-.6 0-1 .4-1.2 1.1-4.5-1.9-6.4 3-3.6 4.5l-1.4 2.9c0 .1 0 .1.4.1 1.7-.4 5.1-.6 5.1 1.1 0 1.8-4 1.8-4 .9 0-.3.1-.5.1-.5 0-.9-1.7-.9-1.7.1 0 .9 1.4 1.6 3.3 1.6 3.1 0 4.2-1.9 3.5-3.2h3.1c0-.4 0-.6-.3-.6-.9 0-.7-.2-.7-1.6 0-1.1.2-2 .5-2.8.3-.7.7-1.1.9-1.1.1 0 .1 0 .3.1.2.1.4.1.6.1 1.1 0 1.1-1.7-.2-1.7zm-6 2.4c0 3-3.2 2.9-3.2.1-.2-2.8 3.2-3 3.2-.1zm2.4 3.7c0 .7 0 .6-.5.8-.3.1-.3.1-.3.4-.9-1.5-3.4-1.4-5.2-1.1l.6-1.3c3.8.9 5.4-2.5 3.8-4.1-.3-.3-.3-.3-.3-.4 0-.2.1-.3.2-.3 0 0 .1 0 .1.1.1.2.4.2.6.2 0 .1 0 .2.1.3.8.3.6-.3.6 5.4h.3zm26.6 1.2c0-.2-.1-.3-.2-.3h-.2c-.7-.2-.5.1-.5-5.3 1.3-1.6 3.1-1.2 3.1.6 0 4.8.1 4.5-.5 4.6-.3 0-.3 0-.3.6h3.1c0-.4 0-.6-.3-.6-.7-.2-.5.1-.5-5.3.9-1.1 3-1.5 3 .7v3.8c0 .7-.1.8-.5.8-.2 0-.2.2-.2.6h3v-.3c0-.6-.8.1-.8-1.1 0-4.3.1-4.9-.4-5.4-.9-.9-2.8-1.1-4.2.4-.7-1.2-2.6-1.7-4.4-.1v-.9h-2.2c0 .5 0 .6.2.6.7 0 .6.6.6.8 0 5.5.2 5.2-.5 5.3-.3 0-.3.1-.3.3v.3l3-.1zm14.7-1.1v-4.5c.6-.8 1.8-1.3 2.9-.5.3.3.3.6.3 1.4 0 4.6.1 4.1-.5 4.4-.4 0-.4.1-.4.6H75c0-.4 0-.6-.3-.6-.4-.1-.5-.2-.5-.8v-4c0-2.4-2.8-2.8-4.8-1.3v-.8h-2.2v.3c0 .2.1.3.3.3h.1c.4.1.5.2.5.8 0 5.5.2 5.2-.5 5.3-.3 0-.4.1-.4.3v.3h3.1c0-.8-.8.1-.8-1.2zm-3.4-8.1c0-1.3-1.9-1.1-1.9 0 0 .5 1.9 1.2 1.9 0zm.9 9.2v-.2c-.1-.1-.2-.1-.3-.1-.7-.2-.5 0-.5-6.8h-2.3v.3c.2.3.1.3.3.3.7.2.5-.1.5 5.3 0 .2.2.8-.6.8-.2 0-.2.1-.2.3v.3H67v-.2zm-24.5.3c0-.5 0-.6-.2-.6-.9 0-.7-.1-.7-5.3.7-.9 1.7-1.3 2.6-.7.6.5.5.5.5 5.1 0 .2.2.8-.6.8-.2 0-.2.1-.2.6H47c0-.4 0-.6-.3-.6-.7-.2-.5.1-.5-5.3.9-1.1 2.3-1.1 2.7-.5.4.4.3 1.1.3 5 0 1.4-.7.2-.7 1.4h3c0-.5 0-.6-.2-.6-.7 0-.6-.6-.6-.8 0-4.3.1-4.9-.4-5.4-.9-.9-2.8-1.1-4.2.4-.7-1.2-2.6-1.7-4.4-.1v-.9h-2.2c0 .5 0 .6.2.6.7 0 .6.6.6.8 0 5.5.2 5.3-.8 5.3-.2.1-.3.2-.4.2-.5 0-.7-.5-.7-1.5 0-1.3.1-3.3-.4-4.3-1-1.8-4.9-1.5-4.9.2 0 .9 1.5 1.1 1.7-.1 0-.5.2-.7.7-.7.4 0 .8.2 1.1.6.3.4.3.7.4 1.8-8.7.9-3.1 7.5.2 3.8.5 1.3 1.5 1.3 2.3.8h3zM37 56.4c0 1-.1 1.5-.2 1.9-.7 1.4-2.7 1.3-2.7-.4 0-1.2 1-2 3-2.2l-.1.7z"/>
		<path d="M75.5 59.9c6.1-1.5 6.3 2.6 2.8 2.6-1.9 0-1.7-.5-1.7-1.1 0-.4-.4-.7-.8-.7-1.5 0-1.4 2.4 2.4 2.4 4.7 0 5.2-4.6.1-4.6-.6 0-1.4.1-1.9.2l.6-1.3c2.7.7 4.4-.9 4.4-2.6 0-1.3-.9-1.6-.9-1.9 0-.3.3-.4.3-.2.1.2.3.2.5.2 1 0 .9-1.5-.2-1.5-.6 0-1 .4-1.2 1.1-1.5-1.2-4.7-.1-4.7 2.3 0 .9.4 1.7 1.3 2.2l-1.4 2.9h.4zm4.5-5.3c0 3-3.2 2.9-3.2.1-.2-2.9 3.2-3 3.2-.1zM60.3 72c-.2 0-.2.2-.2.6h3.1v-.3c0-.6-.8.1-.8-1.1 0-4.8.1-4.9-.5-5.5-.8-.8-2.6-1.1-4.3.2v-.8h-2.2c0 .4 0 .6.3.6.8 0 .6.3.6 5.3 0 .2.2.8-.6.8l-.1-.1c-2 1-.5-3.6-1.5-5.6-1-1.8-4.9-1.5-4.9.2 0 .9 1.5 1.1 1.7-.1 0-1 1.2-.9 1.8-.1.3.4.3.7.4 1.8-2.6.3-4.1 1-4.5 2.1v-.3c-.8 0-.8-.1-1 .4-.5 1.8-1.2 1.6-4.5 1.6 0-9.8-.2-9.2.5-9.4.4 0 .4-.1.4-.6h-3.3c0 .4 0 .6.3.6.9 0 .6 0 .6 9 0 .4-.1.7-.6.7-.3.2-.3.1-.3.6h7.8v-1.3c.5 1.7 3 2.4 4.7.5.5 1.3 1.5 1.3 2.3.8h3.1c0-.4 0-.6-.3-.6-.7-.2-.5.1-.5-5.3.6-.8 1.8-1.3 2.9-.5.4.4.3.4.3 5-.1.6 0 .8-.7.8zM53 68.9c0 .8 0 1.5-.2 2.3-.3.6-.9 1-1.5 1-1.5 0-2.2-3.2 1.8-3.6l-.1.3z"/>
		<path d="M77.5 72c-.7 0-.5.1-.5-6.8h-2.3c0 .5 0 .6.2.6.7 0 .6.6.6.8v4.6c-.8.6-1.2.8-1.7.8s-1-.2-1.3-.5c-.4-.6-.3-.5-.3-6.3h-1.8c0-.1.1-.2.1-.3 0-.9-1.6-1.3-2.1.3-4.5-1.9-6.4 3-3.6 4.5l-1.4 2.9c0 .1 0 .1.4.1 1.7-.4 5.1-.6 5.1 1.1 0 1.8-4 1.8-4 .9v-.5c0-.4-.4-.7-.9-.7-1.5 0-1.4 2.4 2.4 2.4 5.1 0 5.4-5.6-1.8-4.4l.6-1.3c2.7.7 4.4-.9 4.4-2.6 0-1.3-.9-1.6-.9-1.9 0-.3.3-.4.3-.2.1.2.4.2.6.2 0 .7.8-.2.8 1.1v3.9c0 2.5 3.1 3 4.9 1.4v.7h2.3v-.3c.2-.4.1-.5-.1-.5zm-11-2.2c-2.2 0-2.1-4.3.1-4.3s2 4.3-.1 4.3zm19.7 1.6.6-1.3c.4.2.9.2 1.3.2 2.6 0 4-2.8 2.5-4.3-.3-.3-.3-.3-.3-.4 0-.3.3-.4.3-.2.1.2.3.2.5.2 1 0 .9-1.5-.2-1.5-.6 0-1 .4-1.2 1.1-4.5-1.9-6.4 3-3.6 4.5L85 72.3v-.2l-.1-.2c-2.9 1.4 1.4-6.8-4.1-6.8-2.7 0-2.8 2.1-1.5 2.1.5 0 .8-.3.9-.8 0-1 1.2-.9 1.8-.1.3.4.3.7.4 1.8-8.7.9-3.1 7.5.2 3.8.6 1.6 2.3 1.1 2.5.5l-.2.3c0 .2.2.1.4 0 6.1-1.5 6.3 2.6 2.8 2.6-1.9 0-1.7-.5-1.7-1.1 0-.9-1.7-.9-1.7.1 0 .9 1.4 1.6 3.3 1.6 5.4 0 5-5.9-1.8-4.5zm3.5-3.9c0 3-3.2 2.9-3.2.1 0-3 3.2-2.9 3.2-.1zm-7.4 1.4c0 .8 0 1.5-.2 2.3-.7 1.4-2.7 1.3-2.7-.4 0-1.2 1-2 3-2.2-.1 0-.1.3-.1.3z"/>
		<path d="M92.9 68.7h5.3c0-5.2-7-4.6-7 .3 0 2.3 1.7 4 4 4 1.3 0 2.2-.5 3.1-1.6l-.5-.4c-2 2.3-4.9 1.1-4.9-2.3zm2-2.9c.2 0 1.7-.2 1.7 2.2H93c.1-1.4.8-2.2 1.9-2.2z"/>
	</g>
	<path fill="#e70000" d="m43.4 44.2-7.2-17.4c-.2 0-.1 0-1.8 1-.7.4-.4.6.4 2.6-5.5 13.5-5.7 14.9-7 15.1-.5.1-.6.3-.6.6v.5H32c0-.7.1-.9-.5-1-1.5-.4-1-1.3.2-4.3h7.5c1.4 3.4 1.9 3.9.4 4.3-.7.2-.6.3-.6 1h6.1v-.5c0-1.1-.8 0-1.7-1.9zm-4.8-4.3h-6.4l3.2-7.9 3.2 7.9zm40.7 4.3-8-8.8c5.4-5.1 6.4-6.1 7.8-6.8 1.2-.4 1-.2 1-1.1H74c0 .9-.1 1 .6 1.1 2.3.3.1 1.6-6 7.1 0-7.2-.3-7.3 1-7.3.6-.1.5-.3.5-1h-7.9c0 .4-.1.9.5 1.1 1.7.2 1.2.2-3.1 13.5-4.2-12.6-4.2-12.4-4.2-12.6 0-.5.1-.6 1-.8.6-.2.5-.5.5-1.1h-5.7c0 .6-.1.8.5 1 1 .1.8.2 1.8 3.4l-3.3 9.9c-4-12.1-4.7-12.9-3.3-13.3.9-.1.8-.2.8-1.1H42c0 .7-.1.8.3 1 1.3.4.7-.2 6.8 18.3h.9l4.2-12.6 4.2 12.6h1.1c5.5-17 5.6-17.7 6.1-18 .5.5.3 0 .3 15.5 0 .9-.1 1-.9 1.2h-.1c-.6.2-.5.5-.5 1h5.7c0-.7.1-.8-.5-.9h-.1c-1.2-.3-.9.3-.9-8.9l7 7.6c1 1.5-1.1 1-1.1 1.8v.5h6.9c0-1.8-.2-.2-2.1-2.3z"/>
</svg>