<svg xmlns="http://www.w3.org/2000/svg" xml:space="preserve" viewBox="0 0 100 100">
	<path fill="#0f2027" d="M0 0h100v100H0V0z"/>
	<path fill="#74bb11" d="M73.5 21.6c-.5-1-1.5-1.6-2.7-1.6h-4.7c-1.4 0-2.4.5-2.9 1.5l-6.9 10.1 6.1 8.3L73 24.7c1.1-1.3.7-2.6.5-3.1z"/>
	<path fill="#009cd9" d="M37 21.4C35.9 20 34.5 20 34 20h-4.6c-1.2 0-2.1.5-2.6 1.5s-.4 2.1.3 3.2L44 48.2 24.6 75.4c-.7 1-.8 2.2-.3 3.1.5.9 1.5 1.5 2.6 1.5h4.7c1.2 0 2.3-.6 2.8-1.6l21.8-30.1L37 21.4z"/>
	<path fill="#eb2084" d="M75.8 76.2 64.1 60l-5.2 7.2 9.3 12.5.2.1c.4.2.8.3 1.2.3h4c1 0 1.8-.4 2.2-1.2.5-.8.5-1.8 0-2.7z"/>
</svg>