<svg xmlns="http://www.w3.org/2000/svg" viewBox="0 0 100 100">
	<path d="m78.4 35.1 8.5-7.5c2.4-3.2 3.6-9.5 3.3-13.1-.3-3.8-3.1-6.9-8.3-9.3-3.1-2-8.6-3.2-16.6-3.3-6.6.6-15.3 2.9-25.9 7-2.9 2.1-6.2 4.2-10 6.3l.1.7c.3 0 .6-.2 1-.4.4 0 .7.2.7.5l.7-.4h.3v.3c0 .3-2.3 2.1-7 5.4l.4.6h-.3l-.7-.3c0 .2-.3.3-1 .4v.3l.8.9c-.3 0-.6-.1-1-.2-1.5.1-3 1.2-4.5 3.3l.4.6c1.3-1.2 2-1.8 2.2-1.8l.1 1c-.2 0-.5.2-1 .4l.8 1.2c1.5-1.6 3.2-3.1 5.1-4.3.9.2 1.4.5 1.4.8l.7-.1c5-3.7 10-6.4 14.9-8.1l.1.7c-.9 1.4-1.5 2.1-1.9 2.1 0 .5.2.9.5 1.2.2 1.5-20 49.9-32.7 70.7 0 .2.2.5.4.9 1.7-.4 2.8-.8 3.3-1.2h.4l.1.7.6-.1.7-.4c0 .2.2.3.7.3.4 3.1-1.3 2.5-3.3 8.7v.3l.6-.1c2.8-3.1 4.9-6.2 6.4-9.2 8.2-2.4 14.4-4.7 18.7-7.1 4.3-.4 7.6-1.5 9.9-3.4v-.4l-1.6.5H46v-.4c8.6-1.3 6-3.2 20.7-12.4 6.5-4.8 15.1-12.8 13.9-20.8-.6-4-2.3-3.4-6.5-8.1-.2-.4 1.3-1.8 4.3-3.4zM22.8 24.4h-.3l-.1-.6 1.3-.1v.3c-.1 0-.5.1-.9.4zM16.3 90c-.8-.4-1.5-.5-2.1-.4-.1-1.1-.3-1.5.5-1.7.4 0 .7.3.7.9 1.1-1.4 1.8-2.1 1.9-2.1l.7.3c-.2 1.9-.8 2.9-1.7 3zm62.6-41.2.1.3-.8.2-.1-.3.8-.2zm-.1-1.4-.3.1h-.2l-.5.4-.1-1.3c.6.2 1 .5 1.1.8zm7.5-30.7c-.3 0-1-1-1.9-3l-.1-.7c.6-.1 1.7 1.3 2 3.7zm-.9-7.3-.3.6-9.5-4c6.4.3 9.6 1.4 9.8 3.4zM45.2 43.9l-1.3.1-.1-.6 1.3-.1.1.6zm-1.1-20.7h.3l.1 1c-.3 0-.7.5-1.2 1.4l-.1-.7c.7-.8 1-1.3.9-1.7zm-2.8 6.7.1 1.3h-.3l-.1-1.3h.3zm-1.5 2.3.6-.1c-.2 1.9-.9 1.7-1.2 1.7.5-.7.7-1.2.6-1.6zm-1.1 3.3h.4v.3l-.6 1-.6.1v-.3c.6-.1.9-.4.8-1.1zm-1.1 3-.2 1.6h-.3l-.1-1.5.6-.1zM26.7 69.6c-.4 2.2-.9 3.3-1.4 3.3 0-1.1 0-2 1.4-3.3zm-2 4.3v.3c0 .4-.2.7-.6.7v-.3c0-.4.2-.6.6-.7zm.4 8.9v.4c-.3 0-.6.2-1 .4l-.6.1c0-.9.7-.8 1.6-.9zM52.9 74c-5.7 2.8-9 4.7-10 5.7-6.1 2.1-9.2 3.5-9.1 4-5.5 2.2-9.1 3.8-10.8 4.7-.4 0-1-.1-1.8-.5-.1-1.1.4-2 1.5-2.7.9-.1 1.9.1 2.7.4 1-.5 2.8-1.1 5.3-1.7l-.1-.7-2 .2c.3-.4 2.2-1.3 5.9-2.7l1-.1v.3c-3.5.4-3.3 2.4-2.2 2.1 1.3-.8 1.9-1.3 1.9-1.4 2.5-.5 9.3-4 20.5-10.7.1.7.6.7-2.8 3.1zm-17.1 5.7c1.6-.1 3-.8 4.2-1.9.5 0 .7.1.7.5-.8.1-2.3.7-4.6 2h-.3v-.6zm27.7-21.3-8.6 6.8c-6.4 4.2-9.8 6.3-10.3 6.3-3.4 1.9-15.7 8.7-19.3 8.7.3-1.1 4.8-10.4 13.6-27.8 3.9-.3 9.9-2.1 18.2-5.4 4-.4 8.3-.8 11.4 2.2l.1 1.3c-1.6 4.5-3.3 7.1-5.1 7.9zM46.7 49l1.4-.1v.3l-1.4.1V49zm19.4-3.3 1-.1c1.1.5 1.5.9 1.5 1.5-.9 0-1.8-.4-2.5-1.4zm7.1-4.5c-.6-.4-1-.6-1.4-.5l-.1-1 .6-.1 1.4.8c.1.6-.1.8-.5.8zM71 27.6c-1.2 1.6-1.9 2.4-2.2 2.4-.9 1.1-3.3 2.9-7.4 5.5-1.3.1-6.2 2-14.8 5.8-.4-.2-.9-.3-1.4-.2-.3-1.9.4-3.5 1.6-5.2.7-3.5 1.4-5.5 2.2-6l7.1-16c-.2-1.6 4-2.2 5.6-2.4l.1.9c4.9-.8 14.1-2.4 14.5 2.6l.6-.1-.1-1.6.7-.1c1.7.9 2.5 2 2.7 3.3.1.9-.4 2-1.4 3.3-.4 0-.7-.3-.7-.9l-.7.1-.2 2c-2.8 4.3-4.9 6.5-6.2 6.6z"/>
	<path fill="#f9dc3e" d="m77.9 33.2 8.5-7.5c2.4-3.2 3.6-9.5 3.3-13.1-.3-3.8-3.1-6.9-8.3-9.3-3-2-8.6-3.1-16.5-3.3C58.2.6 49.6 2.9 39 7c-2.9 2.1-6.2 4.2-10 6.3v.7c.3 0 .6-.2 1-.4.4 0 .7.2.7.5l.7-.4h.3v.3c0 .3-2.3 2.1-7 5.4l.4.6h-.3l-.7-.3c0 .2-.3.3-1 .4v.3l.8.9c-.3 0-.6-.1-1.1-.2-1.5.1-3 1.2-4.5 3.3l.4.6c1.3-1.2 2-1.8 2.2-1.8l.1 1c-.2 0-.5.2-1 .4l.8 1.2c1.5-1.6 3.2-3.1 5.1-4.3.9.2 1.4.5 1.4.8l.7-.1c5-3.7 10-6.4 14.9-8.1l.1.9c-.9 1.4-1.5 2.1-1.9 2.1 0 .5.2.9.5 1.2.2 1.5-19.5 49-32.6 70.7 0 .2.2.5.4.9 1.7-.4 2.8-.8 3.3-1.2h.4l.1.7.6-.1.7-.4c0 .2.2.3.7.3.4 3.1-1.3 2.5-3.3 8.7v.3l.6-.1c2.8-3.1 4.9-6.2 6.4-9.2 8.2-2.4 14.4-4.7 18.7-7.1 4.3-.4 7.6-1.5 9.9-3.4V78l-1.6.5h-.4v-.3c8.6-1.3 6-3.2 20.7-12.4C72.7 61 81.3 53 80.1 45c-.6-4-2.3-3.4-6.5-8.1-.2-.7 1.3-2 4.3-3.7zM22.3 22.5H22v-.6l1.3-.1v.3c-.2 0-.5.2-1 .4zm-6.5 65.6c-.8-.3-1.5-.5-2.1-.4-.1-1.1-.3-1.5.5-1.7.4 0 .7.3.7.9 1.1-1.4 1.8-2.1 1.9-2.1l.7.3c-.2 2-.8 2.9-1.7 3zm62.6-41.2.1.3-.8.2-.1-.3.8-.2zm-.1-1.4-.3.1h-.2l-.5.4-.1-1.3c.7.3 1 .5 1.1.8zm7.6-30.7c-.5 0-1.8-2.5-2-3.6.5-.1 1.6 1.2 2 3.6zm-1-7.2-.3.6-9.5-4c6.4.2 9.7 1.3 9.8 3.4zM44.8 42.1l-1.3.1-.1-.6 1.3-.1.1.6zm-1.1-20.8h.3l.1 1c-.3 0-.7.5-1.2 1.4l-.1-.7c.6-.7.9-1.3.9-1.7zM40.8 28l.1 1.3h-.3l-.1-1.3h.3zm-1.4 2.4.6-.1c-.2 1.9-.9 1.7-1.2 1.7.4-.7.6-1.3.6-1.6zm-1.1 3.3h.4v.3l-.7 1h-.6v-.3c.6-.1.9-.4.9-1zm-1.1 2.9-.2 1.6h-.3l-.1-1.6h.6zm-11 31.1c-.4 2.2-.9 3.3-1.4 3.3 0-1.1 0-2 1.4-3.3zm-2 4.3v.3c0 .4-.2.7-.6.7v-.3c0-.3.2-.6.6-.7zm-.5 9 1-.1v.3c-.3 0-.6.2-1 .4l-.6.1c-.1-.3.1-.5.6-.7zm28.8-8.9c-5.7 2.8-9 4.7-10 5.7-6.2 2.1-9.2 3.5-9.1 4-5.5 2.2-9.1 3.8-10.8 4.7-.4 0-1-.1-1.8-.5-.1-1.1.4-2 1.5-2.7.9-.1 1.9.1 2.7.4 1-.5 2.8-1.1 5.3-1.7l-.1-.7-2 .2c.3-.4 2.2-1.3 5.9-2.7l1-.1v.3c-3.5.4-3.3 2.4-2.2 2.1 1.3-.8 1.9-1.3 1.9-1.4 2.5-.5 9.3-4 20.5-10.7l.1.6c-.1.3-1 1.1-2.9 2.5zm-17.2 5.7c1.6-.1 3-.8 4.2-1.9.5 0 .7.1.7.5-.8.1-2.3.7-4.6 2h-.3v-.6zM63 56.5l-8.6 6.8c-6.4 4.2-9.8 6.3-10.3 6.3-3.4 1.9-15.7 8.7-19.3 8.7.3-1.1 4.8-10.4 13.6-27.8 3.9-.3 9.9-2.1 18.2-5.4 4-.4 8.3-.8 11.4 2.2l.1 1.3c-1.6 4.5-3.3 7.2-5.1 7.9zm-16.8-9.4 1.4-.1v.3l-1.4.1v-.3zm19.4-3.3 1-.1c1.1.5 1.5.9 1.5 1.5-.9.1-1.7-.4-2.5-1.4zm7.1-4.4c-.6-.4-1.1-.6-1.4-.5l-.1-1 .6-.1 1.4.8c.2.5 0 .7-.5.8zm-2.2-13.7c-1.2 1.6-1.9 2.4-2.2 2.4-.9 1.1-3.3 2.9-7.4 5.5-1.3.1-6.2 2-14.8 5.8-.4-.2-.9-.3-1.4-.2-.3-1.9.4-3.5 1.6-5.2.7-3.5 1.4-5.5 2.2-6l7.1-16c-.2-1.6 4-2.2 5.6-2.4l.1.9c4.9-.8 14.1-2.4 14.5 2.6l.6-.1-.1-1.6.7-.1c1.7.9 2.5 2 2.7 3.3.1.9-.4 2-1.4 3.3-.4 0-.7-.3-.7-.9l-.7.1-.2 1.9c-2.8 4.4-4.9 6.6-6.2 6.7z"/>
</svg>