<svg xmlns="http://www.w3.org/2000/svg" viewBox="0 0 100 100">
	<path fill="#BB464B" d="M93.585 24.988v49.999L50.305 100 7 74.987v-50L50.305 0l43.28 24.988Z"/>
	<path fill="#E0684B" d="m20.041 32.528 43.28-25.012L50.305 0 7 24.988l13.041 7.54Zm73.544-7.54-13.54-7.816-13.04 7.517 13.564 7.839 13.016-7.54Zm-43.28 40.64-13.564-7.813 13.564-7.816 13.54 7.816-13.54 7.814Z"/>
	<path fill="#E0DED8" d="M80.569 32.528 63.844 42.16v15.654L50.305 65.63v19.313L80.57 67.471V32.528Z"/>
	<path fill="#D5D2CA" d="m20.041 32.528 16.7 9.632v15.654l13.564 7.815v19.313L20.04 67.471V32.528Z"/>
	<path fill="#fff" d="m63.321 7.516 16.725 9.657-13.041 7.516 13.564 7.84-16.725 9.631-13.54-7.815-13.563 7.815-16.7-9.632 43.28-25.012Z"/>
</svg>