<svg xmlns="http://www.w3.org/2000/svg" viewBox="0 0 100 100">
	<path fill="#fff" d="M94.163 49.99c0 24.571-19.918 45.84-44.489 45.84-35.9 0-44.49-12.834-44.49-45.84 0-24.57 14.67-44.489 44.49-44.489 24.57 0 44.49 19.919 44.49 44.49Z"/>
	<path fill="#3E3E3E" d="M54.574.168c-1.774.38-3.76 1.369-4.111 2.05-.123.236-.117.279.052.437.103.096.472.326.82.51.348.185.632.369.633.409 0 .04-.335.072-.746.072-1.605 0-9.43.579-13.102.969-7.532.8-12.138 1.682-14.609 2.794-3.741 1.685-7.165 4.682-10.218 8.944C4.753 28.275.366 48.361 2.56 65.486c1.037 8.09 3.558 15.072 7.22 19.997 5.693 7.654 14.883 12.58 26.265 14.081 2.678.354 4.051.436 7.238.436 4.461 0 7.746-.318 11.953-1.157 14.332-2.857 26.683-10.412 33.956-20.772 2.655-3.78 4.569-7.828 5.864-12.4 1.567-5.527 2.222-10.06 2.222-15.364 0-11.735-4.114-22.676-11.836-31.476-2.022-2.304-5.35-5.316-7.73-6.995-.544-.384-1.358-1-1.808-1.369-.923-.757-2.596-1.895-3.959-2.695-1.04-.61-4.87-2.523-6.32-3.156-2.685-1.171-6.336-2.954-7.906-3.86-1.448-.836-1.735-.89-3.145-.588Zm-4.156 9.21c2.978.614 5.084 1.5 10.912 4.596l2.268 1.204h.868c.963-.002 1.713-.193 3.129-.799l.812-.347.876.466c5.007 2.66 7.444 4.163 9.08 5.605 5.4 4.757 9.085 10.894 10.845 18.06.775 3.157 1.078 5.68 1.121 9.345.028 2.345.003 3.013-.184 5.018-.437 4.667-1.817 10.049-3.733 14.557-3.718 8.75-9.697 16.045-16.783 20.477-4.708 2.945-9.707 4.526-16.792 5.31-1.909.21-7.196.296-9.313.15-8.075-.56-15.14-2.507-20.845-5.747-4.88-2.77-8.187-6.22-10.282-10.724-2.114-4.543-3.307-9.428-3.97-16.254-.172-1.763-.173-9.588-.003-11.436.588-6.35 1.629-11.503 3.335-16.503 2.742-8.037 6.787-13.918 11.806-17.165 1.913-1.237 6.032-2.898 10.116-4.08 5.068-1.466 9.199-2.081 13.51-2.013 1.714.028 2.212.07 3.227.28Zm-18.98 27.127c-.918.167-1.456.44-1.985 1.005-.805.86-1.14 1.829-1.14 3.29 0 1.561.467 2.767 1.423 3.67.982.93 2.258 1.292 3.776 1.073 1.041-.15 1.711-.464 2.27-1.063.534-.57.798-1.07.986-1.867.548-2.325-.512-4.894-2.382-5.769-1.027-.48-1.723-.56-2.947-.339Zm32.304.502c-.99.166-2.306.854-2.84 1.485-1.342 1.588-1.137 4.615.434 6.395.766.87 1.566 1.232 2.71 1.231 2.979-.003 5.31-2.989 4.566-5.846-.304-1.168-1.28-2.396-2.3-2.895-.722-.353-1.768-.504-2.57-.37ZM22.1 53.052c-.602.246-.723.87-.538 2.769.416 4.262 2.269 7.986 5.501 11.06 4.303 4.09 10.325 6.716 17.706 7.72 2.129.29 7.124.313 9.13.043 5.453-.736 9.635-2.311 13.124-4.945 2.447-1.847 4.145-3.9 5.408-6.54.904-1.89 1.53-4.044 1.697-5.834.06-.643.053-.67-.205-.873-.353-.278-.739-.266-1.096.035-.16.135-.717.795-1.238 1.468-1.073 1.387-2.963 3.334-4.18 4.307-3.875 3.098-8.192 4.941-13.51 5.769-1.226.19-1.777.218-4.44.221-2.424.004-3.303-.03-4.342-.171-4.162-.564-7.48-1.553-11.05-3.292-4.108-2.002-7.189-4.57-8.923-7.437-.54-.894-.847-1.596-1.258-2.879-.363-1.133-.673-1.515-1.222-1.506-.204.003-.458.041-.564.085Z"/>
</svg>