<svg xmlns="http://www.w3.org/2000/svg" viewBox="0 0 100 100">
	<path fill="#2684ff" d="M90.5 56.8H69.7c-.7 0-1.3.2-1.8.6-.5.4-.8 1-.9 1.7-.6 4.1-2.6 7.8-5.7 10.5s-7.1 4.2-11.2 4.2l5.6 25.7c9.9-1.3 19-6 25.9-13.2 6.8-7.3 11-16.7 11.7-26.6 0-.4 0-.7-.1-1.1-.1-.4-.3-.7-.6-.9-.3-.3-.6-.5-.9-.6s-.8-.3-1.2-.3zM54.5 56.2l29.9-25.7c.3-.3.5-.6.7-.9.2-.4.2-.7.2-1.1 0-.4-.1-.8-.2-1.1-.2-.4-.4-.7-.7-.9L54.5.6c-.4-.3-.9-.5-1.4-.6-.5-.1-1 0-1.5.2s-.9.6-1.1 1c-.3.5-.5 1-.5 1.5v51.4c0 .5.2 1 .4 1.5.3.4.7.8 1.1 1 .5.2 1 .3 1.5.2.6-.1 1.1-.3 1.5-.6z"/>
	<linearGradient id="a" x1="28.6148" x2="28.6148" y1="87.0138" y2="28.0972" gradientTransform="matrix(1 0 0 -1 0 101.433)" gradientUnits="userSpaceOnUse">
		<stop offset="0" stop-color="#0052cc"/>
		<stop offset="1" stop-color="#2684ff"/>
	</linearGradient>
	<path fill="url(#a)" d="M7.2 62.5c1.4 10.4 6.5 19.9 14.4 26.8 7.9 6.9 18 10.7 28.5 10.7V73.9c-4.5 0-8.9-1.8-12.1-5-3.2-3.2-5-7.5-5-12L7.2 62.5z"/>
	<linearGradient id="b" x1="28.4111" x2="28.4111" y1="87.0211" y2="28.1045" gradientTransform="matrix(1 0 0 -1 0 101.433)" gradientUnits="userSpaceOnUse">
		<stop offset="0" stop-color="#0052cc"/>
		<stop offset="1" stop-color="#2684ff"/>
	</linearGradient>
	<path fill="url(#b)" d="M6.8 56.4v.4H33c0-4.5 1.8-8.9 5-12 3.2-3.2 7.5-5 12.1-5l-5.6-25.7c-10.3 1.3-19.8 6.4-26.7 14.1-7 7.8-10.9 17.8-11 28.2"/>
</svg>