<svg xmlns="http://www.w3.org/2000/svg" viewBox="0 0 100 100">
	<path fill="#FEFEFE" d="M87.41 20.418 55.84 1.678a11.894 11.894 0 0 0-12.181 0l-31.57 18.74C8.322 22.655 6 26.788 6 31.26v37.48c0 4.473 2.322 8.608 6.09 10.845l31.57 18.737A11.905 11.905 0 0 0 49.75 100c2.103 0 4.204-.558 6.089-1.677l31.57-18.737c3.768-2.237 6.09-6.372 6.09-10.844v-37.48c0-4.474-2.322-8.607-6.09-10.844Z"/>
	<path fill="#3E474A" d="m44.764 96.404-31.57-18.737c-3.089-1.833-5.007-5.253-5.007-8.926V31.26c0-3.673 1.918-7.092 5.005-8.925l31.572-18.74a9.776 9.776 0 0 1 4.986-1.374c1.747 0 3.471.476 4.986 1.374l31.57 18.74c2.602 1.545 4.357 4.22 4.85 7.219-1.046-2.235-3.408-2.842-6.16-1.235L55.13 46.768c-3.724 2.178-6.47 4.62-6.473 9.11v36.803c-.002 2.689 1.084 4.43 2.752 4.936-.548.094-1.1.16-1.66.16a9.776 9.776 0 0 1-4.986-1.373ZM87.41 20.417 55.84 1.677A11.913 11.913 0 0 0 49.75 0c-2.104 0-4.207.559-6.091 1.678l-31.57 18.739C8.322 22.654 6 26.787 6 31.262V68.74c0 4.472 2.322 8.607 6.09 10.844l31.57 18.738A11.921 11.921 0 0 0 49.75 100c2.103 0 4.204-.559 6.089-1.677l31.57-18.738c3.769-2.237 6.09-6.372 6.09-10.844V31.26c0-4.473-2.321-8.607-6.09-10.844Z"/>
	<path fill="#47B353" d="m79.134 72.365-7.861 4.705c-.209.121-.362.258-.363.508v2.057c0 .252.169.356.377.234l7.983-4.852c.208-.12.24-.353.241-.604V72.6c0-.25-.169-.355-.377-.234Z"/>
	<path fill="#FEFEFE" d="M62.394 55.05c.255-.13.464.03.468.363l.026 2.72c1.139-.454 2.128-.575 3.024-.368.194.052.28.316.2.63l-.598 2.41a1.032 1.032 0 0 1-.272.481.638.638 0 0 1-.158.117.357.357 0 0 1-.236.039c-.409-.093-1.381-.306-2.911.47-1.606.812-2.167 2.206-2.156 3.242.014 1.235.647 1.61 2.837 1.648 2.917.048 4.177 1.323 4.208 4.26.03 2.886-1.51 5.984-3.866 7.882l.051 2.692c.004.324-.207.696-.462.825l-1.594.918c-.255.129-.465-.03-.468-.354l-.028-2.648c-1.366.568-2.75.705-3.633.35-.167-.066-.238-.311-.172-.591l.577-2.435a1.01 1.01 0 0 1 .286-.506.6.6 0 0 1 .15-.109.318.318 0 0 1 .257-.027c.952.32 2.17.17 3.342-.422 1.489-.754 2.484-2.272 2.469-3.78-.015-1.368-.756-1.937-2.557-1.95-2.293.007-4.43-.445-4.466-3.82-.029-2.78 1.417-5.672 3.704-7.5l-.028-2.718c-.004-.334.2-.701.463-.834l1.543-.985Z"/>
</svg>