<svg xmlns="http://www.w3.org/2000/svg" viewBox="0 0 100 100">
	<path fill="#7253ED" d="M82.248 44.766c-.424 4.03-1.273 8.06-2.757 12.515-7.212 22.06-33.726 47.512-58.33 39.452C7.796 92.491 1.22 72.765 9.07 52.614 3.98 49.22.586 44.342.16 37.978c-4.454-44.755 84.845-54.724 82.511 2.97 6.364-4.242 12.303-8.909 15.06-14.636.849-1.697 3.394-1.484 1.697 1.273-4.03 6.363-9.757 12.515-17.18 17.181ZM6.737 38.615c.424 3.606 2.12 6.575 4.666 8.908 6.364-13.575 27.15-40.937 44.544-30.968 1.696.849.636 2.121-.849 1.697-14.636-4.454-32.877 22.484-37.756 33.302 13.788 6.787 39.453 2.97 58.33-7.212C81.189-17.17.587-2.958 6.738 38.615Zm8.696 16.969c-5.515 14.635-5.303 31.604 6.151 37.12 20.363 9.968 43.271-13.364 51.331-36.06.849-2.757 1.697-5.515 2.121-8.272-19.302 10.181-44.119 13.363-59.603 7.212Z"/>
</svg>