<svg xmlns="http://www.w3.org/2000/svg" viewBox="0 0 100 100">
	<path fill="#f7931a" d="M98.5 62C91.9 88.8 64.8 105.2 38 98.5 11.2 91.9-5.2 64.8 1.5 38 8.1 11.2 35.2-5.2 62 1.5h.1C88.9 8.2 105.2 35.3 98.5 62z"/>
	<path fill="#fff" d="m61.2 30.2 2.2-9-5.5-1.4-2.2 8.8c-1.4-.4-2.9-.7-4.4-1l2.2-8.9-5.5-1.4-2.2 9-3.5-.8-7.6-1.9-1.5 5.9s4.1.9 4 1c1.6.2 2.7 1.6 2.6 3.1l-2.6 10.3c.2 0 .4.1.6.2l-.6-.2-3.6 14.4c-.3 1.1-1.5 1.6-2.5 1.3 0 .1-4-1-4-1l-2.7 6.2 7.1 1.8 3.9 1-2.3 9.1 5.5 1.4 2.2-9c1.5.4 2.9.8 4.4 1.1l-2.2 9 5.5 1.4 2.3-9.1c9.4 1.8 16.4 1.1 19.4-7.4 2.4-6.8-.1-10.7-5-13.3 3.6-.8 6.2-3.1 7-8.1.9-6.5-4.1-10.1-11-12.5zm-1.6 30.2c-1.7 6.8-13.2 3.1-16.9 2.2l3-12.1c3.8 1 15.7 2.8 13.9 9.9zm1.7-17.7c-1.6 6.2-11.1 3-14.2 2.3l2.7-10.9c3.1.7 13.1 2.2 11.5 8.6z"/>
</svg>