<svg xmlns="http://www.w3.org/2000/svg" viewBox="0 0 100 100">
	<path fill="#0E548B" d="M52.13 54.674c.187-3.335 1.82-6.274 4.284-8.357 2.417-2.046 5.67-3.296 9.218-3.296 3.545 0 6.798 1.25 9.216 3.296 2.462 2.083 4.095 5.022 4.284 8.354.187 3.427-1.19 6.61-3.607 8.97-2.464 2.401-5.969 3.907-9.893 3.907-3.925 0-7.436-1.506-9.899-3.907-2.418-2.36-3.792-5.543-3.603-8.967Z"/>
	<path fill="#F4792B" d="M30.63 61.414c.022 1.305.438 3.841 1.063 5.822 1.312 4.193 3.538 8.071 6.635 11.49 3.179 3.513 7.092 6.335 11.613 8.339 4.752 2.104 9.9 3.176 15.248 3.168 5.34-.008 10.488-1.101 15.24-3.221 4.52-2.023 8.43-4.858 11.604-8.373 3.095-3.432 5.317-7.318 6.633-11.51a29.103 29.103 0 0 0 1.247-6.426 29.284 29.284 0 0 0-.206-6.382 29.666 29.666 0 0 0-4.231-11.579c-2.02-3.258-4.623-6.11-7.719-8.51l.007-.006L56.525 10.24c-.028-.02-.05-.044-.08-.063-2.05-1.573-5.497-1.568-7.75.009-2.28 1.594-2.54 4.231-.512 5.894l-.01.01 13.03 10.594-39.712.043h-.053c-3.282.003-6.438 2.157-7.062 4.878-.642 2.773 1.587 5.073 5 5.085l-.005.013 20.128-.039-35.918 27.57c-.046.034-.095.069-.137.102-3.389 2.595-4.484 6.91-2.35 9.64 2.166 2.776 6.772 2.781 10.195.016l19.603-16.044s-.286 2.166-.263 3.466Zm50.372 7.252c-4.04 4.115-9.694 6.449-15.813 6.461-6.127.01-11.782-2.301-15.821-6.41-1.974-2.001-3.424-4.305-4.318-6.758a17.553 17.553 0 0 1-.991-7.553 17.834 17.834 0 0 1 2.164-7.11c1.178-2.141 2.801-4.076 4.805-5.713 3.926-3.2 8.925-4.931 14.152-4.938 5.234-.008 10.229 1.709 14.158 4.898 2 1.63 3.622 3.557 4.8 5.695a17.84 17.84 0 0 1 2.173 7.106 17.592 17.592 0 0 1-.995 7.548c-.896 2.46-2.34 4.764-4.314 6.774Z"/>
</svg>