<svg xmlns="http://www.w3.org/2000/svg" viewBox="0 0 100 100">
	<path fill="#543729" d="M98.089 48.94c-5.144-4.943-30.863-8.028-38.978-8.926a23.82 23.82 0 0 0 1.004-2.878c1.106-.484 2.3-.935 3.535-1.311.15.444.86 2.144 1.263 2.951 16.319.45 17.157-12.127 17.82-15.572.65-3.37.616-6.625 6.214-12.576-8.34-2.43-20.332 3.767-24.349 12.99a25.055 25.055 0 0 0-4.518-1.242C59.008 18.05 53.424 6 38.77 6 20.22 6 0 21.305 0 47.213 0 68.99 14.869 88.077 23.27 88.077c3.668 0 6.824-2.748 7.565-5.21.621 1.688 2.527 6.938 3.153 8.274.925 1.976 5.203 3.686 7.076 1.635 2.407 1.338 6.824 2.143 9.232-1.423 4.636.98 8.736-1.785 8.825-5.084 2.275-.121 3.391-3.316 2.894-5.86-.366-1.873-4.278-8.593-5.804-10.913 3.02 2.457 10.672 3.153 11.602.001 4.87 3.823 12.46 1.817 13.062-1.292 5.918 1.537 12.706-1.84 11.591-5.93 9.507-.657 8.29-10.773 5.623-13.336Z"/>
	<path fill="#00ACEE" d="M71.618 27.366c2.047-4.062 4.62-8.498 7.87-11.243-3.577 1.442-7.109 5.751-9.197 10.357a32.19 32.19 0 0 0-3.234-1.807c2.913-6.218 9.681-11.41 17.14-11.816-4.996 4.531-3.222 13.95-7.33 18.935-1.176-1.18-3.875-3.46-5.25-4.426Zm-3.23 6.616c.002-.155.06-1.355.17-1.902-.287-.068-2.068-.416-2.996-.394-.068 1.166.49 3.15 1.041 4.344 3.795-.08 6.537-1.217 8.15-2.261-1.373-.64-3.717-1.21-5.5-1.55-.199.41-.688 1.46-.865 1.763Z"/>
	<path fill="#2BAF2B" d="M54.285 66.124c0 .005.003.012.004.018-.482-1.035-.992-2.293-1.602-3.936 2.375 3.458 9.82 1.674 9.43-1.425 3.645 2.743 11.146-.456 9.44-4.301 3.651 1.7 7.818-1.722 6.884-3.213 6.223 1.2 12.188 2.397 14.06 2.876-1.244 2.028-4.076 3.46-8.346 2.465 2.307 3.143-2.173 6.914-8.412 4.837 1.373 3.085-4.182 5.863-10.497 2.647.08 3.087-7.833 3.442-10.961.032ZM66.63 50.52c7.224.554 19.17 1.632 26.564 2.667-.467-2.407-1.743-3.095-5.758-4.173-4.317.46-15.272 1.536-20.806 1.506Z"/>
	<path fill="#FFCC2F" d="M62.117 60.782c3.645 2.742 11.146-.457 9.44-4.302 3.651 1.7 7.818-1.722 6.884-3.213-7.359-1.419-15.08-2.843-16.831-3.092 1.062.057 2.823.177 5.021.346 5.535.03 16.489-1.045 20.806-1.506-6.99-1.773-21.264-4.36-31.122-4.997a14.16 14.16 0 0 1-2.76 3.003c-4.312 9.126-12.126 15.191-20.772 15.191-2.52 0-5.339-.425-8.498-1.435-1.971 2.111-10.372 3.71-17.19.365 5.408 12.661 17.948 21.113 31.828 21.113 11.69 0 16.874-11.938 15.74-15.096-.276-.767-1.366-3.31-1.977-4.953 2.376 3.458 9.822 1.674 9.431-1.424Z"/>
	<path fill="#CECECE" d="M55.033 36.757c1.032-.562 4.599-2.724 7.998-3.536a15.094 15.094 0 0 1-.12-1.138c-2.23.534-6.433 2.336-8.842-.147 5.082 1.533 7.62-1.367 11.356-1.367 2.226 0 5.402.622 7.906 1.605-2.014-1.86-8.618-7.475-16.795-7.495-1.825 2.213-3.799 7.008-1.503 12.078Z"/>
	<path fill="#EF5734" d="M24.285 60.777c3.16 1.01 5.979 1.435 8.498 1.435 8.646 0 16.46-6.066 20.773-15.19-3.19 2.662-8.734 4.94-17.392 4.94 7.712-1.748 14.351-5.591 17.728-11.209-2.374-3.778-4.949-12.137 1.572-18.745-1.003-3.222-5.885-11.728-16.692-11.728C19.91 10.28 4.28 26.062 4.28 47.213c0 5.006 1.01 9.702 2.816 13.929 6.817 3.346 15.218 1.746 17.189-.365Z"/>
	<path fill="#FFCC2F" d="M29.943 28.573a8.711 8.711 0 1 0 17.423 0 8.711 8.711 0 0 0-17.423 0Z"/>
	<path fill="#543729" d="M33.439 28.573a5.216 5.216 0 1 0 10.431 0 5.216 5.216 0 0 0-10.431 0Z"/>
	<path fill="#fff" d="M38.654 28.148c1.679 0 3.04-.846 3.04-1.89 0-1.043-1.361-1.889-3.04-1.889-1.678 0-3.039.846-3.039 1.89 0 1.043 1.36 1.89 3.04 1.89Z"/>
</svg>