<svg xmlns="http://www.w3.org/2000/svg" viewBox="0 0 100 100">
	<path fill="#f4b960" d="M59.9 1.2c17.8 4 30.4 19.9 30.4 38.1 0 1.4-.1 2.8-.3 4.2V45c0 24.9-20.2 45.1-45.1 45.1C21.8 90.1 2.4 72.5.1 49.5v.6C.1 77.7 22.4 100 50 100s50-22.3 50-49.9c0-23.8-16.8-44.2-40.1-48.9z"/>
	<path fill="#e66f32" d="M45.1 0C20.2 0 0 20.2 0 45.1s20.2 45.1 45.1 45.1S90.2 70 90.2 45.1v-1.5.3C89.3 62.3 74.5 77.2 56 78.1c-1.4.2-2.8.3-4.2.3h-.4c-21.6 0-39.1-17.5-39.1-39.1C12.2 18.2 29 .9 50 .3 48.4.1 46.7 0 45.1 0z"/>
	<path fill="#e43c41" d="M51.3.2C29.7.2 12.2 17.7 12.2 39.3s17.5 39.1 39.1 39.1h.2c-18.3-.1-33.1-15-33.1-33.3 0-.5 0-.9.1-1.4 0-.5 0-.9-.1-1.4 0-1.5.1-3 .3-4.4.3-5.2 2-10.1 5-14.4C34.1 6.6 56.2 1.4 73.1 11.8c10.6 6.5 17.1 18.1 17.1 30.5 0 .5 0 1.1-.1 1.6.2-1.5.3-3.1.3-4.6C90.3 17.7 72.8.2 51.3.2z"/>
	<path fill="#bdd041" d="M54.3 6.4c-12.4 0-23.9 6.4-30.4 16.9 5.2-7.3 13.6-11.6 22.6-11.6h1.1c1.1-.2 2.2-.2 3.3-.3 1.6 0 3.1.2 4.6.5C72.3 13.8 85 28.1 85.1 45.1 85 61.8 72.6 76 56 78.1c19.1-.9 34.1-16.7 34.1-35.8 0-19.8-16-35.9-35.8-35.9z"/>
	<path fill="#6db54c" d="M55.2 11.9c11.1 2.1 19.1 11.8 19.1 23 0 .6 0 1.1-.1 1.7 0 .5.1 1 .1 1.5v.6c.4 15.4-11.7 28.1-27.1 28.5h-.7c-14.9 0-27.1-11.7-27.8-26.6-.2 1.4-.3 2.8-.3 4.3.1 18.4 15.1 33.3 33.5 33.2 18.3 0 33.1-14.8 33.2-33 0-17.1-12.9-31.4-29.9-33.2z"/>
	<path fill="#aedae6" d="M46.4 11.7c-15.4 0-27.8 12.5-27.8 27.8 0 15.4 12.5 27.8 27.8 27.8 15.4 0 27.8-12.5 27.8-27.8v-.7c-.3 11-9.4 19.8-20.5 19.8-1 0-2-.1-3-.2-13 0-23.4-10.5-23.4-23.5 0-11.7 8.6-21.5 20.1-23.2h-1z"/>
	<path fill="#56b8de" d="M50.8 11.5c-13 0-23.4 10.5-23.4 23.4s10.5 23.4 23.4 23.4c-9.6 0-17.5-7.8-17.5-17.5 0-.4 0-.9.1-1.3 0-.5-.1-.9-.1-1.4 0-11.3 9.2-20.5 20.5-20.5 10.7 0 19.6 8.3 20.4 18.9.9-12.9-8.8-24.1-21.7-25.1-.6.1-1.1.1-1.7.1z"/>
	<path fill="#00b1d5" d="M53.8 17.7c-11.3 0-20.5 9.2-20.5 20.5 0 .5 0 1 .1 1.5v-.2c.1-1 .2-1.9.5-2.8.5-1.9 1.3-3.7 2.3-5.3 3.2-4.9 8.7-7.9 14.6-7.9.5 0 1 0 1.4.1 9.1.8 16 8.3 16 17.4 0 9.6-7.8 17.5-17.5 17.5h-.1c1 .2 2 .2 3 .2 11.3 0 20.5-9.2 20.5-20.5s-9-20.5-20.3-20.5z"/>
	<path fill="#221f1f" d="M50.8 23.4c-9.6 0-17.5 7.8-17.5 17.5 0 9.6 7.8 17.5 17.5 17.5 9.6 0 17.5-7.8 17.5-17.5 0-9.6-7.8-17.5-17.5-17.5zM60.9 36c-.6 1.3-1.5 2.5-2.5 3.1-1 .7-2.1.8-2.9.5-.8-.4-1.4-1.3-1.6-2.5-.2-1.2.1-2.6.7-4 .5-1.1 1.2-2.1 2-2.8.8-.7 1.7-1.1 2.5-1 .3 0 .6.1.9.2.8.4 1.4 1.3 1.6 2.5.2 1.2-.1 2.7-.7 4z"/>
	<path fill="#fff" d="M60.1 29.6c.8.4 1.4 1.3 1.6 2.5.2 1.2-.1 2.6-.7 4-.6 1.3-1.5 2.5-2.5 3.1-1 .7-2.1.9-2.9.5-.8-.4-1.4-1.3-1.6-2.5-.2-1.2.1-2.6.7-4 .6-1.3 1.5-2.5 2.5-3.1 1-.7 2-.9 2.9-.5z"/>
</svg>