<svg xmlns="http://www.w3.org/2000/svg" viewBox="0 0 100 100">
	<path fill="#155104" d="M44.6 59.9s.4 11.5-2.1 16.7c0 0-4.4 12.1.8 20.8 0 0 14.4 7.6 24.9-3.5 2.3-4.9-3.4-9.5-3.7-29.8 0 0 .2-5.6.8-9.2 0 0 15-.8 16.3-12.9 0 0 1.2-13.3-5-15 0 0-8.8-1.9-8.8 6.3 0 0 1.2 9-3.3 9.2 0 0-1.7-.8-1.7-6.3 0 0 2.1-17.1-5.4-29.6 0 0-6.3-10-16.3-2.1 0 0-3.8 3.8 0 11.7 0 0 6.3 15.8 3.3 26.7 0 0-.6 5.6-3.8 5.4 0 0-4.2.4-2.1-7.5 0 0 4.6-10.6-2.5-15 0 0-10.4-3.8-13.8 10.4 0 0-4.2 11.3.4 19.6.3 0 4.3 7.3 22 4.1z"/>
	<linearGradient id="a" x1="20.7568" x2="92.5947" y1="1013.9754" y2="1051.1194" gradientTransform="translate(0 -978.567)" gradientUnits="userSpaceOnUse">
		<stop offset="0" stop-color="#b1e356"/>
		<stop offset=".685" stop-color="#080"/>
		<stop offset=".978" stop-color="#006800"/>
		<stop offset="1" stop-color="#006800"/>
	</linearGradient>
	<path fill="url(#a)" d="M42.9 58.6s.4 11.5-2.1 16.7c0 0-4.4 12.1.8 20.8 0 0 14.4 7.6 24.9-3.5 2.3-4.9-3.4-9.5-3.7-29.8 0 0 .2-5.6.8-9.2 0 0 15-.8 16.3-12.9 0 0 1.2-13.3-5-15 0 0-8.8-1.9-8.8 6.3 0 0 1.2 9-3.3 9.2 0 0-1.7-.8-1.7-6.3 0 0 2.1-17.1-5.4-29.6 0 0-6.3-10-16.3-2.1 0 0-3.8 3.7 0 11.7 0 0 6.3 15.8 3.3 26.7 0 0-.6 5.6-3.8 5.4 0 0-4.2.4-2.1-7.5 0 0 4.6-10.6-2.5-15 0 0-10.4-3.8-13.8 10.4 0 0-4.2 11.3.4 19.6.3-.1 4.3 7.2 22 4.1z"/>
	<linearGradient id="b" x1="66.0943" x2="81.3543" y1="1016.5677" y2="1024.4578" gradientTransform="translate(0 -978.567)" gradientUnits="userSpaceOnUse">
		<stop offset="0" stop-color="#080"/>
		<stop offset=".051" stop-color="#080"/>
		<stop offset=".978" stop-color="#006800"/>
		<stop offset="1" stop-color="#006800"/>
	</linearGradient>
	<path fill="url(#b)" fill-opacity=".67" d="M72.2 25.9c4.3 1.6 2.3 2.6 2.7 3.6.7 1.1 2 .7 2.2 4.4.1 1.7-.8 2.6-.9 3.8-.3 2.5.9 4.4-.2 6.7-1.2 2.5-2.6 3.9-5 5 .2 4.7-7.2.2-7.5 4.4 3-.2 7.4-1.7 9.2-4.4 5.3-1.7 8.6-8.6 8-13.9-.3-3.1-3-12-7.8-9.4"/>
	<linearGradient id="c" x1="28.1987" x2="92.2827" y1="1015.3206" y2="1048.4546" gradientTransform="translate(0 -978.567)" gradientUnits="userSpaceOnUse">
		<stop offset="0" stop-color="#60b656"/>
		<stop offset=".494" stop-color="#086d05"/>
		<stop offset=".528" stop-color="#080"/>
		<stop offset=".978" stop-color="#004900"/>
		<stop offset="1" stop-color="#004900"/>
	</linearGradient>
	<path fill="url(#c)" fill-opacity=".78" d="M48.3 2c3.6.8 3.8 3.1 4.7 5.8.7 2.3 2.1 4.2 2.6 6.7s.2 5 .9 7.4c.5 2 1.3 4.2 1.5 6.2.4 4.7 1.2 8.9 1.2 13.6 0 2.8.4 4.8.8 7.2.1.6-.2 1.3 0 1.9.2.8-.2 1.7 0 2.3.3 1.2-.4 2.3-.6 3.6-.6 3.9.4 7 0 10.8-.3 2.5.9 3.9 1 6.4.1 1.8.1.7-.5 2.5-.3.9-1.1 1.1-1 2.3 0 1.8 1.9 3.3 2.4 4.9.6 1.9.2 3.2-.2 5-.3 1.2-.4 4.2-1.2 5.3-1.1 1.6-3.7 1.4-5.2 2.5v1c3.4.5 4-1.5 6.6-2.8 1.4-.6 4.4-.3 5.2-2.3.8-2.1-1.9-3.6-2.2-5.8-.3-2.4-.2-4.1-.8-6.5-4-16.1-1.2-34.5-1.7-38.2-.5-3-2.5-6-2.5-19.5 0-7.6-2.4-18.2-9.7-21.4-1.1-.5-1.9-1-3.2-.9 1.1.6 1.8 1.6 3 2.2"/>
	<linearGradient id="d" x1="61.2313" x2="73.0823" y1="1026.5616" y2="1032.6896" gradientTransform="translate(0 -978.567)" gradientUnits="userSpaceOnUse">
		<stop offset="0" stop-color="#080"/>
		<stop offset=".051" stop-color="#080"/>
		<stop offset=".978" stop-color="#006800"/>
		<stop offset="1" stop-color="#006800"/>
	</linearGradient>
	<path fill="url(#d)" fill-opacity=".67" d="M60.8 49.5h3c1 5.1 6.9-1.4 9.4-.8-2.5 3.9-8 4.6-12.7 4.4.1-1-.2-1.9-.9-2.4 3.4-.3 7.1-.2 10.5 0v.7c-.5.2-1.3.6-2.1.6"/>
	<linearGradient id="e" x1="27.1712" x2="47.0102" y1="1011.5757" y2="1021.8337" gradientTransform="translate(0 -978.567)" gradientUnits="userSpaceOnUse">
		<stop offset="0" stop-color="#7cac56"/>
		<stop offset=".494" stop-color="#086d05"/>
		<stop offset=".528" stop-color="#080"/>
		<stop offset=".978" stop-color="#004900"/>
		<stop offset="1" stop-color="#004900"/>
	</linearGradient>
	<path fill="url(#e)" fill-opacity=".48" d="M31.9 26.7c2.7.7 1.4 5.9.9 7.6-.2.6-1.1.7-1.2 1.6 0 .4 1 1 1.1 1.5.5 3.3-.9 8.9 2 10.8 2.3 1.6 5.6-.1 6.7-2.2-1.5.1-2.8.7-4.3.5-.4-2-1.2-4.2-1.2-6.3 0-2.2 1.4-4.4 1.7-6.7.2-2.4-.6-5-1.9-6.9-1.1-1.6-5.5-3.5-4.4.2.3.1.5.2.8.3"/>
	<linearGradient id="f" x1="17.6336" x2="46.2546" y1="1022.7792" y2="1037.5773" gradientTransform="translate(0 -978.567)" gradientUnits="userSpaceOnUse">
		<stop offset="0" stop-color="#7cac56"/>
		<stop offset=".494" stop-color="#086d05"/>
		<stop offset=".528" stop-color="#080"/>
		<stop offset=".978" stop-color="#004900"/>
		<stop offset="1" stop-color="#004900"/>
	</linearGradient>
	<path fill="url(#f)" fill-opacity=".48" d="M20.8 37.6c-.3 3-1.3 6.1-.6 9.2 1.5 7.7 2.4 12.4 20.3 11.3.1-.1.2-.3.2-.5-1.6-.9-4.2-.4-5.9-.9-3.8-1.1-8.7-.8-10.3-5.8-1-3.1.7-4.4-2.8-6.1 1.1-3-1.4-3.6-1.4-5.8"/>
	<g fill="#fff" opacity=".25">
		<path d="m50.1.5-.5.7.5-.7c-.5-.2-1-.1-1.2.3-.3.6.1 1.2.4 1.2.2.1.4.4.7.7 6.8 8 5.6 17.9 7.5 94.3 0 1 1.7 1.2 1.7-.1-1.5-62 .1-91.8-9.1-96.4z"/>
		<path d="m44.9.2-.4.7.4-.7c-1.1-.5-1.8.9-.9 1.4.3 0 .1 0 .3.2 9.7 9.7 7.7 10.8 9.4 87.1l-3.1-28.1c-.3-14.3-.5-28.7-.3-35 .1-8.7-2.8-17-6-21.7L44 1.6l.3 2.6c-.1-.1-1.5-2.2-1.7-2.4l-.6.5.6-.5c-.6-.8-2.3.1-1 1.4 1.4 2.1 1.6 2.3 3.1 5.3 2.5 22.8 4.9 32.8 4.9 89.4 0 1 1.7 1.2 1.7-.1l-.7-36.9c3.7 33.7 3 25.9 3.3 36.7 0 1 1.7 1.2 1.7-.1-2-87.9.3-86.3-10.7-97.3zm-.1 8.3c0 .2.1.4.2.5 4.4 9.3 3.4 13.6 3.7 34.5l-3.9-35z"/>
		<path d="M46.4 39.4c0-25-6.7-34-6.7-34.3l-.1-.1-.7.5.7-.5c-.7-.9-1.9.1-1.3 1 .1.1.2.2.2.4.3.4.5.9.7 1.3 4.3 8.5 5.5 22.1 5.5 31.7 0 37.9.2 44.8.2 57.4 0 1.1 1.6 1.1 1.6 0h-.8.8c.3-3.7-.1-5.4-.1-57.4zm-20.8-8.5c1.8-3.2 4.2-5.4 5.9-6.3.5-.2.2-1-.3-.8l.2.4c-.1-.1-.1-.3-.2-.4-.1 0-.1.1-.2.1-1.6.8-4.3 3.2-6.2 6.6-2.8 5-4.7 13.3-1.6 26.6.3.7.9.1.8-.2-3-13.1-1.1-21.2 1.6-26z"/>
		<path d="M42.3 43.1c-.3 54-.5 54 .1 54s.4 0 .7-54c.2-.4-.8-.6-.8 0zm-8.5-17.7c.5-.2.2-1.4-.4-1.1l.2.5-.2-.5c-.2.2-.4.3-.5.5-9 9-8.3 34.1-6.3 33.1.2-.1.3-.4.3-.7-1-2-1.7-23.2 6.9-31.8z"/>
		<path d="M32.7 34.5c2.5-7.4 4.4-8 3.7-8.7-.2-.1-.4-.1-.6.1l.3.2-.3-.2c-.3.3-.1.2-.4.5-.2.5-2 3.2-3.5 7.8-1.9 5.5-3.6 13.6-3 24.2 0 .5.8.5.8 0-.6-10.5 1.1-18.5 3-23.9z"/>
		<path d="M38.3 31.3c-.2-.1-.4-.1-.6.1l.3.2c-.1-.1-.2-.2-.3-.2-.8 1.6-7.5 11.5-6.2 27.4 0 .2.2.4.5.4 1.5 0-1.7-7.6 2.9-20.1.6-1.4 2.7-6.3 3.5-7.1.1-.3 0-.6-.1-.7zm1.3 15.3c-.2 0-.4.1-.5.3 0 2.6-1.4 5.4.1 11.8.1.2.3.4.5.3.2 0 .4-.3.3-.5-1.8-7.5.8-11.3-.4-11.9zM35.9 45c-.7 2.2-1.9 8.4-1.6 13.8 0 .5.9.6.9-.1-.5-4.6 1-12.1 1.6-13.3v-.1c0-.8-.7-.7-.9-.3zM60 25.6h.4c0-3.6-2.3-20.7-4-19-.7.4.4.2 1.4 4.9 3.6 17.1 2.3 84.7 4 84.7.2 0 .4-.2.4-.4l-1.8-70.2H60zm11.3 2.1c-.2-.4-.4-.8-.7-1.1-.1-.1-.2-.2-.3-.4l-.3.3.3-.3c-.2-.3-1-.2-.7.5v.1c2.5 3.3 5.3 11.6 4.1 21.7l-4.2-21.8c4.4 22.6 4.1 20.7 4.1 22.7 0 .2.1.4.4.5.2 0 .4-.1.5-.4 1-7.6.2-14.9-3.2-21.8zm-3.4.3-.4.1.4-.1c-.3-.7-.9-.1-.8.2v.1c0 .1.1.2.1.3.6 1.7 1.2 4.5 1.5 6.2 2.7 14 1 16.9 2.1 16.9.2 0 .4-.2.4-.4 0-9.4-2-19.4-3.3-23.3zm-1.1 8.4c0-.5-.9-.6-.9.1s1.3 10.4.9 16.2c0 .5.8.5.8 0 .2-6.4-.8-16.2-.8-16.3zm-2.4 17.2c1.8 0-.3-12-.3-12.4 0-.2-.3-.4-.5-.3-.2 0-.4.3-.3.5h.2-.2c0 .2.4 2.3.6 4.2.2 2.2-.4 7.7.5 8zm-1 22.5 1.7 17.3c0 .2.2.4.5.4.6 0 .5.5-1.3-17.8 0-.2-.9-.6-.9.1z"/>
	</g>
</svg>