<svg xmlns="http://www.w3.org/2000/svg" viewBox="0 0 100 100">
	<path fill="#FC5D0D" d="M100 0H0v100h100V0Z"/>
	<path fill="#fff" d="M49.998 64.994c7.597 0 11.51-4.479 11.565-12.36v-6.52H54.25v7.031c0 3.515-1.53 4.763-4.026 4.763-2.439 0-4.026-1.248-4.026-4.763V26.56c0-3.515 1.53-4.877 4.026-4.819 2.438 0 4.026 1.362 4.026 4.877v5.271h7.312v-4.763c0-7.881-3.913-12.36-11.51-12.36-7.596 0-11.509 4.479-11.564 12.36v25.566c.004 7.768 3.913 12.302 11.51 12.302Zm11.568 7.198H38.492v13.04h23.074v-13.04Z"/>
</svg>