<svg xmlns="http://www.w3.org/2000/svg" viewBox="0 0 100 100">
	<g fill="#52c1db">
		<path d="M83.7 27.5c-2.6-3.7-5.8-6.9-9.5-9.5L71 22.6c-1.6-1.1-3.3-2.1-5-2.9l-2.3 5c2.9 1.4 5.6 3.2 7.9 5.5l-7.8 7.9c1.4 1.4 2.6 3 3.4 4.7l20.1-9.4c-1.2-2.1-2.3-4-3.6-5.9zM56.3.2l-.5 5.5c2.6.2 5.1.7 7.6 1.3L62 12.4c11 2.9 20.3 10.6 25.1 21l10.1-4.7C89.7 12.9 74.3 1.7 56.3.2zm12 14.5c-8.5-3.9-17.9-4.6-26.3-2.3l1.4 5.4c-1.9.5-3.7 1.2-5.4 2l2.3 5c7.2-3.4 15.8-3.5 23.3 0l2.3-5c1.7.8 3.4 1.8 5 2.9l3.2-4.5c-1.8-1.4-3.8-2.5-5.8-3.5zm-12.5-9 .5-5.5C41.7-1.1 27.3 4 16.7 14.5l3.9 3.9c1.8-1.8 3.8-3.5 5.9-4.9l3.2 4.6c9.7-6.7 21.5-8.5 32.2-5.7L63.4 7c-2.5-.6-5-1.1-7.6-1.3zm-13.9 6.7c-8.8 2.4-16.5 7.8-21.7 15.1l4.5 3.2c-1.1 1.6-2.1 3.3-2.9 5l5 2.3c2.8-5.9 7.5-10.6 13.4-13.3l-2.3-5c1.7-.8 3.6-1.5 5.4-2l-1.4-5.3zm-21.2 6.1-3.9-3.9c-8.2 8-13.5 18.9-14.6 30.8l5.5.5c.2-2.6.7-5.1 1.4-7.6l5.4 1.4c2.3-8.5 7.6-16.3 15.3-21.7l-3.2-4.6c-.2.3-2.7 1.8-5.9 5.1zm-4.1 47.8c-3.9-8.5-4.5-18-2.2-26.5L9 38.4c-.7 2.5-1.1 5-1.4 7.6l-5.5-.5C1 57.3 4.1 69 10.8 78.6l4.5-3.2c-1.5-2.1-2.8-4.4-3.9-6.7.2-.1 5.2-2.4 5.2-2.4zm7.7-14.1c-.4-5 .6-9.9 2.6-14.1l-5-2.3c.8-1.7 1.8-3.4 2.9-5l-4.5-3.2c-6.8 9.7-8.7 21.6-5.9 32.3l5.4-1.4c.5 1.9 1.1 3.7 2 5.5l5-2.3c-1.4-3-2.3-6.2-2.5-9.5zm-7.7 14.1-5 2.3c1.1 2.4 2.4 4.6 3.9 6.7L11 78.5c5 7.2 11.9 13 19.8 16.8l2.3-5c2.4 1.1 4.8 2 7.3 2.7l1.4-5.4c-10.9-3-20.2-10.7-25.2-21.3zm23.5 8.8c-5.8-2.7-10.6-7.5-13.4-13.6l-5 2.3c-.8-1.8-1.5-3.6-2-5.5l-5.4 1.4c2.3 9 7.8 16.7 15.2 21.9l3.2-4.5c3.2 2.3 6.8 3.9 10.5 5l1.4-5.4c-1.5-.3-3-.9-4.5-1.6zm37.4 11.2c-4.1 2.9-8.9 5.2-14 6.6l-1.4-5.4c-6.5 1.8-13.5 1.8-20.2 0l-1.4 5.4c-2.5-.7-5-1.6-7.3-2.7l-2.3 5c16 7.5 35.1 6.1 50-4.4l-3.4-4.5zm10.9-11-4.5-3.2C78.5 80 70.6 85.3 62.1 87.6l1.4 5.4c5-1.3 9.7-3.5 14-6.6l3.2 4.5c4.8-3.4 8.9-7.6 12.3-12.4l-4.6-3.2zm-13.6-9.5c-1.8 2.6-4.1 5-6.8 6.9l3.2 4.6c-1.6 1.1-3.3 2.1-5 2.9l2.3 5c6-2.8 11.4-7.3 15.4-13.1l-9.1-6.3zm-3.6 11.4L68 72.7c-6.8 4.9-15.4 6.3-23.3 4.1l-1.4 5.4c-3.8-1-7.3-2.7-10.5-5l-3.2 4.5C41.2 90 56.1 91 68.5 85.2l-2.3-5c1.7-.8 3.4-1.8 5-3z"/>
		<path d="M74.1 18.1 71 22.6c-1.6-1.1-3.3-2.1-5-2.9l-2.3 5c2.9 1.4 5.6 3.2 7.9 5.5l-7.8 7.9c1.4 1.4 2.6 3 3.4 4.7l20.1-9.4c-1.2-2.1-7.6-11.4-13.2-15.3z"/>
		<path d="M43.4 17.8 42 12.4c-8.8 2.4-16.5 7.8-21.7 15.1l4.5 3.2c-1.1 1.6-2.1 3.3-2.9 5l5 2.3c2.8-5.9 7.5-10.6 13.4-13.3l-2.3-5c1.7-.8 3.5-1.4 5.4-1.9z"/>
		<path d="m16.6 66.3-5 2.3c1.1 2.4 2.4 4.6 3.9 6.7L11 78.5c5 7.2 11.9 13 19.8 16.8l2.3-5c2.4 1.1 4.8 2 7.3 2.7l1.4-5.4c-11-3-20.3-10.8-25.2-21.3z"/>
		<path d="m79.3 69-4.5-3.2c-1.8 2.6-4.1 5-6.8 6.9l3.2 4.6c-1.6 1.1-3.3 2.1-5 2.9l2.3 5c6-2.8 11.4-7.3 15.4-13.1L79.3 69z"/>
	</g>
	<g fill="#3b528a">
		<path d="m56.3.2-.5 5.5c2.6.2 5.1.7 7.6 1.3L62 12.4c11 2.9 20.3 10.7 25.1 21l10.1-4.7C89.7 12.9 74.3 1.7 56.3.2z"/>
		<path d="M24.3 52.2c-.4-4.9.5-9.8 2.6-14.1l-5-2.3c.8-1.7 1.8-3.4 2.9-5l-4.5-3.2c-6.9 9.7-8.7 21.6-5.9 32.3l5.4-1.4c.5 1.9 1.1 3.7 2 5.5l5-2.3c-1.4-3.1-2.3-6.2-2.5-9.5z"/>
		<path d="M77.5 86.3c-4.2 3-8.9 5.2-14 6.6l-1.4-5.4c-6.6 1.8-13.6 1.8-20.2 0l-1.4 5.4c-2.5-.7-5-1.6-7.3-2.7l-2.3 5c15.9 7.5 35 6.1 50-4.4l-3.4-4.5z"/>
	</g>
	<g fill="#00aee8">
		<path d="M68.3 14.7c-8.5-3.9-17.8-4.6-26.3-2.3l1.4 5.4c-1.9.5-3.7 1.2-5.4 2l2.3 5c7.2-3.3 15.7-3.5 23.3 0l2.3-5c1.7.8 3.4 1.8 5 2.9l3.2-4.5c-1.8-1.4-3.8-2.5-5.8-3.5z"/>
		<path d="M26.6 13.5c-2.1 1.5-4.1 3.1-5.9 4.9l-3.9-3.9C8.6 22.6 3.3 33.4 2.2 45.4l5.5.5c.2-2.6.7-5.1 1.4-7.6l5.4 1.4C16.8 31.3 22 23.4 29.8 18l-3.2-4.5z"/>
		<path d="M40.1 75.1c-5.8-2.7-10.6-7.5-13.4-13.6l-5 2.3c-.8-1.8-1.5-3.6-2-5.5l-5.4 1.4c2.3 9 7.8 16.7 15.2 21.9l3.2-4.5c3.2 2.3 6.8 3.9 10.5 5l1.4-5.4c-1.5-.3-3-.9-4.5-1.6z"/>
		<path d="m88.4 75.3-4.5-3.2C78.5 80 70.6 85.3 62.1 87.6l1.4 5.4c5-1.3 9.7-3.5 14-6.6l3.2 4.5c4.8-3.4 8.9-7.6 12.3-12.4l-4.6-3.2z"/>
	</g>
	<g fill="#3f8abd">
		<path d="M56.3.2C41.7-1.1 27.3 4 16.7 14.5l3.9 3.9c1.8-1.8 3.8-3.5 5.9-4.9l3.2 4.6c9.7-6.7 21.5-8.5 32.2-5.7L63.4 7c-2.5-.7-5-1.1-7.6-1.3l.5-5.5z"/>
		<path d="M16.6 66.3c-4-8.6-4.5-18.1-2.2-26.5L9 38.4c-.7 2.5-1.1 5-1.4 7.6l-5.5-.5C1 57.3 4.1 69 10.8 78.6l4.5-3.2c-1.5-2.1-2.8-4.4-3.9-6.7l5.2-2.4z"/>
		<path d="M71.2 77.2 68 72.7c-6.8 4.8-15.3 6.3-23.3 4.1l-1.4 5.4c-3.8-1-7.3-2.7-10.5-5l-3.2 4.5C41.2 90 56.2 91 68.5 85.2l-2.3-5c1.7-.8 3.4-1.8 5-3z"/>
	</g>
</svg>