<svg xmlns="http://www.w3.org/2000/svg" viewBox="0 0 100 100">
	<path fill="#A14F8C" d="M50 100c27.615 0 50-22.386 50-50S77.614 0 50 0 0 22.386 0 50s22.387 50 50 50Z"/>
	<path fill="#fff" d="M50 12.162 38.917 23.245H23.245l-.002 15.672L12.162 50l11.083 11.082v15.674h15.673L50 87.837l11.082-11.083h15.674V61.082L87.839 50 76.755 38.918 61.082 23.246 50 12.162Zm3.364 11.082v11.957L50 38.565l-3.364-3.364V23.245h6.728Zm-19.905 5.458 8.455 8.456v4.756l-4.757.001-8.455-8.456 4.757-4.757ZM23.243 46.636h11.958L38.565 50 35.2 53.364H23.244v-6.727Zm41.287 0h11.957v6.728H64.53L61.166 50l3.364-3.364Zm-27.183 11.26h4.758v4.757l-8.455 8.454-4.757-4.757 8.454-8.454Zm20.55 0h4.756l8.455 8.454-4.757 4.757-8.455-8.454v-4.758ZM50 61.165l3.364 3.364v11.957h-6.728V64.53L50 61.166Z"/>
	<path fill="#EFA724" d="M53.364 42.271 50 45.244l-3.364-2.974v4.367H42.27L45.243 50l-2.974 3.364h4.367v4.365L50 54.758l3.364 2.973v-4.367h4.366l-2.973-3.363 2.974-3.364h-4.367V42.27Zm7.727-19.015 5.449 5.448-8.455 8.455v4.757h4.757l8.455-8.454 5.467 5.467-.008-15.683-15.665.01Z"/>
</svg>