<svg xmlns="http://www.w3.org/2000/svg" viewBox="0 0 100 100">
	<linearGradient id="a" x1="50" x2="50" y1="101.4331" y2="1.4331" gradientTransform="matrix(1 0 0 -1 0 101.433)" gradientUnits="userSpaceOnUse">
		<stop offset="0" stop-color="#7bcbd4"/>
		<stop offset="1" stop-color="#29c6b7"/>
	</linearGradient>
	<path fill="url(#a)" d="M100 50c0-27.6-22.4-50-50-50S0 22.4 0 50s22.4 50 50 50 50-22.4 50-50z"/>
	<path fill="#fff" d="m27.1 52.1 34.1-33.8c.6-.6 1.7.1 1.2.9L49.7 42.5c-.2.4-.1.8.3 1.1.1.1.2.1.4.1h21.9c.7 0 1 .9.5 1.3L34.4 80.8c-.7.6-1.7-.3-1.2-1l18.2-25.1c.3-.3.2-.8-.2-1.1-.1-.1-.3-.1-.5-.1H27.6c-.4 0-.8-.3-.8-.8 0-.2.1-.4.3-.6z"/>
</svg>