<svg xmlns="http://www.w3.org/2000/svg" viewBox="0 0 100 100">
	<path fill="#80afdd" d="M15.7 39.1c5.6-4.8 14.1-4.6 19.4.6v-6.8h8.2c-8.6-9.1-22.4-10.5-32.5-3.5l-2.1 7.8 7 1.9zM5.8 39l8 2.1c-3.8 4.8-4.2 11.4-1 16.6v7.7H5.2c-7.8-10-6.8-24.4 2.4-33.3L5.8 39zm1.6 28.8c8.6 8.6 22.1 9.7 32 2.8v-7.5h-8.1c-5.3 2.5-11.7 1.6-16-2.5v7.2H7.4zm35.1-18.4c-1.7-2-3.8-4.7-4.9-6.6v-7.4h7.8C53.8 47 59.6 52.8 62.6 57.7c.7 1.1 1.5 2.1 2.5 3h-6.9v8.1c-4-3.5-.6-1-15.7-19.4z"/>
	<path fill="#fab028" d="M91.2 37.2 84.3 39c-5.6-4.8-13.9-4.6-19.3.4v-6.6h-8.4c8.6-9.1 22.4-10.5 32.5-3.5l2.1 7.9zm3.6 28.2c7.8-10 6.8-24.4-2.4-33.3l1.8 6.9-8 2.1c3.8 4.8 4.2 11.4 1 16.6v7.7h7.6zm-26.1-2.2h-8v7.6c9.9 6.8 23.4 5.7 31.9-2.9h-7.9v-7.2c-4.3 4.1-10.7 5-16 2.5zm-26.9-2.5h-6.9c2.5-2.3-.3-.2 15.1-19 4.1-5.2 3.3-4.5 4.6-6.3h8v7.2c-3.1 5-13.8 16.9-16.1 20.7-1.3 2-2.8 3.9-4.6 5.5l-.1-8.1z"/>
	<path fill="#2164af" d="M70 55c-6.9 0-6.8-9.8 0-9.7 1.7 0 3.2.6 4.2 1.9l-2 1.8c-1.8-2.3-5.1-.6-4 2.2.6 1.5 2.6 2 4 .3l2 1.8C73.1 54.4 71.6 55 70 55zm5-.3v-9.3h4.6c7 0 7.1 9.3 0 9.3H75zm3.2-2.4c1.9 0 3.5.1 3.5-2.2 0-2.3-1.9-2.2-3.5-2.2v4.4zM23.7 55c-6.9 0-6.8-9.7 0-9.7 1.6 0 3.2.5 4.2 1.9l-2 1.8c-1.8-2.3-5.1-.6-4 2.2.5 1.5 2.6 2 4 .3l2 1.8c-1.1 1.1-2.5 1.7-4.2 1.7zm5-.3v-9.3h3.1v9.3h-3.1z"/>
</svg>