<svg xmlns="http://www.w3.org/2000/svg" viewBox="0 0 100 100">
	<linearGradient id="a" x1="35.8905" x2="63.2075" y1="94.8685" y2="6.3015" gradientTransform="matrix(1 0 0 -1 0 101.433)" gradientUnits="userSpaceOnUse">
		<stop offset="0" stop-color="#1a1c3f"/>
		<stop offset=".11" stop-color="#1f2143"/>
		<stop offset=".25" stop-color="#2d2f4e"/>
		<stop offset=".39" stop-color="#454761"/>
		<stop offset="1" stop-color="#cbcbcb"/>
	</linearGradient>
	<path fill="url(#a)" d="M49.5 97.4c25.9 0 46.9-21 46.9-46.9S75.3 3.7 49.5 3.7 2.6 24.7 2.6 50.6s21 46.8 46.9 46.8z"/>
	<radialGradient id="b" cx="-4741.4854" cy="3078.1116" r="1" gradientTransform="matrix(22.2133 0 0 -22.2133 105361.9297 68441.8281)" gradientUnits="userSpaceOnUse">
		<stop offset=".09" stop-color="#0024f4"/>
		<stop offset="1" stop-color="#0024f4" stop-opacity="0"/>
	</radialGradient>
	<path fill="url(#b)" d="M37.9 89c12.3 0 22.2-9.9 22.2-22.2s-9.9-22.2-22.2-22.2c-12.3 0-22.2 9.9-22.2 22.2S25.6 89 37.9 89z" opacity=".64"/>
	<path fill="#020518" d="M96 41c0 20.6-16.7 37.3-37.3 37.3C38 78.3 21.4 61.6 21.4 41S38 3.7 58.6 3.7C79.3 3.7 96 20.4 96 41"/>
	<linearGradient id="c" x1="73.3591" x2="46.3411" y1="89.222" y2="37.186" gradientTransform="matrix(1 0 0 -1 0 101.433)" gradientUnits="userSpaceOnUse">
		<stop offset="0" stop-color="#fff"/>
		<stop offset=".19" stop-color="#7482ff"/>
		<stop offset=".52" stop-color="#2c38a0"/>
		<stop offset="1" stop-color="#6474db"/>
	</linearGradient>
	<path fill="url(#c)" d="M69.8 9.2s0 3.6-3.4 6.9c-2.2 2.2-5.2 3.8-8.3 5.4-2.6 1.3-4.3 2.1-8.6 4.1-3.3 1.4-8 4.5-10.7 7.5-2.7 3-4 6.1-4.8 9.8-.8 3.8 0 7.6.8 10.1 1 3.1 2.8 5.8 5.1 8 2.8 2.6 7 5 11.6 5.5 4.7.5 8.9-.4 12.6-2.6 3.7-2.2 5.2-4.5 6.7-6.6 1.6-2.1 3.5-6 4.9-9.6 1.2-3.3 3.3-9.7 6.5-13.4 3.4-3.9 6.8-4.7 6.8-4.7s-1.6-6.4-7.3-12.4c-6-6.1-11.9-8-11.9-8z"/>
	<linearGradient id="d" x1="14.5059" x2="83.5109" y1="86.0129" y2="15.0079" gradientTransform="matrix(1 0 0 -1 0 101.433)" gradientUnits="userSpaceOnUse">
		<stop offset="0" stop-color="#f7f7f7"/>
		<stop offset=".52" stop-color="#f0f4ff"/>
		<stop offset="1" stop-color="#bebebe"/>
	</linearGradient>
	<path fill="url(#d)" d="M95.2 28.7c-1.1-.7-2.4-.9-3.7-.7-5 .9-6.3 8.5-8.9 25.6-.7 4.3-3.1 14.5-9.3 23.2-1.7 2.4-3.6 4.8-5.5 7-6.7 6.3-15.5 9.9-24.7 9.8-19.8 0-35.9-16.1-35.9-35.9 0-8.5 3-16.7 8.4-23.1 2.1-2.2 4.2-4.3 6.5-6.2 6.7-5.7 17.8-9.5 22.1-10.2C61.1 15 69.8 13.1 70.4 8c.2-1.6-.4-3-1.4-4.3C63 1.3 56.5 0 50 0 31.4 0 15.2 10.2 6.6 25.2 2.2 32.8 0 41.3 0 50c0 27.6 22.4 50 50 50 9.7 0 19.1-2.8 27.2-8.1C90.9 83 100 67.6 100 50c0-7.4-1.6-14.7-4.8-21.3"/>
</svg>