<svg xmlns="http://www.w3.org/2000/svg" viewBox="0 0 100 100">
	<path fill="#000" d="M49.56 0C26.193 0 6.583 15.991 1.064 37.611a2.085 2.085 0 0 0-.063.485 2.383 2.383 0 0 0 2.384 2.38h20.177c.96 0 1.783-.572 2.163-1.39l.003.001c4.145-9.013 13.251-15.279 23.834-15.279 14.478 0 26.22 11.729 26.22 26.193 0 14.464-11.742 26.192-26.22 26.192-10.583 0-19.689-6.265-23.834-15.281l-.003.005a2.384 2.384 0 0 0-2.163-1.391H3.384A2.38 2.38 0 0 0 1 61.906c0 .163.025.319.06.475C6.576 84.002 26.187 100 49.56 100c27.646 0 50.06-22.389 50.06-50 0-27.613-22.414-50-50.06-50ZM37.64 50c0-6.572 5.339-11.904 11.92-11.904 6.582 0 11.918 5.332 11.918 11.905 0 6.573-5.336 11.906-11.917 11.906-6.582 0-11.92-5.333-11.92-11.906Z"/>
</svg>