<svg xmlns="http://www.w3.org/2000/svg" viewBox="0 0 100 100">
	<path fill="#FFCC01" d="M9.942 0H1.17C.523 0 0 .523 0 1.169V98.83c0 .647.523 1.17 1.169 1.17h8.773a1.17 1.17 0 0 0 1.17-1.169V1.17A1.171 1.171 0 0 0 9.941 0Z"/>
	<path fill="#FF0002" d="M9.942 88.891H1.17c-.647 0-1.17.523-1.17 1.169v8.77c0 .646.523 1.17 1.169 1.17h8.773a1.17 1.17 0 0 0 1.17-1.17v-8.77a1.17 1.17 0 0 0-1.17-1.169Z"/>
	<path fill="#FFCC01" d="M32.166 0h-8.774c-.645 0-1.168.523-1.168 1.169V98.83c0 .646.523 1.169 1.168 1.169h8.774a1.17 1.17 0 0 0 1.169-1.169V1.17A1.17 1.17 0 0 0 32.165 0Zm22.222 0h-8.774c-.645 0-1.168.523-1.168 1.169V98.83c0 .646.523 1.169 1.168 1.169h8.774a1.17 1.17 0 0 0 1.169-1.169V1.17a1.17 1.17 0 0 0-1.17-1.169Zm22.219 0h-8.774c-.645 0-1.168.523-1.168 1.169V98.83c0 .646.523 1.169 1.168 1.169h8.774a1.17 1.17 0 0 0 1.169-1.169V1.17c0-.647-.523-1.17-1.169-1.17Zm22.23 38.89h-8.774c-.646 0-1.169.523-1.169 1.168v19.885c0 .646.523 1.169 1.169 1.169h8.773c.646 0 1.169-.523 1.169-1.169V40.058c0-.645-.523-1.168-1.168-1.168Z"/>
</svg>