<svg xmlns="http://www.w3.org/2000/svg" viewBox="0 0 100 100">
	<linearGradient id="a" x1="35.9479" x2="64.5937" y1="81.881" y2="81.881" gradientTransform="matrix(1 0 0 -1 0 101.433)" gradientUnits="userSpaceOnUse">
		<stop offset="0" stop-color="#ff318c"/>
		<stop offset=".15" stop-color="#fb348c"/>
		<stop offset=".28" stop-color="#f03c8c"/>
		<stop offset=".42" stop-color="#de4a8c"/>
		<stop offset=".54" stop-color="#c45d8b"/>
		<stop offset=".67" stop-color="#a2778b"/>
		<stop offset=".79" stop-color="#79958a"/>
		<stop offset=".91" stop-color="#49b98a"/>
		<stop offset="1" stop-color="#21d789"/>
	</linearGradient>
	<path fill="url(#a)" d="M35.9 39.1 38.1 0l22.7 12.6-24.9 26.5z"/>
	<linearGradient id="b" x1="24.4756" x2="9.7673" y1="88.7445" y2="-9.943" gradientTransform="matrix(1 0 0 -1 0 101.433)" gradientUnits="userSpaceOnUse">
		<stop offset=".09" stop-color="#21d789"/>
		<stop offset=".9" stop-color="#009ae5"/>
	</linearGradient>
	<path fill="url(#b)" d="M35.9 39.1 38.1 0 9.2 18.2 0 73.5l35.9-34.4z"/>
	<linearGradient id="c" x1="91.1996" x2="-9.4045" y1="92.1604" y2="-14.0895" gradientTransform="matrix(1 0 0 -1 0 101.433)" gradientUnits="userSpaceOnUse">
		<stop offset=".09" stop-color="#21d789"/>
		<stop offset=".9" stop-color="#009ae5"/>
	</linearGradient>
	<path fill="url(#c)" d="M98 30 85.1 3.8l-24.3 8.8-24.9 26.5L0 73.5l32.4 23.6 40.8-36.8L98 30z"/>
	<linearGradient id="d" x1="60.7712" x2="95.1775" y1="25.8931" y2="20.9972" gradientTransform="matrix(1 0 0 -1 0 101.433)" gradientUnits="userSpaceOnUse">
		<stop offset=".09" stop-color="#21d789"/>
		<stop offset=".9" stop-color="#009ae5"/>
	</linearGradient>
	<path fill="url(#d)" d="M81.3 57.3v23.9H42l17.3 13.4 25 5.4L100 64.3l-18.7-7z"/>
	<path d="M18.8 18.7h62.5v62.5H18.8V18.7z"/>
	<path fill="#fff" d="M26.5 69.4H50v3.9H26.5v-3.9zM50.1 26.5h5.2v19.2h10.3V50H50.1V26.5zM24.9 38.4c0-1.7.3-3.3.9-4.8.6-1.5 1.5-2.9 2.7-4 1.2-1.1 2.5-2 4-2.6 1.5-.6 3.1-.9 4.7-.8 1.7-.1 3.4.2 5 .8 1.6.6 3.1 1.6 4.3 2.8l-3.3 3.8c-1.6-1.6-3.8-2.6-6.1-2.7-4 0-6.8 3.3-6.8 7.4v.1c0 4.1 2.8 7.4 6.8 7.4 2.7 0 4.4-1 6.2-2.8l3.2 3.4c-1.2 1.4-2.7 2.5-4.4 3.2-1.7.7-3.5 1.1-5.3 1-1.6 0-3.2-.3-4.7-.9-1.5-.6-2.8-1.5-4-2.6-1.1-1.1-2-2.5-2.6-4-.4-1.5-.7-3.1-.6-4.7z"/>
</svg>