<svg xmlns="http://www.w3.org/2000/svg" viewBox="0 0 100 100">
	<path fill="#2684ff" d="M74.1 25h.9C75 11.2 63.8 0 50 0S25 11.2 25 25C11.2 25 0 36.2 0 50s11.2 25 25 25c0 13.8 11.2 25 25 25s25-11.2 25-25c14 0 25.3-11.4 25-25.4C99.7 35.7 88 25 74.1 25zm.9 29.1h-8.8c-6.6 0-12.1 5.4-12.1 12.1V75h-8.2v-8.8c0-6.6-5.4-12.1-12.1-12.1H25v-8.2h8.8c6.6 0 12.1-5.4 12.1-12.1V25h8.2v8.8c0 6.6 5.4 12.1 12.1 12.1H75v8.2z"/>
	<linearGradient id="a" x1="40.3936" x2="75.1774" y1="1.7195" y2="57.3347" gradientTransform="matrix(1 0 0 -1 0 101.433)" gradientUnits="userSpaceOnUse">
		<stop offset="0" stop-color="#0052cc"/>
		<stop offset="1" stop-color="#2684ff"/>
	</linearGradient>
	<path fill="url(#a)" d="M74.1 25h-20v8.8c0 6.6 5.4 12.1 12.1 12.1H75v8.2h-8.8c-6.6 0-12.1 5.4-12.1 12.1V75H25c0 13.8 11.2 25 25 25s25-11.2 25-25c14 0 25.3-11.4 25-25.4C99.7 35.7 88 25 74.1 25z"/>
</svg>