<svg xmlns="http://www.w3.org/2000/svg" viewBox="0 0 100 100">
	<path fill="#EF4323" d="M70.19 39.485c.07-.807-.093-1.256-.418-2.032.241.121.418.262.62.334C82.093 43.85 91.538 54.45 91.274 68.215 90.956 84.957 75.362 96.665 60.272 100c7.142-2.815 13.508-8.39 14.377-16.4.799-7.39-3.164-13.764-8.53-18.479-3.246-2.856-6.89-5.066-10.542-7.28-2.089-1.267-4.18-2.534-6.2-3.925-3.194-2.202-8.049-6.63-6.343-11.12-2.217 1.908-3.978 4.59-4.668 7.444-1.388 5.7 2.125 10.143 5.762 14.074 3.675 3.97 3.388 10.779-2.807 12.136a6.996 6.996 0 0 1-7.064-2.675c-1.73-2.35-1.35-4.761-.652-7.39-5.8 4.102-10.453 10.337-10.437 17.688.015 6.738 5.63 13.33 11.623 15.92-11.887-2.73-22.417-10.47-25.697-22.62-3.28-12.159 1.186-24.419 8.49-34.158 3.653-4.87 7.926-9.243 12.369-13.392 1.349-1.26 2.744-2.488 4.14-3.718 2.883-2.537 5.775-5.082 8.298-7.944C46.252 13.77 51.083 5.932 47.416 0c6.653 4.97 12.027 13.283 11.127 21.844-.22 2.077-.845 4.164-1.468 6.245-1.428 4.765-2.846 9.496.646 13.986 3.072 3.944 8.865 3.156 11.6-.528.396-.628.794-1.191.87-2.062Z"/>
</svg>