<svg xmlns="http://www.w3.org/2000/svg" viewBox="0 0 100 100">
	<path fill="#236BFD" d="M43.958 49.086 27.8 37.29l15.234 25.433L100 15.729 43.958 49.086Zm-6.931 31.189c-16.779 0-30.38-13.575-30.38-30.32s13.601-30.32 30.38-30.32a30.283 30.283 0 0 1 19.51 7.085l4.26-5.072C54.36 16.256 46.068 13 37.026 13 16.61 13 0 29.578 0 49.955s16.61 36.954 37.027 36.954c10.588 0 20.145-4.465 26.9-11.6l-4.82-4.542c-5.538 5.85-13.38 9.508-22.08 9.508Zm0-8.789c-11.915 0-21.574-9.64-21.574-21.531 0-11.892 9.659-21.532 21.574-21.532a21.503 21.503 0 0 1 13.852 5.035l3.197-3.807a26.466 26.466 0 0 0-17.05-6.204c-14.644 0-26.559 11.891-26.559 26.508 0 14.616 11.915 26.507 26.56 26.507 7.594 0 14.45-3.203 19.295-8.32l-3.626-3.418c-3.932 4.155-9.49 6.762-15.67 6.762Z"/>
</svg>