<svg xmlns="http://www.w3.org/2000/svg" viewBox="0 0 100 100">
	<path fill="#28334C" d="M39.693 13.543c.09.546-.182 1.001-1.092 1.456-1.182-.637-3.729-1-5.821-.819-2.274.182-4.184.91-3.911 2.456.364 1.546 2.547 2.456 6.458 2.092 9.55-.819 9.46-7.277 23.468-8.55 10.915-1 17.01 2.365 17.828 6.458.637 3.184-2.001 6.276-9.915 6.913-7.004.637-11.097-1.273-11.46-3.183-.183-1.001.363-2.456 3.729-2.82.364 1.546 2.274 3.183 6.822 2.729 3.274-.273 6.003-1.456 5.64-3.275-.364-1.91-3.821-3.002-9.279-2.547-11.097 1-13.826 7.095-23.286 7.914-6.73.636-12.188-1.82-12.916-5.458-.273-1.364-.273-4.548 6.822-5.185 3.638-.273 6.55.364 6.913 1.82ZM4.218 51.565C1.126 55.476-.239 60.025.034 64.481c.273 4.458 2.456 8.096 5.913 10.916 3.638 2.82 7.55 3.638 12.006 2.82 1.729-.273 3.639-1.183 5.367-1.729-3.638 0-6.731-1.182-9.824-3.638-3.365-2.456-5.64-5.913-6.185-10.097-.819-3.911 0-7.55 2.183-10.733 2.456-3.093 5.64-4.821 9.824-5.367 4.184-.273 7.822.819 11.46 3.366-.818-1.183-2-2.001-3.092-3.093-3.638-2.456-7.55-3.638-12.37-2.456-4.367.91-8.005 3.184-11.098 7.095Zm48.755-21.012c-11.734 0-22.194-1.182-29.744-2.82-8.095-2-12.37-4.184-12.37-7.004 0-1.182.545-2.183 2.182-3.365-5.093 2-7.822 3.638-7.822 6.185.273 2.82 4.82 5.64 14.099 7.823 8.732 2.183 19.92 3.365 33.382 3.365 13.736 0 24.65-1.182 33.383-3.365 9.278-2.183 13.735-5.094 13.735-7.823 0-2.001-2.001-3.911-5.64-5.367.82.546 1.456 1.456 1.456 2.456 0 2.82-4.184 5.094-12.644 7.004-7.822 1.729-17.828 2.911-30.017 2.911Zm33.474 7.823c-8.732 2-19.92 3.365-33.383 3.365-13.735 0-24.923-1.455-33.655-3.365-7.823-2.001-12.007-4.184-13.462-6.458 1.455 9.823 4.82 19.101 9.277 27.288 3.366 5.094 6.732 9.55 10.097 14.372a35.297 35.297 0 0 1 3.093 8.459c2.183 3.093 5.367 5.094 9.278 6.185a37.896 37.896 0 0 0 14.917 2.183h.546c5.094.273 10.46-.545 15.373-2.183 3.638-1.182 6.73-3.092 9.005-6.185h.273a34.253 34.253 0 0 1 2.82-8.46c3.365-4.82 6.73-9.277 10.096-14.371 4.457-8.096 7.55-17.374 9.278-27.289-1.82 2.547-6.003 4.73-13.553 6.459Z"/>
</svg>