<svg xmlns="http://www.w3.org/2000/svg" viewBox="0 0 100 100">
	<path fill="#002258" d="M0 17.5C0 7.835 7.835 0 17.5 0h65C92.165 0 100 7.835 100 17.5v65c0 9.665-7.835 17.5-17.5 17.5h-65C7.835 100 0 92.165 0 82.5v-65Z"/>
	<path fill="#7BADFF" d="M62.11 44.69c-1.293-.01-2.587-.011-3.88-.002-.38.002-.5-.256-.5-.608v-6.684a.376.376 0 0 1 .376-.377h4c.033 0 .05-.016.05-.049.003-.617.008-1.232.017-1.844.018-1.296.162-2.575.431-3.835.727-3.4 2.898-6.563 6.144-7.997 1.836-.81 3.622-1.017 5.58-.936 1.118.047 1.976.109 2.901.458.293.11.44.332.442.663.011 2.21.015 4.419.013 6.628 0 .225-.223.273-.418.251-.997-.11-1.885-.127-2.662-.051-3.638.353-3.269 4.068-3.263 6.665 0 .03.015.045.045.045 1.796.004 3.59.004 5.384.001.36 0 .713-.007.713.461 0 2.237 0 4.474.002 6.71 0 .345-.19.515-.57.512a398.008 398.008 0 0 0-5.528-.014c-.031 0-.047.016-.047.048v24.618c0 .23-.092.38-.275.451-.08.032-.235.048-.467.048h-7.89c-.584.001-.55-.44-.55-.926.002-8.063.001-16.126 0-24.19 0-.03-.016-.045-.047-.046ZM38.983 60.672c2.251 1.037 4.62 1.54 7.1 1.575 1.709.025 3.36-.054 4.954-.236a15.647 15.647 0 0 0 3.107-.696c.12-.04.311-.18.483-.18a.085.085 0 0 1 .07.034.551.551 0 0 1 .127.338c-.002 2.345-.002 4.69.002 7.035 0 .457-.3.7-.729.845a16.804 16.804 0 0 1-3.181.744c-5.422.725-11.183.564-16.31-1.591-5.412-2.275-9.438-6.646-11.164-12.268-.99-3.227-1.259-6.399-1.09-9.773.104-2.11.535-4.231 1.292-6.366 1.953-5.507 5.87-9.683 11.232-11.986a26.77 26.77 0 0 1 9.602-2.143 54.81 54.81 0 0 1 6.001.16 17.85 17.85 0 0 1 4.074.783c.319.103.598.323.598.657 0 2.504 0 5.008-.003 7.513 0 .345-.129.531-.487.368a14.278 14.278 0 0 0-3.766-1.123 33.22 33.22 0 0 0-5.937-.376c-1.813.046-3.602.444-5.367 1.191-4.78 2.025-7.504 6.501-7.803 11.635a20.447 20.447 0 0 0 .161 4.04c.6 4.29 3.053 7.987 7.034 9.82Z"/>
</svg>