<svg xmlns="http://www.w3.org/2000/svg" viewBox="0 0 100 100">
	<path fill="#fff" d="M100 0c-1.32 26.768-5.225 51.494-15.65 74.775-8.003 17.87-26.3 27.17-46.933 24.553C20.457 97.178 4.904 82.67 1.118 65.47-3.107 46.278 4.821 26.2 21.846 17.46 45.88 5.123 72.154 1.613 100 0Z"/>
	<path fill="#AE0E10" fill-opacity=".3" d="M84.754 73.863c-.133.304-.269.608-.404.912-8.003 17.87-26.3 27.17-46.933 24.553C20.794 97.22 5.524 83.243 1.357 66.493 8.066 89.248 37.853 93.06 46.53 93.06c12.105 0 14.645-1.881 26.63-10.762 3.115-2.31 6.868-5.09 11.594-8.435Z"/>
	<path fill="#E21708" d="M44.488 29.75s-2.304 12.768-3.221 19.237C36.6 45.35 27.364 38.732 27.364 38.732s7.246 9.745 10.668 14.097c-6.5.737-19.53 2.765-19.53 2.765s13.326 2.143 19.531 2.86c-3.599 4.558-10.702 13.799-10.702 13.799s9.65-6.666 13.986-10.007c.884 6.2 3.171 19.407 3.171 19.407s2.092-13.195 2.887-19.626a4669.833 4669.833 0 0 0 13.338 10.32s-6.306-9.438-9.758-13.897c6.271-.736 19.015-2.856 19.015-2.856S57.102 53.544 51 52.84c3.158-4.28 9.773-14.112 9.773-14.112s-9.27 7.19-13.406 10.5c-.765-6.389-2.879-19.477-2.879-19.477ZM100.01.18c-1.32 26.768-5.225 51.494-15.65 74.775-8.003 17.87-26.3 27.17-46.933 24.553C20.467 97.358 4.914 82.85 1.128 65.65c-4.225-19.192 3.703-39.27 20.728-48.01C45.89 5.304 72.164 1.793 100.01.18Z"/>
	<path fill="#FA524A" fill-opacity=".3" d="M2.422 40.622c1.522-4.481 3.746-8.666 6.622-12.353a60.545 60.545 0 0 1 3.634-4.05 38.34 38.34 0 0 1 3.77-3.213 49.571 49.571 0 0 1 4.014-2.619c.457-.259.922-.51 1.394-.752 5.82-2.987 11.769-5.457 17.841-7.507C55.44 4.813 72 2.313 89.211.917 93.457.593 97.13.38 100.01.18 70.712 6.5 55.147 12.716 36.19 21.006 17.233 29.296 1.05 47.307.192 52.464c.505-4.666 1.213-8.501 2.23-11.842Z"/>
</svg>