<svg xmlns="http://www.w3.org/2000/svg" viewBox="0 0 100 100">
	<path fill="#7d6a4c" d="m65.2 83.1 13.3-5.4.2-4.7 2.3-4.8.5-5.3c3.1-9.5 1.9-6.2 5.5-14.6-.3-2-.1-1.3-.7-3l.3-1.7-.5-2 .3-1.4-2.6-3.2-11.6 4.1.5 1.5-1.1 1.8 1 3.1-1.6 3.1 2.2 6.7 4.8 2.5c-.2.1-6.1-.5-6.1-.5l1.4 2.8-1.6 4.4c-2.3 1.1-1.5.8-3.5 1.5l-3.1 3.6-2.1 5.8 2 5.6.2.1zm-48.9-40 11.8 1.3 1.5 7.5-2.5 6.1 1.4 1 2.5 6.9 2.9 3.2c4.8 2.9.5.8 9.6 7.6L42 79.8l.2 2.3c-.6 1.6-.3.8-1.4 3.8l-8.5-2.5.2-1.4-1.2-1.6.4-1.5-11.6-8.5-.9-2.2-2.5-.8-.1-18.3-1-2.6.7-3.4z"/>
	<path fill="#644d31" d="M75.6 56.5c-.4 0-.7.1-.7.7l1.8.6c0-.8.2-1.2-1.1-1.3zm.3 6.1c.1.1.1.1.1.2.3.3.5.6.7.9.1-.9.3-1.2-.8-1.1zm5-6.2c-.1 0-.2.2-.1.2.2 0 .2-.2.1-.2zm0-10.9c0 .6 0 .9.7.9s1.1 0 1.2-.7c0-1.2-.1-1-1-1.1-.8 0-.9.1-.9.9zm-2.2 4.8c.1-.2 0-1.5-.1-1.6-.2-.3-1.2-.2-1.4 0-.3.2-.3 1.5 0 1.6.2.1 1.3.2 1.5 0zm-38 29.9c.1 0 0-.7 0-.8v-.9c-1.5 0-1.7-.4-1.7 1 0 .4 0 .6.4.7.2.1.8.1 1.2 0h.1zm1.2-1.5h-.1c-.2.1-.4.1-.7.1 0 .1.1.5 0 .6v.4c0 .3.1.3.1.4h.2c-.1-.5.3-1 .5-1.5zm-.8 2s0 .1 0 0c0 .1 0 .1 0 0l-.1.1V82c.1.2.2.2.3.2h.4c0-.4-.2-1.2-.3-1.5h-.3zm.2 1.9c-.3.1-.3.1-.3 1 .5-.2.7-.6.7-1.1 0 0-.3.1-.4.1zm24.3-2.2c1 0 1.2.1 1.2-.9 0-.3-.1-.7-.2-.8-.2-.1-1.3-.2-1.5-.1-.3.2-.1.8-.2 1.3v.1c.1.3.1.3.1.4h.3c.2-.1.3-.1.3 0zm16.5-23.8c-.3 0-1-.1-1.2.2-.1.2-.1 1.2.1 1.4.2.3 1.1.2 1.4.2-.1-.2-.1-.4.1-.9-.2-.4.3-.8-.4-.9zM21.3 46.3c.3.2 1.4.2 1.5-.2.1-.3-.3-1.5.3-1.5-.1-.1-.3-.1-.4-.1-.4.3-1.2-.2-1.5.2-.3.3-.2 1.5.1 1.6zm55.3 30.4c-.3-.2-1.3-.3-1.5 0-.2.2-.2 1.2-.1 1.4.2.3.8.1 1.5.1 0 0 .1 0 .1-.1v-1.4zm-5.2-2.2c-.5 0-.4.6-.4 1 0 .6-.1.8.6.8.3 0 .9.1 1.2-.2.2-.3-.1-1 .1-1.3-.2-.2-.1-.3-.4-.2-.4 0-.4-.1-1.1-.1zm-41 .1c-1.5-.2-1.4.1-1.3 1.6 0 0 .1 0 .1.1l.1-.1v.1l.2.2c1.1-.3 1.4.5 1.4-.9-.1-.6 0-1-.5-1zM74 42.3h.4c.1-.1.2-.2.3-.2v-.2s-.1-.5-.2-.8c-.5.3-.7.1-.6.8.1.2.1.3.1.4zm.3 2c.4 0 .3-.8.3-1.1v-.3c-.1 0-.2-.1-.3-.3h-.5c-.2.5-.7 1-1.1 1.4v.2c.6.2 1.2.1 1.6.1zm4.3 12.4c-.2-.2-1.3-.2-1.5 0-.3.3 0 .9-.2 1.3.7.4.6.4.7.5.1-.1.2-.1.3 0 .3-.1.7.1.9-.2.1-.3 0-1.5-.2-1.6zm-59.9 7.9c-.3-.3-1 0-1.4-.2-.1.7-.4 1.2-.2 1.8.4 0 1.8.3 1.8-.5-.1-.2.1-.8-.2-1.1zm59.9-.4c.3-.2.1-1 .1-1.3 0-.5-1.2-.5-1.5-.3-.5.2-.2 1-.4 1.4.1.1.1.2.2.3.5 0 1.3.2 1.6-.1zm3.8-23.8c.3 0 .4-.3.4-.7 0 .3.1.5.1.4.1.3.5.3.6.3.4 0 .9.1 1.1-.3.1-.1.1-1.1 0-1.3-.2-.3-.4-.1-.8-.1-.7 0-1 0-1.1.7-.1-1.2-.9-.4-1.3-.8-.1 0-.1 0-.2.1 0 .2-.2.3-.4.3 0 .3-.1 1.1.1 1.3.3.2 1.2.1 1.5.1zM33.6 82.3c.4 0 .9.1 1.1-.2.2-.2.2-1.2 0-1.4-.1-.2-1.2-.2-1.4-.1-.4.2-.2.8-.3 1.2.1.2.4.4.6.5zm33.7-9.7c-.4 0-.3.6-.3 1.3 0 .3.1.4.5.4 1.3.1 1.1.1 1.3-.9 0-.3-.1-.5-.1-.8h-1.4zm-42.8-2c-.3 0-1.1-.2-1.3.1-.2.2-.1 1.2-.1 1.3.2.2.3.3.5.4h.2c.5-.2 1 .2 1-.5.1-.4.2-1.3-.3-1.3zm54.2-9.4v-.4c-.5-.2-1-.3-1.6-.3-.1.4-.2 1.1 0 1.5.1.3.3.3.6.3 1.4.1 1-.1 1.1-1-.1 0-.1 0-.1-.1zm-7.2 17.3c-.2.1-.3 0-.3-.1-.2.4-.3 1.6 0 1.8.1.1.2 0 .4 0 .2-.1.6-.2.8-.1.2-.1.3-.2.5-.2h-.1.1c-.6-.3.8-1.5-1.4-1.4zm-4.9-3.9c-.4-.1-.8 0-1.2 0-.2.3-.3.7-.5 1 .1.4 0 1 1.4.7.7-.1.3-.9.5-1.5 0-.1-.1-.1-.1-.2h-.1zm-40.1-20c-.3 0-1-.1-1.2 0-.3.2-.2.6-.2.9 0 1 0 .9 1 1 .2-.3.4-.4.5-.6.1-.2.1-.3.2-.5.1-.4 0-.8-.3-.8zm12.9 27.9c-.3.1-.4.2-.4.5-.1 1.4-.1 1.2 1.3 1.2.1-.3.4-.4.6-.6-.2-.3.4-1.4-1.5-1.1zM76.7 62c.1-.3.1-1.2-.2-1.4-.2-.1-1.2-.1-1.4 0-.2.2-.1.5-.1.7v.5l.5.5c.1 0 .1 0 .1.1.5-.2 1 .1 1.1-.4zm-56.4 2.6c-.8.1-1.2-.2-1.2.8-.1 1.6.6.6.9 1 .2-.2.6-.5.7-.2v.1c.2-.3.4-1.8-.4-1.7zM75 42c.1.6 1.5.5 1.7.2.1-.2.1-.9.1-1.2 0-.3-.1-.5-.5-.5-1 .3-.8.3-1.3.5.1.3.1.5.1.8 0 .1-.1.2-.1.2zM31.3 76.6c-.4.1-.3.5-.3 1.1.2.1 0 .1.8.6.1-.1.3-.1.4 0 .8 0 .5-.5.5-1.4.1-.5-1-.4-1.4-.3zm5.1 5.9c-1.6-.3-1.4.5-1.4 1.4.6.2 1.2.3 1.8.5-.1-.4.4-1.8-.4-1.9zM71 76.7c.1.6.1 1.2.4 1.7.6-.3 1.2.3 1.4-.5 0-.2.1-.9 0-1.1-.3-.4-1.5-.3-1.8-.1zm-3.4-4.4c.4 0 .8-.1 1.1.1-.1-.5-.2-1.1-.2-1.6 0-.2.2-1.1 0-1.2-.3-.1-1.3 1.7-1.5 1.9.1.5 0 .9.6.8zm18.5-25.7h-.5c-.1.1-.4.2-.6.3-.1.3 0 .6 0 .8 0 .2 0 .5.2.6.3.2.9.1 1.2 0v.3h-.5c-1.2-.1-.9.4-.9 1 0 .7-.1.7.7.9.2-.6.7-1.1.7-1.8.1-.2 0 0 .4-1.6-.2-.1-.4-.4-.7-.5zm-12.6 4c-.1.5-.3.9-.3 1.4.1.1.3.2.3.4 1.5.1 1.3-.1 1.3-.8-.1-1.5-.5-.8-1.3-1zm-4.7 30.3c0 .1 0 0 0 0-.1-.4-.4-.3-.7-.3-.2 0-.8-.1-1 .1-.3.3-.2 1.5.2 1.7.5-.2 1.1-.5 1.6-.7-.1-.1-.2-.2-.2-.4.1-.1.1-.3.1-.4zm4.4-12.4c0 .7-.2 1.4 0 2 .1-.5 1.2.1 1.5-.4.1-.2.1-.8.1-1.1 0-.8-.5-.2-1.6-.5zm1.5-23.7c0-.2-1.7-.4-1.8.2.2.5.4 1 .8 1.4.3-.1.5-.2.6-.1.9.1.3-1 .4-1.5zm4.6 13.8c-.6.2-.1.6-.4.9l.1.1c.4.1.8.3.9.7.3 0 .6.1.8-.1.1-.2.1-1.3 0-1.5-.2-.2-1.1-.2-1.4-.1zM27.1 67c-.2 1.5.3 1.3.7 1.4.5 0 1.1.1 1.1-.6l-.6-.9c-.4.1-.8.1-1.2.1zm-1.2-4.5c-.3.5-.6.9-.9 1.5.1.4.4.4.7.4.3 0 .9.1 1.1-.2.1-.2.1-1.2 0-1.3-.2-.5-.6-.2-.9-.4zm5.9 7.2c.5.3-.6.2-.7.2.1 0 0 0 0 0 0 .7 1.7.7 1.7-.3-.3 0-.3-.3-.3-.5-.6-.5-1.2-1.2-1.5-1.6.1.8 0 1.7.8 2.2zm42.5.8c-.4.1-.7 0-1.1 0 0 .7 0 1.3.1 1.8 1.1 0 1.5.3 1.5-1 0-.4-.1-.8-.5-.8zm.1 5.8c.4-.2.3-.5.3-.9 0-.3.2-.8-.3-.8-.3 0-.6.1-.9-.1.1.4.1.7.1 1.1l-.7-.7c0 .2-.2 1.1.1 1.3.3.2 1.2.2 1.4.1zm-.2-9.7c-.2-.1-.6.1-.7-.2-.2.7-.2 1.3-.2 2 .9-.4 1.6.6 1.6-1.3-.1-.5-.3-.5-.7-.5zm-50.9-6c-.3.2-.2.7-.2 1 0 .6.1.7 1.1.7.2-.5.4-1.1.5-1.7-.3-.1-1.1-.2-1.4 0zM84 52.8h.2c-.2 0-.4.1-.4-.2-.9-.1-1 .2-1 .8 0 .5 0 .9.4 1 .1-.1.3 0 .7 0-.1-.1-.2-.1-.3-.1.1 0 .2 0 .3.1h.1c.2-.5.5-1 .7-1.5-.2 0-.3 0-.4-.1H84zM39.2 74.5c-.1.4-.4 1.7.2 1.8 1.9.3 1.3-.4 1.5-.7-.5-.6-1.1-.8-1.7-1.1zm40-33.5c0-.1.2-.2.2-.3H79v.4c.1-.1.1-.2.2-.1zm-.1-.7h1.6c.2-.3.1-.8.1-1.2h-.4v-.3c-.2.1-.3.1-.5.2 0 .1-.5.4-.9.6v.5c0 .1 0 .2.1.2zm.5 2.1c.4 0 1 .2 1.2-.3.1-.3-.1-.6-.1-.9v-.4h-.5c-.1 0-.1.1-.2.1.1 0 .1-.1.1-.1h-.6c-.1.1-.2.2-.2.3-.1 0-.1 0-.2.1-.1.6-.3 1.1.5 1.2zM69.3 76.2h.4c-.2-.6-.4-1.2-.7-1.8-.1.4-.2 1.6.3 1.8zm0 .4c-.5.1-.3.9-.2 1.5.1.1.1.1.1.2.1.1 1.4.2 1.7-.2l-.9-1.5h-.7zM26.9 45.1c-2.6-.4-2.5-.4-3.8-.5-.1.4 0 .9 0 1.3 0 .5.3.4.8.4.3 0 .7.1.9-.3.1-.4-.1-.8.2-1.2.3.7-.3 1.4.7 1.4.2 0 .8.1 1 0 .3-.1.2-1 .2-1.1zm-8.1 18c0-.7-.6-.5-1.2-.6-.2.6-.2 1.2-.3 1.8 1.6.1 1.6 0 1.5-1.2zm7.2 9.4c-.8 0-1 .2-1 .8.5.4 1 .8 1.6 1.1.3-.3.3-1.3.2-1.6-.1-.4-.5-.3-.8-.3zm2.4-20.1c.1-.7 0-.7-.1-1.8-.9 0-1.1-.1-1.2.3V52c.1.5.8.4 1.3.4zm37.2 28.2c-.1.1-.2.1-.4.1.1.4.2 1.2.5 1.6.1 0 .2 0 .3.1.3-.1.8.3.8-.9 0-.6-.4-.9-1.2-.9zm8.8-8h-1.1c.1.6.2 1.2.2 1.8.4-.2 1 .1 1.2-.4.1-.4.2-1.5-.3-1.4zm.3-7.5v-.2c0-.2-.1-.2-.3-.2-.7.3-.8.8-.9 1l-.1.6c.3 0 .9.1 1.2-.2 0-.6.1-.7.1-1zm5.2-4.5c.2.2.8.9.4.9-.2 0-.4-.3-1.3-.5 0 .2.1.2 0 .3 0 .4-.1.8.2 1 .2.2 1.2.1 1.4 0 .3-.2.2-1 .2-1.3-.2-.5-.5-.4-.9-.4zm-62.1 0c-.1.2-.1.4-.3.6.1 1.2.1 1.1.1 1.2.7 0 1.2.2 1.2-.6 0-.3.1-.9-.1-1.1-.2-.3-.6-.1-.9-.1zm11.7 7.9c-.1 0-.1 0 0 0-.5.1-.7 1.4-.3 1.7.1.1.5.1.7.1.4 0 .9.1 1-.5-.6-.3-1-.9-1.4-1.3-.1 0-.1 0 0 0zm12.3 8c-.2.1-.5 0-.6.2-.2.2-.1.7-.1.9 0 .7.2.6.6.7.1 0 .1.1.4.1.6-1 .4-1.2-.3-1.9zm44.4-33.6s-.1.1 0 0c-.9.1-.8 0-1 1.1 1.1.4 1.3.5 1.3-.9-.1-.1-.1-.3-.1-.4h-.1c0 .1 0 .2-.1.2zM38.6 76.3c.3-.4.3-1.3-.2-1.4-.2.1-.6.1-.8.1-.2.2-.3.4-.5.6.1.2 0 .4-.1.5 0 .1-.1.2-.1.2.5.2 1.5.3 1.7 0zm35.8-27.7c-.1.1-.3.1-.3.1-.1.1-.1.2-.3.2v.1c0 .5-.1.9-.2 1.4.4 0 1 .1 1.2-.3 0-.4.1-1.5-.4-1.5zm.3-.9c0-.7.2-1.1-.5-1.1l-.3.1c.3.5.5 1 .2 1.6h.3c.2-.1.3-.2.3-.6zm9.3-5.1c-.7 0-1.2.1-1 1 0 .2.1.3.1.4.5-.5 1.1-.2 1.7-.1 0-.1 0-.1-.1-.2-.1-.7.3-1.1-.7-1.1zM72.5 74.3c-.4-.5-.6-1.2-.8-1.8-.2 0-.3.2-.5.1-.4.1-.3 1-.2 1.4.2.5 1 .3 1.5.3zm1.4-19.9c.2-.2.5 0 .8-.2.2-.2.1-1 .1-1.2 0-.5-.7-.3-1.2-.3 0 .1 0 .2-.1.4.1.4.2.8.4 1.3zM78.8 65c-.1 0-.1 0 0 0 0-.7-1.1-.5-1.5-.5.3.5.5 1.2.7 1.7 1 .1.8 0 .8-1.2zM27.6 48.6c-.7-.1-.5.7-.5 1.2 0 .8.6.4 1.2.7-.1-.7-.3-1.4-.4-2.1-.1.1-.2.2-.3.2zm39.1 24.8c0-.8 0-.8-.7-.8-.2.6-.4 1.1-.6 1.7 1.2 0 1.3.2 1.3-.9zm-31.9 9.5c-.1-.4-.7-.4-1.2-.4-.1.1-.2.1-.3 0v.6c0 .6 1.1.6 1.6.7-.1-.1-.1-1.2-.1-.9zM28.1 66c0-.4-.1-.8-.2-1.1l-.3-.3c-.8.1-.7.3-.6 1.3.1.5.8.3 1.1.1zm46.3 12.5c-1.4.1-1.4-.5-1.4 1.4.5-.2 1-.5 1.6-.7 0-.1.1-.3.2-.4v-.1c-.2-.1-.2-.2-.4-.2zm11.2-36.1c0-.1.3-.1.3-.1-.2-.3-.3-1 0-1.5 0 0 0-.1.1-.2-.9-.1-1.1 0-1.1.7.1.3 0 1.1.7 1.1zm-58.4 3.8h.3c-.1-.3-.2-.7-.4-1 0 0-.1 0-.1-.1.2.6-.1.6.2 1.1zm-.1 1.4c0 .1 0 .3 0 0 0 .8 0 .8.8.8 0-.1-.1-.9-.2-1.8h-.3c-.5.5-.3 0-.3 1zM25 57.8c0 .3.1.4.3.5 0-.1.1-.3.1-.4.1-.4.3-.8.5-1.2-.3.1-.7 0-.7.5v-.1.1c0 .2 0 .4.1.6-.1-.2-.2-.6-.1-.8.1-.3.4-.3.7-.4 0 0 .1-.1.1-.2-.7 0-.9 0-1 .2 0 .5.1 1.1 0 1.2zm2.6 16.8c-.5 0-.5.1-.6.2.5.5 1.1.8 1.6 1.2 0 0 .1 0 .1.1.1-1.4.3-1.5-1.1-1.5zm-.3-20.1c.3-.6.6-1.2 1-1.7v-.2h-.9c-.5.2-.4 1.2-.1 1.9zm9.4 22.1c-.5.6-1 1.1-1.5 1.7 1.7 0 1.7.3 1.5-1.7.1.1.1 0 0 0zm38.4-11.7c0 .3-.2.4-.1 1.2.1.3.2.2 1.6.2-.5-.5-.9-1.1-1.5-1.4zM71 72.1c.1.1.2.2.3.2.1-.1.1-.1.3-.2-.2-.1-.3-.4-.3-.6 0 .3.1.5.3.6h.1c-.2-1-.3-2.1-.3-3.1h-.1c-.4 2.5-.4 1.8-.4 2.3v-.2c.3.3 0 .8.1 1zm-.6 8.5c-.8 0-1.5-.3-1.5.7v.4c.6-.3 1.2-.5 1.8-.8 0-.1-.1-.3-.3-.3zm4.3-25.3c0-.7-.2-.6-.8-.8.6 2 .1 2.5.7 2.6v-.3c-.3-.7 0-.6.1-1 .1-.1 0-.3 0-.5zm-47.1 7.2c-.5.2-.6.4-.6.9 0 .6.1.9.6.9 0-.2 0-.4.2-.6-.1-.4-.1-.8-.2-1.2zm58.6-22.1.1-.2c-.2-.4-1.1-1.3-1.3-1.5.1.3 0 .7 0 .9-.1 1.1.5.5 1.2.8zM21.6 70.7c.2.3.4.6.5.8.2.2.5.3.7.5v.2c0-1.7.1-1.4-1.2-1.5zm-.9-4.2c-.2.6-.6 1.2-.7 1.8 1 0 .9 0 .9-.9-.1-.3 0-.7-.2-.9zm7-6c-.2.1-.4 0-.5.2-.1.2 0 .6 0 .8 0 .5 0 .7.5.8-.1-.3-.3-.4-.3-.8 0 .3.2.5.3.7-.1-.4-.1-1.1 0-1.7zm-10.6 6.1c0 .2.8.7 1.3.8.1-.1.2-.2.3-.4 0 0 0-.1.1-.1-.1-.5-1.1-.3-1.7-.3zm66.2-12c-.5.2-.3 1.6-.2 2 .3-.7.5-1.3.8-2h-.6zM19.9 68.4c-.3.5.5 1.2.9 1.6.1-.5-.6-1.1-.9-1.6zm20 16.1c-.1 0-.1 0 0 0h-.1c-.4 0-.8.1-.9.5 1.2.6 1.2.5 1.4-.6-.1.1-.4.2-.4.1zm-6.6-14.2c.2.1.7.1 1.1 0-.2-.3-.1 0-.2-.4-.3-.2-.9-.5-.9-.5s-.2 0-.2.1c-.1.4-.1.7.2.8zm1.9 3.9.3.3c-.4.1-.3.4-.3.7 0 .3-.2.9.2 1.1V76c0-.2.1-1.3.1-1.5.2-.2.1-1 .1-1.7-.1 0-.2-.1-.3-.3-.4.3-.3 1.4-.1 1.7zM78 40.4c.4 0 .5-.1.6-.3v-.3c-.2 0-.4.1-.6.1-.4.2-.5.2-1.1.4.5.2 1 .1 1.1.1zm0 26.5c.2.5.4 1 .4 1.7.3-.3.4-.9.3-1.3-.1-.5-.5-.4-.7-.4zM18.3 44.4c.4 0 .6-.3.9-.3 0 .6 1.1.3 1.7.2-.4-.2-1.2-.2-1.7-.2-.6-.2-1.2-.2-1.8-.3.2.4-.2.6.9.6zm55.1 16.2 1.3 1V61.3c.1-.9-.1-.7-1.3-.7zm-43.7 16c.1.1.1.2.8.8.1 0 .2 0 .2.1 0-.1-.1-.2.1-.3 0-.5-.2-.6-1.1-.6zm54.9-38.2c-.5-.6-1-.8-1.7-.3.2.2.6.3 1.7.3zM25.9 62.3c.9 0 .9.1.9-1.3h-.1c-.2.5-.5.9-.8 1.3zm51.9 6c-.2-.5-.4-1-.7-1.4-.2 1.1-.4 1.2.7 1.4zm-.8 9.8.3-.3c-.1-.3.1-1.1.1-1.3-.3 0-.5 1-.4 1.6zm7.9-26.9v.7c.2-.4.5-.9.6-1.3-.5 0-.6.1-.6.6zM38.3 84.5h-.9c.4.2.9.4 1.4.5 0-.3 0-.5-.5-.5zm39.8-25.9h-.3c.3.3.6.5.9.7.1-.6 0-.7-.6-.7zm-54 14.1c.2.2.4.5.7.6v.1c0-.9-.3-.5-.7-.7zm17.5 3.6-.3-.3c-.1 0-.2-.1-.2-.2 0 .5 0 .5.5.5zm-7.7 4c.5 0 .9.1.9-1.1 0-.6-.2-.6-.9-.6s-.9 0-.9.7c.1.9.1 1 .9 1zm-8-31.7c-.4 0-.8-.1-.8.9 0 .7.1.9.9.9s.9-.1.9-.9c0-.5 0-.9-1-.9zm-.8 21.1c0 .4 0 .5.4.6.3.1.7 0 1 0 .5-.1.4-.5.4-.9 0-.6 0-.8-.6-.8-.3 0-.8-.1-1.1.1-.3.2-.1.7-.1 1zm-1.2-3.1c-.8 0-.8.1-.8.8 0 .6 0 .8.6.9.9.1 1.1 0 1.2-.9 0-.6-.3-.8-1-.8zm14.3 12c-.2 0-.9-.1-1 .1-.3.2-.1.8-.1 1.1 0 .7.5.6 1 .6s.7 0 .7-.5c.1-.7.2-1.3-.6-1.3zm-17.1-29c0 .8.4.7 1.1.7.7 0 .6-.5.6-1 0-.7-.2-.8-.9-.8-.7.1-.8.4-.8 1.1zm.9 12.7c.7 0 .9-.1.9-.8 0-1-.2-1-.9-1-.6 0-1 0-.9 1.1 0 .6.2.7.9.7zm14.8 17.1c0-.6 0-.9-.6-.9-1.3 0-1.1 0-1.1 1.1 0 .7.3.7.9.7.7 0 .8-.1.8-.9zM25.1 53.7c0 .8.4.7 1.1.7.7 0 .7-.1.7-.8 0-.8 0-1-.9-1s-1 .2-.9 1.1zm-2.3 9.7c-.1-.7-.2-.8-.9-.8-.8 0-.9.1-.9.9 0 .7.1.8.7.9.8 0 1.2-.2 1.1-1zm1.1-13c.8 0 .9-.1.9-.9s-.1-.9-.9-.9-.8.2-.8.9c0 .8 0 .9.8.9zM38 78.3c.7 0 .8-.1.8-.9 0-.7 0-.9-1-.9-.6 0-.8.1-.8.8 0 .9.2 1 1 1zM23.9 46.6c-.8 0-.9.2-.9 1s.3.8 1 .8.7-.2.7-.8v-.2c.1-.8 0-.8-.8-.8zm16.1 30c-.8 0-1.1-.1-1.1.8 0 .7 0 1 1.1 1 .6 0 .8.1.8-1.3 0-.6-.3-.5-.8-.5zm-5.2.6v.2c0-.8-.1-.9-.9-.9-.7 0-.9.1-.9.9s.1.9.9.9c.7 0 .8-.1.8-.9.1-.1.1-.1.1-.2zM28 70.6c-.8 0-.9.1-.9.9s.2.9 1 .9c.7 0 .7-.2.7-.9 0-.8-.1-.9-.8-.9zm2 2c-.6 0-.9 0-.9.7 0 .8 0 1.1.8 1.1.2 0 .7.1.8-.1.1-.2 0-.8.1-1 .1-.8-.1-.7-.8-.7zm-7.8-14.3c.5 0 .6-.1.6-.7 0-.8-.2-1.1-1-1-.8 0-.8.2-.8.9.1.8.1.8 1.2.8zM26 70.6c-.6 0-.9-.1-.9 1 0 .7.2.7.9.7.5 0 .8.1.8-1 0-.6-.1-.8-.8-.7zm0-4c-.7 0-.9 0-.9.7 0 .8.1 1 .9 1s.9-.1.9-.9c-.1-.6-.4-.8-.9-.8zm-.9-19.5c-.1 1.2-.1 1.4 1.3 1.3.6-.1.5-.6.5-1 0-.7-.2-.7-.9-.7-.6 0-.9-.3-.9.4zm6.6 25.2c.6 0 1.1.1 1.1-.6 0-.8.1-1.1-.8-1.2-.6-.1-1-.1-1 .6s-.1 1.2.7 1.2zm-5.8-7.7c-.8 0-.9.4-.8 1.2.1.7.5.5 1.1.5.8 0 .7-.5.7-1.2-.1-.5-.5-.5-1-.5zm7.6 6c-.6 0-.4.3-.4.8 0 .4-.2.8.3 1 .2.1 1 .1 1.2 0 .3-.1.2-.5.2-.8 0-.4.1-.5-.2-.9-.3-.2-.9-.1-1.1-.1zm4.1 11.9c-.7.1-.6.6-.5 1.2 0 .7.5.6 1.1.6.8 0 .8-.3.7-1-.2-.8-.5-.8-1.3-.8zM26 50.6c-.7 0-.9.1-.9.8 0 .7-.1.9.9.9.6 0 .9.1.9-.9-.1-.7-.2-.8-.9-.8zm-4 5.7c.8 0 .9-.1.9-.9s0-.9-.8-.9-.9.1-.9.9c-.1.8 0 .9.8.9zm12 16.3c-.8 0-.9-.1-.9 1-.1.8.4.7 1.2.7.6 0 .6-.1.6-.7-.1-.8-.1-1-.9-1zm-13.8-8.3c.4 0 .6-.1.7-.5.1-.6.1-1.2-.6-1.2-1.1 0-1.2-.2-1.1.8-.1.8-.1.9 1 .9zm.2-7.7c-.3 0-.9-.1-1.1 0-.3.2-.2.6-.2.9 0 .7 0 .8.7.8.4 0 .8.1.9-.3s.3-1.4-.3-1.4zm20.3 24c-.3-.2-.5-.1-.7-.1-.3 0-.7-.1-.9.2-.1.2 0 .7 0 .9 0 .6.3.6.8.6.3 0 .7 0 .8-.1-.1-.4 0-1.2 0-1.5zM28 68.6c-.8 0-.9.2-.9 1 0 .7.2.8.9.8s.9-.1.9-.7c-.1-.9-.1-1.1-.9-1.1zm-6 1.7c.7 0 .8-.2.8-.9.1-.8-.1-.8-.8-.8-.9 0-.9.2-.9 1.1 0 .7.2.6.9.6zm2.4-17.7c-.6 0-1.4-.3-1.3.6 0 .2 0 1 .1 1.1.2.2 1.1.2 1.4.1.4-.2.3-.5.2-.8v-.4c0-.2 0-.6-.4-.6zm-2.5-4.2c.7 0 .9-.1.9-.9s-.2-.9-1-.9c-.7 0-.7.2-.7.9s.1.8.8.9zm.8 16.2c-.2-.2-.7-.1-.9 0-.7 0-.8.1-.7.8 0 .8 0 1 .9 1h.2c.6 0 .7-.2.7-1-.1-.2 0-.6-.2-.8zm-1.6-13c.1 1 .4.8 1.1.8 0-.1.2-.1.5-.1.5-1.7 0-1.9-1.1-1.7-.5.1-.6.5-.5 1zm.3 2.7c.3.1 1.3.1 1.4-.2.1-.3.1-1.3-.1-1.5h-.4c-.9-.1-1.3-.1-1.3.8 0 .4.1.8.4.9zm8.5 16.3c-.4 0-.8-.1-.9.4 0 .2 0 1 .2 1.2.2.2.9.2 1.2.1.5-.1.4-.4.4-.9.1-1 0-.8-.9-.8zm2 5.7c.7 0 .9-.1.9-.8 0-.7-.1-.9-.8-.9-.7 0-.9 0-1 .8.1.7.1.9.9.9zm-8.7-21.7c-.2.2-.3 1-.3 1.2 0 .5.1.5.6.5.9 0 1.2.1 1.2-.7 0-.2.2-.9 0-1-.2-.1-1.3-.1-1.5 0zm-.4 4.7c0-.4.1-.8-.4-.7-.8 0-1.3-.2-1.3.7 0 .8 0 1 .8 1 1.1.1.9 0 .9-1zm11.3 17.1c.7 0 .7-.3.7-.8 0-1-.1-1-.9-1s-.8.1-.8.9-.3.9 1 .9zM24 68.6c-.6 0-1-.1-.9.6 0 .2.1.3.1.5 0 .1-.1.3 0 .4.1.4.8.3 1.2.3.7 0 .5-.4.5-.9 0-.9-.1-.9-.9-.9zm-4.4-14.3c1.5.1 1.2-.1 1.3-1.3 0-.2 0-.4-.3-.4s-.7.1-.9 0c-.6-.1-.6.2-.6.7 0 .5-.2 1 .5 1zm18.6 26.3c-1.4-.1-1.1 0-1.1 1.3v-.2c0 .8.4.6 1.2.6.7 0 .5-.2.6-.8-.1-.6-.1-.9-.7-.9zm-17.9-30c-.9.1-1.3-.3-1.3.9 0 .7 0 .8.7.8.5 0 1 .2 1.1-.3.1-.5.2-1.5-.5-1.4zM19.1 46c.1.4.4.4.7.4.9 0 1 0 1-.9 0-.4 0-.6-.4-.8-1.2-.4-1.5 0-1.3 1.3zm1.7 3.8c0-.4.1-.9-.3-1-.3-.1-1.3-.2-1.4.1-.1.2-.1 1 0 1.3.3.6 1.7.2 1.7-.4zm-1.5 12.5c.2.1 1.2.1 1.4 0 .3-.2.1-1.1.1-1.4 0-.4-.6-.3-.9-.3-.2 0-.6-.1-.8.1-.2.3-.1 1.4.2 1.6zm-2.1-16.1c.3.2 1.2.3 1.4 0 .3-.2.3-1.5-.1-1.7-.3-.2-1.5-.3-1.5.3.2.6.2 1 .2 1.4zM32 72.5c-.7 0-.9.2-.9.8 0 .8.1 1 .9 1 .9 0 .9-.2.9-.9-.1-.7-.2-.9-.9-.9zm-7.2-14.8c0-.7.1-1.1-.7-1.1-.6 0-1-.2-1.1.5-.1.8-.1 1.1.7 1.2.8.1 1.1.2 1.1-.6zm-4.8.9c-.7 0-.9.1-.9 1.2 0 .5.2.6.9.5.6 0 .8 0 .8-.8 0-.7 0-.9-.8-.9zm1.5 9.7c.4 0 .9.1 1.1-.3.1-.2.2-.7.2-.9-.1-.6-.7-.6-1.2-.6-.7 0-.6.8-.6 1.3 0 .6.1.5.5.5zm-2.2-11.8c.2.2 1.2 0 1.4-.2.3-.3.4-1.7-.2-1.7-1.6.1-1.4.2-1.4 1.2 0 .3-.1.5.2.7zm5.2-5.9c-.3-.1-1.2-.1-1.4.2-.1.2-.1.8-.1 1 0 .3 0 .5.4.5 1.2 0 1.3.3 1.4-.9 0-.3.1-.6-.3-.8zm-.4 8c-.5 0-1.1-.1-1.1.6.1.7.1 1.2.9 1.2.7 0 1 .1 1-.7-.1-.8-.1-1.1-.8-1.1zm12.1 21.9c-.7 0-1 0-1.1.7 0 .6-.2 1.1.5 1.1.5 0 1.1 0 1.1-.6.2-.7.2-1.2-.5-1.2zm-9.1-7c.1.7.3.8 1 .8.6 0 .8-.2.8-.8-.1-.8-.2-.9-.9-.9-.9 0-1 .1-.9.9zm-9.2-25.2c.1.1.6.1.7 0 .3-.2.4-1.7 0-1.7s-.9-.1-1.3.1c.2.4.4 1.4.6 1.6zm.4 6.3c-.7 0-.6.4-.6 1s0 .9.7.8c.5-.1.4-.6.4-1.1 0-.5 0-.7-.5-.7zm0 2c-.9-.1-.6 1.6-.4 1.7.4.3.9 0 1-.4.1-.7.1-1.3-.6-1.3zm-.1 3.7c.8 0 .6-.7.6-1.3 0-.4-.7-.6-1-.4-.2.1-.2.5-.1.8.2.2.2.5.2.9h.3zm.6-7.3c0-.4-.5-.4-.7-.3-.3.1-.2.4-.4.7 0 1.1.2 1 .6 1 .8-.1.5-.9.5-1.4zm-.8-2.5c.1.1.6.1.7 0 .3-.2.5-1.6-.2-1.8-.6-.1-.7.5-.7 1.1 0 .3-.1.5.2.7zm.4.1c-.4 0-.6 0-.6.4 0 .3-.2 1.2.2 1.4 1.1.3 1.2-1.8.4-1.8zm4.7 15.6c.2.2 1.3.2 1.5.1.5-.3.1-2.1-.1-3.3-.5-.5-.9-.5-1.5-.3-.1.3-.1 1.1 0 1.4.1.3.9.2 1.2.2 0 .4-.7.2-.9.2-.3.1-.1.1-.1.3-.1.3-.3 1.1-.1 1.4zm53-19.8c.6.1.6-.2.6-.5 0-.2.1-.7 0-.9-.1-.3-.3-.2-.6-.2-.6 0-1.1-.2-1.1.5 0 .4-.1.9.1 1.2.9-.3 1-.3 1-.1zm-.9.2c-.2.2-.2.5-.2.7.1.5-.2 1 .5 1 .5 0 1.1.2 1.2-.4.3-1.4 0-1.4-1.5-1.3zm6.7 8c-.2 0-.7-.1-.8.1-.3.3 0 1.2-.2 1.2-.1 0-.1-.4-.1-.5 0-.7 0-.8-1-.8-.3 0-.6.1-.7.4-.1.3-.1 1.2.2 1.4.6.3 1.5-.3 2.1 0 1 0 1.4.3 1.5-.7 0-.2.1-.7 0-.9-.3-.3-.7-.2-1-.2zM81 43.8v-.2.2c.1.4 0 .6.7.6.6 0 1 0 1.1-.5v-.3c.1-.2 0-.5 0-.6-.1-.6-.6-.4-1.1-.3-.7 0-.7.3-.8.7 0 .1.1.3.1.4zm-1.1 20.5c.7 0 .9-.1.9-.8 0-.8-.1-.9-.9-.9-.6 0-.9 0-.9 1 0 .7.2.7.9.7zM78 44.6c-.6 0-1-.1-1 .6s-.1 1.2.6 1.2c1 0 1.1-.1 1.1-1.1 0-.5-.1-.7-.7-.7zm1.5 13.8c1.3.1 1.2-.1 1.2-1.2 0-.4-.1-.6-.6-.6-.4 0-1-.1-1.1.4-.1.6-.1 1.3.5 1.4zm-4.1-14.1c.4 0 1.2.2 1.2-.4 0 .3.3-1.1 0-1.3-.2-.2-.9-.2-1.3-.1h.1c-.2 0-.2 0-.2.1s-.1.2-.2.2c-.1.3-.1.8-.1 1.1-.2.6.2.4.5.4zm6.4 2.3c-.6 0-.9 0-.8 1.2 0 .7.6.6 1.2.5.7 0 .6-.5.6-1.1-.1-.7-.3-.6-1-.6zm-3.4 8c-.3-.1-1.1-.2-1.3 0-.2.2-.2 1-.1 1.3.1.4.3.4 1.3.4.5 0 .4-.4.4-1.2.1-.2 0-.4-.3-.5zm1.7-8.2c.6 0 .6-.2.6-.6 0-1.1 0-1.2-.9-1.2s-.9.1-.9 1.2c.1.7.5.6 1.2.6zm-4.6 4.2c-.5.1-.5.1-.5 1 0 .4 0 .7.5.7h.2c.8 0 1.2.2 1.2-.9-.1-.3-.4-.9-1.4-.8zm1.6 3.7c.2.2 1.4.2 1.6-.1.1-.2.1-.5.1-.7 0 .2 0 .4-.1.6.1-.2.1-1.2 0-1.4-.1-.1-1.3-.2-1.5-.1-.4.2-.5 1.5-.1 1.7zm2.8-1.7c-.8 0-.9.2-.9 1 0 .7.3.7 1 .7.8 0 .8-.1.8-.9-.1-.7-.2-.8-.9-.8zm.1-10c-.8 0-.9-.1-1 .8-.1.8.1 1 .7 1 .9 0 1.1.2 1.1-1.1 0-.2-.5-.6-.8-.7zm-4.7 11.7c.1 0 .3.1.5 0 .5 0 .8.1.9-.3.1-.2.1-1.1-.1-1.3-.1-.1-.3-.2-.6-.2-.6 0-1.1-.1-1.1 1 0 .7 0 .9.4.8zm9-13.7h-.2c-.7 0-1.1-.2-1.1.6s0 1.1.8 1.1c.9 0 1 .2 1-1.1-.1-.4-.2-.5-.5-.6zm-7.2 6.1c-.2.2-.1.6-.1.9 0 .3-.1.8.3.8.5 0 1.3.2 1.4-.4.1-.3.1-1.1-.2-1.3-.1-.2-1.3-.2-1.4 0zm4.8 3.9c-.6 0-.9 0-.9 1 0 .5 0 .8.6.8.8.1 1.2.1 1.2-.7 0-1.2-.2-1.1-.9-1.1zm-2 0c-.8 0-.9.1-.9.9s.1.9.9.9.8-.2.8-.9c.1-.8 0-.9-.8-.9zm-4-2c-.6 0-.8 0-.9.6 0 .7-.1 1.1.6 1.1.2 0 .9.1 1 0 .2-.2.1-.8 0-1-.2-.3.7-.8-.7-.7zm.1 6c-.6 0-1 0-1 .7 0 .8 0 1 .9 1 .8 0 .9-.1.9-.9-.1-.6-.1-.8-.8-.8zm1.9-4c-.7 0-.9-.1-.9.7 0 .8 0 1.1.9 1.1.8 0 .9-.2.9-1s-.2-.8-.9-.8zm0-10c-1 0-.9 0-.9 1.1 0 .5.1.7.6.7 1 0 1.2.1 1.1-1.2 0-.7-.2-.6-.8-.6zm6.4 10c-.7.1-1.2-.2-1.2.7 0 .8-.1 1.1.8 1.1.7 0 .9.1.9-1 0-.4-.1-.8-.5-.8zm-6.1-8c-1 0-1.2.1-1.2 1.1 0 .5 0 .7 1 .7.5 0 .8 0 .8-1.2 0-.3-.1-.6-.6-.6zm3 11.7c.2.1 1.1.2 1.4 0 .3-.1.2-.4.2-.7 0-1 0-1-.9-1-.5 0-.7 0-.8.6 0 .2-.1.4-.1.6s0 .4.2.5zm-2.1-6c.2.2 1.1.1 1.3.1.5-.1.3-.5.3-.9 0-.2.1-.5-.1-.7-.2-.2-.4 0-.7 0-.4 0-.9-.2-1 .3.1.1 0 1 .2 1.2zm3.6-6.1c.2-.2.1-.8.1-1 0-.4 0-.7-.5-.6-.4 0-1-.2-1.2.3-.1.3-.2 1.2.1 1.4.2.2 1.3.2 1.5-.1zm-.4 6.4c-.7.1-1.3-.5-1.2 1 .1.7.3.7 1 .7.4 0 .7 0 .7-.4s.2-1.4-.5-1.3zm-2.1 16c-.5 0-1.1-.2-1.2.4-.1.2-.1.9 0 1.2.2.4 2 .7 1.7-1.1 0-.5-.1-.5-.5-.5zm.5-15.7c-.1-.5-.7-.3-1.2-.3-.6 0-.6.3-.5.7 0-.2-.1-.3 0 .2.1.4-.2.7.3.8.2 0 .9.1 1.2 0 .3-.1.3-1.1.2-1.4zm2.4 1.3c.2.3 1.2.3 1.5.2.4-.2.2-1.1.2-1.4 0-.4-1.4-.5-1.6-.2-.3.1-.3 1.1-.1 1.4zm1.4-3.3c-.2 0-1.4.1-1.5 0-.1.3 0 .8.1 1 .1.5.4.4.8.4.7-.1.8.3.9-1 0-.2 0-.3-.1-.4h-.2zM79 67.6c0 .9.4.7 1.1.8.3-.5.5-1.1.5-1.8-1.9.1-1.5-.3-1.6 1zm4.1-23c-.2.2-.3 1.3-.1 1.6.1-.2 1.3 0 1.6-.1 0 0 .1 0 .1-.1s0-.2-.1-.3c-.4-.4-.9-.8-1.5-1.1zm-.7 14c-.3 0-1-.1-1.3 0-.3.2-.2.5-.1.8 0 .3-.3 1.3.7.9.1 0 .2-.1.2-.1.2-.5.4-1 .5-1.6 0 .1 0 0 0 0zM81 61.2c0 .3-.1 1.3.3 1 .2-.1.1-1 .5-1.5h-.1c-.6-.2-.7-.1-.7.5zm-2.2 9c0-1 0-.6-.1-1.5 0-.1-.1-.1-.2-.2-.1.4.2.7 0 1.1-.4-.1-.4-.8-.7-1.1-.9 0-.9.3-.9.7 0 .3-.1.8.1 1 .4.3 1.4.1 1.8 0-.1.1 0 .1 0 0zm.2-1.4c0 .4 0 .9.1 1.3 0 0 .5-.8.8-1.5-.5 0-.7-.1-.9.2zm-3.1 3.5c.7 0 .8-.1.8-.9s-.1-.8-.8-.8c-.8 0-.9.1-.9.8 0 .9.1.9.9.9zm-2 4.3c-.8 0-1-.1-.9 1.2 0 .5.2.6.7.6.8 0 1 .1 1.1-.4.2-1.6-.4-1.4-.9-1.4zm2-6.3c.8 0 .9-.2.9-.8 0-1.1-.3-.9-.9-.9-.5 0-.8-.1-.8.9-.1.7 0 .8.8.8zm.2-3.7c-.8 0-1 0-1.1.8-.1.8-.1.9 1.1.9.6 0 .7-.1.7-.8-.1-.7 0-.9-.7-.9zm-.5 7.9c-1 0-.5.7-.6 1.4v-.1c-.1.7.8.6 1.3.5.6-.1.4-.5.4-1 0-.6.2-.8-1.1-.8zm.4-1.9c-.6 0-.9-.1-1 .6 0 .9-.2 1.1.6 1.2.5 0 1.1.2 1.2-.5 0-1.2-.1-1.3-.8-1.3zm2.4-2c-.9 0-1.4-.2-1.4.7 0 .8.1 1 .9 1 .3-.5.6-1 .8-1.5 0-.2-.1-.2-.3-.2zM77 73.1c0 .5-.2 1.3.6 1.1.1-.6 0-1.2.3-1.7-.8 0-.9.2-.9.6zm.2 1.5c-.4 0-.4 1.8.2 1.7 0-.1.3-1.7-.2-1.7zm-9.2 2c-1.1 0-1 .2-1 .8 0 .8 0 1 .8 1h.6c0-.1.1-.2.3-.3 0-.1.1-.2.1-.4 0-.9.1-1.2-.8-1.1zm.5 2c-.1-.1-.3-.1-.6 0-.8.1-.9.1-.9.9s.2.9.9.9.8-.2.8-.9c0-.3 0-.5-.1-.7 0-.1-.1-.1-.1-.2zm.2-3.9c-.2-.3-.5-.2-.8-.2-.8 0-.9.2-.9 1 0 .4 0 .7.4.7.5.1 1.3.2 1.3-.5.1-.2.2-.7 0-1zm-2 2c-.2-.2-.4 0-.6-.1-1.4-.7-1.1 1.5-1 1.6.2.2 1.1.1 1.3.1.4-.1.3-.5.3-.9 0-.2.2-.5 0-.7zm3.7 1.9c-1.3 0-1.4-.3-1.4 1.1 0 .6.2.6.7.6.4 0 .8.1 1-.3.2-.3.2-1.5-.3-1.4zM20 46.6c-.8 0-.9.3-.9.9 0 .8.4.8 1.1.8.7 0 .6-.2.7-.9 0-.6-.2-.8-.9-.8z"/>
	<path fill="#885630" d="M36.4 72c-.8.3-.4 3.1-.5 3.8h.8c.3-.7 1.3-1.9 1.2-2.7-.1-.6-1-1.4-1.5-1.1zm33.8-3.9c-.7-.3-2 .2-2 1 .1 1.6.3 3.2.6 4.7.8-1.5 2.2-3.9 1.4-5.7zm3.4-10.4c-.3 0-2.4-6.9-2.4-6.9s-2.7-12.3-12.6-10.7c-1.1.9-2.3-1.4-3.8-2.3-8.2-5-16.7-1-21.8 6.7-1.3 2-2.5 3.5-3.5 6 0 0 .4 2.3-1.9 6-.5.8-.8 2.6-.8 2.6.9 0 3.9-.4 3 1.6-.5 1.1-.1 2.3.2 3.4.9-1.8 1.5-3.6 3.8-4 3.6-.7 7.2-.6 10.8-1.1 4.5-.7 10.3-3.4 12.3-7.8-.8 4.9 7.7 9.4 7.7 9.4s2.5 2 8.5 1.5l-1.5-2.5c1.8 0 4 0 5.7.2-1.2-.9-2.3-1.9-3.7-2.1z"/>
	<path fill="#fff" d="M63 78c-1.5 2.5-3.7 3.9-5.8 5.2 1.7.1 3.4.2 5.1 1 .4.2.5.6.5 1 0 .2-.1.2-.3.1-1.9-.8-4-1.2-6-1.7-.6-.1-.7.7-.1.9 1.9.5 4.2 1.1 5.9 2.3.6.4 2.2-.4 1.7-2.1-.3-1 .7-1.8.4-2.7-.1 0-.3-.4-1.4-4zm-13 5c-3.2-.3-4.6-2.9-6.4-5.2-.3 1-1.6 3.2-1.1 4.2.6 1.1-1.7 1.6-1.5 2.5 1 3.5.4 3.9 2.3 4.2.3 0 2.3-1.9 2.8-2.2 2-.8 5.8-2.1 5.8-2.1L50 83zm4.8.4c-.8.2-1.5 0-2.3.1-.5.1-.4 1.2 2.5.8.5-.1.4-1-.2-.9zM29.7 44.1c.3.1.2-.1 1.5-4.1.2-.5 1.4.1-16.4-4.7-.5-.2-.3-.1-1 6.2-.1.7-.1.4 15.9 2.6z"/>
	<path class="st4" d="M83.5 32.9c0 .6.5 1.1 1.1 1 .6 0 1.1-.6 1.1-1.3-.1-1.5-2.2-.9-2.2.3zm-67.5 5c-.8.7-.8 2.1 0 2.8 1 .9 2.7-.3 2-2.2-.2-.7-1.3-1.2-2-.6z"/>
	<path fill="#f6e5cc" d="M73.2 62.6c.1-1-7.6-1.2-8-1.5-4.2-3.1-7.1-4-8.5-8.6-2.9 3.4-7.3 6-11.7 6.5-3.8.5-10.4.3-13.5 3-1.4 1.1 1.1 7.5 4 7.5.5 0 .8 1 1 1.5 2.2 3.2 7.4 4.4 9.2 9.2 2.4 4.1 16.6 4.7 19.3-7.7.5-2 2.9-3.7 3-4 4-1 5-4.9 5.2-5.9zM33 16.5l-2-5s3.6-3.2 4.5-5c.5-1-10.5 4-10.5 4s-2.2-1-2.5-.5c-1.3 2.4-4.5 7-4.5 7-7.2-13.5-6.2-5.7-1 8.5l16-9zm-14.9 19c2.1-.1 6.5 2.4 7.9 2 .7-.3.7-4.4 2.1-5.5.9-.7-.6-1.3.9-2 .7-.3 4-3.1 4.3-3.7 1.8-4.1 3.2-6.3 6.5-9.5 1.9-1.6-1.1-3.7-2.3-2.8-6 4.5-13.6 7-20.5 12 1.5 4 3 4 1.1 9.5zM80.5 31s-2-6.3-3-8.5c1-2.7-.3-7.5-1-10.5-.3-1.2-5.8-13.3-7.5-11.5-.8 1.2 2.5 8.5 2.5 8.5s-7-7-14-8.5c0 0 1.3-1.4-2 2.1-1 1.1 7.5 9.9 7.5 9.9S54.5 6 53.5 8c-1.2 1.3 11 9.4 8 9.5-.8 0-7.4.6-7.2 2.3.2 1.2 5.7 1.2 9.2 4.7 2.3 1.7 6.1 1.7 7.5 4.5.6 1.2 1.5 4 1.5 4l8-2z"/>
	<path class="st4" d="M46.4 97.4c-1.1-1 1.3-5.4-.3-6.1-1.3-.6-4.2 4.4-4.6 4.2-.3-.1.3-2.3.1-3.5-.1-.7-.7-.9-1.2-.5-.6.5-1.2 1.4-1.6 2.1-3.4 5.2-2.8 4-3.6 5-.5.7 0 1.4.7 1.3.8 0 3.2-4.3 3.5-4.2-.7 5.2 1.7 2.9 4.9-1.2.3 1-.2 2.5 0 3.8.4 1.8 3.4.4 2.1-.9zm33.9-1.7c-.4-.5-.4-.5.1-.8 2.8-1.9 1-6.2-1.9-3.9-.1.1-.2.2-.4.1-.7-.5-1.5.2-1.7.9-1.5 5.9-2.3 7.5-.6 7.3 1.4-.2.9-1.5 1.6-3.8 1.9 2.4 2.6 3.4 3.9 4 .9.4 2.1-.3 1.8-1.2-.2-.9-.6.4-2.8-2.6zm-.4-2.9c-.3.9-1.5 1.7-2.4 2 .2-1.3.5-2.6 1.8-2.8.5 0 .7.3.6.8zm-45-2.1c-.1.2-.2.2-.4.2-3-.5-5.2 3.5-5.1 6.6.2 4.3 7.4 1 7.6-4.7.1-1.4-1.7-3.1-2.1-2.1zm-1.4 6.4c-1.1.9-2.5.7-2.4-.4.2-2.3 1.4-5 3.6-4.1 1.3.6.1 3.5-1.2 4.5zm37.6-4.2c.3-.1.7 0 1 0 .9 0 1.8 0 2.6-.3 1-.3 1.4-1.3.5-1.3-2-.1-4.5-.4-5 1l-.1.1c-1.2.3-1.2 1.4-2.5 5.8-.2.6.4 1 1.1.8 1.3-.3 2.7-.7 4.1-.6 1 .1 1.5-1.5.3-1.7-1.1-.2-2.2 0-3.3.2.1-.9.2-1 1.1-1 1.1 0 2.6-.1 2.7-1.2.1-.7-.5-.6-3.1-.3l.3-.6c.2-.3 0-.7.3-.9zm-42.4-1.8c-4-2.3-7.8 4.8-6.4 7.3.3.5.7.7 1.2.6 5.1-1 5.5-3.2 4.5-3.2-1.1 0-4.6 2.4-4 .2.3-1.1.9-2.6 1.8-3.2 1.5-1 1.7.2 2.5-.2.4-.4.9-1.2.4-1.5zM63.1 94c1 2 2.9 3.2 1.8 3.6-.6.2-1.7-.5-2.1-1-.5-.5-.2-.9-.9-1-.3 0-.7 0-.8.3-1 1.7 2.3 3.1 4.3 3.2 1.2 0 2-1.1 1.6-2.2-.3-.9-1.3-1.9-2.3-3.3-.7-1 .8-1.6 1.9-.8.9.7 1.6-.6.8-1.3-.9-.7-5.5.1-4.3 2.5zm21.8-56.8c.6-.2 1.2-.5 1.7-.6.6-.2.4 0 1-8.2.1-.6.3-.5-6.1 1.5-.8.2-.7.3-3.4-7-.2-.5-.2-.9 0-1.3.4-1.1 0-8.5-3.1-14.2C71.8.9 71 .2 69.4 0c-.4 0-.6.1-.8.4-1 1.2-.2 1.6 1.9 7 0 .1.1.2.2.3-.2 0-.2-.1-.3-.2C67.3 4.3 56-3 56 1.3c0 .4-.2.6-.6.6-.3 0-.8.5-.8.8-.2 2.1.7 2.3 6.4 7.9l.2.2c-.1 0-.2 0-.2-.1-3.3-1.9-6.2-5-8.1-3.1-.6.6-.6 1.6.6 2.4 3.2 2.2 8.4 7.2 7.1 7.2-1.8 0-3.5.5-5.2.9-.7.1-1.4.4-1.6 1.2-.7 2.2.1.9 6.9 3.8.5.2 3.2 3.1 7.7 4.2.7.2.1 1.3 1.7 1.8.5.2.6.3.6.6.9 3.3 1.2 3.3.6 3.5-5.8 1.7-5.2 1.5-4.9 2.1 4.8 8.6 4 7.9 5.3 7.3.1 0 .2-.2.3-.1.1.2.2.4.1.5-.5.5-.8 1.2-1.2 1.8-.1.2-.1.3 0 .5 1.7 2.7 1.5 2 .9 3.9-.8-3.2-5-8.7-8.7-9.4-1.6-.3-3.1-.5-4.7 0-.8.2-.9-1-1.9-1.8-9.6-7.7-21.3-.2-26.5 10.7-.1.1-.1.3-.3.4-.2-1.1-.3-2.1-.5-3.1 0-.2 0-.2 1.3 0 .5.1.5-.1.8-1.6 1-4.9 1.7-5.2 1-5.4-5.3-1.3-5.3-1.2-5.1-1.7.3-1.2.8-3.8 1.2-4.1 1.3-1 .1-1.6 1.2-2.1 1.5-.7 3-1.5 3.6-2.6 2.4-4.5 3.4-7.8 7.7-11.4 1.3-1.1-.2-3.2-1.3-3.1-.1 0-.2 0-.4-.1.1-.2 0 0 4.6-3 6.1-3.9 5.6-3.3 5.1-4-.3-.4-.3-.4-.8-.1-16.2 10-14.6 9.4-15 8.7-.5-1.1-.7-2.2-1.1-3.4-.2-.5-.1-.2 3.6-3.7 1-1 1.5-3.5-1.2-1.9-2.8 1.6-5.9 2.6-9 3.5-.2.1-.3.1-.5-.1-.3-.3-1.2-.9-1.3-.9-.2 0-.9.2-1.2.6-.7 1-1.5 1.8-2.1 2.8-.7 1.2-1.4 2.3-2.2 3.5-.5.6-2.3-4-3.9-6.1-.7-.9-1.7-.7-1.8-.5-.2.9-.6.9.4 4.7 2.3 9.1 3.8 11.3 3.3 11.6-.8.5-1.1.2-.4 1.5.1.2.1.6.3.7.4.2.8-.8 1-.2 1.7 3.9 1.8 3.8 1.6 4.2-1.1 2.8-.5 3.4-1.2 3.2-4.4-1.1-4-1.2-4-.5l-.8 8.4c0 .5-.1.3 2.7.7.1 0 .3 0 .2.2-.8 4-.8 3 .5 4.6.4.6 0 .8 0 1.4 0 1.7 0 3.5.1 5.2 0 .6 0 0 .3 9.2.1 4-1.1 3.4 2.2 4.5.7.2 1 .9.9 1.6 0 .5 0 .4 3.4 2.9 8.5 6.3 8.6 6.1 8.3 6.6-.1.3-.2.6-.4.8-.4.8 1.7 1 1.3 2.2-.1.4-4-1.2-11.1-1-.1 0-.3-.1-.3.1-.1.8.2.2 3.8 2.3.5.3 2.3 1.4 2.6 1.1-1.2-.9-2.3-1.8-3.5-2.8 1-.7 12.2 2.6 13.4 3 .8.3 3.2.7 3.2 1.6 0 .1.1.1 0 .2-.1-.2-.1-.3-.2-.3-11-1-11.3-.7-18.4.1-.1 0-.3 0-.3.1 0 .4.3.4.7.4 2.1.1 11.3 0 13.6.4 1.1.2 13.3 2.5 14.3 3-1 .9-.5-.2-2.9 7.1-.4 1.1 1.7 1.4 2 0 .3-1.9-.2-1.4 2.1-2.3 3.9-1.6 2.9-3.4 3.5-3.9 1.5-1.2 4.9-4.9 5.4-4.7.8.3 1.5.6 2.3.9-4.7 2.9-4.5 2.8-4.7 2.8-1.6.5-3.8 3-3.7 6.5.2 4.3 6.8.9 7.5-3.9.2-1.4.2-1.8-1.1-2.9 5.9-3.7 17-6.7 23.7-8.4-.1 0-.2-.1-.3-.1-5.2.5-3.4.5-5.2.7.3-.3 1.1-1.1 1.3-1l.1-.1c.1-.1.2-.2.3-.2.3-.4.7-.8 1.5-1.1.7 0 1.3-.8 2-1.1l-.1-.1c-6.5.9-18.5 7.3-18.6 7.4-.3-2.3-.3-2.2-.1-2.4 2.9-1.6 6.1-3.2 14.8-6.8 0 .1 0 .1-.1.1-.6.9-1.2 1.8-1.6 2.8.6.1 1.8-2.3 4.6-4.2.1-.1.2-.1.1-.2s-.2-.1-.3 0c-3.6.7-3.4.8-3.4.4-.1-5.4 1.7-3.7 2.3-10.2.1-1.2.6-2.4.8-3.6 1.5-8.4 5.8-13.5 4.7-15.9-1-2 .4-3.2-.7-5-.2-.3 0-.4.2-.6.4-.4.4-.5.1-1-.4-.4-.8-1-2.1-2.5.3-.1.3-.2.6-.3zM55.6 96.8c.5-5.2 4.2-5 4.2-3-.6 4.2-4.4 4.7-4.2 3zM71.4 28c-.3-.9-.8.2-1.3-.8-.9-1.9-.7-1.5-2.6-2-4.5-1.2-2.1-.6-7.7-4.1-.4 0-.8-.1-1.3-.2-3.8-.8-3.8-.6-3.8-1.2-.1-.7.8-.8 1.5-.9 7.5-1.2 6.8.2 7.6-.4 3.1-2 3.1-1.9 3-2.2-.2-.4-1.9-.1-3.3.7-.3.2-1.1.1-1.3-.2-1.6-2.4-7.4-7.1-7.9-7.6-.4-.2-.3-1.1.6-.7 2.3 1 7.4 4.8 9.8 5.9.7.2.6-.6.3-1C57.7 4.7 55.5 4 56.5 3c.2-.2.3-.2.6-.1 1.8.8 8.9 6.4 9 6.5.7.6 1.2 1.5 1.7 1 .1-.1.2-.3.1-.3-.3-1-5.8-5.2-6.7-5.8-.8-.6-1.7-1-2.5-1.5-1.4-.8-1-2.1.5-1.3 3.5 1.7 8 4 10.3 6.9.4.6-.8.7-.7 1.1 0 .2.2.2.4.2.8.1 1.2-.7 2.4.6.1.1.2.4.4.3 1.1-.4-1.7-6.4-1.8-6.9-.7-1.7-.9-1.7-.5-2.4.2-.3 1.2.3 1.8 1.4.8 1.5 5.2 7.4 6 14.5.1.6 0 1.2 0 1.8.3 2.5-.9 3.2-.5 4.2 1.1 2.2 1.9 4.5 2.8 6.8.1.3.1.4-.2.5-6.4 1.9-6.3 2.1-6.5 1.6-.7-1.4-1.2-2.7-1.7-4.1zM58.8 40.7c1.1-.4 2.1-.3 2.6-.1.7.2 3.3.9 3.7 1.4 1.5 1.1 3.1 3.3 4.1 4.9 0 0-.1 0-.1-.1-2.1-.9-3.5-3-8.7-2.5-2.5.2-.8-.6-1.7-3.3-.2-.2-.1-.2.1-.3zm-.2 6.9.1-.6v-.1c0-1.9-.2-1.5 1.5-1.6.4 0 3.6-.2 4.7.8.8.3 4.1 2.2 4.4 2.7.9 1.4 1.2 1.5.9 1.6-.6.1-1.3-1.5-8.4-3.1 0 0 .2.3.3.3h.1c1 .5 2.6.8 3.7 1.3-.1-.1 0 0-.5-.2.8.4 1.3.6 2.5 1.6 1.8 1.4 3.9 2.8 4.4 5.9.1.2.1.3.1.5v.1c0 .3-.2.2-.4.2-2.2-.1-4.6-1.2-5.8-1.7-1.1-.4-1.9-1.1-2.8-1.7-5-3.6-4.5-3.9-5-5.1v-.1c0-.3.2-.7.2-.8zm6.1.9zm0 0c-.1 0-.2-.1-.3-.1.1 0 .2.1.3.1zm-2.5-.8v-.1h.1s-.1 0-.1.1zm-4.3 2 .1.1c.6 1.2 1.4 2 6.3 6.1 2.6 2.2 9.1 1.6 10.7 2.9 0 0 .1 0 .1.1-4-.6-7.6.3-9.1 0-3-.7-7.4-2.9-8.4-5.2-.7-1.7.2-4 .3-4zm10.5 17.7c-.6 0-.8.1-.8.3-1 2.3-2.4 3.7-5 4.7-.3.1-.4.2-.5.2-.4.2-.3 1 1.1.6.3-.1.7-.3 1-.4-1.4 5.8-4.7 8.5-10.5 9.5-.1 0-2.9.6-4 .1-.6-.2-1.9-.9-2-1-2.7-1.7-.3-1.3-5.2-6.2-.7-.7-1.6-1.5-2.8-2.2-3.5-1.9-2.4-4-4-4-1 0-1.3-.4-1.7-.6-.1-.1-1.2-1.8-1.9-3.1v-.1c-.5-1.6-1.4-2.1 1.9-3.8 6-3.1 10.3.2 18.5-4.6.1-.1.1-.1.2-.1 0 .1 0 .2-.2.2-.4.5-2.8 2.5-3 2.6 3.6 0 5.9-1.7 7.3-4.8.3 1 1.9 2.9 2.2 3.1 3 2.1 5.8 4.7 9.4 5 .5.1 1.3 1.2 1.1 1.4-.4.7-.9 1.2-.5 2 2.1-2.1 1.5-3 1.6-3.1.1-.1.5-.1 1 0 .4.1-.8 2.6-1.1 3.1-.4.5-1.6 1.2-2.1 1.2zm.8 4.6v-.2c-.1.1-.1.1 0 .2-.2-1.1-.4-2.1-.4-3 0-.2.1-.3.3-.3.3-.1.6-.4.7-.2.2.2 0 .4-.1.7 0 .2-.3 2.5-.5 2.8zM54.9 84.1c-2.9.5-2.9-.6-2.2-.5 2.7 0 1.9-.2 2.3-.1.1 0 .2 0 .2.2s0 .4-.3.4zm-18.6-9c.2-.8.1-1.7.2-2.5 0-.3.3 0 .7.4.3.3.2.1-.9 2.1 0 .1 0 .1 0 0 0 .1 0 0 0 0zm31.1-13.9c-.7 0-1.3-.3-1.9-.7h.1c-.1 0-.1 0-.2-.1 3.7.4 3.8-.8 6.3.6h-.1s.1 0 .1.1c-2.6.5-3.5 0-4.3.1zM31 48.5c2-3.8 7.6-10.3 12.5-11.7 4-1.2 5.9-1.7 9.8.7 3.7 2.1 4.8 5.7 3.9 9.3-.4 1.4-1.9-6.3-13-4.2-3.3.6-2.5.3-4.2 1.1-4.2 1.8-4.1 1.5-9.5 6.8 0-.8.2-1.4.5-2zm-.1 3.8c2-2 8-8.6 15.2-8.6 2.8 0 6-.6 9.1 2.5 1.3 1.3 1.8 2 1.5 3.5-.6 3.5-4.3 5.5-6.2 6.8-5.8 3.9-16.9 1.1-19.7 4.9-.3.3-.4.8-.7 1.3-.2-.5-.2-1.1.1-1.6 1.5-3.4 6.4-3.2 12.3-4.8 2.3-.6 7.3-2.4 8.7-4.3.8-1.1.6-2.5.4-2.5-.5-.1-1.6 2.5-6.9 3.7-8.5 2.1-11.4.5-17.1 4.8v-.2l-.1.1.1-.1c.3-.9 3.2-5.4 3.3-5.5zm12.4 2.4c-1.1.6-6.4 1.4-8.5 1.8-3.7.7-5.1 2.8-5.1 2.1-.1-1.1.5-1 2.9-2.2 1.9-.8 5.7-.8 10.7-1.7zM32.1 16c0 .1 0 .2-.1.3-1.2.8-1 .6-1.3.7-.2-.3.3.2-2.4-2.8-.1-.1-.2-.2 0-.3 3-1.7 1.9-3 3.8 2.1zm-2.9-6.5c4.7-1.9 5.3-3.6 5.3-2.1 0 .2-.1.5-.3.7-5.2 4.8-5.2 4.2-6.6 4.9-.2.1-.2 0-1.8-2-.2-.2-.3 0 3.4-1.5zM16.9 24.4c-2.7-8.2-2.9-8.7-3.8-13.2-.1-.3.1-.4.3-.5.6-.3 5.2 9.7 5.8 9.4.5-.2-.3-1.5-.7-2.4-.3-.8.7-1.7 2-4 .6-1 1.3-1.9 1.9-3 .4-.7 1.2-.8 2.1.8.9 1.5 3.8 4.2 4.8 5 .2.2.3.5.4.8.1.1 0 .2-.1.2-.5.3-.9.7-2 .2-2.2-1.1-3.5-2.6-3.7-2.8-.8-.6-.5 0-1.3 1.9-.1.2 0 .4.2.5.8.8.8.2 1-.9 1.1.9 2.3 1.6 3.5 2.4-10.9 6.3-10.2 6.1-10.4 5.6zm1.1 2.4c-.2-.5-.1-.2 10.9-7.2.1-.1 1.2-.1 2.3-.8.5-.4-.1-.6 2.2-1.6 1.7-.8 3.4-1.5 5-2.6.9-.7 2.1.8.6 2.2-3.9 3.7-6 9-6.9 10-2.7 3.1-4 1.8-4.1 4.1 0 .6-.2 1.2-.8 1.6-.2.1-.1-.1-1.4 4.3v.1c0 .3-.3.2-.5.1-1.4-.3-6.2-1.5-6.2-1.5-.4 0-.4-.2-.2-.5 1.1-6 2.5-1-.9-8.2zM14.1 42c-.6-.1-.4 0 .3-6.4v-.2c.1-.1.2-.1.3-.1C32.4 40 31.3 39.5 31.1 40c-1.3 4.2-1.2 4.1-1.4 4.1L14.1 42zM41 83.2c-.1 0-.6.4-.7.6s0 .1 0 .1v.1c-.1.3 0 .1-.2.8-.1.4-.8-.1-1.1-.1 0 0-.1 0-.1-.1-.1 0-1.8-.6-2-.6-.6-.2-1.2-.3-1.7-.5H35c-1.8-.4-1.6-.2-1.6-1.5-.1-.1-.2-.3-.3-.5 0-.1-.2-.1-.2-.2-.5-.1-.3-1.3-.2-1.5.3-1.1.1-1.3-.7-1.9-.3-.2-.6-.5-.9-.7 0-.1-.1-.1-.2-.2-1-.5-.9-.7-1.6-1.1 0-.1-1.6-1.1-2.1-1.6-.2-.1-.3-.2-.5-.3-.5-.4-1.1-.7-1.6-1.1-.1 0-1.1-.8-1.3-.8-.8-.7-2.7-1.6-2.9-2.3v.1c-.3-.3-.9-1.2-.9-1.3 0-.1-.1-.2.1-.4 0-.5.5-1.5.7-1.9V66c-.2-.2-.7.3-.8.4-.3.3-.9.7-.9.8-.1.1-.1.2-1.6-.5-.2-.1-.2-.3-.2-.5-.2-.9.2-1.6.2-2 .1-.6.1-1.2.3-1.8 0-.2-.6-10.4-.5-13.5 0-1.1-1.2-2-.9-3 .5-1.8.3-2.3.8-2.1 4 1.3 10.1 1 10.3 1.7 1 5.9 1.2 5.8 1.2 7-1.3 1.5-1.3 2.4-2.8 5.3-.4.9-.6 1.9-1 2.7-.1.7-.7 1.5-.7 2.2 0 1-.1 2.1-.2 3.1h.1c.1-.2 1-1.9 1-2.1 1-1.6 1-1.5 1-1.6.1-.1 1.1-1.8 1.2-1.9.1-.2.4-.5.6-.6v.2c0 .1-.1.1-.1.2V60.3c-.1.5-.1 1.9-.1 2l.3 1.8v.2c.4 2.2.2 2.1 1.5 3.9.5.4.9.9 1.5 1.3.1 0 .2.1.2.1v.1c.2 0 .4.2.7.1.1-.1.1-.2 0-.2-.8-.5-.7-1.4-.8-2.2.1.1 1.5 1.8 2 1.8.6.3 1.1.6 1.7.9.1 0 .2.1.3.2.2.6.4 1.2.4 1.9 0 0 .1.1 0 .2.1.6.1 1.2 0 1.8v.2c0 2.5-.7 3.8-.3 3.7.5-.6 1.1-1.1 1.6-1.7 0-.2.4-.6 1.5-2.1v-.1c0-.1.1-.2.2-.2s2.1 1 2.4 1.6c.2.1.4.3.5.6.8.8 1.2.9.5 2.1 0 0 0 .1-.1.1-.1.2-.2.3-.2.5-1 1.6 1.2 3.4-.6 4.3zm2.2 5.3c-.4-.1-.8-.1-1.1-.4-.2-.2.1-2.5-.2-2.6-.4-.3-.3-.8-.4-1.2 0-.2-.1-.1 1.3-1.6.8-.9-.6-1.1.2-3 .2-.5.4-1.1.6-1.8 1.6 1.6 1.2 2.8 3.9 4.2.7.4.9.6 1.7.8.1 0 .2 0 .2.1s-.2.1-.2 0c-1.2 0-4 .7-4.1.7-.3.1-.2.5.1.5 1.7.3 3.1-.5 5.9-.1-1.8.3-3.3 1.3-4.9 2-.8.3-1.5 1-2.3 1.4-.3.5-.4 1.2-.7 1zm5.7.9c-.1 0-.1 0 0 0-.1 0-.1 0-.1-.1-1.2-.3-2.3-.6-3.6-.9 1-.8 1-.4 3.6.8 0 .1 0 .1.1.2 0-.1 0-.1 0 0zm2.7 4.6c-.6.4-1.2.8-2 1 .3-.9.5-1.7 1-2.4.7-1.1 3.2-.3 1 1.4zm5.5-6.1c-3.1 2.5-2.8 2.7-3.3 2.4-4-2.3-6.1-2.7-6.7-2.9.1-.2.2-.2.3-.2 1.5-.6 3.1-1.1 4.6-1.8.6-.3 1.7.4 2.8-.2.3-.1.1-.1 3.8 1.4-1.2 1.1-1.4 1.2-1.5 1.3zm6.8-3c.5 1.5-1 2.3-1.6 1.9-1.6-1.1-3.4-1.4-5.2-2.1-.9-.3-1.1-.2-1-.7 0-.2.1-.2.2-.2.2-.1 6.3 1.7 6.4 1.8.1 0 .2-.2.2-.3 0-.4-.1-.9-.6-1.1-1.5-.7-3.1-.9-4.7-1 1.7-1 3-.9 5.1-4.3.2.1.1 0 1.5 3.4.4.7-.8.9-.3 2.6zm21.7-44.6c.1.1.1.2 0 .2v.1c-.9 1 .1 1.6.1 1.9.4.5.1 1.1 0 1.6 0 0 0 .1-.1.1h-.1c-.3-.1-.7-.2-1.1-.3h-.1c-.7 0-1.1-.6-1.8.1v.1c.2.2.4.3.7.4 1 .3 1.9 1 2.8 1.5.4.2.2.7.2 1.1-.4 1.8-.3 1.5-.4 1.6 0 .7-.5 1.2-.7 1.8 0 0-.4.9-.6 1.4 0 0 0 .1-.1.1-.1.2-.1.4-.2.6-.3 1.2-1.1 2-1.8 4.6v.2c0 .5-.6 1.8-1.6 8.3-.2 1-.2 2-.4 2.9-.1.5-1.8 4-1.9 4.1-.1.4 0 .6-.1.9-.3 3.6 0 3.5-.4 3.6-.7.3-1 .4-1.4.5h-.1s-1.7.7-1.8.8c-.3.2-1 .5-2 .9h-.1c-.2 0-3.8 1.7-3.9 1.7-1.7.7-2.8 1.6-3 .7-.3-.2-.3-.5-.7-1.8 0-.1-.1-.1-.1-.1-.1-.1-.1-.3-.2-.4v-.1s-.1-.1-.1-.2c-1.1-3.3-.9-1.6 0-4.1.2-.3.3-.7.5-1 0-.1.5-1.6.7-2.1v-.1c.1-.4.4-.5.6-.7.1 0 .2-.1.2-.1.1-.2.2-.1.6-.8.5-.7.7-1.1.8-1.1.2 0 .2.2.1.4-.2.9.1 1.6.1 2.6 0 0 .2 1.1.4 1.8.3.6.5 1.2.7 1.9.7 1 .9 1.6 1.3 2v.1c.1 0 .2.2.3 0 0-.1-.1-.1-.1-.1-.3-.5-.3-1.4-.4-1.7 0 0 0-.2-.1-.2-.1-1-.5-2.2 0-5.4h.1c.1-.6.2-1.3.4-1.9h.1c-.1 2.1.3 3 .3 3.3.5 1.4.4 1.2.5 1.5.1.4.3.4.3.5.1.1.3.4.4.5l.7.7c0-.1-.1-1.1-.1-1.1-.1-.1-.3-1.9-.2-2.1 0-.4-.1-.8-.1-1.8-.1-.3 0-3.2.2-4 0-.1.2-1.2.3-2.1.1-.4.3-.2.5 0 .6.4.5.4.6.5l.1.1c.7.3 1.1.9 1.6 1.5.2.2.4.4.5.6.5.6.8 1.5.8 1.6.3.3.3 1 .6 1.1.1-.4-.2-.7-.1-1.1v-.2c-.3-2.1-.5-1.6-.5-2.1-.2-.6-.4-1.2-.7-1.7-.1-.1-.1-.2-.2-.3-.1-.1-.1-.1-.4-.6v.1c-.5-.8-1-1.2-1.1-1.3-.2-.1-.9-.7-.9-.8-.5-.3-.9-.8-1.3-1.1-.1-.1-.2 0-.2-.2 1.3-.1 2.5.1 3.8.2.5 0 1.6.4 1.8.5h.1c.4.1.8.3 1.2.5.8.4-.4-.8-.4-1-.1-.1-1-1.2-1-1.2-.3-.2-.6-.4-.9-.7-1.6-1-.5-.4-2.9-1.3H74c-.2 0-.4-.1-.4-.3-.2-.2.2-.3-.4-2.4-.4-2.5-1.2-2-.6-3.9v-.1c.1-.7.4-1.3.6-2 .5-.7-.1-1.7-.2-1.8-.4-.4-.7-1.1-.9-1.6v-.2c.1-.6 1.6-1.6 1.3-2.6-.2-.6-.2-.6.4-.8.1 0 4.3-1.6 4.4-1.6.6-.3 2-.8 2.1-.8.1-.1.4-.2.5-.2.5-.2.9-.4 1.4-.5.7-.5 1.2-.3 1.7.3.3 0 .1-.1 1.7 1.6zm-14.5.4c-3-5.4-3.1-5.2-2.6-5.3l18-5.3c-.5 5.8-.3 5.7-.8 5.9-14.5 5-14.4 5.1-14.6 4.7zM42.4 63.3c1.7.1 3.3.5 5 .7 1.6.2 1.9 2 2 3.7.1 1.7-1.1 1.4-1.4 2.7 1.4 0 1.3.4 2.5 1.6.8.7 1.9.5 2.4-.3.8-1.2 1.3-2.2 2.1-2.5.6-.2-.1-1.1-1.1-.6-1 .6-1.6 1.7-2.1 2-.5.4-.6-.1-1.4-.7-.6-.5.4-.8.2-2.3-.1-1.3-.3-2.6-1.3-3.6-.4-.4 1.4-.5 1.7-3.2.1-.6-.4-1-.8-.3-.8 1.4-1.4 2-2.6 1.9-1.4-.2-7.2-.9-7.5-.7-.8.6-1.5 1.1-2 2 .5 0 1.8-.6 4.3-.4zm22.3 1c-1.8.9-1.9 1.4-5.2 1.4-.6 0-1.1-.2-1.5-.5-.3-.2-.6-.4-.6-.8.7-.2.9 1 5.8-.6 1.4-.5 1.5-.5 1.2-.7-.2-.2-.4-.2-.6-.1-2.6.4-5.2.3-7.8-.2-1.3-.2-1.7-.3-2-1.9-.1-.3-.4-.9-.8-.9-.3.1-.6 3.5 2.5 4.3.7.2.7.2.7.8 0 .3.1.6.3.7.5.3.9.6 1.5.6 1.5.1.7.6 2.3.7 1.3.1 1.4.2 1.7-.1 1-.8 2-1.7 2.9-2.6 0-.2-.2-.3-.4-.1zm-8.2 8c-.1-.1-.2-.2-.3-.1-1.3.7-3.3.4-3.7.8-.7.7-1.2.4-1.8-.1-.8-.5-1.8-.7-2.7-.1-1 .7-1.3-.1-1.9.4-.5.4-1 .4-.5.9.3.2 1.4.5 2.6-.2 2-1.1 2.1 1.2 4.2.3.4-.2 2.8-1.2 3.1-.8.4.4.8.1 1.2 0 .2-.1.2-.2.2-.3 0-.3-.3-.5-.4-.8zm-6.6 3.2c-2.6.9-2 1.6-2.4 2.9 0 .1.2 1.4.6 1.4.7 0 .2-2.3 1.8-2.9 2.1-.9 2.3-1 2.6-.9.9.1 1.8.1 2.6.6.2.1.7.1.4-.4-1.2-1.7-3.6-1.4-5.6-.7zm-1.8-10c0-.2-.2-.3-.3-.4-.1-.1-.9-.4-2.1-.2-2.2.4-2.9.1-4.8-.1-1 .2-2.2.5-1.5 1 .6.5 1.3-.6 2.6.5 1.2 1 2.4.3 3.4-.3.5-.2 2.7-.3 2.7-.5zM35.2 67c.1-1.5-.7-1-1.1-2.2-.2-.4-.2-.9-.6-1.3-.1-.1-.2-.3-.4-.2-.8.3-.8 2 .7 2.8 1.2.6.8 1.4 1.2 1.3.3 0 .1-.3.2-.4z"/>
</svg>