<svg xmlns="http://www.w3.org/2000/svg" viewBox="0 0 100 100">
	<linearGradient id="a" x1="94.9865" x2="32.4944" y1="-2.5517" y2="33.3348" gradientTransform="matrix(1 0 0 -1 0 101.433)" gradientUnits="userSpaceOnUse">
		<stop offset="0" stop-color="#0052cc"/>
		<stop offset=".9182" stop-color="#2380fb"/>
		<stop offset="1" stop-color="#2684ff"/>
	</linearGradient>
	<path fill="url(#a)" d="M3.6 75.2c-1.1 1.7-2.3 3.6-3.2 5.1-.9 1.5-.5 3.5 1.1 4.4l20.7 12.7c1.5.9 3.5.5 4.4-1.1.8-1.4 1.8-3.2 3-5.1 8.2-13.4 16.5-11.9 31.3-4.8l20.5 9.7c1.7.8 3.5 0 4.2-1.5l9.8-22.2c.8-1.5 0-3.5-1.5-4.2-4.4-2-13-6-20.5-9.8C45.5 44.9 21.8 45.8 3.6 75.2z"/>
	<linearGradient id="b" x1="4.9961" x2="67.4893" y1="105.4274" y2="69.5407" gradientTransform="matrix(1 0 0 -1 0 101.433)" gradientUnits="userSpaceOnUse">
		<stop offset="0" stop-color="#0052cc"/>
		<stop offset=".9182" stop-color="#2380fb"/>
		<stop offset="1" stop-color="#2684ff"/>
	</linearGradient>
	<path fill="url(#b)" d="M96.4 24.8c1.1-1.7 2.3-3.6 3.2-5.1.9-1.5.5-3.5-1.1-4.4L77.8 2.5c-1.5-.9-3.5-.5-4.4 1.1-.8 1.4-1.8 3.2-3 5.1-8.2 13.4-16.5 11.9-31.3 4.8L18.6 3.9c-1.7-.8-3.5 0-4.2 1.5L4.5 27.6c-.8 1.5 0 3.5 1.5 4.2 4.4 2 13 6 20.5 9.8 28 13.4 51.7 12.6 69.9-16.8z"/>
</svg>