<svg xmlns="http://www.w3.org/2000/svg" viewBox="0 0 100 100">
	<g fill="#e03875">
		<path d="M28 74.4C14.6 62.3 13.5 41.5 25.6 28c12.2-13.4 33-14.5 46.4-2.4l11.8-12.4C74.6 4.7 62.5 0 50 0 22.4 0 0 22.4 0 50s22.4 50 50 50c12.5 0 24.6-4.7 33.8-13.2L72 74.4c-12.5 11.3-31.5 11.3-44 0z"/>
		<circle cx="90.3" cy="70.9" r="4.1"/>
		<circle cx="49.7" cy="50" r="10.8" transform="matrix(.9732 -.2298 .2298 .9732 -10.1579 12.7578)"/>
		<path d="M95 52.8c-2.3 0-4.1 1.8-4.1 4.1S92.7 61 95 61s4.1-1.8 4.1-4.1-1.9-4.1-4.1-4.1zM82.8 52.3h-.1c-2.3 0-4.1 1.9-4 4.2 0 2.3 1.9 4.1 4.2 4 2.2 0 4-1.8 4-4 0-2.3-1.9-4.1-4.1-4.2zM95 39c-2.3 0-4.1 1.8-4.1 4.1s1.8 4.1 4.1 4.1 4.1-1.8 4.1-4.1c0-2.2-1.9-4.1-4.1-4.1zM82.7 39.5c-2.3 0-4.1 1.9-4 4.2s1.9 4.1 4.2 4c2.2 0 4-1.8 4-4 0-2.3-1.8-4.1-4-4.2h-.2z"/>
		<circle cx="90.5" cy="29.3" r="4.1"/>
	</g>
</svg>