<svg xmlns="http://www.w3.org/2000/svg" viewBox="0 0 100 100">
	<path fill="#63a607" d="M0 0h100v100H0V0z"/>
	<path fill="#fff" d="M47.7 75.9S35.3 55 34.4 36.9C33.5 18.7 46 14 46 14c-1.2.1-3.7.8-6.2 2-2.4 1.2-11.1 6.5-11.2 19.6.2 12.4 11.5 33.6 19.1 40.3zM46 14zM65.5 36.9c-.9 18.2-13.3 39-13.3 39 7.6-6.8 18.9-27.9 19.1-40.4-.1-13.1-8.7-18.4-11.1-19.5-2.4-1.2-5-1.9-6.2-2 0 0 12.4 4.7 11.5 22.9z"/>
	<path fill="#fff" d="M41.5 40c.6 9.7 3 21.9 7.3 36h2.1c4.2-14.1 6.7-26.2 7.3-36 .8-14-2.1-23-6.6-25.5-.4-.2-.9-.4-1.7-.4-.8 0-1.2.2-1.7.4-4.6 2.5-7.5 11.4-6.7 25.5zM49.9 14.1zM26.2 37.2c-.9-7 1.2-14.7 8.9-20 0 0-13.4 5.5-10.7 21.5 2.6 16 16.7 33 20.9 36.6 1.5 1.4-17.3-19.7-19.1-38.1zM64.9 17.2c7.8 5.3 9.8 13 8.9 20C72 55.6 53.2 76.7 54.7 75.3c4.2-3.6 18.3-20.6 20.9-36.6 2.7-16-10.7-21.5-10.7-21.5zM46 86h7.7l1.5-6.5H44.5z"/>
</svg>