<svg xmlns="http://www.w3.org/2000/svg" viewBox="0 0 100 100">
	<path fill="#649AD2" d="M94.97 29.4c0-1.681-.36-3.167-1.087-4.442-.715-1.254-1.785-2.305-3.22-3.136-11.844-6.83-23.701-13.64-35.542-20.476-3.192-1.843-6.288-1.776-9.456.094-4.715 2.78-28.32 16.304-35.353 20.378-2.897 1.677-4.307 4.243-4.307 7.579C6 43.132 6.005 56.867 6 70.603c0 1.644.345 3.101 1.04 4.357.715 1.292 1.8 2.372 3.268 3.222 7.034 4.074 30.642 17.596 35.355 20.378 3.17 1.87 6.266 1.937 9.459.093 11.841-6.837 23.699-13.646 35.545-20.475 1.468-.85 2.553-1.93 3.268-3.221.694-1.256 1.04-2.713 1.04-4.358 0 0 0-27.463-.005-41.199Z"/>
	<path fill="#004482" d="M50.623 49.866 7.04 74.96c.715 1.292 1.8 2.372 3.268 3.222 7.034 4.074 30.642 17.596 35.355 20.378 3.17 1.87 6.266 1.937 9.459.093 11.841-6.837 23.699-13.646 35.545-20.475 1.468-.85 2.553-1.93 3.268-3.221L50.623 49.866Z"/>
	<path fill="#1A4674" d="M37.715 57.3c2.536 4.427 7.303 7.413 12.772 7.413 5.503 0 10.298-3.024 12.821-7.5l-12.685-7.347-12.908 7.433Z"/>
	<path fill="#01589C" d="M94.97 29.4c0-1.681-.36-3.167-1.087-4.442l-43.26 24.908 43.312 25.09c.694-1.255 1.039-2.712 1.04-4.357 0 0 0-27.463-.005-41.199Z"/>
	<path fill="#fff" d="M92.589 51.66h-3.385v3.385H85.82V51.66h-3.384v-3.385h3.384v-3.384h3.385v3.384h3.385v3.385ZM50.487 20.453c10.822 0 20.283 5.818 25.43 14.496l.156.264-12.86 7.405c-2.55-4.382-7.292-7.331-12.726-7.331-8.125 0-14.713 6.587-14.713 14.713 0 2.657.709 5.148 1.94 7.3 2.537 4.427 7.304 7.413 12.773 7.413 5.443 0 10.192-2.958 12.737-7.352l.084-.147 12.841 7.44c-5.091 8.896-14.677 14.893-25.662 14.893-10.965 0-20.535-5.973-25.634-14.843A29.413 29.413 0 0 1 20.94 50c0-16.318 13.229-29.547 29.547-29.547ZM76.855 44.89v3.384h3.384v3.385h-3.384v3.385H73.47V51.66h-3.384v-3.385h3.384v-3.384h3.385Z"/>
</svg>