<svg xmlns="http://www.w3.org/2000/svg" viewBox="0 0 100 100">
	<path fill="#09d3ac" d="M76.1 32.6c4.8-20.4-6-26.9-21.3-12.4-15.3-14.4-26.1-8.1-21.3 12.4-20.3 6.1-20.2 18.6.1 24.7-4.8 20.3 5.8 27 21.3 12.4C70.2 84 81 77.7 76.2 57.3c9.2-2.8 20-18.7-.1-24.7zm-4.9-16.3c3.6 2.1 2.5 11.1 1.5 15.4-3.1-.7-6.2-1.2-9.3-1.5-1.9-2.6-3.9-5.1-6.1-7.5 3-3 10.2-8.4 13.9-6.4zM39.9 49.2c1.1 2.1 2.5 4.7 3.9 6.7-1.9-.3-3.9-.6-5.8-1.1.4-1.9 1.1-3.7 1.9-5.6zm-2.1-14.1c1.9-.4 3.9-.8 5.9-1.1-1.1 1.6-2.9 4.8-3.9 6.7-.7-1.8-1.4-3.7-2-5.6zm3.9 9.9c2-4.2 4.1-7.8 6.6-11.4 4.5-.3 9.1-.3 13.2 0 2.3 3.4 4.7 7.5 6.6 11.4-1.9 4-4.1 7.8-6.5 11.4-4.4.3-8.8.3-13.2 0-2.6-3.6-4.7-7.2-6.7-11.4zM66 34c2 .3 4 .6 5.8 1.1-.6 1.9-1.2 3.8-2 5.6-1-2-2.1-3.9-3.8-6.7zm2 18.5 1.8-3.3c.7 1.9 1.5 3.8 2 5.7-1.9.4-3.9.8-5.9 1.1.8-1.3 1.5-2.4 2.1-3.5zM54.8 25.2c1.4 1.5 2.7 3 3.9 4.6-2.3-.1-5.7-.1-7.8 0 1.3-1.6 2.6-3.1 3.9-4.6zm-16.4-8.9c3.8-2 10.7 3.4 13.9 6.4-2.2 2.3-4.2 4.8-6 7.4-3.1.3-6.3.8-9.4 1.5-.9-4.3-2.1-13.1 1.5-15.3zm-3.9 37.5c-4.3-1.3-12.6-4.8-12.6-9s8.3-7.6 12.5-8.9c.9 3.1 2.1 6.1 3.4 9-1.3 2.9-2.4 5.9-3.3 8.9zm17 14.2c-3 2.7-9.5 7.5-13 5.6-3.6-2.1-2.5-11-1.5-15.4 3.1.7 6.2 1.2 9.3 1.5 1.9 2.6 3.9 5.1 6.1 7.5l-.9.8zm3.4-3.4c-1.4-1.5-2.7-3-3.9-4.6 2.8.1 6.2.1 7.8 0-1.2 1.6-2.5 3.2-3.9 4.6zm16.4 8.9c-3.8 2.1-10.7-3.4-13.9-6.3 2.2-2.3 4.2-4.8 6-7.4 3.2-.3 6.3-.8 9.4-1.5 1 4.3 2.1 13.1-1.5 15.2zm8-21c-1.3.5-2.7 1-4 1.4-.9-3.1-2.1-6.1-3.4-9 1.3-2.9 2.4-5.8 3.3-8.9 4.3 1.3 12.6 4.8 12.6 9 0 2.5-3.3 5.3-8.5 7.5zm-17.7-7.6c0-3.8-3-6.8-6.8-6.8-4.8 0-8.1 4.9-6.3 9.4 2.9 6.9 13.1 4.8 13.1-2.6zM9.7 4v81.9H100V4H9.7zm86.8 78.3H13.2V7.5h83.2v74.8zm-62.9-25c-4.8 20.2 5.8 27.1 21.3 12.4C70.2 84 81 77.8 76.2 57.3c20.2-6.1 20.2-18.6-.1-24.7 4.8-20.5-6-26.9-21.3-12.4-15.3-14.3-26.1-8.1-21.3 12.4-20 6-20.4 18.5.1 24.7zM51.5 68c-3 2.7-9.5 7.5-13 5.6-3.6-2.1-2.5-11-1.5-15.4 3.1.7 6.2 1.2 9.3 1.5 1.9 2.6 3.9 5.1 6.1 7.5l-.9.8zm18.3-27.3c-1.6-3-2.6-4.6-3.8-6.7 2 .3 4 .6 5.8 1.1-.6 1.9-1.2 3.8-2 5.6zm2.1 14c-1.9.4-3.9.8-5.9 1.1 1.3-2.1 2.7-4.4 3.9-6.7.7 1.9 1.4 3.8 2 5.6zM68 44.9c-1.9 4-4.1 7.8-6.5 11.4-4.4.3-8.8.3-13.2 0-2.4-3.5-4.6-7.2-6.6-11.4 2-4.2 4.1-7.8 6.6-11.4 4.4-.3 8.9-.3 13.2 0 2.4 3.6 4.6 7.4 6.5 11.4zm-24.3 11c-1.9-.3-3.9-.6-5.8-1.1.6-1.9 1.2-3.8 2-5.6 1 1.9 2.6 4.9 3.8 6.7zm-3.9-15.2c-.8-1.9-1.4-3.7-2-5.6 1.9-.4 3.9-.8 5.9-1.1-1.3 2-2.7 4.5-3.9 6.7zm15.1 23.9c-1.4-1.5-2.7-3-3.9-4.6 2.3.1 5.8.1 7.8 0-1.2 1.6-2.5 3.2-3.9 4.6zm16.4 8.9c-3.8 2.1-10.7-3.4-13.9-6.3 2.2-2.3 4.2-4.8 6-7.4 3.2-.3 6.3-.8 9.4-1.5 1 4.3 2.1 13.1-1.5 15.2zM75.2 36c4.3 1.3 12.6 4.8 12.6 9s-8.3 7.6-12.5 8.9c-.9-3.1-2.1-6.1-3.4-9 1.3-2.9 2.4-5.8 3.3-8.9zm-17-14.1c3-2.7 9.5-7.5 13-5.6 3.6 2.1 2.5 11 1.5 15.4-3.1-.7-6.2-1.2-9.3-1.5-1.9-2.6-3.9-5.1-6.1-7.5.3-.3.6-.5.9-.8zm-3.4 3.3c1.4 1.5 2.7 3 3.9 4.6-2.3-.1-5.7-.1-7.8 0 1.3-1.6 2.6-3.1 3.9-4.6zm-16.4-8.9c3.8-2 10.7 3.4 13.9 6.4-2.2 2.3-4.2 4.8-6 7.4-3.1.3-6.3.8-9.4 1.5-.9-4.3-2.1-13.1 1.5-15.3 0 .1 0 0 0 0zm-8 21.1c1.3-.5 2.7-1 4-1.4.9 3.1 2.1 6.1 3.4 9-1.3 2.9-2.4 5.8-3.3 8.9-4.3-1.3-12.6-4.8-12.6-9 0-2.5 3.3-5.3 8.5-7.5zm24.4.8c-3.8 0-6.8 3-6.8 6.8s3 6.8 6.8 6.8 6.8-3 6.8-6.8-3-6.9-6.8-6.8zm0 0c-3.8 0-6.8 3-6.8 6.8s3 6.8 6.8 6.8 6.8-3 6.8-6.8-3-6.9-6.8-6.8zm0 0c-3.8 0-6.8 3-6.8 6.8s3 6.8 6.8 6.8 6.8-3 6.8-6.8-3-6.9-6.8-6.8zM91.3 45c0-5.1-6-9.6-15.2-12.4 4.8-20.4-6-26.9-21.3-12.4-15.3-14.4-26.1-8-21.3 12.4-20.3 6.1-20.2 18.6.1 24.7-4.8 20.3 5.8 27 21.3 12.4C70.2 84 81 77.8 76.2 57.3 85.4 54.5 91.3 50 91.3 45zM71.2 16.3c3.6 2.1 2.5 11.1 1.5 15.4-3.1-.7-6.2-1.2-9.3-1.5-1.9-2.6-3.9-5.1-6.1-7.5 3-3 10.2-8.4 13.9-6.4zM39.9 49.2c1.1 2.1 2.5 4.7 3.9 6.7-1.9-.3-3.9-.6-5.8-1.1.4-1.9 1.1-3.7 1.9-5.6zm-2.1-14.1c1.9-.4 3.9-.8 5.9-1.1-1.1 1.6-2.9 4.8-3.9 6.7-.7-1.8-1.4-3.7-2-5.6zm3.9 9.9c2-4.2 4.1-7.8 6.6-11.4 4.5-.3 9.1-.3 13.2 0 2.3 3.4 4.7 7.5 6.6 11.4-1.9 4-4.1 7.8-6.5 11.4-4.4.3-8.8.3-13.2 0-2.6-3.6-4.7-7.2-6.7-11.4zM66 34c2 .3 4 .6 5.8 1.1-.6 1.9-1.2 3.8-2 5.6-1-2-2.1-3.9-3.8-6.7zm2 18.5 1.8-3.3c.7 1.9 1.5 3.8 2 5.7-1.9.4-3.9.8-5.9 1.1.8-1.3 1.5-2.4 2.1-3.5zM54.8 25.2c1.4 1.5 2.7 3 3.9 4.6-2.3-.1-5.7-.1-7.8 0 1.3-1.6 2.6-3.1 3.9-4.6zm-16.4-8.9c3.8-2 10.7 3.4 13.9 6.4-2.2 2.3-4.2 4.8-6 7.4-3.1.3-6.3.8-9.4 1.5-.9-4.3-2.1-13.1 1.5-15.3zm-3.9 37.5c-4.3-1.3-12.6-4.8-12.6-9s8.3-7.6 12.5-8.9c.9 3.1 2.1 6.1 3.4 9-1.3 2.9-2.4 5.9-3.3 8.9zm17 14.2c-3 2.7-9.5 7.5-13 5.6-3.6-2.1-2.5-11-1.5-15.4 3.1.7 6.2 1.2 9.3 1.5 1.9 2.6 3.9 5.1 6.1 7.5l-.9.8zm3.4-3.4c-1.4-1.5-2.7-3-3.9-4.6 2.8.1 6.2.1 7.8 0-1.2 1.6-2.5 3.2-3.9 4.6zm16.4 8.9c-3.8 2.1-10.7-3.4-13.9-6.3 2.2-2.3 4.2-4.8 6-7.4 3.2-.3 6.3-.8 9.4-1.5 1 4.3 2.1 13.1-1.5 15.2zm8-21c-1.3.5-2.7 1-4 1.4-.9-3.1-2.1-6.1-3.4-9 1.3-2.9 2.4-5.8 3.3-8.9 4.3 1.3 12.6 4.8 12.6 9 0 2.5-3.3 5.3-8.5 7.5zm-17.7-7.6c0-3.8-3-6.8-6.8-6.8-4.8 0-8.1 4.9-6.3 9.4 2.9 6.9 13.1 4.8 13.1-2.6zM3.5 92V10.2L0 13.7v81.9h90.3l3.5-3.5H3.5z"/>
</svg>