<svg xmlns="http://www.w3.org/2000/svg" viewBox="0 0 100 100">
	<path fill="#2684ff" d="M97.9 18.4 50 .8 2.1 18.4c-1.4.5-2.1 1.7-2.1 3l1.1 27.2c.8 22.5 12.1 39.3 29.8 50.1 1.7 1.1 3.8.3 4.7-1.5l10.3-24.3c.3-.9-.2-1.8-1.1-2.1-7.6-2.3-13.1-9.4-13.1-17.7 0-10.3 8.3-18.4 18.4-18.4 10.1 0 18.4 8.3 18.4 18.4 0 8.3-5.6 15.4-13.1 17.7-.9.3-1.4 1.2-1.1 2.1l10.3 24.3c.8 1.8 3 2.4 4.7 1.5 17.7-10.9 29-27.6 29.8-50.1l1.1-27.2c-.1-1.2-1-2.5-2.3-3z"/>
	<linearGradient id="a" x1="75.2737" x2="83.9366" y1="66.4874" y2="8.6688" gradientTransform="matrix(1 0 0 -1 0 101.433)" gradientUnits="userSpaceOnUse">
		<stop offset="0" stop-color="#2684ff"/>
		<stop offset="1" stop-color="#0052cc"/>
	</linearGradient>
	<path fill="url(#a)" d="M50 34.7c10.3 0 18.4 8.3 18.4 18.4 0 8.3-5.6 15.4-13.1 17.7-.9.3-1.4 1.2-1.1 2.1l10.3 24.3c.8 1.8 3 2.4 4.7 1.5 17.7-10.9 29-27.6 29.8-50.1l1.1-27.2c0-1.4-.8-2.6-2.1-3L50 .8v33.9z"/>
</svg>