<svg xmlns="http://www.w3.org/2000/svg" viewBox="0 0 100 100">
	<path fill="#2684ff" d="M50 0C23.2 0 1.4 9.1 1.4 20.4c0 .5 0 1.1.2 1.8L10.2 67c3.7 19.1 20.4 33 39.8 33s36.2-13.9 39.8-33l8.6-44.9c.2-.6.2-1.1.2-1.8C98.6 9.2 76.9 0 50 0zm0 74.4c-14 0-12.9-32.5-28.5-37.4-1.3-.5-2.5-.8-3.8-1.3 8.6-3.2 19.9-5.3 32.3-5.3 12.4 0 23.7 1.9 32.3 5.3-1.3.5-2.4 1-3.8 1.3C62.9 41.7 64 74.4 50 74.4z"/>
	<linearGradient id="a" x1="50" x2="50" y1="65.9956" y2="100.7967" gradientTransform="matrix(1 0 0 -1 0 101.433)" gradientUnits="userSpaceOnUse">
		<stop offset="0" stop-color="#0052cc"/>
		<stop offset="1" stop-color="#2684ff"/>
	</linearGradient>
	<path fill="url(#a)" d="M17.7 35.7c8.6-3.2 19.9-5.3 32.3-5.3 12.4 0 23.7 1.9 32.3 5.3 9.9-3.7 16.2-9.2 16.2-15.3C98.6 9.1 76.9 0 50 0S1.4 9.1 1.4 20.4c.2 6 6.4 11.6 16.3 15.3z"/>
</svg>