<svg xmlns="http://www.w3.org/2000/svg" viewBox="0 0 100 100">
	<path fill="#05930c" d="M50 100c27.6 0 50-22.4 50-50S77.6 0 50 0 0 22.4 0 50s22.4 50 50 50z"/>
	<path fill="#fff" fill-opacity=".1" d="m15.2 14.1 70.6 70.8C76.8 94.2 64.1 100 50 100 22.4 100 0 77.6 0 50c0-14.1 5.8-26.8 15.2-35.9z"/>
	<path fill="#fff" d="M27 61.9c-2.7-3.2-4.2-7.3-3.9-11.5-.2-4.4 1.3-8.8 4.2-12.1 2.8-3 6.8-4.7 10.9-4.5 3.3 0 6.5.8 9.4 2.4v-4.9c-3-1.2-6.1-1.7-9.3-1.6-5.4-.2-10.7 1.9-14.5 5.8-3.9 4.1-5.9 9.6-5.7 15.3-.2 5.2 1.6 10.3 5 14.2 3.5 3.7 8.4 5.6 13.5 5.4 3.8.1 7.5-.7 10.9-2.3v-4.5c-3.1 1.8-6.7 2.7-10.3 2.6-3.8.1-7.6-1.4-10.2-4.3zM82.4 41.3zM77.5 30.3h-3.4l-2.4 11h-6.9l2.3-11h-3.5l-2.3 11h-7.6l-.6 2.9h7.6L59 52.4h-7.3l-.5 2.9h7.2l-2.3 10.9h3.4l2.3-10.9h6.9l-2.4 10.9h3.5l2.4-10.9h7.6l.7-2.9h-7.7l1.7-8.2h7.2l.6-2.9h-7.2l2.4-11zm-8 22.2h-7l1.8-8.2h6.9l-1.7 8.2z"/>
</svg>