<svg xmlns="http://www.w3.org/2000/svg" viewBox="0 0 100 100">
	<path fill="#2876cb" d="M0 0h100v100H0V0z"/>
	<path fill="#fff" d="M86.7 50.5c.1 0 .1.1 0 .2-1 .3-1.5 1.4-1.4 2.4.1 1 .2 1.9.3 2.9.2 2.4-1.9 1.8-1.9 2 0 1.1-.1 1.3.1 1.3 6.9.5.7-8.1 4.8-8 .1 0 .1 0 .1-.1 0-1.1 0-1.1-.2-1.2-2.1-.2-1.5-1.7-1.2-4.7.3-3.7-3.6-3.5-3.6-3.2v1.2c.1.1 1.7-.2 1.9 1.3v.5c-.2 2.2-.9 4.9 1.1 5.4zm-73.5.2c-.1 0-.1-.1 0-.1 1.9-.6 1.4-2.8 1.2-4.9-.2-1.9.5-2.1 1.8-2.2.1 0 .1-.1.1-1.3 0-.2-3.9-.4-3.6 3.1.3 2.7.7 4.3-.7 4.7-.5.2-.7 0-.7.2 0 .9 0 1.1.2 1.1 4.1 0-2.3 8.4 4.7 8 .1 0 .1 0 .1-1.3 0-.2-1.3.2-1.7-1-.1-.4-.2-.7-.1-1 .1-2.1.7-4.8-1.3-5.3zm14.2 4c.1 0 .1.2.4 1.7 0 .2-.8.4-.9.4-10.9 2.4-11.6-11.5-5-14.2 2.8-1.1 6.1-.2 6 .1-.4 1.4-.4 1.8-.5 1.7-3-1.3-6.5-.1-7.2 3.4-1.2 5.7 2.6 8.8 7.2 6.9zm5.8-4.4c3.2 1.3 2.7 3.6 1.6 4.4-2 1.5-5-.4-5.1-.3-.5 1.8-.5 1.8-.3 2 3.7 1.7 8.4.6 8.4-3.6 0-2.2-1.5-3.3-3.4-4.2-1.3-.6-2.8-1.2-2.7-2.8.1-2 3-2.2 4.9-1.2h.1c.1-.1.5-1.7.5-1.8-.2-.3-4.9-1.7-7 1-1 1.4-1 4.9 3 6.5zm6.5-4.6c.3-3.8 4.9-4.3 7.7-3 .2.1 0 .2-.4 1.8 0 .1-.1.1-.1.1-3.8-1.9-6.3 1-4.3 2.8.7.7 1.8 1.1 2.7 1.5 3.8 1.8 3.3 5.8 1.2 7.3-2.6 1.9-7.1.5-7 0 .4-1.3.4-1.8.5-1.8.1 0 1.3.9 3.3.8 1.4 0 2.7-.9 2.5-2.5-.1-2.7-6.6-2.3-6.1-7zm34.4 1.5c.5 1.7 2.2 2.6 3.7 3.2 3.2 1.3 2.7 4.1.5 4.7-2.2.6-4-.8-4.1-.7-.4 1.5-.6 1.8-.5 1.8 3 1.8 8.8 1 8.6-3.7-.1-2-1.5-3.2-3.2-4-1.9-.8-3.7-2-2.6-3.7 1.1-1.8 3.7-.6 4.7-.3h.1c.5-1.7.6-1.8.4-1.8-1.7-.7-3.9-.9-5.5 0-1.8.8-2.7 2.7-2.1 4.5zm-4.7-4.8c0-.1.1 0 2.1 0 .1 0 .2 10.4-.1 11.6-1 4.2-6.2 3.2-6.1 2.8.2-1.6.2-1.7.3-1.8.1 0 3 1 3.6-1.4.1-.4.2-1.4.2-11.2zm-15 8.8c-.8 0-.8-1.2 0-1.2.3 0 .8 1.2 0 1.2zm2.7 1.3c.1 0 .1 0 0 0 .1 0 .1 0 0 0 .9-1.2 3.1-1 3.1 1 0 .3.1 3.3 0 3.3-1 0-1 0-1-.1 0-3 .2-3.3-.3-3.9-.4-.6-1.3-.2-1.6.4-.1.2-.1.5-.1 1 0 2.6 0 2.6-.1 2.6-.9 0-.9 0-.9-.1 0-5.2-.1-4.9.1-4.9.8.1.8-.1.8.7zm-3.2-.6c.7 0 1-.1 1 0 0 5 .1 5 0 5-.7 0-1 .1-1 0-.1-.2-.1-5 0-5z"/>
</svg>