<svg xmlns="http://www.w3.org/2000/svg" viewBox="0 0 100 100">
	<path fill="#264DE4" d="m50.38 100-28.933-8.032L15 19.652h70.847l-6.455 72.305L50.38 100Z"/>
	<path fill="#2965F1" d="m73.867 87.353 5.515-61.788H50.423v68.287l23.444-6.5Z"/>
	<path fill="#EBEBEB" d="m29.78 52.386.796 8.87h19.847v-8.87H29.781Zm-1.597-17.951.807 8.869h21.433v-8.87h-22.24Zm22.24 40.985-.039.01-9.877-2.666-.632-7.074h-8.903l1.242 13.926 18.169 5.043.04-.01V75.42Z"/>
	<path fill="#000" d="M31.673 0h10.743v4.492h-6.25v4.492h6.25v4.493H31.672V0Zm12.891 0h10.742v3.906h-6.25v.781h6.25v8.985H44.564V9.57h6.25v-.78h-6.25V0Zm12.891 0h10.742v3.906h-6.25v.781h6.25v8.985H57.455V9.57h6.25v-.78h-6.25V0Z"/>
	<path fill="#fff" d="m71.009 52.386 1.601-17.951H50.393v8.869H62.89l-.807 9.082h-11.69v8.87h10.921l-1.03 11.502-9.891 2.67v9.227l18.182-5.039.133-1.498 2.085-23.35.216-2.382Z"/>
</svg>