<svg xmlns="http://www.w3.org/2000/svg" viewBox="0 0 100 100">
	<path fill="#23D96C" d="M71.134 7.872a34.545 34.545 0 0 0-2.333-1.28 34.897 34.897 0 0 0-2.492-1.12c-.268-.112-.533-.215-.803-.321-.74-.274-1.488-.579-2.25-.801A41.953 41.953 0 1 0 42.11 85.353V97.36c25.214-3.786 47.543-23.71 49.209-49.87.99-15.74-6.896-31.81-20.185-39.618Z"/>
	<path fill="#173647" d="M39.83 100V87.183A44.21 44.21 0 1 1 63.955 2.191a25.11 25.11 0 0 1 1.796.629l.535.2c.357.139.629.244.901.361a35.613 35.613 0 0 1 5.099 2.54c13.806 8.11 22.36 24.873 21.286 41.713-1.648 25.914-23.154 47.773-51.135 51.973l-2.609.393ZM50.194 4.52h-.056a39.662 39.662 0 0 0-7.61 78.623l1.835.356v11.186c24.602-4.802 43.21-24.342 44.672-47.34.968-15.188-6.694-30.273-19.068-37.54l-.018-.01a31.725 31.725 0 0 0-2.181-1.199 32.23 32.23 0 0 0-2.313-1.038c-.279-.12-.51-.216-.743-.298l-.583-.216a20.492 20.492 0 0 0-1.529-.538 39.788 39.788 0 0 0-12.4-1.987h-.004Z"/>
	<path fill="#173647" d="M41.727 22.847a3.887 3.887 0 0 1 3.419 1.313 9.037 9.037 0 0 1 1.572 2.39c1.393 3.071 2.218 7.474.497 9.945a13.677 13.677 0 0 1-8.597-6.666 6.99 6.99 0 0 1-.75-2.892 4.226 4.226 0 0 1 3.86-4.09Zm-12.272 17.33a16.75 16.75 0 0 0 2.63 1.592 12.5 12.5 0 0 0 10.545-.298 13.208 13.208 0 0 0-7.224-7.45 7.913 7.913 0 0 0-3.114-.694c-.229-.02-.46-.02-.688 0a3.815 3.815 0 0 0-2.15 6.85Zm13.173 7.413c-1.678-1.118-5.138-.667-7.152-.63a9.535 9.535 0 0 0-3.598.76 7.559 7.559 0 0 0-2.63 1.594 3.924 3.924 0 0 0 3.042 6.848 7.127 7.127 0 0 0 3.114-.694c3.101-1.338 6.781-5.01 7.224-7.878Zm5.636 4.32a14.16 14.16 0 0 0-8.042 7.57 6.675 6.675 0 0 0-.693 2.838 4.119 4.119 0 0 0 7.126 2.907 16.03 16.03 0 0 0 1.512-2.63c1.341-2.879 1.87-8.034.1-10.685h-.003Zm5.522-15.478a12.83 12.83 0 0 0 7.99-6.839c.436-.908.671-1.9.69-2.907a4.135 4.135 0 0 0-3.875-4.22 3.957 3.957 0 0 0-3.455 1.385c-.59.826-1.1 1.707-1.523 2.63-1.339 3.097-1.818 7.515.175 9.94l-.002.011Zm9.087 26.163a7.005 7.005 0 0 0-.693-2.905 12.674 12.674 0 0 0-7.675-7.06 11.63 11.63 0 0 0-.488 10.174c.371.883.882 1.7 1.512 2.421 2.446 2.656 7.567.691 7.344-2.63Zm9.07-13.562a16.127 16.127 0 0 0-2.628-1.511 9.553 9.553 0 0 0-3.598-.76 13.82 13.82 0 0 0-6.884 1.198 12.869 12.869 0 0 0 7.161 7.312c.98.439 2.04.674 3.114.691a3.887 3.887 0 0 0 2.829-6.93h.006Z"/>
</svg>