<svg xmlns="http://www.w3.org/2000/svg" viewBox="0 0 100 100">
	<path fill="#69d3a7" d="M4.5 63.2C3.3 59 2.7 54.5 2.7 50c0-20.5 12.9-39.3 32-46.6l2.5 6.5C20.7 16.2 9.7 32.4 9.7 50c0 3.9.5 7.7 1.5 11.4l-6.7 1.8z"/>
	<linearGradient id="a" x1="47.6178" x2="85.6697" y1="104.68" y2="64.0098" gradientTransform="matrix(1 0 0 -1 0 101.433)" gradientUnits="userSpaceOnUse">
		<stop offset=".0939" stop-color="#58d09e"/>
		<stop offset=".9883" stop-color="#58d09e" stop-opacity="0"/>
	</linearGradient>
	<path fill="url(#a)" d="M91.1 30.2C83.7 15.9 69 7 52.8 7c-5.7 0-11.3 1.1-16.5 3.3l-2.7-6.4C39.7 1.3 46.2 0 52.8 0c18.8 0 35.8 10.3 44.5 27l-6.2 3.2z"/>
	<path class="st2" d="M37.8 39.7c4 0 7.3 2.2 9 5.9l.1.3 6.8-2.3-.1-.3C51 36.8 45 32.9 37.8 32.9c-5 0-9.1 1.6-12.4 4.9-3.3 3.3-5 7.4-5 12.3 0 4.8 1.7 8.9 5 12.2 3.4 3.3 7.4 4.9 12.4 4.9 7.1 0 13.2-4 15.8-10.4l.1-.3-6.7-2.4-.1.3c-1.5 3.7-4.9 5.9-9 5.9-2.8 0-5.2-1-7.1-2.9-1.9-2-2.9-4.4-2.9-7.3 0-2.9.9-5.3 2.9-7.4 1.8-2 4.2-3 7-3zM80.4 33.5 70.7 58 61 33.5h-8l13.7 33.4L57 90.5l7 1.4 24-58.4h-7.6z"/>
	<linearGradient id="b" x1="2.1542" x2="74.8509" y1="28.6906" y2="9.3412" gradientTransform="matrix(1 0 0 -1 0 101.433)" gradientUnits="userSpaceOnUse">
		<stop offset=".0774" stop-color="#58d09e"/>
		<stop offset=".7617" stop-color="#1b1e2e"/>
	</linearGradient>
	<path fill="url(#b)" d="m58.2 87.5-1.7 4.1c-.3.8-1.1 1.4-2 1.4h-1.7c-20 0-37.7-14.1-42.1-33.5L3.9 61c2.5 10.9 8.6 20.8 17.4 27.8 8.9 7.1 20 11.1 31.4 11.1h2.1c3.6-.2 6.8-2.4 8.1-5.7l2.2-5.4-6.9-1.3z"/>
</svg>