<svg xmlns="http://www.w3.org/2000/svg" viewBox="0 0 100 100">
	<linearGradient id="a" x1="41.8077" x2="101.0737" y1="91.7347" y2="27.7427" gradientTransform="matrix(1 0 0 -1 0 101.433)" gradientUnits="userSpaceOnUse">
		<stop offset="0" stop-color="#f9a03c"/>
		<stop offset="1" stop-color="#f7974e"/>
	</linearGradient>
	<path fill="url(#a)" d="M99.8 71.6c0-.4.1-.9.1-1.3 0-.5-31.5-30.4-31.5-30.4h-.8c.1 0 32.1 33.7 32.2 31.7z"/>
	<linearGradient id="b" x1="-8.6472" x2="47.6698" y1="79.2759" y2="24.6539" gradientTransform="matrix(1 0 0 -1 0 101.433)" gradientUnits="userSpaceOnUse">
		<stop offset="0" stop-color="#f9a03c"/>
		<stop offset="1" stop-color="#f7974e"/>
	</linearGradient>
	<path fill="url(#b)" d="m32.6 61.3-.3.6c-1 2.1 14.1 16.8 15.3 15 .1-.1.1-.2.2-.2l.2-.3c.9-1.5-15-16.1-15.4-15.1z"/>
	<linearGradient id="c" x1="18.729" x2="68.023" y1="61.3836" y2="3.3036" gradientTransform="matrix(1 0 0 -1 0 101.433)" gradientUnits="userSpaceOnUse">
		<stop offset="0" stop-color="#f9a03c"/>
		<stop offset="1" stop-color="#f7974e"/>
	</linearGradient>
	<path fill="url(#c)" d="M53.9 82c0 .1-.3.6-.6.9C53.3 83 68 97.6 68 97.6h1.3S55.5 82.6 53.9 82z"/>
	<linearGradient id="d" x1="15.2098" x2="81.4608" y1="102.9998" y2="10.6268" gradientTransform="matrix(1 0 0 -1 0 101.433)" gradientUnits="userSpaceOnUse">
		<stop offset="0" stop-color="#f26d58"/>
		<stop offset="1" stop-color="#f9a03c"/>
	</linearGradient>
	<path fill="url(#d)" d="M100 70c-.7 15.3-13.3 27.5-28.8 27.5h-2.1L53.6 82.4c1.3-1.8 2.4-3.7 3.5-5.6h14c4.4 0 8-3.6 8-8s-3.6-8-8-8h-8.3c.6-3.4 1-6.9 1-10.3 0-3.6-.4-7.1-1-10.5H68l31.9 31.4c0-.5 0-.9.1-1.4zM8.4 3H0v20.8h8.4C23 23.8 35 35.7 35 50.4c0 4-.9 7.8-2.5 11.2l15.3 15.1c5.2-7.8 8-16.9 8-26.2C55.8 24.2 34.5 3 8.4 3z"/>
	<linearGradient id="e" x1="44.5373" x2="113.2903" y1="91.4518" y2="49.9288" gradientTransform="matrix(1 0 0 -1 0 101.433)" gradientUnits="userSpaceOnUse">
		<stop offset="0" stop-color="#b84e51"/>
		<stop offset="1" stop-color="#f68e48"/>
	</linearGradient>
	<path fill="url(#e)" d="M71.2 3h-34C45.5 8.1 52.4 15.3 57 23.8h14.1c4.4 0 8 3.6 8 8s-3.6 8-8 8H68l31.9 31.4c.1-.9.1-1.7.1-2.6 0-7-2.5-13.4-6.7-18.4 4.3-5.2 6.7-11.7 6.7-18.4C100 15.9 87.1 3 71.2 3z"/>
	<linearGradient id="f" x1="33.9615" x2="34.8945" y1="31.4104" y2="-13.4526" gradientTransform="matrix(1 0 0 -1 0 101.433)" gradientUnits="userSpaceOnUse">
		<stop offset="0" stop-color="#f9a03c"/>
		<stop offset="1" stop-color="#f7974e"/>
	</linearGradient>
	<path fill="url(#f)" d="M69.1 97.6H37.4c6.4-3.9 11.9-9.1 16.2-15.2l15.5 15.2zm-21.3-21L32.5 61.5c-4.2 9.1-13.4 15.4-24.1 15.4H0v20.8h8.4c16.4 0 30.9-8.4 39.4-21.1z"/>
</svg>