<svg xmlns="http://www.w3.org/2000/svg" viewBox="0 0 100 100">
	<path fill="#CF4037" d="M0 0h100v99.996H0V0Z"/>
	<path fill="#3F3E3E" d="M42.498 55.636c-3.33 0-6.229.867-8.691 2.753v5.216c2.462-2.753 5.361-4.197 8.691-4.197l3.912.582 3.33 1.45 3.33 1.449a9.467 9.467 0 0 0 3.33.582c3.62 0 6.228-1.159 7.963-3.621v-5.07c-1.74 3.33-4.343 4.924-7.963 4.924a9.459 9.459 0 0 1-3.33-.582l-3.33-1.45-3.33-1.449-3.912-.587Z"/>
	<path fill="#fff" d="m36.851 57.662-1.74.867-.146.146v2.899l1.013-.868a11.343 11.343 0 0 1 6.805-2.317c1.304 0 2.754.291 4.198.722a25.94 25.94 0 0 1 3.475 1.45l3.184 1.303c1.013.437 2.026.722 3.04.722 2.025 0 3.911-.582 5.5-1.74l1.304-1.158.291-.291V57.08a10.617 10.617 0 0 1-2.898 2.317 8.227 8.227 0 0 1-4.198 1.012c-1.158 0-2.317-.29-3.62-.721-.722-.146-1.741-.722-3.33-1.45l-3.33-1.304-3.621-.722c-2.02 0-4.046.437-5.927 1.45Z"/>
	<path fill="#3F3E3E" d="m42.935 54.477-.146-4.924c0-12.598 2.317-25.346 6.95-38.38 4.635 13.034 6.952 25.776 6.952 38.38a69.72 69.72 0 0 1-.583 9.122 16.627 16.627 0 0 1-3.766-1.013c.391-2.686.586-5.396.582-8.11 0-7.241-1.013-15.35-3.184-24.327-2.172 8.977-3.185 17.086-3.185 24.328l.291 5.646a14.051 14.051 0 0 0-3.911-.722Zm.576 5.793a147.526 147.526 0 0 0 6.229 27.808 201.528 201.528 0 0 0 5.646-24.042c-1.31-.18-2.582-.57-3.766-1.158l-1.88 10.14a153.172 153.172 0 0 1-2.317-11.875 18.554 18.554 0 0 0-3.912-.873Z"/>
	<path fill="#fff" d="m48.872 73.304-2.171-11.585-2.172-.582c.582 4.197 1.45 8.837 2.608 13.901l2.608 9.996c2.026-7.097 3.621-13.756 4.634-20.276l-2.026-.722-1.74 9.268-.868 3.766-.873-3.766Zm0-48.37c-2.177 9.122-3.19 17.231-3.19 24.619l.146 4.488-2.026-.291-.145-4.197c0-7.679 1.158-16.364 3.475-26.068l2.608-9.704 2.608 9.704c2.317 9.698 3.475 18.39 3.475 26.068 0 2.462-.145 5.215-.437 8.109l-2.17-.582.436-7.533c0-7.387-1.013-15.496-3.04-24.618l-.867-3.767-.873 3.772Z"/>
</svg>