<svg xmlns="http://www.w3.org/2000/svg" viewBox="0 0 100 100">
	<path fill="#01579b" d="M20.4 79.6 3.3 62.5c-2-2.1-3.3-5-3.3-7.9 0-1.3.8-3.4 1.3-4.6l15.8-32.9 3.3 62.5z"/>
	<path fill="#40c4ff" d="M79 20.4 61.8 3.3C60.3 1.8 57.2 0 54.6 0c-2.3 0-4.5.5-5.9 1.3L17.1 17.1 79 20.4zM40.8 100h41.5V82.2l-30.9-9.9L23 82.2 40.8 100z"/>
	<path fill="#29b6f6" d="M17.1 70.4c0 5.3.7 6.6 3.3 9.2l2.6 2.6h59.2L53.3 49.3 17.1 17.1v53.3z"/>
	<path fill="#01579b" d="M69.7 17.1H17.1l65.1 65.1H100V41.4l-21.1-21c-2.9-3-5.5-3.3-9.2-3.3z"/>
	<path fill="#fff" opacity=".2" d="M21.1 80.3c-2.6-2.6-3.3-5.2-3.3-9.9V17.8l-.7-.7v53.3c0 4.6 0 5.9 4 9.9z"/>
	<path fill="#263238" opacity=".2" d="M99.3 40.8v40.8H81.6l.7.7H100V41.4l-.7-.6z"/>
	<path fill="#fff" opacity=".2" d="M79 20.4c-3.3-3.3-5.9-3.3-9.9-3.3h-52l.7.7h51.3c1.9 0 6.9-.4 9.9 2.6z"/>
	<radialGradient id="a" cx="-4964.0068" cy="3217.8096" r="1" gradientTransform="matrix(4999.2598 0 0 -4999.27 24821358 16091698)" gradientUnits="userSpaceOnUse">
		<stop offset="0" stop-color="#fff" stop-opacity=".1"/>
		<stop offset="1" stop-color="#fff" stop-opacity="0"/>
	</radialGradient>
	<path fill="url(#a)" opacity=".2" d="M99.3 40.8 79 20.4 61.8 3.3C60.3 1.8 57.2 0 54.6 0c-2.3 0-4.5.5-5.9 1.3L17.1 17.1 1.3 50C.8 51.2 0 53.3 0 54.6c0 2.9 1.3 5.8 3.3 7.9l15.8 15.7c.4.5.8.9 1.3 1.5l.7.7 2 2 17.1 17.1.7.7h41.4v-18H100V41.4l-.7-.6z"/>
</svg>