<svg xmlns="http://www.w3.org/2000/svg" viewBox="0 0 100 100">
	<linearGradient id="a" x1="91.5566" x2="94.4733" y1="64.3757" y2="38.9173" gradientTransform="matrix(1 0 0 -1 0 102)" gradientUnits="userSpaceOnUse">
		<stop offset=".16" stop-color="#21d789"/>
		<stop offset=".54" stop-color="#419fbc"/>
		<stop offset="1" stop-color="#6b57ff"/>
	</linearGradient>
	<path fill="url(#a)" d="m93.6 15.5 6.4 40.9-11.8 6.9 5.4-47.8z"/>
	<linearGradient id="b" x1="64.9533" x2="72.3492" y1="75.3104" y2="94.227" gradientTransform="matrix(1 0 0 -1 0 102)" gradientUnits="userSpaceOnUse">
		<stop offset="0" stop-color="#6b57ff"/>
		<stop offset=".95" stop-color="#21d789"/>
	</linearGradient>
	<path fill="url(#b)" d="M93.6 15.5 57.8 0l-10 8.3 45.8 7.2z"/>
	<linearGradient id="c" x1="24.0767" x2="31.2642" y1="51.5092" y2="20.2176" gradientTransform="matrix(1 0 0 -1 0 102)" gradientUnits="userSpaceOnUse">
		<stop offset="0" stop-color="#6b57ff"/>
		<stop offset=".02" stop-color="#685cfb"/>
		<stop offset=".28" stop-color="#4a91ca"/>
		<stop offset=".51" stop-color="#34b7a7"/>
		<stop offset=".69" stop-color="#26ce91"/>
		<stop offset=".8" stop-color="#21d789"/>
	</linearGradient>
	<path fill="url(#c)" d="M67.6 100 12 55.7.9 89.3 67.6 100z"/>
	<linearGradient id="d" x1="6.2312" x2="93.8563" y1="51.9933" y2="3.6079" gradientTransform="matrix(1 0 0 -1 0 102)" gradientUnits="userSpaceOnUse">
		<stop offset=".08" stop-color="#21d789"/>
		<stop offset=".89" stop-color="#6b57ff"/>
	</linearGradient>
	<path fill="url(#d)" d="M75.3 72 0 46.2 67.6 100l7.7-28z"/>
	<linearGradient id="e" x1="6.7604" x2="94.8333" y1="63.6561" y2="63.6561" gradientTransform="matrix(1 0 0 -1 0 102)" gradientUnits="userSpaceOnUse">
		<stop offset=".31" stop-color="#21d789"/>
		<stop offset=".49" stop-color="#59a3b2"/>
		<stop offset=".77" stop-color="#b74af7"/>
		<stop offset="1" stop-color="#ff45ed"/>
	</linearGradient>
	<path fill="url(#e)" d="M0 .7v45.4L86.8 76l6.8-60.4L0 .7z"/>
	<path d="M18.8 18.6h62.5v62.5H18.8V18.6z"/>
	<path fill="#fff" d="M25.1 26.8h10.1c8.1 0 13.8 5.6 13.8 12.9v.1c0 7.3-5.6 12.9-13.8 12.9H25.1V26.8zm5.7 5.1v15.6h4.4c1 .1 2.1-.1 3-.5 1-.4 1.8-.9 2.6-1.7.7-.7 1.3-1.6 1.7-2.6.4-1 .5-2 .5-3v-.1c.1-1-.1-2.1-.5-3s-.9-1.9-1.7-2.6c-.7-.7-1.6-1.3-2.6-1.7-1-.4-2-.5-3-.5 0 .1-4.4.1-4.4.1zm19.1 7.9c0-1.8.3-3.6 1-5.2s1.7-3.1 2.9-4.4c1.3-1.2 2.8-2.2 4.4-2.9 1.6-.7 3.4-1 5.2-.9 3.7-.2 7.4 1.1 10.2 3.6L70 34.3c-1.8-1.7-4.2-2.7-6.8-2.6-4.2 0-7.4 3.7-7.4 8.1v.1c0 4.7 3.3 8.2 7.8 8.2 1.9.1 3.8-.5 5.4-1.5v-3.7h-5.7V38h11.2v11c-3.1 2.7-7 4.1-11.1 4.1-7.9 0-13.5-5.7-13.5-13.3zM24.5 69.4h23.4v3.9H24.5v-3.9z"/>
</svg>