<svg xmlns="http://www.w3.org/2000/svg" viewBox="0 0 100 100">
	<linearGradient id="SVGID_1_" x1="30.5721" x2="91.2563" y1="76.6842" y2="64.5897" gradientTransform="matrix(1 0 0 -1 0 101.433)" gradientUnits="userSpaceOnUse">
		<stop offset=".2421" stop-color="#3bea62"/>
		<stop offset=".8566" stop-color="#fcf84a"/>
	</linearGradient>
	<path fill="url(#SVGID_1_)" d="M92.8 11.8c-1.2-.7-2.6-1.1-4-1.3C88 10.4 34.8.2 32 0c-1.4-.1-2.8 0-4.1.2C3.1 3.9-3.1 34 17.3 46.6c4.8 3 10.6 3.9 16.1 2.7 9.7-2.1 53.2-12.9 56-13.5 12.1-2.6 14.6-18.1 3.4-24z"/>
	<linearGradient id="SVGID_00000159454472812320408140000012215588261498952578_" x1="24.0751" x2="82.3415" y1="94.5122" y2="5.8903" gradientTransform="matrix(1 0 0 -1 0 101.433)" gradientUnits="userSpaceOnUse">
		<stop offset=".0176" stop-color="#3bea62"/>
		<stop offset=".786" stop-color="#087cfa"/>
	</linearGradient>
	<path fill="url(#SVGID_00000159454472812320408140000012215588261498952578_)" d="M93.4 58.1C91.3 55.8 53.6 13 45.5 6 43.8 4.6 42 3.3 40 2.3 36.3.3 32-.4 27.8.2 5.5 3.5-1.7 28.4 12.1 42.5c1.5 1.5 43 47.6 43.3 48.1 2 2.5 4.4 4.6 7.1 6.2 4.8 3 10.7 4 16.2 2.7 20.4-4.5 27-27.5 14.7-41.4z"/>
	<linearGradient id="SVGID_00000084515069637449142120000017161379943524723376_" x1="23.265" x2="97.0631" y1="45.2019" y2="18.548" gradientTransform="matrix(1 0 0 -1 0 101.433)" gradientUnits="userSpaceOnUse">
		<stop offset=".1209" stop-color="#1faeb5"/>
		<stop offset=".9746" stop-color="#087cfa"/>
	</linearGradient>
	<path fill="url(#SVGID_00000084515069637449142120000017161379943524723376_)" d="M85.4 52c-.8-.4-1.7-.8-2.6-1.1-.7-.2-56.7-17.9-58-18.2-2.1-.5-4.2-.6-6.4-.3-20 2.9-25 27.4-8.5 37.6 3.9 2.4 55 28.1 56.3 28.6 4 1.5 8.3 1.8 12.4.9 24-5.2 28.9-35.8 6.8-47.5z"/>
	<linearGradient id="SVGID_00000144309293476190960120000013537619195550474370_" x1="2.0347" x2="97.3569" y1="41.0507" y2="83.298" gradientTransform="matrix(1 0 0 -1 0 101.433)" gradientUnits="userSpaceOnUse">
		<stop offset=".1209" stop-color="#1faeb5"/>
		<stop offset=".8556" stop-color="#fcf84a"/>
	</linearGradient>
	<path fill="url(#SVGID_00000144309293476190960120000013537619195550474370_)" d="M92.8 11.8c-1.9-1-4.1-1.4-6.2-1.1-1.1.2-2.2.4-3.2.8-5 1.9-69.1 21.7-70.9 22.5C9 35.5 6 37.9 3.8 40.9 1.6 43.9.3 47.5 0 51.3c-.3 3.7.5 7.5 2.3 10.8 1.7 3.3 4.4 6.1 7.6 8 3.9 2.4 8.6 3.2 13.1 2.2 1.7-.4 3.4-.9 5-1.7 8-3.8 64.3-35.6 65.5-36.3 2-1.1 3.7-2.8 4.8-4.8 1.1-2 1.7-4.3 1.6-6.6-.1-2.3-.8-4.6-2-6.5-1.2-2-3-3.6-5.1-4.6z"/>
	<path d="M81.2 18.8H18.8v62.5h62.5V18.8z"/>
	<path fill="#fff" d="M50 69.4H26.5v3.9H50v-3.9zM26.5 26.5h9.2c7.4 0 12.5 5.1 12.5 11.7v.1c0 6.6-5.1 11.8-12.5 11.8h-9.2V26.5zm5.2 4.6v14.2h4c.9.1 1.9-.1 2.8-.4.9-.3 1.7-.8 2.3-1.5.7-.7 1.2-1.5 1.5-2.3.3-.9.5-1.8.4-2.8v-.1c0-.9-.1-1.9-.4-2.8-.3-.9-.9-1.7-1.5-2.3-.7-.7-1.5-1.2-2.3-1.5-.9-.3-1.8-.5-2.8-.4h-4zM51.6 26.5h5.2v19.2H67V50H51.6V26.5z"/>
</svg>