<svg xmlns="http://www.w3.org/2000/svg" viewBox="0 0 100 100">
	<path fill="#9e0f20" d="M14.6 85.4c9 9 21.5 14.6 35.4 14.6 27.6 0 50-22.4 50-50 0-13.8-5.6-26.3-14.6-35.4L14.6 85.4z"/>
	<path fill="#f32735" d="M85.4 14.6C76.3 5.6 63.8 0 50 0 22.4 0 0 22.4 0 50c0 13.8 5.6 26.3 14.6 35.4l70.8-70.8z"/>
	<path fill="#fff" d="M82.1 20.7s-.1 0 0 0l-1.8-1.2c-3.6-2.3-7.6-4.1-11.8-5.2h-.1l-13 18.8v.1c2.7.5 5.4 1.5 7.8 2.9.1.1.3.1.4.1l18.5-15.5c0 .1 0 .1 0 0zM43.2 33.9s.1 0 0 0c2.9-.9 5.9-1.3 8.9-1.1.3 0 .4 0 .6-.3 3.4-6.4 6.9-12.8 10.3-19.2-4.8-.6-9.7-.4-14.4.7l-.1.1-5.3 19.8zM28 47.3c1.1-2.1 2.4-4.1 3.9-6 .2-.2.2-.3.2-.6-1.2-5.3-2.4-10.5-3.5-15.8-1.6 1.6-2.7 2.7-3.1 3.3-.7.9-1.8 2.5-3.4 4.7-.2.3-.4.6-.5.9v.2L28 47.3zM33.2 39.9c2.3-2.2 5-4 7.9-5.2.1 0 .2-.1.2-.2l3.1-18c.1-.5.1-.9.2-1.4C40 16.6 35.7 19 31.8 22c0 0-.1.1 0 .1l1.4 17.8zM25.9 54c.1 0 .1 0 0 0 .3-1.7.8-3.3 1.4-4.9.1-.2.1-.4 0-.6-2.6-3.5-5.3-7-7.9-10.5h-.1c-1.2 2.4-2 5.1-2.6 7.7 0 .1 0 .2.1.3l9.1 8zM25.9 61.5c-.2-1.8-.2-3.7-.1-5.5 0-.3-.1-.4-.3-.6-3.2-2-6.3-3.9-9.5-5.9h-.1c-.4 2.8-.5 5.6-.4 8.4v.1l10.4 3.5zM70.8 40.4 43.6 59c-.1.1-.2.2-.1.4l.7 2.5s0 .1.1.1l28.9-5.7c.1 0 .2-.2.2-.3l-2.6-15.6s0-.1 0 0zM59.2 71.6c-1.4-1.4-3.1-2.5-4.5-3.8-1.4-1.3-2.8-2.7-4.1-4.1-.1-.1-.2-.1-.3-.1l-2.5.5v.1C51.9 73 56 81.9 60 90.7c.1.2.2.3.3.5h.1c.1 0 .2-.1.4-.1 2.2-.9 5.9-2.9 6.2-5.5 0-.2 0-.5-.1-.8-1.4-4.9-4.1-9.6-7.7-13.2zM27.3 67.2c.1 0 .1 0 0 0-.3-1.1-.7-2.2-1-3.4-.1-.2-.1-.4-.4-.4-3.4-.7-6.7-1.4-10.1-2.1.3 2 .7 4 1.2 5.9h10.3zM28.3 69.2c-.2-.3-.3-.6-.6-.5l-9.3 2.2s-.1 0 0 .1c.8 2 1.7 3.9 2.7 5.8h.1l4.8-2.6 4-2.1V72l-.7-1.1c-.4-.6-.7-1.1-1-1.7z"/>
	<path fill="#fff" d="M34.5 75.8c.6-.7 1.2-1.2 2-1.5 1.3-.5 2.6-.9 4.1-1 3.5-.2 6.8.1 10.5.7.1 0 .1 0 0-.1L46 63.1s0-.1-.1 0l-2.5.5s-.1 0-.1-.1c-.3-1.5-.6-3-1-4.5-.1-.3 0-.5.2-.6 8.4-5.7 16.8-11.5 25.2-17.3V41c-1.6-1.5-3.3-2.8-5.1-3.8-1.8-1.1-3.8-2-5.9-2.6-7.6-2.2-15.9 0-21.8 5.2-5.1 4.6-8.1 11.2-8.2 18.2 0 4.3 1.2 8.5 3.3 12.2 1.2 2.1 2.7 3.9 4.5 5.6zM32.1 68c-1-2.1-1.7-4.2-2.1-6.3-.3-1.4-.4-2.7-.4-4 0-1.3.1-2.6.4-3.8.5-2.5 1.5-4.9 3.1-7.1 2.3-3.3 5.5-6.1 9.1-8.2l2.7-1.5c-2.1 1.2-4 2.6-5.8 4.3-.6.6-1.2 1.1-1.8 1.7-2.6 2.8-4.8 6.3-5.6 10.1-.3 1.2-.4 2.3-.4 3.5-.1 3.4.7 6.7 2.3 9.9l2.1 3.7c-.5.2-.9.5-1.4.7-.1 0-.2.1-.2.1-.2 0-.2-.1-.4-.3-.3-.5-.5-.9-.8-1.4-.4-.4-.6-.9-.8-1.4z"/>
	<path fill="#fff" d="M51.1 75.6c-.1-.2-.2-.3-.3-.3-1.9-.2-3.9-.5-6.2-.7-2.1-.2-4.1-.1-6.2.3-1.3.2-2.9.9-3.5 2.1-1.2 2.9-2.4 5.7-3.6 8.6 4.5-1.4 9.2-1 13.8-.5 1.2.1 3.3.5 6.1 1h.1l2.5-4.4c.1-.1.1-.2 0-.3-1-1.9-1.8-3.8-2.7-5.8zm-6.2.3c-2.3-.1-4.4.5-6.6 1.1-.2.1-.4.2-.5.4-1.2 1.7-2.5 3.4-3.7 5.1H34c.9-1.9 1.8-3.8 2.7-5.6.1-.2.2-.3.4-.4 2.4-.7 5.3-1.1 7.8-.6z"/>
</svg>