<svg xmlns="http://www.w3.org/2000/svg" viewBox="0 0 100 100">
	<path fill="#01b5f1" opacity=".1" d="M95.4 53.8c0 25.1-20.3 45.4-45.4 45.4S4.7 78.8 4.7 53.8 25 8.4 50.1 8.4s45.3 20.3 45.3 45.4z"/>
	<path fill="#01b5f1" d="M70.8 34.3c.1-.2.1-.4-.1-.6-.1.1-9.1-6.2-9.1-6.2-.5-.3-.9.4-.5.7 9.6 6.6 9.3 6.7 9.7 6.1zM29.6 34.7l9.1-6.3c.5-.3 0-1-.5-.7L29.1 34c-.4.3 0 1 .5.7zM19.3 59c-.6.2-.4.1 2.8 11.1.1.6.9.3.8-.2-3.2-11-3-11.1-3.6-10.9zM81.2 59.5c.1-.5-.7-.8-.8-.2-3.2 11.2-3.3 11-2.7 11.1.2.1.4-.1.5-.3-.1 0 3-10.6 3-10.6zM44.5 86.6c-.6 0-.3.9 0 .8 11.7 0 11.7.3 11.7-.4 0-.6 0-.4-11.7-.4zM72.5 53.7 66.7 58c-.9-.9-2.2-1.3-3.5-1L60 47.5c1-.5 1.8-1.5 1.9-2.7 6.5 0 6.5.2 6.5-.4 0-.6-.1-.4-6.5-.4-.3-2-2.1-3.4-4.1-3l-3.3-9.7c0-.3-.3-.4-.5-.3-.6.2-.4.1 3 10.2-1.1.5-1.9 1.5-2 2.7h-9.6c-.2-1.2-.9-2.2-2-2.7l3.2-9.7c.2-.6-.6-.9-.8-.4l-3.3 9.7c-2-.3-3.9 1-4.1 3-6.5 0-6.5-.2-6.5.4 0 .6.1.4 6.5.4.1 1.2.9 2.2 1.9 2.7l-3.2 9.5c-1.1-.2-2.3.3-3.1 1.2l-5.7-4.1c-.5-.3-1 .4-.5.7l5.8 4.2c-.8 1.6-.2 3.6 1.4 4.5-2.3 6.8-2.5 6.9-1.9 7.1.6.2.5-.3 2.7-6.8 1.1.3 2.3 0 3.2-.8l8.4 6.1c-.5 1-.6 2.2-.1 3.2-6.2 4.6-6.2 4.4-5.8 4.9.3.5.1.5 6.3-4.1 1.3 1.6 3.8 1.7 5.2.1l5.6 4.1c.5.3.9-.4.5-.7l-5.6-4.1c.6-1.1.5-2.4-.2-3.5l8.1-6c.8.8 1.8 1.1 2.9 1l2.2 6.4c.2.5 1 .2.8-.3l-2.1-6.4c1.9-.8 2.7-3 1.8-4.8l6-4.3c.5-.4 0-1-.5-.7zm-11.6-9.4c0 3.4-5.2 3.4-5.2 0 0-3.5 5.2-3.5 5.2 0zm-21.6 0c0-3.5 5.2-3.5 5.2 0 0 3.4-5.2 3.4-5.2 0zm-5.2 16c0-3.5 5.2-3.5 5.2 0 0 3.4-5.2 3.4-5.2 0zm16.4 12.9c-3.4 0-3.4-5.2 0-5.2 1.4 0 2.6 1.2 2.6 2.6 0 1.4-1.2 2.6-2.6 2.6zm2.3-5.1c-1.4-1.2-3.5-1.2-4.8.2l-8.4-6.1c1.1-1.8.4-4.2-1.6-5l3.2-9.4c2 .4 3.9-1 4.1-3h9.6c.2 1.9 2.1 3.3 4.1 2.9l3.2 9.6c-1.7 1-2.3 3.1-1.3 4.8l-8.1 6zm8.5-7.8c0-3.5 5.2-3.5 5.2 0 0 3.4-5.2 3.4-5.2 0z"/>
	<path fill="#ff6242" d="M38.6 8.4 50 .6l11.4 7.8L50 16.2 38.6 8.4zm-35 28.3L15 28.9l11.4 7.8L15 44.5c.1 0-11.4-7.8-11.4-7.8zm81.5-7.8-11.4 7.8 11.4 7.8 11.4-7.8-11.4-7.8zm-68.9 51 11.4-7.8L39 79.9l-11.4 7.8-11.4-7.8zM73 72.1l-11.4 7.8L73 87.7l11.4-7.8L73 72.1z"/>
	<path fill="#ffe500" d="m50.1 27.9 11.4-7.8V8.4l-11.4 7.8v11.7zm-35 28.3 11.4-7.8V36.7l-11.4 7.8v11.7zm81.4-7.8-11.4 7.8V44.5l11.4-7.8v11.7zm-68.9 51L39 91.6V79.9l-11.4 7.8v11.7zm56.8-7.8L73 99.4V87.7l11.4-7.8v11.7z"/>
	<path fill="#4acfff" d="m50.1 27.9-11.4-7.8V8.4l11.4 7.8v11.7zm-35 28.3L3.6 48.4V36.7L15 44.5c.1 0 .1 11.7.1 11.7zm58.5-7.8L85 56.2V44.5l-11.4-7.8v11.7zm-46 51-11.4-7.8V79.9l11.4 7.8v11.7zm33.9-7.8L73 99.4V87.7l-11.4-7.8c-.1 0-.1 11.7-.1 11.7z"/>
	<path fill="#3c3937" d="M38.3 7.9C50.2-.2 49.9-.2 50.5.1c11.9 8.1 11.7 7.8 11.7 8.3 0 12.2.1 11.9-.3 12.2-12 8.1-11.6 8.1-12.2 7.8C37.8 20.3 38 20.6 38 20.1c0-12.1-.2-11.9.3-12.2zm1.5.5 10.3 7 10.3-7-10.3-7-10.3 7zm10.9 18.2 10.2-6.9V9.6l-10.2 6.9v10.1zm-1.3 0V16.5L39.3 9.6v10.1l10.1 6.9zm-34.7 1.8c.5-.4.2-.3 12.2 7.8.4.3.3 0 .3 12.2 0 .5.1.2-11.7 8.3-.6.4-.2.3-12.2-7.8-.5-.3-.3-.1-.3-12.2 0-.2-.2-.2 11.7-8.3zm-9.9 8.3 10.3 7 10.3-7-10.3-7-10.3 7zm10.9 18.2L25.9 48V37.9l-10.2 6.9v10.1zm-1.3 0V44.8L4.3 37.9V48l10.1 6.9zm58.9-18.7c-.4.3-.3.1-.3 12.2 0 .5-.2.2 11.7 8.3.6.4.3.3 12.2-7.8.4-.3.3-.1.3-12.2 0-.5.2-.2-11.7-8.3-.3-.1-.3-.3-12.2 7.8zm11.8 7.5-10.3-7 10.3-7 10.3 7-10.3 7zm.6 11.2V44.8l10.2-6.9V48l-10.2 6.9zm-1.3 0L74.3 48V37.9l10.2 6.9v10.1h-.1zM15.8 79.4c11.9-8.1 11.6-8.1 12.2-7.8 11.9 8.1 11.7 7.8 11.7 8.3 0 12.2.1 11.9-.3 12.2-12 8.1-11.6 8.1-12.2 7.8-11.9-8.1-11.7-7.8-11.7-8.3 0-12.2-.1-11.9.3-12.2zm1.5.5 10.3 7 10.3-7-10.3-7-10.3 7zm11 8.1v10.1l10.2-6.9V81.1L28.3 88zM27 98.1V88l-10.1-6.9v10.1L27 98.1zm34.2-18.7c-.4.3-.3.1-.3 12.2 0 .5-.2.2 11.7 8.3.6.4.3.3 12.2-7.8.4-.3.3-.1.3-12.2 0-.5.2-.2-11.7-8.3-.3-.1-.3-.3-12.2 7.8zM73 86.9l-10.3-7 10.3-7 10.3 7-10.3 7zm.6 11.2V88l10.2-6.9v10.1l-10.2 6.9zm-1.3 0-10.2-6.9V81.1L72.3 88v10.1z"/>
</svg>