<svg xmlns="http://www.w3.org/2000/svg" viewBox="0 0 100 100">
	<path fill="#092e20" d="M89.1 0H10.9C4.9 0 0 4.9 0 10.9V89c0 6 4.9 10.9 10.9 10.9H89c6 0 10.9-4.9 10.9-10.9V10.9C100 4.9 95.1 0 89.1 0z"/>
	<path fill="#fff" d="M61.6 58.8c0 9.7-.5 13.4-2.1 16.6-1.5 3.1-3.9 5.1-8.8 7.5l10.4 4.9c4.9-2.5 7.3-4.7 9.1-8.3 2-3.7 2.6-8 2.6-16.9V36.8H61.6v22z"/>
	<path fill="#fff" d="M55 19.6H43.9v17c-1.7-.4-3-.6-4.9-.6-11.7 0-19.2 7.4-19.2 18.8 0 11.8 7.1 18 20.7 18 4.6 0 8.8-.4 14.5-1.5V19.6zM43.9 63.5c-1.6.2-2.6.3-3.8.3-5.7 0-8.8-3.3-8.8-9.2 0-6.1 3.3-9.6 8.9-9.6 1.4 0 2.5.1 3.8.6v17.9zM61.6 19.6h11.2v11.5H61.6z"/>
</svg>