<svg xmlns="http://www.w3.org/2000/svg" viewBox="0 0 100 100">
	<path fill="#0079d6" d="M50 0C22.4 0 0 22.4 0 50s22.4 50 50 50 50-22.4 50-50S77.6 0 50 0zm29.6 17.3c-2.7 1.1-5.7 2.1-9 2.9-.6-1.7-1.3-3.3-2-4.8-1.3-2.6-2.7-5.1-4.4-7.2 5.8 2 11 5.1 15.4 9.1zM50 5.9c4.5 0 9.4 3.9 13.3 12.1.5 1.1 1 2.2 1.5 3.4-4.6.8-9.6 1.2-14.8 1.2s-10.2-.4-14.8-1.2c.5-1.2 1-2.3 1.5-3.4C40.6 9.8 45.5 5.9 50 5.9zM35.7 8.3c-1.6 2.1-3.1 4.6-4.4 7.2-.7 1.5-1.4 3.1-2 4.8-3.3-.8-6.3-1.8-9-2.9 4.5-4.1 9.7-7.2 15.4-9.1zM20.4 82.7c2.7-1.1 5.7-2.1 9-2.9.6 1.7 1.3 3.3 2 4.8 1.3 2.6 2.7 5.1 4.4 7.2-5.8-2-11-5.1-15.4-9.1zM50 94.1c-4.5 0-9.4-3.9-13.3-12.1-.5-1.1-1-2.2-1.5-3.4 4.6-.8 9.6-1.2 14.8-1.2s10.2.4 14.8 1.2c-.5 1.2-1 2.3-1.5 3.4-3.9 8.2-8.8 12.1-13.3 12.1zm14.3-2.4c1.6-2.1 3.1-4.6 4.4-7.2.7-1.5 1.4-3.1 2-4.8 3.3.8 6.3 1.8 9 2.9-4.5 4.1-9.7 7.2-15.4 9.1zM84 78.1c-3.4-1.6-7.3-2.9-11.5-4 .5-2 1-4 1.4-6.1h-6c-.3 1.7-.7 3.3-1.2 4.9-5.2-.9-10.9-1.4-16.7-1.4s-11.5.5-16.7 1.4c-.4-1.6-.8-3.2-1.2-4.9h-6c.4 2.1.9 4.1 1.4 6.1-4.2 1.1-8.1 2.4-11.5 4-5.7-6.9-9.4-15.6-10-25.2h4.7V47H6c.6-9.5 4.3-18.3 10-25.2 3.4 1.6 7.3 2.9 11.5 4-.5 2-1 4.1-1.4 6.2h6c.4-1.7.8-3.4 1.2-5 5.2.9 10.9 1.4 16.7 1.4s11.5-.5 16.7-1.4c.4 1.6.9 3.3 1.2 5h6c-.4-2.1-.9-4.2-1.4-6.2 4.2-1.1 8.1-2.4 11.5-4 5.7 6.9 9.4 15.6 10 25.2h-4.7v5.9H94c-.6 9.6-4.3 18.3-10 25.2z"/>
	<path fill="#0079d6" d="m77.4 47.5-3.4-.6c-1.7-.2-2.4-.8-2.4-1.9 0-1.4 1.3-2.2 3-2.2 1.9 0 3 .7 3.5 2.3h6c-.6-4.5-4.1-7.3-9.5-7.3-5.3 0-9.1 3.2-9.1 7.7 0 3.9 2.3 6.2 6.8 6.9l3.6.5c1.5.2 2.4.9 2.4 2.1 0 1.4-1.2 2.4-3.2 2.4-2.3 0-3.5-1.1-3.8-2.5h-6.1c.5 4.6 4.3 7.5 9.8 7.5 5.9 0 9.3-3.1 9.3-7.9.1-4.2-2.7-6.4-6.9-7zM55.8 51.7l-8.7-13.5h-6.3V62h5.8V47.6L56 62h5.6V38.2h-5.8zM25.3 38.2h-8.8V62h8.8c7.7 0 11.9-4.5 11.9-11.9S33 38.2 25.3 38.2zm-.4 18.5h-2.3V43.4h2.3c4.1 0 6.2 2.5 6.2 6.7-.1 4.1-2.2 6.6-6.2 6.6z"/>
</svg>