<svg xmlns="http://www.w3.org/2000/svg" viewBox="0 0 100 100">
	<path fill="#d0e2fe" d="M1.6 49.5c7.3 3.9 16.9-.2 17 .1 0 .1.1.3.1.6 1.4 9.1 8.2 14.4 7.4 14.5-12.7 1-21.2-3.4-24.5-15.2-.1 0-.1 0 0 0zm43.2 12.1c2.3 3.9 5.6 5.8 5.3 5.9-12.4 3.1-25.7-.8-29.9-14.3 0-.1 0-.2.1-.1 9.9 5.3 20.9-2.2 21-1.4.6 3.5 1.7 6.8 3.5 9.9zm22.3-9.9c-3.1 2.1-6.6 3.4-10.1 4.4-9.5 2.5-14.4-1.6-14.2-.9C47.6 71.7 66.9 73.8 80 66.7c-10.8 1.2-14.1-4.4-12.9-15zM30.3 70.2c.1 0 .3.2.3.3-2.1 1.7-2.7 5.5-2.4 8.2 1 8 4 10.2 3.5 10.3-4.5 1.2-10.8.2-15.3-1.7-5.7-2.4-9.1-8-10.9-13.8 0-.1 0-.1.1-.1 7.5 4 17.8.9 24.7-3.2zm23.4 9c-3.4 2.3-7.6 3.7-11.6 4.5-8.2 1.7-12.8-1.7-12.6-1.2.9 2.5 1.6 4.8 3.1 7 6.2 8.9 21.1 12.7 34.3 4.7-4.9-.2-10.6.2-12.7-5.3-1.2-3.1-1.3-6.5-.5-9.7z"/>
	<path fill="#73abff" d="M79.9 66.7c2.3-1.2 4.8-2.2 6.7-3.9 12.8-10.8 6.7-25.9 6.9-33.3.3-1 6.7-4.5 4.2-11.5 0-.1-.1-.1-.2-.1-5 1.8-6.3 3.6-7 6.6 0 .1-.1.2-.1 0 .1-.8-2.5-4-3.4-4.6-1-.7-2.9-1.4-4.1-1.6-.1 0-.2 0-.2.1-.4 5.8.3 10.2 5.9 11.6.6.2-1.7 2.9-1.8 3-2.6 3.2-8.6 3.7-39.6 11.3l-28.8-6.5-.1-4.5s-.4-.3-.7-.3c-4.5.8-9.3 2-13.5 3.8-3 1.3-4.2 5.9-3.8 8.8.1.6.7 3.4.9 3.5 8.9 4.4 15.9-.4 17.7-.1 0 0 .4 2.5.8 3.6.1.3 4.5 2 8 2 6.6.1 14-3.5 13.8-3.7.1 1.1.6 3.7.8 3.8 13.1 6.5 27.2-5.8 24.7-3.1-.6 6.4-.1 12.8 6 14.6 3.2.9 6.8.5 6.9.5zm-5.1-12.2c-4.8 1-7.6-3-5.3-6.4 3.3-5.2 10.2-2.5 9.3 2.7-.5 2.1-3 3.7-4 3.7zM59.3 93.6c1.9.7 3.9 1.1 5.9 1.1 9.5-3.7 15.4-11.3 21-19.8.8-1.2 1.8-4.3 3.4-4.3 3.7-.1 7.3-1.6 9.5-4.9.6-1 .9-1.4.2-1.6-3.3-1.3-6.7-1.6-9.5.6-.2.2.8-.3.4-4.8 0-.1-.1-.2-.1 0-4.3 4.8-6.6 5.3-6.3 5.9 1.3 2.2 1.3 2.1 1.1 2.3-.4.3-1.2.6-1.6.7-2.9.9-4.6-.3-5.4.1-14.3 6.2-25.5-1.1-26.8-.7-5 1.8-11 1-16.2.1 0 0-4.7-2-7.1-3.1-.7-.3-3.5 1.5-11.5-.5-6.9-1.8-8-3.7-8.3-3.5-4 2-4.3 9-2.6 12.1.2.5 6.5 2.9 13.4 1.4 7-1.5 11.6-5.5 11.5-4.5.1 0 .1 0 .2.2.5-.3.2.1.2.1-1.2 2-2.3 1.8-2.5 6.5 0 2.1.7 5.1.9 5.2 5.9 2.9 12 2.1 18.1-.1 2-.7 3.5-1.7 6-3.1.4-.2 1.1-.4.5.1-.9 3.6-.5 7.2.4 9.5.9 2.4 2.2 3.9 5.2 5zM56.6 75c1.3-2 4.1-2.9 6.2-1.9 3 1.4 3.7 5.4 1.1 7.5-4.2 3.6-11 0-7.3-5.6z"/>
	<path fill="#407ece" d="M18.3 37.9c.9.2 6 1.5 5.9 1.5-.9.4-1.8.9-2.6 1.4-.9-1.3-2.2-1.9-3.3-2.9zM34.4 42c3.5 2.6 3.6 2.2 6.8 6.5.9-6.4 4.3-4-2-5.4-1.6-.5-3.2-1-4.8-1.1z"/>
	<path fill="#0091ce" d="m63.7 4.7 15.5-2.4.3 34.7-32.3 7.2V25.6l16.2-3.3.3-17.6z"/>
	<path fill="#8df" d="M78.7 2.2C49.1-.4 50.2-.2 34.3 1.9c7.8 1 2 .4 29.4 2.7l15-2.4zm-15.1 20-30.4-4.8L18.7 20c18 3.2 11.4 1.9 28.8 5.5l16.1-3.3z"/>
	<path fill="#4ccbff" d="M63.8 4.6 33.9 2l-.1 15.6c17 2.8 10.2 1.7 29.6 4.6l.4-17.6zM18.5 37.7l28.7 6.5.2-18.7c-17.3-3.6-10.7-2.4-28.9-5.4v17.6z"/>
	<path fill="#1c3d89" d="M77.9 15.9c0-.1.1-11.9.1-12.2 0-.1-.1-.1-.1-.1-2.7.4-2.6.5-2.6.7-.3 15.5-.3 14.5-.2 14.5.9-.2 1.8-.2 2.7-.3.3-.1 0-.3.1-1.4v-1.2zm-.3-11.7c-.4 10.8.1 14-.3 14-1.7.2-1.7.3-1.8.2 0-.1 0 0 .1-4.6.1-9.4 0-9.3.3-9.4 1.6-.3 1.7-.4 1.7-.2zm-3.2.2c0-.2 0-.2-2.5.2-.1 0-.2.1-.2.2-.1 2.2-.3 14.5-.2 14.5.1 0 2.7-.4 2.7-.5.1 0 .3-13.7.2-14.4zm-.6 14.3c-2.5.4-1.7.6-1.8-.9 0-.1 0 0 .1-5.8.1-5.5-.2-7 .1-7 2.3-.4 1.8-.6 1.8 1.1 0 0-.1 12.6-.2 12.6zm-2.9.7c0 .3-.3.1-2.2.5-.3.1-.8.3-.7 0 .1-.7.3-14 .3-14.1 0-.3-.1-.6.2-.6 2.4-.3 2.5-.5 2.5-.2 0 .7-.1 11-.1 12.6v1.8zm-2.3-1.3c0 .1-.1.2-.1.3.1.9-.1 1.3.1 1.2 1.6-.3 1.9-.3 1.8-.6-.1-3.2 0-10.1.1-13.7 0-.1.1-.1-1.8.2-.1 0 0 0-.1 12.6zm-3.8 2.5c1.5-.5 2.6-.3 2.6-.7.2-15.1.2-14.6.1-14.6-2.7.4-2.7.4-2.7.6-.3 8.1-.1 9.5-.3 14.5.1.2.2.3.3.2zm.3-.4c.4-12.2-.1-14.1.3-14.1 1.7-.3 1.7-.3 1.8-.2 0 0-.3 12.9-.1 13.8 0 .2-.2.2-2 .5 0 .1 0 .1 0 0zm12.7 11.9c0-.1.1-10.8 0-10.8s-2.6.4-2.6.5c-.2 14.7-.2 14.7-.1 14.7 3.6-.7 2.8-.4 2.8-1.2 0-1-.1-2.1-.1-3.2zm-.5 3.6c0 .1-.3.1-1.7.4-.1 0-.2-14-.1-14 1.7-.3 1.9-.4 1.9-.3l-.1 13.9zm-3 1c0 .1-.3.1-2.8.6-.1 0 0-14.9.1-14.9 2.5-.5 2.7-.5 2.7-.4v14.7zm-2.3.1c0 .1 1.8-.2 1.8-.3.1-14.1.1-14.1 0-14.1-1.5.3-1.9.3-1.9.4l.1 14zm-1.1.5c0 .1.1.1-2.7.7-.3.1-.1-10.4 0-14.9 0-.1-.1 0 2.5-.5.2 0 0 11.2.1 11.9.1.6 0 1.7.1 2.8zm-2.3.2c0 .1.2 0 1.7-.3.1 0 .1-14.2.1-14.2-.1 0-1.9.3-1.9.4l.1 14.1zm-1.3.7c.3-.1 0-3 .1-11.7 0-3.2.1-3.2-.1-3.2-2.6.5-2.6.4-2.6.5-.2 8.4-.1 9.6-.1 14.9.1.1-.1 0 2.7-.5zM65.1 24c1.7-.3 1.9-.4 1.9-.3-.1 14.1 0 14.1-.1 14.2-1.4.3-1.7.4-1.7.3 0 0-.2-14.2-.1-14.2zm-3.3 5.5c0 9 0 8.4.1 9.7 0 .1.1 0-2.8.8H59V39.1c.1-14.2.1-11.6.1-14.2 0-.2 0-.2 2.6-.6.3 0 .2 0 .2 2.2-.1.9-.1 2.1-.1 3zm-2.2 10s0 .1 0 0c.1.1.1.1 0 0 1.7-.4 1.8-.3 1.8-.4 0-15.2.1-14.4-.1-14.4-1.8.4-1.8.3-1.8.4l.1 14.4zm-1.3-4.2c0-11 .1-10.4-.1-10.4-2.7.5-2.6.5-2.6.6-.1 3.8-.1 15.3 0 15.3 2.1-.5 2.1-.5 2.4-.5.2 0 .3-.1.3-.3-.1-.3.1 0 0-1.9v-2.8zm-.4 4.6c0 .2 0 .1-1.8.5 0 0-.1 0-.1-.1s.1 0 0-12.5c0-2 0-2.1.1-2.1 1.8-.3 1.8-.4 1.8-.3 0 .3-.2 6.6 0 14.5zm-3.1 1.2c-2.4.5-2.8.7-2.8.6V26.2c0-.1 2.7-.6 2.7-.5.2 15.2.2 15.3.1 15.4zm-2.2.1s0 .1 0 0c0 .1 0 .1 0 0 1.9-.4 1.9-.4 1.9-.5-.6-16.9 1.2-14.8-1.8-14.3-.3.1-.1 14.7-.1 14.8zM48.7 27c0 16.1-.1 15.5.1 15.5 2.7-.6 2.6-.6 2.6-.7V26.6c0-.2-.1-.1-2.6.4-.1-.1-.1 0-.1 0zm2.3-.2v14.9c-1.8.4-1.8.5-1.8.4-.1-.2 0-.5 0-.7 0-14.2-.3-14.1.1-14.2l1.7-.4z"/>
	<path fill="#030303" d="M66.1.8c10.6.7 11.5.9 13.2 1.1.9.1.1.2.4 33.9 0 .1-.1.1 2.9-.8 4.2-1.5 6.4-4.8 6-4.8-7.1 0-6.8-12.2-5.7-12.3 1.9-.1 4.2 1.5 5.7 2.8 1.6 1.6 1.8 3.2 1.9 2.9.6-2.6 3.1-4.6 5.7-5.5 1.7-.5 1.9-.8 2.1.2 2.3 8-4.7 11.2-4.7 11.7 0 1.7 1.6 11.1 1.6 15 .1 11.3-4.7 13.5-4.5 15 .1 1.4.2 2.9-.4 4.2-.2.5 2.3-2.8 8.4-.5 1.2.5 1.5.4 1.2 1.2-2.7 7-9.5 5.7-10.1 6.2-2.7 2.2-17.2 32.9-43.6 27.6-10.4-2.1-12.8-7.4-14-8.5-.1-.2-12.3 2-20.4-5.2C6.2 80.1 1.7 68.4 6 62.5c.7-1 1.9-1.3 1.7-1.5-5.3-4-9.4-14.8-7-21 3.5-6.5 17.5-6.4 17.5-7.6-.2-12.6-.5-12.3.3-12.6 2.4-.8 5.3-1.2 15-2.7 0-4.4.1-9.7.3-15.3 0-.2.6-.2.8-.3C49.4-.6 53.4 0 66.1.8zm11.2 1.4C78 2.2 54.5.1 47.9.7c-5.1.5-12.9 1.1-13 1.3 0 .1 8.6.9 20.1 1.7 13.7.9 4 1.3 21.6-1.3 0-.1.4-.2.7-.2zM62.8 21.7c0 .1.2.1.2 0 .1-10 .6-16.9.2-16.9-3.6-.8-9.8-.5-29-2.6-.2 0 0-.5 0 7.4 0 7.6-.6 7.9.9 8.1 24.7 3.8 18.1 2.7 26.2 3.9.5 0 1 .1 1.5.1zm7.4-.9c.1 0 8.8-1.4 8.8-1.5V2.8c0-.4-1.7.5-14.8 2.2-.3 0-.5 17-.4 17 2.1-.3 4.2-.9 6.4-1.2zm-22.1 4.4c12.8-2.8 14.9-3 14.2-3.1-5-.5-28.8-4.4-29-4.3-3 .4-6.1.7-9.1 1.4s-4.9.8-4.4.9c22.9 3.8 27.2 5.3 28.3 5.1zm19 26.5c-6.4 4.4-16.4 7-24.3 3.4-.1 0-.1 0-.1.1 4.7 16 23.6 18.8 37.2 11.5 23.8-12.5 10.9-35.5 13.8-37.9 5.9-5 4.3-10.9 3.9-10.7-4.5 1.6-6.2 4-6.9 6.9 0 .1-.3.3-.3.1.2-1.4-2.6-5.5-7.1-6.5-.1 0-.4-.2-.4.1-.3 5.1 1.1 10.1 6 11.3.5.1-.8 2.1-1.4 2.8-3.1 3.8-7.7 3.6-7.7 4.2.1.7-.6.7-1.1.8-2.7.4-27.1 5.8-31.5 7-.7.2-.3 0-2.1-.3-.6-.1-1.5-.4-1.6-.2-2.3 3.1-2 6.9-.9 10.5 0 0 0 .1.1.1 10.1 5 21.3-2 24.3-3.2.2-.4.3-.3.1 0zm11.8-31.6c-2.4.4-15.5 2.5-15.3 2.8.1.1.1.2 0 .3v16.6c0 .1 15.6-3.3 15.6-3.4-.4-16.4 0-16.3-.3-16.3zM18.8 37.2c0 .2 0 .3.1.3 6.2 1.1 28.1 6.6 28.1 6.2-.7-18.2.8-18.1-.7-18.3-1.4-.2-27.4-5.5-27.5-5v16.8zM62.3 23c-2.4.4-12.2 2.2-14.5 2.8-.3.1 0 12.9-.3 18 0 0 0 .1.1.1 5.2-1.4 10.5-2.4 15.7-3.8.1 0 .1-.1.1-.1-.5-19.6 0-17.2-1.1-17zM21.5 40.8c2.8-1.8 3.4-1.2 1.7-1.6-4.2-1-4.1-.9-5-1.2-.1-5.3.1-4.8-.6-4.7-1.8.3-3.7.6-5.5 1.1-8.1 2.1-9.9 3-11.1 6.3-1.3 3.8.2 8.3.4 8.3 5.5 2.7 11.5 1.7 17.1.1.2-.1-.8-5.6 3-8.3zm19.7 7.7c.6-4.2 2.3-4.8 1.6-4.7-.8.1-17.5-4.1-17.8-4-2.8 1-3.7 1.4-4.8 3.3-2.4 4.3-.4 9.6-.3 9.7 8.7 4.3 21.2-1 21.2-1.7 0-1 0-1.8.1-2.6zM1.5 49.6c5 17.4 25.3 15.4 24.8 15-3-2.3-6.4-7.4-7.7-14.9-.1-.3-3 1.5-8.2 1.6-6.9.2-9.1-2.3-8.9-1.7zm18.7 3.5c-.1-.1-.2 0-.1.1C26.5 73.5 50.5 67.7 50 67.4c-3.3-2-7.4-7.4-8.8-15.7-.1-.4-11.6 6.4-21 1.4zm33.5 26.1c-5.8 3.9-15.9 6.8-22.8 3.9-1.8-.7-1.7-1.3-.9.9 4 10.5 14.3 14.6 24.9 13.6 22.6-2 31.5-27.5 34.8-27.6 5.8-.2 9-3.1 9.8-5.7 0-.1-5.5-2.6-9.8.8-.1 0-.4.1-.3-.1.2-.2.4-.4.5-.6.5-1.5.5-4.6.2-4.1-.1.1-2.6 3.1-5.9 5.3-.2.2-.1.2 1 2.1.3.5-3.6 1.8-6.3 1.2-1.1-.2.1.2-7.7 2.2-5.6 1.4-15.6-.2-19-2.4-1.2-.5-7 2.3-16.7.3-.4-.1-.7-.1-1.2 0-1.7.6-3.4 1.1-4.4 2.8-.9 1.5-1.5 3.3-1.5 5.1 0 1.8.7 4.9.9 5 7.6 3.8 16.8 1 23.8-3 .5-.1 1.2-.3.6.3zm-23.4-9c-5.1 3.5-13.9 6.4-20.5 4.9-3.1-.7-4.1-1.8-4-1.3 1.8 5.8 5.4 10.6 11.1 13.1 6.7 2.9 14.7 2.3 14.5 1.9-3.1-4.5-5.5-15.4-.9-18.4 1.7-1.2 4.1-2 3.5-1.9-.8.1-1.8-.4-2.6-.7-1.4-.6-3.5-1.9-3.8-1.9-2.3.4-5.4.3-7.8.1-4.3-.4-8.3-2-11.8-4.5-.2-.4-5 3.3-2.3 11.7.1.3 5.2 2.9 13.2 1.2 8-1.7 11.5-5.2 11.4-4.2zm54.4-2.3c-1.3-1.2-1.2-1.8-1.5-1.7-1.3.7-2.5 1.5-3.8 2.2-.1 0-.1.1 0 .1 2.3.4 5.5-.4 5.3-.6zm-9.9-13.4c-4.3 1-8-2.5-5-7 2.7-4.1 9.9-2.2 8.9 3.3-.4 2.1-2.9 3.7-3.9 3.7zm-5.6-5.2c0-.1-.1 0-.1.1-.6 3.6 2.9 5.5 5.9 4.4 5.1-1.8 3.7-7.8-.4-8.2-1.5-.2-2.2.2-1.9.2 1.4 0 2.6 1 2.7 2.4.1 1.9-1.8 3.5-3.7 3.6-1.5.1-2.4-1-2.5-2.5zM64 80.6c2.6-2.2 1.9-6.1-1.1-7.5-2.1-1-5-.2-6.3 1.8-3.7 5.6 3 9.4 7.4 5.7zm-4.5-7.5c2.4-1 5.6 1 5.7 3.9.1 5.8-10.7 6.1-9.2-.3 0-.2.1 0 .1.2.3 3.7 5.6 2.4 6.1-.8.2-1.6-1.1-2.8-2.7-3-.1.1-.1.1 0 0z"/>
</svg>