<svg xmlns="http://www.w3.org/2000/svg" viewBox="0 0 100 100">
	<path fill="#1D63ED" d="M99.014 41.088c-.271-.215-2.803-2.127-8.143-2.127-1.41.006-2.816.127-4.207.361-1.033-7.083-6.89-10.536-7.152-10.691l-1.433-.827-.944 1.36a19.216 19.216 0 0 0-2.549 5.96c-.956 4.044-.374 7.841 1.68 11.088-2.48 1.382-6.46 1.722-7.264 1.752H3.13a3.13 3.13 0 0 0-3.126 3.114A47.4 47.4 0 0 0 2.89 68.004c2.27 5.95 5.645 10.334 10.037 13.017 4.922 3.014 12.918 4.736 21.982 4.736a65.616 65.616 0 0 0 12.207-1.106 51.032 51.032 0 0 0 15.932-5.788 43.797 43.797 0 0 0 10.872-8.9c5.219-5.908 8.328-12.487 10.64-18.334h.922c5.713 0 9.227-2.287 11.165-4.203a12.187 12.187 0 0 0 2.945-4.362l.409-1.197-.986-.779Z"/>
	<path fill="#1D63ED" d="M9.236 46.036h8.827a.77.77 0 0 0 .77-.77v-7.863a.77.77 0 0 0-.766-.776H9.236a.77.77 0 0 0-.77.771v7.867c0 .426.344.77.77.77Zm12.164 0h8.827a.77.77 0 0 0 .771-.77v-7.863a.77.77 0 0 0-.767-.776H21.4a.775.775 0 0 0-.775.776v7.862c.003.426.349.77.775.77Zm12.35 0h8.826a.77.77 0 0 0 .771-.77v-7.863a.77.77 0 0 0-.766-.776h-8.832a.77.77 0 0 0-.77.771v7.867c0 .426.345.77.77.77Zm12.202 0h8.827a.775.775 0 0 0 .775-.77v-7.863a.775.775 0 0 0-.775-.776h-8.827a.77.77 0 0 0-.77.771v7.867c0 .426.345.77.77.77ZM21.4 34.724h8.827a.775.775 0 0 0 .771-.775v-7.862a.77.77 0 0 0-.77-.771H21.4a.775.775 0 0 0-.775.77v7.863a.78.78 0 0 0 .775.775Zm12.35 0h8.827a.775.775 0 0 0 .77-.775v-7.862a.77.77 0 0 0-.77-.771h-8.828a.77.77 0 0 0-.77.77v7.863c0 .426.344.773.77.775Zm12.202 0h8.827a.78.78 0 0 0 .775-.775v-7.862a.775.775 0 0 0-.775-.771h-8.827a.77.77 0 0 0-.77.77v7.863c0 .426.344.773.77.775Zm0-11.316h8.827a.775.775 0 0 0 .775-.77V14.77a.775.775 0 0 0-.774-.77h-8.827a.77.77 0 0 0-.77.77v7.868c0 .425.345.77.77.77Zm12.311 22.628h8.827a.775.775 0 0 0 .775-.77v-7.863a.775.775 0 0 0-.775-.776h-8.827a.77.77 0 0 0-.77.771v7.867c0 .426.344.77.77.77Z"/>
</svg>