<svg xmlns="http://www.w3.org/2000/svg" viewBox="0 0 100 100">
	<path fill="#FE8439" d="M73.667 32.712c-.087-.094-.166-.193-.258-.285L43.513 2.662a9.139 9.139 0 0 0-12.895 12.952l9.88 9.837C24.116 29.618 12 44.463 12 62.14 12 83.05 28.95 100 49.86 100c20.908 0 37.858-16.95 37.858-37.86 0-11.886-5.482-22.487-14.051-29.428Z"/>
	<path fill="#fff" d="M72.23 57.462 50.623 36.118a7.312 7.312 0 0 0-10.276 10.401l8.941 8.833H30.407a7.31 7.31 0 1 0 0 14.622h19.076l-9.085 9.141a7.312 7.312 0 0 0 10.371 10.308L71.69 68.37c.04-.038.072-.08.109-.12a7.29 7.29 0 0 0 2.056-2.81 7.311 7.311 0 0 0-1.625-7.979Z"/>
</svg>