<svg xmlns="http://www.w3.org/2000/svg" viewBox="0 0 100 100">
	<path fill="#0060a9" d="M89.7 55.2H75.3c-2 0-6.3-.5-9.5-1.5-1.1-.3-3.9-1.2-6.7-2.9-2.6-1.6-4.9-3.8-7.2-6.8-3.3-4.2-5.3-8.3-6.5-13.5-.6-2.5-.7-4.7-.8-8-.1-1.4-.5-4.5-.5-4.5-2-10.2-11-18-21.8-18C9.9 0 0 9.9 0 22.2c0 10.9 7.8 19.9 18.1 21.9 0 0 3.7.6 5.6.6 7.1.1 13.8 2.1 20 7 4.5 3.5 10.8 8.9 11.5 23.3v14.7c0 5.5 4.5 9.9 9.9 9.9h24.6c5.5 0 9.9-4.5 9.9-9.9V65c.1-5.4-4.4-9.9-9.9-9.8z"/>
	<path fill="#231f20" d="M22.4 55.5C10.1 55.5.2 65.4.2 77.7c0 12.3 9.9 22.2 22.2 22.2S44.6 90 44.6 77.7c0-12.2-9.9-22.2-22.2-22.2zM99.7 22.5zM77.4.3c-12.3 0-22.2 9.9-22.2 22.2 0 12.3 9.9 22.2 22.2 22.2 12.3 0 22.2-9.9 22.2-22.2C99.7 10.3 89.7.3 77.4.3z"/>
</svg>