<svg xmlns="http://www.w3.org/2000/svg" viewBox="0 0 100 100">
	<linearGradient id="a" x1="26.2" x2="26.2" y1="1962.431" y2="1179.5189" gradientTransform="translate(0 -978.567)" gradientUnits="userSpaceOnUse">
		<stop offset="0" stop-color="#fffa8f"/>
		<stop offset="1" stop-color="#fb784b"/>
	</linearGradient>
	<path fill="url(#a)" d="M12.1 60.3c.7 1.4 2.9 3.8 4.4 5.1 7 5.6 15.5 5.8 23.8 2.3-2.8.2-10.5 1.6-16.7-5.3-3.9 0-7.8-.7-11.5-2.1z"/>
	<path fill="#f15a24" d="M29.8 28.4c7.3 0 14 3.8 17.8 10-4.4-4-10.5-5.4-16.1-3.7 3.8 1.8 9 3.2 16.1 3.7 0 0-.4-6.8-9.1-10.4-12.2-5-13.9-4-17-9.1-.5 3.6.5 7.3 2.8 10.1 1.8-.3 3.6-.6 5.5-.6z"/>
	<path fill="#ed1c24" d="M38.5 28.1c-4.2-1.7-7.1-2.7-9.3-3.5.6 1.4 1.3 2.7 2.3 3.9 6.6.5 12.6 4.3 16.1 10-2.6-2.4-5.9-3.9-9.4-4.3 2.9 1.7 6 3.2 9.1 4.3h.3s-.4-6.8-9.1-10.4z"/>
	<path fill="#c1272d" d="M47.6 38.5c.2-.8 1-6.6-5.6-11.8-9.9-7.7-11.8-8.4-12.3-12.5-1.6 3.2-1.8 7-.4 10.4 2.2.8 5.1 1.8 9.3 3.5 8.6 3.6 9 10.4 9 10.4z"/>
	<linearGradient id="b" x1="57.9411" x2="89.2166" y1="1230.0668" y2="962.3265" gradientTransform="translate(0 -978.567)" gradientUnits="userSpaceOnUse">
		<stop offset="0" stop-color="#5bcb99"/>
		<stop offset="1" stop-color="#85a8e8"/>
	</linearGradient>
	<path fill="url(#b)" d="M87.7 35.6c3.2.1 6.3 1.4 8.7 3.6-5.7-8.3-17.8-10.9-26.7-5.3 6.4-3.5 13.4-2.4 18 1.7z"/>
	<linearGradient id="c" x1="-1201.8802" x2="3374.3745" y1="3077.6968" y2="-4383.0742" gradientTransform="translate(0 -978.567)" gradientUnits="userSpaceOnUse">
		<stop offset="0" stop-color="#34e28b"/>
		<stop offset="1"/>
	</linearGradient>
	<path fill="url(#c)" d="m69.7 34 .4-.3c-11.8 7-26.4 28.4-46.5 28.7C26.8 66 31.4 68 36.2 68c1.4 0 2.8-.2 4.2-.4C53.4 62.2 66 49.3 71.7 43c5.3-5.8 11.1-7.8 16-7.5-4.8-4.1-11.9-5.1-18-1.5z"/>
	<linearGradient id="d" x1="46.6081" x2="758.9988" y1="1051.567" y2="1051.567" gradientTransform="translate(0 -978.567)" gradientUnits="userSpaceOnUse">
		<stop offset="0" stop-color="#c297ff"/>
		<stop offset="1" stop-color="#ae31bb"/>
	</linearGradient>
	<path fill="url(#d)" d="M47.1 79.1c-.3-2.5.6-5.1 2.5-6.7.4-.8 1.1-3.6 4.2-5.5-5.9 2-8.3 6.8-6.7 12.2z"/>
	<linearGradient id="e" x1="-4278.7119" x2="1861.1282" y1="7420.6318" y2="-1574.849" gradientTransform="translate(0 -978.567)" gradientUnits="userSpaceOnUse">
		<stop offset="0"/>
		<stop offset="1" stop-color="#d23de2"/>
	</linearGradient>
	<path fill="url(#e)" d="M96.4 39.2C94 37 91 35.7 87.7 35.6c8.1 6.9 6.8 21-2.7 26-8.9 4.6-22.5 2.4-31.4 5.3-3.2 1.9-4.1 5.2-4.2 5.4 10.3-9.1 35 6.9 46.8-10.6 4.9-6.3 5.2-15.4.2-22.5z"/>
	<linearGradient id="f" x1="232.8404" x2="34.4004" y1="37.8934" y2="1296.2504" gradientTransform="translate(0 -978.567)" gradientUnits="userSpaceOnUse">
		<stop offset="0"/>
		<stop offset="1" stop-opacity="0"/>
	</linearGradient>
	<path fill="url(#f)" opacity=".49" d="M96.4 39.2C94 37 91 35.7 87.7 35.6c8.1 6.9 6.8 21-2.7 26-8.9 4.6-22.5 2.4-31.4 5.3-3.2 1.9-4.1 5.2-4.2 5.4 10.3-9.1 35 6.9 46.8-10.6 4.9-6.3 5.2-15.4.2-22.5z"/>
	<linearGradient id="g" x1="581.0377" x2="3095.4514" y1="1228.0758" y2="2038.8401" gradientTransform="translate(0 -978.567)" gradientUnits="userSpaceOnUse">
		<stop offset="0" stop-color="#2db5f9"/>
		<stop offset="1"/>
	</linearGradient>
	<path fill="url(#g)" d="M49.6 72.3c-8 7.2 4.3 18.3 12.9 11-7.2 3.4-15-3.2-12.9-11z"/>
	<path fill="#2db5f9" d="M59.1 83.1c1-2.8 4.1-7.2 7.5-5.2 0 0 2.7 1.5 3.3-2.8 0 0 2 10.2-7.8 9.9 0 0 2.2-1.6 2.2-3.3-1.6.9-3.4 1.4-5.2 1.4z"/>
	<path fill="#5fd2ff" d="M63.1 76.9c1.1-.7 2.5-.8 3.7-.2 1.4.6 3.1-1.8 1.6-4 0 0 .1 2.2-1.7 2.2-1.5 0-2.9.7-3.6 2z"/>
	<path fill="#219058" d="M73 44.5c-2.4 3.2-5.8 5.9-6.2 6.6-.4.7.7 2.8 2.3 2.9 1.6.2.4-.6.2-1.4-.1-.8.5.5 2.4.2s-.7-1-.5-2 2.2-2.8 3-4.7 2.1 0 1.5 1.5c-.3.6 2.2-1.6 1-3.3-1.4-1.7-2.3-1.7-3.7.2zm-6.8 7c-.4.3-1.4 1.1-1.4 1.1s1 1.4 2.3 1.4c.5-.2-.6-.7-.9-2.5z"/>
	<linearGradient id="h" x1="1605.9548" x2="-1318.626" y1="-965.9919" y2="2707.488" gradientTransform="translate(0 -978.567)" gradientUnits="userSpaceOnUse">
		<stop offset="0"/>
		<stop offset=".21" stop-color="#48080a"/>
		<stop offset=".42" stop-color="#891014"/>
		<stop offset=".61" stop-color="#bc151b"/>
		<stop offset=".78" stop-color="#e01a21"/>
		<stop offset=".91" stop-color="#f71c24"/>
		<stop offset="1" stop-color="#ff1d25"/>
	</linearGradient>
	<path fill="url(#h)" d="M31.4 34.8c-2.8-1.3-5.2-3.2-7.1-5.6-13.5 3.6-19.5 19.4-12.2 31.1 3.7 1.4 7.6 2.2 11.5 2.1-8.3-9.2-4.1-24.2 7.8-27.6z"/>
	<path fill="#f7b852" d="M31.5 28.5c.9 1.3 3.6 3.6 6.7 5.7 3.5.4 6.8 1.9 9.4 4.3-3.5-5.7-9.5-9.4-16.1-10z"/>
	<path fill="#ff8431" d="M31.5 28.5c-.5 0-3.2-.5-7.1.7 1.9 2.4 4.3 4.3 7.1 5.6 2.2-.6 4.5-.8 6.7-.6-3.1-2.1-5.8-4.4-6.7-5.7z"/>
	<path fill="#fffb69" d="M43 33.2c-1.6-1.5-3.5-2.6-5.6-3.3 1.4 2.6 2.5 3.3 5.6 3.3z"/>
	<path fill="#c1272d" d="M37.1 22.4c1 .6 2 1.3 3 2.1.2.2-.4-1.6-1.2-2-.5-.2-1.2-.2-1.8-.1zm3.7 2.6 3 2.1c.2.2-.4-1.6-1.2-2-.6-.2-1.2-.2-1.8-.1zm3.5 2.6c.6.6 1.2 1.3 1.6 2 .1.2 0-1.2-.4-1.6-.4-.3-.8-.4-1.2-.4z"/>
	<path fill="#44c688" d="M28.3 60.5c-.1-.3 1.1-.7 1.4-.7.6.1 1.1.3 1.6.5-.7.3-1.5.4-2.2.5-.3 0-.6-.1-.8-.3zm4.2-1c-.1-.2.8-.6 1.1-.7.5 0 .9.1 1.3.3-.6.3-1.1.5-1.8.6-.2 0-.4-.1-.6-.2zm3.5-1.3c-.1-.2.7-.9 1.9-.5-.4.3-1.4.8-1.9.5zm2.8-1.3c-.1-.2.5-.6.7-.6.3-.1.7-.1 1 0-.4.3-.8.5-1.2.7-.2 0-.3 0-.5-.1zm2.6-1.4c-.1-.1.4-.5.6-.6h.9c-.3.3-1.2.9-1.5.6zm-17.3 5.3c0-.3 1.2-.5 1.6-.5.6.2 1.1.5 1.6.9-.9.2-2.7.4-3.2-.4z"/>
	<path fill="#c1272d" d="M24.9 21.5c.9.8 1.9 1.4 3 1.7-.4-1.1-.5-2.3-.4-3.5 0-.1-2.6 0-3-2.2-.2-.3-.5 3 .4 4z"/>
	<g fill="#f15a24">
		<path d="M15.9 71.4c.1-.7.4-1.4 1-1.8h.1c-1 0-4.8-1.3-4.8 3.8.8-1.4 2.2-2.2 3.7-2z"/>
		<path d="M19.7 70.7c-3.1-1.9-4.9-2-5.6 3.3 0 0 3.3-2.6 4.8-.9 1.7 1.9 4 .1 2.8-.9-.5-.7-1.2-1.2-2-1.5z"/>
		<path d="M18.5 71.3c-1.8 1.2-1.8 3.9-1.8 3.9s3.2-1.7 3-2.8c-.1-.6-.6-1.1-1.2-1.1zM3.8 49.5c.6-.4 1.3-.5 2-.3h.1c-1.3-2.7-3.1-3.4-5.6-1.6-.1.1-.2.1-.3.2 1.5-.2 2.9.5 3.8 1.7z"/>
		<path d="M7.1 52.8c-1.1-4.5-2-6.2-6.4-3.1 0 0 3.7-1.1 4.1 4.2.2 2.5 2.6 3 2.6 1.4.1-.9-.1-1.7-.3-2.5z"/>
		<path d="M5.5 50.4c-2.1-.5-4.1 1.4-4.1 1.4s3.2-.1 3.6 1.8c.2 1.1.5-3.2.5-3.2z"/>
	</g>
	<path fill="#29b36e" d="M71.7 43c4-4.6 9.4-7.8 15.6-7.8l.8.8c-6 0-11.1 1.4-16.4 7z"/>
	<path fill="#6fd191" d="M87.6 35.2c4.3.5 6.8 1.9 8.8 3.9-2.2-2-5.3-3-8.3-3.2l-.8-.8.3.1z"/>
	<path fill="#c83ad7" d="M49.8 71.7C61 65 71.9 72.9 85 69.4c-2.9.8-5.9 1.1-9 1.1-6.1-.2-19.2-2.4-23.4.4-.8.3-2.5 1.4-3 1.9-.1-.3 0-.7.2-1.1z"/>
	<path fill="#c1272d" d="M32 36.1c-2.9.6-2.5 2.9-2.5 2.9s.9-1.1 6-1.7c-1.2-.3-2.4-.7-3.5-1.2z"/>
	<path fill="#fba9ff" d="M47.1 79.1c-.2-1.3.1-3 .4-3.8.5-1.5 1.3-2.4 2.4-3.5 0 0-.3.9-.3 1.2-2.1 2.1-2.7 4.9-2.5 6.1z"/>
	<path fill="#ff737d" d="M23 62.4c-7.7-9-3.8-24 8.6-27.8-5 1.4-9.7 5.9-11.4 11.8-.1.3-.2.7-.2 1-1.2 3.6.1 10.5 4.4 14.8-.1.2-1.2.2-1.4.2z"/>
	<path fill="#fff4c0" d="M40.3 67.6c-1.5.3-3 .5-4.6.5-3.6 0-8.9-1.7-12.9-5.7h1.4c3.1 3.4 9.1 6.1 16.1 5.2z"/>
</svg>