<svg xmlns="http://www.w3.org/2000/svg" viewBox="0 0 100 100">
	<linearGradient id="a" x1="52.928" x2="33.6572" y1="22.521" y2="94.2502" gradientTransform="matrix(1 0 0 -1 0 102)" gradientUnits="userSpaceOnUse">
		<stop offset=".05" stop-color="#6b57ff"/>
		<stop offset=".12" stop-color="#7556fe"/>
		<stop offset=".24" stop-color="#8f53fb"/>
		<stop offset=".4" stop-color="#ba4df5"/>
		<stop offset=".58" stop-color="#f446ee"/>
		<stop offset=".61" stop-color="#ff45ed"/>
		<stop offset=".69" stop-color="#ff3bbe"/>
		<stop offset=".77" stop-color="#ff318c"/>
		<stop offset=".99" stop-color="#fc801d"/>
	</linearGradient>
	<path fill="url(#a)" d="M61.1 0 0 6.9v31.4l15.3 51 76.9-19.5L61.1 0z"/>
	<linearGradient id="b" x1="96.8846" x2="59.27" y1="32.2892" y2="44.6746" gradientTransform="matrix(1 0 0 -1 0 102)" gradientUnits="userSpaceOnUse">
		<stop offset=".03" stop-color="#6b57ff"/>
		<stop offset=".39" stop-color="#ff45ed"/>
		<stop offset=".49" stop-color="#ff4dd1"/>
		<stop offset=".7" stop-color="#fe6189"/>
		<stop offset="1" stop-color="#fc801d"/>
	</linearGradient>
	<path fill="url(#b)" d="M94.2 31.7 70.1 20.2 36.3 81l9.2 12.5 23.4 6.5 22.5-14.2L100 59l-5.8-27.3z"/>
	<path d="M18.8 18.8h62.5v62.5H18.8V18.8z"/>
	<path fill="#fff" d="M26.5 69.4H50v3.9H26.5v-3.9zm.1-42.9h9.2c7.4 0 12.5 5.1 12.5 11.7v.1c0 6.6-5.1 11.8-12.5 11.8h-9.2V26.5zm5.2 4.6v14.2h4c.9.1 1.9-.1 2.8-.4.9-.3 1.7-.8 2.3-1.5s1.2-1.5 1.5-2.3c.3-.9.5-1.8.4-2.8v-.1c0-.9-.1-1.9-.4-2.8-.3-.9-.9-1.7-1.5-2.4-.7-.7-1.5-1.2-2.3-1.5-.9-.3-1.8-.5-2.8-.4h-4zm18.9 7.3c0-1.7.3-3.3.9-4.8.6-1.5 1.5-2.9 2.7-4 1.2-1.1 2.5-2 4-2.6 1.5-.6 3.1-.9 4.7-.8 1.7-.1 3.4.2 5 .8 1.6.6 3.1 1.6 4.3 2.8L69 33.6c-1.6-1.6-3.8-2.6-6-2.7-4 0-6.8 3.3-6.8 7.4v.1c0 4.1 2.8 7.4 6.8 7.4 2.7 0 4.4-1 6.2-2.8l3.2 3.4c-1.2 1.4-2.7 2.5-4.4 3.2-1.7.7-3.5 1.1-5.3 1-1.6 0-3.2-.3-4.7-.9-1.5-.6-2.8-1.5-4-2.6-1.1-1.1-2-2.5-2.6-4-.5-1.5-.7-3.1-.7-4.7z"/>
</svg>