<svg xmlns="http://www.w3.org/2000/svg" viewBox="0 0 100 100">
	<linearGradient id="a" x1="10.0605" x2="58.0813" y1="50.2541" y2="1.233" gradientTransform="matrix(1 0 0 -1 0 101.433)" gradientUnits="userSpaceOnUse">
		<stop offset=".1" stop-color="#ff45ed"/>
		<stop offset=".11" stop-color="#f846ee"/>
		<stop offset=".28" stop-color="#ac4ff7"/>
		<stop offset=".41" stop-color="#7d55fd"/>
		<stop offset=".47" stop-color="#6b57ff"/>
		<stop offset=".48" stop-color="#655dfe"/>
		<stop offset=".57" stop-color="#4482fa"/>
		<stop offset=".66" stop-color="#299ef6"/>
		<stop offset=".76" stop-color="#16b3f4"/>
		<stop offset=".85" stop-color="#0bbff2"/>
		<stop offset=".94" stop-color="#07c3f2"/>
	</linearGradient>
	<path fill="url(#a)" d="M68.1 71.9 0 58.3 20.1 100l50.3-8.8-2.3-19.3z"/>
	<linearGradient id="b" x1="13.6599" x2="48.7224" y1="21.691" y2="50.9098" gradientTransform="matrix(1 0 0 -1 0 101.433)" gradientUnits="userSpaceOnUse">
		<stop offset=".04" stop-color="#ff45ed"/>
		<stop offset=".05" stop-color="#fe45ed"/>
		<stop offset=".2" stop-color="#d14bf3"/>
		<stop offset=".36" stop-color="#ac4ff7"/>
		<stop offset=".51" stop-color="#9053fb"/>
		<stop offset=".67" stop-color="#7b55fd"/>
		<stop offset=".82" stop-color="#6f57ff"/>
		<stop offset=".97" stop-color="#6b57ff"/>
	</linearGradient>
	<path fill="url(#b)" d="M100 44.8 72.4 16.3 0 31.6v26.7l89.4 17.9L100 44.8z"/>
	<linearGradient id="c" x1="56.9362" x2="80.5091" y1="77.2551" y2="29.078" gradientTransform="matrix(1 0 0 -1 0 101.433)" gradientUnits="userSpaceOnUse">
		<stop offset=".2" stop-color="#ff45ed"/>
		<stop offset=".29" stop-color="#f646ee"/>
		<stop offset=".43" stop-color="#dd49f1"/>
		<stop offset=".61" stop-color="#b64ef6"/>
		<stop offset=".82" stop-color="#7f55fd"/>
		<stop offset=".89" stop-color="#6b57ff"/>
	</linearGradient>
	<path fill="url(#c)" d="M100 44.8 56.6 0l-34 10.3 11.1 33.9 55.7 32L100 44.8z"/>
	<linearGradient id="d" x1="28.396" x2="87.6147" y1="75.287" y2="89.6411" gradientTransform="matrix(1 0 0 -1 0 101.433)" gradientUnits="userSpaceOnUse">
		<stop offset=".1" stop-color="#ff45ed"/>
		<stop offset=".17" stop-color="#f64aed"/>
		<stop offset=".29" stop-color="#dd56ee"/>
		<stop offset=".44" stop-color="#b56aee"/>
		<stop offset=".62" stop-color="#7e87f0"/>
		<stop offset=".81" stop-color="#38aaf1"/>
		<stop offset=".94" stop-color="#07c3f2"/>
	</linearGradient>
	<path fill="url(#d)" d="M92.2 28 88.3 0H56.6l-34 10.3 11.1 33.9L92.2 28z"/>
	<path d="M18.8 18.9h62.5v62.5H18.8V18.9z"/>
	<path fill="#fff" d="M26.5 69.6H50v3.9H26.5v-3.9zM26.6 26.6h9.2c7.4 0 12.5 5.1 12.5 11.7v.1c0 6.6-5.1 11.8-12.5 11.8h-9.2V26.6zm5.2 4.7v14.2h4c.9.1 1.9-.1 2.8-.4.9-.3 1.7-.8 2.3-1.5.7-.7 1.2-1.5 1.5-2.3.3-.9.5-1.8.4-2.8v-.1c0-.9-.1-1.9-.4-2.8-.3-.9-.9-1.7-1.5-2.4-.7-.7-1.5-1.2-2.3-1.5-.9-.3-1.8-.5-2.8-.4h-4zM52 26.6h9.6c5.6 0 9 3.3 9 8.2v.1c0 5.5-4.2 8.3-9.5 8.3h-3.9v7.1H52V26.6zm9.3 11.9c2.6 0 4.2-1.6 4.2-3.6v-.1c0-2.3-1.6-3.6-4.2-3.6h-4.1v7.2h4.1z"/>
</svg>