<svg xmlns="http://www.w3.org/2000/svg" viewBox="0 0 100 100">
	<linearGradient id="a" x1="-1.9061" x2="95.771" y1="39.5202" y2="64.7181" gradientTransform="matrix(1 0 0 -1 0 102)" gradientUnits="userSpaceOnUse">
		<stop offset=".12" stop-color="#6b57ff"/>
		<stop offset=".54" stop-color="#ff45ed"/>
		<stop offset=".85" stop-color="#dd1265"/>
	</linearGradient>
	<path fill="url(#a)" d="M96.2 22.9 62.5 0 0 44.4 15.8 100l68.3-13.9 12.1-63.2z"/>
	<linearGradient id="b" x1="65.5935" x2="96.656" y1="46.4169" y2="89.0002" gradientTransform="matrix(1 0 0 -1 0 102)" gradientUnits="userSpaceOnUse">
		<stop offset=".19" stop-color="#dd1265"/>
		<stop offset=".29" stop-color="#de146a"/>
		<stop offset=".41" stop-color="#e21977"/>
		<stop offset=".53" stop-color="#e7218e"/>
		<stop offset=".66" stop-color="#ef2dad"/>
		<stop offset=".79" stop-color="#f93cd5"/>
		<stop offset=".85" stop-color="#ff45ed"/>
	</linearGradient>
	<path fill="url(#b)" d="M96.2 22.9 62.5 0l-8.3 22.5v45.8H100c0-.1-3.8-45.4-3.8-45.4z"/>
	<path d="M18.8 18.8h62.5v62.5H18.8V18.8z"/>
	<path fill="#fff" d="M26.5 69.4H50v3.9H26.5v-3.9zm.1-42.9h9.2c7.4 0 12.5 5.1 12.5 11.7v.1c0 6.6-5.1 11.8-12.5 11.8h-9.2V26.5zm5.2 4.6v14.2h4c.9.1 1.9-.1 2.8-.4.9-.3 1.7-.8 2.3-1.5s1.2-1.5 1.5-2.3c.3-.9.5-1.8.4-2.8v-.1c0-.9-.1-1.9-.4-2.8-.3-.9-.9-1.7-1.5-2.4-.7-.7-1.5-1.2-2.3-1.5-.9-.3-1.8-.5-2.8-.4h-4zm26.1.1h-7.2v-4.8h19.5v4.8H63V50h-5.2V31.2z"/>
</svg>