<svg xmlns="http://www.w3.org/2000/svg" viewBox="0 0 100 100">
	<linearGradient id="a" x1="104.1531" x2="22.4324" y1="77.0521" y2="33.6627" gradientTransform="matrix(1 0 0 -1 0 101.433)" gradientUnits="userSpaceOnUse">
		<stop offset="0" stop-color="#3871c1"/>
		<stop offset=".515" stop-color="#2c3792"/>
		<stop offset=".865" stop-color="#24265d"/>
		<stop offset="1" stop-color="#252761"/>
	</linearGradient>
	<path fill="url(#a)" d="M23.2 94.1s30.3 15.1 53.6-2.8C70.7 75 60.1 28.1 53.8 7.4c-1.3-4.4-1.6-4.9-2.1-6.1-3.1-6.8-6.3 13.2-11.5 33.2-1.9 7.3-17 59.6-17 59.6z"/>
	<linearGradient id="b" x1="64.6138" x2="16.9233" y1="54.0019" y2="41.5607" gradientTransform="matrix(1 0 0 -1 0 101.433)" gradientUnits="userSpaceOnUse">
		<stop offset="0" stop-color="#3871c1"/>
		<stop offset=".515" stop-color="#2c3792"/>
		<stop offset=".865" stop-color="#24265d"/>
		<stop offset="1" stop-color="#252761"/>
	</linearGradient>
	<path fill="url(#b)" d="M29.3 90.7s26 15.2 47.4.5c-.6-2.6-2-6.7-3-10.5-5.2-20.4-14.8-54.8-19.5-71.9-5-18.5-6.7 3.2-12.6 26.2-1.8 7-12.3 55.7-12.3 55.7z"/>
	<path fill="#f9a72b" d="m36.4 77.5 2.7-4.7 2.5 4.9-2.9 6.3-2.3-6.5zm22-17.6 2.7-4.7 2.5 4.9-2.9 6.3-2.3-6.5zM43.3 41.3l2.7-4.7 2.5 4.9-2.9 6.3-2.3-6.5z"/>
	<path fill="#fff200" d="m36.4 77.5 2.7-5.5 2.5 5.7-2.9 4.7-2.3-4.9zm22-17.6 2.7-5.5 2.5 5.7-2.9 4.7-2.3-4.9zM43.3 41.3l2.7-5.5 2.5 5.7-2.9 4.7-2.3-4.9z"/>
	<path fill="#24265d" d="M39.1 90.3s19.3 3.2 32-4.9c-1.6 4.9-15.8 10.5-32 4.9z"/>
</svg>