<svg xmlns="http://www.w3.org/2000/svg" viewBox="0 0 100 100">
	<path fill="#2BACD9" d="M54.815 33.267c-1.67-1.67-3.442-3.46-5.014-5.247-1.471 1.67-3.025 3.192-4.58 4.746a4.448 4.448 0 0 0-.904 1.285 4.129 4.129 0 0 0-.315 2.407v.251c.144.45.357.872.635 1.253.047.064.084.13.116.199 1.02 1.271 3.443 3.61 4.797 4.913l8.026 8.36 2.407 2.542a46.356 46.356 0 0 1 5.35 6.685c.19.329.491.57.853.686h.167c.39-.065.71-.343.835-.719.52-1.68.784-3.423.784-5.182a19.939 19.939 0 0 0-3.693-11.333 71.524 71.524 0 0 0-9.426-10.73l-.038-.116Zm2.241 26.916c-1.99-2.426-3.91-4.648-6.935-7.873-2.556 2.928-4.9 5.182-6.838 7.474a9.108 9.108 0 0 0 .51 12.873 9.108 9.108 0 0 0 12.873-.51 9.113 9.113 0 0 0 .794-11.38 4.347 4.347 0 0 0-.404-.584ZM45.254 48.344a.671.671 0 0 0 0-.886l-5.9-6.036-1.272-1.201a41.334 41.334 0 0 0-2.857 3.73 21.81 21.81 0 0 0-3.141 6.768c-.71 2.783-.645 5.71.2 8.457l.115.25c.149.297.316.58.501.854 0 0 .687 1.104 1.285 1.155h.218a.639.639 0 0 0 .45-.385 15.976 15.976 0 0 1 2.074-3.261l2.157-2.626 6.17-6.82Z"/>
	<path fill="#2BACD9" d="M50.019 0C22.402-.01.009 22.37 0 49.981-.01 77.593 22.37 99.991 49.981 100c27.617.009 50.01-22.37 50.019-49.981V50C100 22.393 77.626.01 50.019 0Zm-.288 81.713c-14.53-.037-26.294-11.816-26.313-26.346 0-12.353 8.244-20.578 15.495-27.848 4.847-4.848 9.477-9.464 10.85-14.66 1.369 5.2 6.003 9.812 10.851 14.66 7.274 7.274 15.495 15.495 15.495 27.848-.014 14.553-11.82 26.346-26.378 26.346Z"/>
</svg>