<svg xmlns="http://www.w3.org/2000/svg" viewBox="0 0 100 100">
	<path fill="#2c2255" d="M27.4 62.6H12.2c2 7 5.8 13.2 11.3 18.7 8.8 8.8 19.3 13.2 31.7 13.2 2.5 0 4.8-.2 7.2-.5 9.3-1.4 17.5-5.6 24.4-12.6 5.6-5.5 9.3-11.7 11.3-18.7l-70.7-.1zM99.5 41.8H11c-.3 1.8-.5 3.6-.5 5.4H100c-.1-1.8-.3-3.6-.5-5.4zM11 57.6h88.2c.3-1.8.5-3.6.5-5.4H10.4c.1 1.9.3 3.7.6 5.4zM86.8 18c-7-7-15.1-11.2-24.4-12.5-2.4-.4-4.8-.6-7.2-.6-12.4 0-22.9 4.4-31.8 13.1-5.5 5.6-9.2 11.8-11.3 18.8h86.1c-2-7-5.9-13.3-11.4-18.8z"/>
	<path fill="#f7941e" d="M7.8 49.7C7.8 26.1 25.5 6.4 48.6 3h-1.7C21 2.9 0 23.9 0 49.7c0 25.8 21 46.8 46.9 46.8h1.7C25.5 92.9 7.8 73.4 7.8 49.7z"/>
	<linearGradient id="a" x1="55.1695" x2="55.1695" y1=".8811" y2="68.2511" gradientTransform="matrix(1 0 0 -1 0 101.433)" gradientUnits="userSpaceOnUse">
		<stop offset=".303" stop-color="#473788"/>
		<stop offset=".872" stop-color="#2c2255"/>
	</linearGradient>
	<path fill="url(#a)" d="M85.6 47.2c-.2-1.8-.5-3.7-.9-5.4H25.6c-.5 1.7-.7 3.6-.9 5.4h60.9z"/>
	<linearGradient id="b" x1="55.1695" x2="55.1695" y1=".8801" y2="68.2491" gradientTransform="matrix(1 0 0 -1 0 101.433)" gradientUnits="userSpaceOnUse">
		<stop offset=".303" stop-color="#473788"/>
		<stop offset=".872" stop-color="#2c2255"/>
	</linearGradient>
	<path fill="url(#b)" d="M85.6 52.2H24.7c.2 1.8.5 3.7.9 5.4h59c.5-1.7.9-3.5 1-5.4z"/>
	<linearGradient id="c" x1="55.169" x2="55.169" y1=".8831" y2="68.2491" gradientTransform="matrix(1 0 0 -1 0 101.433)" gradientUnits="userSpaceOnUse">
		<stop offset=".303" stop-color="#473788"/>
		<stop offset=".863" stop-color="#2c2255"/>
	</linearGradient>
	<path fill="url(#c)" d="M55.2 80.2c12.3 0 22.8-7.2 27.7-17.7H27.4C32.3 73 42.9 80.2 55.2 80.2z"/>
	<path fill="#fff" d="M99.9 47.3H10.4c-.1.8-.1 1.7-.1 2.6 0 .8 0 1.6.1 2.4h89.5c0-.8.1-1.6.1-2.4 0-1 0-1.8-.1-2.6zM97.9 36.8H12.2c-.5 1.7-.8 3.3-1.1 5h88c-.3-1.7-.7-3.4-1.2-5zM11.1 57.6c.3 1.7.6 3.4 1.1 5h86c.5-1.6.9-3.3 1.2-5H11.1z"/>
</svg>