<svg xmlns="http://www.w3.org/2000/svg" viewBox="0 0 100 100">
	<path fill="#fcdca9" d="M36.4.2c1.6-.2 3.3.2 4.9 0 4.4-.4 15.1 11.5 19.8 15.4 3.4 2.9 6.5 5.9 9.5 11 4.1 7.2 1.1 4 4.4 7.6 2 2.2 0 2.7 5.3 10.6.3.5 2.7 3.7 3.6 6.9.6 2 2.1 3.5 2.7 5.5 1.1 3.5 2.9 6.8 4.3 10.3.8 2.1 1.4 4.3 2.3 6.4.6 1.4 1 2.8 1.3 4.2.3 1.4 1.2 2.5 1.5 3.8 1.1 5 3.7 4.9 2.4 12.1-.5 2.6-2.1 4.9-4.7 5.6-3.7 1.1-5.8-1.1-8.3-3.5-20.8-19.4-41-24.7-43.7-26.2-2.5-1.4-4.2-.4-9.6-2.5-5.3-2.1-4.5.1-10.5-2.6-6.2-2.9-6.6-6.5-10-10.5C9.8 52.2 7.2 51 5.2 49c-.9-.9-4.3-3.7-4.2-5.5.1-19.6.2-24.4 3.2-27.8 2.1-2.4 4.8-4 6.3-6.9.9-1.8 2.6-3.6 4.5-4.5 1.1-.5 2.5-2.1 3.8-1.8 2.8-1.4 7.1-.9 13.2-2 1.4-.1 3-.7 4.4-.3z"/>
	<path fill="#d14b02" d="M51.2 19.4c.9.8.8 3.7 1.6 5.4.5 2.8 3.3 1.4 4.3 2.6 1.3 1.5 1 5.1.6 4.4-.1-.3-.9-.1-1.2-.2-.5-.2-.9-.6-1.4-.4-2.1 1.2-3.8 3.6-6.1 4.5-.7.3-1.5.6-1.9 1.3-1 1.5.8 3.5 3.1 2.8.2-.1.1.2 0 .3-.4.4-.1.8.6 1.6.4.5 0 .5-1.2 1-.6.2.6.9 1.4 1.2.8.3 1.3-.2 2.1-1-.6 1.3-.6.8-.1 2 0 .1.1.1.2.1.2-.1.7.4 1.2.5.6.2 2.4.8 2.3-.4 0-.7-.1-2.3-.9-2.6-.2-.1-.3.2-.5.1-.3-.1.8-1.1.6-1.4 1.4-1.4 1.4-1.4 1.4-1.3 0 .1.5 3.2-.4 5.9-1.1.8-3.1.4-3.8-.8-.1-.1-.4-.1-.5-.1-.2 0 0-.4-.2-.2-2.9 2.8-1.7 2.4.9 5.6-.8.8-1.7 1.5-2.7 2.1 0-.8.1-1.5.2-2.2.2-1.7-4.1-.6-3.9-3.6 0-.8.8-.7 1.5-.8.7-.1.7-1.6.2-1.9-.8-.4-7.4-.3-7.8.2-.2.2-.4-.1-.7 0-.5.2-1 .4-1.2 1.1-.2.6 1.3 1.4 2 1.5 1.6.3.4.6 2.1-.3.4-.2 1.1.6.6.9-.7.4-1.6.3-2.3.5-.4.1-2.6.7-2.5.8-.7-.1-1.7-.2-2.4-.1-.3 0-.5-.3-.7-.4-1-.5-1.2-1-2.2-1.6-1.5-1.3-2-1.6-1.8-1.9.1-.1 0-.3-.1-.3-1.2-.4-1.6-2.8-9.1-3-9.4-.2-1.4-2.4-8.2-6-2.8-1.5-4.1-1.6-4.2-3.3 0-.8-.7-2-1.8-2-.1-.5 1-1.9 1.4-1.5.5.8.6 1.8 1.2 2.6-.1.4-.1.6.1.8.9 1.2 1.7 2.7 2.7 2.6.7-.1 1 .6 3 .8.3.2.7.3 1.1.4 1.1 1.2 1.3 1.4 2.2.4 1.3-1.6 2.3-.6 3.2-1l1.6.9c.3.2.7-.6.8-.8 1-.8 2-1.3 3.2-1.9.1.4 0 .8-.2 1.1-.2.6.1 2 1.2 1.7 1.4 1.2 2.7.4 3.5 2 .6 1.3-2.9.8-3.6.5-3.5-1.6-3.3 2 2.5 4.5.7 1.5 5.2-2 6.3-3.1.4-.5.7-1.8.9-2.1.5-.6.9-1.2 1.1-1.8 2.7-2.1 2-6 5-6.2 2.5-.1.3-1.7 2.7-3 2.3-1.2 2.1-1.4 2.2-5.1-.3-.4 0-2.6.8-2.4zm-4.9 13c-.2-.2-1-.5-.9 0 0 .3.3.5.6.6.4.2.6-.3.3-.6zm9.4-12.6c.2.1 1.1 1.1.7 1.3-.2.1-.4 0-.5-.2 0-.2-.5-1.1-.2-1.1zm-41.3 1.3c-.1-.3-.3-.4-.6-.3-.6.7-1.3 1-1.8 1.7-.9 1.2-1.4 2.9-2 4.2-.3.7.4.7.8.7.1-.1.3-.3.5-.3 3.1.1 2.1-.7 2.9-1.4l.1-.9c-.3-1.3.6-2.2.1-3.7zm45.3 11.5c.9.2.5 1.8.4 2.4-.3 2.2-2.3 5.3-1.3 1.9.1-.4.1-.9 0-1.6.4-1.7.4-1.6.9-2.7zM57 37.1l.2-.4c-.1-.5.3-1.2.2-1.3-1.9-2.6-4.4-1.7-3-.4 1.7 1.4 2.3 1.3 2.6 2.1zM13.2 42c1.3 3.1 3.9 1.2 4.8 3.8.2.5.6 1.8.8 1.3.6-1.1 1.5-1 2.6-.9 2.8.4 5.4 1.6 7.4 3.4-.4.2-.6.3-.7.4-.2.4-.7 1.6-1.3 1.1-2.3-2-2.2-2.3-2.2-1.1 0 .3.1 1.7.4 1.8 1 .4 3.6.8 4.5 1.6.2.2.4.2.6-.1.2.2.6.6.7.9.1.4-.6.6-.8.7-1.5.1-3 0-4.5 0 .7-.4-1.1-1.1-2.4-3-.6-.9-1.1-1.4-2.3-1.2-1 .2-.1 1.9-.8 1.9-1.8 0-1.7.3-1.8.1-.1-.2-.3-.3-.4-.4-1.5-1.8-3-3.7-1.3-5.4 1.1-1-1.1-1.9-1.9-2-.7-.1-1.3-.4-1.9-.7-.6-.8-1.7-2.6-.7-2.6.4.1.7.4 1.2.4zm-2.6 3c-1.6-2-.8-2.6.8-.6s.9 2.6-.8.6zm2.8 4.1c-1.1-.8-1.5-2-1.3-2.1.7-.5 1.7.4 1.9 1 .2.4.3 1.1.5 1.5 0 .1-.1.2-.2.2h-.4c-.2.1-.1-.3-.5-.6zm17.3 8.5c.6 0 2-.5 1-1.1-.9-.5-1.8-.6-2.7-.1-1.1.7 1.1 1.2 1.7 1.2z"/>
	<path fill="#f9956c" d="M37.8 1C37.2.9 36.6.8 36 .8 32.7.5 29.9 3.9 26.9 5c-.4.1-1.7.4-1.8.8-.2.7 1.2.8-.2 1.4-1 .5-2.2.2-3.2.7-.4.1-2.1.5-2.2 1.1.5-.1 1-.2 1.4-.4 1.7-.6 3.5-.3 5.1-.9 1.9-.7 3.8 0 4.9.2.8.2 1.6.2 3.5 1.1 2.3.9 2.6 1.9 3.4 1.1 0-.4-.6-1.1-.7-1.1l-1-.4c.2.3.5.6.8.8.1.1.3.4 0 .3-1.3-.5-2.6-1.2-3.9-1.9-.9-.5.2-.5.5-.7-.5-.2-1-.6-1.3-1.1-.2-.1.8-.1.9-.1.1 0 .1-.2.3-.2.4 0 .5-.2.9-.2-.7 0-1.4.2-2-.2-.1-.1-.4-.1-.8-.1-.1 0-.1-.2 0-.3-1.1.3-2.5 1.1-3.9 1.3-.7.1-.2-.6.1-.7 1.6-1.1 3.4-1.9 5-2.9 1.5-1.1 3.2-1.4 5.1-1.6zm2 .5c-.7 1.3-2-.2-2.8.7-.1.2-.4.5-.6.5-.4.1-.6.5-1.1.6-1.8.1-3.7 1.4-3.6 1.4.3 0 .6 0 .9-.1 1.2-.6 2.9 0 3.8-1.6.4-.6.9-.8 1.5-.5.4.1 1 .3 1.3.5 4.5 3.7.1.7 5.9 4.1 3.2 1.9 4.7 2 4.9 3.9 0 .2-.8-.2-1.6-.8-2-1.5-2.8-2-4.9-2.6-1.3-.4-2.8-1.5-4.9-1.6 5.6 2.2 8.5 6.9 10.8 7.4.3.1.2-.5-.2-.8-.1-.1-.1-.2-.1-.2-2.5-2.2-3.9-3-4.3-3.5-.4-.6 1.1 0 1.2 0 2.7 1.8 2.2 2 3.8 2.7.3.1 2.9.2 2.6 1.8-.1.5-.6 0-2-1-.2-.2-.4.2.2.9.5.6 1 1.2 1.4 1.9.2.2.4 1.2 0 1.3-.7.3-2.3-1-1.5.5.2.4.5.8.8 1.2 1.1 1.9 1.1 1.8 1.6 2.4.1.1.1.3.2.5.2.3.3.3.3-.1l.1-.4c0-.2.6-.6.7-.2.4 1.6 1.7 1.6 1.1.8-.3-.4-.3-.1-.5-1.5-.1-.6-.3-1.2-.4-1.8-.1-.8 4.5 3.9 7.4 8.9 0 0-.2-.6-.2-.5 1.6 1.7.8 1.3 2.1 2.7-2-5.6-9.9-11.1-11.3-14.2-.2-.4.6-.4 1.8.8.3.3.6.4.9.7.1.2.5.1.7.2.2 0 .1-.4.1-.5 0 .1.1.5-.1.5-.8-.2-1.4-.7-1.4-1.6 0-.4.2-.4.6-.3-1.9-2.8-6.5-7.6-.5-2.6.1.1.1-.2 0-.3-.9-.8-1.2-1.5-3.6-3-.4-.2-.8-.5-1.1-.8-1.1-.2-2.1-.8-3.2-1-.1 0 0 .1-2.2-1.7-.4-.5-.5-.8-.9-1.2-.1-.1-.7-.5-.9-.6-1.3-.9-.6-.8-2.8-1.9zm13 17.8c0 .2-.1.5-.3.3-.5-.3-.5-.9-.7-1.3-.4-.5.8.4 1 1zM22 2.5c.6.7 1.2 1.4 1.8 1.9.2.7-.5.3-.8.3-.8-.4-.9.8-1.5.6-.3-.1-.2-.4-.1-.8.3-1.5-1.4.3-2.6.1-1.4-.2-2.3.4-5.4 2.2-.1 0-.1-.1 0-.1 3.7-3.7 5.8-3.1 5.4-4.1.3-.2.6-.3 3.2-.1zm1.2 4.2c-1.1.1-1.1-.4 0-.5 1 0 1.1.4 0 .5zm-4.4 2.6c-2.8 1.9-4.6 2.8-7.8 7.1-.1.1-.1.2.1.2.6 0 4.8-4 5.2-4.4.7-.6 1.5-1.8 2.5-1.7.9.1-2.6 3.7-2.8 3.9-.4.4-.6.9-1.1 1.3-1.6 1.5-3.7 4.7-4.1 7.7-.9 1.9-1 2.1-1.6 2.4-.3.2-.4.1-.3-.3.3-1 .2-2.7-.7-2.1-1.2.7-1.9 2.1-2.5 3.3 0-1.5 2.2-5.1 2.7-5.9 2.1-3.2 1.2-3.8 1.3-4.9.1-1 1-2 1.9-2.6 1.9-1.2 4.1-3.1 5.9-3.7.5.2.9-.3 1.3-.3zm-.6 2.1c.4-.5-.6.1-1.2.9-.2.2-1.9 1.9-1.5 1.9.4 0 .9-.9 1.2-1.1.5-.5 1-1.1 1.5-1.7zm-5.3 5.3c0-.2.1-.8-.3-.6-1.5.9-2.1 4-1.6 4 .5-.1.9-1.2 1.1-1.6.3-.6.7-1 .8-1.8zm.5-6.2c0 .1 0 1.3.2 1.2.7-.5 0-2.1-.2-1.2zm-4.7 5c-.4 2.2-2.1 6.3-4.2 7-.2.1-.3.2-.2.4.8 2.1 1 1.4-.1 6.5-.2.6.6 1.6.4 2-.3-.7-1-1.3-1.3-2-.1-.1-.3-.2-.3 0-.4.7-.5 1.5-.8 2.2-.1-3.1.2-3.4.2-6.7 0-1-.6-2.3.8-5.9 1.1-.6 1.9-1.8 2.7-2.6-.2.6-.2 1.1-.1 1.5.8 2.5 3.6-3.2 1.7-2.9.6-.3 1.4-.2 1.2.5zm55.1 7.2c-.6-1.1-1.6-1.8-2.3-2.8-.2-.2-.5-.8-.7-1-.4-.3-.7-1-.9-.7-.1.1.1.3.2.4 2.7 3.2 3.7 6.1 4.2 5.7.2-.3-.3-1.3-.5-1.6zm-8.4-.2c0-.1.1-.2.1-.1.3.4.7.8 1.1 1.2 2 2.6 2.1 4.9-1.2-1.1zM5.6 27.8c-.9 1.4 1.3 2.2.7 4.5.1.7-.3.6-.7.4.3.5.6.9.9 1.3.1.2.1.7-.2.4-.3-.3-1.2-1.2-1.6-1.2-.5 0-.2.3-1.7 4.8-.1.4-.1.2-1-2.7-.3 6.7-.4 6.9-.1 8.1.6 2.5 5.2 6.1 5.9 6.8.1 0 .4.2.4-.2s-.9-.7-1.1-.9c-.6-.4-.9-1.1-1.4-1.6-3-3.6-4.2-4.6-1.2-11.2l.1-1.5c0-.9 1 .6 1.1 1.6 0 .4.2.7.3 1 .6 4 .7 4.6 1.1 5.1-.1-.4 0-.8.1-1.2-.4-1-.9-3.1.1-3.3.1 0 .2-.1.1-.2-.6-1.9-.2-3-.4-3.8-.3-1.5 0-1.3-.1-1.5-.1-1.8 0-2-.5-4 .1-.1-.8.1-.8-.7zm56.8 3c.5 1.1.9.8.8 1.3-1.4.1-1.8 2.3-2.2 3.8-.2.9-.6 1.8-.5 2.7.4.8 2.1-5.8 2.2-4.1.1 3.7-1.7 4.8-2.4 8.8-.5 2.7-2 3.7-2.1 5.5-.2-.5-.5-.7-.8-.6 0-3.3.1-2.4 1.3-6.9.2-.8.8-1.5.9-2.3 0-.2.4-1 .5-1.1.4-.6.3-1.5.5-2.2.7-2 0-5.5.3-5.8.1-.1.2-.1.2 0 .1.2.3.3.4.5.1.2.6.8.9.4zm-4 14.7c0-.4-.5-.4-.5-.1 0 .3-.1.5.2.7.2.3.3-.5.3-.6zm-50.7-3c0 .4-.1.7-.3.9 1.8 3.1 1.6 1 3.1 3.4 2.1 3.2 5.8 6.7 8.3 8.2.7.4 1.5.5 2.1.9.6.4.7 1.3 6.6 3-1.8-1.3-7.6-2.3-.7-2.5.2 0 .2-.3 0-.3-.5-.2-3-.8-4.8-.9-4.3 0-3.9-2.3-4.5-3-.8-.9-2.4-.5-4.3-2.6-4.1-4.5-4.5-8.7-5.5-7.1zM60 52.1c.1.1.3.6 0 .6-.6.1-2.7 0-3 0-1.2-.2-1.3-1.4-2.7-.1-1.2 1.1-6.1 3.5-7.3 3.9.6-.4 1.5-1.3 2.2-1.3.5 0 1-.7 1.4-1 .6-.2 1.3-.7 1.7-1.2.3-.4.8-.6 1.1-1 .7-.2 1.4-.8 2.2-.6.5.1.8.4 1.4.5 1.6.2 2.2.2 2.7.4.2.3.4.2.3-.2zM22.1 63c-1.1-1.2-2.2-2.6-3.5-3.6-.4-.3-2.1-1.5-2-1 .3 1.8 2.9 2.9 3.4 3.4.6.5 1.3 1 2 1.4 0 0 .2-.1.1-.2zm20.7-4.6c-2.5 1.3-2.8.9-3.8 1.1-.5.1-1.3.4-1.6.8-.6.8 3.8.2 2.3.8-1 .4-1.6.3-.8 1.6-.1 0-1.6-.6-1.6-.6 0-.3-1.2-.5-1.4-.5-.4-.1-.7-.5-.5-.8.1-.2.6-.3.8-.5.1-.1.1-.3.3-.5.9-.1 1.6-.2 2.2-.3.7-.2 1.6 0 2.1-.4.6-.6 1.4-.6 2-.7zm-12 1.3c-.2.1-.4.1-.7.1.8.4 1.6.7 2.5.9.4.1.8.7 1.2.9 1.8.8 1.2 1.3 1.4 1.7.3.7.7 1.5 1.3 1.9.5.3 1.4 1 2.1.9.3 0 1.2.2 1.5.2.8.1 1.5.6 2.2.8 0-.4-.1-.4-.4-.6-.5-.2-.8-.6-1.3-.8-2.9-1.2-2-1.3-3.3-2.2-.5-.3-1.1-.7-1.4-1.1-2.3-2.1-3.1-2-2.9-2.6.1.1-2.2-.1-2.2-.1z"/>
	<path fill="#fdcd8f" d="M40.4 4.7c-.1-.1-.2-.3-.4-.3.9 1.1 1.5 1.7.6 1.8 2.5 1.5 3.7 1.3 3 .9-1.3-.9-3.1-2.3-3.2-2.4zm-25.6 5.5c.1.2.9-.3 1.1-.3 1.2-.2 2.4-.8 3.4-1.5 1.1-.9.9-.8-.4-.9-2.3.8-3.4 1.9-4.1 2.7zm40.9 2.2c.4.4.7.9.8 1.4.2.7.9 1.3 1.3 2-1.5-1-1.6-.3-3.3-2.6 0 0-.6-1-.1-.8l1 .3c.2.1.3-.1.3-.3zm1.6 7.7c0-.1-.1-.1-.2-.2.3.4.6.9 1.1 1.2.2.1 1.9 1.9 2 1.6.3-.7-1.4-2.5-1.5-2.6-.4-.7-1.6-3-1.8-3.4-.5-.9-.1.8-.4 1.2-.2.2-.3-.1-.5-.1 2 1.5 2.8 2.1 2.8 3 0 .2-.1.3-.2.3-.3 0-.9-.6-1.3-1zm6.5-.1c1 1.8 1.7 1.4.7-.4-1-1.8-1.7-1.4-.7.4zM7.3 21.7c.4-.6 1.4-1.5 1.5-2.2 0 0 0-.3-.1-.2-.2.3-.3.4-.4.5-1.7 1.1-1.2 2.3-1 1.9zM5.2 26c.1-.6.4-1.3.7-1.8.3-.3.9-.2.7.2-.3.6-.7 1.2-1.1 1.7-.2.3-.3.2-.3-.1zm63.3 5.9c-1.5-3.3-4.9-5.8-4.1-4.7 3.2 5.2 4.2 5 4.1 4.7zM2.1 30.4c.1 1.6-.3 9.9-.3 10.5-.1-1.6-.1-1.7-.1-1.6-.1.2-.4.7-.4.9 0 .1-.2.2-.1.1-.1-6.9-.3-5.6.9-9.9zm68.4 2.1c-.2-.2-.7-.5-.6-.2 0 .3.1.7.1 1 .2 1.4.1.7-1.1 0-1-.6.2.6.6 2.8.1.9.7 1.6 1.2 2.3.3.5.5 1 .9 1.5.3.4 1 2.3 1.4 2.4.5.1.9 1.5 1 1.8 0 .3.6 1.2.7 1.4.3.3.5 1 .6 1.4.3.6.2 1.2-.1 1.7-.1.2-.5.1-.6.1.1.2 0 .4.1.5.1.1.6.8.5 1v.3c-1.3-1.7-2.9-3.2-4.2-4.9-1.6-2-4.9-8.3-7-9.8-1-.7-1.2 2.3-1 2.9.5 1.3 1.3 2.5 2.2 3.6.6.9 1.2 1.8 1.9 2.7.2.3 1.1 1.3.8 1.6-.6.6-1.2-.1-1.5-.6-.2-.4-.5-1-1-1-1 .1-1.9 1.2-2.3 2 1.4-1.3 1.5-1.2 2.8-.2.8.6 1.5 1.1 2.7 1 .4 0 .6 0 .7.3.2.5.5 1.2 1.2 1.1.7 0 .4-1.8 1-1.4 1 .7 4.2 3.6 4.4 5.1.1.8-.3 1.7.2 2.6.5.8 1.3 1.4 1.6 2.3.3.8.4 1.7.9 2.4 1.1 1.4-.3 3 .9 3 2.5 0 3.4 4.8 6.1 5.6 1.3.4 2.2 1.9 2.4 3.2.1.4-.6.7-.1 1.3.9 1 2 2 2.5 3.3.1.4.3.9.7 1.2.9.6-1.1-5.4-2-6.2-.6-.5-.6-1-.7-1.5-.4-2.8-2.5-4.6-3.4-7.1-.5-1.2-1.1-2.2-1.5-3.4-.2-.7-.5-1.5-.9-2.3-1.6-3.5-.9-3.6-3.7-7.5-3.2-4.5-1.1-3.1 1.9 1.1 3.6 4.9 3.2 4.6 2.7 2.1-.5.8-1.3-1.6-1.3-2.1-.1-.6-.4-1-.7-1.5-.1-.1-.2-.1-.2-.2-.7-2-.9-1.6-2.1-3.3-.6-.4-.9-1.1-1.1-.7-.2.6 1 1.7 1 2.5 0 0 .1.5-.1.4-.3-.1-.6-.8-.8-1-1.4-1.6-1.7-2.6-2-3.5 0 .5-.6.8-.9.3-.1-.1-.1-.2-.2-.2-.7-.9-3.5-6.7-3.7-7-.5-1.2-1.5-2.7-1.2-4 .2 0 0-.2.3-.2zm-7 4.2c.7.2 3.8 3.9 3 4-1 .1-2.5-1.6-2.9-2.4-.2-.2-.9-1.9-.1-1.6zm6.5 9.7c-.2.3-.8.2-1 0-.4-.3-.8-1.1 0-1.1.5 0 1.4.6 1 1.1zm3.7-6.6L73 39c-.2-.2.4-.2 1.1.7.1.2-.3.3-.4.1zM7.5 46.6c.1.4.1.6.3.8.3.4.4.8.6 1.2.2.2.4.4.6.7.1.1 0 .2.1.3.2.3.6.3.8.6.3.3 1 .1 1.4.4.8.6 2.2 1.5 1.9 2.6-.1.6-1.6-.5-2.1-.6.7.5 1.1.5 1.4.8.2.2.5.3 2.1.9-.1-1.1-1-2.9-2.6-4.3-.6-.5-1.1-1.7-1.6-2-.3-.2-.2 0-1.2-.7.2.4.2.7.5 1.1.1.3.9 1.5.3 1.7-.3.1-.4-.1-1.7-2.1-.2-.6-.5-1-.8-1.4zm55.2 1C60.3 51 74.5 61.5 76.5 64.1c.5.7-.5 1.3-1.1.9-.5-.3-1.2-1.2-1.7-1-.9.3 5 5.2 5.1 5.3 2.4 2 2.9 2.2 2.8 3.1-.1.7-.5 2.2-1.5 2.2-2-.1.2-1.7-3.4-4.7-1.3-1.1-4-3.4-5.9-2.6-1 .4-2.8 1.3-3.2 2.3-.5 1.2 2.1 5.5-.4 4.7-2-.7-5-2.4-5.6-2.8-.1-.1-.3 0-.3-.1-.1-.1-.8-.5-.9-.5-.1 0-.4-.1-.4-.2-.1-.1-.4-.1-1.4-.6-8.8-4.1-.8-2-2.2-4.1-1.7-2.5-3.3-3.1-.9-2.4.6.2-.2-.8-.3-.9-4.2-3.6-6.1-3.4-4.6-5.2.2-.3.4-.6-.1-.7l.9-.9c.6-.6-1.2 0-3 1 0-.1.1-.1.1-.2.3-.1-.7-.2-.8-.1.2-.1.6-.1.8-.3.6-.5.6-.5 3.8-1.9.1 0 .5-.2.4.1-.7 2 1.5-2 2.4-1.2.3.2.1.3.2 1-.2-.4-.6-.4-1 0-1.5 1.3-3 2-2.4 2.3.3.1 9 8 10 9.2-3.3-2.5-3.3-2.5-3.7-2.3-.4.2-2.2-1.2-2.3-1.3-.4-.3-.1.3 0 .4.4.5 1.3 2.7 1.3 3.9 0 .8-.4.8-.9 1-.5.1-.4.4 0 .7 1.9 1.4 10.8 6.4 10.9 3.2 0-.4-.2-.7-.2-1.1-.1-1.1-.6-2.1-1.4-2.9-.2-.2-.5-.2-.8-.2-.6 0-1.7-.4-2.2-.8 1.1-.2 2.4-1.2 2.8-2.4.2-.7 1.1-1.1 1.7-1.5 1.4-.7 1.6-1.7 1.1-1.8-6.7-2-5.1-6.7-6.9-.9-.2.8-.7.9-.9.3-.6-1.6-3.4-3.7-4.5-5.2 2 .3 3.1 3.8 4.7 3.3 1.1-.4.4-1.4-.2-1.9-4.2-3.7-2.1-2.9-.8-1.7 1.7 1.5 2.5-.5 4.5.3.5.2 1.5.6 1.7 1 .1.2-1.1.1-1.2.1-.4 0-1.1-.4-1.2.2-.2 1.4 4.5 2.9 5.4 3.1.2 0 .1-.3 0-.3-1.3-.6-.3-1.4-5.6-6.1-.8-.7-1.6-1.4-2.5-2-.4-.3-1.4-.1-.9-1.5.3-.8.8 0 1.3-.4.4-.3.8-.8 1.3-1 .1 0 .1-.3.3-.4zM51.2 57.8c-.1.1-.1.2 0 .3.1.1.4 0 .6 0 .3 0 .3-.1.2-.3-.2-.3-.5-.3-.8 0zm18.7 8.1c.6-.4.9-.8 1.2-1.4 1.2-2.2-.3-2.3-.7-2.9-.4-.6-1 0-1.4.4-3.2 3-3.3 3.1-2.2 3 .8 0 1.5 0 2.1.3.4.3.4 1 1 .6zM13.7 55.1c-.5-.5.1 1.5.7 1.5.6.1-.2-1.1-.7-1.5zm14.6 5.8c-3.3-.8-3.7-2.9-6.3-3.2-4-.4-4.1-1.5-4.2-.9-.3-.2-.8-.9-.5-.9 4.8 1.1 14.7 4.6 9.8 3.7-.1 0-.6 0-.3.1 0 .1 1.5 1.2 1.5 1.2zm19.8-2.7c-.2-.1-.3-.4-.3-.8-2.1 1-4.5 2.7-4.5 1.6-.2 0-.3.1-.5.3-.6.8 1.9 2.4 2.6 2.7.8.4 1.5.7 2.3 1.1-.6-1.8-4.2-2.6-3.4-3.1.6-.3 1.1-.6 1.7-.8.8-.3 1.4-.6 2.1-1zm.4 5.8c.5.5.1.8-.2 1-1.4.9.9 1.8 2.5 2.5.9.3 1.2 1 .8.9-1.5-.1-2-.4-2.4-.2-.8.4 11.7 8.1 13.6 10 .7.7 2.6.7 3 1.7.1.3-.9 0-2-.9-1.6-1.3-1.5-.6-5.9-3.2-3.3-2-3.9-1.6-13.3-5.6l1.4.3c.1 0 .1-.1.1-.1.2 0 .4.2.6.2.3 0 .1-.4 0-.5-.8-1.2-1.1-1.3-.6-1.4.9.4 1.8.8 2.5 1.5.2.2-.4.6-1 .2-.1-.1-.5-.1-.3.1 2.7 2.2 5.5 2.2 5.1 1.7-1.7-2.1-3.6-2.8-5-4.5.2-.2.5-.2.8.1h.1c.1-.1.1-.2.2-.2 1.2-.6-5-3.3-6-3.7-.4-1-1.1-1.7-2.2-2 2.5-1.8 2.9 3.3 7.7 2.5.4-.1.6-.2.5-.4zm-18.7-2.4c.9.3 1.6.8 2.2 1.4.1.1 0 .3-.1.4-2.7.4-4.6-1.5-5.6-1.5.9 1.6 7.5 4.6 9.1 4.5.4 0-.3-.7-.4-.7-4.2-2.5-.3-3-5.2-4.1zm25.7 9.5c-.6-.8 1.9.4 3.1 2.5.3.5-1.4-.1-3.1-2.5zm8.7 3.8c1.5.9 2.6.9.7-.4-1.2-.8-2.4-1.6-3.7-2.3l-.4.1c1.2.9 2.2 1.8 3.4 2.6zm27.2-1.2c.3 0 .2-.9-.1-.8-.1-.1-.2.8.1.8zm-30 2.2c.6.5 1.3 1.1 1.9 1.5.3.2 2.8 1.6 3.1.9.4-1.1-1.4-1.2-2.1-1.5-.6-.2-1.3-.7-1.8-1.1-1.2-1-3.3-1.6-1.1.2zm8.2 6c-.7.2-1.4-.1-1.9-.5-.3-.2-.6-.6-.9-.9-.7-.8 3.4 1.2 2.8 1.4zm1.1 0c.6.5 2.4.8 2.5.3.1-1-3.3-.9-2.5-.3z"/>
	<path fill="#fdb685" d="M37.9 2.5c-1.8-.7-.7 1.7-4.1 1.8-.8.1-1.6.5-2.4.6 0 .1-.1.3 0 .3.4 0 .7 0 .8.1 1 .7 2-.3 6.5.8 1 .1 1.8.3 2.6.7 1.9 1 3.6.8 7.2 3.5 2.5 2 1.4-.3 1.1-.5-2.4-2-6.3-3.3-8-4.8-2.9-2.4-1.8-1.9-3.1-2.2L40 4.3c.9.5 1.1 1.1 3.6 2.7.4.2.1.5-.3.3-5-2.3-6.5-2-6.5-2.7 0-.6.2-1.2.5-1.8.2-.3.4-.4.6-.3zm-14.1 2c.2.7-.7.2-.8.2.2.3.3.6.3.9 0 .1-.2.1-.3.2-.1.1 0 .2-.3.3-1.1.3-1.4.7-2.2.9-.5.1-1.1.3-1.6.5 1.3.1 1.6-.1.4.9-1.7 1.3-3.8 1.5-4.1 1.8-.2.2-.3.2-.3 0-.4.1-.6.2-1 .1.1 1-.3 1.8-.4.2-.1.2-.4.4-.6.4-.2 1.5-3.4 5.6-4 3.7 0 .3-.1.4-.2.3.7 1.1-1.3 4.8-2 5.8.1 0 .3 0 .3.2-.1.2 0 .3 0 .5-.3.8-.5.8-.9 2.8.4-.5.8-.1.7.2-.3.6-.7 1.2-1.1 1.7-.2.3-.3.2-.3-.1 0 .2-.1.3-.1.5 0 .4-.3.7-.3 1 0 .5 0 1-.1 1.4.9 1.1 1.7 2.9 1.6 3.4.6-2.5-1.6-3.1-.7-4.5.6-2.2.6-2.1.6-2.2.2-1.4 3.3-5.4 3.7-7.7.2-1.2-.9-1.8 1.1-3.7 1-1 6.8-4.9 7.8-4.9 0-.1.2-.2.5-.3 0-.1.1-.2.2-.3l.6-.3c3.7-1.5 3.5-.7 4.5-1.2.8-.4 1.5-.5.7-1.2-.2-.2-.3-.5-.1-.5l1.5-.6c-.9 0-2.3-.6-3.1-.4zm-.6 2.2c-1.1.1-1.2-.4 0-.5 1.1 0 1 .4 0 .5zM8.3 19.8c.1-.1.3-.2.4-.5.1-.1.1.2.1.3l-1.5 2.1c-.2.4-.7-.8 1-1.9zM33.5 7.3c.9.3 1.8.8 2.5 1.4.2.3.5.6.8.8.1.1.2.4 0 .3-1.3-.5-2.6-1.2-3.9-1.9-.8-.5.4-.5.6-.6zm16.1.1c.1.3.4.5.9.7.2.1.3.3.4.4 2.5 1.4 2.8 2.3 3.6 3 .1.1.1.3 0 .3-7.5-6.1 1.6 2.7 1.4 4.5 0 .2-.7 0-.8-.1-.2-.3-.6-.4-.9-.7-1.6-1.5-2.6-1.4-1 .5 1.9 2.3 9.3 9.1 10.3 12.5.2.6 2.7 4.6 4.8 6.9.4.4.7 1 1 1.5.3.5 1 1.1 1.1 1.6.1.3.5.7.8 1 .1.1-.1.4 1.4 2.2.6.8.5 1.4 1.4 2.4-1.3-2.8-1.4-2.2-1.6-2.9-.1-.4-.6-1-.9-1.4-.4-.5-.6-1-.9-1.5-1.3-2-1-1.9-1.5-3.6-.4-1.2-1.3-2.6.7-.9.3.2.6-.1.4-.3-.3-.3-.2-1-.3-1.4-.1-1.1 5.8 4.6 6.1 8.5.1 1 .6 1.9.3 2.9.4 1.2 1.1 2.7 2.8 4.4.1.1.4-.3-.4-1.6-.1-.2-.8-1.2-.4-1.4.3-.2.8.7 1 .8-.3-.7-.7-1.3-1.1-1.9-.5-.7-.9-1.6-1.4-2.3-.3-.5-.6-1.4-.2-1.1.2.1.6.7.8.7-.4-1-1-1.6-1.2-3-.2-1.6-1.3-3-2.3-4.1-5.1-5.5-5.2-7.9-13.3-15.9-2.4-2.4-2.3-2.5-3.6-3.1-1.3-.5-2.4-2.3-2.5-2.6-.1-.6 1.5.7 1.4-.1-1.9-2.4-3.6-3.4-6.3-4.9zm5.7 9.9c.3.2.8.7 1.1.7.7-.1-.7-3.7 1.8 1.2.8 1.7 2.3 3.1 2.1 3.6-.1.2-.7-.4-.8-.5-2.4-2.2-.2-.1-4.2-4.8-.1-.1-.1-.3 0-.2zm9 6.7c.2.9-.7-.1-.8-.3-1.1-1.7-2.1-3.5-3.5-5.1-.5-.6.2-.6.4-.2.1.2 1.6 2 1.7 2.1 1.5 1.6 1.8 2.2 2.2 3.5zm0 3.3c-.1-.1 0-.4.1-.2 3.4 2.5 6.2 9.8-.1.2zM15.5 14.2c-.1.1-.2-.1-.1-.1.2-.2.4-.4.6-.7.3-.4.7-.7 1-1.1.3-.4.7-.8 1.2-1.1.7-.5-1.7 2.2-2.7 3zm-2.6 2.5c0-.2.1-.8-.3-.6-1.8 1.1-2.7 6.6-.5 2.4.3-.6.7-1 .8-1.8zm39.9 2.6c0 .2-.1.5-.3.3-.5-.3-.5-.9-.7-1.3-.1-.2 0-.3.2-.2.3.3.7.8.8 1.2zm10.4 12.8c-1.4.1-1.8 2.3-2.2 3.8-.1.4-.6 1.9-.5 2.6.1.1.1.1.2 0 .7-1.3 1.7-4.1 1.7-4.2.2-.2.3-.2.3.1 0 1.4 0 2.3-.9 4.3-2.4 5.1-.6 4.1-3.3 8.7-.2.3-.2.7-.3 1.3 1.9 3.6 2.2 4 1.8 4.1-5.2.7-3.7-1.9-5.9 0-1.9 1.7-12.9 6.5-13.4 6.6-.4.1-2.6.1-3.3 1-.1.1 0 .2.1.3 1.2.5 4.1-.3 1.2.9-.2.1-.2.2-.2.4.1.3.2.5.4.8 1.5.7 2.8 1.6 4.3 2.3.1 0 2 .4 2.8 1.3.5.6 1.1 1 1.6 1.5.2-.2.5-.2.8.1.1.1.2-.2.3-.3 1.5-.7-7-4.1-8.8-5.1-.1-.1-.1-.2 0-.3l.7-.4c2.2-1.6 3.1 2.4 6.2 2.6 1.4.1 2.4-.2.9-1.3-.8-.4-1.6-.7-2.3-1.1-.7-.3-3.2-2-2.6-2.7.1-.2.3-.3.5-.3 4.4-2.7 4.8-2.3 5.2-2.6.4-.3.8-.6 1.3-.8 2.8-1.1 3.2-1.7 2.8-.6 0 .1 0 .1.1.1.3.1 1.7-2.4 2.5-1.8.5.5 0 1.2.9 1.7 1.9.3 3.2 3.8 4.7 3.3 1-.3.6-1.2 0-1.7-4.7-4.1-2.2-3-1-2 1.6 1.5 2.6-.5 4.5.3 1.8.7 1.8 1.1 1.6 1.1-1.1-.1-1.2.1-1.9-.1-.2-.1-.4 0-.4.3-.1 1.3 4.4 2.9 5.4 3.1.2 0 .1-.3 0-.3-.7-.3-.9-.9-1.2-1.5-.7-1.1-4-4.6-6.9-6.6-.4-.3-1.4-.1-.9-1.5.2-.8.6 0 1.7-.7 1.5-1.1 3.4-5.2 4.8-2.7.3.5 1 1.3 1.6.7.5-.5-3.9-5.4-4.8-8-.2-.6 0-3.7 1-2.9 2 1.5 5.4 7.8 7 9.8 1.2 1.4 1.5 1.3 4.2 4.9h.1s-.1-.1-.1-.2v-.3c0-.2-.3-.5-.4-.7-.1-.1 0-.2 0-.3-.1-.2-.3-.5-.4-.7-.3-.5-.2-.8-.7-1.3-.3-.2-.5-.5-.7-.8-.8-1.3-2.6-2.9-2.8-3.3-2.4-4.5-2.5-3.5-2.7-4.4-.1-.7-.6-1.2-.9-1.8-1.8-1.8-2.8-3-3.7-4.7zM9.1 45.4c1.2.3 1.2 2 5.4 6 4.6 4.5 5.3 3.6 6.4 4.4.6.4.7 1.3 6.6 3 4.4 1.7 2.9 1.3 5.1 1.9.4.1.8.7 1.2.9 3.2 1.4.1 3.5 5.4 4.7 5.1 3.1 5.9 1.4 7.1 2.4-.5.1-.3.2.6 1.4.1.2.2.5 0 .5l-.5-.1c-.1 0-.1-.1-.1-.1l-.1.1-1.4-.3c-1.9-.9-3.4-1-3.2-.8l.4.5c.1.1-.2.1-.2.1-1.7-.8-3.1-.2-4.4-1-3.6-2.3-8.5-3.2-9.7-3.2-1.9.1-2.8-.7-4.5-1.3-.3-.6-.8-.7-1.1-1.2.1 0 .3-.1.2-.2l-1.6-1.7c.5.2 1 1 1.6.6 2.9 3.2 5.3 3.7 4.8 2.9-1-1.9-1.6-1.9-1.6-2.6 0-.3-.3-.6-.4-.9 0-.1.2-.2.3-.2l1 .6c.9 1.7 8.7 5.1 9.2 4.4.1-.2-.4-.6-.5-.7-2.9-1.7-1.7-2.8-3-3.4-1.8-.8-1.5.2-5.1-2.4-.1 0 0-.1.1-.1 5.6.7-5.6-2.8-9.5-3.7-.3-.1.1.6.5.9l.8 1.3c-1.6-1.4-3.3-3.2-3.2-2.4l-.8-1.6c-.4-1.1-1-2.1-1.7-3.1-.8-1.2-2.2-1.6-2.7-3.1-.1-.2-.1 0-1.3-.9l-1.8-2.6c-.1-.1 0-.3-.1-.4-.8-.7-.4-1.6-.6-2.1-.1-.2-.4-.6-.4-.8.1-.4 0-.7-.3-.7 0-2.4-.7-1.7-.8-2.5-.1-.6-.3-1.1-.6-1.5l.1-1.5c0-1 1 .6 1.1 1.6 0 .4.2.7.3 1 .2 1.4.4 2.8.7 4.1.1 1 1.4 3.6 2.3 3.8zm30.1 22.7c-.3 0 0 .5.2.5.3 0 1.6.3 1.5-.2 0-.2-.6-.3-.8-.3h-.9zm19-21.9c.6-1-.3-1.2-.3-.7v.5c0 .1.3.3.3.2zm-10.1 12c-.2-.1-.3-.4-.3-.8 2.3-1.5 4.2-2 3.6-1.4-1 .9-1.9 1.7-3.3 2.2zm3.9-.4c-.2-.3-.5-.3-.8 0-.1.1-.1.2 0 .3.1.1.4 0 .6 0 .3 0 .3-.1.2-.3zm17.3 8c-.3-.8-1.4-.8-2.5-.8s-1.3.2 2.2-3c.2-.1.3-.3.4-.4.8-.5.9-.3 1.1-.1.5.6.9.6 1 .8.8 1.7-1.9 4.5-2.2 3.5zm-6.7.6c-4.1-2.9-3.9-3.1-4.5-2.9-.4.2-2.2-1.2-2.3-1.3-.1-.1-.1-.1-.2 0-.2.1.7.7.9 1.6 0 .1 0 .2.1.3v.1c0 .8.5 1.1.4 2.4 0 1.2-1.2.8-1.3 1.1-.2.6 6.4 4 7.5 4.1-.1-.5-.6-.5-.6-1.1 0-.4.4-.5.4-.9 0-1.2-1.1-1.1-1.4-2.1-.3-1.1 2.8.4 3.8 1.2.4.3.7.9 1.2 1.2.3.3-.4 2.3-1.4 2.3.9.1 1.7.1 1.7-1.1 0-.5-.1-.5-.1-.6-.1-.5.1-1.8-1.4-3.3-.3-.4-1.4.2-2.8-1z"/>
	<path fill="#fead53" d="M67 34c2.2 3.6 2 3 3 6.8.4 1.4-.6-1.1-3.4-4.2.1.4.5.8.7 1.2.3.4.1 1 .7 1.5.4.4 1 1.5 1.1 1.7 0 .3.5.6.6.9.2.5.5 1 1.8 2.6.2.2.6.4.7.6.1.1.9 1.4 1.4 1.8.5.4.2.5 1 1.8.1 0 .5.1.6-.1.3-.6.3-1.1.1-1.7-.2-.4-.3-1-.6-1.4-.3-.3-.3-.7-.5-1-.2-.1-.2-.3-.2-.4-.4-.5-2.6-4.6-3.5-5.5-.2-.2-.3-.6-.5-.8-.2-.2-.3-.6-.4-.9-.1-.1-.3-.2-.4-.4-.7-.9 0-.4-1.4-1.8-.3-.2-.5-.5-.8-.7zm10.3 7.4c-.2-.1.1.1-.8-.7-.2-.2-.3.1 0 .5 0 0 .5 1.1.6 1.3 2.3 3.3 1.6 3.2 3.4 5.1.3.3.6.9.9 1.8 0 .1.1.1.2.2 1.1 1.8.6 2.6 1.5 3.6.2.2.4.2.5-.1-.1-.6-.3-1.2-.5-1.8-1.4-3.1-4-7.2-5.8-9.9zm-16.7 5.3c.1 0 .2.1.2.3.2.2.4.6.2.8-.2.3-.5.4-.9.4L60 48c-.2-.4-.4-.8-.1-1.2.1-.3.4-.3.7-.1zM43.3 64.9c.5.3 2.4 1.3 1.7 2.1-.7.7-1.8.4-2.6.2-1.4-.4-1.7-1-3.2-.9 3 1.8 4 2 5.6 2 1.7.1 4.4 1.8 4 2.1-.3.2-.6.2-1 0-.1-.1-.5-.1-.3.1 2.4 2 7 3.1 4.3.8-1.4-1.2-3-2.2-4.1-3.6-.5-.5-1.1-1-1.6-1.5-.6-.7-2.1-1.2-2.3-1.2h-.2c-.1 0-.1-.1-.3-.1zm1.3 1.8c0-.3-1-.4-1-.1-.1.2.9.4 1 .1zm18.7 5.2c2.5 1 2.6.8 3.4-1 .1-.1.1-.5 0-.7-.5-.3-.8-.9-1.2-1.2-.8-.6-1.8-1-2.7-1.4-.9-.5-1.9-.1-.5 1.1 1.9 1.5-.6 1.8.8 2.9.1 0 .2.2.2.3z"/>
	<path fill="#fda592" d="M36.4.2c.7-.1 4.1.1 4.2.1-.5.5-1.1.5-.9.7.2.2.8.1 1.1.2.8.2.7.8.9.9 2.9 3 4 3 3.7 2.6-1.7-2.6-5-4.5-3.9-4.1 1.4.6 3.1.7 5.3 3.6 1 1.3 1.7 2.2 2.8 3.3 0 .1.1.2.2.3-2-.3-2-.8-3.2-1-.1 0-2.2-1.6-2.9-2.4-.1-.2-.3-.2-.5-.3-1.9-1.7-2.2-1.9-3.4-2.5C32.9-.9 32.6 3 26.8 5c-2.7-.2-2.6-.5-3.1-.5-.6-.6-1.2-1.2-1.8-1.9 1.6.3 1.2 1.3 2.8.8 5.7-1.8 7.3-2.8 8.9-3 1.1.1 2 0 2.8-.2zM18.8 2.6c0 .1.1.2.1.3-.3.2-.7.5-1 .7-2.3.9-5 3.6-4.4 3.3 6.5-3.8 3.8-1.2 7.2-2.7.5-.2.9-.4.8.4-.2 1 .4.9.6.5.2-.4.4-.6 1-.4.2.3.3.6.3.9 0 .1-.2.1-.3.2-.2.2-.1.3-.4.3l-.9.3c-.9.5-2 .6-2.9 1.1-3.4 1.2-3.9 2.8-4.4 2.9-.3 0-.9-.3-1.1-.1-.3.2-.3.6-.8.6-.1-.4-.6-.3-.9-.4-.9-.4-.5-1.9-.2-2.5 1.1-1.8 1.5-2.8 3.3-3.7.3.1-.1.1-.9.8-.4.3.5.7 1.4-1.1 1.3-1 2.1-1 2.6-1.4.3 0 .5-.1.9 0zM8.6 14.9c.1.2.2.1.2-.3-.2-.8.1-1.5.5-2.2.2-.3-.1-.3-.4-.1-2.5 2-4.8 3.7-5.7 6.7 1.2-.6 4.2-4.7 5.4-4.1zm-2.1 5.8c.1 0 .4 0 .3.2-.1.2 0 .3 0 .5-.3.8-.5.8-.9 2.8-.4.7-.7 1.5-.8 2.3 0 .4-.3.7-.3 1 .2 2.4-1 2.9 1.3 5 .2.1.2-.1.2-.1 0 .3 0 .4-.2.5-.1.1-.4-.1-.5-.2l-1-1.4c-.1-.4-.2-1-.4-1.3-.1-.4-.3-.6-.1-1 0-.8.1-1.6.4-2.4 1-2.8-1.1-3.8-.1-4.2 1.3-.3 1.4-.6 2.1-1.7zM5.2 37.9c-.1-.6-.3-1.1-.6-1.5-3 6.5-1.8 7.5 1.2 11.2.4.5.8 1.2 1.4 1.6.7.5 1.4.8 1 1h-.1v.1c.1.1.1 0 .1.1 0 .2-.1-.1-.3-.1 1 .8 2.1 1.6 3.3 2.2.5 0 2 1.1 2.1.6.2-1-1-1.9-1.7-2.5-.9-.6-1.6-.5-1.7-.6-.4-.4-1-.5-1.1-1.1-.2-.9-1.1-1.4-1.2-2.4-.6-1.1-1.1-2.3-1.3-3.5-.1-.4-.4-.8-.4-1.2.5-3.4-.6-3.5-.7-3.9zM60.8 47c-.7-1.9.4-1.9.4-2.9 0-.9.8-2.7.9-1.9.1 1 .5 1.8.9 2.7 0 0-.9 1.4-1.3 1.6l-.9.5zM22.1 61.9c-8.1-8.8-7.1-7.1-5.8-2.6.4 1.3 1.3 2 2.3 2.8.6.4 1.2.9 1.8 1.2.9.4 1.6 1 2.6 1.1-.4-.6-.9-.7-1.1-1.2-1-.6-1.9-1.4-2.8-2-.9-.6-2.4-1.7-2.6-2.8-.1-.6 1.6.7 2 1 .8.5 2.7 3.1 3.6 2.5z"/>
	<path fill="#b94603" d="M58 29.9c.1.5 0 2.3-.3 1.8-.2-.3-.5 0-1.1-.3-2.5-1.3-3.8 2.7-7.6 4.2-.8.3-1.4.6-1.9 1.2-1 1.5.8 3.5 3.1 2.8.2-.1.1.2 0 .3-.2.2-.2.5-.1.7.9 1.4 1.2 1.1-.6 1.8-.6.3 1.4 1.8 2.6.9-.6 0-.8-.9-.7-1.1.5-.5 1-1 1.5-1.4.2-.1.7.2.5.7-.2.5-1 2-.9 2 .3.8.3 1.1.5 1 .2-.1.7.4 1.2.5.6.2 2.4.8 2.3-.4 0-1.1-.4-3-1.2-2.5-.5.3-.2-.4.2-.8.1-.1 0-.1.1-.2s.1-.2 0-.3c-.2.2-.3.1-.4-.1-.2-.6 1-2.5 1.7-3.7-.4-.8-1-.8-2.6-2.2-.4-.4-.4-1-.2-1.1 1.5-.6 3.3 1.4 3.2 1.6-.2.9-.3 1-.2 1.2.5-.5 1-.9 1.6-1.3.4-1.8.4-1.7.9-2.8-.7-.4-.7-.4-.8-.4-.1.2-.1-.4-.8-2.1zm-49.9 0c-.1 0 0 .1-.6 1.6.6 1.1.5 1.3.6 1.5 2.5 2.2 1.9 4.9 1.9 5.5 0 .3.2.7.3 1.3 0 .1.1.1.1.2.1.4.1.8.4 1.1.4.5.6 1.1 1 1.6-.2-.4-.3-1 .2-1 .1 0 .4.3.5.3.2.1.4 0 .7 0-1.8-2.7-2.6-2.9-2.9-4.9-.1-.5-.3-1.1-.2-1.5.6-1.7 1.8-.3 2.7.2 1.4.8 2.6 1.5 2.9 2.9.4 1.7 1.6 3.1 3.1 4 1.2.7.9-.8 4.1-.5 5 .5 7.2 2.2 8.5 3-.2-.2-.2-.4-.1-.5.1-.1 0-.3-.1-.3-1.3-.5-.8-1.9-6-2.8-2.4-.4-5 0-7.4-.8-1.5-.5-.4-2.7-1.3-3.6-3.2-3.1-6.7-2.7-6.7-5.2.1-1-.7-2-1.7-2.1zm38.3 3c.2-.4-.8-1-1-.6-.3.4.8 1 1 .6zm4 19.3c.2-2.7.8-2.8-1.6-3.5-1.2-.3-2.2-.9-2.1-2.3 0-.8.8-.7 1.5-.8.7-.1.7-1.6.2-1.9-.9-.5-2.3-.3-3.2-.2-4.2.2-4.5 0-4.6.1-.4.4-1.5.3-1.9 1.4-.3 1 2.6 1.7 2.9 1.8.1 0 0 .1 1.2-.6.5-.2 1.8 1.1-.5 1.2-.9 0-.9.2-3.1.8-.4.1-1-.1-1.4.1-.2.1-.5-.1-1.6 0-.3 0-.5-.3-.7-.4-1.2-.5-.7-.8-2.2-1.6 1.2 1.6 1.8 2.3 3.4 2.4 6 .4 8.5 0 11 .5.8 0 2.1-.1 1.9.5-.2.4-.5.8-.8 1-1.7 1.2 0 1.3-.6 2.2-.8 1.2-3.6 2-3.7 3.5.3 1.5-2.5 1.5-3.3 1.4-2.2-.3-5.9-1.9-4.5-3.2.1-.1.1-.2.1-.3.6-.4 1.5-.8 2.8-1.4.7-.2.4-.2 1-.6.2-.1.1-.4-.1-.4-1.2-.2-4.2 1.4-6.1 2.3.4.1.8.1 1.3.2.1 0 .4.2.2.3-.2.1-.7.6-1 .5-.6 0-1 1.1-.9 1.5.6 2.8 4.7 1.5 5.3 1.8 0 0 .2.2.3.2.2.1.7-.2 3.2-.5 4.9-2.2 3.9-1.7 5.4-2.7.1-.1.4-.6.1-.6-.7 0-2.6.7-2.2.2.4-.3.4-.2 4.3-2.9zm-8.2-6.6c-1.6.1-1.7-1.2 0-1.2.3 0 1.7 1.2 0 1.2z"/>
	<path fill="#da5a2d" d="M40.5 9.5c-.7 0-.8 0-.8.2s.1.2.2.2c.2 0 .9.2.8-.2 2 1.8 2.1 1.8 1.9 1.9-.5.1-2.1-1.4-3.6-1.7-.1 0 0 0-1.2-.8.5 0 .9 0 1.4.2.5.2.8.2 1.3.2zm14.8 9.1c.8.8 4.5 5 6.4 8.3.3.7.6 1.5.7 2.2-.3-.6-.7-.8-1.1-2.1-.2-.6-1.1-1.8-1.2-1.9-.2-.5-.9-1.7-1.5-1.4-.3.2-.4.8-.5 1.1-.4-.5-.8-1-1.2-1.6-.5-.8-1.9-1.9-1.9-4.5 0-.1.1-.1.3-.1zm1.1 2.4c.3-.1.1-.3-.7-1.3-.1-.1-.1.2-.1.2.3.9.4 1.3.8 1.1zm-5.1-1.9c0 .2 0 .3-.1.3.8.7.8 3.7 1.6 5.4.1 0 .2.1.3 0 1.1-1.3 1.2-1.6 1.5-1.4.9.8 1.8 1.9 2 2.4 0 .1 0 .2.1.3.3.4.9 1.3.4 1.2.6.6.9 2.1.9 2.6.2.5.4 1.2.5 2.1.1.4.4.2.5.3l.7.4c.9.2.5 1.8.4 2.4-.3 2.2-2.2 5.2-1.3 1.9.1-.4.1-.9 0-1.6-.7.4-1.4.8-1.8 1.6-.5.8-2 2.8-1.7 3.9.1.3.2.3.4.1 1.4-1.4 1.4-1.4 1.4-1.3 0 .1.5 3.1-.4 5.9.2.4.1-.2.1.3 1-1.1 1.1-4.1 2.4-7 1-2.2.7-1 1.3-3.1.6-1.9.1-1.5.4-2v-1.7c0-.1-.1-.1-.1-.2-.3-2.2-1.6-4-1.6-3.5s0 .9-.1.8c-.6-.5-.2-.8-.5-1.3-.2-.2-.2.3-.6.1-.5-.2-.8-1.3-.8-1.3-.2-.2-.3-.4-.3-.6-.1-.5-.6-1-.8-1.4-.3-.7-.8-1.4-1.4-2-.5-.5-.7-.1-1.5.1-.2.1-.7-1.2-.7-1.4-.1-.2-.1-1-.6-1.8-.2-.2-.4 0-.4-.5-.1-.1-.2 0-.2 0 0 .2 0 0 0 0zM8.3 30c-.7.3-.4 2.8-.2 3 1.3 1.1 1.4 1.9 1.8 2.9.2.5.1 1.3.1 1.9.2 2.3.4 2.1.4 2.2.1.4.1.8.4 1.1.5.5 1.1 2.2 1.9 3.2 3.4 5.5 1.8 3.7 3.4 5.6.3.9 3.1 4.1 5.6 4.6 2.2.4 5.6.5 8.2.4.9.3 1.3 0 1.4.3.1.3-.4.1-1.3.4-.4.1-1.1.1-1 .6-.2.1-.3.2-.3.4-.2.4 1.3.9 2 .9.5.5 1.4.5 2 .6.1.5.6 1.3.1 1.7l-2-.2c-.4-.5-.7-.8-1-.9-1-.5-2.1-.7-3.3-.6-.5.1-1.1-.3-1.6-.5-1.9-.9-2.6-1.2 1.8-1.4.2 0 .2-.3 0-.3-5.5-1.9-7 .5-9.1-3.1 0-.1 0-.1-.1-.2-.6-.5-.1-.3-1.8-1.5-.2-.1-.5-.1-.7-.4 0 0-.8-.3-1-.5-1.4-1-7.1-8.8-4.3-8.1.6.2 1 .4 1 0-.3-2.6-1.5-3.5-3.2-9-.9-2.7 1-4.3.8-3.9-.1.2-.1.6 0 .8zm3.9 15.5c-.9-2-2.9-3.2-2.3-1.7.9 2 3 3.2 2.3 1.7zm1.2 3.6c.4.3.3.7.5.6h.4c.1 0 .2-.1.2-.2-.4-1.1-1.4-3.2-2.4-2.5-.2.1.2 1.3 1.3 2.1zm-6-5.8c.5-.4.3-1.7.2-2.5 0-.5-.5-.3-.4.2v.4c-.2.4-.2.8-.1 1.2l.3.7zm42 11.8c-.1.1 0-.1-1.3.6.1-.1.4-.6.1-.6-1.1 0-1.8.6-2.2.4 0 0 .1-.1.2-.1s.1-.2.2-.2c.1-.1.4-.3.7-.6.1-.1.2 0 .3-.1.3-.3.6-.5.9-.6.1 0 .2-.3.3-.2.2.1-.1.3-.1.4 0 .1.1.2.3.2.3 0 8.6-5.2.6.8zm-15.5-.8c0 .4-.4.1-1.4.4-.2.1-.6.5-.2.7 1.3.7 2.1-.3 1.9.5.2-.2.3-.6.7-.5.2 0 .8-.4 1-.5.2-.1-.1-.3-.2-.3-.7-.1-1.3-.2-1.8-.3z"/>
	<path fill="#fe942e" d="M64.7 30.8c-3.4-5.3-3.4-4.5-3.3-4.4.5.6 1.4 3.2 1 4.4.5 1.1.9.8.8 1.3 1.6 3.2 4.3 5.1 6.5 8.8.2.4.3.4.2-.1-1-4.1-.6-3.4-5.2-10zM60 52.1c-1.9-3.6-2-4.2-2.5-4-.4.5-.8.8-1.2 1-.4.2-.9-.2-1.2.3-1.1 2.2-1.3 2-1.7 2.7 1.2-.4 1.5-1 2.7-.4 1.4.7 2.6.2 3.4.7.4.2.6.1.5-.3zm-23.5 7.5c-.2.1-.1.4-.3.5-.2.2-1.1.5-.9.9.7 1.1.4-.4 8 4 .6.4 1.8 1.1 2.2 1.6.3.6-1.3 1.1-3.2.5v-.3c-.1-.2-.7-.2-.9-.4-.3-.3-.4-.6-.8-.7-.3-.1-.8-.1-1.2-.3-.3-.1-.3-.5-.6-.6-.5-.2-2.6-1.9-2.7-2-.1-.1-.1-.2-.2-.3-.2-.2-.5-.3-.7-.6-1.3-1.4-2.5-1.4-2.2-2 1.3 0 2.4-.1 3.5-.3zm7.4 6.8c-.5.1-.3.6.4.5.3-.1.2-.6-.4-.5zm-3.7 1.8c-.2-.1 0-.1-1 0-.3 0-.1.4 0 .5.2.1.5.1.6.1.3.1.6.1 1-.1.4-.3-.2-.4-.6-.5z"/>
	<path fill="#f47034" d="M39.8 1.5c-.1.1.1.2.1.3-.3.5-1.3.3-2 .2-.8-.2-1.1.7-1.5.8-.4.1-.6.5-1.1.6-2 .1-3.7 1.5-3.9 1.6-.8.3-2.7 1.1-3.9 1.3-.2 0-.5-.1-.3-.3.4-.4.9-.7 1.4-1 3.5-1.9 6.6-5.2 11.2-3.5zm-5.5 4c5.4.1 7.6 1.8 13 6.6.5.5 2.7 1.9 2.5 1.2-.1-.2-.2-.4-.4-.6-.1-.1-.1-.2-.1-.2-1.3-1.2-3.7-3-3.8-3-1.7-1.2.7-1.1 2.4.8 1.7 1.8 2.9 1.4 3.4 1.6 1.6.6 1.4 2.1.8 1.7-1.4-1-1.8-1.4-1.8-1.1.1.7.5.8 1.8 2.7.3.5.2 1.3 0 1.3-.4.1-.9-.1-1.3-.2-.3-.1-.6.2-.3.4.1.1.1.2.1.3.2.4.5.8.8 1.2 1.5 2.7 1.6 2.3 1.7 2.5.1.3.3.9.4.3 0-.2 0-.5.1-.6.1-.1.5-.5.6-.1.3 1.4 1.3 1.5 1.2 1.2 0-.2 0-.4-.1-.4-.3-.1-.3-.3-.3-.5 0-.4-.4-1.7-.6-2.7-.1-.3.7.3 1 .6-.2 0-.2 0-.2.2 0 .8.1 1.7.6 2.4.2.3.3.7.5.9 1.5 1.9 1.2 1.7 2 2.7.7 1.1.8.8 1.1 1.2.1.1 0 .2.1.3.3.4 1.2 1.6 1.6 1.9.8.7 1.2 1.9 1.5 1.2.1.4.1.9-.1 1.3-.3.4-.7-.2-.9-.5-.1-.2-.3-.3-.4-.5-.1-.2-.3 0-.2.1.1.4 0 3.5 0 3.7v-1.5c0-.1-.1-.1-.1-.2-.3-1.9-1.6-4.1-1.6-3.5 0 .4 0 .9-.1.8-.5-.5-.2-.9-.5-1.3-.2-.3-.3.8-1.1-.5l-.3-.6s0-.1-.1-.1c-.2-.2-.3-.4-.3-.6-.2-.5-.6-1-.8-1.4-.3-.7-.8-1.4-1.4-2-.7-.6-1.5.5-1.7.2-.9-1.8-.5-2.1-1.2-3.1-.1-.2-.4-.2-.4-.5 0-.1-.1 0-.1 0 0 .2-.3-.6-1-1.3-.7-.7-1.2-1.2-1-2.3.3-2.2-4-4.1-5.6-5.9-1.8-2.2-6.8-3.4-7-3.6-.4-.3-2.7-.1-3.3.2-1 .5 2.3 1.6 5.3 3.5-.3.2-.6.4-1 .4 0-.3-.4-1-.7-1.1-1.9-.8-1.6-1.1-3.5-1.8-.5-.2-1-.6-1.3-1.1-.2-.1.3-.1.9-.2.1 0 .1-.2.3-.2.3 0 .5-.2.9-.2zM56 22.9c-.2-.2-.3-.3-.4-.5 0-.1-.1.1-.1.1 3.7 7 2.8 2.7.5.4zM34.4 9.1c-1.8-.9-2.6-.9-3.5-1.1-1.9-.5-3.4-.9-5.3-.2-.5.4-2.7 0-4.7.8-.7.3-1.5.3-2.1.7l-2.1 1.4c.1 0 .4.1.2.3-.2.1-.3.3-.4.4-.3.3-.7.6-.9.9-.5.6-1 1-1.3 1.3-.1.1-.4 0-.2-.2.4-.4.6-.8 1-1.1.3-.3.5-.6.7-.9-1.8 1.3-4.1 4.2-4.7 5-.8 1.1 3.6-2.2 5.8-4.7 1.4-1.6 3.4-1.7 1.4.4-.1.1-2.8 3.1-2.8 3.2-.1.4-3.9 3.4-4.5 8.2l.3-.6c.1-.6.5-.9.7-1.5.7-2.3 3-4.8 4.6-6.6 3.8-4.3 4.2-4.7 5.3-5.2 1.1-.5 5.4-1.5 10.3-1.1 1.5.2 1 .3 2.2.6zm6.1.4c.1 0 .4.3.2.4-.2.2-.5 0-.8 0-.2 0-.3-.3-.1-.3l.7-.1zm15.3 6.3c-.2-.5-.5-1-.9-1.4-.4-.1-.6-.1-.6.3 0 1.3 1.4 1.7 1.5 1.5v-.4zm-48.2-.7c1.2-.2.5 2.3-.4 3.1-.9.8-1.7 0-1.2-1.7.4-.4.4-.7 1.6-1.4zm2.6 10c-.3.5-.4.7-.9.9-1.2.6.8-1.5-.5-2.4-.1-.1-.3-.1-.5 0-1.1.6-.9.8-1 .9-1.1 1.2-1.4 2-1.7 3.3 0 .4.3.6.8.7.4 0 .6 3.9.6 4.1 0 .2-.3 0 .1 1.5 0 .2-.2 2 .4 3.8 0 .1 0 .2-.1.2-1 .2-.5 2.4-.1 3.3-.1-.2-.1-.5.1-.7.1-.2.3 0 .3.2.1.6.1 1.1.1 1.7.6-1 1.1.4 1.4 1-.2-.5-.4-1.6.6-1.4.6.2 1 .4 1 0-.4-3.5-4.8-9.2-3-12.3.2-.3.3-.5.2-.8-.1-.1-.3-.1-.3-.1.3-.6 1.1-1.3 1.2-1.4.6-.8 1.2-2 1.3-2.5zM6.5 34c.1.2.1.7-.2.4-2.6-2.8-1.8.2-2.4 1.1-1.4 2.1-.3 4.9-1.9-.2 0-1.3 0-2.5.1-3.8.4-.7.5-1.5.9-2.2.4-.5 1.6 2.2 3.5 4.7zm-3-2.7c-.1 0-.1.1-.1.1 1 1.9 2.1.9.1-.1zm57.4 2.5c-.1.1-.1.3-.1.6.1 1.7-2.5 5.4-3.3 9.9-1.2 5.3-12.2 10.7-11.4 11.2 0 0 .1-.1.2-.1s.1-.2.2-.2c.1-.1.4-.3.7-.6.1-.1.2 0 .3-.1.3-.3.6-.5.9-.6.1 0 .1-.1.2-.1.1-.2.4 0 .2.2-.1.1-.4.9 1.9-.7 1.9-1.3 2.4-1.3 2.2-1.1-.3.2-.5.7-1.7 1.6-.2.1-.4.3-.5.4.4-.1 2.5-1.5 3.6-3.2 1.1-1.7.8-2 1.6-1.9.7.1 1.3-.5 1.7-1 0-3.6.2-2.9 1.3-6.9.1-.4.5-.9.6-1.3.1-.3.3-.6.3-1 0-.2.3-.4.3-.7 0-.5.2-.1.3-1.2.1-1.5.4-1 .5-3.2zM25.6 57.9c.6 0 .8.3 1 .3 1.1-.1 2.3.1 3.3.6.2.1.6.4 1 .9-.2.1-.4.1-.7.1-4.4-1.7-3.2-1.6-4.6-1.9zm7.1.3c.1.8.6 1.3.1 1.7 1.7.1 6.1-.3 8.9-1.3l-2 .4c-.2 0-.3-.3-.5-.3-1.1 0-2.2 0-3.3.1-1.1 0-2.1-.4-3.2-.6z"/>
	<path fill="#ae3a01" d="M31.5 45.1c-1-.6-3.1-2.4-8.5-2.9-3.3-.3-2.8 1.2-4.1.5-1.1-.6-2-1.6-2.7-2.7-.9-1.5.1-2.2-3.4-4.2-.8-.5-2.1-2-2.7-.2-.2.5.1 1.1.2 1.5.3 2.5 1.7 2.5 3.2 5.6 1 2 3.7.6 4.6 3.5.1.5.5 1.4.7 1 .6-1.1 1.5-1 2.6-.9 5.3.8 8.2 3.9 12.2 7.9 1 1 4.7-2.5 6.9-2.1.2 0 .3.3.1.4-.3.2-.6.5-1 .6 1.7-.4 3.4-.5 5.1-.5.7 0 1.5.2 1.6 1.1.1 1.7-2 1.1-1.7 2.9.1-1 1.1-1.5 2.6-2.5 3-1.9-.4-1.6 1.7-3.2.4-.3 1.2-1.2.7-1.4-1.3-.4-9.6-.4-12.8-.6-2.9-.2-2.6-2.2-5.3-3.8zm20.6-1.7.9-.8c.6-1.1.7-1.4.2-1.7-.2-.1-1.8 1.3-1.8 1.6.1.6.4.9.7.9zm-9.9 2.2c1.6 0 1.6-1.2 0-1.2-1.6.1-1.6 1.3 0 1.2zm-16.7 9.3c.3-.2.1-.4-.1-.6-3-2.7-2.8-4-4.5-3.6-1 .2-.1 1.9-.8 1.9-1.8 0-1.7.3-1.8.1-.1-.2-.3-.3-.4-.4 2.1 2.2 4.3 2.4 7.6 2.6z"/>
	<path fill="#f35702" d="M51.3 19.1c0 .2 0 .3-.1.3-.8-.2-1.1 2-1.1 2.5 0 1.2.4 3.3-.6 4.1-.5.4-1 .7-1.5 1-2.4 1.2-.2 2.9-2.7 3-2.3.1-2.8 2.9-3.6 4.5-.7 1.4-1.9 1.6-3 2.4-3.1 2.1-5.3 6.2-6.6 6.2-5.9-2.5-5.9-6-2.5-4.5.7.4 4.2.8 3.6-.5-.8-1.8-2.3-.7-3.6-1.8-.7-1.8 1-2.9 1.4-3.6.4-.6-1.5.1-2.3.5-1.7.8-2.8 1.8-4.2 2.8h-.2c-3.1-2.1-3.3-2.9-4.2-1.6-1.6 2.1-5 1.7-4.5-2.3.5-3.8-1.1-4.4-1.5-6.4.4-2.4 3.5-7.2 1.9-7.7-.7-.2-.8.7-1 1.2-1.2 2.3-2.7 2.2-4.3 5.8-.8 1.8-1.4 2.4.1 2.3 2.1.1 4 2.4 3.7 4.5-.4 2.8-4.7-.8-5-3.3 0-.4-.8-.3-1.3 1 0-.3.2-.4 0-.4-.2.1-.4.5-.5.6.3-.1.3-.7.1-.7-.1.1 0-.1.1-.3 4.9-5.6.9-6.3 11.2-16.8.8-.5.8-.5 0 0 1.6-2.1 3.2-3 5.8-3 3.3-.9 8.6-.8 11.7 1.3.1.1.7.6 1.2 0 .5-.1.8-.4 1.2-.3 0 .2 0 .2 0 0 .8.1 2.3 1 3 1.5.1.1.9.3.6 0l-1.9-1.7c0-.1-.1-.2-.2-.2-1 0-1.8-.4-2.7-.4-2.1-1.1-5.2-2.4-4.3-2.9 2.7-1.5 9.1 1.9 10.3 3.3 1.6 1.9 5.9 3.7 5.6 5.9-.3 1.6.9 2 1.9 3.7zm3.3 7.5c.8.1 2 .2 2.4.7.5.1 0-.9-.4-1.3-.1-.1 0-.2-.1-.3-.3-.6-2-2.9-2.4-2.4-1.2 1.5-1.1 1.4-1.4 1.3.3 1.2.8 1.9 1.9 2zm2 19c-1.1.8-3.1.4-3.8-.8-.1-.2-.6 0-.6-.2-.1-.2-.1-.3-.2-.2-2.9 2.8-1.9 2.2.9 5.6.2-.1.4-.3.6-.5-.2-.4-.3-.8-.4-1-.3-1.3 1.7-1.7 2.5-1.8.1 0 .1.1 0 .6l1-1.6v-.2c.2.2.1.2 0 .1zm-22.7 8.7c0 .5-2 0-1.7 1 0 0 0 .1.1.1 1.2.7 2.1-.3 1.9.5-.1.4-.3.6-.2 1 .4 1.8 1.8 1.8 3.7 1.8-2.1 0-2 .2-3.9-.3-2.2-.6-2.5-.3-3.1-.9.6 0 2-.5 1-1.1-.9-.5-1.8-.6-2.7-.1-.1-.5.7-.5 1-.6.4-.2.8-.2 1.2-.3.3 0 0-.4-.2-.4-.4 0-.7 0-1-.2l.7-.4c.7-.4-.9-1.2-1.4-2.4-.1-.2-.1-.4 1.9.9 1.7 1.4 1.7 1 2.7 1.4z"/>
	<path fill="#e93e00" d="M14.3 24.9c-.3-1.1.9-4.5-.5-4.1.5-.6 1.1-1.1 1.3-1.9.2-.5.3-1 .9-.8 1.4.4-.7 4.4-1.7 6.8zm-.1.9c.3 1.4.8 1.7 1.2 2.8 1 2.6-.7 5.5 1.1 6.7-2-.2-1.6-.7-3.1-.5-.6.1-1.5-1.4-2.6-2.9-.1-.2-.1-.4-.1-.8.6.7 1.3 1.3 2.1 1.7.7.4 1.6-.2 1.7-.9.3-2.1-1.7-4.3-3.7-4.5.1-.1.3-.3.5-.3.4 0 2.2 0 2.3-.5.1-.2.3-.6.6-.8zm15.2 10.5c-.7-1.8 1-2.9 1.4-3.6.4-.6-1.5.1-2.3.5.3.9-.8 1.6-.2 2.4.2.3.7.8 1.1.7zm-6.5-1.2c-.9.4-1.9-.7-3.2 1-.9 1.1-1.2.8-2.2-.4 3.9-.2 1.8-3.7 5.4-.6zm16.2 2.8c.5-.6.9-1.2 1.1-1.8-4.8 2.3-6.6 7-8.3 7 .5 1.1 2.4-.2 3.6-1 4.7-3.2 2.4-2.8 3.6-4.2zm-26.4 6.4c1 .6 2.2.5 3.1 1.1.4.3 1.6 1.3.9 1.9-.8.8-1.3 1.5-.7 2.6-1.7-2.2-.3-.7-3.3-5.6zm16 5.3c-.4.2-.6.3-.7.4-.2.4-.7 1.6-1.3 1.1-2.2-1.8-2.1-2-2.2-1.7 0 .1 0 2.2.4 2.4.3.1.6.4 1 .4.8.2 1.6.3 2.5.6 1.1.3 1.2 1 1.6.5-.4-.4-.7-.8-.9-1.2-.2-.6 1.4.5 1.9.9.7.5 1.4 1 2.4 1.2l-.3-.3c-1.4-1.2-2.2-2.4-4.4-4.3z"/>
	<path fill="#fd6801" d="M36.6 10.2c-2.4-1.6-5.3-2-8.4-1.8.1 0 .3.1.3.2-.4 2.3-4.4 1-5.3 2.3-.3.5-.3 1.4-.1 2 .3.8 2.2-.5 1.4 1.7-.3.8-1.8 4.6-3.2 3.4-.9-.8 1-1.5 1.4-2 .7-.9-.1-2.1-1.1-2.1-.7 0-3.1.5-3.3 1.4-.2.7 1.4 1.6.2 4.1-1.1 2.2-2.3 5.2-.9 6.8.6.7 0 1.4-.1 2.1 0 .7.4 2.2 1.1 2.7.2.1.4.2.8.3 3 .4 4.2 1.9 5.7 1.7 1.7-.3 5.7-2 7.2-2.7 1-.5 4.1-.7 3 1.2-1.2 2.1-2.8 2.3-1.9 4.3.6 1.3 1.1 2.5 2.7 1.2 1.1-.9 2.1-1.8 3-2.9.9-1-.5-.8-1.3-1.6-1-.9-.9-2.6.7-2.5 1.8.1 5.7-.3 5.7-1.9 0-4.9-1.4-4.9 1.6-8.2 2.6-2.9 2.6-4.4-1.7-5.6-4.6-1.3-4.9-1-4.8-4.2-.4-.1-.7.2-1.2.3-.7.2-1 .1-1.5-.2zM19.7 20.8c-.7-1 .6-2.4 1.4-1.2 1.4 2.4.8 4.6-1.4 1.2zm.2 5.6c-.7.9-.9-.8-.1-1.8s.9.7.1 1.8zm.9-15.5c1.4-.7 2.7-1.4 4.2-2-2.7.1-4.2 1-5.8 3 .5-.3 1-.7 1.6-1zm-4-.2c.1 0 .1.1.2 0 .1 0 .1.2 0 .2-.2.2-2.2 2.3-2.7 2.6-.1.1-.3 0-.2-.2.2-.2.4-.4.6-.7.5-.6.5-.2 1.1-1.3 0 .1 1-.6 1-.6zm45.7 18.8c-.1-.3-.2-.6-.4-.9-.9-1.2-.6-1.9-1.6-3-.5-.5-1.1-2.2-1.8-1.9-.3.2-.4.8-.5 1.1.7 1.1.8.8 1.1 1.2.1.1 0 .2.1.3 1 1.5.8 1 2.6 3.2.2.2.4.2.5 0zM4.6 32.4c0 .1-.1.1 0 0-.7 0-1.4-1.3-1-1.1.6.4 1.1.6 1 1.1zm49.6 16.9c.5-.6 1.1-1.3 1.6-1.9.1-.5.2-.6 0-.6-.8.1-2.8.5-2.5 1.8 0 .2.2.6.4 1 .2-.1.4-.2.5-.3z"/>
	<path fill="#943101" d="M20.9 44.4c.1.6-1.1.5-1.4.5-2.4-.5-5.2-1.4-4.7-3.8.1-.4.9.2 1.8.9 3.5 2.6 4.1 1.3 4.3 2.4zm17.3 8.1-3 1.5c-1-.4-1.9-.9-2.8-1.6-1.1-.9-2.2-2.1-3.1-3.2-.2-.2-.3-.5-.4-.7-.2-.4.3-.7.5-1 .4-.5.1-1.2-.5-1.2-.2 0-.3.2-.2.4l.2.6c.1.4-.5.2-.6.1-.8-.4-1.4-1-2-1.5-.4-.3-.7-.6-1.1-.9 0 0-.2-.1-.1 0 .2.3.4.7.7 1 0 .1.1.3-.1.2-.7-.2-1.3-.5-1.9-.8-.1 0-.1-.1-.2-.2-.2-.5-.3-1.1-.1-1.6 0-.1.1-.2.2-.2 2.3-.2 4.8 1.3 6.5 2.7 1.8 1.5 3.5 3 5.4 4.4.6.5 1.1.8 1.9.8h1.6c.2 0 .2.2.1.4-.3.2-.6.5-1 .8zm10.1-3.1h-.7c-.1.1-.1.2-.2.2-.9.2-2.1 1-2 2.1 0 .1.1.2.1 0 .2-.3.3-.6.6-.8.3-.2.6-.3.9-.3.4 0 1.3-.1 1.4-.6.1-.2 0-.4-.1-.6zm-5.6 1.3h.7c.2 0 .4.2.3.4-.1.3-.2.5-.4.7-.1.1-.3.1-.4 0-.2-.2-.4-.5-.4-.8-.1-.1.1-.3.2-.3zM41.1 58c.8.1 3.6.1 3.3-1.4-.1-.9.5-1.3 1.2-1.7.4-.3.6-.7.6-1.2-.1-.9-.9-1.1-1.6-1.1-1.7 0-3.4.1-5.1.5-1.2.6-2.1 1.1-2.8 1.4-.1.1-.1.2-.1.3-.9.9.5 1.7 1.2 2.2.7.4 1.4.6 2.2.9.2 0 .4.1.8.1.2-.1.2 0 .3 0z"/>
</svg>