<svg xmlns="http://www.w3.org/2000/svg" viewBox="0 0 100 100">
	<path fill="#343741" d="M6 50.001c0 4.325.606 8.497 1.638 12.5H68.5c6.904 0 12.5-5.596 12.5-12.5 0-6.906-5.596-12.5-12.5-12.5H7.638C6.606 41.501 6 45.676 6 50.001Z"/>
	<path fill="#FEC514" d="M90.139 23.941A47.748 47.748 0 0 0 95 18.751C85.837 7.327 71.782 0 56.001 0 36.247 0 19.247 11.49 11.137 28.126h68.336c3.956 0 7.76-1.504 10.666-4.185Z"/>
	<path fill="#00BFB3" d="M79.473 71.876H11.137c8.112 16.632 25.11 28.126 44.863 28.126 15.782 0 29.835-7.332 39.001-18.75a47.487 47.487 0 0 0-4.863-5.195 15.718 15.718 0 0 0-10.665-4.181Z"/>
</svg>