<svg xmlns="http://www.w3.org/2000/svg" viewBox="0 0 100 100">
	<path fill="#47848F" d="M36.546 21.494c-13.068-2.38-23.4.11-27.518 7.243-3.073 5.323-2.194 12.38 2.13 19.922a1.34 1.34 0 0 0 2.325-1.333C9.588 40.531 8.83 34.441 11.35 30.077c3.42-5.925 12.637-8.147 24.717-5.947a1.34 1.34 0 0 0 .48-2.636ZM55.873 9.355a6.414 6.414 0 1 1 .707-2.665c10.616 5.491 17.993 24.215 17.993 45.847 0 8.897-1.243 17.434-3.56 24.835a1.34 1.34 0 1 1-2.557-.8c2.233-7.136 3.437-15.404 3.437-24.035 0-20.369-6.77-37.896-16.02-43.182ZM9.934 69.664a6.414 6.414 0 1 1-2.637.789C6.332 58.464 18.93 42.396 37.97 31.403c7.909-4.566 16.144-7.807 23.88-9.464a1.34 1.34 0 1 1 .562 2.62c-7.456 1.598-15.43 4.736-23.102 9.165C21.381 44.078 9.524 59 9.935 69.664ZM84.26 79.23a6.414 6.414 0 1 1 1.836 2.04c-10.231 6.02-29.774 2.95-48.165-7.669-7.83-4.52-14.694-9.966-19.978-15.773a1.34 1.34 0 0 1 1.982-1.804c5.093 5.597 11.74 10.871 19.336 15.256 17.356 10.02 35.634 13.003 44.99 7.95Zm-.42-23.032a1.34 1.34 0 1 1-2.045-1.732c7.908-9.342 10.573-18.409 7.16-24.32-2.479-4.293-7.986-6.675-15.627-6.774a1.34 1.34 0 1 1 .035-2.68c8.496.11 14.888 2.876 17.912 8.113 4.11 7.118 1.122 17.285-7.435 27.393ZM30.15 79.816a1.34 1.34 0 1 1 2.523-.904c4.135 11.548 10.663 18.408 17.5 18.408 4.917 0 9.697-3.522 13.589-9.996a1.34 1.34 0 1 1 2.297 1.38C61.728 95.909 56.174 100 50.172 100c-8.23 0-15.55-7.692-20.023-20.184Zm63.42-3.756a3.734 3.734 0 1 0-7.467 0 3.734 3.734 0 0 0 7.467 0Zm-83.157 3.733a3.734 3.734 0 1 0 0-7.467 3.734 3.734 0 0 0 0 7.467Zm39.758-69.646a3.734 3.734 0 1 0 0-7.467 3.734 3.734 0 0 0 0 7.467Zm.98 46.925A4.64 4.64 0 1 1 49.191 48a4.64 4.64 0 0 1 1.96 9.072Z"/>
</svg>