<svg xmlns="http://www.w3.org/2000/svg" viewBox="0 0 100 100">
	<path fill="#409EFF" d="M93.596 71.625c-.025 4.15-2.18 5.076-2.18 5.076s-37.2 21.495-39.619 22.842c-2.396 1.028-3.998 0-3.998 0S8.875 76.968 7.454 75.976C6.034 74.984 6 73.438 6 73.438s.04-44.701 0-46.771c-.039-2.07 2.545-3.626 2.545-3.626L47.435.56c2.395-1.263 4.726 0 4.726 0s34.356 19.97 38.164 22.117c3.732 1.774 3.271 5.439 3.271 5.439s.023 39.651 0 43.508ZM78.068 26.761c-7.963-4.584-26.722-15.453-26.722-15.453s-1.83-.989-3.71 0L17.102 28.9s-2.028 1.218-1.998 2.838c.031 1.62 0 36.604 0 36.604s.026 1.21 1.142 1.986c1.116.776 31.676 18.444 31.676 18.444s1.257.805 3.139 0c1.899-1.054 31.105-17.877 31.105-17.877s1.693-.724 1.712-3.972c.005-.937.008-4.572.008-9.14L49.5 78.619v-7.971c0-3.274 2.535-5.435 2.535-5.435l30.414-18.327c1.148-1.199 1.385-3.119 1.434-3.845l-.004-8.08L49.5 55.793v-8.334c0-3.274 2.172-4.71 2.172-4.71L78.07 26.761Z"/>
</svg>