<svg xmlns="http://www.w3.org/2000/svg" viewBox="0 0 100 100">
	<path fill="#292929" d="M100 0H0v100h100V0z"/>
	<path fill="#fff" d="M62.8 65.1h-2.1c-1.2 0-1.6-.8-1.8-2-.1-.7-.2-1.6-.2-2.8V45.1H62c1.2 0 1.5-1.2 1.5-2.2v-1.6c0-1-.3-2.3-1.5-2.3h-3.4V27.3c0-1-.3-2.4-1.5-2.4h-3c-1.2 0-1.5 1.4-1.6 2.3L52 39h-1.4c-1.2 0-1.5 1.3-1.5 2.3v1.6c0 1 .3 2.2 1.5 2.2H52v15.2c0 1.7.1 3.2.4 4.5.4 2 1.2 3.9 2.9 5 1.3.8 2.8 1 4.3 1h3.1c1.1 0 1.7-1 1.7-2V67c0-1-.6-1.9-1.6-1.9zM82.3 39h-2.5c-1.2 0-1.7 1.2-1.8 2.2L75.5 58l-3.2-16.9c-.2-1-.7-2.1-1.9-2.1h-3.6c-1.2 0-1.4 1.8-1.2 2.7l5.9 24.5c.2 1 .6 2.1.6 3.2 0 1.3-.2 2.3-.4 2.9-.1.3-.3.5-.4.6-.1.1-.3.1-.4 0-.7-.2-1.4-.6-2.1-.6-.8 0-1.1.6-1.3 1.1-.3.9-.3 2-.1 2.9 0 .2.1.6.3.8.8 1.2 2.2 1.6 3.9 1.6 1.1 0 2.3-.2 3.2-.8.8-.6 1.4-1.6 2-2.8.5-1.3 1-3.1 1.4-5.4l5.4-27.9c.1-1 .1-2.8-1.3-2.8zM43.3 26.1l-7.9 2c-.4.1-.8.4-1 .8-.2.4-.3.8-.3 1.3v2.9c0 .7.1 1.5.7 1.9.5.3.8.2 1.2.1.5-.1 1-.2 1.5-.4V68c0 1 .1 2.8 1.5 2.8h4.6c1.4 0 1.6-1.8 1.6-2.8V28.3c0-1.2-.5-2.5-1.9-2.2zM28.2 26.2l-7.9 2c-1 .2-1.3 1.2-1.3 2.1v2.9c0 .5.1 1 .2 1.4.1.2.3.4.5.6.2.1.5.2.8.2.6 0 1.3-.3 1.9-.5V68c0 1 .1 2.8 1.5 2.8h4.6c1.4 0 1.6-1.8 1.6-2.8V28.3c0-1.1-.5-2.5-1.9-2.1z"/>
</svg>