<svg xmlns="http://www.w3.org/2000/svg" viewBox="0 0 100 100">
	<linearGradient id="a" x1="52.5674" x2="49.0984" y1="986.2175" y2="1078.5205" gradientTransform="translate(0 -978.567)" gradientUnits="userSpaceOnUse">
		<stop offset="0" stop-color="#d9d8dc"/>
		<stop offset="1" stop-color="#fff" stop-opacity=".385"/>
	</linearGradient>
	<path fill="url(#a)" d="M53.2.3c-7.3 2.6-14.3 10.1-21 22.5C22 41.5 8.9 68 27 89.1c8.3 9.7 22.1 15.5 40.2 6.4 14.5-7.3 18.6-28.3 13.4-38.1C69.8 37 58.8 32 55.9 19.4 54 11 53.1 4.6 53.2.3z"/>
	<linearGradient id="b" x1="66.7657" x2="30.5087" y1="992.2767" y2="1071.7336" gradientTransform="translate(0 -978.567)" gradientUnits="userSpaceOnUse">
		<stop offset="0" stop-color="#8d67af" stop-opacity=".672"/>
		<stop offset="1" stop-color="#9f8daf"/>
	</linearGradient>
	<path fill="url(#b)" d="M53.2 0c-7.3 2.6-14.3 10.1-21 22.5C22.1 41.2 8.9 67.8 27 88.8c8.3 9.7 21.9 12.9 29.5 7.1 4.9-3.8 8.3-7.3 10.2-14.9 2.1-8.4.5-19.7-.6-24.9-1.4-6.6-1.9-13.8-1.4-21.7-3.9-4.9-7.3-9.1-8.7-15.3-2-8.4-2.9-14.7-2.8-19.1z"/>
	<linearGradient id="c" x1="55.0642" x2="55.0642" y1="1011.9109" y2="1075.8088" gradientTransform="translate(0 -978.567)" gradientUnits="userSpaceOnUse">
		<stop offset="0" stop-color="#26053d" stop-opacity=".762"/>
		<stop offset="1" stop-color="#b7b4b4" stop-opacity=".278"/>
	</linearGradient>
	<path fill="url(#c)" d="M47.2 3.3C29.8 17.1 25.1 58.5 28.2 77c3.4 19.7 21 27.2 39.1 18C78.4 89.3 83 77.2 82.8 64c-.2-13.6-26.6-29-31.3-40.4C48.4 16 47 9.2 47.2 3.3z"/>
	<linearGradient id="d" x1="38.0604" x2="54.3175" y1="1011.1622" y2="1054.2271" gradientTransform="translate(0 -978.567)" gradientUnits="userSpaceOnUse">
		<stop offset="0" stop-color="#91739f" stop-opacity=".46"/>
		<stop offset="1" stop-color="#32054f" stop-opacity=".54"/>
	</linearGradient>
	<path fill="url(#d)" d="M64.4 38.9c8.2 10.5 9.9 17.7 5.3 21.8-6.9 6.2-23.8 10.2-34.3 2.7-7-5-9.6-15.6-7.9-31.9-2.9 5.9-5.3 12.1-7.3 18.3s-2.6 12.7-1.8 19.4c2.5 5.1 8.6 8.4 18.3 10.1 28 5 46.8-5.8 46.1-12.6.2-4.5-1.2-8.8-4.2-12.9-3-4-7.7-9-14.2-14.9z"/>
	<linearGradient id="e" x1="74.0693" x2="29.3373" y1="1062.0348" y2="1024.9698" gradientTransform="translate(0 -978.567)" gradientUnits="userSpaceOnUse">
		<stop offset="0" stop-color="#463d49" stop-opacity=".331"/>
		<stop offset="1" stop-color="#340a50" stop-opacity=".821"/>
	</linearGradient>
	<path fill="url(#e)" d="M32.5 28.4c0 7.6 1.9 14.8 5.9 21.6 5.9 10.2 12.9 20.3 23.2 28.7C68.5 84.2 74 86 78.1 84c-3.4 6.1-7 9-10.8 8.9-5.7-.2-12.7-2.7-23.9-16.1-7.5-9-12.6-17.5-15.3-25.5.4-3.2.9-6.3 1.4-9.5.4-3.1 1.5-7.6 3-13.4z"/>
	<linearGradient id="f" x1="68.4738" x2="36.9309" y1="1018.7889" y2="1066.7731" gradientTransform="translate(0 -978.567)" gradientUnits="userSpaceOnUse">
		<stop offset="0" stop-color="#715383" stop-opacity=".145"/>
		<stop offset="1" stop-color="#f4f4f4" stop-opacity=".234"/>
	</linearGradient>
	<path fill="url(#f)" d="M50 61.4C47 68 33 79.7 36.9 90.2c6 16 26.7 3.6 29-14.8 1.1-8.9-5.2-27.2-1.4-41.1L62.6 32 52 28.8c-5.7 8.8 2.8 22.1-2 32.6z"/>
	<linearGradient id="g" x1="62.6666" x2="40.2747" y1="1015.5399" y2="1014.1729" gradientTransform="translate(0 -978.567)" gradientUnits="userSpaceOnUse">
		<stop offset="0" stop-color="#a5a1a8" stop-opacity=".356"/>
		<stop offset="1" stop-color="#370c50" stop-opacity=".582"/>
	</linearGradient>
	<path fill="url(#g)" d="M53.8 8.3c-3.4 1.5-6.7 4.3-9.8 8.7-9.6 13.6-4.9 15.3-2.7 46.8l14.9-43.3c-1.1-4.4-1.5-6.2-2.4-12.2z"/>
	<path fill="#330a4c" fill-opacity=".316" d="M56.2 20.3c-3.8 2.2-6.7 6.7-8.8 13.6-2.1 6.8-4 16.4-5.7 28.7 2.3-7.8 3.8-13.5 4.6-17 1.6-7.9 1.1-16 9.9-25.3z"/>
	<path fill="#fff" d="M38.7 93.7c6.2.9 9.5 1.7 9.8 2.4.9 2.3-6.6 2.5-9.8-2.4z"/>
	<path fill="#ededed" fill-opacity=".603" d="M41.8 8.3c-5.7 6.8-10.3 15-14.3 23.3-1 5.4-.4 12.9.4 18.4C29 32.6 35.2 17.2 41.8 8.3z"/>
</svg>