<svg xmlns="http://www.w3.org/2000/svg" viewBox="0 0 100 100">
	<path fill="#e04e39" d="M0 0h100v100H0V0z"/>
	<path fill="#fff" d="m83.6 55.8-3.2-3.4c-.9-1-2.5-1.1-3.5-.2-4.3 3.5-15.6 11.9-26.4 11.9-8.8.2-7.8-5.5-7.8-5.5 1.2-.4 31.8-11.4 23.2-32.5-3.9-5.6-8.5-7.3-14.9-7.2-6.4.1-14.4 4.1-19.6 15.7-2.5 5.5-3.3 10.8-3.8 14.8 0 0-5.7 1.1-8.7-1.4-3-2.5-4.6 0-4.6 0s-5.2 6.1 0 8.1 13.3 2.4 13.2 2.4c.7 5.4 2.6 10.6 9.2 14.9 11.2 7.2 27.7-.4 27.7-.4 9.9-4.1 16.5-10.6 19.3-13.7.9-1 .9-2.5-.1-3.5zm-42.5-7c.4-15 10.2-21.6 13.7-18.3 3.4 3.3 2.1 10.4-4.3 14.8-6.5 4.4-9.4 3.5-9.4 3.5z"/>
</svg>