<svg xmlns="http://www.w3.org/2000/svg" viewBox="0 0 100 100">
	<path fill="#fff" d="M100 6H0v87.89h100V6Z"/>
	<path fill="#A90533" d="M17.32 68.367C9.975 60.583 5.678 49.83 5.69 37.002c-.01-11.346 3.554-21.098 9.683-28.52l-.01.005H2.48v59.88h14.84Zm67.84.005c3.164-3.39 6-7.38 8.568-11.945L79.471 49.3c-5.007 8.14-12.33 15.633-22.456 15.683C42.28 64.932 36.49 52.33 36.52 36.11h55.07c.073-1.832.073-2.683 0-3.564.36-9.65-2.198-17.761-6.85-24.078l-.025.018h12.4v59.881H85.133l.027.004Z"/>
	<path fill="#A90533" d="M37.412 22.21c.61-7.344 6.4-12.283 13.188-12.298 6.835.015 11.773 4.954 11.94 12.297H37.412Z"/>
	<path fill="#000" d="M10.322 78.527v-2.495H2.66v14.792h7.663V88.33H5.511v-3.92h4.633v-2.496H5.511v-3.386h4.811Zm13.01 6.059c1.91-.284 2.96-2.177 3.03-4.1-.07-3.144-2.109-4.445-4.99-4.455h-3.92v14.793h2.85v-5.882l3.565 5.882h3.564l-4.099-6.238Zm-3.03-6.237h.357c1.556.058 2.723.413 2.673 2.316.05 1.744-1.078 2.218-2.673 2.139h-.357v-4.455Zm16.04-2.317h-2.851v14.792h6.95V88.33h-4.099V76.032Zm18.713 11.762 1.247 3.03h3.03l-5.525-15.149h-2.316l-5.882 15.149h3.03l1.248-3.03h5.168Zm-.713-2.317h-3.564l1.604-5.525 1.96 5.525Zm10.337 5.347h3.03v-9.98L75.55 91.18h2.139V76.032h-3.03v9.98l-7.842-10.337H64.68v15.149Zm25.485-7.842v2.317h3.208c-.067 1.862-1.59 3.44-3.386 3.386-2.836.053-4.241-2.687-4.277-5.168.036-2.448 1.421-5.307 4.277-5.347 1.498.04 2.765 1.065 3.386 2.317l2.495-1.248c-1.097-2.311-3.314-3.593-5.881-3.564-4.42-.028-7.25 3.62-7.307 7.842.058 4.117 2.809 7.784 7.129 7.841 4.665-.057 6.822-3.783 6.772-8.02v-.356h-6.416Z"/>
</svg>