<svg xmlns="http://www.w3.org/2000/svg" viewBox="0 0 100 100">
	<path fill="#8080f2" d="m30.2 38 19-11c.5-.2 1-.2 1.5 0l19 11c.5.2.8.8.8 1.3v21.9c0 .6-.3 1-.8 1.4l-19 11c-.5.2-1 .2-1.5 0l-19-11c-.5-.2-.8-.8-.8-1.4V39.3c0-.5.3-1 .8-1.3z"/>
	<path fill="#4b32c3" d="M99.3 48 76.7 8.5C75.9 7 74.3 6 72.6 6H27.3c-1.6 0-3.1 1-4 2.5L.6 47.9c-.8 1.5-.8 3.2 0 4.7l22.7 39.2c.8 1.5 2.3 2.2 4 2.2h45.4c1.6 0 3.1-.7 4-2.1l22.7-39.2c.8-1.6.8-3.3-.1-4.7zM80.6 67c-.1.6-.4 1.1-1 1.4L50.8 85c-.5.3-1.1.3-1.6 0l-29-16.6c-.5-.3-.9-.8-.9-1.4V33.6c0-.6.3-1.1.9-1.4l29-16.7c.5-.3 1.1-.3 1.6 0l29 16.7c.5.3.9.8.9 1.4V67z"/>
</svg>