<svg xmlns="http://www.w3.org/2000/svg" viewBox="0 0 100 100">
	<path fill="#000" d="M100 77.431a6.362 6.362 0 0 1-7.89-3c-4.528-6.78-9.53-13.252-14.335-19.865l-2.084-2.778c-5.723 7.668-11.446 15.03-16.67 22.67a6.112 6.112 0 0 1-7.5 2.945l21.475-28.81-19.975-26.031a6.64 6.64 0 0 1 7.918 2.778c4.64 6.779 9.779 13.252 14.89 20.114 5.14-6.807 10.225-13.308 14.975-20.03a5.973 5.973 0 0 1 7.446-2.779l-7.751 10.28c-3.473 4.583-6.89 9.195-10.502 13.668-.617.552-.925 2.07-.925 2.07s.308 1.518.925 2.07C86.637 59.538 93.221 68.374 100 77.43ZM.069 48.231c.23-3.434.944-5.806 1.75-8.64 4.806-17.086 24.393-24.198 37.867-13.613 7.89 6.196 9.862 14.975 9.474 24.865H4.708c-.722 17.67 12.03 28.338 28.338 22.892 5.326-1.905 9.429-6.474 10.752-11.974.86-2.778 2.25-3.25 4.89-2.445-1.669 12.979-13.92 21.09-26.622 19.466a26.115 26.115 0 0 1-14.58-6.88C2.154 65.904-.468 56.245.07 48.232Zm4.695-1.194h40.2c-.25-12.808-8.334-21.892-19.113-21.976-12.002-.166-20.587 8.724-21.115 21.92l.028.056Z"/>
</svg>