<svg xmlns="http://www.w3.org/2000/svg" viewBox="0 0 100 100">
	<path fill="#A6C466" d="M42.782 2.059a15.437 15.437 0 0 1 15.405 0l30.047 17.3a15.437 15.437 0 0 1 7.735 13.378v34.526c0 5.522-2.95 10.623-7.735 13.378l-30.047 17.3a15.438 15.438 0 0 1-15.405 0l-30.047-17.3A15.437 15.437 0 0 1 5 67.263V32.737c0-5.522 2.95-10.623 7.735-13.378l30.047-17.3Z"/>
	<path fill="#fff" d="M69.133 75.623a.457.457 0 0 1-.254-.439l.039-.57c.014-.206.113-.26.295-.163 1.827.984 6.086 1.1 7.955.223 2.5-1.169 3.06-4.7.58-6.249-1.671-1.042-7.03-1.932-8.205-4.788-.83-2.024-.267-4.121 1.467-5.47 2.335-1.813 6.167-1.405 8.785-.396a.46.46 0 0 1 .27.584l-.052.152c-.147.417-.424.54-.832.366-2.062-.87-4.488-1.22-6.503-.24-1.821.89-2.45 2.364-1.888 4.422.452 1.668 4.374 2.806 6.006 3.454 2.001.794 3.628 1.809 3.906 4.033.488 3.912-2.889 5.91-6.304 5.938-1.538.01-3.793-.146-5.265-.857ZM21.62 58.683l-.025 6.745a.204.204 0 0 0 .204.204l8.259.006a.203.203 0 0 1 .192.14.206.206 0 0 1 .009.083l-.072.747a.204.204 0 0 1-.2.185l-8.196.006a.204.204 0 0 0-.204.204l-.047 7.718a.204.204 0 0 0 .204.204l8.758.03a.204.204 0 0 1 .204.202l.008.727a.203.203 0 0 1-.204.207l-9.993-.005a.204.204 0 0 1-.204-.204l-.003-18.404a.204.204 0 0 1 .204-.203l10.001-.012a.204.204 0 0 1 .204.204v.805a.204.204 0 0 1-.204.204l-8.691.003a.204.204 0 0 0-.204.204ZM59.857 79.48c3.363.418 4.89-.414 4.857-3.981a1172.79 1172.79 0 0 1-.039-17.976c0-.13.065-.202.193-.213l.77-.069a.192.192 0 0 1 .19.112c.011.024.016.05.016.076-.014 5.895-.015 11.811-.002 17.747.008 2.64-.23 4.816-2.934 5.524-.869.228-1.863.21-2.982-.052-.287-.066-.435-.245-.444-.538l-.011-.278c-.01-.268.12-.386.386-.353ZM49.64 63.24c.045 3.007.03 6.013-.043 9.02-.03 1.254.568 2.8 1.874 3.015.467.078 1.324.046 2.57-.093.18-.02.253.06.22.24l-.097.52a.34.34 0 0 1-.3.296c-2.012.35-4.105.35-5.009-1.552-.231-.488-.356-1.39-.375-2.708-.04-2.853-.034-5.722.02-8.606.002-.086-.04-.132-.124-.138l-1.892-.132a.239.239 0 0 1-.215-.176c-.071-.262.07-.477.342-.546a45.466 45.466 0 0 0 1.696-.463.235.235 0 0 0 .182-.193l.545-2.685c.046-.224.181-.313.406-.265l.082.017a.272.272 0 0 1 .213.267l-.097 2.776a.21.21 0 0 0 .129.203.217.217 0 0 0 .083.018l3.452.033c.285.003.46.144.523.422l.039.162c.064.281-.049.422-.339.422l-3.738-.003c-.1 0-.148.05-.146.149ZM33.327 75.716c1.767-2.563 3.187-4.75 4.662-6.478a.406.406 0 0 0 .022-.496l-4.41-6.246c-.188-.265-.12-.403.203-.414l.29-.01a.96.96 0 0 1 .857.415l3.867 5.304a.223.223 0 0 0 .364-.005l3.689-5.282a.956.956 0 0 1 .851-.433l.367.008c.257.006.312.113.163.323l-4.585 6.39c-.053.072-.053.144 0 .218l4.982 6.866c.077.107.05.161-.08.163l-1.012.016a.406.406 0 0 1-.361-.181l-4.17-5.9a.15.15 0 0 0-.123-.062.151.151 0 0 0-.123.062l-4 5.558a1.175 1.175 0 0 1-.816.496l-.408.058c-.356.051-.433-.072-.229-.37ZM46.523 6.029c-.908.854-1.537 1.84-1.888 2.955-1.188 3.78.623 6.732 3.864 8.485 4.588 2.484 9.56 4.027 13.604 7.338.816.667 1.606 1.567 2.368 2.699 2.829 4.195 3.583 8.77 2.264 13.725-.342 1.293-1.42 3.426-2.349 4.648a21.048 21.048 0 0 1-5.125 4.813c-.57.38-1.797 1.133-2.632 1.067-.145-.011-.161-.063-.047-.155.463-.366.904-.648 1.21-1.15a7.577 7.577 0 0 0 1.128-4.653c-.23-2.982-2.749-4.815-5.255-6.078-2.194-1.105-5.8-2.685-8.683-4.322-1.512-.86-2.67-1.63-3.47-2.31-8.11-6.878-7.242-18.919 1.182-25.077.877-.64 2.02-1.191 3.035-1.79.246-.145.504-.228.772-.25a.028.028 0 0 1 .03.018.035.035 0 0 1-.008.037Z"/>
</svg>