<svg xmlns="http://www.w3.org/2000/svg" viewBox="0 0 100 100">
	<path fill="#2C6DB0" d="M71.818 12.072c-4.902 1.05-12.055 3.937-18.412 7.782 4.716 3.09 10.267 7.772 10.267 7.772 1.312-.573 3.03-1.134 4.809-1.716 2.488-.814 5.097-1.667 6.89-2.646a3.481 3.481 0 0 0 1.79-2.863c.143-2.431-.441-4.653-1.848-6.865a3.338 3.338 0 0 0-3.496-1.463ZM42.732 41.897a938.237 938.237 0 0 1 4.178-3.517s-6.28-5.357-10.791-6.566l-.004.003c-1.365 1.123-3.836 3.154-5.082 4.212-8.236 6.996-16.75 13.541-26.98 17.48C-.306 55.184-.783 56.468.9 60.853l.074.192c.457 1.195.924 2.417 2.052 3.607.884.931 2.24 1.24 3.468.866 12.933-3.932 25.004-14.13 36.238-23.623Zm52.411-7.442c-10.573.486-31.54 13.692-42.338 24.621 0 0 6.355 5.54 9.704 7.122 9.958-8.213 22.226-16.816 34.858-20.354 1.822-.511 2.824-2.151 2.524-4.073-.31-1.99-.648-4.012-1.689-5.701a3.412 3.412 0 0 0-3.059-1.615Zm-70.58 42.143c1.524-.781 3.402-1.623 5.33-2.488 2.572-1.153 5.234-2.346 7.273-3.492 2.885 2.543 9.562 7.608 9.562 7.608-4.842 3.237-12.564 8.056-17.94 9.446-1.3.337-2.68-.17-3.501-1.231-1.572-2.034-2.481-4.194-2.56-6.763a3.367 3.367 0 0 1 1.835-3.08Z"/>
	<path fill="#FEC32D" d="M56.023 40.993c2.542 1.933 5.312 4.039 7.2 5.53 0 0 4.681-4.144 9.612-6.749C58.261 26.4 45.174 15.804 27.88 12.182c-1.044-.218-2.124.315-2.816 1.127-3.802 4.465-3.141 9.52 1.888 11.028 9.285 2.784 17.38 7.67 24.97 13.524 1.121.866 2.568 1.966 4.098 3.13l.002.001h.002Zm20.4 40.966.043-.185.045-.192c.93-3.984-.317-4.402-1.982-4.96-.306-.103-.626-.21-.95-.346-12.976-5.421-25.414-16.22-36.105-25.501l-.239-.208s-2.76 2.915-9.428 7.629c1.345 1.113 3.193 2.721 4.995 4.29h.001l.001.001c1.868 1.625 3.687 3.209 4.85 4.157l1.177.962c9.191 7.508 18.382 15.015 29.659 19.355l.448.175c.867.341 1.733.682 2.624.786 1.203.14 2.382-.418 3.103-1.39 1.016-1.372 1.306-2.623 1.758-4.573ZM91.225 51.62l.227.088c8.415 3.267 11.471 4.454 5.263 13.03-.735 1.014-1.902 1.02-3.12.733-3.907-.923-10.84-4.917-14.677-7.15 7.073-4.893 12.307-6.7 12.307-6.7ZM7.642 47.195c.842.194 1.623.373 2.241.55 0 0 5.117-2.605 10.95-7.977-4.028-1.842-11.468-4.953-15.585-5.41a3.4 3.4 0 0 0-3.36 1.765C.69 38.346.06 40.556.365 43.009a3.25 3.25 0 0 0 1.517 2.365c1.308.797 3.715 1.35 5.76 1.821Z"/>
</svg>