<svg xmlns="http://www.w3.org/2000/svg" viewBox="0 0 100 100">
	<g fill="#f0ad4e">
		<path d="M14.4 2C7.5 9.2 4 16.4 4 23.5c0 1.6.1 3 .3 3.1.7.4-.5.6 2 5.7C10 39.9 19.2 40.1 21 50.2l.4 2.1c9.6-4 15-1.2 19.5-5.5 7.1-7.1-23.2-11.3-27-30.9C12.6 9.3 17.2.8 17.2.1c-.1-.5-1.1.2-2.8 1.9z"/>
		<path d="M92.9 5.7c-2.9 6.2-15.4 9.6-19.6 10.9-18.4 5.5-21.1 6.8-27.1 21.9-3.5 8.9-5.3 11.2-14.9 12.3-7.6.9-10.6 1.8-12.9 3.9-1.5 1.2-1.9 2.6-1.9 5.2 0 3.1-.3 1.5-.9 4.1-.3 1.2-.3 1.9 0 2.7.4 1.2 1.6 2.2 2.6 2.2.7 0 .8-.2.2-1.5-.1-.3.1-.7.6-1.3 1.7-1.7 4.6.4 7.2-2 1.6-1.4-.7 1.2 13.5 7.6 2.7 1.2 4.4 2.7 5.7 4.9.9 1.5 1 1.9 1 4 0 3.5-1.2 5.9-3.7 7-1.8.9-1.5.9-5.7.9-2 4.4-2.2 4.2-1.7 4.9.4.5.5.4 1.9-1 1.5-1.5 2.4-2 2.4-1.1 0 .2-.5.8-1.2 1.3-1.5 1.2-1.7 2-1 4 .6 1.6 1.3 2.1 1.5 1 .1-.3.5-1 1-1.5 1.2-1.1.6-1.3 1.3-2 .7-.5.9.4.5 1.9-.3 1-.2 1.3.2 1.7.8.8-.2 2 .5 2 .4 0 1.4-.9 1.4-1.3 0-.1.3-.6.6-1.1.6-.9.7-1.1.1-4.2-.1-.6-.1-1.1.1-1.1.6 0 2.8 1.4 2.9 1.8.2.8 1.1.3 1.1-.6 0-1.1-.8-2.4-1.8-2.8-1-.4-1.2-1.1-.4-1.3 8-2.5 8.7-10.8 13.7-10.8 2.5 0 10.4 3.5 16.4 7.3 8.5 5.4 17.7 13.2 18 13.2 1 0 1.3-2.6.4-3.3-2.9-2.3-13.7-5.3-24.5-25.1-2.5-4.4-7.3-9.9-8.5-9.9-.9 0 .2-2 1.1-8.5 1.7-11.4 3-17.9 13.1-23.6 9.2-5.3 14.3-9 17.1-19.3.4-1.5.9-5.2.7-5.2-.2.3-.8 1.4-1 1.8z"/>
		<path d="M42.2 74.8c-.3.9-.1 5-3.4 8.1-3.4 3.2-3.4 1.8-6.8 1.5-1.5-.2-2-.1-2.7.3-.8.4-.9.7-.9 1.7 0 1.3 0 1.3 1.1.7 2.1-1 1.9 0 .9.5-1.9.8-1.2 7.3-.2 4.6.1-.4.7-.9 1.2-1.2 1.7-.9 2.9-4.2 2.9-2.3 0 1.9 1 2 1.8.1.5-1 .8-1.3 1.1-1.1 1.7.7 3.6.3 2.4-1-.4-.4-.6-.7-.5-.8.7-.5 2.1-.8 3.5-.8 2.6 0 3-.4 3-3.8.1-6.7-3.2-7.1-3.4-6.5zm38.6 19.4c.7 1.8.7 2.5.1 3.8-.7 1.8-.9 1.8 4 1.6 4.3-.1 6.9-.6 6.9-1.3 0-.9-11.7-10.1-13.7-11.2-1.4-.7-2.2-1.3-2.4-1.5-.5-.6-8.3-4.4-8.4-4.4-.7-.4-1.1-.4-1.1-.1 0 .8 11.6 4.9 14.6 13.1z"/>
	</g>
</svg>