<svg xmlns="http://www.w3.org/2000/svg" viewBox="0 0 100 100">
	<path d="m70.7 18.8-.1-.2c-.1.1-2.3 1.5-5.8 3.1-14.8 6.8-15.3-1.1-32.7 4.5-7.2 2.3-11 7.2-14.8 13.1-4 6.3-1.8 2.3-16.9 14.3l-.1.1.1.6 8.7-2.8c-2.3 2.5-5.2 6.2-7.2 8.9l-.6-.5c.2.8.1.8.2.8 2.9 3.8 6.1 7.1 10.3 5 2.7 1.5 4.7 2 7.1 2.2l-.4-.5c-.2-.2-1.7-2.1-2.9-4l.7-.4 3.8 1.4-.5-3.4 3.6 1.3-.5-3.3c.4-.2.9-.4 1.3-.6l3.7-13.8L42 34.8c-1.7 4.4-3.6 8.6-8.6 11.1-.7.3-.8.3-.9.4l-2.5.9c-1.8 2.1-2.6 2.5-3.3 10.2 8.9-2.3 13.2 8.4 11.1 11.1-.4.5-1.4 1.4-2.7 2.4h-2.8v2.2l-.1.1h-2.8v2.2l-.5.4c-1.9 0-3.9-1.2-5.4-2.1l-.4-.3c0 2.5 1.5 5.3 1.6 5.5l-.1.1.2.1.1.1h.1c2.9 1.9 7.8 4.1 11.1 2.8 2-.8 5.8-3.3 9.2-5.6 13-8.4 10.3-6.5 38.1-13.9l3.6-9.2-19.5 5.1v-7.3l22.6-6 3.6-9.2L67.3 43v-7.3L96.6 28l3.2-8.3-.2-.8-30.4 8c2.1-3.3 2.3-6.7 1.8-8.2l-.3.1zm0 0-.1-.2.3-.2.1.3c-.1 0-.3.1-.3.1zM56.2 43l-1.8 4.7-5.7 1.5 1.8-4.7 5.7-1.5zM54 49.8l-1.8 4.7-5.6 1.5 1.8-4.7 5.6-1.5zm8.2-1.7-1.8 4.7-5.7 1.5 1.8-4.7 5.7-1.5z"/>
	<path fill="#fff" d="M33.7 82.7c-2.9 0-6.4-1.6-8.9-3.1l-.2.1-.1-.3-.5-.3.2-.2c-1.7-3.4-1.5-4.6-1.5-5.9 1.7 1.2 4 2.5 6 2.6.2-.1 0 0 .4-.3V73H32v-2.3h3c2.5-2.1 3.2-2.5 3-4.5-.2-3.5-2.9-7.6-7.1-8.7-1.6-.4-3-.1-4.5.3.6-7.2 1-8 3.4-10.7 2.4-.9 7.9-2.3 11-9.9 0-.1 0 0 .6-1.6l-13.6 9.3-3.7 13.9c-.4.2-.7.3-1.2.6l.5 3.5-3.6-1.3.4 3.4-4.1-1.5-.4.2c1.2 1.9 2.6 3.6 2.9 3.8l.7.9c-2.6-.3-4.6-.6-7.7-2.2C7.7 68 4 64.7 1.4 61c-.1-.2-.1-.2-.2-.3l-.3-1.6.9.9c1.9-2.5 4.4-5.7 6.4-8L.1 54.6l-.2-1c20.7-15.6 12-8 19.8-18.4 3.2-4.3 7-7.6 12.3-9.2 19.1-6.1 19.8 4.4 39-7.9l.3.8c.4 1.9.1 4.8-1.6 7.7l30.1-7.9.3 1.1-3.3 8.4-29.2 7.7v6.8l26.3-6.9-3.8 9.8-22.6 5.9v6.8l19.6-5.2-3.8 9.8c-28.7 7.5-25.3 5.5-39.9 15-6.3 4.1-7.5 4.8-9.7 4.8zM25 79.1c2.9 1.8 7.7 4 10.8 2.8 3.3-1.3 17.4-11.5 21.9-12.8L83 62.4l3.3-8.7L67 58.8V51l22.7-6 3.3-8.7-26 6.9v-7.8l29.4-7.7 3.1-8.1-.1-.5-30.8 8.1c1.6-2.5 2.8-5.4 2.2-8.3h-.2l-.1-.2v.2h-.1c-.9.6-3.1 1.8-5.4 2.9-14.9 6.8-15.4-1-32.7 4.5-5.1 1.6-8.8 4.8-12 9.1-7.5 10.1.7 3.2-19.6 18.3v.1l9.3-3c-2.9 3.1-5.4 6.3-8 9.8l-.1-.1v.1c1.3 1.9 3.3 4 5.4 5 .7.4 2.2.8 3 .4.6-.2 1-.4 1.4-.6 2 1.1 4.1 1.9 6.4 2.2v-.1c-1-1.1-2-2.6-3-4.1l1-.6 3.6 1.3-.4-3.4 3.5 1.3-.4-3c.5-.2.8-.4 1.3-.7l3.6-13.8 15.1-10.3-1.2 3C38.7 42.5 37 44.8 30 47.5c-1.9 2.3-2.6 2.9-3.1 9.7 6-1.5 11.2 3.8 11.6 9.1.1 2.3-.7 2.8-3.3 5h-2.6v2.1c-.1.1 0 0-.3.2h-2.7v2.1c-.1.1-.6.5-.7.5-1.9 0-4.1-1.1-5.7-2.1 0 1.5.9 3.6 1.6 4.9 0 .1 0 0 .1.2l.1-.1zm21.2-22.8 2-5.2 6.2-1.6-2 5.2-6.2 1.6zm2.4-4.8L47 55.6l5.1-1.3 1.6-4.1-5.1 1.3zm5.7 3.1 2-5.2 6.2-1.6-2 5.2-6.2 1.6zm2.4-4.9-1.6 4.1 5.1-1.3 1.6-4.1-5.1 1.3zm-8.4-.2 2-5.2 6.2-1.6-2 5.2-6.2 1.6zm2.4-4.8-1.6 4.1 5.1-1.3 1.6-4.1-5.1 1.3z"/>
</svg>