<svg xmlns="http://www.w3.org/2000/svg" viewBox="0 0 100 100">
	<path fill="#0a7bff" d="M84.5 27.8c-4 0-7.9 1.6-10.8 4.4L56.2 19.5c.1-.5.2-.9.2-1.4 0-3.4-2.8-6.2-6.2-6.2-3.4 0-6.2 2.8-6.2 6.2s2.8 6.2 6.2 6.2c1.2 0 2.3-.3 3.3-.9L75 39c1.7-3.5 5.4-6.2 9.6-6.2 5.8 0 10.4 4.7 10.4 10.4 0 4.6-3 8.5-7.1 9.9l1.4 4.8c6.2-2 10.7-7.8 10.7-14.7 0-8.5-6.9-15.4-15.5-15.4z"/>
	<path fill="#eb3d00" d="M35 12.8c-1.2 3.8-.9 8 .9 11.5l-17.3 13c-.4-.3-.9-.5-1.3-.6-3.2-1-6.7.8-7.7 4s.8 6.7 4 7.7 6.7-.8 7.7-4c.3-1.1.4-2.3.1-3.4l21.5-15.8c-2.8-2.7-4.3-7-3.1-11 1.7-5.5 7.6-8.5 13.1-6.8 4.4 1.4 7.2 5.4 7.3 9.8l5 .1c0-6.5-4.2-12.6-10.8-14.6C46.2.1 37.6 4.6 35 12.8z"/>
	<path fill="#00bcd4" d="M6.4 54.5c3.2 2.4 7.2 3.4 11.2 2.8l6.8 20.4c-.4.3-.7.7-1 1-2 2.7-1.4 6.6 1.4 8.6 2.7 2 6.6 1.4 8.6-1.3s1.4-6.6-1.4-8.6c-.9-.7-2-1.1-3.2-1.2L20.6 51c-3.4 1.8-8 1.8-11.3-.6C4.7 47 3.6 40.5 7 35.9c2.7-3.7 7.4-5 11.5-3.7l1.7-4.7C14 25.4 7 27.5 3 32.9c-5.1 7-3.5 16.6 3.4 21.6z"/>
	<path fill="#86c351" d="M85.5 78.6c-1.2-3.8-3.9-7-7.4-8.8l6.6-20.5c.5 0 .9-.1 1.4-.3 3.2-1 5-4.5 4-7.7s-4.5-5-7.7-3.9c-3.2 1-5 4.5-4 7.7.4 1.1 1 2 1.9 2.8L71.9 73c3.8.5 7.6 3.2 8.8 7.1 1.8 5.4-1.2 11.3-6.7 13.1-4.2 1.4-8.9-.1-11.6-3.7l-4.1 2.8c3.9 5.4 10.9 7.7 17.2 5.6 8.1-2.6 12.6-11.3 10-19.3z"/>
	<path fill="#9032e9" d="M37.6 95.1c3.2-2.4 5.4-5.9 6.1-9.8l21.6-.2c.2.4.4.9.7 1.3 2 2.7 5.9 3.3 8.6 1.3 2.7-2 3.3-5.9 1.3-8.6-2-2.7-5.8-3.3-8.6-1.3-.9.7-1.6 1.6-2.1 2.7l-26.5.1c.7 3.8-.7 8.2-4 10.6-4.6 3.4-11.1 2.4-14.5-2.2-2.7-3.7-2.6-8.6-.1-12.1l-4-3c-3.8 5.3-4 12.6 0 18.1 5 6.6 14.7 8.1 21.5 3.1z"/>
</svg>