<svg xmlns="http://www.w3.org/2000/svg" viewBox="0 0 100 100">
	<path fill="#0b4819" d="M.8 22.6V10.7l8 2.7v11l-8-1.8zM7.3 71.4V27.2l7.6 1.6v41l-7.6 1.6z"/>
	<path fill="#105c80" d="M44.5 10.7 24.9 33.1v9.6L54 9.9l46-3.6-67.7 70.6 9 .5 49.2-50.3v47.5L85 79.8l13.8.7v13.2l-43.4-3.4 22.1-21.5V58.2L45.9 89.5 8 86.6l60.8-65.4-10 .5-43.9 48.2v-41l4.2-4.9-10.3.5v-11l35.7-2.8z"/>
	<path fill="#0b4819" d="m7.3 27.2 4.4-5.3 7.4 2-4.2 4.9-7.6-1.6z"/>
	<path fill="#084010" d="m17.9 31.8 7 1.3v9.6l-7-.6V31.8z"/>
	<path fill="#0c541e" d="m25.8 79 6.5-2.1 9 .5-5.9 2.2-9.6-.6z"/>
	<path fill="#1a5c34" d="m38.8 7.5 5.7 3.2-19.6 22.4-7-1.3L38.8 7.5z"/>
	<path fill="#0b4819" d="m17.9 42.1 31-35.5L54 9.9 25 42.7l-7.1-.6z"/>
	<path fill="#1a5c34" d="m54.1 19.4 4.7 2.4-43.9 48.1-7.6 1.5 46.8-52z"/>
	<path fill="#0b4819" d="m0 89.4 64.9-70.6 4 2.5L8 86.6l-8 2.8z"/>
	<path fill="#1a5c34" d="m74.3 58.9 3.3-.7-31.7 31.3-5.6 3.2 34-33.8z"/>
	<path fill="#0b4819" d="M74.3 70.4V58.9l3.3-.7v10.6l-3.3 1.6z"/>
	<path fill="#0b4819" d="m50.5 93.6 23.8-23.2 3.3-1.6-22.2 21.5-4.9 3.3z"/>
	<path fill="#13802d" d="m88.3 76.8-5.9 5.6 2.7-2.6 5.5-5.1-2.3 2.1z"/>
	<path fill="#0b4819" d="m35.4 79.6 52.9-54.5 2.2 2-49.2 50.3-5.9 2.2z"/>
	<path fill="#084010" d="m88.3 25.1 2.2 2v47.5l-2.2 2.2V25.1zM97.4 83.3l1.5-2.8v13.2l-1.5 3.9V83.3z"/>
	<path fill="#1a5c34" d="m98.6 2.4 1.4 4-67.7 70.5-6.5 2.1L98.6 2.4z"/>
	<radialGradient id="a" cx="-4963.9702" cy="3217.7866" r="1" gradientTransform="matrix(4821.4399 0 0 -4821.4399 23935382 15516161)" gradientUnits="userSpaceOnUse">
		<stop offset="0" stop-color="#fff"/>
		<stop offset="1" stop-color="#007808"/>
	</radialGradient>
	<path fill="url(#a)" d="M38.8 7.5 17.9 31.8v10.3l31-35.5 49.7-4.2L25.8 79l9.6.6 52.9-54.5v51.7l-5.9 5.6 15 .9v14.3l-46.9-4 23.8-23.2V58.9l-34 33.8L0 89.4l64.9-70.6-10.8.6-46.8 52V27.2l4.4-5.3-10.9.7V10.7l38-3.2z"/>
</svg>