<svg xmlns="http://www.w3.org/2000/svg" viewBox="0 0 100 100">
	<path fill="#2c2d35" d="M0 0h100v100H0V0z"/>
	<path fill="#49ba7f" d="M40.3 79c5.3 0 9.7-4.3 9.7-9.7v-9.7h-9.7c-5.3 0-9.7 4.3-9.7 9.7S35 79 40.3 79z"/>
	<path fill="#8166aa" d="M30.7 50c0-5.3 4.3-9.7 9.7-9.7H50v19.3h-9.7c-5.3.1-9.6-4.3-9.6-9.6z"/>
	<path fill="#ec5128" d="M30.7 30.7c0-5.3 4.3-9.7 9.7-9.7H50v19.3h-9.7c-5.3 0-9.6-4.3-9.6-9.6z"/>
	<path fill="#f37068" d="M50 21h9.7c5.3 0 9.7 4.3 9.7 9.7 0 5.3-4.3 9.7-9.7 9.7H50V21z"/>
	<path fill="#48bbed" d="M69.3 50c0 5.3-4.3 9.7-9.7 9.7S50 55.3 50 50c0-5.3 4.3-9.7 9.7-9.7 5.3 0 9.6 4.4 9.6 9.7z"/>
</svg>