<svg xmlns="http://www.w3.org/2000/svg" viewBox="0 0 100 100">
	<path fill="#111" d="M21.3 77.7c.9 7.5 5 13.1 11.2 18.6l-2.2-1.1C12.6 87.6.3 70 .3 49.6c0-26 20-47.6 46-49.5C20.3 2 .3 23.6.3 49.6c0-26 20-47.6 46-49.5-29.7 5.8-58.2 40.2-25 77.6z"/>
	<path fill="#111" d="M89.1 33.8C86.9 17.7 74.6 6.4 52.1 0c26.5 1.2 47.4 23 47.4 49.6C99.5 77 78.9 98.2 52 99.4c-2.5.1-5.1-.3-7.5-1.1V42.4c.8-1.2.8-2.5 0-3.7V26.8h2.7c-1.1-.7-2-1.3-2.7-1.6v-3.4c14.4 5.5 21.1 6.1 20.1 1.8 1.3 3.5.2 5.2-3.3 4.8-4-.6-6.4-.3-7.4.8 7.1 3.5 10.9 6.9 11.4 10.2.7 5.6-2 11.7-7.9 18.4-3.8 4.7-1.8 9.6 4.2 10.4 18.8-.8 28-12.3 27.5-34.4zM44.5 98.3c-5.7-1.8-10.9-5.4-13.4-7.9-4.4-4.6-7.5-12-8.6-22.6V64c.7-8.5 6.4-14.6 17.1-18 2.4-1.2 4.1-2.4 4.9-3.6v55.9zm0-59.6c-.3-.5-.9-1.1-1.5-1.7-.6-.6-1.8-1.2-3.7-1.7-4.4-.1-6.7 1-7.1 3.3-7.4-3.3-7.6-7-.6-11.2 1.4-.5 3.4-.7 6-.6-1.1-4.8.8-6.7 5.5-5.5l1.5.6v3.4c-2.2-1-3.1-.5-2.6 1.6h2.6l-.1 11.8z"/>
	<linearGradient id="a" x1="22.985" x2="22.985" y1="4.5331" y2="100.7691" gradientTransform="matrix(1 0 0 -1 0 101.433)" gradientUnits="userSpaceOnUse">
		<stop offset="0" stop-color="#f40a0b"/>
		<stop offset="1" stop-color="#f5e710"/>
	</linearGradient>
	<path fill="url(#a)" d="M21 78.3c.9 7.5 5 13.1 11.2 18.6L30 95.8C12.4 88.2 0 70.6 0 50.2 0 24.2 20 2.6 46 .7 20 2.6 0 24.2 0 50.2 0 24.2 20 2.6 46 .7 16.3 6.5-12.2 40.8 21 78.3z"/>
	<linearGradient id="b" x1="60.7255" x2="60.7255" y1="1.3251" y2="100.7434" gradientTransform="matrix(1 0 0 -1 0 101.433)" gradientUnits="userSpaceOnUse">
		<stop offset="0" stop-color="#f40a0b"/>
		<stop offset="1" stop-color="#f5e710"/>
	</linearGradient>
	<path fill="url(#b)" d="M88.8 34.3C86.6 18.3 74.3 7 51.8.6c26.5 1.2 47.4 23 47.4 49.6 0 27.4-20.7 48.6-47.5 49.8-2.5.1-5.1-.3-7.5-1.1V43c.8-1.2.8-2.5 0-3.7V27.4H47c-1.1-.7-2-1.3-2.7-1.6v-3.4c14.4 5.5 21.1 6.1 20.1 1.8 1.3 3.5.2 5.2-3.3 4.8-4-.6-6.4-.3-7.4.8 7 3.5 10.8 6.9 11.3 10.2.7 5.6-2 11.7-7.9 18.4-3.8 4.7-1.8 9.6 4.3 10.4 18.7-.8 27.9-12.4 27.4-34.5zM44.2 98.9c-5.7-1.8-10.9-5.4-13.4-7.9-4.4-4.6-7.5-12-8.6-22.6V64.6c.7-8.5 6.4-14.6 17.1-18 2.4-1.2 4.1-2.4 4.9-3.6v55.9zm0-59.6c-.3-.5-.9-1.1-1.5-1.7-.6-.6-1.8-1.2-3.7-1.7-4.4-.1-6.7 1-7.1 3.3-7.4-3.3-7.6-7-.6-11.2 1.4-.5 3.4-.7 6-.6-1.1-4.8.8-6.7 5.5-5.5l1.5.6v3.4c-2.2-1-3.1-.5-2.6 1.6h2.6l-.1 11.8z"/>
</svg>