<svg xmlns="http://www.w3.org/2000/svg" viewBox="0 0 100 100">
	<path fill="#2684ff" d="M46.8 6.4c-15.9 0-28.4 11.3-28.4 25.5 0 10.8 7.4 18.7 16.2 18.7 9.4 0 15.7-7.1 15.7-15.3 0-.9-.1-2.1-.4-3C57 36 64.1 41.9 68.6 48.2c-4.8 8.8-12.6 18-24 18-8.6 0-16.3-6.7-17.6-15.5-.1-1.4-1.4-2.4-2.8-2.4H2.8c-1.7 0-3 1.4-2.8 3.1 1.6 23.4 20.4 42 44.7 42 26.9 0 43-19.4 55-44.4.4-.9.4-1.7 0-2.6-3.6-6.7-23-40-52.9-40z"/>
	<linearGradient id="a" x1=".03070013" x2="64.4354" y1="51.1579" y2="31.8042" gradientTransform="matrix(1 0 0 -1 0 101.433)" gradientUnits="userSpaceOnUse">
		<stop offset=".176" stop-color="#0052cc"/>
		<stop offset="1" stop-color="#2684ff"/>
	</linearGradient>
	<path fill="url(#a)" d="M100 48.4H68.8c-4.8 8.8-12.6 18-24 18-8.6 0-16.3-6.7-17.6-15.5-.1-1.4-1.4-2.4-2.8-2.4H2.8c-1.7 0-3 1.4-2.8 3.1 1.6 23.4 20.4 42 44.7 42 26.9 0 43-19.4 55-44.4.1-.3.1-.5.3-.8z"/>
</svg>