<svg xmlns="http://www.w3.org/2000/svg" viewBox="0 0 100 100">
	<path d="M19.2 74.5C4.3 56.3 4.5 41.4.9 33.3c-2.5-3.9.4-8.2 4.7-9.5 1.9-.4 5.3-2.2 1.2-.9-3.7 2.7-4-2.4-.3-2.8 2.6-.3 3.5-2.4 2.6-4.3C6.4 14 15.8 12 11 9.4c-4.9-5.3 6.9-6.3 4-.3-.7 4.6 8.3-.9 6.2 4.5 2.1 2.6 7.9.6 7.8 4.2 3.1.2 4.1 2.8 7 3 3 1.4 8.4 2.4 9.4 5.8-3 2.4-9.9-4.9-10.2 1.7.9 9.6.7 19.5 4.2 28.7 1.7 5.5 5.7 9.9 9.3 14.2 4.8 5.8 13.9 11.6 26.4 13.9 1.9-1.4 5.2-6.7 8.1-4.5.1 2.5-5.8 5.3-.3 5 3.2-1 5.5 2.5 8.1-.6 2.5 2.9 10.2-1.9 8.4 4.1-2.4 1.5-5.8.6-8.2 2.7-3.9-1.9-7 1.7-11.3 1.3-14 2.5-30.3.4-38.2-2.5-7.7-2.4-18.4-10.2-22.5-16.1zm17.4 12.8c4.2 1.8 8.2 3.7 12.8 4.3 7.2 1 14.7 2.6 22 1.1-3.3-1.5-6.7.6-10-1.1-3.9.8-8.2-.2-12.2-.7-4.5-2-9.5-3.4-13.7-6-5.3-1.9 2.8 2.5 4.2 2.9 3.3 1.9-3.7-1-4.6-1.8-2.8-1.6-3.1-1.2-.3.3.6.4 1.2.8 1.8 1zm-7.9-5.6c4 1.5 0-2.8-1.9-2.6-.8-1.4-3.1-2.3-1.5-3.1-2.9 1-3.1-3.9-4.5-3.2-3.1-1-1.2-4.5-4.9-6.6-.3-2.2-3.7-4.2-4.7-7.6-.5-1.6-3.8-6.6-1.7-2 1.7 4.5 4.8 8.3 7.3 12.1 2 3.6 4.3 7.4 7.9 9.7 1.1 1.2 2.3 3 4 3.3zM17 69c.2-.6.8 1.3 0 0zm16.5 14.5c-1.3-.5.9-.4 0 0zm2.2.8c-1 .7-.2-1.1 0 0zm2.8 1.2c-2.1-.8 1.3-1.3 0 0zm4.7 2.6c-2.6-.4.8-1.2 0 0zm-9.1-6.3c-2.6 0 2.1-1.3 0 0zm2.1 1c-.8.3-.1-.7 0 0zm10.3 6.5c1.7 1 9.7 2.3 4.6.4-.8.2-9.3-2.4-4.6-.4zM30.1 76.5c-2.5-.7-.1-.7 0 0zm4.8 2.8c-2.6-.6 1.3-.8 0 0zm4.1 2.5c-2.9-.7 1.7-.7 0 0zm-10.8-7.4c1.9 1.5 7.8.2 3-.9-2.2-1.2-7.2-2-3.8.7l.8.2zm13.5 8.3c-3.4-.8.8-1.4 0 0zm-4.1-3.3c4.7 1.3-4-3-1.2-.5l.6.3.6.2zm8.2 4.7c-4-.6 4.5.1 0 0zM26.5 71.8c-1.2.1-.2-.8 0 0zm26.9 16.6c-1.4 1.1.1-1.5 0 0zM34.1 76.5c-1.4 0-.2-.8 0 0zm-7.2-5.2c-3.5-1.2 2.6-.2 0 0zm-8.6-5.6c-2.8-2.2-.3-1.2 0 0zM40.8 80c-.4-.5-.2.2 0 0zm14.1 8.6c-.8.4-.1-.8 0 0zm-15.3-9.8c-2.2-.4.2-1.1 0 0zm-10.5-6.7c-3-1.3 2-.2 0 0zm17.7 11c-2.9-.6 3-1.2 0 0zm-9.2-6.2c3.5.4-4.1-2.3-.8-.2l.8.2zm12 7.3c3.2-1.9 2.2 4.5 5.5.5 3.3-2.4-2.8 2.9 1.2.4 2.9-1.9 7.2.9 9.9 1.9 1.9-.1 3.8 1.7 5.8.6 3.8-1-7.5-1.5-4.5-3.4-3.5 1-6.1-1.2-7.9-3.5-3.9-.9-8.5-2.9-10.5-6.4-.8-1.3 1.2.2-.7-2-2.4-2.1-3.6-4.5-5.2-7.1-1.9-1-2.1-4-2.3-.1 0-2.5-2.3-4.1-2.9-3.4 0-2.4 2.5-1.2.7-2.9-.4-2.5-1.6-5-2-7.8-.6-1.3-.1-4.2-2-1.2-.7 3.2-.2-3.9.8-1.6 1.4-2.4-.5-2.1-.6-1.8.9-2 .6-4.9-.2-3.8.5-2.2.8-7.9-.7-6.9.9-2.3 1.7-10.3-2.2-7.2-1.6 0-4.4.6-5.7 1.2 4.1 2.3-.4.8-2.1.5-.2 2.1-1.9 1.2-3.9 1.2 3.3.4-1.6 3.4-3.5 2.2-2.5 1.2 2.1 4.1 0 5 .3 1.4-3.8-.5-3.5 2.7-2.4-1-.3 3.8.9 2.1 4.1 1.1 2.9 3.6 3 6-.7 1.4-3.3-3.3-.6-3-2.1-3.4-2.3-1.2-4.1.4-.4.1 4.5 2.3 1.4 3.3 2.7.4 2.8 2.8 3.3 4.3 1.6 1.7 1.3-1.9 3.2.2-1.2-1.8-6.5-5.1-2.3-4.1 0-1.8-.8-3.3.5-3.3C19.7 44.9 17 53 20 50c.8-.4 1-2.3 2.5.2 2.1 2.1.8 3.6-2.2 1.7.5 1.8 4 2.5 3.3 5.3.7 2.5 1.6 1.6 2.5 1.4.7 2.4 1 .6 1.1-.5 3 .6 2.3 2.4 3.2 3.7 2.1.9-3-6.3.6-2.2 3.7 3.4 1.4 4.8-2 4.2 2.1-.2 2.8 2.9 5.5 2.8 2.4 1.2 4.1 5.6-.1 3.7-1.4-1.3-6.6-2.9-2.4-.4 3.9 1.8 6.9 2.9 10.7 5.1 2.7 1.9 3.8 4.1 4.8 4.5-2.2 1.1-6.8-.9-3.4-1.4-2.1-.4-4.4-1.4-2.4 1.2 1.7 1.4 6 1.3 6.8 1.4-.7 1.5-1.8 1.6 0 1.7-1.8 1.1.9 1.2 1.1 1.8zm-4.1-11.7c-1.2-1.3-1.6-3.7-.2-1.6.6.3 2.1 4 .2 1.6zM59 81.1c0 .6.7 0 0 0zM43.5 69.4c0-2 .5 1.5 0 0zm-1.3-1.8c-1.6-3 1.9.8 0 0zM25.9 56.4c.5 1.5.9-.3 0 0zm13 7c.5-2.1.6 1.7 0 0zM29.7 57c-.6-1.1 1.4 1.1 0 0zm7.9 2.5c-1.5-3.3 1-1.8.3.5l-.3-.5zm-13.6-9c-.7-1.1-1.7-4.2-1.4-5.2.3 1.6 3.4 6.8 1.5 2.2-2.1-3.9 2.5 1.3 2.9 2.2.2 1-1.3-.3-.3 2-1.7-2.6-1 1.4-2.7-1.2zm-4.1-2.9c.1-2.5.9 1.7 0 0zm1.8.7c.9-1.9 1.6 2.6 0 0zm-4.5-3.5c-1.6-1.5-2.7-3 .1-1 1.1 0-2.4-3.2.3-1 2.7.5 1.3 4.5-.4 2zm2.4-.1c.5.9.9-.9 0 0zm1.5.5c-1.4-2.6 1.6 1.1 0 0zm-2.9-2.8c-4.5-4 5.7 2.1.7.7l-.7-.7zm12.9 7.5c-2-1.2-.5-8.3.1-3.4 1.9-.6-.1 2.5 1.3 2.5-.1 2-.8 2.7-1.4.9zm4.8 2.9c.2-2.2.4 1.4 0 0zm-.8-.9c0 1.1.2-.9 0 0zM19 41.1c-2.9-4 8.4 4.1 1.9 1-.7-.2-1.5-.2-1.9-1zm9.3 4.9c-.3-3.4.6.5 0 0zm7 4.5c0 1.2.5-1.9 0 0zm-15.8-11c1.7-.4 7.2 3 2.2 1-.6-.6-1.8-.3-2.2-1zm14.8 7.4c.2-3.5 1-2.1 0 .5v-.5zm-13.5-8.6c.7-1-1.9-4.7.4-1.3 1 .8 2.8 1.3 1.2 1.6 2.5 2.3-.7.7-1.6-.3zm12.8 7.6c.4 2.3.5-4 0 0zM19.3 34.7c.3.7.5-.2 0 0zm3.3 2c.9-1.8 1.6 2 0 0zm9.5 5.3c0-.7.1 1 0 0zm-.6-1.3c-1.3-3.2 1.2 1.8 0 0zm-.8-2.1c-.2-1.3.8 1.7 0 0zm1.3-2.1c-.9-1.6 1.1-7 1.4-3.6-.9 2.6-.3 4.1.4.6 1.2-2.8-.3 5.4-1.8 3zm1.4-8c.1.6.4-.5 0 0zm-2.3 44.2c-.5-.5.1.3 0 0zm4.7 2.3c2.6.7 2.6-.4.2-.7-1.2-1.2-5.2-2.4-1.7-.1.3.6 1 .6 1.5.8zm-9.2-6c1.4 1.1 5.3 3 2 .4 1.1-1.3-2.1-2-1.1-2.9-2.8-1.7-2.2-1.5-.2-1.5-3.3-1.5.5-1.4.3-2.1-1.3-.3-6.3-2.2-3.4.2-3-1.5-.7.6-1.6.3-3.1-.8 2.8 2.4-.5 1.6 1.8 1.4 4.8 3.6.8 1.5-.5.7 2.9 1.9 3.7 2.5zm4.9 2.8c-2.9-2.4 5.8 1.9 0 0zm24.7 15c-.8.9.1-1.2 0 0zm2.6 1c1.4-1.3.1 2.1 2.2-.3 0-1.7-.1-2.8-2.5-.7-.7.4-1 2 .3 1zM18.4 62.5c-3-1.7-.4-1.7 0 0zm2.7 1.7c-3.6-1.5-1-1.6 0 0zm15.4 9.4c1.5 1.3 6.9 1 1.8.2-.7-1.2-4.7-.9-1.8-.2zm21.3 13.1c-2.3.9 2.3-2 0 0zm4.8 3.3c-1 .3 0-.6 0 0zm0-.9c-2.5.2 2.6-2.7 0 0zM11.7 56.9c-2.2-3.1-1.4-4.5-3.5-7.1-.4-2-3.6-6.4-1.7-1.7 1.8 2.7 2.4 7 5.2 8.8zm50.1 31.4c-1.9-1.4 4.7-3.1 0 0zm3.6 1.4c-1.5-.5 2.4-2.1 0 0zM17.6 59c-1.8-.1.6-1 0 0zm47.1 29.7c2.3-1.5-.5-1.3-.4.1l.4-.1zM33.5 69.1c-1.2.1 0-1 0 0zm2 1.1c-1 .2-.6-1.2 0 0zm32.9 19.5c2.9-2.1-1.8-.4-.6.4l.6-.4zm-1.2-.5c-2.5.9 2.4-2 0 0zM73 93c-2-.4 1.6-1.1 0 0zM19 58.3c2.2.5 8.6 5.3 4.8.3-2-.6-.8-5.3-2.8-4.5 1.3 2.2 1.1 3.2-1.7 1.8-3.5-1.7-2 .9-1.3 1.6-.9.2 1.3.8 1 .8zm-9.8-7.8c.4-1.6-3.6-8.8-1.9-3.6.7 1.1.6 3.2 1.9 3.6zm18 11.1c-1.1-.9 0-.1 0 0zm2.8.7c-3-.7 0-1.7 0 0zm23.6 14.9c-1.7 0-.4-1.2 0 0zm1.2.8c-.7.1-.2-.6 0 0zm9.4 5.9c-1.2-.1.9-.6 0 0zM14.1 51.8c-2.7-.7 2.6-1 0 0zm37.5 23.6c-1.7.4-.1-1.7 0 0zm-38.5-26c-1.5-.4 1.7-.6 0 0zm4.8 2.3c-.5.2 0-.5 0 0zm58.7 36c2.1-.4 7 1.1 7.8-.6-2.6-.1-9-1.8-9.3.4 1.7.4 1.5.1 1.5.2zM19.4 52.1c-1.3 0 .1-1.7 0 0zM6.8 43.3c-2.2-.5-.6-3.2 0 0zm4.7 1.6c-.5-.4-.4.6 0 0zm10.9 7c-1.2-.3.5-.5 0 0zm-12-8.9c-3.5-.3-.3-2.4 0 0zm-6.2-4c-.6.4-.1-1.1 0 0zm.9-.7c-.8.2-.1-1.3 0 0zm5.1 3.1c2.2-.8-3.9-1.7-.4-.2l.4.2zm68.1 42c-1.8-.4 1.3-1.3 0 0zm8.2 4.3c-1.4.2.5-1.7 0 0zm-75.8-49c-1.7.3.2-1.6 0 0zm-7.2-4.9c-.4-2.2-.3-6.1 3.4-4.8-5 1 3.4 6.2 2.4 2.1 2.1.1 4.1-1.2 3 .8 4.1-.5 7-4 10.9-3.5 3.1-.4 6.5-.7 9.8-2 2.7-.2 5.4-3.1 3.9-4.9-10.2-.9-18.6 3.4-25.1 4.5-4.5.6.9 1.7-.4 1.9-2.3.8 2.8 1.4-.3 2.2-1.9-.4-3.9-1-3.1-3-4.3.6-8.1 2.4-4.7 6.7h.2zm10.4-5.2c1-3.7 5.4 3.1 1.7.5-.5-.4-1.3-.7-1.7-.5zm.2-1.9c.8.7 1.4-1 0 0zm1.8.1c.1-1.7 4.2.9.7.6l-.7-.6zm2.6-1c.2.9.9-1.1 0 0zm.6-.5c1.5-1.9 8.7-1.2 3.5-.2-1.4-1-2.5.7-3.5.2zm9.4-1.4c-.2-5.1 4.7 1.8 0 0zm2.7 0c1-2.5 3.8-1 .5-.5 0 .2-.2 1.3-.5.5zM9.7 37.4c-3.1-1.6 2.9-1.8 0 0zm2.1.6c-2.2-.5 1-1.1 0 0zm-6.3-4.5c-2-.5 1.6-1.3 0 0zm85.8 53.7c-1.2.7.1-1.5 0 0zm-8.7-6c-1.1.2.3-1.7 0 0zm11.1 6.6c2.3 0 7-.7 2-.7-.8.1-4.6 0-2 .7zM13.4 35c-5.1-.5 4.5 1.8-.7 1.1-.7.5 1 1 1 .9 1.7-.1 3.1-2.1-.3-2zm2 2.8c-.6.6-.2-1.2 0 0zm1.9-5.3c-1.1-.2.8-1 0 0zm-6.2-10.4c3.4-1.1 7.9-2.4 9.5.6-1.6-1.9-.6-3.9.9-1 2.2 2.9 3.2-1.3 1.8-2.3 1.6 2 3.4 2.9 1.1.1 2.5-3.1-5.1.4-6.8.4-.9.3-8.7 1.9-6.5 2.2zm1.9-3.8c1.9-1.4 6.6.9 3.6-1.4-.2-.3-6.6 1.7-3.6 1.4zm7 .3c2.2.1-1-3 1.7-1.6-.4-1.4-3.1-1.7-4.4-2.3-.7 1.3 1.5 3.9 2.7 3.9zm-5.7-6.3c-1.4.5.7-1.1 0 0zm2.8.7c3.6-.5-.9-1.6-.7 0h.7zm-5.3-4.2c-2.5-3.3 4.8.6 2.2-2.9-2.2-1.8-4.3 1.9-2.2 2.9zm32.6 17.6c1.2-2.1-4.8-2.8-.8-.7.4 0 .3.8.8.7z"/>
</svg>