<svg xmlns="http://www.w3.org/2000/svg" viewBox="0 0 100 100">
	<radialGradient id="a" cx="-1804.2263" cy="30.1516" r="1" gradientTransform="matrix(36.0554 -33.1955 43.8247 47.6003 63786.5586 -61265.2969)" gradientUnits="userSpaceOnUse">
		<stop offset=".771" stop-color="#001aff"/>
		<stop offset="1" stop-color="#8aceff"/>
	</radialGradient>
	<path fill="url(#a)" d="M98.6 43.3C98.6 58.6 82.2 71 62 71S25.4 58.6 25.4 43.3 41.8 15.6 62 15.6 98.6 28 98.6 43.3z"/>
	<radialGradient id="b" cx="-1778.5042" cy="49.4396" r="1" gradientTransform="matrix(23.3051 -13.7513 18.1544 30.7672 40619.5273 -25934.5723)" gradientUnits="userSpaceOnUse">
		<stop offset=".719" stop-color="#fa00ff" stop-opacity="0"/>
		<stop offset="1" stop-color="#ff00d6" stop-opacity=".44"/>
	</radialGradient>
	<path fill="url(#b)" d="M98.6 43.3C98.6 58.6 82.2 71 62 71S25.4 58.6 25.4 43.3 41.8 15.6 62 15.6 98.6 28 98.6 43.3z"/>
	<radialGradient id="c" cx="-1793.0646" cy="-9.6252" r="1" gradientTransform="matrix(50.2774 58.6286 -58.6286 50.2774 89619.9688 105650.1094)" gradientUnits="userSpaceOnUse">
		<stop offset=".026" stop-color="#8dfdfd"/>
		<stop offset=".271" stop-color="#87fbfb"/>
		<stop offset=".484" stop-color="#74d6f4"/>
		<stop offset=".932" stop-color="#0038ff"/>
	</radialGradient>
	<path fill="url(#c)" d="M100 50c0 27.6-22.4 50-50 50S0 77.6 0 50 22.4 0 50 0c13 5.9 26.6 27.7 32.2 34.6 5.7 6.8 20.4 15.4 13.2-2.6 3.1 4.8 4.6 12.9 4.6 18z"/>
	<radialGradient id="d" cx="-1830.6628" cy="-36.8692" r=".9986" gradientTransform="rotate(137.237 -48839.63491882 18034.13276204) scale(52.9542)" gradientUnits="userSpaceOnUse">
		<stop offset=".267" stop-color="#0500ff" stop-opacity="0"/>
		<stop offset="1" stop-color="#0500ff" stop-opacity=".15"/>
	</radialGradient>
	<path fill="url(#d)" d="M100 50c0 27.6-22.4 50-50 50S0 77.6 0 50 22.4 0 50 0c13 5.9 26.6 27.7 32.2 34.6 5.7 6.8 20.4 15.4 13.2-2.6 3.1 4.8 4.6 12.9 4.6 18z"/>
	<radialGradient id="e" cx="-1800.9084" cy="-18.277" r="1" gradientTransform="rotate(75.198 -75270.64056018 95756.00164764) scale(82.4974)" gradientUnits="userSpaceOnUse">
		<stop offset=".42" stop-color="#ff00e5" stop-opacity="0"/>
		<stop offset=".774" stop-color="#ff00f5" stop-opacity=".64"/>
		<stop offset=".899" stop-color="#be46ff" stop-opacity=".87"/>
	</radialGradient>
	<path fill="url(#e)" d="M100 50c0 27.6-22.4 50-50 50S0 77.6 0 50 22.4 0 50 0c13 5.9 26.6 27.7 32.2 34.6 5.7 6.8 20.4 15.4 13.2-2.6 3.1 4.8 4.6 12.9 4.6 18z"/>
	<linearGradient id="f" x1="12.5003" x2="126.5632" y1="1027.4885" y2="1029.0515" gradientTransform="translate(0 -978)" gradientUnits="userSpaceOnUse">
		<stop offset=".432" stop-color="#fe62ee" stop-opacity="0"/>
		<stop offset=".818" stop-color="#fd3af5" stop-opacity=".47"/>
	</linearGradient>
	<path fill="url(#f)" d="M100 50c0 27.6-22.4 50-50 50S0 77.6 0 50 22.4 0 50 0c13 5.9 26.6 27.7 32.2 34.6 5.7 6.8 20.4 15.4 13.2-2.6 3.1 4.8 4.6 12.9 4.6 18z"/>
	<radialGradient id="g" cx="-1785.8689" cy="-30.2129" r="1" gradientTransform="matrix(4.411 36.707 -55.4818 6.6672 6242.2666 65805.7734)" gradientUnits="userSpaceOnUse">
		<stop offset="0" stop-color="#00b2ff"/>
		<stop offset=".571" stop-color="#74c5ff"/>
		<stop offset=".979" stop-color="#9fd7ff"/>
	</radialGradient>
	<path fill="url(#g)" d="M84.9 57.6c2.7 12.5-10.5 26-29.4 30s-36.4-2.8-39.1-15.4c-2.7-12.5 10.5-26 29.4-30S82.2 45 84.9 57.6z"/>
	<linearGradient id="h" x1="45.1208" x2="52.0498" y1="1009.2392" y2="1051.4215" gradientTransform="translate(0 -978)" gradientUnits="userSpaceOnUse">
		<stop offset=".042" stop-color="#0038ff"/>
		<stop offset=".724" stop-color="#48bff1" stop-opacity=".59"/>
		<stop offset="1" stop-color="#74c5ff" stop-opacity="0"/>
	</linearGradient>
	<path fill="url(#h)" d="M84.9 57.6c2.7 12.5-10.5 26-29.4 30s-36.4-2.8-39.1-15.4c-2.7-12.5 10.5-26 29.4-30S82.2 45 84.9 57.6z"/>
	<path fill="#d6f8f8" fill-opacity=".19" d="M70.6 46c-13.9-5.5-34.4-1.7-45.8 9.7C7.6 73.3 28 90.8 55 85.1 82.1 79.4 93.5 55 70.6 46zM55.5 87.5c18.9-4 32.1-17.5 29.4-30C82.2 45 64.7 38.2 45.8 42.2s-32.1 17.5-29.4 30 20.2 19.4 39.1 15.3z"/>
</svg>