<svg xmlns="http://www.w3.org/2000/svg" viewBox="0 0 100 100">
	<path fill="#e65270" d="M63.8 99.1H36.1C16.3 99.1-1 81.2 2.8 58.2l.2.1c.1.1.1.2.2.3 4.4 13.2 7.3 13.8 8.9 17.1 2.5 7.7 8.7 12.7 16.3 15.2-11.8-5.2-15.1-14.5-14-15.6 0-.1.1-.2.1-.4 3.3-10.2 12.4-10 23.8-11.6l-.3.3v.1c-1.2 1.3-2.2 2.8-3 4.5-.1.1-.2.3-.3.3-2.8 1.4-6.8.6-9.3 2.8.2-.1.4-.1.6-.1 1.3 0 .9-1 8.2-1l-.2.2c-1.5 4.8-1.4 9.4.1 13.9-3.1-15.5 6.4-23.9 21.8-27 2-.5 4-1 5.9-1.5 10.3-3.2 7.3-7.2 15.6-10.8.1 0 .2-.1.2-.2 1-1.6 3.1-3.7 4.3-3.7 1.4 0 2.2 1.7 2.7 2.5 0 .2 10.3.8 11.6 11.8v.5c0 1.4 1.3 3.1 1.3 3.5 1.3 2.5.6 3.8.1 3.3-.3-.1-.8-.7-.8-.7-.2-.1-.4-.3-.5-.4-.1 0-.2-.2-.4 0 .9.6 1.9 1.6 1.9 1.9-.2 1.8-1.2 3.2-3.5 3.2 0 .3-.1.4-.3.5-1.6.9-3.1 1.3-4.7 1.3-3.7 0-2.9 1.9-7.6 1.9 1 .2 3 0 3.2.2.8.3 1.6.7 2.4 1.1.1.1.4.1.6.1 4.7-2.4 7.2-.6 7.2.4.5.5.5.4.5.5.9.7.9 2.6-.2 2.1-.1 0-.1-.1-.2-.1 3.4 1.7-1.6 5.4-3 3.1-.4 0-.6 0-1 .1-.2 0-.7.2-1.4.2-.9 0-.8-.1-1.2-.1-2 6.9-16.4 8.6-19.9 0-.4-1.1-1.4-8.1-6.8-10.8-3.8-2-7.2-.9-7.5-.9 5.7 0 11.6 3.3 12.9 8.5 1.6 5.7 3.5 8.4 8.9 9.5.8.3 1 1.9.8 2.8-.8 4.3-5.9 5.4-5.4 6.8 0 .6 0 .7.7.5.1 0 .2-.1.3-.1l.7-.3c6.9-3.5 9.3 3.1 7.3 3.1-.2 0-.3-.2-.5-.3-.2-.2 0-.9-.7-1.4 1 1.4 1.1 3.5-.7 3.5-1.4 0 .3-2.4-1.4-3.1h-.1c.1.1.3.2.3.3 1 1.5.3 3-1.2 3-.7 0-.8 0-1.9-.2-1.6-.8-4.8.5-9.4.5l-1.2-.3z"/>
	<path fill="#430a1d" opacity=".2" d="M84.1 70.1c-4.6 5.5-16.5 2.2-13.5-6.7 0 0 1 3.9 4 5.4 4.2 2.1 9.5 1.3 9.5 1.3zM66 71.9c1.3 1.3 1 4.7 3.4 7.7 4.1 5.2 8 2.4 7.5 5.9l-.5 1.9c-4 0-7.7-1.8-9.2-5.7-1.3-3.5.2-7.6-3.8-13.5.3.6 2.2 3.3 2.6 3.7z"/>
	<path fill="#2b2b2b" d="M64.5 70.2c.1.2.1.5.2.7-.2-.1-.3-.3-.2-.7z"/>
	<linearGradient id="a" x1="29.3975" x2="1.4764" y1="960.239" y2="1090.5355" gradientTransform="translate(0 -978.567)" gradientUnits="userSpaceOnUse">
		<stop offset=".3836" stop-color="#faa100"/>
		<stop offset=".6584" stop-color="#bf73f2"/>
		<stop offset=".6649" stop-color="#c370e6"/>
		<stop offset=".6852" stop-color="#cc68c7"/>
		<stop offset=".7081" stop-color="#d461ab"/>
		<stop offset=".7341" stop-color="#db5b95"/>
		<stop offset=".7643" stop-color="#e05784"/>
		<stop offset=".8017" stop-color="#e35479"/>
		<stop offset=".8543" stop-color="#e55272"/>
		<stop offset="1" stop-color="#e65270"/>
	</linearGradient>
	<path fill="url(#a)" d="M18.3 85.3C6.4 84.1-2.3 72.7 2.6 55.3c1.2 12.3 11.1 20.8 11.1 20.8s2.2 7 4.6 9.2z"/>
	<path fill="#2b2b2b" opacity=".2" d="M14.5 79.6s-3.1.3-7.3-4.8c4 7.3 9.3 7.5 9.3 7.5l-2-2.7z"/>
	<linearGradient id="b" x1="45.2211" x2="15.4654" y1="958.4691" y2="1097.3311" gradientTransform="translate(0 -978.567)" gradientUnits="userSpaceOnUse">
		<stop offset=".3836" stop-color="#faa100"/>
		<stop offset=".6584" stop-color="#bf73f2"/>
		<stop offset=".6649" stop-color="#c370e6"/>
		<stop offset=".6852" stop-color="#cc68c7"/>
		<stop offset=".7081" stop-color="#d461ab"/>
		<stop offset=".7341" stop-color="#db5b95"/>
		<stop offset=".7643" stop-color="#e05784"/>
		<stop offset=".8017" stop-color="#e35479"/>
		<stop offset=".8543" stop-color="#e55272"/>
		<stop offset="1" stop-color="#e65270"/>
	</linearGradient>
	<path fill="url(#b)" d="M22.6 88.2c-.8-13.8 7.3-7.4 11.5-14.7 1.2-6.4 4.7-10.4 4.7-10.4s-25-4.7-25.4 13.6c.9 4 4.7 7.8 7.1 9.8C20 85.4 14 69 33.9 70.3c-6.9-.6-16.8 6.6-12.1 17.3.5.4.8.6.8.6z"/>
	<path fill="#fff" opacity=".2" d="M29.4 68.3c-5.2 1.9-14 1.9-11.5 15.1-.4.3-2.4-2.8-1.9-2.5-2.3-11.7 8-11 13.4-12.6z"/>
	<path fill="#8b4fba" opacity=".6" d="M35.9 63.6c5-2 .9 3.7.2 4.6-1.7 2.1-5.8 1.4-8.1 2.1-1.3.4-6.4 1.2-8.1 6-.8 2.2-1 5.7.6 10-.4.3-3-2.6-2.5-2.3-4.2-19 15.8-12.2 17.9-20.4z"/>
	<path fill="#f9e0e7" d="M85.9 55.9c.1-.4.4-.9.7-1.1.1 0 .1 0 .2.1.6-.4 2.9-.4 3.2-.3.5.2.5.7.7 1.2.4.8 1.7.8 1.7 1.9 0 2.4.9 2-4.2 2l-1.5-1.1c-.6.1-1.1-1.5-.8-2.7z"/>
	<path fill="#fff" d="M91 57.4c.4-.2.7-.7.8-.7.8 0 .3 1.5.1 2.2-.1 0-.2-.2-.4-.3-1 0-.9.1-1.2.1l.7-1.3z"/>
	<linearGradient id="c" x1="49.9304" x2="48.1593" y1="967.2755" y2="1049.6431" gradientTransform="translate(0 -978.567)" gradientUnits="userSpaceOnUse">
		<stop offset="0" stop-color="#faa7b5"/>
		<stop offset=".3836" stop-color="#faa100"/>
		<stop offset=".7317" stop-color="#bf73f2"/>
	</linearGradient>
	<path fill="url(#c)" d="M31.4 37.2c1.8-1.8 3.1-3.7 3.7-6.9.4-1.7-.1-3.2-.9-4.7l-.1-.1c-.5 1.3-.8 3-2.1 4.5-.3.4-13.4 7.6-12 23.6v.3c2.8-2.8 10.3-3.2 15.9-5.3 3.7-1.5 7.8-4.8 8.8-8.3.4.9.1 3.4-1.7 5.5 3.3-1.7 6.6-4.9 6.6-8.5.4 1.8.3 4.9-1.7 7 1.6-.7 2.5-.6 3.2-1.7 6.3-10.2 3.3-16.8-4.5-19.6-.1 0-.2-.1-.3-.1l-.1-.1c.5.1.9.2 1.4.4 10.4 3.1 11.9 10.1 6 18.5 0 .1-.1.1-.1.2v.1c.1 0 .1 0 .1-.1 12-6.2 17.9-21.2 3.2-29.2-4.7-2.5-12.6-4.7-17.1-1.9.1-.1.3-.2.4-.4 1-.7 2.1-1.1 3.3-1.4 7.5-1.5 15 2.6 15.6 2.8 0-.7-.1-1.1.5-1.3.3 0 .4.1.5.3 0 .2.1.4.1.6.1.6.4 1 .7 1.3h.1c0-1.6 0-1.6.1-1.7.1 0 .2 0 .3.1.1.2.3.3.3.5.3 1.2.2 1.4.7 2.1.1.1.6.7.6-1.3 0-.1.1-.1.1-.2.1.1.2.1.2.2.3.5-.1 1.5.3 2.3.1.2.3.2.4 0 .1-.2.3-1.6.3-1.7.4.3.3 1.7.5 2.6 0 1.1.7 1.3 1.9 3.6.2.4.5.4.7 0 .7-1.8.5-1.3.9-2.1 0-.1.1-.2.2-.3.9.6-.7 2.4-.2 3.4.3.7.8-.7 1.2-.7.7.7-.9 2.4-.9 4.2 0 .1.1.3.2.3s.3-.1.3-.1c.7-.7.7-.9 1.3-1.5h.1c0 1.2-.9 2-1.6 3.2-1.2 1.9-.9 2.7-1.9 5.3 0 .1-.1.2-.1.3 3.1-4.6 3-1.8 10.4-6.3.6-.4.8-1 .6-1.8-.1-.5-.2-1-.4-1.5-.7 1.1-1.1 2-2.2 2.5.1-.1.1-.1.1-.2.8-1.1 1.3-2.3 1.6-3.6 0-1.1-.3-.8 0-3.2 0-.3.1-.8-.2-.8-.1 0-.2 0-.2.1-1.6 2.4-2.4 7.9-5.8 9.6-.1.1-.3.1-.4.2 2.6-2.6.3-8.1 2-14.1 0-.1 0-.2-.1-.2-.2-.3-.3-.6-.5-.9-1-2.4-.8-2.4-1.4-2.4-.9 0-1-1-1.3-.5-.3.8-.4.9-.7 1.2-.1-.1-.2-.2-.2-.3 0-.2 0-1.4-.2-1.6 0-.1-.2-.2-.2-.2-.1 0-.2.1-.2.2-.7 2.1.4.7-3.9-2-.4-.2-.8-.5-1.1-.7h-.1c0 .4.1.8.1 1.3 0 0-.1 0-.1.1-.3-.3-.3 0-1.1-1.2-.5-.6-1.1-1-1.8-1.2.2.7.4 1.3.6 1.9H60c-.1-.1-.1-.2-.2-.2.3.1.2-.1 0-.4-1.6-2.9-5-1.3-6.8-2.4-.1-.1-.9-.4-1.4-.4v.3c.2.4.4.7.6 1.1.1.1.1.3.2.4l-.1.1c-.1 0-.2-.1-.4-.1-3.7-2.2-8.9-1.1-11.1.8.9 0 3.8-1 5.4.1.1.1.2.2.2.3-.1 0-.3.1-.4.1-.3 0-.6-.2-1-.2-5.2-.5-16 7.3-13.4 8.2.9.4 6.8 1.5 7.5 7.8 1.1 7.9-1.5 12.3-7.5 16-.1 0-.1 0-.2.1z"/>
	<path fill="#8b4fba" opacity=".2" d="M77.4 16c-1.5 11.9-6.8 9.2-10.3 15.9-.2-.3-.6 1.8.2-2 .9-3.8 3.4-2.1 5.7-6.4 3.1-5.5 2.5-6 4.4-7.5z"/>
	<path fill="#fff" opacity=".3" d="M61.6 16.2c-.6 3.4-5.4 3.3-9.5 1.8-4.5-1.6-13.8-2.1-14.5-.2-.4.4-1.1-1.3-1.1-1.3s7.1-7.7 18.9.4c-.5-.7 4.3-2.9 4.3-2.9s1.3-.5 1.9 2.2z"/>
	<path fill="#8b4fba" opacity=".2" d="M37.1 48.9c.3.6 2.4.2 2.5-.8-3.1-3.5 5-9.9-2.5-18.3 5 13-5.5 13.5 0 19.1z"/>
	<path fill="#8b4fba" opacity=".6" d="M37.1 48.9c.3.6.2.5.4-.5-3.1-3.5 5.1-8.6-.3-18.6 4.9 13-5.6 13.5-.1 19.1z"/>
	<linearGradient id="d" x1="28.0347" x2="47.9218" y1="975.7666" y2="1010.026" gradientTransform="translate(0 -978.567)" gradientUnits="userSpaceOnUse">
		<stop offset="0" stop-color="#f6e8a0"/>
		<stop offset="1" stop-color="#e65271"/>
	</linearGradient>
	<path fill="url(#d)" d="M48.3 46.4c14.8-15.6-3.9-13-10-23.6 0-1.5-.1-2.8-1-4.6 5.7 8.5 20.2 1 17.4 18.4-.2.8-2.2 9.6-6.4 9.8z"/>
	<linearGradient id="e" x1="31.5699" x2="48.7213" y1="996.3333" y2="1025.876" gradientTransform="translate(0 -978.567)" gradientUnits="userSpaceOnUse">
		<stop offset="0" stop-color="#f6e8a0"/>
		<stop offset="1" stop-color="#e65271"/>
	</linearGradient>
	<path fill="url(#e)" d="M48.3 46.4c-6.1 3-11.5 3.1-11.2 2.2 12.1-8.2 2.3-16.7.1-24.7.2-.7 1.1-.7 1.1-1.8 1.6 6.3 26.3 7.1 10 24.3z"/>
	<path fill="#e65271" d="M46.4 46.1c9.4-14-8.1-16.7-8-21.2C37 34.1 53.8 38 38 49c-.3.9 2.3.1 8.4-2.9z"/>
	<linearGradient id="f" x1="69.934" x2="67.9578" y1="974.4945" y2="1009.0057" gradientTransform="translate(0 -978.567)" gradientUnits="userSpaceOnUse">
		<stop offset="0" stop-color="#f6e8a0"/>
		<stop offset="1" stop-color="#e65271"/>
	</linearGradient>
	<path fill="url(#f)" d="M72.7 21.7c.7 1.2-.1 2.7-1 4.1-.8 1.3-2.7.9-4.1 3.9l.1-2.4c2.5-4.1-5.9-10.3-2.3-21.1.8.6 1.4 1.1 2 2 .4.6.3-1.5.9-1.1.4.3 0 1.8.4 2.1.5.4.7-1.8 1.1-1.3.8 1.2 1.2.4 1.5.8.3.3 1 2.7 1.3 3.1.3.3.5.6.8 1-.7 6.4-2.4 6.2-.7 8.9z"/>
	<path fill="#e65271" d="M51.2 1.5c.7 0 1.8.8 2.5.8 1.5.1 3.1.1 4.5.7 1.3.6 1.9 2.4 2.2 2.5.3.1-.7-2.1-.4-2 .5.2.9.4 1.2.7 1.2 1.8 1.6 10.8-.3 10.6-2-.2 3.1.7 3.1.6C65.7 9 61.9 5.1 62.1 5.3c.2.3.4.5.6.6.4.2-.3-1.5.1-1.3 1.2.7 2 1.2 2.7 1.7 0 0 0 .1.1.1.5-.2 3.6-.9 1.2 10.2 3.6-7.3.8-10.1 1.1-9.8 1.3 1.4 1.5 4.7 1.7 6.7.2 1.9-1 6.1-2.5 7.5-1.1 1-1-.2-1.5-1.2-1.3-3-5.6-6.5-5.7-6.6-1-.9-1.5-2.2-2.4-3.2-.8-.9-1.7-1.6-2.5-2.6-.8-1.1-1.4-2.3-2.3-3.3-.3-.2-.6-.4-.9-.7.6 0-1-1.9-.6-1.9z"/>
	<linearGradient id="g" x1="68.0474" x2="56.6462" y1="1008.963" y2="958.4552" gradientTransform="translate(0 -978.567)" gradientUnits="userSpaceOnUse">
		<stop offset="0" stop-color="#e65271"/>
		<stop offset=".3836" stop-color="#faa100"/>
	</linearGradient>
	<path fill="url(#g)" d="M58.6 2.4c2.2 0 3.6 1 5.4 2 1.8 1 6.5.9 7.3 7.3.6 3.7.4 10.6-2.2 13.2l-1.1-.7c-3-7.8-13-8.9-13-20.1-.1-2 2-1.7 3.6-1.7z"/>
	<path fill="#f6e8a0" d="M36.8 17.3c-3.3-5.1-8.5-3.2-6.3-5.8 1.1-1.8 2.8-2.5 3.7-3.1 3.6-2.6 2.1-2.9 4.2-3.1.8-.1.6-.2 1 0s-.3-.1-.6-.3c-2.3-1.5-2.1 1.5-1.2.9 3-2.3 9.8-3.9 11.7-3.6.3 0 2.2 1.2 2.5 1.2.4 0-1.1-1.9-.7-1.9.7 0 1.8.8 2.5.8 1.5.1 6 2.2 6 7.7 0 1.7.1 2.8-.1 3.9-1.6 8-18.3-3.3-22.7 3.3z"/>
	<path fill="#fff" d="M56.9 12.4c-.8-1-5.8-2.7-5.8-2.7S42.7 6.7 35 15c3.9-3.1 10.9-1.8 15.9-1.2.7.1-1.4-.6-.9-.8 1.9-.7 3.6 1.2 5.4.9.9-.3 1.4-.7 1.5-1.5z"/>
	<path fill="#f6e8a0" d="M50.5 11c-3.1-.8-6.2.4-6.7.4.3-.4.7-1.4 3-1.7.5-.1 1.6 0 2.1 0 1 0 1.6.2 2.5.7.6.3 1.9.6 2.3.5 0 0 4.7.4 3.2 2-1.6 1.6-3.8-2.1-8.8-.9-.1-.3 1-1.1 2.4-1z"/>
	<path fill="#f8d285" d="M45.8 4.4c-1.9-1.3-5.3-.2-5.8-.2 0 0 0-.1.1-.1 3.5-2.7 8.4-1.8 9.4-1.8.4.2 1.8.9 2.3 1.1 2.9 1.6 7.4 5.1 7.8 10.5-1.6-.7-2.8-1.4-3.7-2.1-.3-.2-7.2-7.4-25.4 1.2 0 0-.5-.3-.2-.9 4.1-6.6 11.6-8.5 23.6-2.3-1.8-2-2.6-3.8-8.1-5.4z"/>
	<linearGradient id="h" x1="28.4666" x2="70.6666" y1="983.7073" y2="1019.6539" gradientTransform="translate(0 -978.567)" gradientUnits="userSpaceOnUse">
		<stop offset="0" stop-color="#f6e8a0"/>
		<stop offset="1" stop-color="#e65271"/>
	</linearGradient>
	<path fill="url(#h)" d="M57.5 41.6c6.8-6.9 9.5-12.1 6.2-17.6-5.3-9-21.6.4-28.7-8.7.8.9 2.3 2.6 3.9 3.4 5.3 3.4 15.2 2.3 18.3 5 4.1 3.3 5.1 10.2.3 17.9z"/>
	<linearGradient id="i" x1="66.5674" x2="25.5469" y1="1008.8189" y2="1019.9746" gradientTransform="translate(0 -978.567)" gradientUnits="userSpaceOnUse">
		<stop offset="0" stop-color="#faa7b5"/>
		<stop offset=".3836" stop-color="#faa100"/>
		<stop offset=".7317" stop-color="#bf73f2"/>
	</linearGradient>
	<path fill="url(#i)" d="M35.5 27.1c0 .5 1.1 3.1.9 3.8-1.4 5.3-7.6 7.8-7.6 7.8s-6.9 2.8-8 15.5c-1.3.9-1.1-1-1-1.9.7-16.7 14.5-14.8 15.7-25.2z"/>
	<linearGradient id="j" x1="175.7573" x2="-16.8898" y1="960.9052" y2="1064.1963" gradientTransform="translate(0 -978.567)" gradientUnits="userSpaceOnUse">
		<stop offset="0" stop-color="#faa7b5"/>
		<stop offset=".3836" stop-color="#faa100"/>
		<stop offset=".7317" stop-color="#bf73f2"/>
	</linearGradient>
	<path fill="url(#j)" d="M59 54.6c-.1-.1-.2-.1-.3-.2-.4-.1-2.1-.5-2.4-.7v-.1c.1 0 0-.1 3.3-.1 1.2 0 2.5 0 3.7-.4 8.1-2.7 14.9-13.9 14.9-18.3-.1.1-.2.1-.2.1-8.8 6-16 4.9-16 5.3-12.5 13.1-39.7 5.8-47.3 21-3.9 3.9-3.5 9-.7 13.6l.3.6c.1-.5.1-1 .2-1.5 1.9-12.7 21.3-9 27.1-13.6 1.7-1.3 3.6-2.2 5.6-3 .1 0 .1 0 .2-.1-10.7 0-17.4-.7-29.5 6.7-.1 0-.2.1-.3.1.1 0 .1-.1.2-.1 9.3-6.9 15.7-8.1 24.8-7.7 4.5.2 6.3.6 6.6.3 2.5-.7 9.8-2 9.9-2l-.1.1z"/>
	<path fill="#fff" opacity=".2" d="M21.5 61.5c8-9.5 28.7-4.5 37.5-6.9-5.6 3.2-10.1 2.7-10.1 2.7s-19.1-2.1-27.4 4.2z"/>
	<path fill="#e65271" d="M82.4 25.4c-.3 0-.5.1-.7.1-1.5.4-2.3.6-3.9 1.9-2.6 2.1-4.9 4.6-7.2 4.6 1.4-.7 2.2-2 3.1-3.3h-.1c-7 3.5-6.9 4-9.1 8 0 0 0 .1-.1.2 4.3-.9 9.6-4 13.2-6.6.1 0 .1-.1.2-.1 0 0 0 .1-.1.1C70 38 64 37.5 63.6 37.9c-.4.4-.7.9-1.1 1.4 8.8-1.8 16.9-4.3 19.6-12.8.2-.3.2-.7.3-1.1z"/>
	<path fill="#8b4fba" opacity=".6" d="M37.3 49.6c17.8-6.7 11.9-3.1 28.5-15.5 0 0 1.8 1.4 4.2-.4-1.6 1.9-6.5 3.4-6.5 3.4s-.2 1.5-1.8 2.7c4.4-1.5 11.8-1.1 16.9-5.7-4 10.9-13.6 2.6-22.9 9.4-1.1.6-15.2 4.3-8.2 4 7-.2 11.7 4.6 17.5 3-5.5 2-10.4-1.2-18.1-1.7 1.2.2 2.8.9 3.5 1.8-2.8-2-8.2-2.1-9.5-1.6-1.1.1-2.3.3-3.6.6z"/>
	<path fill="#2b2b2b" opacity=".2" d="M63.9 53c-8.1 3.2-36.6-6.1-49.5 8.3 0 0-1-.4 4.1-6.2 20.1-9.5 35.1-.5 45.4-2.1z"/>
	<radialGradient id="k" cx="-6828.8716" cy="-2757.2566" r="1" gradientTransform="matrix(-6.6829 -2.0243 3.9036 -12.8872 -34804.4141 -49311.3672)" gradientUnits="userSpaceOnUse">
		<stop offset=".0091" stop-color="#fff"/>
		<stop offset="1" stop-color="#fff" stop-opacity="0"/>
	</radialGradient>
	<path fill="url(#k)" opacity=".7" d="M76.4 40.2c2.4-1.3.4 1.9-1.9 3.9-9.4 6.6-13.7-.9-23 2.7 14.2-7.9 15.6 1.9 24.9-6.6z"/>
	<path fill="#8b4fba" opacity=".2" d="M75.7 42.1c2.4-1.3 1.2.1-1.2 2-9.4 6.6-13.7-.9-23 2.7 9.1-5.1 14.9 3.8 24.2-4.7z"/>
	<radialGradient id="l" cx="-6828.8716" cy="-2757.2566" r="1" gradientTransform="matrix(-6.6829 -2.0243 3.9036 -12.8872 -34804.4141 -49311.3672)" gradientUnits="userSpaceOnUse">
		<stop offset=".0091" stop-color="#fff"/>
		<stop offset="1" stop-color="#fff" stop-opacity="0"/>
	</radialGradient>
	<path fill="url(#l)" opacity=".7" d="M29.2 38.5c-4.4 4-.9 12.7-.9 12.7l-3.1.7c-.1 0-3.2-8.4 4-13.4z"/>
	<radialGradient id="m" cx="-6412.1646" cy="-2957.7795" r="1" gradientTransform="rotate(180 -34981.1406 -16124.60545) scale(10.9158)" gradientUnits="userSpaceOnUse">
		<stop offset=".0091" stop-color="#fff"/>
		<stop offset="1" stop-color="#fff" stop-opacity="0"/>
	</radialGradient>
	<path fill="url(#m)" opacity=".7" d="M36.7 31.8c3.3 5.8-5.4 13.9-.7 16.7-.1.4-2.7 1.7-2.6 1.3-5.8-8.9 3.7-11 2.5-16.5-6.7 9.1-6.7 10.9-3.5 16.7 0 0-.4.5-.8.2-5-3.7-6.5-8 5.1-18.4z"/>
	<path fill="#8b4fba" opacity=".2" d="M47.4 43.7c.2 2.7 2.1-1.7 2.4-4.8.2-11.5-11.4-8.7-11.9-18-1.1 10.6 11.5 10.4 9.5 22.8z"/>
	<path fill="#fff" opacity=".3" d="M58.7 39.2c.2 2.7 5.7-4.3 6-7.4-1.8-19.7-22.1-7.7-27.4-15 4.4 8 32.7-3.1 21.4 22.4z"/>
	<linearGradient id="n" x1="96.525" x2="85.713" y1="1049.8386" y2="1074.207" gradientTransform="translate(0 -978.567)" gradientUnits="userSpaceOnUse">
		<stop offset=".0041" stop-color="#faa7b5"/>
		<stop offset=".3836" stop-color="#faa100"/>
	</linearGradient>
	<path fill="url(#n)" d="M95.8 77.5c-2.7 2.7-2.7.4-6.3.7-.9 0-.9 3.1-5.5 4.8-.2.1-.4.2-.4.5-.5 3.4 1.6 4.8 4.9 5.7 1.8.4 4.3.8 6 .2 2.5-.7 2.9-2.8 3.2-5.8.2-2.2-.4-4.2-1.9-6.1 0 .1 0 0 0 0z"/>
	<path fill="#f6e8a0" opacity=".3" d="M91.6 77.7c.1.7 1.4.9 2 .8 1.5 0 2.6-1.7 2.7-1.8 3.5 2.6 1.2 7.5-4.6 6.8-2.2-.3-3.9-1.4-4.7-2.9.6-.7.8-1.7 1.5-2.3.7-.6 2.1-.7 3.1-.6z"/>
	<linearGradient id="o" x1="24.6504" x2="15.8081" y1="979.5824" y2="1046.7827" gradientTransform="translate(0 -978.567)" gradientUnits="userSpaceOnUse">
		<stop offset="0" stop-color="#faa7b5"/>
		<stop offset=".3836" stop-color="#faa100"/>
		<stop offset=".7317" stop-color="#bf73f2"/>
	</linearGradient>
	<path fill="url(#o)" d="M17.2 56.7c-1-4.9-1-12.1 1.7-16.2v.1C17 45 18.2 53.4 18.8 54c.4-.3.8-.5 1.1-.8 0-3.9-1-9.5 6.1-20.2 0-.1.1-.1.1-.2v-.1c-8.1 2.7-9.2 4.8-11 11.9 0-6.4 2.4-8.3 1.3-10.5-2.2 2.2-5.3 16.2-1.4 21.7.1.2 1.4 1.1 2.2.9z"/>
	<path fill="#2b2b2b" opacity=".2" d="M23.6 32.7s-4.4.6-6.2 3.6c-3 5-3.6 15.4-.2 20.4-2-16.5 6.4-24 6.4-24z"/>
	<linearGradient id="p" x1="17.1771" x2="8.3193" y1="978.5436" y2="1045.8635" gradientTransform="translate(0 -978.567)" gradientUnits="userSpaceOnUse">
		<stop offset="0" stop-color="#faa7b5"/>
		<stop offset=".3836" stop-color="#faa100"/>
		<stop offset=".7317" stop-color="#bf73f2"/>
	</linearGradient>
	<path fill="url(#p)" d="M15.6 56.4c-2.1-.7-3.4-3.2-3.7-5.4-.9-4.3.1-8.7.1-9.7-.1.1-.1.1-.2.1-3.3 3.5-5.8 7.4-7.5 12v.4c1.8 5.7 5.8 11.7 6.6 12.5 0-.6.3-1 .1-1.6-.3-.8-.8-2.5-.2-3.1.2.6.4 1.1.8 1.6.1-.2.2-.4.1-.7-.4-1.2-.7-2.6-.3-3.8.3.8.7 1.4 1.2 2l.1-.1c1.6-3.1 2.9-3.9 2.9-4.2z"/>
	<path fill="#2b2b2b" opacity=".2" d="M12.2 60.2s-4.9-9.6-2.6-17.8c.3-.2-.5.4-1.3 1.4-.1.2-1.8 11 1.6 15.8C5.3 54.3 7.5 44.7 7.3 45c-3.4 5.1-.5 15 4.6 19.2l.3-4z"/>
	<path fill="#e65270" d="M87.3 94.8c-.6.9-.9 1.3-.7 2 .2.8.9.4 2 .4.7 0 .3.4.6.7.1.4.4.7.8.7 1.1.3 2.1-2.5-.2-2.9h-1.3l-.1-.1c.1-.1.2-.3.3-.3.9-.6 3.5.7 6.5-1.4.8-.7 2.7-2.8 2.2-3.1-.1-.1-.3 0-.5 0-.7.2-1.5.6-2.2.8-2 .5-5.4.4-7.9-.6-3.1-1.2-4.5-2.9-4.9-3.1-.6-.4-.6.6-.4.9.5 2.4 2 4 4.1 5.1.6.4 1.2.7 1.7.9z"/>
	<linearGradient id="q" x1="4.2044" x2="8.1854" y1="1007.2497" y2="1054.0942" gradientTransform="translate(0 -978.567)" gradientUnits="userSpaceOnUse">
		<stop offset="0" stop-color="#faa7b5"/>
		<stop offset=".3836" stop-color="#faa100"/>
		<stop offset=".7317" stop-color="#bf73f2"/>
	</linearGradient>
	<path fill="url(#q)" d="M2.9 50.6c-.1 8.6 2.7 16 8.4 22.3-.3-2-.2-3.1-.4-4.7 0-.7-6.7-9.1-7.7-15.6-.2-.7-.2-1.3-.3-2z"/>
	<linearGradient id="r" x1="75.046" x2="73.2807" y1="967.9036" y2="1050.0465" gradientTransform="translate(0 -978.567)" gradientUnits="userSpaceOnUse">
		<stop offset="0" stop-color="#faa7b5"/>
		<stop offset=".3836" stop-color="#faa100"/>
		<stop offset=".7317" stop-color="#bf73f2"/>
	</linearGradient>
	<path fill="url(#r)" d="M72.9 22.5c1-1.8 2.1-3.5 2.5-5.5.1-.4-.4-3.1.7-6.7 1-1.9-3.8-2.1-3.3 12 0 .1 0 .1.1.2z"/>
	<path fill="#8b4fba" opacity=".4" d="M73.5 11.2c.2-.4 1-1.3 1.3-1.5l.7-.4c-1.8 4.5-.4 8.4-.3 10.2.1 1.3-.5 2-1.2 3-.3.5-.7 1.5-1.4 1.5-.3-.8-.3-1.7-.3-2.5 0-1-.2-1.9-.1-2.9-.1-1.9.9-6.7 1.3-7.4z"/>
	<path fill="#e65270" d="M97.4 87.7c-.1 0-.1 0 0 0-1.8 3.6-7.8 2.6-11.5 1-2.6-1.3-2.5-2.8-2.9-3.7-.5 0-1.2.5-1.2 1.1 0 .2.1.4.1.6 1.2 2.7 8.9 6.7 15.7 3.3.4-.2.6-.6.6-1.1-.1-.6-.4-1-.8-1.2z"/>
	<path fill="#2b2b2b" opacity=".4" d="M97.4 87.7c-.1 0-.1 0 0 0-1.8 3.6-7.8 2.6-11.5 1-2.6-1.3-2.5-2.8-2.9-3.7-.5 0-1.2.5-1.2 1.1 0 .2.1.4.1.6 1.2 2.7 8.9 6.7 15.7 3.3.4-.2.6-.6.6-1.1-.1-.6-.4-1-.8-1.2z"/>
	<path fill="#0d0d0d" d="M70.5 63c0 3.6 2.9 7.1 9.3 7.1-5.4-1-8-3.6-9.3-6.8V63zm13.3-13.7c1.8-1.1 2.1-3.6 1-5 .2 1.8-.1 3.5-1 5zm5.9 10.8c.5 0 1.5-.2 2 0 .4.1.6 0 .8-.4 1.6-4.9-1.9-7.4-4.6-5.8-.2.1-.4.3-.6.4l-.6.6c.3.3.7.6.5 1-.4 1.6 1.1 2 2.5 2.6.4.1.9.3 1.1.1.5-.3.8-.7 1-1.2.3.8-.3 1.7.1 2.1-.1 0-.1-.1-.2-.1-1.2-.8-5.5-.4-5.5-3.9-1.8 2.7.7 4.6 3.5 4.6z"/>
	<linearGradient id="s" x1="91.9614" x2="87.5809" y1="1030.9618" y2="1038.1902" gradientTransform="translate(0 -978.567)" gradientUnits="userSpaceOnUse">
		<stop offset="0" stop-color="#faa7b5"/>
		<stop offset=".3836" stop-color="#faa100"/>
		<stop offset=".7317" stop-color="#bf73f2"/>
	</linearGradient>
	<path fill="url(#s)" d="M89.5 57.7c2.3 0 2.2-3.4 0-3.4-1 0-2.3 3.4 0 3.4z"/>
	<path fill="#fff" d="m88.4 55.7.4-.2c.1 0 .1-.2.1-.7 0-.1 0-.1-.1-.2l-.4-.2h-.2l-.4.2c-.1 0-.1.1-.1.2 0 .7 0 .6.1.7l.4.2h.2zM96.1 84c.7-1.4.6-2.9 0-4.3-.4-.8-1.6-.1-1.2.6.5.9.6 2.1.1 3-.4 1.1.9 1.2 1.1.7z"/>
	<path fill="#430a1d" opacity=".2" d="M22.6 88.1c-.4-12.1 7-8.2 10.3-13.3.3-.3.4-.7.6-1-3.7 2.1-14.1.7-10.9 14.3z"/>
	<path fill="#2b2b2b" opacity=".2" d="M17 64.5c10.2-8.8 30.4-7.9 31.9-7.7-8.5 6-33.9.4-34.8 18.8-1.7-5.3.4-9 2.9-11.1z"/>
	<path fill="#430a1d" opacity=".2" d="M33.3 74.3v4.6c0 1.9-2.4.9-3.3-1.7 2.3-.9 3.3-2.9 3.3-2.9z"/>
	<path fill="#430a1d" opacity=".2" d="M32.1 75.2c1.7-3 0-5.6-.3-5.8 1-.1 2.8-1.9 3.3-2.5.7-1 .7-2.3.8-3.5 1.4-.1 2.4-.9 3.6-1.2-2.8 2.5-3.3 3-4.7 7.4-.3 1-1.4 5.2-1.3 5.9 0 0-.2 7 1.2 10.5-3.6-1.2-7-6.3-4.9-8.7.9-.3 1.8-1.2 2.3-2.1z"/>
	<path fill="#0d0d0d" d="M37.6 99.5h37.5c8.8 0 7.9-8.4.9-8.4-.4 0-.6.1-1.3.1-.1 0-.2-.1-.3-.1 4.8-4.8 2.4-6.7 3.6-7.1 2.5 0 3.8-.4 4.4-.4-.1.1-.1.2-.2.2-.8.4-1.3 1-1.5 1.8-2.4 7.3 4.7 9.2 4.7 10-.7 1.7.8 3.2 2.8 2.4 0 .1 0 .2.1.3.2.8.7 1.1 1.5 1.6h.5s0-.1.1-.1c1.4-.2 2.3-1.5 1.6-3.6 1.1-.4 5.9-.9 7.4-6.3.3-1.2.1-2.2-.8-3.1-.1-.1-.1-.2 0-.3.6-3.5 1.3-6.5-2-10.2-.3-.3.2-1.1.2-2.1.3-2-1.3-3.2-1.3-3.4-.5-1.7-3.3-2.2-5.2-1.9-1.8.2-2.9 1.5-3.5.9-.1 0-.1-.1-.2-.1-.4-.4-.1-.4.1-.6 2.1-.7 2-.2 3.4-.5 2.8-.3 4.3-1.7 4.7-1.7 3.4-.6 3.5-3.8 3.6-3.9 1.5-2.3.1-4.3-.6-6.1-.6-1.2-.3-2.2-1-5-1.4-5.1-5.3-8.9-11.3-9.6-.8 0-.8-2.1-3.5-3.1-2.5-.6-5.4 4-5.5 4-.1 0-.3.1-.4 0-.1 0-.1-.2-.1-.3s.1-.2.2-.4c3.8-5.5 3.5-9.3 4-9.8 1.4-1.4 3.1-2.8 3.1-5.2 0-.1-.1-.2-.1-.3-.1.1-.2.1-.3.2l-.3.6-.3.3v-.1c.5-1.2 1.9-6.3.8-5.7-.2 0 .1.1-2.9 2.1 0-.2-.1-.4-.1-.5-.9-5-2-5.9-1.6-8.5.2-1.6 1.1-1.8 1.1-2.1-.1 0-.1-.1-.2-.1-.9-.2-1.9-.1-2.4 1-.1.1-.1.2-.2.4-1.4-2.8.2-5.4.7-6.9.3-1.6-2.7-.7-4 1.7 0 .1-.1.2-.2.3-1.4-1.4-.9-1.3-1.7-2.8-.1-.3-.3-.3-.4 0 0 .1-.1.1-.1.2-.1.2-.2.2-.3 0-.1-.2-.2-.3-.2-.5-.5-1.4-1.5-2.2-1.7-2.2 0 .3.2 1.1.2 1.4H69c.2.2-3.6-2.8-9.4-4.2-1-.2-2.1-.3-3-.9h-.1c-.2-.1-.3 0-.5.1-.1.1-.3.1-.4.1C52.4 1.1 52.7 0 51 0c-.1 0-.3.4-.4.6-.9 1.3-1.4 0-7.1 1.6C30.6 5.5 27.8 14.7 29.9 14c4.6-.8 11.2 6.4 5.7 11.9-.2-.6-.5-2.6-2-4.2-.5-.6-.7.1-.6 1.1.4 3.3-1.7 5.8-2.3 5.8-2.2.8-8.1 2.6-13 5.6 0 0-.1 0-.1.1-.5-.5-.2-1-.2-1.9.2-1-.7-.7-1.5.1-1 1.1-1.4 2.4-2.1 4.2-.5 1.1-2.6 1.9-6.4 6.8-1.5 2-2.8 4.2-3.9 6.5 0 .1-.1.1-.1.2l-.1.1c-.3-2-.4-4-.2-6.1-1.7 5.2-.9 9.4-1.2 9.7-6.5 22.4 9.5 45.6 35.7 45.6zM10.9 68.1c0 2 .4 4.4.4 4.7-5.7-6.3-8.5-13.7-8.4-22.3 1.1 8.8 8 16.8 8 17.6zm15.2-35.5c-.1.1-.1.2-.1.3-3.6 5-5.7 11-6.1 15.2-.3 2.7 0 4.5 0 5-.4.3-.7.5-1.1.8 0-.1 0-.2-.1-.2-.9-4.1-1.4-9.3.3-13.2v-.1c-2.9 4.3-2.5 11.1-1.7 16.2-.4.2-.9.1-1.6-.3 0 .1 0 .2-.1.2-1.1 1.2-2 2.5-2.7 3.9 0 0 0 .1-.1.1-.5-.6-1-1.2-1.2-2-.8 2.3.8 3.9.2 4.5-.5-.4-.6-1-.8-1.6-.6.9-.1 2.4.2 3.1.2.6-.1 1-.1 1.6-.1-.1-.2-.2-.2-.3-2.6-3.6-5.2-7.9-6.4-12.2 0-.1-.1-.3 0-.4 2.5-6.9 7.3-12.1 7.7-12.1 0 1.7-1.1 4.9-.1 9.7.5 2.3 1.5 4.7 3.7 5.4-4.7-4.7-1.7-19.8.8-22.3 1.1 2.2-1.3 4-1.3 10.5.5-2.1.9-5.4 4.5-8.9.7-.7 4.7-2.4 5.7-2.7l.6-.2zm50-22.3c-2.2 6.7 1.4 4.6-3.2 12.2 0-3-.1-11.9 2.8-13 .2-.1.3-.1.4 0 .2.2 0 .6 0 .8zm1.3 15.2c-7.6 4.6-7.2 1.6-10.4 6.3 0-.1 0-.2.1-.3 1.8-7.1 3.5-6.4 3.5-8.5h-.1c-.6.6-1.6 2-1.6 1.6-.4 0-.1-1.2 0-1.6.4-1.1 1.3-2.3.7-2.9-.1.1-.3.1-.3.2-.4.4-.6 1-.9.5-.2-.5.4-2.3.5-2.7 0-.2 0-.5-.3-.7-.1.1-.1.2-.2.3-.4.8-.2.3-.9 2.1-.5 1-1-.7-2.1-2.3-.9-1.2-.3-3.2-1-3.9-.1.3-.1.5-.1.7-.2.5-.1 1.5-.6 1-.5-1 .1-1.9-.5-2.5 0 .1-.1.1-.1.2 0 .8-.1.8-.1 1.2-.1.3-.3.4-.5.1-.6-.6-.5-2.1-1-2.6 0-.1-.2-.1-.3-.1-.1 0-.1 0-.1 1.7H61c-1-1-.5-1.3-.8-1.9 0-.2-.2-.3-.5-.3s-.4.2-.5.6v.7C55.1 9.6 44.4 7.7 40.3 11c-.1.1-.3.2-.4.4 1.4-.7 3.4-1.9 8.1-1.1 3.2.5 6.2 1.5 9 3 4.1 2.2 6 4.9 6.1 5-3.3-1.6-7 1.4-10.7.1 5.1 2.6 8.1-.8 10.9 1.4.7.6.9 2-.8 1.7-1.6-.2 2.4.6 3.1 4.7 0 2.2-1.2 6.5-4.4 10.4-2 2.5-4.6 4.4-7.5 5.9h-.1v-.1c0-.1.1-.1.1-.2 5.8-8.2 4.6-15.3-6-18.5-.4-.1-.9-.2-1.4-.4l.1.1c.1 0 .2.1.3.1 1.4.6 2.8 1.2 4 2.1 5.9 4.3 4.4 11.3.5 17.5-.7 1.1-1.4.9-3.2 1.7 2-2.2 2.1-5.2 1.7-7 0 3.6-3.3 6.9-6.6 8.5 1.8-2 2.1-4.6 1.7-5.5-1.1 3.7-5.2 6.8-8.8 8.3-4.8 1.8-12.6 2.6-15.2 4.7-.2-.3-.4-1.6-.5-2.5C20.2 39.4 29.2 33.2 32 30c1.2-1.4 1.8-3.6 2.2-4.6l.1.1c.8 1.5 1.3 3 .9 4.7-.8 3.6-2 5.2-3.7 6.9.1-.1.1-.1.2-.1 6.4-3.6 8.6-9 7.5-16-.4-3.7-3.1-6.6-6.7-7.5-.3-.1-.5-.2-.8-.3-.3-.2-.4-.5-.3-.8 0-1.3 9.2-8.6 14.7-7.2.1 0 .3-.1.4-.1-.1-.1-.1-.2-.2-.3-1.6-1.1-4.6-.1-5.4-.1 2.1-1.8 5.2-2.2 7.9-2 1 0 1.1.1 3.2 1.2.1 0 .2.1.3.1l.1-.1c-.1-.1-.1-.3-.2-.4-.2-.4-.4-.7-.6-1.1v-.3c.5 0 .8.2 1.4.4 1.9 1.2 5.2-.8 7.2 3.1.1.1 0 .2.3.2-.2-.6-.4-1.3-.6-1.9.6.1 1.2.6 1.8 1.2.6.6.6.9 1.1 1.2 0 0 .1 0 .1-.1 0-.4-.1-.8-.1-1.3h.1c.8.4 3.3 2 4.5 3.6.2.5.4-.7.5-.9 0-.3.4-.3.4 0 .2.5-.1 1.4.4 1.9.1-.1.2-.1.3-.3.1-.3.3-.6.4-.9.1-.3.2-.3.4 0 .7 1.1 1.3 0 1.5.9.6 1.4.7 2 1.3 2.9 0 .1.1.2.1.2-1.8 6.4.7 11.4-2 14.1.1 0 .3-.1.4-.2 3.3-1.6 4.4-7.4 5.8-9.6 0-.1.2-.1.2-.1.1 0 .1.1.2.2 0 1.8-.1 2.5 0 3.4 0 .1.1.3 0 .4-.4 1.3-.8 2.5-1.6 3.6 0 0 0 .1-.1.2 1.1-.5 1.5-1.4 2.2-2.5.1.5 1 2.7-.4 3.7zM62.6 39.4c1.2-1.5 1.1-1.5 1.3-1.5 5.4-.7 10-3.8 13.9-7.5 0-.4-6.7 5.3-13.3 6.6.1-.1.1-.2.1-.2 2.4-4.3 2-4.4 9.1-8h.1c-.8 1.3-1.6 2.6-3.1 3.3.4-.1.7-.1 1.1-.2 3.4-.9 6.5-6.4 10.7-6.4-1.9 9.3-11.5 12.2-19.9 13.9zm.5 13.8c-1.4.5-2.7.4-6.3.4-.2 0-.4.1-.7.1v.1c.2.1.4.2.6.2.6.2 1.2.3 1.8.5.1 0 .2.1.3.2v.1c-.1 0-.2.1-.2.1-16 2.7-5.5 2.2-16.5 1.7-9.9-.8-17.1 2-24.8 7.7-.1 0-.1.1-.2.1.1 0 .2-.1.3-.1 12.5-7.6 19.2-6.7 29.5-6.7-.1 0-.1 0-.2.1-4.6 1.8-5.6 3.3-7.3 3.9C30.9 65 15.4 63 14 74.3c-.1.5-.1 1-.2 1.5l-.3-.6c-2.8-4.7-3.2-9.7.7-13.6.3-.6.5-1.2.9-1.8 6.3-10 30.3-9.5 38.7-13.9 6.6-3.3 7.3-5.4 8-5.4 4.1 0 10.1-1.5 15.7-5.2.1 0 .1-.1.2-.1 0 .9-.8 3.1-1.2 4-3 8-10.9 13.6-13.4 14zm34.1 33.3c-1 5-9.3 3.1-11.8 1.4-1.7-1.1-2.1-2.4-1.8-4.4 0-.8 3.3-1 5.3-4.8.3-1 2.7-.6 3.6-.1 1.2.6 2.3-.1 3.3-1.1 0 0 0 .1.1.1 2.6 3.1 1.8 6.2 1.3 8.9zm-14.8 1.9c2.4 2.2 5.5 3.4 8.9 3.6 1.8.2 2.9.1 5.6-1.1.2-.1.4-.1.5 0 .2.1 0 .4 0 .5-1.3 2.6-3.8 4.2-7.8 3.8-.8 0-.8.1-1.2.5l.1.1c.7 0 .9-.1 1.3 0 2.6.4.9 4.5-.6 2.2 0-.1 0-.2-.1-.3 0-1.1-1.9.4-2.5-.8-.3-.8.2-1 .7-2-.5-.2-1.1-.4-1.7-.7-4.4-2.3-5.2-7.8-3.2-5.8zM83 85c.5 1.2.3 2.4 2.9 3.7 3.6 1.7 9.8 2.6 11.4-1 1 .4 1.2 1.7.2 2.2-7 4.2-16.6-2.2-15.8-3.9.2-.5.8-1 1.3-1zM5.4 72.5c-2-3.5-3-7.1-3-7.7 0-3 .4-5.8.6-6.5 0 .2 0 .2.1.3 3.4 11.3 8.2 15.6 9 17.1.7 2.2 1.8 4.2 3.1 6.1-1.5-.6-3.2-.9-5.2-3.2 2.5 4.8 8.4 6.7 8.4 6.7 5.3 4.6 10.1 5.6 12.3 6.3-.1-.1-.2-.1-.2-.1-6.7-2.4-13.2-7.3-15.9-14.4-.3-.7-.1-1.2.2-2.1C18 64.4 27.9 65.5 38 63.5c0 .1 0 .1-.1.1-1.2 1.4-2.2 2.8-3 4.5 0 .1-.2.2-.3.2-3.7 1.1-2.4.5-5.5 1.1-5.8 1.2-7.6 4.3-7.6 4.3 2.5-2.6 9.6-4 12.4-3.4-1.6 5.4-1.4 10.6.8 15.7v-.3c-.9-3.3-1.2-6.7-.7-10.1 2.4-16.2 21.6-17.8 27.9-19.9 9.4-2.7 8.2-7.6 15.5-10.7.8-2.4 4.5-5.8 5-4.2 0 .1.1.2.1.3l.6.3c.1.1.2.2.4.3.5.5.9 1.1 1.2 1.8.5.5 10.4 1.1 11.6 11.7.1.5.1 1.1.2 1.6 0 .1 1.4 3.1 1.5 3.5.5 1.5 0 2.2-.2 2-.5-.3-1.5-1.6-2.1-1 .1.1 1.5 1.4 1.8 1.6.6.6-.8 3.8-3.5 3.3 0 .4-.1.5-.3.6-1.5.8-3.1 1.3-4.8 1.3-3.7 0-2.3 1.9-8.5 1.9.1.1.1.1.2.1 2.6.5 3.3 0 3.9.2 1.8.7 2.6 1.4 3 1.2 2-.8 2.9-1.4 4.7-1.2 1 .2 2.2.5 2.5 1.5 0 .1.1.1.1.2.1.1.3.3.5.4.7.7 1 2.4 0 1.9-.2-.1-.4-.2-.6 0 .8.5 1.3.6 1.3 1.6 0 2-3.1 2.9-3.8 1.4 0-.5-2.1.6-3.9 0-.8 3.2-5.1 6.5-12.6 5.6-10.3-1.5-5.1-11.5-14-16.4-2.9-1.6-5.5-1.3-8.5-.7 2.1.2 5.2 0 9 2.4 2.3 1.5 4.1 3.4 4.8 6.1 1.4 5.4 3.6 8.4 9 9.5.8.4.8 1.7.7 2.6-.7 4-5.5 4.9-5.5 6.9 0 .7.1.9.8.6.1 0 .2-.1.3-.1 6.8-3.4 8.7 1.1 8.2 2.1-.1.1-.3.3-.4.3s-.3-.1-.4-.3c-.1-.1-.1-1-1-1.6-.1 0-.2-.1-.3-.1.7.7 1.1 1.6 1 2.6 0 1.3-1.8 1.5-1.8.9 0-1.7.2-2.3-.9-2.7-.2-.1-.5 0-.7.1.3.1.6.2.8.4.1.3 1.1 1.8-.1 2.6-.9.6-2.2.2-3.1 0-1.1-.3-1.3-.3-2.4 0-2 .3-.1.2-34.8.2C20 98.3 4.3 85.8 2.7 68c-.2-.4 2.7 5.1 2.7 4.5z"/>
	<path fill="#e65270" d="M82.1 49.4c-.8-1.8-.8-2.5.1-4.2.7-1.3 2.5-.1 2.3-1.5-.1-1.2-1.4-2.6-1.6-2.8-.5-.5-.6-1.1-2-.1-1.1.8-2.1 1.8-3 2.9-1.5 2-.9 3.2.9 4.9.7.6 3.4 1 3.3.8z"/>
	<path fill="#2b2b2b" opacity=".2" d="M80.5 42.7c.4-.5 1.1-.9 1.8-1.4.4-.2-.7 2.8-1.1 3.6-1.1 2.7.3 4.3-.1 4.1-.8-.5-2.1-2-2.1-3-.1-1 .7-2.5 1.5-3.3z"/>
	<path fill="#0d0d0d" d="M81.8 49.2c-1.8-4.1 1.5-3.9.9-8.1 0-.2-.1-.3-.1-.5-.1-.4-.4-.6-.8-.5s-.8.2-1.1.4c-1.1.8-2.1 1.8-3 2.9-1.2 1.6-1 2.6-.2 3.8.3.3.4.3.7.4.4.1.5-.5.4-.7-1.8-3 2.1-6.3 3.6-6.6.6 2.9-3.6 7-1 8.9.4.2.6 0 .6 0z"/>
	<path fill="#8b4fba" d="M31.7 69.5c-.1 0-.2 0-.3-.1.1 0 .2.1.3.1z"/>
	<path fill="#430a1d" opacity=".2" d="M82.5 84.2c1-1.5 2-2 3.3-3.1 1.2-1.1 2.1-2.4 3.2-3.5.9.2 1.9 0 2.9.1.7 1.6 3.9.1 4.2-1l.4.6c.9 1.8-2.4 2-4.3 1.8-1.3-.1-7.1 1.4-6.9 8.8-.6 1-2.2 0-2.2 1.3s0 3.7 1.2 4.5c-.3 1.2-1.5-.1-1.8-.5-3.7-5.3-1.4-6.9 0-9z"/>
</svg>