<svg xmlns="http://www.w3.org/2000/svg" viewBox="0 0 100 100">
	<path fill="#FFCA20" d="M91.066 43.197 57.732 9.867h33.334v33.33Z" opacity=".7"/>
	<path fill="#FFCA20" d="M34.386 0h18.896l14.441 14.437H34.386V0Z" opacity=".7"/>
	<path fill="#FFCF39" d="M35.468 33.337 2.135 0h40.078v33.333l-6.745.004Zm29.283 33.33L98.084 100H64.751V66.667Z" opacity=".9"/>
	<path fill="#FFE490" d="M42.213 66.67 8.883 33.335h33.334v33.333l-.004.004ZM78.111 49.8 51.538 23.212h26.585L78.11 49.8Zm3.107 47.097-30.23-30.226h30.23v30.226Z" opacity=".7"/>
	<path fill="#FCBC7C" d="M42.213 26.552 15.661 0h26.552v26.552Z" opacity=".9"/>
	<path fill="#F9A040" d="M51.122 66.666 84.456 100H51.122V66.666Z" opacity=".8"/>
	<path fill="#F9A040" d="m84.86 79.975-33.29-33.29h33.29v33.29Z" opacity=".7"/>
	<path fill="#FFCF39" d="m51.538 23.212 32.93 32.929h-32.93v-32.93Z" opacity=".9"/>
	<path fill="#FFC737" d="M42.213 99.87 2 59.648h40.213V99.87Z" opacity=".7"/>
</svg>