<svg xmlns="http://www.w3.org/2000/svg" viewBox="0 0 100 100">
	<path fill="#44D1FD" d="M59.964.034 90.948 0 38.964 51.96 25.415 65.431 10 49.998 59.964.034Zm-.289 46.393c.402-.53 1.142-.269 1.704-.337l29.544.007-26.927 26.9-15.494-15.4 11.173-11.17Z"/>
	<path fill="#1FBCFD" d="m33.056 73.023 15.446-15.426 15.494 15.4.065.068-15.556 15.412-15.449-15.454Z"/>
	<path fill="#08589C" d="M48.506 88.477 64.06 73.065l26.873 26.9c-10.122.023-20.24-.008-30.36.015-.576.129-.933-.398-1.3-.724l-10.768-10.78Z"/>
</svg>