<svg xmlns="http://www.w3.org/2000/svg" viewBox="0 0 100 100">
	<path fill="#326ce5" d="M15.3 26.5c-1.8-1.1-1.8-3.7 0-4.9L47.9.5c1-.6 2.2-.6 3.2 0l32.6 21.2c1.8 1.1 1.8 3.7 0 4.9L51.1 47.7c-1 .6-2.2.6-3.2 0L15.3 26.5z"/>
	<path fill="#c1d2f7" d="M54.6 30.3h2.3c1.3 0 2.1-1.4 1.5-2.6L51 14.9c-.7-1.1-2.3-1.1-3 0l-7.4 12.8c-.7 1.1.2 2.6 1.5 2.6h2.3c.9 0 1.7.8 1.7 1.7v14.6l1.5 1c1.2.8 2.7.8 3.8 0l1.5-1V32c0-1 .8-1.7 1.7-1.7z"/>
	<path fill="#326ce5" d="m60.8 58.6-7.9-5.1v2.4c2.6 1.1 5.2 2 7.9 2.7zM83.7 73.5l-12.8-8.3c-3.1-1-6.3-1.8-9.4-2.6-2.9-.7-5.8-1.5-8.6-2.3v3.4c2.6.8 5.2 1.4 7.8 2.1 8.5 2.1 16.5 4.1 23 10.5.3.3.6.7.9 1 .7-1.3.4-3-.9-3.8zM46.1 57.5c-1.1-.6-2.2-1.2-3.2-1.9L40 57.5c2 1.4 4 2.6 6.2 3.6v-3.6zM55.8 68.3c-1-.2-1.9-.5-2.9-.7v3.3c.7.2 1.4.4 2.1.5 8.5 2.1 16.5 4.1 23 10.5l2.8-1.8c-.2-.2-.3-.4-.5-.5-7.1-7-15.9-9.2-24.5-11.3zM46.1 65.6c-3.7-1.3-7.2-2.9-10.4-5.3l-2.9 1.9c4.1 3.4 8.6 5.4 13.2 6.9v-3.5zM46.1 73c-6.4-1.7-12.3-3.7-17.4-8.1l-2.8 1.8c6 5.5 13.1 7.8 20.2 9.7V73zM52.9 78c6.6 1.7 12.9 3.8 18.2 8.5l2.8-1.8c-6.2-5.8-13.6-8.1-21-10V78zM21.7 69.3l-2.8 1.8.3.3c7.1 7.1 15.9 9.3 24.5 11.4 7.4 1.8 14.5 3.6 20.4 8.3l2.8-1.8c-6.7-5.7-14.7-7.6-22.5-9.6-8.4-2.1-16.3-4.1-22.7-10.4zM15.8 74.8c-.3-.3-.6-.6-.9-1-1.3 1.3-1.1 3.5.5 4.5l9.6 6.2c4.2 1.8 8.7 2.9 13.1 3.9 6.8 1.7 13.3 3.3 19 7.2l2.9-1.9c-6.6-4.7-14-6.5-21.2-8.3-8.5-2.1-16.6-4.1-23-10.6zM47 98.9c.6.3 1.3.6 1.9 1 .7.2 1.5 0 2.2-.4l1.6-1C47.5 95 41.8 93.3 36 91.8l11 7.1z"/>
</svg>