<svg xmlns="http://www.w3.org/2000/svg" viewBox="0 0 100 100">
	<path fill="#734f96" d="M18.8 0h62.5C91.6 0 100 8.4 100 18.7v62.5c0 10.4-8.4 18.8-18.8 18.8H18.8C8.4 100 0 91.6 0 81.2V18.7C0 8.4 8.4 0 18.8 0z"/>
	<path fill="#fff" d="M13.6 84.7c0-4 0-4.3.4-4.3.2 0 2.3-.1 4.6-.2 3.7-.2 4.3-.3 5.2-.7.7-.3 1.1-.8 1.4-1.4.4-.9.4-1.1.4-28.3 0-25.6 0-27.4-.4-28.1-.4-.7-1.2-1.4-2.2-1.7-.4-.1-2.7-.3-5.1-.4l-4.3-.1v-8.6h72.7v32.3h-3.8c-2.1 0-4.1-.1-4.4-.2-.5-.1-.5-.2-.8-3.5-.3-4.2-.6-6.1-1.3-8.9-1.5-6.1-4.6-9.4-9.6-10.3-2.1-.4-11.4-.7-19-.7h-5.2v24.3l2.8-.1c3.2-.2 5.6-.5 6.8-1 1.3-.5 2.6-1.9 3.3-3.3.7-1.5 1.1-3.4 1.4-6.4.1-1.2.3-2.4.3-2.7.1-.5.1-.5 4.3-.5h4.2v38.8h-8.6l-.1-2.2c-.3-4-1-7.9-2-9.7-1.3-2.5-3.8-3.6-9-4-1.1-.1-2.4-.2-2.8-.2l-.7-.1.1 12.2c.1 12.9.1 13.4 1.1 14.4 1 1.1 1.6 1.2 11.8 1.5.2 0 .3 1 .3 4.3v4.3H13.6v-4.5z"/>
</svg>