<svg xmlns="http://www.w3.org/2000/svg" viewBox="0 0 100 100">
	<path fill="#d3edf6" d="M17.4 96.4c0 1.4-6.1-4.4-5.5-10.9.2-2.1 0-4.2-.6-6.3 0-.1-.1-.3-.3-.6l-1.1 1.3-.1-.1c0-3-.1-6.1-.6-9.1L8 73.5h-.2c-1.5-7.6-.9-19.2 4.3-24.4-1.3.3-2 .7-2.8 1 1.2-3.1 2.4-4.2 5.4-7.5l-2.5-.9h-.1c.8-.4 3-2.5 8.5-3.9.9-.2.8-.1.8-1 .1-1.6.3-3.1.4-4.7h.1l2.1 4c-.2-6.2.2-12.2 1.9-18.2h.1c0 2.7.1 5 2.4 6.5.4-3.6 1.3-7.1 2.5-10.6l1.7 1.9c.3-2.4.8-4.7 1.7-7l2.4 3.1 1.6-6.7 1 2.3c-.1 3.6 1.7 6.3 4.1 8.8l-2.7 1.4c3.9-.3 5.9-1.9 7.7-5 .5-1.1.5-1.1-.5-1.8-2.6-1.8-4.4-4.1-5.3-7.2 1.1-1.4 2.7-2.2 4.3-2.8l.2 3.2c.4-.2.7-.4 1.1-.6C52.3 1.1 58.3-.3 58.7.1c-5.9 4.6-4.2 3.9-5.5 5.2v.1l-.3.3c-1.2 2.4-1.7 2.8-2.3 4.9l4.5.4.1.2c-3.3 2.9-6.5 5.9-9.5 9.1l3.2.4c-7.2 3.2-6.2 2.6-12 10.3-.9-.9-1.9-1.9-2.8-2.9l-.7 3.3 2 1.8c-2.7 5.5-2.8 4.9-3.4 14.3-.1 2.1-.1 4.2.3 6.3 1 6.3.8 5.8 1.9 8.8h.1l1.3-2.7h.1c.9 4.3 2.9 9.7 6.1 12.7v-2.9h.2c.8.4 4.3 2.5 8.9 4.4 12.1 4.8 12 5.7 18 10.8-.1.3-3.4 6.9-3.6 7.2h-.1v-3.7c-.1.3-1.9 6.7-2 7.2-.3.9-1.4 1.6-3 1.1l-.3.4c-2.1-1.5-1.6-1.3-3.7-2.7l.4 3.6-.2.1c-4.7-3.7-13.1-6.4-18.7-10.9l.2 1.8-.1.1-4.1-2.8c1.9-11.1-5.6-10.1-6.3-13.4l2.3.2c-1.2-2.2-3.1-5.2-2.9-7.7.4.6.7 1.1 1.3 1.3-.4-3.6 1-8.5 1.6-11.6-1.4 2.5-2.9 4.9-3.3 7.9l-1.3-1.3c-.2 1.7 0 5.1.1 6.6.3 4.6 2.8 7.3 4.6 9.6 1.9 2.1 1.9 4.1 2.4 11.7-.9.2-3.4-.4-3.9-1l.4-.2c-1.2-1.2-1.8-1.1-2.1-3.6 0-.2-.2-.4-.3-.6-.2.2-.5.3-.6.6-.7 1.3 3.3 6.3 3.3 10.4 0 .7-.1.8-2.4-.4-.5-.2-.9-.5-1.4-.8v.5c-.1-.1-.3-.1-.4-.2-.5-.4-1-.9-1.5-1.3-.1-.3 0 0-1-2.5l-.2.6c-.7-1.3-1-2.5-1.2-3.8-.3 1.1 0 2.2.2 3.4l.3-.3c.5.9.9 2.1 2.3 3.5.5 1.2 1 2.4 1.2 3.8-1.6-.5-4-1.1-5.6-2.5 0 0-.1 0-.2-.1V95l.1.1.9 1.8-.1.1-1.4-.5-1.2-.1zm1.1-1.6-1-2.5-.4.3-.7-3.2c-.7 1.2.6 4.8 2.1 5.4z"/>
	<path fill="#e9f5fa" d="M68.8 85.4c-5.6-4.7-5.3-5.8-18-10.8-5.6-2.3-7.5-3.7-8.9-4.4h-.2v2.9c-3.1-3-5.2-8.4-6.1-12.7h-.1l-1.3 2.7h-.1c-.6-2.3-2.2-5.5-2.2-15.1.6-9.5.6-8.7 3.4-14.3.6.3 2.4 2 4 3.2 1.4 1.4-.5 3.8 1.9 4.5 3.3 1.1 6.7 1.7 10.2 1.2 1.9-.2 2.6-1.4 3.9-3.5.5-.8.7-.9 1.7-.8 1.6.4-.9 4.2 2.6 5.1 1.5.4 5.7 1 7.5.2-1.4 4.1-2.3 4.4-1.3 5.1.4.4 2 3.8 2.3 4.5 2.2 5.1 1.2 12.8-1.2 16.4-2.7 3.2-5.6 3.7-9.4 3.3 0 .1.1.2.2.2 2.3 1.3 4.6 2.7 6.9 4 .1.1.3.1.4.2.3.3 0 0 3.3 2.9l.2.1c5.9-5.1 4.3-3.3 13.8-8.3.1-.1.2-.1.4-.1-.7 2.7-.6 2.1-.7 2.8.8-.4 1.6-.7 2.4-1.1l1.8-1.2c-.8 2.4-3.7 5.1-5.6 6.7l.1-2.3c-2.2 1.8-4.1 3.8-5.8 5.8h-.1l-.2-2.7c-2.3 1.8-4.3 3.5-5.8 5.5zM42.6 44.9c0 4.1 5.6 6.2 9.7 7 2.4.4 7.5.2 7.8.1-2.3-4.6-2-2.8 1.4-5.8-.6-.5-1.3-.8-2.1-.8-7.4-.7-14.9-.5-16.8-.5zm11.1 14.4h.2c2-4 .9-2.5 3.5-4.1V55c-3.7.2-7.3-.2-10.9-1.3.1 1.5.5 2.9 1.1 4.2l1.4-1.6c.4 1.2.7 2.3 1.6 3.3l1.7-2.5 1.4 2.2zm-16.8-28c3.9-5.1 5.3-8.1 12-10.3l-3.2-.4c3-3.3 6.3-6.2 9.5-9.1l-.1-.3-4.5-.4c.5-1.6 1.9-4.5 2.6-5.2.5.2 0 .1 7.9 1.7.9.1.7.5.7-4.2.8-.2 1.6-.5 2.4-.7C71.2.9 71 1.2 72.9 1l-2 3.5.1.1c1.3-.4 1.9-.7 5.3-1.1v1.4c2.4-.3 4.7-.2 7.1.2-.2.3-1.6 3.3-1.6 3.4-.3.7-.1.6 3.2 1.6.2.1.4.1.6.2-.1.1-4.3 5.3-4.3 5.8-2.6 4.2-2.8 4.6-3.9 6.4v.3c-2.3 3-6.3 12-7.5 14.7-.1.1-.1.3-.1.4l-5-1c-.6-.8-1.4-.8-2-.2-7.3 0-2.6.7-12.9-1.6-.4-.9-1.6-1-2.2-.4h-.1C37.1 32.8 41 36 36.9 31.3zm9.1 1.6c.7-.2 2.1-1.2 3.9-.8.3.1.5.1.8.1-1.1-1.7-4.4-1.2-4.7.7zm5-2.6c-.5-1.1-1.9-1.7-3.2-1.3-1.1.3-2.1 1.5-2 2.4 1.4-1.7 3.2-1.9 5.2-1.1zm14.4 2.1c1.4.1 2.7.6 3.5 1.9.2-1.9-2.2-3.2-3.5-1.9zm2.5 3.9c-.2-2.7-2.4-2.9-3.3-2 1.5.4 2 .5 3.3 2z"/>
	<path fill="#b3e0ee" d="M69.1 60.1c-.2-4.2-.9-6.9-3.4-11 .6.1 2.4.7 3.7.9.4.1 1.6-.2 1.7-.2l-.2 1c3.1-1.5 4.5-4.1 6.4-7.5l.4.6c.7-1.1.2-4.3-.9-6.1 3.5 0 6.2.4 7.5 3.6l-1.2-.2c1.1 1.8 1.6 3.8 1.4 5.9l-.9-.7c0 .2-.1.4-.1.6-.4 1.2-.5 1.6-.5 2.4 1.1 0 0 .1 3.4-1 .9-.2 1.9-.9 1.7 0-1 .4-2.1.7-3.1 1.1-.1 0-.3.1-.4.2 1.3-.1 1.9-.1 2.5.4 1.1.7-.1 1.4-1 2-.2.2-.5.3-.8.4l.5.2c-6 4.3-6.5 4.4-.5 4.4l-.5.6c1.1 0 1.5.1 1.7-.3.3-.7 1.2-.4 2.7-.9.5-.1 1-.3 1.5-.4l.1.1-1.1 1-.2-.6c-7.2 3.2-5.2 2.4-7.4 4h.5l-1.8 1.6c.3.3.5.6.8.7 1.9.6 3.2.4 4.8.4v-.2l-.7-.3 3.8-.5c-2.6 1.6-5.6 1.4-8.5 1.9 0 .8.7 1.1 1.1 1.7l-.3.3c.4.4 1.5 1.1.7 1.1-3.1.2-5-.9-7.5-2-.1 0-.2 0-.3-.1l.4.9c-3.1-.6-2.5-.2-5.5.5 0-.3.1 0 .1-6.5-.4.1-.5 0-.6 0z"/>
	<path fill="#65c1dd" d="M68.8 85.4c1.5-2 3.5-3.7 5.4-5.4l.2 2.7h.1c1.8-2 3.6-4 5.8-5.8l-.1 2.2c1.9-1.5 4.8-4.3 5.6-6.7h.1c-1.5 5.7-1 3.6-8.6 15.9-.1.2-.1.4-.2.6v.1h.1c2.6-1.3 2.2-1.2 3.5-1.6-6.2 12-6.3 12.3-7 12.3-8.2 0-10.7.7-13.7-2.3 1.1.4 2.8 0 3-1.1 0-.1 1.9-7.1 2-7.2v3.7h.1l3.7-7.4z"/>
	<path fill="#65c2dd" d="m37.8 89.1-.1-1.9c2.2 1.7 1.8 1.2 5.5 3.6l-3 .8c3.5 1.5 6.7 3.7 8.3 7.7-5.1.5-18.8.5-20.7.7-2.2.2-2.9-1.4-3.5-2l-.9.7c-.6-.5-1-1-1.3-1.7l2.6.8c-.2-1.7-.9-3-1.6-4.8.5.4 1 .9 1.5 1.3.1.1.3.1.4.2l.1.1V94c.5.3.9.6 1.4.8 2.2 1.1 2.4 1.1 2.4.4 0-3.8-2.8-7.2-3.3-9.7-.3-.7.4-1.1.6-1.3.1.2.3.4.3.6.3 2.5.8 2.3 2.1 3.6l-.4.2c.5.6 3 1.2 3.9 1l-.3-4.5c6 4 0-.1 6 4z"/>
	<path fill="#ebf7fe" d="m82.4 67.1-.9-.8.3-.3c-.4-.5-1.1-.9-1.1-1.7 2.9-.5 5.9-.3 8.5-1.9l-3.8.5.7.3v.2c-1.6 0-2.9.2-4.8-.4-.3-.1-.6-.5-.8-.7l1.8-1.6h-.5c2.3-1.6.2-.8 7.4-4l.2.6 1.1-1-.1-.1c-.5.1-1 .3-1.5.4-.6.1-2.4.3-2.7.9-.2.5-1.3.3-1.7.3l.5-.6c-2 0-5.4.2-3.9-1.1 1.1-1.1 2.9-2.4 4.4-3.3l-.5-.2c.8-.6 3.1-1.4 1.8-2.4-.7-.5-1.2-.5-2.5-.4.1-.1.3-.1.4-.2 1-.4 2.1-.7 3.1-1.1 3.3 0 3.6.1 5 2l-.1.1-1.2-.4c.7 1.2 1.3 2.3 1.4 3.7-.1 0-.2-.1-.2-.1 0-.1-.1-.2-.1-.3-1.1 2.8-1.7 2.8-.9 4.5.3.7.3 1.5.5 2.3l-.2.1-.5-.6c-.1 1-.1 2-.6 2.8l-.2-.5c-2.3 1.8-.1 2-1 4.1l-.4-.2c-1 2.4-4.1 2.2-6.5 1.4-.1-.2-.2-.3-.4-.3z"/>
	<path fill="#515053" d="M64.6 36.7c4.9 1 4.8.9 5.4 1.1.8.3.2 1 0 2-.3.6-.9.3-1.4 1.3-.5 1.4-1.1 1.9-1.8 2.6-2.2.8-5.3.2-7.5-.2-3.5-.8-1-4.8-2.6-5.1-1-.1-1.1-.1-1.7.8-1.4 1.9-1.7 3.3-3.9 3.5-3.5.4-6.9-.2-10.2-1.2-2.3-.7-.6-3.6-1.9-4.5-.9-.8-3.5-2.9-4-3.2L33 32l.7-3.3c8 8.2 1.5 3.9 15.8 6.5 10.2 2.3 5.4 1.6 12.9 1.6l2.2-.1zm-18.1-1.4c-3.9 0-5.2-.8-5.4.7-.4 4.5-.6 4.2.8 4.6 2.8 1 5.7 1.3 8.7 1.2 1.1 0 1.9-.5 2.4-1.4 1.6-2.8 1.7-3.2.7-3.5-1.9-.7-7.2-1.7-7.2-1.6zm16.4 2.2c-4.1.2-4.4-.1-4.4 3.5 0 1.2.2 1.5 1.4 1.8 1.9.4 4.3.8 6.2.3 1.1-.2 1-.9 2.3-3.7.3-.8.2-1-.6-1.1-1.6-.4-3.3-.6-4.9-.8z"/>
	<path fill="#4f4e51" d="M47.1 14.5c-1.5 1.8-3.5 2.8-6.4 3l2.7-1.4c-2.5-2.5-4.2-5.2-4.1-8.8.4-4.5 2.4-6.3 2.5-6.5h.1V1c-.1.1-.2.3-.3.4-.5 2.2-.5 4.4.2 6.5 1.4 4.1 4.3 5.6 5.3 6.6z"/>
	<path fill="#66c2dd" d="M69.1 60.1c.3.3.2-.7.2 5.4 0 .4-.1.9-.1 1.3-1 3.7-1 6.2-4.5 10.7-.1-.1-.3-.1-.4-.2-2.3-1.3-4.6-2.7-6.9-4-.1 0-.2-.1-.2-.2 1.1 0 5.6 1.1 9.4-3.3.8-1 2.7-5.5 2.5-9.7z"/>
	<path fill="#ebf7fd" d="M61.7 3.1c0 4.8.2 4.4-.7 4.3-.1 0-7.4-1.5-7.9-1.8v-.1c.9-.9-.5-.5 5.5-5.2v.5c-.2.7-.5 1.4-.7 2.2 1.4-.5 2.6-1.1 3.8-1.3v1.4z"/>
	<path fill="#737f84" d="M47.1 14.5c-4.1-3.1-6.8-6.9-5.4-13 0-.2.2-.3.3-.4.8 3.5 1.6 6.7 5.9 9.7 1.2.8 1.3.8-.8 3.7z"/>
	<path fill="#4f4e51" d="M77.3 22.6v-.3c.6-1.1 1.2-2.1 1.9-3.2 5.3-1 7-2 9.9-4.9-.8 2.4-2.1 4.5-3.9 6.3-2.8 2.8-6.4 2.1-7.9 2.1z"/>
	<path fill="#737f84" d="M89.1 14.2c-3.6 3.6-5 3.9-9.9 4.9l2-3.2c3.1.5 5.4-.5 8-2.2l-.1.5z"/>
	<path fill="#b3e0ee" d="M33.7 86.3c-1.8-1.2-1.5-.9-1.9-1.2-.6-3.7-.1-4.7-2.1-7.2-1.2-1.5-2.5-2.9-3.3-4.7-1.8-4.1-1.4-7.5-1.4-11.5l1.2 1.2c.4-3 1.9-5.5 3.3-7.9-.6 2.8-2 7.9-1.6 11.6-.6-.2-.9-.8-1.3-1.3-.2 2.4 1.8 5.6 2.9 7.7l-2.3-.2c.6 3.1 7.4 2.6 6.5 11.7.2.7.1 1.2 0 1.8zM23.1 93l.3.9c-1.3-1.3-1.9-2.8-2.3-3.5l-.3.3c-.1-1.2-.5-2.2-.2-3.4.2 1.3.5 2.6 1.2 3.8l.2-.6.9 2.3.2.2z"/>
	<path fill="#b4e1ee" d="M18.5 94.8c-1.4-.6-2.7-4.2-2-5.5l.7 3.2.3-.2 1 2.5z"/>
	<path fill="#4f4e51" d="M42.6 44.9c12.1 0 17.3-.2 19 1.2-2.6 2-3.2 2.1-2.8 2.9.3.6 1 2.2 1.4 2.9-.1 0-4.1.5-7.8-.1-3.7-.7-9.1-2.5-9.6-6.3-.2-.2-.2-.4-.2-.6z"/>
	<path fill="#d3edf6" d="m53.7 59.3-1.4-2.2-1.7 2.5c-.9-1-1.2-2.2-1.6-3.3l-1.4 1.6c-.6-1.3-1-2.6-1.1-4.2 3.6 1.2 7.2 1.6 10.9 1.3v.2c-.4.2-.8.5-1.3.7-.8.3-1.1 1-1.4 1.7-.2.6-.6 1.1-.8 1.7h-.2z"/>
	<path fill="#d4edf6" d="M51 30.3c-2-.7-3.8-.6-5.2 1.1-.1-.9.9-2.1 2-2.4 1.2-.4 2.7.1 3.2 1.3zm-5 2.6c0-1.6 3.4-2.6 4.7-.7-.9 0-2-.7-4.4.6l-.3.1zm19.4-.5c1.2-1.2 3.6-.2 3.6 1.9-1-1.3-2.2-1.8-3.6-1.9z"/>
	<path fill="#cdebf4" d="M67.9 36.3c-1.3-1.5-1.8-1.6-3.3-2 1-1 3.1-.5 3.3 2z"/>
	<path fill="#e8f4f8" d="M50.4 36c5 1.4 4.5.6 2.6 4.4-.5.9-1.3 1.4-2.4 1.4-3 0-5.9-.3-8.7-1.2-1.4-.4-1.2-.6-.8-4.6.2-1.5 1.5-.7 5.4-.7-.6 1.8-1 2.4-.6 4.2.3 1 1.2 1.6 2.1 1.3.8-.2 1.8-1.3 1.9-2.2.4-.8.5-1.7.5-2.6z"/>
	<path fill="#ecf5f9" d="M62.9 37.5c5.9.7 6 .6 5.6 1.8-1.3 2.8-1.2 3.5-2.3 3.7-1.8.5-4.4.2-6.2-.3-2-.5-1.3-1.2-1.3-3.9.2-1.5 2.2-1.3 4.2-1.3.1 0 0 0 0 0zm2.2 2c-1.4 2.8-3 2.5-3.5 1.2-.2-.4-.3-.9-.4-1.3-.4 5.2 4.1 3.6 3.9.1zm-3.3-.2c.8 2.3 2.1-.8 1-1.2-.6-.2-1.1 1.2-1 1.2z"/>
	<path fill="#778287" d="M46.1 36.6c0 1.5 0 2.7 1.3 3.1.7.2 1.3-.1 1.8-.6l.6-.6c-.3 2.3-3.3 3.2-4 .9-.1-.9 0-1.9.3-2.8zm19 2.9c.2 3.4-4.4 5.2-4-.1.5 2.4 1.8 2.7 2.7 1.8.4-.4.7-.9 1-1.3.2-.1.2-.2.3-.4z"/>
	<path fill="#1c1c1c" d="m61.8 39.3.1-.4c.2-1.2 1.6-1.1 1.3.3 0 .1-.1.3-.1.4-.6.9-1.1.6-1.3-.3zm-14.2-2.9c1 0 .6 2.1-.3 1.9-.3 0-.7-1.9.3-1.9z"/>
</svg>