<svg xmlns="http://www.w3.org/2000/svg" viewBox="0 0 100 100">
	<radialGradient id="a" cx="-10988.9502" cy="686.0836" r="1.0008" gradientTransform="matrix(-71.7984 0 0 71.7984 -788921.4375 -49272.1406)" gradientUnits="userSpaceOnUse">
		<stop offset=".3644" stop-color="#ff2f00"/>
		<stop offset=".498" stop-color="#fff"/>
		<stop offset=".5567" stop-color="#ffb700"/>
		<stop offset=".6193" stop-color="#f80"/>
		<stop offset=".7376" stop-color="#f30"/>
		<stop offset=".7915" stop-color="#f10"/>
		<stop offset=".9413" stop-color="#7c0000"/>
		<stop offset="1" stop-color="#eb0000"/>
	</radialGradient>
	<path fill="url(#a)" d="M1.3 1.9c-5.6 5.6 9.1 29.5 11.6 32s9.1 0 14.8-5.6 8.1-12.2 5.6-14.8C30.8 11.1 6.9-3.7 1.3 1.9z"/>
	<linearGradient id="b" x1="34" x2="2.3" y1="-6141.6045" y2="-6141.6045" gradientTransform="matrix(1 0 0 -1 0 -6130)" gradientUnits="userSpaceOnUse">
		<stop offset="0" stop-color="#fff"/>
		<stop offset=".5016" stop-color="#fff" stop-opacity=".47"/>
		<stop offset=".845" stop-color="#fff" stop-opacity=".14"/>
		<stop offset="1" stop-color="#fff" stop-opacity="0"/>
	</linearGradient>
	<path fill="url(#b)" d="M32.1 22C21.5 12.5 7.7 1.2 2.3 1.7 6.2-1.1 21.8 8.6 34 17.4c-.3 1.4-1 3-1.9 4.6z"/>
	<linearGradient id="c" x1="2.2889" x2="7.2756" y1="-6153.2578" y2="-6150.1411" gradientTransform="matrix(1 0 0 -1 0 -6130)" gradientUnits="userSpaceOnUse">
		<stop offset=".08299999" stop-color="#fff"/>
		<stop offset=".543" stop-color="#fff" stop-opacity=".47"/>
		<stop offset=".8579" stop-color="#fff" stop-opacity=".14"/>
		<stop offset="1" stop-color="#fff" stop-opacity="0"/>
	</linearGradient>
	<path fill="url(#c)" d="M1.7 2.6C-3.7 8 10.5 31 12.9 33.4s8.8 0 14.2-5.4 7.8-11.8 5.4-14.2C30.1 11.3 7.1-2.8 1.7 2.6z"/>
	<linearGradient id="d" x1="2.2889" x2="7.2756" y1="-6153.2578" y2="-6150.1411" gradientTransform="matrix(1 0 0 -1 0 -6130)" gradientUnits="userSpaceOnUse">
		<stop offset=".08299999" stop-color="#fff"/>
		<stop offset=".543" stop-color="#fff" stop-opacity=".47"/>
		<stop offset=".8579" stop-color="#fff" stop-opacity=".14"/>
		<stop offset="1" stop-color="#fff" stop-opacity="0"/>
	</linearGradient>
	<path fill="url(#d)" d="M1.7 2.6C-3.7 8 10.5 31 12.9 33.4s8.8 0 14.2-5.4 7.8-11.8 5.4-14.2C30.1 11.3 7.1-2.8 1.7 2.6z"/>
	<linearGradient id="e" x1="25.5846" x2="14.3628" y1="-6132.9014" y2="-6145.3696" gradientTransform="matrix(1 0 0 -1 0 -6130)" gradientUnits="userSpaceOnUse">
		<stop offset=".08299999" stop-color="#fff"/>
		<stop offset=".543" stop-color="#fff" stop-opacity=".47"/>
		<stop offset=".8579" stop-color="#fff" stop-opacity=".14"/>
		<stop offset="1" stop-color="#fff" stop-opacity="0"/>
	</linearGradient>
	<path fill="url(#e)" d="M1.7 2.6C-3.7 8 10.5 31 12.9 33.4s8.8 0 14.2-5.4 7.8-11.8 5.4-14.2C30.1 11.3 7.1-2.8 1.7 2.6z"/>
	<radialGradient id="f" cx="-10729.957" cy="525.5166" r="1.0008" gradientTransform="matrix(100.312 0 0 -100.312 1076392.875 52816.0352)" gradientUnits="userSpaceOnUse">
		<stop offset=".3644" stop-color="#ff2f00"/>
		<stop offset=".498" stop-color="#fff"/>
		<stop offset=".5567" stop-color="#ffb700"/>
		<stop offset=".6193" stop-color="#f80"/>
		<stop offset=".7376" stop-color="#f30"/>
		<stop offset=".7915" stop-color="#f10"/>
		<stop offset=".9413" stop-color="#7c0000"/>
		<stop offset="1" stop-color="#eb0000"/>
	</radialGradient>
	<path fill="url(#f)" d="M50.1 99.4c27 0 48.9-21.9 48.9-48.9s-21.9-49-48.9-49S1.2 23.4 1.2 50.4s21.9 49 48.9 49z"/>
	<radialGradient id="g" cx="-10707.1045" cy="511.3493" r="1.0008" gradientTransform="matrix(82.7989 0 0 -82.7989 886572.0625 42371.0898)" gradientUnits="userSpaceOnUse">
		<stop offset="0" stop-color="red"/>
		<stop offset=".1131" stop-color="#e20000"/>
		<stop offset=".4558" stop-color="#8d0000"/>
		<stop offset=".6119" stop-color="#6b0000"/>
		<stop offset=".9525" stop-color="red"/>
	</radialGradient>
	<path fill="url(#g)" d="M96.5 51.5c0 25.7-20.8 46.6-46.6 46.6-25.7 0-46.6-20.9-46.6-46.6S24.1 4.9 49.9 4.9s46.6 20.9 46.6 46.6z"/>
	<linearGradient id="h" x1="1.8" x2="97.5" y1="-6179.9502" y2="-6179.9502" gradientTransform="matrix(1 0 0 -1 0 -6130)" gradientUnits="userSpaceOnUse">
		<stop offset=".08299999" stop-color="#fff"/>
		<stop offset=".543" stop-color="#fff" stop-opacity=".47"/>
		<stop offset=".8579" stop-color="#fff" stop-opacity=".14"/>
		<stop offset="1" stop-color="#fff" stop-opacity="0"/>
	</linearGradient>
	<path fill="url(#h)" d="M5.7 52.2C5.7 26.7 26.4 6 51.9 6c23 0 42.1 16.8 45.6 38.8-2.6-24-23-42.7-47.7-42.7-26.5 0-48 21.5-48 48 0 24.7 18.7 45 42.7 47.7-22-3.5-38.8-22.6-38.8-45.6z"/>
	<linearGradient id="i" x1="98.1" x2="2.4" y1="-6180.9502" y2="-6180.9502" gradientTransform="matrix(1 0 0 -1 0 -6130)" gradientUnits="userSpaceOnUse">
		<stop offset=".08299999" stop-color="#fff"/>
		<stop offset=".543" stop-color="#fff" stop-opacity=".47"/>
		<stop offset=".8579" stop-color="#fff" stop-opacity=".14"/>
		<stop offset="1" stop-color="#fff" stop-opacity="0"/>
	</linearGradient>
	<path fill="url(#i)" opacity=".63" d="M94.2 48.7C94.2 74.2 73.5 95 48 95 25 94.9 6 78 2.4 56.1c2.6 24 23 42.7 47.7 42.7 26.5 0 48-21.5 48-48 0-24.7-18.7-45-42.7-47.7 22 3.5 38.8 22.6 38.8 45.6z"/>
	<linearGradient id="j" x1="52.2166" x2="52.2166" y1="-6122.1113" y2="-6174.7305" gradientTransform="matrix(1 0 0 -1 0 -6130)" gradientUnits="userSpaceOnUse">
		<stop offset=".1946" stop-color="#fff"/>
		<stop offset="1" stop-color="#fff" stop-opacity=".15"/>
	</linearGradient>
	<path fill="url(#j)" d="M50.2 4.3C72.3 3 83.6 15.5 94.6 34.7c2.8 4.9-3.5 9.8-8 6.4-10.3-7.8-15.2-14.3-32.2-14.3-9.5 0-22.4 7.6-34.5 16.6-5.6 4.1-13.2-1.6-10-7.7C20.1 16.4 27.2 5.6 50.2 4.3z"/>
	<radialGradient id="k" cx="60.5158" cy="985.614" r="1.0358" gradientTransform="translate(0 -979.567)" gradientUnits="userSpaceOnUse">
		<stop offset="0" stop-color="red"/>
		<stop offset=".4772" stop-color="#ff7a00"/>
		<stop offset=".8374" stop-color="#ffd000"/>
		<stop offset="1" stop-color="#fff200"/>
	</radialGradient>
	<path fill="url(#k)" opacity=".3" d="M49.2 6.1c.4 0 5.3-.5 11.9.8C58 5.3 54 4.4 49.2 6.1z"/>
	<radialGradient id="l" cx="74.0302" cy="1071.1901" r="5.5669" gradientTransform="translate(0 -979.567)" gradientUnits="userSpaceOnUse">
		<stop offset="0" stop-color="red"/>
		<stop offset=".4772" stop-color="#ff7a00"/>
		<stop offset=".8374" stop-color="#ffd000"/>
		<stop offset="1" stop-color="#fff200"/>
	</radialGradient>
	<path fill="url(#l)" opacity=".3" d="M52 94.8c4.8 3.9 12.8 3.2 19.3-2.1 2.3-1.8 3.4-4 3.9-6.6-6.6 4.8-14.6 7.9-23.2 8.7z"/>
	<radialGradient id="m" cx="-11079.5439" cy="741.7575" r=".3241" gradientTransform="matrix(-45.0301 0 0 45.0301 -498822.6875 -33348.3594)" gradientUnits="userSpaceOnUse">
		<stop offset="0" stop-color="red"/>
		<stop offset=".4772" stop-color="#ff7a00"/>
		<stop offset=".8374" stop-color="#ffd000"/>
		<stop offset="1" stop-color="#fff200"/>
	</radialGradient>
	<path fill="url(#m)" opacity=".3" d="M90 67.9c2.7-3.8 7.3-11.9 5-22.1-.7-3-1.4-5.5-2.1-7.8 2.2 9.1 1.6 20.2-2.9 29.9z"/>
	<radialGradient id="n" cx="53.3565" cy="992.8135" r="21.2686" gradientTransform="translate(0 -979.567)" gradientUnits="userSpaceOnUse">
		<stop offset="0" stop-color="red"/>
		<stop offset=".4772" stop-color="#ff7a00"/>
		<stop offset=".8374" stop-color="#ffd000"/>
		<stop offset="1" stop-color="#fff200"/>
	</radialGradient>
	<path fill="url(#n)" opacity=".3" d="M49.2 6.1c.4 0 5.3-.5 11.9.8 3 1.5 5.1 3.7 5.9 4.8-.7-.8-2.4-2.3-5.5-3.5-4.5-1.8-8.9-1.3-14.3 1.4-5.3 2.6-5.4 8.5-6.8 13.2-1.4 4.5-4 1-3.6-1.5 0 0-2.1 4.3-.8-5.6.5-3.9.2-4.9.4-5.1.4-.3 2 1.2 9.7-3.1 1.1-.6 2.1-1.1 3.1-1.4z"/>
	<radialGradient id="o" cx="68.1154" cy="1043.406" r="41.2613" gradientTransform="translate(0 -979.567)" gradientUnits="userSpaceOnUse">
		<stop offset="0" stop-color="red"/>
		<stop offset=".4772" stop-color="#ff7a00"/>
		<stop offset=".8374" stop-color="#ffd000"/>
		<stop offset="1" stop-color="#fff200"/>
	</radialGradient>
	<path fill="url(#o)" opacity=".3" d="M75.2 86.1C68.6 90.9 60.6 94 52 94.8c-6.3-4.7-7.6-22.4 1.3-31.7 6.7-7 10-9.3 31.2-18.4-14.4 16.8-7.5 31.1-9.3 41.4z"/>
	<radialGradient id="p" cx="89.2791" cy="1023.1806" r="32.8774" gradientTransform="translate(0 -979.567)" gradientUnits="userSpaceOnUse">
		<stop offset="0" stop-color="red"/>
		<stop offset=".4772" stop-color="#ff7a00"/>
		<stop offset=".8374" stop-color="#ffd000"/>
		<stop offset="1" stop-color="#fff200"/>
	</radialGradient>
	<path fill="url(#p)" opacity=".3" d="M93 38.1c3.3 13.8-.9 28.1-4.8 32-2.5 1.6-5.6.9-5.3-2.2.3-3.1 8-3.8 10-15.9 1.9-12.1-5-25.5-5-25.5s2.5 3.3 5.1 11.6z"/>
	<radialGradient id="q" cx="67.355" cy="991.48" r=".5038" gradientTransform="translate(0 -979.567)" gradientUnits="userSpaceOnUse">
		<stop offset="0" stop-color="red"/>
		<stop offset=".4772" stop-color="#ff7a00"/>
		<stop offset=".8374" stop-color="#ffd000"/>
		<stop offset="1" stop-color="#fff200"/>
	</radialGradient>
	<path fill="url(#q)" opacity=".3" d="M67.1 11.7c.3.4.5.6.5.6s-.2-.2-.5-.6z"/>
	<radialGradient id="r" cx="-10705.5049" cy="695.2705" r=".8204" gradientTransform="matrix(26.4761 71.2567 71.2567 -26.4761 233935.25 781306.875)" gradientUnits="userSpaceOnUse">
		<stop offset="0" stop-color="red"/>
		<stop offset=".4772" stop-color="#ff7a00"/>
		<stop offset=".8374" stop-color="#ffd000"/>
		<stop offset="1" stop-color="#fff200"/>
	</radialGradient>
	<path fill="url(#r)" opacity=".3" d="M27.8 37C38.6 23.7 54 15.8 66.6 18.1 41.9 26.7 42 44.7 42.1 60.2v2.5c0 15.8 9 31-1.9 31-10.7 0-28.2-12.5-24.7-31-7-3.7-10-12.7-6.6-20.4 2.6-5.7 12.5-5.7 18.6-23.6.4-1.2 4.6 10.8.3 18.3z"/>
	<linearGradient id="s" x1="50.2" x2="50.2" y1="-6133.2759" y2="-6182.895" gradientTransform="matrix(1 0 0 -1 0 -6130)" gradientUnits="userSpaceOnUse">
		<stop offset=".08299999" stop-color="#fff"/>
		<stop offset=".543" stop-color="#fff" stop-opacity=".47"/>
		<stop offset=".8579" stop-color="#fff" stop-opacity=".14"/>
		<stop offset="1" stop-color="#fff" stop-opacity="0"/>
	</linearGradient>
	<path fill="url(#s)" d="M92.4 38.9c0 19.3-12.7-22.7-54.4-6.8-16 6.1-30 26.1-30 6.8S26.9 4 50.2 4s42.2 15.6 42.2 34.9z"/>
	<radialGradient id="t" cx="-123.7725" cy="-34987.3516" r="33.4365" gradientTransform="matrix(.4041 .9147 -.1106 .04883828 -3740.5916 1844.0203)" gradientUnits="userSpaceOnUse">
		<stop offset=".08299999"/>
		<stop offset=".543" stop-opacity=".47"/>
		<stop offset=".8579" stop-opacity=".14"/>
		<stop offset="1" stop-opacity="0"/>
	</radialGradient>
	<path fill="url(#t)" d="M81.4 19.1c6 9.3 13.5 32.4 10.4 34-10.4-18.4-14.1-23.3-21.7-28.3-1.6-3.1-.3-6.9 2.8-8.5 3.1-1.6 6.9-.3 8.5 2.8z"/>
	<radialGradient id="u" cx="-10936.8096" cy="531.5553" r="1.0008" gradientTransform="matrix(-56.0379 -98.5164 -86.9793 49.4754 -566590.25 -1103825)" gradientUnits="userSpaceOnUse">
		<stop offset=".3644" stop-color="#ff2f00"/>
		<stop offset=".498" stop-color="#fff"/>
		<stop offset=".5567" stop-color="#ffb700"/>
		<stop offset=".6193" stop-color="#f80"/>
		<stop offset=".7376" stop-color="#f30"/>
		<stop offset=".7915" stop-color="#f10"/>
		<stop offset=".9413" stop-color="#7c0000"/>
		<stop offset="1" stop-color="#eb0000"/>
	</radialGradient>
	<path fill="url(#u)" opacity=".15" d="M52.8 6.9c3.3-3.3 22.6 3.2 30 7.3 3 1.7 3.6 6.3 1.3 10.3s-7.4 6.9-9.5 4.2C61.7 11.9 51.2 8.5 52.8 6.9z"/>
	<radialGradient id="v" cx="-10687.0518" cy="498.9173" r="1.0008" gradientTransform="matrix(71.7992 0 0 -71.7992 767354.1875 35809.4414)" gradientUnits="userSpaceOnUse">
		<stop offset=".3644" stop-color="#ff2f00"/>
		<stop offset=".498" stop-color="#fff"/>
		<stop offset=".5567" stop-color="#ffb700"/>
		<stop offset=".6193" stop-color="#f80"/>
		<stop offset=".7376" stop-color="#f30"/>
		<stop offset=".7915" stop-color="#f10"/>
		<stop offset=".9413" stop-color="#7c0000"/>
		<stop offset="1" stop-color="#eb0000"/>
	</radialGradient>
	<path fill="url(#v)" d="M98.7 1.9c5.6 5.6-9.1 29.5-11.6 32s-9.1 0-14.8-5.6-8.1-12.2-5.6-14.8c2.5-2.4 26.4-17.2 32-11.6z"/>
	<linearGradient id="w" x1="71.0328" x2="85.3742" y1="-6135.0659" y2="-6145.354" gradientTransform="matrix(1 0 0 -1 0 -6130)" gradientUnits="userSpaceOnUse">
		<stop offset=".08299999" stop-color="#fff"/>
		<stop offset=".543" stop-color="#fff" stop-opacity=".47"/>
		<stop offset=".8579" stop-color="#fff" stop-opacity=".14"/>
		<stop offset="1" stop-opacity="0"/>
	</linearGradient>
	<path fill="url(#w)" d="M98.3 2.6C103.7 8 89.5 31 87.1 33.4s-8.8 0-14.2-5.4c-5.4-5.5-7.9-11.8-5.4-14.2 2.4-2.5 25.4-16.6 30.8-11.2z"/>
	<linearGradient id="x" x1="71.0328" x2="85.3742" y1="-6135.0659" y2="-6145.354" gradientTransform="matrix(1 0 0 -1 0 -6130)" gradientUnits="userSpaceOnUse">
		<stop offset=".08299999" stop-color="#fff"/>
		<stop offset=".543" stop-color="#fff" stop-opacity=".47"/>
		<stop offset=".8579" stop-color="#fff" stop-opacity=".14"/>
		<stop offset="1" stop-color="#fff" stop-opacity="0"/>
	</linearGradient>
	<path fill="url(#x)" d="M98.3 2.6C103.7 8 89.5 31 87.1 33.4s-8.8 0-14.2-5.4c-5.4-5.5-7.9-11.8-5.4-14.2 2.4-2.5 25.4-16.6 30.8-11.2z"/>
	<linearGradient id="y" x1="66.8395" x2="98.5105" y1="-6141.6045" y2="-6141.6045" gradientTransform="matrix(1 0 0 -1 0 -6130)" gradientUnits="userSpaceOnUse">
		<stop offset="0" stop-color="#fff"/>
		<stop offset=".5016" stop-color="#fff" stop-opacity=".47"/>
		<stop offset=".845" stop-color="#fff" stop-opacity=".14"/>
		<stop offset="1" stop-color="#fff" stop-opacity="0"/>
	</linearGradient>
	<path fill="url(#y)" d="M68.7 22C79.3 12.5 93.2 1.2 98.5 1.7c-3.9-2.8-19.4 6.9-31.6 15.7.2 1.4.9 3 1.8 4.6z"/>
	<radialGradient id="z" cx="-10528.5566" cy="400.6573" r="1.001" gradientTransform="matrix(35.0243 0 0 -35.0243 368818.9062 14045.2354)" gradientUnits="userSpaceOnUse">
		<stop offset="0" stop-color="#b00000"/>
		<stop offset="1" stop-color="#6f4040"/>
	</radialGradient>
	<path fill="url(#z)" d="M87.1 34c-2.5 2.5-9.1 0-14.8-5.6-5.6-5.6-8.1-12.2-5.6-14.8.6-.6 2.1-1.7 4.3-3.1-11.2-4.6-11.4 6.9.2 18.5 11.2 11.2 22.5 11.6 18.8.9-1.3 2.1-2.4 3.5-2.9 4.1z"/>
	<radialGradient id="aa" cx="-9974.792" cy="57.3419" r="1.0008" gradientTransform="matrix(12.5555 0 0 -12.5555 125299.5703 732.78)" gradientUnits="userSpaceOnUse">
		<stop offset="0" stop-color="#b00000"/>
		<stop offset="1" stop-color="#fff"/>
	</radialGradient>
	<path fill="url(#aa)" d="m65.8 22.4 1.7-.2c-1.1-1.9-1.7-3.7-1.8-5.2l-2.7-.6c.5 1.8 1.5 3.9 2.8 6z"/>
	<linearGradient id="ab" x1="79.1906" x2="96.2005" y1="-6163.375" y2="-6143.7485" gradientTransform="matrix(1 0 0 -1 0 -6130)" gradientUnits="userSpaceOnUse">
		<stop offset="0"/>
		<stop offset="1" stop-opacity="0"/>
	</linearGradient>
	<path fill="url(#ab)" opacity=".06" d="M87.5 22.8c-4.4 5.6-6.5 4.1-12.9 6.8 5 4.2 10.3 6 12.4 3.8 2.5-2.5 4.8-7.8 6.4-10.9 5.3-10.3-2.5-4.1-5.9.3z"/>
	<radialGradient id="ac" cx="-5682.834" cy="1153.7484" r=".9998" gradientTransform="matrix(1.1557 1.8841 8.6951 -5.3338 -3377.9282 16868.4199)" gradientUnits="userSpaceOnUse">
		<stop offset=".2584" stop-color="#fff"/>
		<stop offset=".3764" stop-color="#fff" stop-opacity=".69"/>
		<stop offset="1" stop-color="#fff" stop-opacity="0"/>
	</radialGradient>
	<path fill="url(#ac)" d="M76.3 13.6c-.7-1.2 3.1-4.9 8.6-8.3 5.5-3.2 10.6-5 11.3-3.8 1.7 2.9-18.2 15-19.9 12.1z"/>
	<radialGradient id="ad" cx="-10634.1709" cy="-978.8693" r="1.0002" gradientTransform="matrix(1.2302 -1.8362 -6.7376 -4.5142 6499.5063 -23938.6836)" gradientUnits="userSpaceOnUse">
		<stop offset=".2584" stop-color="#fff"/>
		<stop offset=".3764" stop-color="#fff" stop-opacity=".69"/>
		<stop offset="1" stop-color="#fff" stop-opacity="0"/>
	</radialGradient>
	<path fill="url(#ad)" d="M14 4.4c10.5 7.1 7.1 11.1-2.8 4.2C1 2 3.4-2.5 14 4.4z"/>
	<radialGradient id="ae" cx="-9495.8535" cy="723.3819" r="1.0008" gradientTransform="matrix(7.0861 6.1465 10.1421 -11.6924 59974.9141 66852.4609)" gradientUnits="userSpaceOnUse">
		<stop offset=".2584" stop-color="#fff"/>
		<stop offset=".3764" stop-color="#fff" stop-opacity=".69"/>
		<stop offset="1" stop-color="#fff" stop-opacity="0"/>
	</radialGradient>
	<path fill="url(#ae)" d="M31.2 35.1c-6.4 7.4-15.2 10.2-19.7 6.3s-3-13 3.5-20.4c6.4-7.4 15.2-10.2 19.7-6.4 4.5 3.9 2.9 13.1-3.5 20.5z"/>
	<radialGradient id="af" cx="-8864.5137" cy="496.9178" r="1.0007" gradientTransform="matrix(5.7273 2.947 4.8628 -9.4506 48370.7383 30858.8926)" gradientUnits="userSpaceOnUse">
		<stop offset=".2584" stop-color="#fff"/>
		<stop offset=".3764" stop-color="#fff" stop-opacity=".69"/>
		<stop offset="1" stop-color="#fff" stop-opacity="0"/>
	</radialGradient>
	<path fill="url(#af)" d="M24 42.3c-3.1 6-8.5 9.3-12.1 7.4-3.6-1.9-4.1-8.2-1-14.2s8.5-9.3 12.1-7.4c3.7 1.9 4.1 8.2 1 14.2z"/>
	<linearGradient id="ag" x1="89.2965" x2="23.4269" y1="-6138.04" y2="-6209.7456" gradientTransform="matrix(1 0 0 -1 0 -6130)" gradientUnits="userSpaceOnUse">
		<stop offset="0" stop-color="#fff"/>
		<stop offset=".9913" stop-color="#ffff7f"/>
	</linearGradient>
	<path fill="url(#ag)" opacity=".15" d="M96 39c0 23.6-17.5 37.8-36 37.8-19.9 0-36-16.1-36-36 0-18.3 13.9-36 37.8-36C31.4-2.6 3 20.3 3 50.6c0 26.1 21.1 47.2 47.2 47.2 30.4 0 53.2-28.4 45.8-58.8z"/>
	<radialGradient id="ah" cx="-10843.4482" cy="949.4136" r="1.0008" gradientTransform="matrix(-19.2849 30.0716 30.0716 19.2849 -237564.7031 307821.9688)" gradientUnits="userSpaceOnUse">
		<stop offset=".2907" stop-color="#ffff7f" stop-opacity="0"/>
		<stop offset=".4574" stop-color="#ffff7f"/>
		<stop offset=".6196" stop-color="#ffff7f" stop-opacity="0"/>
	</radialGradient>
	<path fill="url(#ah)" opacity=".7" d="M96 39c0 23.6-17.5 37.8-36 37.8-19.9 0-36-16.1-36-36 0-18.3 13.9-36 37.8-36C31.4-2.6 3 20.3 3 50.6c0 26.1 21.1 47.2 47.2 47.2 30.4 0 53.2-28.4 45.8-58.8z"/>
	<radialGradient id="ai" cx="-10698.4951" cy="507.7025" r="1.0008" gradientTransform="matrix(77.6889 0 0 -79.2852 831187.4375 40287.1914)" gradientUnits="userSpaceOnUse">
		<stop offset="0" stop-color="red"/>
		<stop offset=".1131" stop-color="#e20000"/>
		<stop offset=".4558" stop-color="#8d0000"/>
		<stop offset=".6119" stop-color="#6b0000"/>
		<stop offset=".9525" stop-color="red"/>
	</radialGradient>
	<path fill="url(#ai)" opacity=".5" d="M5.9 50.5c0-19.5 11.8-36.2 28.6-43-18 6.4-30.8 23.9-30.8 44.3 0 25.9 20.6 46.9 46 46.9 16.5 0 30.9-8.8 39-22.1C63.5 114.1 5.9 95.9 5.9 50.5z"/>
	<radialGradient id="aj" cx="-10325.4639" cy="786.6927" r="1.0008" gradientTransform="matrix(11.6882 18.9447 24.9617 -15.4005 101119.6406 207747.3438)" gradientUnits="userSpaceOnUse">
		<stop offset="0" stop-color="#fff"/>
		<stop offset="1" stop-color="#fff" stop-opacity="0"/>
	</radialGradient>
	<path fill="url(#aj)" d="M80.1 19.2c-5 3.1-10.4 3.5-12 .8-1.6-2.6 1.1-7.3 6.1-10.4S94 .3 95.7 3c1.6 2.7-10.6 13.1-15.6 16.2z"/>
	<linearGradient id="ak" x1="95.373" x2="91.3204" y1="-6152.0547" y2="-6149.2495" gradientTransform="matrix(1 0 0 -1 0 -6130)" gradientUnits="userSpaceOnUse">
		<stop offset=".08299999" stop-color="#fff"/>
		<stop offset=".543" stop-color="#fff" stop-opacity=".47"/>
		<stop offset=".8579" stop-color="#fff" stop-opacity=".14"/>
		<stop offset="1" stop-color="#fff" stop-opacity="0"/>
	</linearGradient>
	<path fill="url(#ak)" d="M99.1 3.2c-2.4 13.7-16.6 22.9-29.5 20.3 4.9 7.1 14.2 12.4 17.4 9.2 2.3-2.2 14.9-22.4 12.1-29.5z"/>
</svg>