<svg xmlns="http://www.w3.org/2000/svg" viewBox="0 0 100 100">
	<path fill="#EA4335" d="M63.455 32.161h3.05l8.692-8.692.427-3.69A39.07 39.07 0 0 0 12.062 38.84a4.727 4.727 0 0 1 3.05-.183l17.385-2.867s.885-1.464 1.342-1.373a21.686 21.686 0 0 1 29.677-2.257h-.061Z"/>
	<path fill="#4285F4" d="M87.58 38.84a39.163 39.163 0 0 0-11.804-19.032l-12.2 12.2a21.686 21.686 0 0 1 7.96 17.203v2.165a10.857 10.857 0 1 1 0 21.716H49.822l-2.166 2.196v13.024l2.166 2.165h21.716A28.243 28.243 0 0 0 87.58 38.84Z"/>
	<path fill="#34A853" d="M28.075 90.355H49.79V72.97H28.075c-1.548 0-3.077-.334-4.484-.976l-3.05.945-8.754 8.693-.762 3.05a28.09 28.09 0 0 0 17.05 5.673Z"/>
	<path fill="#FBBC05" d="M28.074 33.96a28.243 28.243 0 0 0-17.05 50.631l12.597-12.596a10.858 10.858 0 1 1 14.366-14.366l12.596-12.597a28.213 28.213 0 0 0-22.509-11.071Z"/>
</svg>