<svg xmlns="http://www.w3.org/2000/svg" viewBox="0 0 100 100">
	<linearGradient id="a" x1="-6.0016" x2="56.7627" y1="331.4463" y2="2.7243" gradientTransform="matrix(1 0 0 -1 0 101.433)" gradientUnits="userSpaceOnUse">
		<stop offset="0" stop-color="#fff"/>
		<stop offset=".34" stop-color="#fff"/>
		<stop offset=".51" stop-color="#bebdf3"/>
		<stop offset=".75" stop-color="#867fb7"/>
		<stop offset=".87" stop-color="#9f99c7"/>
		<stop offset="1" stop-color="#524c76"/>
	</linearGradient>
	<path fill="url(#a)" d="M2.2 79.7c0-4.2 3.6-10.1 8.7-15.5 3.4-3.6 6.9-6.7 14.4-13.1-5.2-2.8-13.3-6.3-17.4-10.8-1.5-1.7-4.2-5.5-3.7-10.5C5.3 19.5 18 3.8 36.1.5c6-1.1 12.9-.3 18.6 2.3 17.9 8 39.7 28 42.4 37.7.9 3.4.8 8.9-.9 11.9-2 3.8-9 11.4-18.6 19.4-15 12.4-36.1 25.7-51.8 28-5.1.7-10.3 0-13.9-2.1-5.7-3.2-7.6-7.5-8.3-8.8-1.6-3.5-1.4-7.8-1.4-9.2zm42.3-47.4c.2-2.4 9.6 0 9 1.9-.6 2-9.2.9-9-1.9z"/>
	<linearGradient id="b" x1="53.5602" x2="34.6019" y1="25.117" y2="110.1207" gradientTransform="matrix(1 0 0 -1 0 101.433)" gradientUnits="userSpaceOnUse">
		<stop offset="0" stop-color="#fff"/>
		<stop offset=".34" stop-color="#fff"/>
		<stop offset=".51" stop-color="#bebbdb"/>
		<stop offset=".75" stop-color="#928bbe"/>
		<stop offset=".87" stop-color="#9f99c7"/>
		<stop offset="1" stop-color="#524c76"/>
	</linearGradient>
	<path fill="url(#b)" d="M30.4 47.2c-4.9 4.2-8.2 7-12.3 10.7C8.2 67 1.4 73.9 4.9 83.3c4 10.9 12.8 10.3 23.1 8.3 26.5-5.2 70.1-38.8 67.9-51.1-1.8-10-26.2-29.9-40.6-37C50.8 1.3 45.6.1 40.4.4 20.6 1.2 5.1 19.3 5.9 29.1c.7 9.5 24.8 17.8 24.5 18.1zm-3-33.2c-6 6.6-2.2 19.5 7.7 26.5 11.6 8.2 30.3 9.7 34.1 3.4 7-11.8-.6-24.2-12-29.8-11.1-5.6-26-4.3-29.8-.1z"/>
	<radialGradient id="c" cx="-4670.7061" cy="2977.3955" r="1" gradientTransform="matrix(16.8717 0 0 -12.9316 78844.9609 38524.6992)" gradientUnits="userSpaceOnUse">
		<stop offset="0" stop-color="#fff"/>
		<stop offset=".34" stop-color="#fff"/>
		<stop offset=".51" stop-color="#bebbdb"/>
		<stop offset=".75" stop-color="#928bbe"/>
		<stop offset=".87" stop-color="#9f99c7"/>
		<stop offset="1" stop-color="#524c76"/>
	</radialGradient>
	<path fill="url(#c)" d="M47.8 40.2c8.4 1.2 15.6-2.2 16.7-10.5.9-6.3-8.8-13.2-14.6-14.8-4.8-1.3-15.4.4-16.1 9.5-.7 9.6 9.1 15.1 14 15.8zm-4.1-15.9c-5.5 8.5 8 11.2 10.1 9.6 8.9-6.7-7.7-13.3-10.1-9.6z"/>
	<radialGradient id="d" cx="-4944.2993" cy="3258.4854" r="1" gradientTransform="matrix(-2.3129 146.7568 125.1645 1.9726 -419278.25 719208.125)" gradientUnits="userSpaceOnUse">
		<stop offset="0" stop-color="#fff"/>
		<stop offset=".34" stop-color="#fff"/>
		<stop offset=".51" stop-color="#bebbdb"/>
		<stop offset=".75" stop-color="#928bbe"/>
		<stop offset=".87" stop-color="#9f99c7"/>
		<stop offset="1" stop-color="#524c76"/>
	</radialGradient>
	<path fill="url(#d)" d="M38.8 2.6c-9.7 1-11.6 2.3-20.4 9-3 2.2-8.4 7.7-9.8 14.1-.5 2.5.1 4.6 1.9 6.1 5.7 4.8 15.2 8.6 23 12.4 2.3 1.1.8 3.1-2.9 6.3-9.3 8-21.8 17.8-22.7 25.3-.4 3.5.8 8.3 5.1 10.7 5 2.9 15.3 1 22.2-1.6 10.1-3.8 23.3-12 33.9-20.2 10.9-8.5 21.1-19.2 21.6-21 .6-2.2.6-4.1-.6-6.4-1.9-3.6-4.4-6.3-7.1-9.3-7.2-7.6-14.8-14.3-24-19.4-6.7-3.8-12.5-6.8-20.2-6zm14.3 17c7 3.4 14.3 12.3-.1 17.5-3.9 1.4-16.2-3.4-15.9-10 .6-9.8 7.4-11.6 16-7.5z"/>
</svg>