<svg xmlns="http://www.w3.org/2000/svg" viewBox="0 0 100 100">
	<path fill="#797265" d="M27.5 19.9s8.4 19.3 25.3 18.8c35.4-1 41.7-21.9 45.5-26.7 15.9 119.3-86.9 67.9-84 49.2C32.5 55.6 26 53.5 26 53.5l1.5-33.6z"/>
	<path d="M27.5 19.9s1.2 2.7 3.6 6.1c3.9 5.6 11.2 13 21.7 12.7 35-1 41.3-21.4 45.5-26.7 15.8 119.3-86.9 67.9-84 49.2 3.1-.9 7.8-2.5 10.6-4.1 4.3-2.5 1.1-3.5 1.1-3.5l1.5-33.7zm3.3 11.9-.9 19.9c1.2 1.5 1.4 3.5.4 5.3-1.8 3.3-8 5.5-11.8 6.8 7.7 16.3 84.4 52.7 77.1-40.6C85.6 37 69.9 42 52.9 42.5c-10.1.2-17.4-5.4-22-10.5 0-.1-.1-.1-.1-.2z"/>
	<path d="M69 63.8s2.3 2 3.6 3.8c-5 4-13.6 7.3-30.6 3.8 8.6 3.2 15.8 4.6 21.3 4.3-3.4 1.2-7.6 2-13.1 2.3 12.2 1.2 21.3-1.2 24.6-6.2.8 1 1.7 2.6 2.5 4.7.5-3.6 1.8-5.3-.2-8.1-2.2-2.9-8.1-4.6-8.1-4.6zM26.8 72.2c4.9-3.7 4.8-12.5-.1-19.7-5-7.2-12.9-10.1-17.8-6.4S4 58.6 9 65.8c4.9 7.2 12.9 10.1 17.8 6.4z"/>
	<path fill="#fff" d="M12.7 59c2.5 0 4.4-2.5 4.4-5.6s-2-5.6-4.4-5.6c-2.5 0-4.4 2.5-4.4 5.6-.1 3.1 1.9 5.6 4.4 5.6zM38 60.2c5.5 0 10-4.9 10-10.9s-4.5-10.9-10-10.9-10 4.9-10 10.9 4.5 10.9 10 10.9z"/>
	<path d="M38 39.1c-5.1 0-9.3 4.5-9.3 10.2 0 5.7 4.2 10.2 9.3 10.2s9.3-4.5 9.3-10.2-4.2-10.2-9.3-10.2zm0-1.5c6 0 10.7 5.3 10.7 11.6S44 60.9 38 60.9s-10.7-5.3-10.7-11.6c0-6.4 4.7-11.7 10.7-11.7z"/>
	<path d="M38.1 45.6c-1.7.7-3 2.2-3.6 3.8-2.8 7 5.7 13 10.9 7.6 3.3-3.5 2.2-9.5-2.2-11.4-.8-.4-3.4-.7-5.1 0zm1.9 6.1c-1.3 1.4-3.6.9-4.3-.9-.5-1.4.1-3 1.4-3.6 1.1-.5 5 2.4 2.9 4.5z"/>
	<path fill="#fff" d="M60 64.1c6.6 0 12-5.6 12-12.6S66.7 39 60 39s-12 5.6-12 12.6 5.4 12.5 12 12.5z"/>
	<path d="M60 39.6c-6.2 0-11.4 5.3-11.4 12s5.1 12 11.4 12c6.2 0 11.4-5.3 11.4-12s-5.1-12-11.4-12zM47.4 51.5c0-7.3 5.6-13.2 12.6-13.2s12.6 6 12.6 13.2S67 64.8 60 64.8s-12.6-6-12.6-13.3z"/>
	<path d="M55.1 56.7c2.3 5.9 9.6 7.4 13.9 2.9 4.3-4.5 2.8-12.2-2.8-14.6-6.9-3.1-14 4.3-11.1 11.7zm9.2-8c1.7 4.3-3.5 7.8-6.5 4.6-2.5-2.7-.7-7.2 2.8-7.2 1.6 0 3.1 1 3.7 2.6z"/>
</svg>