<svg xmlns="http://www.w3.org/2000/svg" viewBox="0 0 100 100">
	<path fill="#e84427" d="M98.1 45.5 54.4 1.9c-2.5-2.5-6.6-2.5-9.1 0L36.2 11l11.5 11.5c4-1.4 8.3.7 9.7 4.7.6 1.7.6 3.5 0 5.1l11.1 11.1c4-1.4 8.3.7 9.7 4.7 1.4 4-.7 8.3-4.7 9.7-4 1.4-8.3-.7-9.7-4.7-.6-1.7-.5-3.6.1-5.3L53.6 37.3v27.2c.7.4 1.4.9 2 1.5 3 3 2.9 7.8 0 10.8-3 3-7.8 2.9-10.8 0-3-3-2.9-7.8 0-10.8.7-.7 1.5-1.2 2.4-1.6V36.8c-.9-.4-1.8-1-2.5-1.7-2.2-2.2-2.9-5.5-1.6-8.4L31.8 15.4l-29.9 30c-2.5 2.5-2.5 6.6 0 9.1l43.6 43.6c2.5 2.5 6.6 2.5 9.1 0L98 54.7c2.6-2.5 2.6-6.6.1-9.2 0 .1 0 0 0 0z"/>
</svg>