<svg xmlns="http://www.w3.org/2000/svg" viewBox="0 0 100 100">
	<path fill="#79b8ff" d="M85.3 70.8c-7.3 0-13.4 5.4-14.4 12.5h-.2l-2.1.1c-1.1.1-2 1-2 2.2.1 1.1 1.1 2 2.2 2l2.2-.1c1 7.1 7.1 12.5 14.4 12.5 8.1 0 14.5-6.5 14.5-14.6s-6.5-14.6-14.6-14.6zm.1 25c-5.7 0-10.4-4.6-10.4-10.4C75 79.7 79.7 75 85.4 75c5.8 0 10.4 4.7 10.4 10.4 0 5.8-4.7 10.4-10.4 10.4zM43.7 83.3c-1.2 0-2.1.9-2.1 2.1s.9 2.1 2.1 2.1 2.1-.9 2.1-2.1c0-1.1-.9-2.1-2.1-2.1zM52.1 83.3c-1.2 0-2.1 1-2.1 2.1 0 1.2.9 2.1 2.1 2.1 1.2 0 2.1-.9 2.1-2.1s-1-2.1-2.1-2.1z"/>
	<path fill="#2088ff" d="M85.4 37.4C78.1 37.5 72 42.9 71 50h-8.6c-1-7.1-7.1-12.5-14.4-12.5S34.6 42.9 33.6 50h-2.3c-5 0-9.2-3.6-10.1-8.3 11.4-.1 20.6-9.4 20.6-20.8C41.7 9.3 32.3 0 20.8 0S0 9.3 0 20.8c0 10.1 7.2 18.5 16.7 20.4v29.6c0 9.2 7.6 16.7 16.7 16.7h.1c1 7.1 7.1 12.5 14.4 12.5 8.1 0 14.6-6.5 14.6-14.6S56 70.8 47.9 70.8c-7.3 0-13.4 5.4-14.4 12.5h-.1c-6.8 0-12.5-5.6-12.5-12.5v-21c2.6 2.7 6.3 4.3 10.3 4.3h2.3c1 7.1 7.1 12.5 14.4 12.5 7.3 0 13.4-5.4 14.4-12.5H71c1 7.1 7.1 12.5 14.4 12.5 8.1 0 14.6-6.5 14.6-14.6s-6.5-14.6-14.6-14.6zM47.9 75c5.8 0 10.4 4.7 10.4 10.4 0 5.8-4.6 10.4-10.4 10.4-5.8 0-10.4-4.7-10.4-10.4 0-5.8 4.7-10.4 10.4-10.4zM4.2 20.8c0-9.2 7.5-16.7 16.7-16.7s16.7 7.5 16.7 16.7-7.5 16.7-16.7 16.7c-9.3 0-16.7-7.5-16.7-16.7zm43.7 41.7c-5.7 0-10.4-4.7-10.4-10.4 0-5.8 4.7-10.4 10.4-10.4 5.8 0 10.4 4.7 10.4 10.4 0 5.8-4.7 10.4-10.4 10.4zm37.5 0c-5.7 0-10.4-4.6-10.4-10.4 0-5.7 4.6-10.4 10.4-10.4 5.8 0 10.4 4.6 10.4 10.4 0 5.7-4.6 10.4-10.4 10.4z"/>
	<path fill="#2088ff" d="m50.7 47.8-4.9 4.9-1.7-1.7c-.8-.8-2.1-.8-2.9 0-.8.8-.8 2.1 0 2.9l3.1 3.1c.8.8 2.1.8 2.9 0l6.4-6.3c.8-.8.8-2.1 0-2.9-.8-.8-2.1-.8-2.9 0zM88.2 47.8l-4.9 4.9-1.7-1.7c-.8-.8-2.1-.8-2.9 0-.8.8-.8 2.1 0 2.9l3.1 3.1c.8.8 2.1.8 2.9 0l6.4-6.3c.8-.8.8-2.1 0-2.9-.8-.8-2.1-.8-2.9 0zM29.6 17.1l-10.7-6.5c-2.8-1.7-6.4.3-6.4 3.5v13.3c0 3.3 3.6 5.3 6.4 3.5l10.7-6.7c2.6-1.6 2.6-5.4 0-7.1z"/>
</svg>