<svg xmlns="http://www.w3.org/2000/svg" viewBox="0 0 100 100">
	<path fill="#24292F" d="M50.041 1C22.37 1 0 23.535 0 51.413c0 22.285 14.333 41.149 34.217 47.825 2.486.502 3.397-1.085 3.397-2.42 0-1.168-.082-5.174-.082-9.348-13.92 3.005-16.82-6.01-16.82-6.01-2.237-5.842-5.551-7.344-5.551-7.344-4.556-3.088.332-3.088.332-3.088 5.054.334 7.705 5.174 7.705 5.174 4.474 7.679 11.682 5.51 14.581 4.173.414-3.255 1.74-5.508 3.15-6.76-11.103-1.169-22.785-5.509-22.785-24.873 0-5.509 1.988-10.016 5.136-13.521-.496-1.252-2.237-6.427.498-13.355 0 0 4.226-1.336 13.753 5.175a48.112 48.112 0 0 1 12.51-1.67c4.226 0 8.533.585 12.51 1.67 9.528-6.51 13.754-5.175 13.754-5.175 2.734 6.928.993 12.103.496 13.355 3.232 3.505 5.137 8.012 5.137 13.52 0 19.365-11.681 23.621-22.866 24.874 1.823 1.586 3.396 4.59 3.396 9.348 0 6.76-.082 12.186-.082 13.855 0 1.335.912 2.922 3.397 2.421C85.667 92.561 100 73.698 100 51.413 100.082 23.535 77.63 1 50.04 1Z"/>
</svg>