<svg xmlns="http://www.w3.org/2000/svg" viewBox="0 0 100 100">
	<path fill="#24292e" d="M0 50C0 22.4 22.4 0 50 0c23.3 0 42.9 15.9 48.4 37.5h-19c-.7-1.3-1.6-2.5-2.6-3.6.5-1.2 2.2-6.4-.5-13.3 0 0-4.2-1.4-13.8 5.1-4-1.1-8.2-1.7-12.5-1.7s-8.5.6-12.5 1.7c-9.6-6.4-13.8-5.1-13.8-5.1-2.8 6.9-1 12-.5 13.2-3.2 3.5-5.1 8-5.1 13.4 0 13.4 5.7 19.6 13 22.4V80c-2.8-.2-5.7-1.6-8-5.4-.9-1.5-3.8-5.2-7.7-5.1-4.2.1-1.7 2.4.1 3.3 2.1 1.2 4.6 5.6 5.1 7.1.8 2.3 3.1 6.2 10.5 6.4v10.1C12.9 88.9 0 71 0 50z"/>
	<linearGradient id="a" x1="72.6394" x2="72.6394" y1="57.5361" y2="15.024" gradientTransform="matrix(1 0 0 -1 0 101.433)" gradientUnits="userSpaceOnUse">
		<stop offset="0" stop-color="#0196ca"/>
		<stop offset="1" stop-color="#0065a9"/>
	</linearGradient>
	<path fill="url(#a)" d="m98 49.8-11.6-5.6c-1.3-.6-2.9-.4-4 .7L46 76.4c-1 .9-1 2.4-.2 3.3 0 .1.1.1.2.2l6.2 5.9c.8.8 2.1.8 3 .1l32.2-25 7.6-8.4c.8-.9 1.7-1.9 2.8-1.8 1.1.1 2.1 1 2.1 2.3.1-1.4-.7-2.6-1.9-3.2z"/>
	<linearGradient id="b" x1="72.6389" x2="72.6389" y1="47.215" y2="1.576" gradientTransform="matrix(1 0 0 -1 0 101.433)" gradientUnits="userSpaceOnUse">
		<stop offset="0" stop-color="#01a7de"/>
		<stop offset="1" stop-color="#007acc"/>
	</linearGradient>
	<path fill="url(#b)" d="m98 93.9-11.6 5.6c-1.3.6-2.9.4-4-.7L46 64.2c-1-.9-1-2.4-.2-3.3 0-.1.1-.1.2-.2l6.2-5.9c.8-.8 2.1-.8 3-.1l32.2 28.1 7.6 8.4c.8.9 1.7 1.9 2.8 1.8 1.1-.1 2.1-1 2.1-2.3v.1c.1 1.3-.7 2.5-1.9 3.1z"/>
	<linearGradient id="c" x1="91.2095" x2="91.2095" y1="57.5358" y2="1.5741" gradientTransform="matrix(1 0 0 -1 0 101.433)" gradientUnits="userSpaceOnUse">
		<stop offset="0" stop-color="#2ec2f6"/>
		<stop offset="1" stop-color="#1f9cf0"/>
	</linearGradient>
	<path fill="url(#c)" d="M86.4 99.5c-1.3.6-2.9.4-4-.7 1.3 1.3 5.1.4 5.1-1.5v-51c0-1.8-3.8-2.8-5.1-1.5 1.1-1.1 2.7-1.3 4-.7l11.6 4c1.2.6 2 1.8 2 3.2v40.9c0 1.4-.8 2.6-2 3.2 0 .1-11.6 4.1-11.6 4.1z"/>
</svg>