<svg xmlns="http://www.w3.org/2000/svg" viewBox="0 0 100 100">
	<path fill="#E24329" d="m98.332 40.117-.135-.36-13.61-35.501a3.53 3.53 0 0 0-1.4-1.689 3.595 3.595 0 0 0-5.399 2.055l-9.186 28.125H31.399L22.212 4.622a3.602 3.602 0 0 0-5.399-2.055c-.634.4-1.124.992-1.4 1.689L1.81 39.764l-.141.353a25.268 25.268 0 0 0 8.384 29.204l.051.038.116.09 20.704 15.517 10.271 7.761 6.24 4.719a4.218 4.218 0 0 0 5.085 0l6.24-4.719 10.272-7.761 20.851-15.607.058-.045a25.268 25.268 0 0 0 8.39-29.197Z"/>
	<path fill="#FC6D26" d="m98.332 40.116-.135-.36a45.901 45.901 0 0 0-18.296 8.23l-29.885 22.6 19.029 14.38 20.851-15.607.058-.044a25.269 25.269 0 0 0 8.378-29.198Z"/>
	<path fill="#FCA326" d="m30.924 84.967 10.271 7.762 6.24 4.718a4.217 4.217 0 0 0 5.085 0l6.24-4.718 10.272-7.762-19.029-14.38-19.08 14.38Z"/>
	<path fill="#FC6D26" d="M20.1 47.985a45.862 45.862 0 0 0-18.29-8.224l-.141.354a25.268 25.268 0 0 0 8.384 29.203l.051.039.116.09 20.704 15.516 19.04-14.38L20.1 47.985Z"/>
</svg>