<svg xmlns="http://www.w3.org/2000/svg" viewBox="0 0 100 100">
	<path fill="#4285F4" d="M6.818 87.5h15.91V48.864L0 31.818v48.864A6.816 6.816 0 0 0 6.818 87.5Z"/>
	<path fill="#34A853" d="M77.273 87.5h15.909A6.816 6.816 0 0 0 100 80.682V31.818L77.273 48.864"/>
	<path fill="#FBBC04" d="M77.273 19.318v29.546L100 31.818v-9.09c0-8.433-9.625-13.24-16.364-8.183"/>
	<path fill="#EA4335" d="M22.727 48.864V19.318L50 39.773l27.273-20.455v29.546L50 69.318"/>
	<path fill="#C5221F" d="M0 22.727v9.091l22.727 17.046V19.318l-6.363-4.773C9.614 9.49 0 14.296 0 22.727Z"/>
</svg>