<svg xmlns="http://www.w3.org/2000/svg" viewBox="0 0 100 100">
	<path fill="#8BC34A" d="m22.97 30.763-8.677 15.12c-.045.082-.092.082-.139 0L.021 21.15c-.042-.075-.02-.112.064-.112 4.96-.02 9.909-.02 14.847-.002 1.819.008 2.81.493 3.686 2.008 1.456 2.517 2.906 5.037 4.35 7.559a.151.151 0 0 1 .002.16Zm12.298 19.522.074.045a.24.24 0 0 1 .092.092l7.144 12.258c.01.015.022.028.037.036a.098.098 0 0 0 .049.013h10.114c.095 0 .12.041.072.123l-9.177 16.449a.173.173 0 0 1-.162.096c-1.895.023-4.024.127-5.748-.24-2.516-.54-4.61-1.75-6.28-3.632-.55-.62-1.27-1.703-2.159-3.249-4.219-7.33-8.44-14.667-12.663-22.009a.102.102 0 0 1 0-.101l16.642-29.044a.177.177 0 0 1 .162-.094l17.152.002a.053.053 0 0 1 .048.027.057.057 0 0 1 .001.055L35.235 50.173c-.025.049-.014.086.033.112Z"/>
	<path fill="#8BC34A" d="M57.116 37.704H46.721c-.091 0-.115-.04-.072-.121l8.733-16.455c.035-.066.09-.1.166-.1 1.953.006 4.237-.13 5.956.149 2.67.433 4.904 1.623 6.706 3.57.576.623 1.278 1.645 2.105 3.066 4.34 7.446 8.671 14.888 12.996 22.325a.163.163 0 0 1 0 .159L66.495 79.354a.102.102 0 0 1-.086.049H48.49a.054.054 0 0 1-.045-.027.054.054 0 0 1-.002-.053l16.103-29.015a.172.172 0 0 0-.002-.181L57.267 37.79a.164.164 0 0 0-.15-.086Zm27.268 41.695c-1.388-.002-2.389-.94-3.05-2.079a949.207 949.207 0 0 1-4.35-7.568.166.166 0 0 1 .002-.178l8.708-15.054c.042-.072.083-.072.123 0l14.165 24.79c.036.062.018.093-.052.093-5.178.002-10.36.001-15.546-.004Z"/>
</svg>