<svg xmlns="http://www.w3.org/2000/svg" viewBox="0 0 100 100">
	<path fill="#ffcfab" d="M64.1 8.2 60.3 14l17.8 20.7c.8-3.4 1.4.3 2.1 1.8 1.8 4.1 2.1 8.7 2.7 13.2 2.5 19.7-2.7 36.2-19.8 46.3-5.7 3.3-12.7 4.8-22.3 3-14.2-3-24.2-11.2-29.5-29-4.6-15.6-4-29.6 4.4-46.5 5.5-11.1 15.2-19.3 21.7-22C44.1-1.1 57 .6 64.1 8.2z"/>
	<path d="M37.6 2C31.1 4.6 21.5 12.8 16 23.8 7.6 40.6 7.1 54.5 11.6 70 17 87.8 27.1 95.7 41 98.4c9.5 1.8 16.4.3 22-2.9 8.3-4.9 17-13.5 19.5-28.2 1.3-7.7.6-12.7-.2-19.9-1.1-9-1.9-9.1-2.9-12.2-.1-.4-.4-1.1-.6-1.5-.2.4-.3.8-.5 1.7L59.8 14l3.7-5.7C56.7 1.1 44-.7 37.6 2zm-.3-.8C43.9-1.4 57 0 64.6 8.2L60.8 14 78 33.8c.4-1.1.9-1.1 1.3-.8.6.5.9 2.3 1.4 3.2 2 4.9 2 7.8 2.7 13.3 1.1 8.4.7 13.4 0 18-2.5 15-11.4 23.7-19.9 28.7-7 4.1-14.6 4.6-22.5 3-14.5-2.9-24.6-11.2-29.9-29-4.7-15.8-4-29.9 4.4-46.8C20.9 12.2 30.6 3.9 37.3 1.2z"/>
	<path fill="#f39105" d="M36.5 33.2 34.4 28l2.2-1.1 4.5-.6L49.3 16l4.6.6 3-1.6 2.2-.5-3.5 7.6-6.7.9-12.4 10.2z"/>
	<path d="m59.4 14.5-3.6 7.9-6.9.8-12.5 10.2-2.1-5.5 2.3-1.2 4.4-.6 8.3-10.2 4.6.6 3-1.6c0 .1 2.5-.4 2.5-.4zm-2.4.7-3 1.6-4.6-.6-8.3 10.2-4.4.6-2.2 1 2 5 12.3-10 6.8-.8 3.4-7.4-2 .4z"/>
	<path fill="#ffcfab" d="M66.2 11.9c4.3 5.4 3.3 4.1 4.6 6.2l-7-2.4.8-2.2 1.6-1.6z"/>
	<path d="M66.2 11.8c4.5 5.6 3.4 4.1 4.8 6.5l-7.3-2.5.8-2.3 1.7-1.7zm-1.5 1.8-.8 2.1 6.7 2.3c-1.1-1.8-.2-.6-4.4-5.9l-1.5 1.5z"/>
	<path fill="#f39a05" d="M63.5 15.4c4.2 2.3 2.6 1.6 7.2 3l-4.9 2.7-3.7-.3-.3-2.5c-.1 0 1.7-2.9 1.7-2.9z"/>
	<path d="M63.5 15.3c4.3 2.3 2.6 1.6 7.4 3.1l-5.2 2.8-3.7-.3-.3-2.7 1.8-2.9zm0 .2-1.7 2.8.3 2.4 3.5.3 4.7-2.6c-4-1.2-2.5-.5-6.8-2.9z"/>
	<path fill="#ab9a7e" d="m36.6 33.5 2.5 4.1-2.5 6.5 6 1.1c1.7 1.7.6.3 5.1 7.2L59.8 46l3.6 1 3.9-1.2-2.7-2.9.5-.8 1.3-.8c.8 2.6.4 1.6 1.7 4.6l3 3.7.8-.5.2-2.4 2.8-.5 1-.8 2.5-.3.6-3.1c-2.2-9.1-1.8-6.7-1.8-10.7L80 31l2.5 1.9 3.7 1 1.4-.3c-6.7-8.4-5.4-7-11.3-11-7.1.4-4.7 0-10.5 1.4l-4 1.9-2.4-.3-3-1.4-1-1.4-6.2-.2-12.6 10.9z"/>
	<path d="m76.4 22.5 2.9 1.9c2.9 1.8 3.5 2.8 8.5 9.2l-1.6.4-3.7-1-2.5-1.9-2.7.5c0 3.9-.4 1.6 1.8 10.6l-.7 3.2-2.5.3-1 .8-2.7.5-.2 2.3-.9.5-3.1-3.7c-1.3-3.1-1-2.1-1.7-4.5l-1.1.7-.4.7 2.8 2.9-4 1.2-3.6-1-12.1 6.4c-4.5-6.9-3.4-5.5-5.1-7.2l-6.1-1.1 2.6-6.6-2.6-4.2 12.8-11 6.3.2 1 1.5 3 1.4 2.3.3c3.5-1.8 5.7-3.3 14.3-3.3zm-27 .2L36.8 33.6l2.5 4.1-2.5 6.5 6 1.1c1.7 1.7.7.3 5.1 7.1l12-6.3 3.6 1 3.7-1.1-2.6-2.8.5-.9 1.4-.9c.8 2.7.4 1.7 1.8 4.7l3 3.6.7-.4.2-2.4 2.9-.5 1-.8 2.4-.3.6-3c-2.2-9-1.8-6.7-1.8-10.8l3-.5 2.6 1.9 3.6.9 1.3-.3c-2.9-3.7-5.1-6.8-8.3-8.9l-2.8-1.9c-7 .4-4.7 0-10.4 1.4l-4 1.9-2.4-.3-3.1-1.4-.9-1.4-6.5-.2z"/>
	<path fill="#fff" d="m66.4 41.3.8 2.1-.5 1.3-2.4-1.4.6-1.1 1.5-.9z"/>
	<path d="m66.4 41.2.8 2.2-.5 1.4-2.6-1.5.7-1.2 1.6-.9zm-1.4 1-.6 1 2.2 1.3.4-1.1-.7-1.9-1.3.7z"/>
	<path fill="#fff" d="m70 32.7 2.5-2.2 1.4-.2.5.8-2.2 2.4-1.2.5-1-1.3z"/>
	<path d="m74 30.3.5.9-2.3 2.5-1.4.5-1.1-1.4 2.6-2.3c.2-.1 1.7-.2 1.7-.2zm-1.4.3-2.5 2.1.9 1.1 1.2-.4 2.2-2.3-.4-.7-1.4.2z"/>
	<path fill="#fff" d="M74.6 21.7c-9.3 2.4-6.5 1.4-12.9 4l-4.5-1.3-1.6-1.9 4.1-9.4 3.9-4.8 2.5-1 2.8.6 2.9 4.3 3.1 2-.4.6C69.1 13 71 13.7 66 11.5c-4.4 6.8-3.6 5.2-4.6 7.9l.6 1.9 10.3-1.7 1.1.9c.3.1 1.2 1.2 1.2 1.2z"/>
	<path d="m69.1 7.9 2.9 4.3 3.1 2.1-.4.7c-5.5-1.9-3.6-1.1-8.5-3.3-4.4 6.8-3.5 5.1-4.5 7.8l.6 1.8 10.3-1.7c1.4 1.2.9.7 2.2 2.2-9.6 2.4-6.6 1.5-13 4.1l-4.5-1.3-1.6-2 4.2-9.4 3.9-4.8 2.6-1 2.7.5zm-2.8-.4-2.5 1-3.8 4.8-4.1 9.3 1.5 1.8 4.4 1.3c6.4-2.6 3.5-1.7 12.7-4-1-1.2-.6-.7-1.9-1.9l-10.4 1.8-.7-2c1-2.7 0-.9 4.7-8.1 5.1 2.2 3.2 1.5 8.5 3.3l.3-.5-3-2L69 8l-2.7-.5z"/>
	<path fill="#fff" d="m77.6 22.9 1.8 2.3h1.2c4.9 5.5 3.9 4.3 5.3 6l1.9-1.2c3.6-8 3.4-7.7 3.6-12.1l-1-1.2c-4.3 0-2.9-.2-6.3.6 0 0-2.2 1.1-1.6 1.1.6 0 3.7 1 3.7 1l1.3 1 .3 1.4-1.7 3.5-.8.8c-4.2-2.8-3.3-2.1-4.8-3.2-2.3-.4-1.1 0-2.9 0z"/>
	<path d="m90.5 16.6 1.1 1.3c-.3 5.2-.8 5.9-3.6 12.2l-2 1.3c-1.5-1.8-.4-.6-5.3-6h-1.2l-2-2.5c2.3-.2 1.6-.2 3.1 0 1.5 1.1.5.4 4.7 3.1l.7-.7 1.7-3.5-.3-1.4-1.2-.9c-3.7-1.2-3.8-.8-3.8-1.1 0-.3 1.6-1.1 1.8-1.2v.1-.1c3.4-.8 1.9-.6 6.3-.6zm-7.9 1.7c.6 0 3.1.8 3.6 1v.1-.1l1.3 1 .3 1.5-1.8 3.5-.9.9c-4.4-2.9-3.4-2.2-4.8-3.2-1.4-.2-.8-.2-2.6 0l1.7 2.2h1.1c5 5.6 3.9 4.4 5.3 6l1.8-1.2c3.7-8.1 3.4-7.8 3.6-12l-1-1.2c-1.5 0-5.5-.3-7.6 1.5z"/>
	<path fill="#fff" d="M73.7 41.5c-.9 3.1 2.5.3 2.5 0s-1.2-.2-2.5 0z"/>
	<path fill="#9e0000" d="M76.1 41.3c1 .3-3.6 3.6-2.5.2h.1v-.1c.4-.1 1.9-.3 2.4-.1zm-2.4.2c-.1-.1 0 0 0 0zm0 .1c0 .1-.3 1.3.1 1.3.6 0 2.2-1.1 2.2-1.3-.2-.3-1.9-.1-2.3 0 .1-.1 0 0 0 0z"/>
	<path d="M79.4 32.7c.4-.6 1.2-.5 2.7.4 1.2.7 2.7.8 4.3.9 3.3.2 2.4-.4-.3-2.8 2 1.2 5.2-7.4 5.5-10.8.5-3.9-.2-4.4-4.3-4-3.6.4-8.1 2.2-3.8 2.7 3 .5 3.8 1.5 3.8 2.6 0 1.2-1.6 4-2.3 4-.3 0-1.2-.7-2.1-1.6-1.8-1.7-2.8-2-4.5-1.5-1-.3-2.4-.4-3.5-1.1-.3-.2-.1-.4-.7-1.1-1-1.3-1.8-1.1-2.8-.9-1.3.3-1.4.3-.4-.4 1.3-.9.9-.8-3.5-6.8 1.7.9 7.1 3.9 8.2 2.2.5-.7-3.2-1.8-4.4-4.1-.5-.9-1.2-2.1-1.5-2.5-.8-.9-3.6-1.4-5-.8-2 .7-4.7 5-5.7 6.9-1-.2-2.7.5-3.4 1.1-1.2 1.1-1.4 1.1-3.7.5-2.8-.8-2.8-1.2-8 5.8-1.6 2.3-3.1 4.1-3.2 4.2-1 0-4.5.4-6 1-1.9.7-2 .9 3.8 11.2-1 2.5-2.7 6.3-2.4 6.8.4.6 5.5 1.1 6.6 1.2 6.2 9.3 4.1 7.4 9.2 5 1.7-.9 4.1-2.2 5.3-3 2.3-1.5 5.4-1.9 4.7.3-.5 1.5-.4 2.4-.2 3.4.4.4.8.6 1.5 1 3.3 2 3.3 1.1 3.3-1.2l.6 1.2c1.5 3.1 3.8-1.3 1.4-3.9-.6-.7-1-1.6-.7-1.6.5 0 2.3 2.4 2.3 3.1 0 .6 2.1 1.1 2.1-2.2 0-.6 1.6-.9 3-1.4.4-.1.4-.3.8-.6.9.2 1.9.2 2.4-.5 1.1-1.8 1.3-4.1.4-6.1-.4-1-1.1-3.7-.5-5.4m-6 6.9c0-1.1-.2-1.1-2.1-.1-.9.5-1.6 1.2-1.6 1.7 0 1.2 1.5 2.8 2.7 2.8.5 0 3.1.5 3.8.5 0 .2-.3.4-.5.4-2.6.8-3.6-1.4-3.5 1.7.1 1 0 1.5-.2 1.1-.2-.4-.9-1.4-1.7-2.1-2.7-2.5-.2-5.3-5-9.3-2.2-1.8-3.1-3.3-2.6-4.8.2-.8.7-1.2 1.7-1.2 5.6-.2 13.5-8.9 5.9-3.6-3.7 2.6-3.8 2.2-10.3 2.7 2.7-2.8 3.4-3.7 3.4-3.9 0-1.1 4.9-3.2 8.5-3.6 5.2-.6 5.4-.5 5.8 1.2.4 2 1.5 2.5 1.2.5-.2-1.4-.2-1.4.6-.5.5.6.8 1.6.8 2.4 0 3.8 2 3.4-2.8 4.4.3 2.6.6 5.9 1.5 8.2.8 1.8.6 5.1-.3 5.7-.2.2-1.5.1-2.8-.1-2.2-.3-2.4-.5-2.4-1.7M68.4 8.1c1.2.5 2.3 4 4.1 5.2.6.5 2.3 1.1 2.2 1.2-.2.2-3.3-.8-5.2-1.8-1.5-.8-3-1.4-3.4-1.3-1 .2-7.4 9.2-3.9 10.4 1 .3 8.4-1.4 9.7-1.6.9-.1 2 .7 2 1.4 0 .2-1.6.5-3.5.7-6.8.6-7.7 4.6-12.3 2.2-2.2-1.1-2.1-2.3 1.1-8.5 3.4-7.1 5.9-9.2 9.2-7.9zm-.2 6.4c2.3 3.4 2.3 3.3.7 2.9-2.3-.7-4.1-1.8-4.6-2.1.4-.8 1.3-2.8 1.9-2.8.4 0 1.2.9 2 2zm-10.1.9c0 .1-.6 1.5-1.3 3.1-1.2 2.6-1.5 2.9-3.3 3.2-1.1.2-2.6.3-3.5.3-2.9 0-6.5 5.9-13.3 10.5-2-4.5-2.7-5 1.8-5.4 5.1-.4 3.8-2.5 9.4-8.7 1.8-2.1 2.2-2.3 3.2-1.7 1.7.9 3.6.7 5-.5 1.1-.9 2-1.3 2-.8zm11.8 3.3c-1.3.7-3.2 1.7-5.4 2.1-2.4.4-2.8-.4-1.8-2.8.4-1.1.7-1.4 1-1.8 1.5.6 1 .9 6.2 2.5zm21.2.4c.2 3.4-4 14.3-5.9 10.9-.5-1-1.8-2.9-3.9-4.6-1-.8-1.7-.4-1.8-.5-.9-1.2-.9-1.7.3-1.8 1.7 0 2.4 1.9 4.4 2.9 1.3.7 1.5.6 2.6-.5.8-.9 1.3-2.2 1.4-3.8.1-1.6-.5-2.5-3.2-3.1-.8-.2-2.4-.1-2.1-.3.5-.5 5-1.4 6.6-1.4 1 .1 1.5 0 1.6 2.2zm-33.2 6.3c1 .5 2.2.8 2.6.8 1.4 0-.3 2-2.5 3-1.1.5-2 1.1-2 1.3 0 .2 1.1.6 2.4.8 5.2.7-1.5 1.5 5.3 7.4 2.1 1.7 2.3 2.1 1.7 2.7-.9.9-2.7.4-5.4-.1l.2-2.7c.2-3-.6-3.7-1.2-1.1-1.4 7.3 3.5 3.8 6.5 7l1.2 1.3c-1.2.4-3.1 1.2-3.5.6-1.1-1-3.7-1-5.2 0l-1.5 1c-4.9-3.9-5.2-3.7-6.4-7.7-.7-2.5-1.5-3.7-2.1-3.2-.1.1.3 1.6.9 3.5 2.1 6.6 7 7.4 6.2 8.2-.4.3-6.8 3.5-7.1 3.5-.2 0-1.3-1.5-2.5-3.4-1.9-3-2.4-3.4-3.9-3.5-1.9-.1-2.9-.4-4.4-.7 1.6-3.9 1-2.4 2.6-6.1-1.2-2-2.3-3.5-1.9-4.6.4-.8.5-.7.7.3.4 1.6 1.3 1.5 1.4-.2 0-1.8 3.1-4.3 2.7-3.6-.6 1.3 1.3 4.1 1.3.5 0-1.2.6-2.3 2.1-4.1 1.8-2.1 2.1-2.2 2.1-1.2 0 1.5 1.5 1.9 1.2-.3l-.2-1.6c9.5-.5 4 0 8.7 2.2zm15 16.5c-.2 1.4 1.6 2.2 3.5.1.7-.8.7-1 .1-1.3-.7-.3-2.9 0-3.3.3-.2.3-.3.7-.3.9zm10.3-13.6c1.8 2.3 2.2 3.5 4.3 5.1 0 0-.8 0-2.7-.5-4.2-1.2-4.5-1.8-4.2-3.1.3-1 .4-1 1.7.3.7.7 1.6 1.2 1.7 1 .6-.5-2.3-3.3-3.1-3-.7.3-1.4-1.7-1.2-2.6.1-.2.3-.2.6-.1.8.4 1.7 1.4 2.9 2.9zm-4.6 3.6c-.2.2-.5.2-.7 0-.4-.5 1-.5.7 0zm-7.3 11c0 1.4-.7 1.7-1.3.8-.8-1.4 1.3-3.6 1.3-.8zm2.5-.6c-.2-.6.2-.8.8-.8.6-.1 1.1-.1 1.1.2 0 .2-1.6 1.3-1.9.6zm-7.7 1.4c-.7 0-1.2-.8-.7-1.3 1.2-1.2 1.6 1.3.7 1.3z"/>
	<path d="M75.9 30.3c.5-.5-1.4-2.5-2.4-2.5-1.3 0 2 3 2.4 2.5zm-6.1 3.4c.3.6.9 1.1 1.4 1.1 1.1 0 4.1-3 3.8-3.9-.8-2.2-6.4.6-5.2 2.8zM74 31c0 .3-.4.5-.8.5-1.1 0-1.6 2.2-2.5 1.8-.4-.3-.1-.8.8-1.6 1.6-1.3 2.5-1.5 2.5-.7z"/>
	<path fill="#ffcfab" d="M66.5 41.4c-.5.6-1.1.9-1.7 1.1 0 0 1.9 2.5 2.2 2.1.4-.4-.5-3.3-.5-3.2z"/>
	<path d="M66.6 41.4h-.1.1c1.4 4.2.4 4.5-1.9 1.2l.1-.1-.1.1-.1-.1.2-.1c.6-.3.9-.3 1.8-1.2-.1 0 0 .2 0 .2zM65 42.6c.4.5 1.6 1.9 1.9 2 .3-.4-.3-2.5-.5-3-.4.5-.8.8-1.4 1zM28.8 80.1c-2.5 0-4.5-.6-5.9-1.9-6.7-5.8 1.8-22.8 15.9-15.5l-.6 2.8H38c-1.6-1.5-3.7-2.4-6.4-2.4-10.4 0-12.4 19.5 1.9 14.2l1-4.7h-4.9l.5-2.1h7.3l-1.8 7.9c-1.8.7-4 1.7-6.8 1.7zm19-.1C33 80 42 54 57.3 62.7l-.6 2.8h-.2c-5.1-5.1-13.7-1.8-13.6 7.3 0 6.4 6.7 6.9 11.8 2.8h.2l-.6 2.8c-1.9.9-4.2 1.7-6.5 1.6zm17.6 0C61 80 58 77.7 58 73.1c0-10 9-14.9 17-10.5l-.6 2.8h-.2c-5.3-5.2-13.7-1.6-13.6 7.3 0 6.4 6.7 6.8 11.8 2.8h.2l-.6 2.8c-2 1-4.3 1.8-6.6 1.7z"/>
	<path fill="#fff" d="M71.6 41.3c-.2-.8-2.2.6-2.2 1.5 0 .8 2 2.4 2.1 1.7.1-.8.3-2.5.1-3.2z"/>
	<path d="M71.7 41.2c.1.5.2 3.3-.3 3.4-.6.2-2.2-1.2-2.1-1.9 0-.9 2.2-2.4 2.4-1.5zm-1.9.9c-.4.5-.4.8 0 1.3.4.6 1.6 1.4 1.7 1 .2-.7.3-2.4.1-3.1h.1-.1c-.2-.5-1.4.3-1.8.8z"/>
</svg>