<svg xmlns="http://www.w3.org/2000/svg" viewBox="0 0 100 100">
	<path fill="#fff" d="M93.885 67.256s-.149-.897-.233-.886l-16.227 1.566a2.64 2.64 0 0 0-2.388 2.448l-.445 6.39-12.557.897-.851-5.793a2.663 2.663 0 0 0-2.621-2.258H41.437a2.663 2.663 0 0 0-2.62 2.258l-.851 5.793-12.557-.896-.445-6.392a2.637 2.637 0 0 0-2.388-2.448L6.339 66.37c-.081-.01-.145.886-.23.886l-.02 3.512 13.753 2.219.449 6.446a2.658 2.658 0 0 0 2.45 2.454l17.293 1.236a2.662 2.662 0 0 0 2.808-2.253l.879-5.96h12.56l.88 5.96a2.662 2.662 0 0 0 2.805 2.253l17.294-1.236a2.659 2.659 0 0 0 2.452-2.454l.448-6.446 13.746-2.23-.021-3.501Z"/>
	<path fill="#478CBF" d="M6.109 40.77v26.486c.05 0 .097.003.144.006l16.238 1.567a1.748 1.748 0 0 1 1.576 1.617l.502 7.169 14.16 1.01.977-6.614a1.75 1.75 0 0 1 1.73-1.495h17.128a1.75 1.75 0 0 1 1.73 1.495l.977 6.614 14.163-1.01.499-7.17a1.747 1.747 0 0 1 1.576-1.616l16.23-1.566a1.74 1.74 0 0 1 .145-.006V65.14h.007V40.769c2.287-2.875 4.449-6.05 6.109-8.72-2.535-4.318-5.64-8.173-8.961-11.746a87.544 87.544 0 0 0-8.893 5.175c-1.414-1.407-3.004-2.556-4.57-3.758-1.535-1.233-3.266-2.138-4.91-3.192.488-3.64.731-7.224.828-10.965C69.259 5.428 64.74 4.017 60.17 3c-1.825 3.068-3.496 6.388-4.947 9.634-1.724-.286-3.455-.393-5.19-.413v-.004c-.013 0-.023.004-.033.004-.01 0-.02-.004-.035-.004v.004c-1.732.02-3.464.127-5.188.413C43.326 9.39 41.656 6.068 39.83 3c-4.569 1.017-9.089 2.428-13.325 4.563.098 3.741.34 7.324.829 10.965-1.643 1.054-3.375 1.96-4.91 3.192-1.563 1.202-3.155 2.35-4.57 3.758a87.544 87.544 0 0 0-8.893-5.175C5.641 23.876 2.534 27.732 0 32.049c1.994 3.129 4.132 6.27 6.109 8.722Z"/>
	<path fill="#478CBF" d="m79.317 72.166-.501 7.207a1.746 1.746 0 0 1-1.621 1.618L59.9 82.228c-.04.003-.084.003-.124.003-.859 0-1.604-.63-1.728-1.491l-.993-6.73h-14.11l-.993 6.729a1.747 1.747 0 0 1-1.852 1.489L22.804 80.99a1.745 1.745 0 0 1-1.62-1.62l-.501-7.206-14.601-1.407c.007 1.569.026 3.29.026 3.63 0 15.42 19.562 22.831 43.862 22.915h.06c24.3-.084 43.855-7.495 43.855-22.915 0-.347.02-2.06.026-3.63l-14.594 1.408Z"/>
	<path fill="#fff" d="M36.769 51.523a9.785 9.785 0 1 1-19.568 0c0-5.402 4.381-9.78 9.783-9.78 5.405 0 9.785 4.378 9.785 9.78Z"/>
	<path fill="#414042" d="M34.416 52.102a6.493 6.493 0 0 1-6.496 6.493 6.495 6.495 0 0 1-6.496-6.493 6.495 6.495 0 0 1 11.088-4.591 6.492 6.492 0 0 1 1.904 4.591Z"/>
	<path fill="#fff" d="M50 62.197c-1.741 0-3.148-1.282-3.148-2.862v-9.008c0-1.579 1.407-2.862 3.148-2.862 1.738 0 3.152 1.283 3.152 2.862v9.008c0 1.58-1.414 2.862-3.152 2.862Zm13.231-10.674c0 5.405 4.381 9.786 9.785 9.786 5.402 0 9.783-4.381 9.783-9.786 0-5.402-4.38-9.78-9.783-9.78-5.405 0-9.785 4.378-9.785 9.78Z"/>
	<path fill="#414042" d="M65.585 52.102a6.49 6.49 0 0 0 6.492 6.493 6.493 6.493 0 1 0-6.492-6.493Z"/>
</svg>