<svg xmlns="http://www.w3.org/2000/svg" viewBox="0 0 100 100">
	<path fill="#00acd7" d="M9 40.5c-.2 0-.4.1-.5.2l-1 1.3c-.1.1 0 .2.1.2h17.6c.1 0 .4-.1.5-.3l.8-1.3c.1-.1 0-.3-.1-.3H9zM23.8 45H1.6c-.2 0-.4.1-.5.2l-1 1.3c-.1.1 0 .2.1.2h23c.2 0 .4-.1.4-.3l.4-1.2c.1-.1 0-.2-.2-.2zM.2 46.8zM22.7 49.5H13c-.2 0-.4.1-.5.3l-.7 1.2c-.1.1 0 .3.1.3h10.6c.1 0 .3-.1.3-.3l.1-1.2c.1-.2 0-.3-.2-.3zM99.8 45.2c-.6-4.7-3-8.2-6.9-10.9-4.2-2.9-8.9-3.4-13.9-2.5-5.8 1-10.1 3.5-13.6 8.1-1.5 2-2.6 4.1-3.3 6.3H46.4c-.7 0-1.1.5-1.2.8-.7 1.3-1.8 3.8-2.5 5.3-.3.8-.1 1.5.9 1.5H53c-.5.7-.9 1.3-1.3 1.8-2.2 2.5-5 3.7-8.3 3.2-3.8-.5-6.5-3.8-6.6-7.6 0-3.9 1.7-7.1 5-9.3 2.8-1.8 5.7-2.2 8.8-.7 1 .5 1.6 1 2.3 1.8.6.7.7.7 1.4.5 3-.8 5.1-1.4 8.2-2.1.6-.1.8-.4.5-.8-1.2-2.8-3.1-5.2-5.6-6.9-3.9-2.7-8.3-3.2-12.9-2.4-5.6 1-10.2 3.9-13.6 8.4-3.2 4.2-4.8 9-4.1 14.3.5 4.5 2.6 8.1 6.2 10.8 3.9 2.9 8.3 3.8 13.1 3.2 5.8-.8 10.4-3.7 13.9-8.3.8-1.1 1.5-2.2 2.1-3.3.8 3 2.5 5.5 4.9 7.6 3.4 2.9 7.4 4.2 11.9 4.3 1.3-.1 2.6-.2 3.9-.4 4.5-.9 8.5-3 11.7-6.2 4.2-4.6 6.1-9.9 5.3-16.5zM84 58c-2.6 1.3-5.3 1.5-7.9.3-3.5-1.6-5.4-5.4-4.5-9.2 1.1-4.6 4-7.4 8.5-8.5 4.6-1.1 9.1 1.7 9.9 6.5.1.5.1 1 .1 1.6C90 52.9 87.9 56 84 58z"/>
</svg>