<svg xmlns="http://www.w3.org/2000/svg" viewBox="0 0 100 100">
	<linearGradient id="a" x1="98.4699" x2="59.4178" y1="44.4736" y2="11.4215" gradientTransform="matrix(1 0 0 -1 0 101.433)" gradientUnits="userSpaceOnUse">
		<stop offset="0" stop-color="#087cfa"/>
		<stop offset=".02" stop-color="#0d7bfa"/>
		<stop offset=".37" stop-color="#5566f9"/>
		<stop offset=".66" stop-color="#8a57f8"/>
		<stop offset=".88" stop-color="#ab4ef7"/>
		<stop offset="1" stop-color="#b74af7"/>
	</linearGradient>
	<path fill="url(#a)" d="M88.1 38.7 100 65.1 79.6 100 67 69.5l21.1-30.8z"/>
	<path fill="#b74af7" d="M67 69.5 79.6 100 48 89.1l19-19.6z"/>
	<linearGradient id="b" x1="34.4122" x2="58.1517" y1="70.437" y2="97.4474" gradientTransform="matrix(1 0 0 -1 0 101.433)" gradientUnits="userSpaceOnUse">
		<stop offset="0" stop-color="#087cfa"/>
		<stop offset=".02" stop-color="#0d7bfa"/>
		<stop offset=".37" stop-color="#5566f9"/>
		<stop offset=".66" stop-color="#8a57f8"/>
		<stop offset=".88" stop-color="#ab4ef7"/>
		<stop offset="1" stop-color="#b74af7"/>
	</linearGradient>
	<path fill="url(#b)" d="M70.4 28.2 64 0H28L0 42.9l8.1 19.7-8.1 18 58.1-49.4 12.3-3z"/>
	<linearGradient id="c" x1="13.8977" x2="86.0331" y1="14.076" y2="60.4302" gradientTransform="matrix(1 0 0 -1 0 101.433)" gradientUnits="userSpaceOnUse">
		<stop offset="0" stop-color="#087cfa"/>
		<stop offset=".1" stop-color="#1598d3"/>
		<stop offset=".22" stop-color="#23b6aa"/>
		<stop offset=".35" stop-color="#2dcc8b"/>
		<stop offset=".46" stop-color="#35dd74"/>
		<stop offset=".57" stop-color="#39e767"/>
		<stop offset=".67" stop-color="#3bea62"/>
	</linearGradient>
	<path fill="url(#c)" d="m100 21.2-41.9 10L0 80.6 37.5 100 67 69.5l33-48.3z"/>
	<path d="M18.8 18.7h62.5v62.5H18.8V18.7z"/>
	<path fill="#fff" d="M24.6 69.5H48v3.9H24.6v-3.9zM22.9 39.9c0-1.8.3-3.6 1-5.2s1.7-3.1 2.9-4.3c1.3-1.2 2.8-2.2 4.4-2.9 1.6-.7 3.4-1 5.2-.9 3.7-.2 7.3 1.1 10.1 3.5l-3.6 4.3c-1.8-1.7-4.2-2.7-6.7-2.6-4.2 0-7.4 3.6-7.4 8v.1c0 4.7 3.2 8.2 7.8 8.2 1.9.1 3.8-.5 5.3-1.6v-3.7h-5.7v-4.9h11.2v11.2c-3.1 2.6-7 4.1-11 4.1-8 0-13.5-5.7-13.5-13.3zM49.8 39.9c0-1.9.4-3.6 1.1-5.3.7-1.6 1.7-3.1 3-4.4 1.3-1.2 2.8-2.2 4.5-2.8 1.7-.6 3.4-.9 5.2-.9 7.9 0 13.7 5.9 13.7 13.2v.1c0 1.8-.4 3.6-1 5.2s-1.7 3.1-3 4.4c-1.3 1.2-2.8 2.2-4.5 2.9-1.7.6-3.4 1-5.2.9-8.1 0-13.8-6-13.8-13.3zm21.5 0c0-1.1-.1-2.2-.5-3.1-.4-1-.9-1.9-1.7-2.6-.7-.8-1.6-1.3-2.6-1.8-1-.4-2-.6-3-.6s-2.1.2-3 .6c-1 .4-1.8 1-2.5 1.7s-1.3 1.6-1.7 2.6c-.4 1-.5 2-.5 3v.1c0 1 .1 2.1.5 3.1s.9 1.9 1.7 2.6c.7.8 1.6 1.4 2.6 1.8 1 .4 2 .6 3.1.6 1 0 2.1-.2 3-.6s1.8-1 2.5-1.8 1.3-1.6 1.7-2.6.4-2 .4-3z"/>
</svg>