<svg xmlns="http://www.w3.org/2000/svg" viewBox="0 0 100 100">
	<path fill="#3c8bd9" d="M34 15.5c1-2.5 2.3-4.9 4.3-6.8C46.2 1 59.2 3 64.6 12.6c4 7.3 8.3 14.5 12.4 21.7 7 12.1 14 24.2 20.8 36.3 5.8 10.1-.5 22.9-11.9 24.6-7 1-13.6-2.2-17.2-8.5C62.6 76.1 56.5 65.5 50.4 55c-.1-.2-.3-.4-.4-.6-.6-.5-.9-1.3-1.3-2-2.7-4.8-5.5-9.5-8.2-14.2-1.7-3.1-3.5-6.1-5.3-9.1-1.6-2.7-2.3-5.7-2.2-8.9.1-1.6.3-3.2 1-4.7z"/>
	<path fill="#fabc04" d="M34 15.5c-.4 1.5-.7 2.9-.8 4.4-.1 3.4.7 6.5 2.4 9.5C40 37 44.5 44.7 48.8 52.3c.4.7.7 1.4 1.1 2-2.4 4.2-4.8 8.4-7.3 12.5-3.4 5.8-6.8 11.7-10.2 17.6-.2 0-.2-.1-.2-.2 0-.3.1-.6.2-.9 1.7-6 .3-11.4-3.9-16-2.5-2.8-5.8-4.3-9.5-4.9-4.7-.7-8.9.6-12.8 3.6-.7.5-1.1 1.3-1.9 1.7-.2 0-.2-.1-.3-.2 1.9-3.3 3.8-6.7 5.8-10 8-13.9 15.9-27.7 24-41.5 0-.2.1-.3.2-.5z"/>
	<path fill="#34a852" d="M4.2 67.6c.8-.7 1.5-1.4 2.3-2.1 9.8-7.7 24.5-2.1 26.6 10.1.5 2.9.2 5.8-.6 8.6 0 .2-.1.5-.2.7-.4.6-.7 1.3-1.1 2-3.6 5.9-8.9 8.9-15.8 8.4C7.5 94.8 1.2 88.8.2 80.9c-.5-3.8.2-7.4 2.2-10.7.4-.7.9-1.4 1.3-2.1.2-.2.1-.5.5-.5z"/>
</svg>