<svg xmlns="http://www.w3.org/2000/svg" viewBox="0 0 100 100">
	<path fill="#ffa000" d="M14 80.6 26.3 1.9c.2-1.2 1.3-2 2.5-1.9.7.1 1.3.6 1.6 1.2L43.2 25l5-9.7c.6-1.1 1.9-1.5 3.1-1 .4.2.7.6 1 1l34.3 65.3H14z"/>
	<path fill="#f57c00" d="M56.5 50 43.2 25 14 80.6 56.5 50z"/>
	<path fill="#ffca28" d="m86.7 80.6-9.5-58.3c-.2-1.2-1.4-2.1-2.6-1.9-.5.1-.9.3-1.2.6L14 80.6l32.9 18.5c2.1 1.1 4.6 1.1 6.6 0l33.2-18.5z"/>
	<path fill="#a52714" opacity=".2" d="M53.5 98.5c-2.1 1.1-4.6 1.1-6.6 0L14.1 80.2v.5l32.8 18.4c2.1 1.1 4.6 1.1 6.6 0l33.2-18.5v-.5L53.5 98.5z"/>
	<linearGradient id="a" x1="12.0679" x2="87.9249" y1="83.86" y2="7.952" gradientTransform="matrix(1 0 0 -1 0 101.433)" gradientUnits="userSpaceOnUse">
		<stop offset="0" stop-color="#fff" stop-opacity=".1"/>
		<stop offset="1" stop-color="#fff" stop-opacity="0"/>
	</linearGradient>
	<path fill="url(#a)" d="M77.3 22.4c-.2-1.2-1.4-2.1-2.6-1.9-.5.1-.9.3-1.2.6L61.6 32.9l-9.2-17.7c-.6-1.1-2-1.5-3.1-1-.4.2-.7.6-1 1l-5 9.7L30.6 1.2c-.6-1.1-2-1.5-3.1-.9-.6.3-1.1.9-1.2 1.6L14 80.6l32.9 18.5c2.1 1.1 4.6 1.1 6.6 0l33.2-18.5c0 .1-9.4-58.2-9.4-58.2z"/>
	<linearGradient id="b" x1="39.9306" x2="37.9026" y1="46.8466" y2="48.8746" gradientTransform="matrix(1 0 0 -1 0 101.433)" gradientUnits="userSpaceOnUse">
		<stop offset="0" stop-color="#a52714" stop-opacity=".8"/>
		<stop offset=".5" stop-color="#a52714" stop-opacity=".21"/>
		<stop offset="1" stop-color="#a52714" stop-opacity="0"/>
	</linearGradient>
	<path fill="url(#b)" opacity=".2" d="m14 80.6 47.6-47.8-9.2-17.6c-.6-1.1-2-1.5-3.1-1-.4.2-.7.6-1 1l-5 9.7L30.6 1.2c-.6-1.1-2-1.5-3.1-.9-.6.3-1.1.9-1.2 1.6L14 80.6z"/>
	<linearGradient id="c" x1="32.2377" x2="27.7077" y1="55.5563" y2="57.9253" gradientTransform="matrix(1 0 0 -1 0 101.433)" gradientUnits="userSpaceOnUse">
		<stop offset="0" stop-color="#a52714"/>
		<stop offset=".4" stop-color="#a52714" stop-opacity=".5"/>
		<stop offset=".8" stop-color="#a52714" stop-opacity="0"/>
	</linearGradient>
	<path fill="url(#c)" opacity=".12" d="M43.3 24.9 30.6 1.2c-.6-1.1-2-1.5-3.1-.9-.6.3-1.1.9-1.2 1.6L14 80.6l29.3-55.7z"/>
</svg>