<svg xmlns="http://www.w3.org/2000/svg" viewBox="0 0 100 100">
	<path fill="#34A853" d="M34.238 74.097a101.038 101.038 0 0 1 7.88 11.622c2.01 3.811 2.847 6.395 4.316 10.987C47.335 99.243 48.15 100 49.9 100c1.908 0 2.773-1.288 3.442-3.28 1.388-4.336 2.477-7.646 4.196-10.773C60.91 79.91 65.1 74.546 69.218 69.39c1.115-1.459 8.322-9.96 11.567-16.667 0 0 3.988-7.369 3.988-17.66 0-9.625-3.933-16.302-3.933-16.302l-11.323 3.033-6.877 18.111-1.7 2.497-.341.453-.452.566-.795.905-1.134 1.134-6.124 4.99-15.31 8.839-2.546 14.81Z"/>
	<path fill="#FBBC04" d="M18.437 51.483c3.737 8.534 10.942 16.037 15.817 22.62l25.893-30.67s-3.648 4.77-10.265 4.77c-7.37 0-13.325-5.886-13.325-13.308 0-5.089 3.061-8.585 3.061-8.585l-17.576 4.71-3.605 20.463Z"/>
	<path fill="#4285F4" d="M60.436 1.577c8.6 2.773 15.96 8.594 20.412 17.177l-20.694 24.66s3.062-3.56 3.062-8.617c0-7.595-6.395-13.268-13.303-13.268-6.533 0-10.285 4.763-10.285 4.763V10.756l20.808-9.18Z"/>
	<path fill="#1A73E8" d="M23.18 12.473C28.318 6.329 37.356 0 49.816 0c6.045 0 10.6 1.587 10.6 1.587L39.608 26.306h-14.74L23.18 12.473Z"/>
	<path fill="#EA4335" d="M18.437 51.482S15 44.752 15 35c0-9.217 3.583-17.273 8.18-22.526l16.44 13.834-21.183 25.175Z"/>
</svg>