<svg xmlns="http://www.w3.org/2000/svg" viewBox="0 0 100 100">
	<path fill="#F8AB00" d="M69.523 11.93v74.974c0 8.397 5.784 13.07 11.924 13.07 5.679 0 11.93-3.949 11.93-13.07v-74.4C93.378 4.816 87.7 0 81.448 0a12.128 12.128 0 0 0-11.924 11.93Z"/>
	<path fill="#E37300" d="M38.245 50.013v36.918c0 8.397 5.791 13.069 11.93 13.069 5.68 0 11.931-3.948 11.931-13.07V50.554c0-7.686-5.685-12.503-11.93-12.503a12.135 12.135 0 0 0-11.931 11.963ZM30.861 88.04a11.93 11.93 0 1 1-23.86 0 11.93 11.93 0 0 1 23.86 0Z"/>
</svg>