<svg xmlns="http://www.w3.org/2000/svg" viewBox="0 0 100 100">
	<path fill="#4386FA" d="M22.623 91.114.872 53.437a6.506 6.506 0 0 1 0-6.507L22.623 9.253A6.506 6.506 0 0 1 28.249 6h43.526a6.507 6.507 0 0 1 5.602 3.253L99.128 46.93a6.508 6.508 0 0 1 0 6.507L77.377 91.114a6.506 6.506 0 0 1-5.626 3.254H28.237a6.507 6.507 0 0 1-5.614-3.254Z"/>
	<path fill="#000" d="M63.589 38.05s6.048 14.505-2.197 22.726c-8.244 8.222-23.254 2.96-23.254 2.96s22.315 22.609 30.536 30.619h3.1A6.506 6.506 0 0 0 77.4 91.1l14.4-24.934L63.589 38.05Z" opacity=".1"/>
	<g fill="#fff">
	<path d="m70.73 67.728-6.683-6.683a1.046 1.046 0 0 0-.247-.188 18.169 18.169 0 1 0-3.16 3.183c.048.086.108.165.177.235l6.683 6.683a1.047 1.047 0 0 0 1.48 0l1.75-1.75a1.047 1.047 0 0 0 0-1.48Zm-21.294-4.322a13.67 13.67 0 1 1 0-27.341 13.67 13.67 0 0 1 0 27.341Z"/>
	<path d="M40.698 49.008v5.65a10.053 10.053 0 0 0 3.653 3.71v-9.395l-3.653.035Z"/>
	<path d="M40.698 49.008v5.65a10.053 10.053 0 0 0 3.653 3.71v-9.395l-3.653.035Zm6.836-4.688v15.27c1.207.222 2.445.222 3.653 0V44.32h-3.653Z"/>
	<path d="M47.534 44.32v15.27c1.207.222 2.445.222 3.653 0V44.32h-3.653Zm10.57 10.335v-3.347h-3.653v7.047a10.054 10.054 0 0 0 3.653-3.7Z"/>
	<path d="M58.104 54.655v-3.347h-3.653v7.047a10.054 10.054 0 0 0 3.653-3.7Z"/>
	</g>
</svg>