<svg xmlns="http://www.w3.org/2000/svg" viewBox="0 0 100 100">
	<path fill="#8ab4f8" d="M58.7 95.9 41.3 79l37.3-38.1 18 17.6-37.9 37.4z"/>
	<path fill="#4285f4" d="M58.8 21.1 41.5 3.4 3.7 40.9c-4.9 4.9-4.9 12.8 0 17.7L40.9 96l17.6-16.5-28.4-29.8 28.7-28.6z"/>
	<path fill="#8ab4f8" d="M96.3 41.2 58.8 3.7C54-1.2 46-1.2 41.2 3.7c-4.9 4.9-4.9 12.8 0 17.7l37.5 37.5c4.9 4.9 12.8 4.9 17.7 0 4.8-4.9 4.8-12.9-.1-17.7z"/>
	<path fill="#246fdb" d="M49.7 100c6.7 0 12.2-5.5 12.2-12.2 0-6.7-5.5-12.2-12.2-12.2-6.7 0-12.2 5.5-12.2 12.2 0 6.7 5.5 12.2 12.2 12.2z"/>
</svg>