<svg xmlns="http://www.w3.org/2000/svg" viewBox="0 0 100 100">
	<path fill="#EA4335" d="M46.824 47.762 4.875 91.712a11.379 11.379 0 0 0 16.661 6.751l47.2-26.882-21.912-23.819Z"/>
	<path fill="#FBBC04" d="m89.243 40.292-20.412-11.69-22.975 20.16L68.925 71.52 89.18 59.953a11.098 11.098 0 0 0 0-19.661h.063Z"/>
	<path fill="#4285F4" d="M4.875 8.315a10.83 10.83 0 0 0-.375 2.876v77.646c.003.97.129 1.937.375 2.876l43.387-42.824L4.875 8.315Z"/>
	<path fill="#34A853" d="M47.137 50.014 68.83 28.6 21.692 1.595A11.628 11.628 0 0 0 15.847 0 11.378 11.378 0 0 0 4.875 8.284l42.262 41.73Z"/>
</svg>