<svg xmlns="http://www.w3.org/2000/svg" viewBox="0 0 100 100">
	<linearGradient id="a" x1="1.6285" x2="98.106" y1="55.8148" y2="45.678" gradientTransform="matrix(1 0 0 -1 0 101.433)" gradientUnits="userSpaceOnUse">
		<stop offset="0" stop-color="#06a0ce"/>
		<stop offset="1" stop-color="#51cbbf"/>
	</linearGradient>
	<path fill="url(#a)" d="M94.6 17.9c-2.9-2.9-6.8-4.6-10.9-4.6-4.1-.1-8.1 1.5-11.1 4.3-.2.1-.3.3-.4.5-.1.2-.1.4-.1.6 0 .2 0 .4.1.6.1.2.2.4.4.5l1.9 2c.3.3.6.4 1 .4s.7-.1 1-.3c1.8-1.5 4.2-2.2 6.5-2 2.3.2 4.5 1.3 6 3.1s2.3 4.1 2.2 6.4c-.1 2.3-1.1 4.6-2.8 6.2C75.7 48.1 58.9 12.9 20.8 31c-.6.3-1.2.7-1.7 1.3-.5.5-.8 1.2-1 1.9-.2.7-.3 1.4-.2 2.1.1.7.3 1.4.7 2l6.5 11.3c.7 1.2 1.8 2 3.1 2.4 1.3.4 2.7.2 3.9-.5l.2-.1-.1.1 2.9-1.6c3.2-2 6.3-4.3 9.1-6.8.3-.3.6-.4 1-.4s.8.1 1.1.4c.2.1.3.3.4.5.1.2.1.4.1.6 0 .2 0 .4-.1.6-.1.2-.2.4-.4.5-3 2.7-6.2 5.1-9.6 7.3h-.1l-2.9 1.6c-1.2.7-2.6 1-4 1-1.5 0-2.9-.4-4.1-1.1-1.3-.7-2.3-1.8-3-3l-6.2-10.7C4.4 48.8-2.9 65 1.1 85.5c.1.3.2.7.5.9.3.2.6.3 1 .4h7c.4 0 .8-.1 1-.4.3-.3.5-.6.5-1 .3-2.5 1.5-4.8 3.4-6.4 1.9-1.7 4.3-2.6 6.8-2.6s4.9.9 6.8 2.6c1.9 1.7 3.1 3.9 3.4 6.4 0 .4.2.7.5.9.3.2.6.4 1 .4h6.8c.4 0 .7-.1 1-.4.3-.2.5-.6.5-.9.3-2.5 1.5-4.8 3.4-6.4 1.9-1.7 4.3-2.6 6.8-2.6s4.9.9 6.8 2.6c1.9 1.7 3.1 3.9 3.4 6.4 0 .4.2.7.5.9.3.2.6.4 1 .4H70c.4 0 .8-.2 1.1-.4.3-.3.4-.7.5-1.1.2-9.6 2.7-20.5 10.1-26 25.4-19.1 18.8-35.4 12.9-41.3zm-26 28.8-4.9-2.4c0-.5.1-1 .4-1.5.3-.5.6-.8 1.1-1.1.4-.3.9-.4 1.5-.5s1 .1 1.5.3c.5.2.9.6 1.2 1 .3.4.5.9.5 1.4 0 .5 0 1-.3 1.5-.2.6-.6 1-1 1.3z"/>
</svg>