<svg xmlns="http://www.w3.org/2000/svg" viewBox="0 0 100 100">
	<path fill="#e10098" d="M87.7 62V38.1c3.9-.9 6.8-4.5 6.8-8.6 0-4.9-4-8.9-8.9-8.9-2.5 0-4.8 1.1-6.4 2.8l-20.7-12c.2-.8.4-1.7.4-2.5C58.9 4 54.9 0 50 0s-8.9 4-8.9 8.9c0 .9.1 1.7.4 2.5L20.8 23.3c-1.6-1.7-3.9-2.7-6.4-2.7-4.9 0-8.9 4-8.9 8.9 0 4.2 2.9 7.7 6.8 8.6V62c-3.9.9-6.8 4.5-6.8 8.6 0 4.9 4 8.9 8.9 8.9 2.5 0 4.8-1.1 6.4-2.8l20.6 11.9c-.2.8-.4 1.6-.4 2.5 0 4.9 4 8.9 8.9 8.9s8.9-4 8.9-8.9c0-.9-.1-1.7-.4-2.5L79 76.7c1.6 1.7 3.9 2.8 6.4 2.8 4.9 0 8.9-4 8.9-8.9.2-4.2-2.7-7.7-6.6-8.6zM77.1 27c-.2.8-.4 1.6-.4 2.5 0 4.2 2.9 7.7 6.8 8.6V62c-.1 0-.2.1-.4.1l-27-46.7.3-.3L77.1 27zM77 68.4H23c-.4-1.6-1.3-3.1-2.5-4.2l27-46.7c.8.2 1.6.4 2.5.4s1.7-.1 2.5-.4l27 46.7c-1.2 1.1-2.1 2.6-2.5 4.2zM43.6 15.1l.3.3-27 46.7c-.1 0-.2-.1-.4-.1V38.1c3.9-.9 6.8-4.5 6.8-8.6 0-.9-.1-1.7-.4-2.5l20.7-11.9zM56.4 85c-1.6-1.7-3.9-2.8-6.4-2.8s-4.8 1.1-6.4 2.8L22.9 73.1c0-.1.1-.2.1-.4h54c0 .1.1.2.1.4L56.4 85z"/>
</svg>