<svg xmlns="http://www.w3.org/2000/svg" viewBox="0 0 100 100">
	<path fill="#f44040" d="M50 0C22.4 0 0 22.4 0 50s22.4 50 50 50 50-22.4 50-50S77.6 0 50 0zm0 83c-18.2 0-33-14.8-33-33s14.8-33 33-33 33 14.8 33 33-14.8 33-33 33z"/>
	<path fill="#697586" d="M52.7 27.8c.3-.9 1.5-1.1 2-.2l9.2 18.6c.2.4.5.6 1 .6h7.5c1.8 0 3.2 1.5 3.1 3.2 0 1.7-1.4 3.1-3.1 3.1H60.9c-.4 0-.8-.2-1-.6L55.2 43l-7.9 29.2c-.3.9-1.5 1.1-2 .2l-9.2-18.6c-.2-.4-.5-.6-1-.6h-7.5c-1.8 0-3.2-1.5-3.1-3.2 0-1.7 1.4-3.1 3.1-3.1h11.5c.4 0 .8.2 1 .6l4.7 9.6 7.9-29.3z"/>
</svg>