<svg xmlns="http://www.w3.org/2000/svg" viewBox="0 0 100 100">
	<linearGradient id="a" x1="50.004" x2="50.004" y1="60.6061" y2="1.5741" gradientTransform="matrix(1 0 0 -1 0 101.433)" gradientUnits="userSpaceOnUse">
		<stop offset="0" stop-color="#00583e"/>
		<stop offset="1" stop-color="#00835c"/>
	</linearGradient>
	<path fill="url(#a)" d="M90.4 41.3c4.8-.2 9.1 3.5 9.5 8.3 1.8 23.3-19.5 49.4-49.5 50.2C25 100.5 0 80.2 0 49.6c0-4.8 4-8.7 8.8-8.7s8.7 3.9 8.7 8.7c0 20.2 16.2 33.2 32.4 32.8 19.9-.6 32.9-17.8 32.2-31.9-.2-4.8 3.5-8.9 8.3-9.2z"/>
	<path fill="#00a672" d="M90.8 41.3H77.6c-5 0-9 4-9 9 0 4.9 4 9 9 9h13.1c5 0 9.1-4 9.1-9 .1-5-4.1-9-9-9zM50 41.3c-4.9 0-8.9 4-8.9 9s4 9 8.9 9 8.9-4 8.9-9-3.9-9-8.9-9zM50.4 17.5c4.8-.2 8.5-4.3 8.3-9.1-.2-4.8-4.3-8.6-9.1-8.4C20.1.5-1 25.5 0 50.7c.2 4.8 4.4 8.7 9.2 8.5 4.8-.2 8.5-4.3 8.3-9.1-.6-15.4 12.1-31.8 32.9-32.6z"/>
</svg>