<svg xmlns="http://www.w3.org/2000/svg" viewBox="0 0 100 100">
	<linearGradient id="a" x1="66.8487" x2="87.0241" y1="84.5563" y2="84.5563" gradientTransform="matrix(1 0 0 -1 0 101.433)" gradientUnits="userSpaceOnUse">
		<stop offset="0" stop-color="#00b9b6"/>
		<stop offset="1" stop-color="#72cbca"/>
	</linearGradient>
	<path fill="url(#a)" d="m76.9 26.9-10.1-10 10-10.1 10.1 10-10 10.1z"/>
	<linearGradient id="b" x1="13.3289" x2="47.5393" y1="84.3541" y2="84.3541" gradientTransform="matrix(1 0 0 -1 0 101.433)" gradientUnits="userSpaceOnUse">
		<stop offset="0" stop-color="#6ecac9"/>
		<stop offset="1" stop-color="#00b0ad"/>
	</linearGradient>
	<path fill="url(#b)" d="m30.3 34.2-17.1-17L30.1 0l17.1 17-16.9 17.2z"/>
	<path fill="#234d55" d="M40.4 86.6c1.8 2.4 4.1 4.3 6.9 5.7 2.9 1.4 6 2.2 9.5 2.2 3.1 0 5.7-.4 7.8-1.3 2.1-.9 3.9-2.1 5.2-3.6 1.3-1.5 2.3-3.3 2.9-5.4.6-2.1.9-4.2.9-6.6v-7.7h-.2c-2 2.9-4.4 5-7.2 6.3-2.8 1.2-5.8 1.8-8.9 1.8-3.1 0-6.1-.6-8.8-1.7-2.7-1.1-5.1-2.6-7.1-4.6-2-1.9-3.6-4.2-4.8-6.9-1.2-2.7-1.7-5.6-1.7-8.7 0-3.1.6-6 1.7-8.7 1.1-2.7 2.6-5.1 4.6-7.1 1.9-2 4.2-3.6 6.9-4.7s5.6-1.7 8.8-1.7c1.3 0 2.7.1 4.1.4 1.4.2 2.9.7 4.3 1.3 1.4.6 2.9 1.5 4.3 2.5 1.4 1.1 2.7 2.4 4 4.1h.2V35h6.1v42.7c0 2.3-.3 4.8-.9 7.4-.6 2.6-1.7 5.1-3.4 7.3s-4 4-7 5.5-6.9 2.2-11.8 2.2c-4.3 0-8.1-.7-11.5-2.1-3.4-1.4-6.4-3.6-9.2-6.5l4.3-4.9zm1.1-30.7c0 2.3.4 4.4 1.2 6.4.8 2 2 3.7 3.4 5.2s3.1 2.7 5.1 3.6c1.9.9 4 1.3 6.3 1.3 2.2 0 4.3-.4 6.3-1.2 2-.8 3.8-1.9 5.3-3.4 1.5-1.4 2.7-3.2 3.5-5.2.8-2 1.2-4.3 1.1-6.8 0-2.3-.4-4.4-1.1-6.4-.7-2-1.8-3.7-3.2-5.2-1.4-1.5-3.1-2.7-5.1-3.6-2-.9-4.3-1.3-6.8-1.3-2.3 0-4.4.4-6.3 1.3-1.9.9-3.6 2.1-5.1 3.6-1.4 1.5-2.6 3.2-3.4 5.2-.8 2.1-1.2 4.2-1.2 6.5zM30.9 6.8 20.6 17.1 31 27.4h8.8l-9.2-9.1 45.4-.2-4 4h4.4l5.2-5.2-5.2-5.2H72l4 4-45.5.2 9.1-9.2-8.7.1z"/>
</svg>