<svg xmlns="http://www.w3.org/2000/svg" viewBox="0 0 100 100">
	<path fill="#fba919" d="M17.8 24.3s1.7 6.6 2 8.8c.2 2.2-4.4 7.1-4.4 9.5s1 6.8 6.4 9.1c5.4 2.2 6.1 7.8 6.1 11.3 0 3.4-2 10-2 10s-1.2 16.4 5.4 19.3 5.1 2.9 6.6 2.9 12.2 4.4 18.6 2.7c6.4-1.7 8.1-3.7 8.1-3.7s6.4.5 8.3-5.1c2-5.6 3.2-17.4 2.4-22.7-.8-5.4-1.8-12.5 2.7-14.9 4.4-2.4 9.1-5.4 8.3-7.8-.7-2.4-4.6-5.9-4.6-5.9s-1-6.1-.2-7.6c.7-1.5 5.1-5.1 2.7-7.8s-6.8-2.7-6.8-2.7l-5.6.5s-9.5-8.6-22-8.1-20.3 8.1-20.3 8.1-4.2-1.5-7.8 0c-3.9 1.4-4.7-.1-3.9 4.1z"/>
	<g fill="#e78724">
		<path d="M40.1 60.7s-4.8 7.4-8.4 12.7c-.5.8 3.6.9 3.6.9l4.8-13.6zm2.3-15.3S40.9 49 40.1 51c-.8 2-4.1 3.1-4.1 3.1s1.7-1.8 1.7-6.4c0-1.9 2.5-2.7 2.5-2.7l2.2.4z"/>
		<path d="M41 47.4S38 51 32.5 49c-5.6-2-6.1-9.1-6.1-11.1s10.5 2 12 2.8c1.3.9 4 4.3 2.6 6.7zm-21-38s5.1-1 8.5 1.7 4.4 4.8 4.4 4.8l-5.8 4.6s-2.8-1.3-3.6-5c-.8-3.7-.2-5.4-3.5-6.1z"/>
		<path d="M30.7 32.4c-5-.4-7.3 1.4-7.3 1.4s8.1.3 10.5 3.4c4.4 5.7 10.7 6.2 11.7 4.9-5.5.5-4.7-9-14.9-9.7zm-4.9 15.8s-9-3.1-7.3-6.2c1.7-3.1.4-4.8.4-4.8s-5 3.8-3.7 7.7c.8 2.4 2.1 4.2 9.4 7.6 3.5 6.5.7 18.1.9 18.1.3.1 4.9-2.3 4.6-13.2-.3-3.2-.6-7.8-4.3-9.2zm11.8-33.3c-3.8 1.9-8.9 4.6-8.9 4.6l2 1c-.1.2-.2.3-.3.5 1.9.9 1.8.5 10.3 7.1-1-3.2-4.1-8.2-4.1-8.2s-.9-2.4 1-5zm12.5 78.2c-11.6 0-15.5-5.9-15.5-5.9l1.8 4.4c.7 1.9 8 7.9 13.7 7.9"/>
		<path d="M35.8 83.2s1.1 6.5 5.3 6.5c3.6 0 4.7-5.5 4.7-6.6l-10 .1zm-7.1-9.8c2.4-6 2.6-13.9 2.4-20.4 0 0-1.1 4.4-2.1 5.1-1 .7-2.9 5.6-2.9 5.6s-1 7.2-1.5 9.6c1.4.2 2.5-.5 4.1.1zM18.4 44.8s2.4-.9 3.1-6.1c.7-5.3-.9-9.8-.9-9.8.1 10.6-.9 8.1-3.3 12.4-.9 1.8.5 3 1.1 3.5z"/>
	</g>
	<path fill="#fdc168" d="m21.3 10.6-.5-.3c-1.4.1.5.3.5.3z"/>
	<path fill="#fba919" d="M39.5 13.4s-2.3-.4-3.4-2.1c-1.1-1.7-4.4-5.1-9.5-5.2-5.1 0-10.2 1.4-10.2 1.4l4.4 2.8h2.7c5.6.2 6.4 5.7 6.4 5.7l19.7-2.7"/>
	<path fill="#fff" d="M41.4 43.9s-2.7 2.7-6.7 1.8c-4.1-.9-6.6-2.7-6.7-5.8-.2-3.1.9-4.4.9-4.4s4.6 1.4 6.7 3.3c2.1 1.9 3.8 5 5.8 5.1z"/>
	<path fill="#c9c9c9" d="M38.2 42.9c-3.4 1.6-8.3-.2-8.5-4.4 0 0-2.1 6.1 3.7 7.2 4.7.9 7.4-1.8 7.4-1.8l-2.6-1z"/>
	<g fill="#463014">
		<path d="M39.9 12.1c-.2-5.2 4-9.4 5.5-9.5.1.9-.1 4.3 1.4 5.4.4-2.9 1.8-6 7.6-8-1.2 3.3-.2 6 .3 7.3 3.9-3.6 6.6-3 6.6-3s-2.7 4.7-1.7 7.8c-7.8-.6-19.7.8-19.7 0zM23.1 20c-1.9-1.6-.5-3-.6-4.8-.1-.9-.2-1.8-.5-2.3-1.7-2.7-5.8-3.6-5.9-3.6L14.3 9l1.3-1.5c.2-.2 5.4-5.2 13.4-2.6 5.6 1.8 9.8 8 10 8.2l-2.8 1.3c0-.1-3.3-5.9-8.2-7.4-4-1.2-7.6 0-9.1.8 9 3.9 4 8.3 7.3 11.3l-3.1.9zm-5 22.8s2.4-2.9 3.1-8.7c.3-2.3-.2-6.7-1-8.4.1 4.2-.9 8.4-.9 8.4s-.8 7.9-1.2 8.7z"/>
		<path d="M30.6 17.1c-1.4-5.6-5.8-7.4-9.5-6.1l-.5-1.6c.2-.1 4.3-1.4 8.1 1.3s4.3 5.1 4.3 5.4l-2.4 1zm-5 23.6s-1.2-1.8-1-3.7c.3-2.7 2.8-3.3 3.5-1.3 0 0-2.1.5-2.5 5z"/>
		<path d="M39.2 43.4c.1.1.1.2.1.2s-3.9 2.9-7.9 0c-2.1-1.6-1.9-5.5-1.3-7.2 1.5.4 3 1 4.3 1.9-1.5-1.4-2.8-2.4-2.8-2.4-2.1-.6-1-.3-5.1-1.6 0 .3-1.3 6 2.3 9.9 1.6 1.7 8.9 5.6 12.4-1l-2 .2z"/>
		<path d="M38.9 43.9c2.2 3.3 7.7 1.4 7.6-2.1 0 0-3.7 2-6.9-1.7-1.9-2.2-8-8.2-16.2-6.2 5.6 1.2 13.1 6.4 15.5 10z"/>
		<path d="M22.5 53.2c.5.3 2.4 2.2 2.4 5.1 0 1.4-.1 8.7-.9 13.1 1.1.7 1.8.8 2.9 1.6.5-5.1.9-12.5.7-15.5-.2-3.4-2-5.7-3.7-6.7-3.1-1.8-7.5-3.5-7.5-6.9 0-3.6 2.6-3.5 3.5-5.6 1.1-2.4 1.3-8.6 0-10.2-1.7-2.2-3-5.6-.5-6.7 2.2-1.3 7-.3 9.3.6 5.5 1.8 11.3 6.5 13.7 8.3l-.7-1.1c0-.1-4.3-7.1-12-9.7-5.4-1.8-12.8-2.6-14.4 2.8-1 3.6 2.2 7.5 2.3 7.6.4.7.5 5.4-.3 7.3-.3 1-4.2 2-4.2 6.5 0 4.8 5.2 7 9.4 9.5z"/>
		<path d="M23.1 20c-1.9-1.6-.5-3-.6-4.8-.1-.9-.2-1.8-.5-2.3-1.7-2.7-5.8-3.6-5.9-3.6L14.3 9l1.3-1.5c.2-.2 5.4-5.2 13.4-2.6 5.6 1.8 9.8 8 10 8.2l-2.8 1.3c0-.1-3.3-5.9-8.2-7.4-4-1.2-7.6 0-9.1.8 9 3.9 4 8.3 7.3 11.3l-3.1.9z"/>
		<path d="M23.1 20.4c-2.1-2.1-.8-2.9-.8-5.1-.1-.9-.1-1.8-.4-2.2-1.7-2.8-5.7-3.4-8.1-3.9l1.6-1.9c5.4-5.4 16.5-5.2 24 6L36 14.9c-1.2-2.5-4.7-6.4-8.1-7.5-2-.7-5.5-.7-8.3.5 1.6.7 3.4 1.9 4.6 3.8 1.7 2.9-.1 5.6 2.6 7.6l-3.7 1.1z"/>
		<path d="M30.6 17.1c-1.4-5.6-5.8-7.4-9.5-6.1l-.5-1.6c.2-.1 4.3-1.4 8.1 1.3s4.3 5.1 4.3 5.4l-2.4 1z"/>
		<path d="M30.4 17.5c-1.3-3.8-3-6.5-7-6.5-1.2 0-2.1.3-2.2.3l-.3.1-.7-2.2.3-.1c.1 0 4.3-1.5 8.4 1.3 3.9 2.8 4.4 5.3 4.5 5.6v.2l-3 1.3zM28 11.8c1.8 1.4 2.6 3.9 2.9 4.8l1.9-.8C31.7 12 26.1 8 21 9.5l.4 1.1c1.8-.6 4.5-.4 6.6 1.2zm10 70h5.7c1.3 0 2.3.5 1.9 1.8-.2.5-1.1 2.2-2.5 3.8-3.5 3.5-10.7-5.6-5.1-5.6zM41.9 44l-3-.2c1.6 2.8 1.9 5 .8 8 0 0 4-4.5 2.2-7.8zm-3.8 52.2c-10.8-.8-14.6-11-14.6-13.2h2.8-1.4 1.4c0 .9 2.9 9.7 12 10.4l-.2 2.8z"/>
	</g>
	<path fill="#fff" d="M35.1 75.1c-.8-.6-2.3-.8-3.4-1.2-.9-.6-5.5.6-8.9-3.5-4.2-5.1-3.3-8.1-3.3-8.1-1.1 1.2-2.1.7-3.8 6.3s.7 9.5 5.3 13.4c2.1 1.8 5.1 2.6 7.7 2.9-.9-.9 1.5-1 3.1-1.6-.2-2.3.7-3.9 3.2-4.9 0-.1.1-.2.1-.3 0-.5-.3-1.5 0-3z"/>
	<path fill="#c9c9c9" d="M31.6 82.5c-.1-.3-.4-1.2 0-.2-.1-.3-.2-.5-.3-.8-7.3 0-13.7-5-12.4-15.6-1.7-2.2-7.4 12.6 3.5 17.3 3.1 1.4 5.9 2.4 6.6 2 1.4.3 2.6-.7 3.1-1.3-.2-.2-.5-1.1-.5-1.4z"/>
	<path fill="#463014" d="M34.9 76.4c0-.9.2-1.8.6-2.6 0-.1.1-.1.1-.2-2.8 0-6.1-.3-8.8-1.4-3-1.2-6.8-5.4-7.5-10.2 0 0-5.7 4.4-4 13.8 1.6 8.9 9 11.7 17.4 12.2 0-.1-1-2-.6-3.2-4.8.3-10.1-1.5-12.7-5.8-2.4-3.9-1.7-10.6-.7-11.5 2.3 7.5 10.9 9 16.2 8.9z"/>
	<path fill="#463014" d="M31.2 79.1s4.3-.2 4.5-1c.2-.6 3.9-9.2 5.3-19.3-3.4 5.4-4.9 14.6-9.8 20.3z"/>
	<g fill="#e78724">
		<path d="M60 60.7s4.8 7.4 8.4 12.7c.6.8-3.6.9-3.6.9L60 60.7zm-2.3-15.3S59.2 49 60 51c.9 2.1 4.2 3.1 4.2 3.1s-1.7-1.8-1.7-6.4c0-1.9-2.5-2.7-2.5-2.7l-2.3.4z"/>
		<path d="M59.2 47.4s3 3.6 8.5 1.6c5.6-2 6.1-9.1 6.1-11.1s-10.5 2-12 2.8c-1.3.9-4 4.3-2.6 6.7zm21-38s-5.1-1-8.5 1.7-4.4 4.8-4.4 4.8l5.8 4.6s2.8-1.3 3.6-5c.8-3.7.2-5.4 3.5-6.1z"/>
		<path d="M69.5 32.4c5-.4 7.3 1.4 7.3 1.4s-8.1.3-10.5 3.4c-4.4 5.7-10.7 6.2-11.7 4.9 5.5.5 4.7-9 14.9-9.7zm4.9 15.8s9-3.1 7.3-6.2c-1.7-3.1-.3-4.8-.3-4.8s5 3.8 3.7 7.7c-.8 2.4-2.1 4.2-9.4 7.6-3.5 6.5-.7 18.1-.9 18.2-.3.1-4.9-2.3-4.6-13.2.1-3.3.4-7.9 4.2-9.3zM62.6 14.9c3.8 1.9 8.9 4.6 8.9 4.6l-2 1c.2.3.3.5.3.5-1.9.9-1.8.5-10.3 7.1 1-3.2 4.1-8.2 4.1-8.2s.8-2.4-1-5zM50 93.1c11.6 0 15.5-5.9 15.5-5.9l-1.8 4.4c-.7 1.9-8 7.9-13.7 7.9"/>
		<path d="M64.3 83.2s-1.1 6.5-5.3 6.5c-3.6 0-4.7-5.5-4.7-6.6l10 .1zm7.1-9.8c-2.4-6.1-2.6-14-2.4-20.5 0 0 1.1 4.4 2.1 5.1 1 .7 2.8 5.6 2.8 5.6s1 7.2 1.5 9.6c-1.3.3-2.4-.4-4 .2zm10.3-28.6s-2.4-.9-3.1-6.1c-.7-5.3.9-9.8.9-9.8-.1 10.6.9 8.1 3.3 12.4.9 1.8-.5 3-1.1 3.5z"/>
	</g>
	<path fill="#fdc168" d="m78.8 10.6.5-.3c1.5.1-.5.3-.5.3z"/>
	<path fill="#fba919" d="M60.6 13.4s2.3-.4 3.4-2.1c1.1-1.7 4.4-5.1 9.5-5.2 5.1 0 10.2 1.4 10.2 1.4l-4.4 2.8h-2.7c-5.6.2-6.4 5.7-6.4 5.7l-19.7-2.7"/>
	<path fill="#fff" d="M58.7 43.9s2.7 2.7 6.7 1.8c4.1-.9 6.6-2.7 6.7-5.8.2-3.1-.9-4.4-.9-4.4s-4.6 1.4-6.7 3.3c-2.1 1.9-3.7 5-5.8 5.1z"/>
	<path fill="#c9c9c9" d="M61.9 42.9c3.4 1.6 8.3-.2 8.5-4.4 2.7 7.9-7.5 9.1-11.1 5.5l2.6-1.1z"/>
	<g fill="#463014">
		<path d="M77 20c1.9-1.6.5-3 .6-4.8.1-.9.2-1.8.5-2.3 1.7-2.7 5.8-3.6 5.9-3.6l1.9-.3-1.3-1.5c-.2-.2-5.4-5.2-13.4-2.6-5.6 1.8-9.8 8-10 8.2l2.8 1.3c0-.1 3.3-5.9 8.2-7.4 3.9-1.3 7.5-.1 9.1.7-9 3.9-4 8.3-7.3 11.3l3 1zm5 22.8s-2.4-2.9-3.1-8.7c-.3-2.3.2-6.7 1-8.4-.1 4.2.9 8.4.9 8.4s.8 7.9 1.2 8.7z"/>
		<path d="M69.5 17.1c1.4-5.6 5.8-7.4 9.5-6.1l.5-1.6c-.2-.1-4.3-1.4-8.1 1.3s-4.3 5.1-4.3 5.4l2.4 1zm5.1 23.6s1.2-1.8 1-3.7c-.3-2.7-2.8-3.3-3.5-1.3 0 0 2.1.5 2.5 5z"/>
		<path d="M60.9 43.4s-.1.1-.1.2c0 0 3.9 2.9 7.9 0 2.1-1.6 1.9-5.5 1.3-7.2-1.5.4-3 1-4.3 1.9 1.5-1.4 2.8-2.4 2.8-2.4 2.1-.6 1-.3 5.1-1.6 0 .3 1.3 6-2.3 9.9-1.6 1.7-8.9 5.6-12.4-1l2 .2z"/>
		<path d="M61.3 43.9c-2.2 3.3-7.7 1.4-7.6-2.1 0 0 3.7 2 6.9-1.7 1.9-2.2 8-8.2 16.2-6.2-5.6 1.2-13.2 6.4-15.5 10z"/>
		<path d="M77.6 53.2c-.5.3-2.4 2.2-2.4 5.1 0 1.4.1 8.7.9 13.1-1.1.7-1.8.8-2.9 1.6-.5-5.1-.9-12.5-.7-15.5.2-3.4 2-5.7 3.7-6.7 3.1-1.8 7.5-3.5 7.5-6.9 0-3.6-2.5-3.5-3.5-5.6-1.1-2.4-1.3-8.6 0-10.2 3-4 2.6-7.3-2.4-7.3-8.1 0-15.4 6.1-20.1 9.5l.7-1.1c0-.1 4.3-7.1 12-9.7 5.6-1.9 12.9-2.6 14.4 2.8 1 3.6-2.2 7.5-2.3 7.6-.4.7-.5 5.4.3 7.3.3 1 4.2 2 4.2 6.5 0 4.3-4.4 6.7-7.9 8.5-.4.4-1 .7-1.5 1z"/>
		<path d="M72.4 19.5c-5.8-9.9-34.4-13.9-45.1.4l3.5.8.2-.2c2.5-4.9 20.4-9.9 33.4-3.4 3.9 1.9 4.4 3.2 4.4 3.4l.2.2 3.5-.8-.1-.4z"/>
		<path d="M77 20c1.9-1.6.5-3 .6-4.8.1-.9.2-1.8.5-2.3 1.7-2.7 5.8-3.6 5.9-3.6l1.9-.3-1.3-1.5c-.2-.2-5.4-5.2-13.4-2.6-5.6 1.8-9.8 8-10 8.2l2.8 1.3c0-.1 3.3-5.9 8.2-7.4 3.9-1.3 7.5-.1 9.1.7-9 3.9-4 8.3-7.3 11.3l3 1z"/>
		<path d="M73.4 19.1c3.8-2.9-1.4-7.4 7.2-11.4-3.1-1.2-5.6-1.2-8.2-.5-3.3 1-6.7 4.8-8.1 7.5L61 13.1c0-.4 5.8-9.3 14.8-9.3 5.7 0 9 3.4 9 3.4l1.6 1.9c-2.5.5-6.3 1.1-8.1 3.9-.4.5-.5 2.4-.2 3.8.3 1.8.3 2.2-1 3.5l-3.7-1.2z"/>
		<path d="M69.5 17.1c1.4-5.6 5.8-7.4 9.5-6.1l.5-1.6c-.2-.1-4.3-1.4-8.1 1.3s-4.3 5.1-4.3 5.4l2.4 1z"/>
		<path d="M66.8 16.3c0-2.4 4.5-7.5 10.1-7.5 1.6 0 2.7.3 2.8.4l.3.1-.7 2.2c-.9-.3-1.7-.4-2.5-.4-4.2 0-5.8 2.9-7 6.5l-3-1.3zm12-5.7.3-1.1c-5.6-1.4-10.8 3-11.8 6.3l1.9.8c1.6-4.8 4.7-7.2 9.6-6zM57 87.3c-2.3-2.5-4.1-5.6-.6-5.6 5.7 0 7.1-.2 7.6.6 1.1 1.1-1.7 5.8-4.8 5.8-.9.1-1.7-.2-2.2-.8zM58.3 44l3-.2c-1.6 2.8-1.9 5-.8 8 0 0-4-4.5-2.2-7.8z"/>
	</g>
	<path fill="#e78724" d="M43.7 31.8s2.5 4.3 6.4 4.3v-.5.5c3.9 0 6.4-4.4 6.4-4.4-3 2.1-10.1 2-12.8.1z"/>
	<path fill="#463014" d="M55.4 33.2c-3.2 2-7 2.3-10.6 0 0 0 2.8 3.5 5.3 3.5 2.5-.1 5.3-3.5 5.3-3.5zm6.7 63-.2-2.8c9.1-.7 12-9.4 12-10.4h2.8c0 2.2-3.8 12.4-14.6 13.2z"/>
	<path fill="#fff" d="M65.1 77.9c.2-1 .2-1.9 0-2.8.8-.6 2.3-.8 3.4-1.2.9-.6 5.5.6 8.9-3.5 4.2-5.1 3.3-8.1 3.3-8.1 1.1 1.2 2.1.7 3.8 6.3 1.6 5.6-.8 9.5-5.3 13.4-2.1 1.8-5.1 2.6-7.7 2.9.9-.9-1.5-1-3.1-1.6.2-2.3-.7-3.9-3.2-4.9 0-.1-.1-.1-.1-.5z"/>
	<path fill="#c9c9c9" d="M68.4 83.3c.1-.3.2-.6.2-.8.1-.3.4-1.2 0-.2.1-.3.2-.5.3-.8 7.3 0 13.7-5 12.4-15.6 1.7-2.2 7.4 12.6-3.5 17.3-3.1 1.4-5.9 2.4-6.6 2-1.4.3-2.6-.7-3.1-1.3l.3-.6z"/>
	<g fill="#463014">
		<path d="M65.2 76.4c0-.9-.2-1.8-.6-2.6 0-.1-.1-.1-.1-.2 2.8 0 6.1-.3 8.8-1.4 3-1.2 6.8-5.4 7.5-10.2 0 0 5.7 4.4 4 13.8-1.6 8.9-9 11.7-17.4 12.2 0-.1.9-2 .6-3.2 4.8.3 10.2-1.5 12.8-5.8 2.4-3.9 1.7-10.6.7-11.5-2.4 7.5-10.9 9-16.3 8.9z"/>
		<path d="M61.5 76.2c-23.9 0-27-.8-29.9 2.4-1.5 1.6-1.7 3.8-.7 6.6 2.7 7.4 6.5 14.8 19.2 14.8s16.5-7.5 19.2-14.8c2.1-6-1.7-9-7.8-9zm5.2 8.4c-1.3 3.7-4.8 12.6-16.6 12.6s-15.3-8.9-16.6-12.6c-1.5-4.2.4-5.9 5-5.9 24.9 0 26.1-.5 28 1.4.8 1 .9 2.5.2 4.5z"/>
		<path d="M68.9 79.1s-4.3-.2-4.5-1c-.2-.6-3.9-9.2-5.3-19.3 3.4 5.4 4.9 14.6 9.8 20.3z"/>
	</g>
</svg>