<svg xmlns="http://www.w3.org/2000/svg" viewBox="0 0 100 100">
	<g fill="#da4648">
		<path d="m33.2 76.4 2.9 5 1.1 15.5c0 4.1 24.6 4.1 24.6 0l.9-15.7 2.7-4.8c-8 3.6-25.6 2.9-32.2 0z"/>
		<path d="M65.7 28.5c-10 1.4-32.8 1.3-38.4-1.5L30 51.4c1.3-5 6.4-13 11.3-10.6 1.3.9 1.9 2.1 1.9 2.3 0 .7 0 1.1-.3 1.4-.5.5-1.1.4-1.4-.1-.5-.5-.6-1.4-1.5-2-3.3-2.2-8.6 8.4-8.6 13 0 1 1 1.8 2.1 1.1 3.6-2.4 4.2-4.3 4.7-4.8l1-3c.3-.9 1.1-1.1 1.4-.8.2 0 .4.4.5.5 0 .2.3.5 0 1.6-.1.5-.4 1.7-.7 2.1-.6 1.9-.4.8-1.2 3.5-.1.4-1.5 4.8-1.5 5-.1.3-.3.7-.5.9-.1.2-.2.3-.4.4-.1.1-.6.2-.9-.1-.1-.2-.2-.4-.2-.9v.1c0-.6 1.1-3.8 1.4-5.2-1.9 1.9-4.4 4.5-6.8 3.3-.1 0-.1-.1-.2-.1l1.5 15.5c.4 1 7.7 3.3 17.2 3.3 9.6 0 16.9-2.4 17.2-3.3L68.7 56c-.7.7-2 1.9-2.2 2-1.8 1.5-5.1 1.8-5.1-.2 0-1.2 1.2-2.2 1.9-3.2.3-.4 2.5-2.9 1.8-2.9-.2-.2-1 0-1.3.1-2.1 1.4-3.3 3.3-3.8 4.6 0 .1-1.3 2.6-1.3 2.8-.1.2-.1.3-.1.3-.1.1-.1.3-.2.4-.1.1-1.3 3.3-1.3 3.4-.1.1-.1.3-.2.4-.6 1.2-.4.9-1 1.5-.3.1-.7.2-1.2-.1-.3-.2-.4-.9-.2-1.2 0-.2.1-.4.2-.5.1-.1 2.9-6.6 3-6.7-.9.9-1.7 1.6-2.9 2.1-.6.3-1.5.4-2 .2-.5-.3-.5-.3-.8-1v-.2c-.1.1-1.8 1.4-2.9 1.4-1.5 0-1.3-1.4-1-2.9-.7 1.5-2.6 2.9-4.4 2.9-.6 0-.6 0-1.3-.4-.5-.5-.6-1.2-.6-1.9 0-.9 2.3-6.9 2.9-7.2.7-.5 1.2-.1 1.3-.1.1.1.2.1.2.2.1.1.1.3.1.5-.1.2-.1.4-.2.6-.1.2-.3.5-.4.8-.3.4-.8 1.7-1 2.1-2.3 4.6 2.4 4 4.9-3.6.1-.3.3-.5.4-.7.5-.5 1-.3 1.2 0 .5.5.1 1.7-.3 2.2-.2.3-2.5 5.1-1 5.1.7 0 2.1-1 2.2-1.1.2-.8 1.2-3.1 1.2-3.2 4.2-10.7 4.1-11.6 5.8-10.8 1 .5-.3 2-4.7 13.3-.1.2-.2.4-.2.7-.1.2-.2.8 0 1 0 .3.7-.1.8-.1 1.6-.8 3.8-3.2 4.1-3.2.7-3 1-2.9 1.2-3.3.2-.2.3-.3.5-.3 1.2 0 .7 1.4.7 1.7 0 .1 0 .2-.1.2 2-2 2-1.7 2.9-2.3 1.4-.5 2-.1 2.8.7 1 2-3.2 5.6-3.6 6.4 0 1.6 3.7-2.1 5.1-3.3l2.9-26.7c-.4.2-.8.4-1.2.5-.8.8-2.5 1.2-4.6 1.5z"/>
		<path d="m58.9 22.4 2-8L72.1 2.6c.5-.8-2.4-3.3-2.9-2.5l-12 12.6-2.5 9.5c-1.6-.1-3.4-.1-5.1-.1-30.1 0-30.1 6.2 0 6.2 12.5 0 22.6-1.4 22.6-3.1 0-1.2-5.5-2.3-13.3-2.8zm-5.7 3.8c0-.2.2-.3.6-.4v.2c0 .7 4.4.7 4.4 0v-.2c.3.1.5.3.5.4-.2.9-5.5.9-5.5 0z"/>
	</g>
</svg>