<svg xmlns="http://www.w3.org/2000/svg" viewBox="0 0 100 100">
	<path fill="#F93535" d="M40.533 29.838c.36-.36.36-.97 0-1.33l-9.238-9.238a.953.953 0 0 0-1.33 0L.27 48.952c-.36.36-.36.97 0 1.33l29.695 29.695c.36.36.97.36 1.33 0l9.238-9.239c.36-.36.36-.97 0-1.33L21.42 50.296a.953.953 0 0 1 0-1.33l19.113-19.127Z"/>
	<path fill="#F93535" d="M69.896 19.27a.953.953 0 0 0-1.33 0L38.913 48.91c-.36.36-.36.97 0 1.33l9.238 9.251c.36.36.97.36 1.33 0l19.085-19.085c.36-.36.97-.36 1.33 0l8.546 8.545c.36.36.36.97 0 1.33L59.328 69.394c-.36.36-.36.97 0 1.33l9.238 9.238c.36.36.97.36 1.33 0l29.681-29.681c.36-.36.36-.97 0-1.33L69.897 19.27Z"/>
</svg>