<svg xmlns="http://www.w3.org/2000/svg" viewBox="0 0 100 100">
	<path fill="#ecdfa7" d="M47.9 50.2 41.1 99s-11.2 4.1-21.3-4.5l11.1-47.4L10 4.8s8.3-3.5 13.5-2.3l18.4 34.7 31.8-27.1s10.7 3.7 11.7 7.3L47.9 50.2z"/>
	<path fill="#3f3e29" d="M87.8 52.1c-2.8-3.2-7.2-5.7-11.2-7-2.7-.7-1.9-.7-2.7-.9-2.3-1.3-2.6-3.6-2-6.1.4-1.6 1-2.5 1-4.9 1.6-1.2 6.5-5.4 7.4-6.1.3.1.6.4.8.5 0 0 2.3.2 3.6-3.3l-.7-.4c1.6-1.6 2.1-1.7 2.3-2.7-1-.1-1.1.1-3.5 1.9L72.5 16c.5-.4 3.7-3.2 3.9-3.4.1.1 6.4 4.2 11.4 5.9.2 0 1 .4 1.3-.2 0-.2 0-.2.1-.3v-.3c0-.2-.1-.2-.1-.3-.6-.6.3-.4-5.4-4.4-2-1.4-3.7-2.1-5.6-2.7l.1.1v.1s0-.1-.1-.1v-.1c-.1 0-.8-.4-1.3-.1-.1.1-.4.1-.6.4-.6.2-3.3 1.9-3.5 2-.7.5-1.4 1.1-2.1 1.6l-.7-.5s-3.1.3-2.1 2.3l.3.3C64.7 19.1 48.4 32.9 45.3 36c-.1-.4-10.7-24-12.7-27h.9c.2-1.6-.6-3.2-2.2-2.8-.5-1-1.7-3.3-2.3-5.2-.1-.4-.3-.5-.4-.7-.1-.1-.3-.1-.4-.1-.2-.1-.4-.1-.6-.1-1.9-.6-8.1 1.1-10 1.7-1.5.5-.9.3-2.6 1.1-.2.2-.7.3-.7 1 .1.3.2.4.4.4.1.1.2.2.3.2.2.1.4.1.5.1 1.5.5 10.8-1.2 12-1.5.5 1 1 2.2 1.6 3.2-3.4.3-8.8.7-12.1 1.1-.4-.7-.7-1.3-1-1.9-.1-.1-.3-.3-.5-.2-.5.1-.6.3-.5.5.2.6.4 1.1.7 1.7-1 .1-1.7.3-1.8.4-.4.7.7 4.2 2.2 5.1 0 0 .6-.2 1.6-.4 5.5 12.3 12.7 28.6 15.2 33.9 0 0 0 .1.1.1-4.7 14.7-9.2 36.4-12 46.2 0 1.4 11 9.3 22 6.3.3-.1.5-.4.6-.7 0-.1 6.6-38.5 6.6-38.6.1.1.2.4.4.5 3.6 4.6 12.3 6.9 18.1 7.8-.5 1.1-1.4 4-.7 4.7h.1c6.8 3.4 14.4 2.8 17.1-4.3l.1-.1c0-.3.2-1.9.2-2.2 4.8-2.7 6.8-6.4 4.2-11.2 0 0-1.2-2-1.9-2.9zm-7.8-40c2.1.8 5.9 3 8.1 5.2H88c-.3-.1-.5-.2-.8-.2-4.6-1.8-7.6-4.5-8.3-5.5l1.1.5zM15.6 3.8h-.2c.1 0 .1-.1.2 0 .1-.2.4-.3.6-.5 4.7-1.9 9.1-1.7 9.7-1.9-.2.2-9.3 2.9-10.3 2.4zm63 22c-.1.1-14.9 11.6-15 11.7.1-.1 7.4-10.2 13-13.4.6.7 1.3 1.2 2 1.7zm-53.1-.3L22 18.2c1.9 1.9 4.9 4.8 3.6 7.5l-.1-.2zm.2.5c.6-.6.7-1.6.7-2.5-.5-2.6-2.4-4.5-4.8-6.2-1.5-3.1-1.7-3.7-2.4-5 1.1-.3 2.5-.7 3.9-1.1 8.6 14.6 5.3 14.9 7 24.1L25.7 26zm17.6 60.6c-.8 1.2-2.4 1.6-2.7.3-.1-.4-.3-.8-.3-1.3-.4-3.6 1.4-7 2.6-6.6.4 0 .7.4 1 .7.1.2.2.4.3.7-.3 1.9-.9 5.5-.9 6.2zm6.3-37.1c-.1.1-.2.3-.1.5.1.1.4.2.5.1-1.2 3.7-3.3 15.9-3.7 18.5-.6-3.1-2.7-9-5.1-13.4 1.2 4.1 1.6 4.3 4.9 13.9 0 1.2.2.1-1.7 10.9-.1-.1-.1-.3-.1-.4-1.1-2.1-3.7-1-4.6 3.2-.8 4 1.6 6.6 3 4.7.1-.2.3-.4.4-.5-.5 3.5-1.1 7-1.6 10.6-7.3 2.1-16.6-.8-20-4.5 2.1-7.9 7.6-24.9 11.1-37.2C36.2 43.4 35 45.1 35 43.1c-.1-.1-.1-.1-.1 0-.4.4-.6.7-.9 1-1.5-3.5-2.3-4.3-3.1-7.6-2.2-8.8 1.3-8.3-3.8-18.9-1.1-2.3-2.5-4.5-3.9-6.5 2.5-.7 5.1-1.3 7.1-1.7 0 .1 13.9 27.1 14 27.2-2.3 2.1-3.8 3.2-2.5 3.2 3.2-2.2 26.4-20.2 27.8-21.6 1.6 1.6 4.1 3.9 6.7 5.9-5.8 3.2-10.6 8.7-13.5 14.1-4.5 3.6-8.9 7.4-13.2 11.3zm34.1 15.9c-1.1.5-1.8.8-2.4 1.9.7.2 1.2.1 1.7 0 .1 0 .1-.1.1-.1-.1.2-.1.4-.1.6-2.7 5.5-8.4 5.6-14.4 4.2-.1-1.2.1-2.5.6-3.7.3.1 1.9.3 1.9-.2.3-.6-.9-.7-1.3-1 .7-1.2 1.4-1.8 2.3-2.7 6.4 3.8 11.5 1.4 11.9-3.4.2.4 0 2.6-.3 4.4zm2.6-2.1c-.3.3-.6.6-1 .8 0-1-.2-3.4-1.2-3.9-.1 0-.1 0-.1.1-.7 2-2.5 3.8-4.9 3.8-2.1.2-4.5-.8-6.6-1.4l-.1-.1c-.2-.1-.5 0-.7.1-.4.4-1.9 2.4-2.6 3.9-5-1.9-15.5-5.7-17.8-10.6v-.1c-.1-.3-.4-.5-.7-.7 0-.1.6-3.6.5-5.9 6-4.2 11.9-8.7 17.7-13.3-.7 2.5-1.3 5.6.6 8.2 1.6 2.2 3.7 3.2 6.3 3.6 8.2 2.1 16.8 9.3 10.6 15.5z"/>
	<path fill="#3f3e29" d="M37.2 81c-.2 1.1-.2.8-.3 3-.2 3.4 0 6.3 2.9 11.3-1-3.3-2.2-4.3-2.2-11.3.2-2.9.2-2.6.2-2.9.4-1.8 1.5-3.7 2.9-4.8.7-.7 1.5-1.3 2.4-1.7-2.8 1.1-4.9 3.2-5.9 6.4z"/>
</svg>