<svg xmlns="http://www.w3.org/2000/svg" viewBox="0 0 100 100">
	<path d="M99 45.6c-.5-1.2-4-6-9.5-3.3-2.1 1.1-2.2 2.6-1.8 4.2.3 1.1 1 2.1 1.8 2.8 0-.9.2-1.8.6-2.5.6-.9 1.5-1.1 2.5 0 1.1 1.1.2 4.8-2.8 5.8-3 .9-7.5-4.2-9.9-6.4-2.4-2.2-6.4-7.3-16.3-8.1-5.6-.5-10.9 2.2-13.8 7.1-2.8-4.8-8.2-7.6-13.8-7.1-9.7.7-13.6 5.9-16 8-2.4 2.2-6.9 7.3-9.9 6.4-3-.9-3.9-4.6-2.8-5.7 1.1-1.2 1.9-.9 2.5 0 .4.8.6 1.6.6 2.5.9-.7 1.5-1.7 1.8-2.8.4-1.6.3-3.2-1.8-4.2C5 39.5 1.5 44.4 1 45.6c-.5 1.1-1.4 2.9-.8 7.1.6 4.1 2.6 7.9 8.8 9.3 5.9 1.4 12.2.6 17.6-2.1 5.5-2.6 15.8-7.2 18.4-7.7 1.6-.4 3.3-.6 5-.6 1.7 0 3.4.2 5 .6 2.6.5 12.9 5.1 18.4 7.7 5.5 2.7 11.7 3.4 17.6 2.1 6.3-1.5 8.2-5.3 8.8-9.4.6-4.1-.3-5.9-.8-7z"/>
</svg>