<svg xmlns="http://www.w3.org/2000/svg" viewBox="0 0 100 100">
	<path fill="#fbc707" d="M50 12.5 21.5 9.3 0 0h25l25 12.5M50 12.5 79.1 10 100 0H75L50 12.5"/>
	<path fill="#f68712" d="m50 87.5 27.2 1L100 100H75L50 87.5"/>
	<path fill="#f25c19" d="M50 87.5H22.6L0 100h25l25-12.5"/>
	<path fill="#fff200" d="M12.5 50v26.3L0 100V75l12.5-25m0 0-2.1-26.1L0 0v25l12.5 25"/>
	<path fill="#f1471d" d="m87.5 50 2.7-27.4L100 0v25L87.5 50m0 0 2.3 29.3L100 100V75L87.5 50"/>
	<path fill="#fab20b" d="m0 0 50 12.5-8 31.8L12.5 50 0 0"/>
	<path fill="#f47216" d="M100 0 87.5 50l-33.6-6.1L50 12.5 100 0"/>
	<path fill="#f25c19" d="M100 100 50 87.5l5.7-33.1L87.5 50l12.5 50"/>
	<path fill="#f89c0e" d="m0 100 12.5-50 30.1 6.7L50 87.5 0 100"/>
	<path fill="#f68712" d="M50 12.5 12.5 50 50 87.5 87.5 50 50 12.5"/>
</svg>