<svg xmlns="http://www.w3.org/2000/svg" viewBox="0 0 100 100">
	<path fill="#78758C" d="m69.48 49.659-.703-1.212-23.564-7.698-.664.782-1.016.234L22.587 90.69l.273 1.485 50.45-21.297.43-.86-3.517-19.539-.743-.82Z"/>
	<path fill="#A3EDBA" d="m22.86 92.175 21.69-50.644L0 26.994l22.86 65.181Z"/>
	<path fill="#8087E8" d="m61.079 3-16.53 38.53 24.931 8.13.117-.313-8.362-45.994L61.079 3Z"/>
	<path fill="#30426B" d="m69.48 49.659 3.83 21.22 1.758-.04 23.877-10.355 1.055-.9-1.25-1.054-28.097-9.457-1.173.586Z"/>
	<path fill="#6699A1" d="m73.31 70.878 4.885 27.12L100 59.585 73.31 70.878ZM61.078 3l8.402 46.659L100 59.585 61.078 3Z"/>
</svg>