<svg xmlns="http://www.w3.org/2000/svg" viewBox="0 0 100 100">
	<path fill="#ff4713" d="M.3 81.6v18.2h15.9C8.9 95.7 3.3 89.3.3 81.6zM32.9 29C20.6 28.2 8.7 32.8 0 41.5V59c4.7-13 17.1-21.5 30.8-21.3 13.6-.4 25.1 10.1 26 23.7 0 11.9-5.1 20.7-18.5 22.9C31 85.5 19.5 81.1 20 70c.2-4.8 4.2-8.7 9-8.7h.6c-2.4 2.6-2.2 6.7.4 9.1 1.6 1.4 3.8 2 5.9 1.5 4.8-.9 8.3-5.2 8.2-10.1-.7-6.7-6.7-11.6-13.4-10.9h-.5C19.4 50.6 10.3 59.1 10 70v.6c-.4 13.7 12.5 22.7 25.3 22.9 19.9.4 31.3-12.3 31.3-30.9-.4-18.5-15.3-33.3-33.7-33.6z"/>
	<path fill="#ff4713" d="M.3 0v28.7c9.5-7.2 21-11 32.9-10.9 28.3 0 46.3 19.7 46.2 44.7.7 15.3-7.3 29.8-20.7 37.2H100V0H.3z"/>
</svg>