<svg xmlns="http://www.w3.org/2000/svg" viewBox="0 0 100 100">
	<path fill="#607A8F" d="M44.612 3.563c-10.76 2.317-18.124 9-20.438 18.548-.72 2.97-.785 8.307-.145 11.795.461 2.51.602 2.897.971 2.669.508-.314 4.254-.944 8.506-1.43 2.441-.278 4.503-.57 4.581-.648.079-.079 0-1.004-.174-2.056-.72-4.358-.58-6.647.56-9.149 1.402-3.079 5.14-5.39 10.059-6.222 2.32-.392 2.718-.392 5.04 0 6.324 1.068 10.106 4.191 10.922 9.017.442 2.614-.308 7.76-1.779 12.207-1.184 3.578-5.63 13.253-8.093 17.61-.516.913-.938 1.786-.938 1.941 0 .642 4.982 8.13 7.185 10.798.825 1 1.112 1.196 1.4.957 1.328-1.102 9.657-16.496 11.668-21.565 2.063-5.2 3.656-10.718 4.22-14.617.41-2.842.336-8.538-.141-10.866-1.72-8.386-8.033-15.098-17.01-18.083-4.599-1.53-11.682-1.921-16.394-.906Z"/>
	<path fill="#05A981" d="M79.27 45.24c-.481 1.497-1.576 4.35-2.433 6.34-.858 1.99-1.496 3.722-1.42 3.847.078.124.64.37 1.249.546 1.805.521 5.508 2.539 6.586 3.59.55.536 1.38 1.744 1.843 2.682.801 1.628.84 1.848.827 4.74-.011 2.473-.124 3.335-.612 4.675-1.704 4.676-4.728 8.32-8.408 10.133-2.2 1.082-4.997 1.31-7.206.589-5.937-1.941-13.703-10.678-21.835-24.563l-.514-.878-2.952.16c-4.068.222-11.162.984-11.57 1.243-.412.263 1.21 3.51 4.648 9.296C47.687 84.832 58.16 94.628 68.28 96.457c2.176.393 7.052.344 9.106-.091 4.87-1.033 9.15-3.474 13.162-7.506 4.17-4.191 6.78-8.522 8.436-13.992.747-2.468.844-3.186.964-7.106.118-3.892.069-4.615-.45-6.714-1.781-7.196-6.325-12.731-13.356-16.27-2.007-1.01-5.198-2.279-5.7-2.266-.164.004-.691 1.231-1.171 2.728Z"/>
	<path fill="#FFD043" d="M42.076 38.918c-.059.053-1.47.171-3.135.263-3.763.208-8.122.785-12.242 1.619-12.73 2.577-20.668 7.664-24.477 15.684C.691 59.709.232 61.692.06 65.827c-.131 3.176-.071 4.108.417 6.494 1.326 6.473 4.687 12.567 9.406 17.056 3.238 3.08 6.236 4.912 10.366 6.334 2.43.838 2.627.862 6.976.88 3.639.013 4.796-.076 6.187-.48 3.796-1.099 8.425-3.72 11.816-6.69l1.154-1.01-1.89-2.09c-1.04-1.147-2.967-3.51-4.282-5.247a654.337 654.337 0 0 0-2.465-3.246c-.041-.047-.94.64-1.997 1.528-1.058.888-2.81 2.052-3.893 2.588-1.832.906-2.135.973-4.353.973-2.197 0-2.537-.074-4.357-.95C15.947 78.5 11.66 68.557 14.7 62.382c2.229-4.527 8.48-7.372 19.634-8.937 2.594-.364 11.252-.927 14.362-.933l1.198-.003 1.92-3.851c2.2-4.415 4.066-8.962 3.878-9.452-.098-.257-1.67-.34-6.818-.359-3.68-.013-6.738.019-6.798.071Z"/>
</svg>