<svg xmlns="http://www.w3.org/2000/svg" viewBox="0 0 100 100">
	<path fill="#E44D26" d="m85.847 19.652-6.455 72.305L50.38 100l-28.933-8.032L15 19.652h70.847Z"/>
	<path fill="#F16529" d="m50.423 93.852 23.444-6.5 5.515-61.787H50.423v68.287Z"/>
	<path fill="#EBEBEB" d="M37.876 43.304h12.547v-8.87h-22.24l.213 2.38 2.18 24.441h19.847v-8.869H38.687l-.81-9.082Zm1.999 22.386h-8.903l1.242 13.926 18.168 5.043.041-.01V75.42l-.039.01-9.877-2.666-.632-7.074Z"/>
	<path fill="#000" d="M21.592 0h4.507v4.453h4.123V0h4.507v13.485h-4.507V8.97h-4.123v4.515h-4.507V0Zm19.064 4.472h-3.968V0h12.446v4.472h-3.97v9.013h-4.507V4.472ZM51.109 0h4.7l2.89 4.738L61.589 0h4.702v13.485H61.8V6.801l-3.1 4.795h-.078L55.52 6.8v6.684h-4.41V0Zm17.424 0h4.508v9.028h6.339v4.457H68.533V0Z"/>
	<path fill="#fff" d="M50.393 61.255h10.921l-1.03 11.503-9.891 2.67v9.227l18.182-5.039.133-1.498 2.085-23.35.216-2.382H50.393v8.87Zm0-17.973v.022h21.423l.178-1.994.404-4.496.212-2.38H50.393v8.848Z"/>
</svg>