<svg xmlns="http://www.w3.org/2000/svg" viewBox="0 0 100 100">
	<path fill="#008EC7" d="M89.659 28H10.363L0 49.725 10.363 71.45h79.274L100 49.725 89.659 28Zm-2.281 39.844H12.644L3.997 49.725l8.647-18.119h74.734l8.646 18.119-8.646 18.119Z"/>
	<path fill="#005B9B" d="m96.024 49.725-8.646 18.119H12.644L3.997 49.725l8.647-18.119h74.734l8.646 18.12Z"/>
	<path fill="#fff" d="M28.286 43.62v12.927h-2.998v-5.301h-5.866v5.3h-2.998V43.62h2.998v5.105h5.866V43.62h2.998Zm5.757 2.433h-4.128V43.62h11.276v2.433h-4.128v10.494h-3.02V46.053Zm11.601 0h-4.15V43.62H52.77v2.433h-4.128v10.494h-2.998V46.053Zm17.315-1.868a4.478 4.478 0 0 1 1.955 1.63c.462.75.696 1.617.674 2.498a4.524 4.524 0 0 1-.674 2.476 4.476 4.476 0 0 1-1.955 1.63 7.333 7.333 0 0 1-2.976.565h-2.607v3.563h-2.998V43.62h5.605a7.332 7.332 0 0 1 2.976.565Zm-1.086 5.779a2.002 2.002 0 0 0 .695-1.651 2.099 2.099 0 0 0-.695-1.673c-.457-.391-1.152-.587-2.042-.587h-2.434v4.498h2.434c.868 0 1.564-.196 2.042-.587Z"/>
	<path fill="#FFD040" d="M84.64 54.048v2.477h-9.906V54.57l5.062-4.758c.428-.383.794-.83 1.086-1.325a2.31 2.31 0 0 0 .282-1.087 1.374 1.374 0 0 0-.543-1.194c-.347-.283-.869-.413-1.564-.413a3.567 3.567 0 0 0-1.542.326c-.463.22-.86.556-1.152.977l-2.216-1.412a5.3 5.3 0 0 1 2.108-1.781 6.997 6.997 0 0 1 3.085-.652 6.278 6.278 0 0 1 2.563.478 3.789 3.789 0 0 1 1.695 1.347c.414.599.627 1.314.608 2.042a4.495 4.495 0 0 1-.456 1.999c-.304.63-.87 1.325-1.738 2.129l-3.02 2.846h5.648v-.044Zm-13.6-13.056h2.564l-6.104 17.4h-2.541l6.083-17.401Z"/>
</svg>