<svg xmlns="http://www.w3.org/2000/svg" viewBox="0 0 100 100">
	<path fill="#008EC7" d="M87.229 23H12.77L0 49.757l12.771 26.758H87.23L100 49.757 87.229 23ZM82.96 72.062H15.578L4.931 49.757l10.647-22.305h67.383l10.647 22.305L82.96 72.062Z"/>
	<path fill="#005B9B" d="M93.608 49.76 82.96 72.065H15.578L4.931 49.76l10.647-22.308h67.383L93.608 49.76Z"/>
	<path fill="#fff" d="M34.263 42.236v15.928h-3.687V51.63H23.35v6.532h-3.695V42.236h3.684v6.28h7.225v-6.28h3.698Zm7.077 3.004h-5.097v-3.004h13.879v3.005h-5.084v12.923H41.34V45.241Zm14.288 0h-5.097v-3.004h13.88v3.005h-5.098v12.923h-3.685V45.241Zm21.332-2.298a5.472 5.472 0 0 1 2.408 2.002 5.53 5.53 0 0 1 .84 3.071 5.546 5.546 0 0 1-.84 3.061 5.367 5.367 0 0 1-2.409 2.002 8.979 8.979 0 0 1-3.676.693h-3.21v4.393H66.39V42.236h6.893a8.844 8.844 0 0 1 3.676.706Zm-1.354 7.11a2.495 2.495 0 0 0 .864-2.037c0-.893-.29-1.58-.864-2.057-.576-.477-1.419-.717-2.526-.717h-3.005v5.528h3.005c1.107 0 1.95-.24 2.526-.717Z"/>
</svg>