<svg xmlns="http://www.w3.org/2000/svg" viewBox="0 0 100 100">
	<path d="M41.2 4.1 4.4 41.8c-13.9 13.9 9 12.8 17.3 18 3.8 2.5-12.3 5.7-9 9 3.2 3.3 19.4 6.3 22.6 9.6 3.2 3.3-6.5 6.8-3.3 10.1 3.1 3.3 10.6.2 12 7.7 1 5.5 13.7 2.8 19.5-2 3.6-3-6.2-3-2.9-6.3 8-8.1 15.2-3.7 18.1-11.2 1.6-4-12.1-6.9-8.5-9.5 8.7-6.2 40.9-9.3 26.1-24.1L58 4.1c-4.7-4.4-12.5-4.4-16.8 0zm42.2 72.6c0 1.9 14.5 2.9 13.7-.4-1.1-5.8-12.1-5.3-13.7.4zm-62.1 9.9c3.3 2.9 8.3-.6 9.9-4.6-3.2-4.2-15 .2-9.9 4.6zm60.3-6c-4.1 3.7.7 7.7 4.7 5.1 1.1-.7-.1-4.2-4.7-5.1z"/>
	<linearGradient id="a" x1="24.4173" x2="46.9382" y1="1000.56" y2="1023.0809" gradientTransform="translate(0 -978.567)" gradientUnits="userSpaceOnUse">
		<stop offset="0" stop-color="#fff"/>
		<stop offset="1" stop-color="#fff" stop-opacity="0"/>
	</linearGradient>
	<path fill="url(#a)" opacity=".505" d="M7.7 43.9c-10 9.9 7.6 7.1 21.1 12.4L56.7 7.2c-4.2-4.3-9.6-4-13.5 0L7.7 43.9z"/>
	<linearGradient id="b" x1="39.3267" x2="66.1057" y1="996.4922" y2="1023.2722" gradientTransform="translate(0 -978.567)" gradientUnits="userSpaceOnUse">
		<stop offset="0" stop-color="#fff"/>
		<stop offset="1" stop-color="#fff" stop-opacity="0"/>
	</linearGradient>
	<path fill="url(#b)" d="m55.8 6.8 14.5 14.8c1.3 1.3 1.3 4.1.5 4.9l-7.2-5.9-1.4 8.7-6-3.2-9.7 6.2-3.2-12.9-5.2 11.2-12.9-.1c-2.5 0-2.1-2.6.4-5.2 5.1-5.6 15-15.2 18.1-18.5 3.3-3.3 8.9-3.2 12.1 0z"/>
	<radialGradient id="c" cx="-5615.394" cy="-2390.2715" r="1" gradientTransform="matrix(22.7141 0 0 15.2039 127581.6719 36436.2617)" gradientUnits="userSpaceOnUse">
		<stop offset="0" stop-color="#fff"/>
		<stop offset="1" stop-color="#fff" stop-opacity="0"/>
	</radialGradient>
	<path fill="url(#c)" opacity=".217" d="M35.8 76.8s1.6 2.4 1.4 3.5c-.3 2.2-5.1 3.3-4 5.3 1 2 4.8.8 8 2.9 3.2 2 2.3 6.2 4.6 7.2 4.5 2 16.3-3.5 15.7-3.4s-11.6 2.4-14.1.4c-2.8-2.3-3.6-3.9-5.7-5.2-2-1.3-4.7-1.8-5.3-2.8s1.3-2.4 1.4-4.4c0-1.2-2-3.5-2-3.5z"/>
	<g opacity=".276">
  	<radialGradient id="d" cx="-5671.3174" cy="-2441.5576" r="1" gradientTransform="matrix(28.9813 0 0 19.3989 164407.1875 47458.8828)" gradientUnits="userSpaceOnUse">
  		<stop offset="0" stop-color="#fff"/>
  		<stop offset="1" stop-color="#fff" stop-opacity="0"/>
  	</radialGradient>
  	<path fill="url(#d)" d="M35.8 76.8s1.6 2.4 1.4 3.5c-.3 2.2-5.1 3.3-4 5.3 1 2 4.8.8 8 2.9 3.2 2 2.3 6.2 4.6 7.2 4.5 2 16.3-3.5 15.7-3.4-19.5.1-15.9-5-23.4-8.3-1.1-.5-.5-1.8-.3-3.8 0-1.1-2-3.4-2-3.4z"/>
	</g>
	<radialGradient id="e" cx="-5511.2515" cy="-2101.458" r="1.0003" gradientTransform="matrix(16.193 0 0 6.8554 89325.5 14466.6484)" gradientUnits="userSpaceOnUse">
		<stop offset="0" stop-color="#fff"/>
		<stop offset="1" stop-color="#fff" stop-opacity="0"/>
	</radialGradient>
	<path fill="url(#e)" opacity=".453" d="M69 66.5c17.5-6.5 23.2-7.3 29-13.1-6.7 5.7-20.8 8.7-32.4 13.7l3.4-.6z"/>
	<g opacity=".512">
  	<radialGradient id="f" cx="-5511.251" cy="-2101.458" r="1" gradientTransform="matrix(16.193 0 0 6.8554 89328.9297 14468.5371)" gradientUnits="userSpaceOnUse">
  		<stop offset="0" stop-color="#fff"/>
  		<stop offset="1" stop-color="#fff" stop-opacity="0"/>
  	</radialGradient>
  	<path fill="url(#f)" d="M69 65.7c28.9-10.2 24-10.2 29-13.1-9.2 3.5-26.3 3.9-32.4 13.7l3.4-.6z"/>
	</g>
	<linearGradient id="g" x1="90.4609" x2="90.52" y1="1050.6316" y2="1053.6167" gradientTransform="translate(0 -978.567)" gradientUnits="userSpaceOnUse">
		<stop offset="0" stop-color="#fff"/>
		<stop offset="1" stop-color="#fff" stop-opacity="0"/>
	</linearGradient>
	<path fill="url(#g)" opacity=".286" d="M90.5 75c-5.1 0-5-2.2 0-2.2s5.1 2.2 0 2.2z"/>
	<g class="st9">
  	<linearGradient id="h" x1="90.5569" x2="90.5569" y1="1050.2721" y2="1054.8041" gradientTransform="translate(0 -978.567)" gradientUnits="userSpaceOnUse">
  		<stop offset="0" stop-color="#fff"/>
  		<stop offset="1" stop-color="#fff" stop-opacity="0"/>
  	</linearGradient>
  	<path fill="url(#h)" d="M90.5 77.7c-6.5 0-6.8-5 .1-5 6.6 0 6.7 5-.1 5z"/>
	</g>
	<radialGradient id="i" cx="-4992.4624" cy="1035.1794" r="1.0001" gradientTransform="matrix(6.6634 0 0 .9845 33356.8711 -942.0345)" gradientUnits="userSpaceOnUse">
		<stop offset="0" stop-color="#fff"/>
		<stop offset="1" stop-color="#fff" stop-opacity="0"/>
	</radialGradient>
	<path fill="url(#i)" d="M83.6 76.6c1.8 1.6 11.7 2.5 13.3-.5-3.1 2.3-10.2 1.5-13.3.5z"/>
	<linearGradient id="j" x1="81.6586" x2="83.1129" y1="1059.6489" y2="1062.218" gradientTransform="translate(0 -978.567)" gradientUnits="userSpaceOnUse">
		<stop offset="0" stop-color="#fff"/>
		<stop offset="1" stop-color="#fff" stop-opacity="0"/>
	</linearGradient>
	<path fill="url(#j)" opacity=".286" d="M83.9 82.6c0 .6.2 1.2-1.1 1.6-.2 0-.4 0-.5-.1-.2-.1-.3-.2-.5-.3-.4-.4-.6-1-.5-1.5 0-.2.1-.3.2-.5.2-.3.6-.4.9-.5.2 0 .4 0 .5.1.9.3.8 1 1 1.2z"/>
	<g class="st9">
  	<linearGradient id="k" x1="80.9845" x2="82.9947" y1="1058.8146" y2="1062.78" gradientTransform="translate(0 -978.567)" gradientUnits="userSpaceOnUse">
  		<stop offset="0" stop-color="#fff"/>
  		<stop offset="1" stop-color="#fff" stop-opacity="0"/>
  	</linearGradient>
  	<path fill="url(#k)" d="M82.9 85.4c-1 0-1.1-.3-1.5-.5-2.3-2.3.7-4.9 2.4-3.2.8.8.4 3.7-.9 3.7z"/>
	</g>
	<radialGradient id="l" cx="-4621.5161" cy="3337.4946" r="1" gradientTransform="matrix(2.5696 -1.3029 .4452 .8781 10473.5762 -8866.1914)" gradientUnits="userSpaceOnUse">
		<stop offset="0" stop-color="#fff"/>
		<stop offset="1" stop-color="#fff" stop-opacity="0"/>
	</radialGradient>
	<path fill="url(#l)" d="M81.2 85.4c1.4 1.1 6.8 1.3 4.8-2 .5 2.6-3.2 2.3-4.8 2z"/>
	<radialGradient id="m" cx="-5327.8813" cy="-1803.9276" r="1" gradientTransform="matrix(10.7559 0 0 4.3786 57331.0586 7970.0854)" gradientUnits="userSpaceOnUse">
		<stop offset="0" stop-color="#fff" stop-opacity=".33"/>
		<stop offset="1" stop-color="#fff" stop-opacity="0"/>
	</radialGradient>
	<path fill="url(#m)" d="M14.7 68.5c0-.3 18.4 5.6 21.5 8.7-2.6-2.5-15.7-8.3-17.7-8.4-2 0-3.6-.1-3.8-.3z"/>
	<linearGradient id="n" x1="24.8646" x2="25.3492" y1="1059.2216" y2="1061.2684" gradientTransform="translate(0 -978.567)" gradientUnits="userSpaceOnUse">
		<stop offset="0" stop-color="#fff"/>
		<stop offset="1" stop-color="#fff" stop-opacity="0"/>
	</linearGradient>
	<path fill="url(#n)" opacity=".286" d="M27.7 81.9c-1 .5-5.6 1.7-5.9.7-.5-.9 4.3-1.8 5.5-1.8 1.5 0 1.6.5.4 1.1z"/>
	<g class="st9">
  	<linearGradient id="o" x1="24.9156" x2="25.6133" y1="1058.9166" y2="1062.0918" gradientTransform="translate(0 -978.567)" gradientUnits="userSpaceOnUse">
  		<stop offset="0" stop-color="#fff"/>
  		<stop offset="1" stop-color="#fff" stop-opacity="0"/>
  	</linearGradient>
  	<path fill="url(#o)" d="M29 83.3c-2.1 1.5-7.6 2.1-8 .5-.4-1.7 4.3-3.2 7.2-2.9 1.7.2 2.5 1.2.8 2.4z"/>
	</g>
	<g opacity=".616">
  	<radialGradient id="p" cx="-5102.1416" cy="-412.8141" r="1" gradientTransform="matrix(5.8655 -1.6252 .6081 2.1946 30202.8711 -7299.2754)" gradientUnits="userSpaceOnUse">
  		<stop offset="0" stop-color="#fff"/>
  		<stop offset="1" stop-color="#fff" stop-opacity="0"/>
  	</radialGradient>
  	<path fill="url(#p)" d="M20.6 84.1s1 2.7 3.7 2.8c2.8.1 5.9-3.3 6.2-4.6-1.3 3-7.1 6.7-9.9 1.8z"/>
	</g>
	<radialGradient id="q" cx="-5804.252" cy="-2583.9312" r="1.0004" gradientTransform="matrix(84.2169 0 0 82.8879 488870 214189.1562)" gradientUnits="userSpaceOnUse">
		<stop offset="0" stop-color="#fff"/>
		<stop offset="1" stop-color="#fff" stop-opacity="0"/>
	</radialGradient>
	<path fill="url(#q)" d="M41.9 4.9c4.2-4.2 11.4-3.8 15.4 0 41 41.9 40.5 40.8 41.3 43.6 2 6.4-8.3 9.7-17.7 13.1-25.2 7.8-4.7 9.8-3.3 14.1.1.1.1.5 0 .6-2.9 7-9.5 2.6-17.8 10.9-1.5 1.5-1.3 3.6 1.6 4.8.1 0 1.4.8 1.8 1l-.2.2v.1c-2.9 2.9-14.3 6.8-17.2 3.9-.6-.4-.8-.7-.8-1.2-1.6-8.3-8.9-5.1-12.3-8.5 0-.1-.3-.4.1-1 .6-1.7 4.4-3.6 4.4-6.8-.8-5.4-19.8-7.5-23.5-11.2-.1 0-.3-.1-.3-.2 0-.4 0-.4.2-.4 2.5-2.5 9.6-3.9 9.9-6.6 1.2-4.9-21.3-5.6-22.1-11.5-.5-3.4 1.8-4.7 40.5-44.9zm-28 63C23 74 45.1 74.1 34.8 84.4c-1.3 1.3-1.4 1.7-1.8 2.1-.1.2-.1.3-.1.5 3.1 3.1 11 .4 12.6 8.8.2.8.3 1.1 1.6 1.5 4.3 1.2 11.6-1.4 15.3-4.3-.3-.2-.6-.4-1-.5-.1-.1-.2-.1-.3-.2-3.4-1.5-3.4-4.2-1.7-5.6C65.2 80.9 71 81 71 80.5c3-.8 5-1.5 6.1-4.4 0-.2 0-.2-.1-.2-1.2-2.4-9.2-4.4-9.2-7.7-.6-6.4 34.3-9.7 30.2-19.5-.9-2.8-1.2-2.6-41-43.5-4.5-4.1-11.2-3.7-14.7 0C4 44.5 1.1 46.3 1.6 49.5c.8 4.7 18.8 5.9 22 10.2 2.2 3.7-6.6 5.9-9.4 8-.1 0-.2.1-.3.2zm82.2 8.7c-1.3 1.3-9.1 1-11 .1l-.1-.1-.3-.1c2.4-4.8 11.4-3.8 11.4.1zm-10.7-.3c1.4.7 7.2 1 9.5.3.3-.1.5-.2.6-.2-.8-3.5-8.1-3.4-10.1-.1zm-58.1 5c-3.4 0-8.2 2.2-5.3 4.4 2.4 2.4 6.2-.3 7.9-3.6-.8-.4-1.1-.8-2.6-.8zm.3.5c-1.8-.2-7.9 1.5-5.1 3.6 2 2 5.4-.3 6.9-3.1-.7-.3-1.3-.4-1.8-.5zm54.3.1h.2c1.4.4 3.5 1.4 3.5 2.9-3.5 1.8-5.8-.8-3.7-2.9zm.2.5c-1.5 1.9 1 3 3 2.1 0-.2-.1-.3-.2-.5-.4-.5-1.4-1.1-2.8-1.6z"/>
	<g opacity=".325">
  	<linearGradient id="r" x1="30.4155" x2="55.6975" y1="1051.2202" y2="1057.9052" gradientTransform="translate(0 -978.567)" gradientUnits="userSpaceOnUse">
  		<stop offset="0" stop-color="#fff"/>
  		<stop offset="1" stop-color="#fff" stop-opacity="0"/>
  	</linearGradient>
  	<path fill="url(#r)" d="M29.3 61.1c-2.2.7-9.4 3.4-8.4 5.4s17.7 2.8 20.3 8.7c1.1 2.6-2.6 4.5-1.6 7.2.7 2 6.3 7.2 9.8 9.6 2.8 1.9 6.4-1.5 4.9-4.4-2.4-4.5 8-10.1 12.7-12.6 2.7-1.5-5.7-8.7-5.7-8.7l-32-5.2z"/>
	</g>
	<linearGradient id="s" x1="41.4509" x2="38.6109" y1="1039.4738" y2="1045.9807" gradientTransform="translate(0 -978.567)" gradientUnits="userSpaceOnUse">
		<stop offset="0" stop-color="#eeeeec"/>
		<stop offset="1" stop-color="#eeeeec" stop-opacity="0"/>
	</linearGradient>
	<path fill="url(#s)" d="M30.1 63.1c2 1.5 5.9.6 8.3 1.6 5.7 2.6 12.6 5.4 11.4.4l-1.4 1.2V64l-3.4.8s-2.6-2.1-3.8-2.8c-.2-.1-1.5 1.2-1.5 1.2l-.2-1.4c-2.8-.3-11.5-.5-9.4 1.3z"/>
	<g opacity=".478">
  	<radialGradient id="t" cx="-5430.1802" cy="-2413.0547" r="1" gradientTransform="matrix(13.2351 0 0 16.8197 71935.6562 40666.4688)" gradientUnits="userSpaceOnUse">
  		<stop offset="0" stop-color="#fff"/>
  		<stop offset="1" stop-color="#fff" stop-opacity="0"/>
  	</radialGradient>
  	<path fill="url(#t)" d="M67.3 67.7c-.8 2.8 9.4 6.7 8.7 8.6-1.7 4.3-10.9 1.4-17.9 10.4-1 1.3 1.4 5.9 1.1 5.3-.3-.5-2.8-4.3-2.2-6.2 2-5.9 21.4-8 17.8-10.8-2-1.7-9.4-6.1-7.5-7.3z"/>
	</g>
	<path fill="#fff" opacity=".586" d="M89.2 73.9c-1.4 0-1.5-.8 0-.8s1.4.8 0 .8zm-6.6 8.5c-.6.3-1.6 0-1-.6.2-.1.8-.2 1 0 .1 0 .3.3 0 .6zM25.9 82c-.7.2-1.5 0-1.8 0-1.2-.6 1-.9 1.8-.6.5 0 .6.4 0 .6z"/>
	<linearGradient id="u" x1="19.8266" x2="23.8036" y1="1042.3893" y2="1045.5492" gradientTransform="translate(0 -978.567)" gradientUnits="userSpaceOnUse">
		<stop offset="0" stop-color="#fff"/>
		<stop offset="1" stop-color="#fff" stop-opacity="0"/>
	</linearGradient>
	<path fill="url(#u)" opacity=".251" d="M25.6 61.3c-6.4 3.9-16.3 5.4-5.4 8-1.3-2.9 2.8-2.6 5.4-8z"/>
	<g opacity=".363">
  	<linearGradient id="v" x1="73.9391" x2="62.1212" y1="1056.7008" y2="1024.8817" gradientTransform="translate(0 -978.567)" gradientUnits="userSpaceOnUse">
  		<stop offset="0" stop-color="#729fcf"/>
  		<stop offset="1" stop-color="#729fcf" stop-opacity="0"/>
  	</linearGradient>
  	<path fill="url(#v)" d="M48.3 97.2s9.8-.9 12.1-3.8c1.3-1.7-5.3-3.6-3.9-5.2 5.4-6.1 9.9-5.9 16.1-8.4 13-5.4-11.1-5.8-6.7-13.5 2.6-4.6 25-11 25-11 6.8-2.3 5.9-6.5 2.6-10l-20-19.9s1 18.9-3.1 27c-5 10-31.6 21.2-20.5 22.4 3.9.4 5.8 1.8 7.4 4.8 3.4 6.2-9 17.6-9 17.6z"/>
	</g>
</svg>