<svg xmlns="http://www.w3.org/2000/svg" viewBox="0 0 100 100">
	<linearGradient id="a" x1="7.3853" x2="57.1562" y1="44.449" y2="46.9802" gradientTransform="matrix(1 0 0 -1 0 101.433)" gradientUnits="userSpaceOnUse">
		<stop offset=".09" stop-color="#fc801d"/>
		<stop offset=".23" stop-color="#b07f61"/>
		<stop offset=".41" stop-color="#577db3"/>
		<stop offset=".53" stop-color="#1e7ce6"/>
		<stop offset=".59" stop-color="#087cfa"/>
	</linearGradient>
	<path fill="url(#a)" d="M15.8 70.5 1.1 58.9l8.7-16 13 4.4-7 23.2z"/>
	<path fill="#087cfa" d="m100 26.7-1.8 57.9L59.7 100l-21-13.5L100 26.7z"/>
	<linearGradient id="b" x1="88.5202" x2="71.9264" y1="49.7454" y2="99.3287" gradientTransform="matrix(1 0 0 -1 0 101.433)" gradientUnits="userSpaceOnUse">
		<stop offset="0" stop-color="#fe2857"/>
		<stop offset=".08" stop-color="#cb3979"/>
		<stop offset=".16" stop-color="#9e4997"/>
		<stop offset=".25" stop-color="#7557b2"/>
		<stop offset=".34" stop-color="#5362c8"/>
		<stop offset=".44" stop-color="#386cda"/>
		<stop offset=".54" stop-color="#2373e8"/>
		<stop offset=".66" stop-color="#1478f2"/>
		<stop offset=".79" stop-color="#0b7bf8"/>
		<stop offset="1" stop-color="#087cfa"/>
	</linearGradient>
	<path fill="url(#b)" d="M100 26.7 80.9 45.2l-24.5-30L68.5 1.6 100 26.7z"/>
	<linearGradient id="c" x1="15.2634" x2="77.8467" y1="78.4035" y2="-25.1174" gradientTransform="matrix(1 0 0 -1 0 101.433)" gradientUnits="userSpaceOnUse">
		<stop offset="0" stop-color="#fe2857"/>
		<stop offset=".08" stop-color="#fe295f"/>
		<stop offset=".21" stop-color="#ff2d76"/>
		<stop offset=".3" stop-color="#ff318c"/>
		<stop offset=".38" stop-color="#ea3896"/>
		<stop offset=".55" stop-color="#b248ae"/>
		<stop offset=".79" stop-color="#5a63d6"/>
		<stop offset="1" stop-color="#087cfa"/>
	</linearGradient>
	<path fill="url(#c)" d="m38.7 86.5-30.6 11L14.5 75l8.3-27.8L0 39.6 14.5 0l32.7 3.9 33.7 41.4-42.2 41.2z"/>
	<path d="M19.2 18.8h62.5v62.5H19.2V18.8z"/>
	<path fill="#fff" d="M27 69.4h23.4v3.9H27v-3.9zM38.7 30.9v-4.3H27v4.3h3.3v14.8H27V50h11.7v-4.3h-3.3V30.9h3.3zM49.9 50.2c-1.6.1-3.2-.3-4.6-1-1.2-.6-2.2-1.5-3-2.5l3.2-3.6c.6.7 1.3 1.2 2 1.7.7.4 1.4.6 2.2.6.4 0 .8 0 1.2-.2.4-.2.7-.4 1-.7.6-.8.9-1.9.8-2.9v-15h5.2v15.3c0 1.2-.2 2.5-.6 3.6-.3 1-.9 1.9-1.6 2.6-.7.7-1.6 1.3-2.6 1.6-1 .3-2.1.5-3.2.5"/>
</svg>