<svg xmlns="http://www.w3.org/2000/svg" viewBox="0 0 100 100">
	<path fill="#dc395f" d="M0 0h100v100H0V0z"/>
	<path fill="#fff" d="M33.4 31.5c3.3 0 6.1-2.6 6.1-6s-2.8-6-6.1-6-6.1 2.6-6.1 6 2.8 6 6.1 6zM82.2 63.9c-2 5.5-3.7 6.5-5 6.5s-2.1-.9-2.1-2.7c0-.8.2-1.7.5-2.8l2.9-10.3c.7-2.4 1-4.6 1-6.5 0-7.7-4.7-11.8-10.3-11.8-5.3 0-10.7 4.8-13.4 9.8l2-9H42.3l-2.2 8h7.2l-4.4 17.7c-3.5 7.7-9.9 7.9-10.7 7.7-1.3-.3-2.2-.8-2.2-2.5 0-1 .2-2.4.6-4.1L37.5 37H20.4l-2.2 8h7.1l-4.6 18.7c-.4 1.5-.5 3.2-.5 4.5 0 5.3 2.9 8.8 9 8.8 5.1 0 9.2-3 12.1-7.9l-1.8 7.2h10.1l5.8-23.1c1.4-5.8 4.2-8.9 8.4-8.9 3.3 0 5.4 2.1 5.4 5.5 0 1-.1 2.1-.4 3.2l-3 10.6c-.4 1.5-.6 3.1-.6 4.5 0 5 3 8.7 9.2 8.7 5.3 0 9.5-3.4 11.9-11.6l-4.1-1.3z"/>
</svg>