<svg xmlns="http://www.w3.org/2000/svg" viewBox="0 0 100 100">
	<path fill="#176BFF" d="M12 50c0-20.986 17.014-38 38-38 8.45 0 16.25 2.75 22.56 7.418a14.32 14.32 0 0 1 9.097-8.121A49.814 49.814 0 0 0 50 0C22.386 0 0 22.386 0 50s22.386 50 50 50 50-22.386 50-50a49.91 49.91 0 0 0-2.793-16.514 14.267 14.267 0 0 1-10.743 5.778c1 3.4 1.536 7 1.536 10.736 0 20.986-17.014 38-38 38S12 70.986 12 50Z"/>
	<path fill="#176BFF" d="M98.971 39.871a49.663 49.663 0 0 0-1.764-6.385 14.268 14.268 0 0 1-10.743 5.778 37.862 37.862 0 0 1 1.4 7.493 15.621 15.621 0 0 0 11.107-6.886ZM50 71.875A21.9 21.9 0 0 0 71.875 50 21.9 21.9 0 0 0 50 28.125 21.9 21.9 0 0 0 28.125 50 21.91 21.91 0 0 0 50 71.875ZM82.814 31.25a10.937 10.937 0 1 0 0-21.874 10.937 10.937 0 0 0 0 21.874Z"/>
</svg>