<svg xmlns="http://www.w3.org/2000/svg" viewBox="0 0 100 100">
	<path fill="#000" d="M9.926 40.595v24.702c0 5.4-1.543 9.804-4.628 13.194L0 74.797c2.111-2.294 3.187-5.46 3.187-9.5V40.595h6.739Zm5.094 17.477c0-5.48 3.877-8.221 11.61-8.221a33.46 33.46 0 0 1 6.212.508v-1.746c0-2.395-2.314-3.593-6.962-3.593-2.944 0-5.887.426-8.708 1.279V40.94a30.144 30.144 0 0 1 8.707-1.278c9.134 0 13.701 2.943 13.701 8.809v17.923h-3.41l-2.902-1.888a15.54 15.54 0 0 1-7.43 1.888c-7.205.02-10.818-2.76-10.818-8.322Zm11.63-3.126c-3.247 0-4.87 1.015-4.87 3.065s1.36 3.065 4.08 3.065c2.72 0 5.074-.69 7.002-2.091v-3.511c-1.705-.366-3.776-.528-6.211-.528Zm44.026 11.59h-3.532s-3.166-2.01-3.166-1.787c0 0-3.309 1.482-5.805 1.665-8.951.609-13.478-4.628-13.478-13.904 0-8.566 4.303-12.848 12.93-12.828 2.172-.02 4.303.406 6.292 1.279V30h6.76v36.536Zm-6.759-19.892c-1.725-.913-3.816-1.38-6.272-1.38-4.201 0-6.292 2.354-6.292 7.063 0 5.582 2.09 8.383 6.292 8.383 2.436 0 4.527-.325 6.272-.994V46.644Zm35.723 9.012H82.145c0 3.593 2.944 5.4 8.81 5.4a41.6 41.6 0 0 0 8.098-.772v5.359c-2.354.507-5.399.77-9.113.77-9.703 0-14.554-4.566-14.554-13.68 0-8.707 4.445-13.071 13.316-13.071 8.87 0 12.523 5.318 10.94 15.994Zm-17.496-4.932h11.164c.244-3.836-1.543-5.765-5.338-5.765-3.593 0-5.521 1.929-5.826 5.765Z"/>
</svg>