<svg xmlns="http://www.w3.org/2000/svg" viewBox="0 0 100 100">
	<g fill="#8a4182">
		<path d="M46.1 41.4h7.8l1.9-2.6V18H44.2v20.8l1.9 2.6zM41.1 50.7l2.4-7.4-1.9-2.7-19.7-6.4-3.6 11.1L38 51.7zM48.4 58.3l-6.3-4.6-3.1 1-12.2 16.8 9.4 6.8 12.2-16.8zM57.9 53.7l-6.3 4.6v3.2l12.2 16.8 9.4-6.8L61 54.7zM62 51.7l19.7-6.4-3.6-11.1-19.7 6.4-1.9 2.7 2.4 7.4z"/>
		<path d="M50 0C22.4 0 0 22.4 0 50s22.4 50 50 50 50-22.4 50-50S77.6 0 50 0zm0 89.9C28 89.9 10.1 72 10.1 50S28 10.1 50 10.1 89.9 28 89.9 50 72 89.9 50 89.9z"/>
		<path d="m65.33237 56.22003.98912-3.0432 15.0258 4.88378-.98912 3.0432zM61.2 37l9.2-12.7-2.6-1.9-9.3 12.7 2.7 1.9zM29.7706 24.1286l2.58912-1.88064 9.28566 12.78378-2.58912 1.88064zM33.7 53l-15 4.9 1 3L34.6 56zM48.3 66.1h3.2v15.8h-3.2z"/>
	</g>
</svg>