<svg xmlns="http://www.w3.org/2000/svg" viewBox="0 0 100 100">
	<g fill="#e76f00">
		<path d="M72.4 20.4s-34.2 8.5-17.9 27.4c4.8 5.6-1.3 10.6-1.3 10.6s12.2-6.3 6.6-14.2c-5.2-7.5-9.2-11.1 12.6-23.8z"/>
		<path d="M50 26.4C70.3 10.4 59.9 0 59.9 0c4.2 16.5-14.8 21.5-21.6 31.8-4.7 7 2.3 14.5 11.8 23.1-3.8-8.4-16.3-15.7-.1-28.5z"/>
	</g>
	<g fill="#5382a1">
		<path d="M63.3 69c-11.6 2.2-18.3 2.2-26.7 1.3-6.5-.7-2.3-3.8-2.3-3.8-16.9 5.6 9.4 12 33.1 5.1-2.5-1-4.1-2.6-4.1-2.6zM36.8 77.3c-15.4 4.3 9.4 13.2 28.9 4.8-3.2-1.2-5.5-2.7-5.5-2.7-8.7 1.7-12.8 1.8-20.7.9-6.6-.7-2.7-3-2.7-3zM34.4 66.4zM66.7 61.1c1.9-1.3 4.6-2.4 4.6-2.4s-7.6 1.3-15.1 2c-9.2.8-19.1.9-24 .3-11.7-1.6 6.4-5.9 6.4-5.9s-7.1-.5-15.7 3.7c-10.3 4.9 25.3 7.2 43.8 2.3zM71.2 73.3c-.1.2-.4.5-.4.5 25.1-6.6 15.8-23.2 3.9-19-1.1.4-1.6 1.2-1.6 1.2s.7-.3 2.1-.6c6.1-1.3 14.8 8.1-4 17.9z"/>
		<path d="M80.4 85.4s2.8 2.3-3.1 4.1c-11.3 3.4-47 4.5-57 .1-3.6-1.6 3.1-3.7 5.2-4.2 2.2-.5 3.5-.4 3.5-.4-4-2.8-25.6 5.5-11 7.9 39.9 6.6 72.8-2.8 62.4-7.5z"/>
		<path d="M71.9 96.3c-15.4 2.9-34.3 2.6-45.6.7 0 0 2.3 1.9 14.1 2.7 18 1.2 45.7-.6 46.3-9.2.1 0-1.2 3.3-14.8 5.8z"/>
	</g>
</svg>