<svg xmlns="http://www.w3.org/2000/svg" viewBox="0 0 100 100">
	<linearGradient id="a" x1="13.896" x2="84.3355" y1="86.3123" y2="15.8503" gradientTransform="matrix(1 0 0 -1 0 102)" gradientUnits="userSpaceOnUse">
		<stop offset="0"/>
		<stop offset="1" stop-color="#fff"/>
	</linearGradient>
	<path fill="url(#a)" d="M49.9 74.4C72 104.6 93.7 66 93.7 42.8 93.7 15.4 65.9 0 49.9 0 24.3.1 0 21.2 0 50.1 0 82.2 27.9 100 49.9 100c-5-.7-21.6-4.3-21.8-42.5-.1-25.8 8.4-36.1 21.8-31.6.3.1 14.7 5.8 14.7 24.3S49.9 74.4 49.9 74.4z"/>
	<linearGradient id="b" x1="87.5238" x2="17.0843" y1="19.0453" y2="89.501" gradientTransform="matrix(1 0 0 -1 0 102)" gradientUnits="userSpaceOnUse">
		<stop offset="0"/>
		<stop offset="1" stop-color="#fff"/>
	</linearGradient>
	<path fill="url(#b)" d="M49.9 25.9c-14.6-5-32.5 7-32.5 31.1 0 39.4 29.2 43 32.7 43 25.6 0 49.9-21.1 49.9-50C100 17.9 72.1.1 50.1.1c6.1-.8 32.8 6.6 32.8 43.1C82.9 67 63 80 50 74.5c-.3-.1-14.7-5.8-14.7-24.3s14.6-24.3 14.6-24.3z"/>
</svg>