<svg xmlns="http://www.w3.org/2000/svg" viewBox="0 0 100 100">
	<path fill="#6db33f" d="M91.1 5.9c-1.3 3.3-3.2 6.5-5.4 9.4C66.6-4.6 35-5.1 15.2 14-4.5 33.2-5.2 64.7 14 84.5l.2.2c.6.6 1.2 1.2 1.8 1.7l.7.6.1.1c.2.2.5.4.7.6l.4.4c21 17.7 52.5 15 70.2-6 6.8-8 10.9-18.1 11.6-28.6 1.4-12.4-2.4-28.5-8.6-47.6z"/>
	<path fill="#fff" d="M16.7 81.6c-1.4 1.9-1.2 4.5.6 6 1.9 1.4 4.5 1.2 6-.6 1.4-1.9 1.1-4.5-.6-6-1.9-1.4-4.6-1.2-6 .6zM90.5 11c-5.1 10.8-17.9 19-28.9 21.6-10.4 2.5-19.4.4-29 4.1-21.8 8.4-21.4 34.3-9.5 40.2l.7.4s17.6-3.5 27.4-7.1C65.4 65 81.1 52 86.2 37 83.5 52.6 70 67.8 56.6 74.7c-7.2 3.7-12.8 4.5-24.6 8.6-1.4.5-2.6 1-2.6 1 .2 0 .5-.1.7-.1h.3c2.6-.3 5-.5 5-.5 16.8-.8 43.1 4.7 55.4-11.6 12.5-16.7 5.5-43.7-.3-61.1z"/>
</svg>