<svg xmlns="http://www.w3.org/2000/svg" viewBox="0 0 100 100">
	<path fill="#f7df1e" d="M0 0h100v100H0V0z"/>
	<path d="M26.3 83.6zM45 77.9c0 4.7-1.9 5.9-5 5.9-3.2 0-4.6-2.2-6-4.8l-7.7 4.6c2.2 4.7 6.6 8.6 14.1 8.6 8.3 0 14-4.4 14-14.2V45.9H45v32zM79.7 64.3l-2.3-1c-4-1.7-5.8-2.9-5.8-5.7 0-2.3 1.7-4 4.5-4 2.7 0 4.4 1.1 6 4l7.3-4.7c-3.1-5.4-7.4-7.5-13.4-7.5-8.4 0-13.8 5.4-13.8 12.4 0 7.7 4.5 11.3 11.3 14.2l2.3 1c4.3 1.9 6.8 3 6.8 6.2 0 2.7-2.5 4.6-6.4 4.6-4.6 0-7.2-2.4-9.3-5.7l-7.7 4.4c2.8 5.4 8.4 9.6 17.1 9.6 8.9 0 15.6-4.6 15.6-13.1.3-7.8-4.2-11.3-12.2-14.7z"/>
</svg>