<svg xmlns="http://www.w3.org/2000/svg" viewBox="0 0 100 100">
	<path fill="#d33833" d="M85.2 48.2c0 19.8-15.7 35.9-35.1 35.9s-35-16.1-35-35.9c0-19.8 15.7-35.9 35.1-35.9s35 16.1 35 35.9z"/>
	<path fill="#ef3d3a" d="M16.5 57.1S14 19.7 48.4 18.6l-2.4-4-18.7 6.3c-6.7 7.7-4.4 4.4-10 15.1l-2.7 10.4.8 6.9"/>
	<path fill="#231f20" d="M26.1 23.7c-21.5 22-5.9 59.4 24 59.4 18.9 0 34-15.7 34-34.8 0-30.9-36.6-46.4-58-24.6zm-1.5 50.7c-14.1-14.4-14.1-37.8 0-52.3C47.3-1 86.3 15.5 86.3 48.3c0 32.7-38.9 49.4-61.7 26.1z"/>
	<path fill="#f0d6b7" d="M64.9 48.4c-13.5 2-15.4 1.8-21.8 1.6l-3.5-1.1-3.1-3.3c-2.8-7.8-2.2-6.3-2.9-8.3l-3.2-1.1c-2.4-3.9-1.6-2.2-3.2-7.5l1.5-3.9 3.5-1.2L35 25l1.3 2.9 1.6-.3.5-.7c-1.6-8.9.2-7.1.1-15.3L41 7.8c5.4-3.9 2.8-2.4 11.8-6.3l8.3 1.2 7.2 5.2c4 6.4 2.8 4.3 5.5 9.2.6 11.5 1 7.5-1.1 17.9-3.5 8.8-2.2 6.3-5.7 11.2"/>
	<path fill="#335061" d="m60.4 71.5-19.1.8c0 4.3-.3 1.3 1.6 14.4l-.8.9-13.4-4.5-.9-1.6c-1.8-20.6-.3-11.1-5.1-26.3 12.5-8.6 9.6-6.9 14-8.7 3.5 4.3 2.3 3 5.5 5.9 3.5 1.1 2.6.8 4.3 1.3l1.6 6.9 1.2 1.5 3.1-1.1-2.1 4.1 11.6 5.5-1.5.9z"/>
	<path fill="#6d6b6d" d="m28.7 24.9 3.5-1.2L35 25l1.3 2.9 1.6-.3.4-1.6-.8-3 .8-7.3-.7-4c3-3.5 1.4-2 7.6-6.9l-1.5-2c-8.8 4.3-6.6 3-10.4 6-2.2 4.7-1.2 3-4.4 7.3l-.8 4.3.6 4.5z"/>
	<path fill="#dcd9d8" d="M34.2 12.3s2-4.9 10-7.3c8-2.4.4-1.7.4-1.7l-8.7 3.3-3.3 3.3-1.5 2.7 3.1-.3zm-4 11.6s-2.8-9.4 7.9-10.7l-.4-1.6-7.3 1.7-2.1 6.9.5 4.5 1.4-.8z"/>
	<path fill="#f7e4cd" d="m34.5 36.4 1.8-1.7s.8.1.9 1c.1.9.5 9.4 6.3 13.9.5.4-4.3-.7-4.3-.7l-4.3-6.7M59 33.8c.5-6 2.5-3.2 2.5-2.3 0 0-2.6 1.7-2.5 2.3zM70.1 19s-2.2.5-2.4 2.4c-.2 1.9 2.4.4 2.8.3M54 19.1s-2.9.4-2.9 2.3 3.3 1.7 4.3.9M35.8 27.8s-5.1-3.1-5.6-.1c-.5 2.9-1.7 5.1.8 8.1l-1.7-.5c-1.9-5-1.5-3.1-2.1-8.1l3.1-3.2 3.5.3 2 1.6v1.9zm2.4-8.4S40.5 7.6 52 5.4c9.5-1.9 14.4.4 16.3 2.5 0 0-8.4-10-16.4-6.9-8 3.1-13.9 8.7-13.8 12.3.2 6.1.1 6.1.1 6.1zm31-10.2c-3.1-.1-4.7 2.5-3.7 4.4 0 0 3.1-3.5 4.9-1.6"/>
	<path fill="#f7e4cd" d="M52.2 14s-.7-5.3-5.2-2.2c-2.9 2-2.7 4.8-2.1 5.3.5.5.4 1.6.8.9.4-.7.3-3.1 1.7-3.8 1.5-.7 3.9-1.4 4.8-.2z"/>
	<path fill="#49728b" d="m39.7 50.1-12.6 5.6s5.2 20.7 2.5 27.1l-1.9-.7-.1-7.9c-4.1-17.8-3-13.6-4.9-19.1l13.1-8.8c0 .1 3.9 3.8 3.9 3.8zM41 61.6l1.8 2.2v8h-2.1c-.3-6.9-.4-6.2 0-9.4M41 73l-6 .3 1.7 1.2 4.3.7"/>
	<path fill="#335061" d="m61.6 71.6 4.9-.1 1.2 12.3-5.1.7c.1 0-1-12.9-1-12.9z"/>
	<path fill="#335061" d="m62.9 71.6 7.5-.4c3.8-9.5 2.3-5.3 5.7-19.4-7-7.3-5.6-5.9-7.2-7.3l-3.2 3.2c0 14.9.8 9.5-2.8 23.9z"/>
	<path fill="#49728b" d="m66.3 70.7-4.7.9.7 3.7C64 76.1 67 74 67 74m-.6-26.7 9.4 6.9.3-3.2-7.1-6.5c-.1 0-2.6 2.8-2.6 2.8z"/>
	<path fill="#fff" d="M45.6 98c-3-12.1-4-14.8-4.4-25.7 15-.8 10.5-.7 20.3-.7-.8 16.8-1 11.2.5 24.9l-.1 2-10.2.8c.1 0-6.1-1.3-6.1-1.3z"/>
	<path fill="#dcd9d8" d="M59.8 71.5s-.7 13.9 1.3 23.8c0 0-4 2.5-9.9 3.2l11.2-.4 1.3-.8c-1.9-25.4-1.5-20.4-2-26.6"/>
	<path fill="#fff" d="M68 82.7c6.6-1.9 3.2-1.4 15.1-2l1.5-4.5-2.7-7.9-3.1-.4c-5.4 1.7-3.5.9-8.4 3.3l-2.2-.4-1.7.7"/>
	<path fill="#dcd9d8" d="M67.9 80.1s3.5-1.6 4-1.5l-1.5-7.3 1.7-.7s1.2 6.9 1.2 7.7c0 0 7.5.4 8.2.4 0 0 1.6-3.1 1.2-6.3l1.5 4.3.1 2.4-2.1 3.2c-3 .7-1.6.6-6.4.4L74.4 81c-5.5.8-4.2.5-6.1 1.2"/>
	<path fill="#fff" d="M62.6 70.6c-3.5-9-2.1-6.3-6-11.9 0 0 .7-1.9 1.6-1.9h3.1l2.9 1.1-.2 4.9-1.4 7.8z"/>
	<path fill="#dcd9d8" d="M63.2 68s-3.7-7.2-3.7-8.3c0 0 .7-1.6 1.6-1.2.9.4 2.9 1.5 2.9 1.5v-2.5l-4.5-.9-3.1.4 5.2 12.3 1.1.1"/>
	<path fill="#fff" d="M46.8 50.4c-4.4-.5-2.8-.1-7.2-1.5v1.2l1.7 1.9 5.3 2.4"/>
	<path fill="#dcd9d8" d="M40.9 50.8s4.1 1.7 5.5 1.3l.1 1.6-3.7-.8-2.3-1.6.4-.5z"/>
	<g fill="#d33833">
		<path d="M67.9 57.3c-2.3-.1-4.3-.3-6.1-.8.1-.7-.1-1.5.1-2 .5-.4 1.3-.4 2.1-.4-.7-.3-1.6-.4-2.3-.3 0-.5-.2-.8-.4-1.2 1.3-.5 4.3-3.4 6-2.5.9.5 1.8 5.7.6 7.2z"/>
		<path d="M68.5 58.5c.6-.8 1.3-1.6 1.2-4.1m-1.2 4.1h-.6.6zm-.6 0c-2.3-.1-4.5-.3-6.4-.9l6.4.9zm-7.3-3.2h-.1c-.1-2.2.1-.9-.8-3.6 3.5-1.2 9.5-7.8 10 2.7m-9.1.9c0 .9.1.6-.2 2l1.1.3m1.6-2.3v.1c1.2.3 2.6.4 4 .5.1-.4.1-.7.1-1.1-4.1.6-3.8.5-4.1.5zm.5-2.8c.6-.4 2.2-1.5 2.9-1.4.4.7.6 2.3.6 3.1-2.7-1.4-2.8-1.5-3.5-1.7zm-6.5 1.6c-.7.5-1.8.5-2.6.8 1.1 0 2 .3 2.8.7v1.3c-1.3.9-2.5 2.2-4 3-.7.4-3.3 1.4-4 1.2-.4-.1-.5-.6-.6-1.1-.4-1.1-1.2-2.8-1.3-4.5-.1-2.1-.3-5.5 1.9-5.1 1.8.3 3.9 1.2 5.3 1.9.9.5 1.3 1 2.6 1.1l-.1.7z"/>
		<path d="M53.8 61.1c-.4.2-1.3.6-2.2.9l2.2-.9zm-2.2.9c-.4.1-.9.3-1.3.4l1.3-.4zm-1.3.4c-.4.1-.9.2-1.4.1l1.4-.1zm-1.4 0c-1.1-.2-1.3-1.1-1.5-2-.4-1.1-1.3-2.9-1.4-4.8m3.8 4.3c-.3-1.1-1.3-2.9-1.3-4.4 0-.7-.2-3.2.3-3.8.4 0 3 .7 5.1 1.8m-4.1 6.4c3.2-.7 4.2-2 6-3.5-.9-.3-1-.2-6.2-.4 4.2-2.1 4.3-2.2 4.5-2.3-.1-.1-.2-.1-.3-.2m4.5 1.3.1-2.3c-2.5-.2-1.5-.1-3.3-1.1-1.5-.8-3.7-1.7-5.7-2.1-1.5-.3-2.9.5-3.3 2.6-.2 1.2-.2 2.6-.1 3.8m12.3-.9.3.1-.1 2.7c-2.1 1.4-2.9 2.5-4.6 3.5m-4-.8z"/>
		<path d="M58.4 56c-.2-1.1-.4-1.5-.3-2.4 3-2 3.5 3.4.3 2.4z"/>
		<path d="M60.4 52.2c-1.3-.7-2.5 0-3.5.7-.2 2-.1 1.4.4 4.1l.7.2c3.8 1.2 5.1-3.7 2.4-5z"/>
	</g>
	<path fill="#ef3d3a" d="M62.7 56.9s-.9-1.3-.3-1.7 1.3 0 1.7-.7c.6-1.1-.9-2.4 1.6-2.9.7-.1 2.5-.4 2.8.3l-.8-2.4-1.6-.5-5.1 2.9c-.3 1.9-.3.9-.3 4.4m-12 5c-.7-9.7-1.4-8.8 2.9-8.8.4 0 2.5.5 2.7.8.7 1.5-1.2 1.2.8 2.3 1.7.9 4.8-.6 4.1-2.7-.4-.5-2-.1-2.6-.5-2-1-6.7-3.9-8.9-2.4-3.6 2.4.2 8.5 1.5 11.1"/>
	<path fill="#231f20" d="M52.2 14c-3.6-.8-5.5 1.5-6.6 4-2.2-.5 1.5-6.7 5.1-6.1 1 .1 2.2 1 1.5 2.1zM70 18.2h.2c.8 1.7 1.5 3.5 2.6 5-.7 1.6-5.3 3.1-5.2.1 1-.4 2.7-.1 3.6-.6-.8-1.9-1.2-2.3-1.2-4.5zm-15.9 0c.8 1.4 1 2.9 2.1 4 4.7 4.6-7 5-4.8 1.6 1.4.1 3.4.9 4.4-.1-.8-1.4-2.2-4-1.7-5.5zm15.2 14.5c-2.6 1.7-5.5 3.5-9.8 3.1-.9-.8-1.3-2.6-.4-3.7.5.8.2 2.3 1.5 2.5 2.4.4 5.3-1.5 7-2.2 1.1-1.8-.1-2.5-1.1-3.7-2-2.4-4.7-5.4-4.6-9 .8-.6.9.9 1 1.2 1.9 4.4 6.8 8.7 6.9 9 .3 1-.6 2.2-.5 2.8zM34.9 31c-.8-.5-1-2.5-2-2.6-1.4-.1-1.1 2.7-1.1 4.3-.9-.9-1.1-3.5-.4-4.9-.8-.4-1.1.4-1.6.7.6-4.1 6-1.9 5.1 2.5zM71 34.5c-1.2 2.3-2.9 4.9-6.5 4.9-.1-.7-.1-1.9 0-2.3 2.7-.3 4.4-1.7 6.5-2.6zM53.9 36c2.3 1.2 6.5 1.3 9.6 1.2.2.7.2 1.5.2 2.3-4.1.2-8.8-.8-9.8-3.5zm-.4 2.2c1.6 4 7 3.5 11.5 3.4-.2.5-.6 1.1-1.2 1.3-1.5.6-5.5 1-7.5 0-1.3-.7-2.1-2.2-2.8-3.1-.4-.5-2.1-1.6 0-1.6z"/>
	<path fill="#81b0c4" d="M69.1 60c-1.8 3.2-3.6 6.4-5.8 9.2.9-2.7 1.3-7.2 1.4-10.7 2-.9 3.6.2 4.4 1.5z"/>
	<path fill="#231f20" d="M79.1 71.4c-2.1.4-3.5 2.4-5.5 2.3 1-1.6 3-2.3 5.5-2.3zm.9 3.2c-1.7.2-3.7.4-5.4.3.8-1.2 3.9-.8 5.4-.3zm-5.5 2.6c1.1-1.1 4.8-.4 6.1.1-1.5.1-3.6.1-6.1-.1z"/>
	<path fill="#dcd9d8" d="M65.6 85c.3 2.4 1.2 4.8 1.1 7.4-1 .4-1.7.7-3.1.7-.1-2.2-.4-5.6-.3-7.7.7 0 1.7-.5 2.3-.4z"/>
	<path fill="#f0d6b7" d="M62.5 50c-1 .6-1.8 1.4-2.7 2.1-2 .1-3.1-.1-4.6-1.3 0-.1.2-.1.2-.2 2.2.9 4.9-.4 7.1-.6z"/>
	<path fill="#81b0c4" d="M51.1 64.7c.6-2.6 2.9-3.9 5-5.3 2.2 2.8 3.5 6.3 5 9.8-3.4-1.1-6.9-2.7-10-4.5z"/>
	<path fill="#231f20" d="M63.3 85.4c-.1 2.1.2 5.5.3 7.7 1.4 0 2-.3 3.1-.7.1-2.6-.8-5-1.1-7.4-.6-.1-1.6.4-2.3.4zm-21.8-12c.9 8.5 2.3 15.7 4.7 23.2 5.5 1.7 12 1.8 16.9.3-.8-3.8-1.1-19.9-1.7-24.3-5.9-1.2-14.2-.3-19.9.8zm21.2-.8c0 3.7.2 7.3.4 10.9 1.4-.2 2.4-.3 3.7-.6-.4-3.5-.4-7.5-1.2-10.6-1.1 0-1.9 0-2.9.3zm7.1-.6c-.7-.2-1.4 0-2.1 0 .3 3 1 6.3 1.3 9.4 1 0 1.5-.4 2.4-.6 0-2.7-.3-6.5-1.6-8.8zm10.8 9.9c2.1-.5 3.4-3.1 2.8-5.7-.4-1.8-1.1-5.1-1.8-6.2-.6-.8-2-1.9-3.2-1.2-1.9 1.2-5.4 1.6-6.8 3.1.7 2.4.9 5.6 1.2 8.6 2.4.2 5.4-.7 7.4.2-1.4.5-3.2.5-4.5 1.1 1 .5 3.4.5 4.9.1zM61.2 69.2c-1.5-3.4-2.8-7-5-9.8-2.1 1.4-4.5 2.8-5 5.3 3 1.8 6.5 3.4 10 4.5zm3.6-10.7c-.1 3.4-.5 8-1.5 10.7 2.2-2.8 4-6 5.8-9.2-.8-1.3-2.4-2.4-4.3-1.5zm-4.1-1.4c-.8-.1-1.5 1-2.6.5-.2.3-.5.6-.7.8 2.4 2.9 3.5 7 5.3 10.3 1-3.2.9-6.8 1.1-10.3-1.4.1-2.2-1.2-3.1-1.3zm-2.6-3.5c-.1 1 .1 1.3.3 2.4 3.2 1 2.7-4.4-.3-2.4zm-8.9-3.1c-2.2-.4-2 3-1.9 5.1.1 1.6.9 3.4 1.3 4.5.2.5.2 1 .6 1.2.8.2 3.3-.8 4-1.2 1.5-.8 2.7-2.2 4-3l.1-1.3c-.8-.4-1.7-.7-2.8-.7.8-.4 1.9-.4 2.6-.8v-.5c-1.8-.4-3.4-2.5-7.9-3.3zm-8-.5c-1.2 1.2 3.2 2.8 4.6 2.9 0-.7.4-1.4.3-2-1.6-.3-3.8-.1-4.9-.9zm14.2.5c0 .1-.2.1-.2.2 1.5 1.2 2.6 1.4 4.6 1.3.9-.7 1.7-1.4 2.7-2.1-2.2.3-4.9 1.6-7.1.6zm13.1 4c-.1-1.3-.4-4-1.2-4.5-1.7-1-4.7 2-6 2.5.1.4.4.7.4 1.2.8-.2 1.7-.1 2.3.3-.8.1-1.6.1-2.1.4-.2.5 0 1.2-.1 2 1.8.5 3.8.8 6.1.8.5-.5.6-1.6.6-2.7zm-29.3-3.4c-.4-.3-2.8-3.5-3.2-3.3-4.4 1.8-8.6 4.8-12.3 7.7 3.5 7.6 5 16.9 5.2 25.9C33 83.3 36.5 86 42 86.3c-.6-4.5-1.2-8.5-1.6-12.8-1.4-.6-3.4 0-4.7-.2 0-1.6 2-.7 2.1-1.7.1-.8-1.1-.9-.7-2.1 1 .4 1.5 1.2 2.6 1.5 1-2.2 0-6 .1-7.8 0-.3.2-1.9.9-1.6.9.3-.7 8 .5 9.9 5.5-.7 11-1.2 16.5-1.3-.1 0-8.1-3.3-8.4-4.4-.4-1.4 1.1-2.1 1.3-3.2-2.7 1.5-3.2-1.4-3.8-3.4-.6-1.8-.9-3.2-1-4.3-2.1-1.2-4.6-2.4-6.6-3.8zm26.9-2.9c3.7-1.8 4.4 6.7 2.9 9.5.2.8 1 1.1 1.3 1.9-2.1 3.7-4.4 7.2-6.5 10.8 1.6-1 3.8-.2 5.7-.9 1.5-.6 5.9-15.1 5.7-17-.2-1.2-1.8-2.1-2.6-2.8-1.5-1.3-2.4-2.5-4-3.8-.6.9-1.9 1.5-2.5 2.3zM30.7 15.3c-1.8 1.9-1.4 5.6-1.2 8.2 3.2-2 7.4.2 7.4 3.6 1.5 0 .6-1.9.3-3.1-.9-3.9 1.5-8.2.1-11.8-2.7.2-4.9 1.3-6.6 3.1zM43.4 4.1c-4 1.1-9.1 4-10.8 7.6 1.3-.2 2.2-.8 3.4-.9.5 0 1.1.2 1.6.1 1.1-.3 2-2.7 2.8-3.6.8-.9 1.8-1.3 2.4-2.1.5-.2 1.1-.2 1.2-.9-.2-.1-.4-.3-.6-.2zm20.8 1C60 2.8 53 1 48.6 3.2c-3.6 1.8-8.4 4.7-10 8.4 1.5 3.6-.5 6.9-.6 10.5-.1 1.9.9 3.6 1 5.7-.5.9-2.1 1-3.2.9-.4-1.9-1-4-3-4.2-2.7-.3-4.7 2-4.8 4.3-.1 2.8 2.1 7.4 5.3 7 1.2-.1 1.5-1.4 2.9-1.4.7 1.5-1.1 1.9-1.3 3-.2.8 1.2 6 3.4 9.2 1.6 2.3 4.8 2.7 8.3 2.9.6-1.3 2.9-1.2 4.4-.9-1.8-.7-3.4-2.4-4.8-3.9-1.6-1.7-3.2-3.6-3.2-5.8 3 4.1 5.4 7.7 10.8 9.5 4.1 1.4 8.8-.6 12-2.8 2.4-1.7 8.4-10.2 7.7-22.6-.1-2.8-.1-5.7-1.1-7.6-1-2-4.4-3.8-6.3-2-.4-1.9 1.6-3.1 4-2.4-1.8-1.9-3.5-4.5-5.9-5.9zm7.7 64c9.6-4.8 11.4-2.1 13.3 6 .5 2.3-.6 7.2-3 8-2.1.7-4.6.6-7.1.1-.3-.2-.6-.7-.9-1.1-1.8-.1-3.5.1-5 .8.1 1.3-.8 1.6-1.6 1.8-.6 2.5 1.3 5.8.8 8.1-.3 1.6-2.3 1.9-3.8 2.2 0 .9.1 1.7.2 2.4-.3 1.2-1.8 1.9-3.3 2.1-4.7.6-11.9.8-16.4-.8-1.3-3.1-2.3-6.9-3.3-10.4-4.4.5-8-1.9-11.4-3.5-1.2-.5-2.8-.8-3.2-1.8-.6-1.3 0-9.2-1.9-16.7-.6-2.3-3.4-8.5-3.7-11-.4-2.5 2-2.7 3.5-3.8 3.6-2.6 9.7-5.6 10-6.3.7-1.5-2-2.7-2.2-7-5.6-.9-8-8.6-6.1-13.1.1-.3.7-.8.7-1.2 0-.1-1.9-9.7 3.3-12.1 1.2-4.7 5.4-6.3 9.4-8.6 8.7-5.1 20.1-4 25.3-.1 2.1 1.6 5.6 5 6.8 7.5 3.8 7.8 2.7 22.5-.6 29.4-.4.9-1.8 2.7-1.6 3.5.2.8 3 3 3.7 3.6 3.9 3.8 4.1 2.6 2.3 8.7-1.3 4.9-2.6 9.2-4.2 13.3z"/>
	<path fill="#f7e4cd" d="M50.3 37c.2-.2 1.1-.6 2.5.1 0 0-1.6.3-1.5 2.9l-.7-.1c0-.1-.7-2.5-.3-2.9z"/>
	<path fill="#1d1919" d="M61.3 60.7c-.4 0-.7-.3-.7-.7 0-.4.3-.7.7-.7.9-.1.9 1.4 0 1.4zm1.4 2.6c0 1-1.5 1-1.5 0 0-.9 1.5-.9 1.5 0z"/>
</svg>