<svg xmlns="http://www.w3.org/2000/svg" viewBox="0 0 100 100">
	<path fill="#15C213" d="M93.177 49.247c0-6.022-4.14-11.088-9.7-12.536L95.928 0H34.23l12.48 36.827c-5.385 1.563-9.352 6.543-9.352 12.45 0 4.342 2.172 8.193 5.472 10.567-1.303 1.853-2.808 3.56-4.516 5.182-3.214 3.011-6.775 5.327-10.626 6.862-3.474-2.345-4.98-6.486-3.619-10.191 5.299-1.622 9.15-6.573 9.15-12.392 0-7.151-5.82-12.941-12.942-12.941-7.152 0-12.97 5.819-12.97 12.97 0 3.532 1.447 6.775 3.763 9.091a48.6 48.6 0 0 0-.608 1.245c-1.94 3.995-4.14 8.512-4.98 13.578-1.679 10.134 1.071 18.27 7.701 22.872 3.735 2.577 7.846 3.88 12.276 3.88 7.614 0 15.345-3.822 22.814-7.528 5.327-2.634 10.828-5.385 16.242-6.716 1.998-.493 4.083-.782 6.283-1.1 4.458-.638 9.062-1.303 13.202-3.706 4.835-2.809 8.135-7.499 9.09-12.884.725-4.14 0-8.31-1.852-11.957 1.245-1.998 1.94-4.343 1.94-6.862Zm-5.646 0a7.302 7.302 0 0 1-7.296 7.296 7.302 7.302 0 0 1-6.34-10.915 8.27 8.27 0 0 1 .81-1.158c.29-.347.637-.666 1.014-.955l.029-.03c.231-.173.492-.347.752-.52 0 0 .03 0 .03-.03.115-.057.23-.144.347-.202.029 0 .058-.029.087-.029.115-.058.26-.116.405-.174.145-.058.29-.115.405-.173.03 0 .058-.03.087-.03.116-.028.232-.086.347-.115.03 0 .087-.029.116-.029.145-.029.26-.058.406-.087h.029l.434-.087c.029 0 .087 0 .116-.029.115 0 .231-.029.347-.029h.145c.145 0 .29-.029.463-.029h.377c.115 0 .202 0 .318.03h.058c.232.028.463.057.695.115 3.3.695 5.819 3.648 5.819 7.18ZM42.308 5.79H87.85L77.398 36.624c-.434.087-.869.232-1.303.377L65.093 14.563l-11.03 22.293c-.435-.145-.898-.232-1.361-.319L42.308 5.79Zm20.7 40.938c-.55-2.721-1.939-5.153-3.908-6.948l5.993-12.102 6.051 12.363c-1.795 1.795-3.098 4.082-3.619 6.687H63.01Zm-14.504-4.574c.145-.029.26-.058.405-.087h.087c.116-.029.232-.029.347-.058h.116c.116 0 .203-.029.319-.029h1.129c.116 0 .203.03.29.03.057 0 .086 0 .144.028.116.03.203.03.319.058.029 0 .058 0 .115.03.145.028.29.057.406.086h.029c.115.029.231.058.347.116.029 0 .058.029.116.029.087.029.203.058.29.115.028 0 .057.03.086.03.116.057.232.086.348.144h.029c.144.058.26.116.376.203h.029c.116.058.232.145.347.203.03 0 .03.029.058.029.116.057.203.144.319.202l.029.03c.347.26.666.55.984.839l.029.029c.29.318.58.666.81 1.042a7.302 7.302 0 0 1-6.109 11.291 7.302 7.302 0 0 1-7.295-7.296c-.029-3.387 2.316-6.253 5.5-7.064Zm-28.489-.203a7.302 7.302 0 0 1 7.296 7.296 7.302 7.302 0 0 1-7.296 7.296 7.302 7.302 0 0 1-7.296-7.296 7.302 7.302 0 0 1 7.296-7.296Zm67.342 25.102c-.637 3.706-2.924 6.948-6.282 8.888-3.156 1.824-7.036 2.403-11.118 2.982-2.23.319-4.574.666-6.832 1.216-6.023 1.477-11.813 4.372-17.43 7.151-7.18 3.561-13.954 6.92-20.237 6.92-3.271 0-6.196-.927-8.975-2.867-6.37-4.4-6.051-12.652-5.298-17.168.695-4.227 2.634-8.194 4.487-11.986.116-.232.203-.434.319-.666.637.231 1.303.405 1.997.521-1.1 6.138 2.027 12.478 8.107 15.605l1.1.58 1.187-.435c5.067-1.795 9.757-4.72 13.897-8.628 2.345-2.2 4.343-4.574 6.022-7.15.666.115 1.332.144 1.998.144 6.022 0 11.088-4.14 12.536-9.7h4.864c1.448 5.589 6.514 9.7 12.536 9.7 2.403 0 4.632-.666 6.543-1.795.753 2.171.985 4.43.58 6.688Z"/>
</svg>