<svg xmlns="http://www.w3.org/2000/svg" viewBox="0 0 100 100">
	<path fill="#40be46" d="m96.4 68.6-2.5-3.9c-2.9 2.8-5.4 2-7.4 1.5-6.5-1.9-13.5.7-13.5 7.4 0 3.5 1.6 5.7 4.8 6.6-2.3.6-4.1 1.6-4.1 4 0 7.1 13.7.8 13.7 6.7 0 .9-.6 1.8-1.4 2.4-1.8 1.2-9.5 1.7-7.7-3.6h-5.4c-5 10.5 20.5 13.4 20.5 1.2 0-10.1-12.8-5.9-12.8-7.8 0-.6.8-1.2 2.3-1.9 7.6.8 11.4-6.4 7.8-10.8 2.3.1 3.8 0 5.7-1.8zm3.6-22.9c0-2.7-1.6-5.1-4.4-7.1C98.8 49.2 82 55.7 70.3 57.8c1.7.2 3.5.3 5.3.3 13.5 0 24.4-5.5 24.4-12.4zm-45.1 9.1c-27.6 0-45.3-10.8-32-19.5-.4.8-.7 1.6-.7 2.5 0 6.7 14.4 12.2 32.1 12.2 21.3 0 37.2-7.9 30.6-15.9 16.7 8.7-.7 20.7-30 20.7zM22.5 29.9c-11.7 2.9-17.1 10.4-7.2 16-4.1-6.5.5-12.3 7.2-16zM94.4 18c-1.5-1.8-3.8.7-2.6 2 1.7 1.7 4.1-.1 2.6-2zm-9.3 3.1c2.3-3.2 6.6 2.4 1.7 3.2-2 .3-5.3 2.5-6.8 5.9-2 5.1-1.2 8.8-4.6 11.1-7.4 4.7-30.3 6.5-40.2.4-7.7-4.8-5.1-12.5-27.2-29.3-2.9-2.2.5-4.5 2.7-3s.2 1.9 4.5 6.3c8.8 8.8 8.7.9 10.1 3.9 2.9 6.3 9.4 12.7 9.4 12.7 6.5 4.2 11.6 5.1 21.2-1.3 6-4.1 3.6 6.5 18.4-1.1 5.5-3 5.3-1.2 10.8-8.8zm-66.6-8.2c-1.3 1.3.6 3.1 2.3 2.2.6-.3-.5-3.9-2.3-2.2zM5.4 7.1c.5-.5 1.1-1.5 0-3.5-.8-1.4-3.3-2-4.2-1.4-.9.5-2 2.6-.5 3.5 2 1.2 3.2 3 4.7 1.4zm91.4-2.6c-.7-1-2.1-.8-3.5.2s-1.2 3-.7 3.4c.8.8 3 .3 3.5-.3 1.4-1.4 1.4-2.3.7-3.3zm-8.1 6.3c2-1 5.2 2.2.6 4.5-6.6 3.3-7.3 7.5-11.5 10.1-7 4.4-4.9.2-16.2-1.4-4.3-.6-5.7 4.2-9.1 2.8-7.8-3.2-13.3-2.6-18.4 1.5-1.8-.8-3.8-3.9-4.5-5.2 2.1-2 1.2-5.4.1-7.2-1.2-1.8-2.6-1.3-4.1-3-1.5-1.7.6-6.1 2.6-2.7 7.4 12.7 12.3 7.4 18.3 6.7 5.8-.7 10.9 2.4 12.5-6.5.3-1.5 1.7-1.8 1.8.6.1 2.4 1.1 8.3 4.2 9.1 3.2.8 5.7-.7 6.5-1.6 2.6-2.9-.4 8.5 7.1 3.1 9.1-6.6 6.5-9.2 10.1-10.8zM60 3.1c-1 0-1.4.6-1.4 1.6.3 1.9.6 1.9 1.3 2 .7.2 1.6-.9 1.6-1.9 0-.6-.1-1.7-1.5-1.7zM24.8 6.6c.5-.6.5-1.3-.1-2.2-.4-.5-2.1-.9-2.9-.1-.7.7-.1 1.9.5 2.1 1.1.3 1.6 1.3 2.5.2zm61.2 67c0 2.2-1.3 3.4-3.6 3.4-2.1 0-3.5-1-3.5-3.4 0-2.2 1.3-3.5 3.5-3.5s3.6 1.3 3.6 3.5zM69.1 86.9c3.7-4.4 3.8-13.3.2-17.8-5.3-6.5-17.7-4.5-17.7 8.8 0 13.4 12.5 15 17.5 9zm-3.5-9.2c0 5.6-1.1 8-3.6 8-3.6 0-3.7-4.3-3.7-7.9 0-3.3.3-7.7 3.6-7.7 3.4 0 3.7 4.2 3.7 7.6zm-56 16.2 2.8 3.3c2.8-1.1 6.2-3.6 7.1-7.5.6-2.4.4-1.8.4-32h-6.2c0 29.7.2 30.3-.6 32.3-.5 1.3-1.9 2.9-3.5 3.9zm13.8-36.2v32h6.1V75.5h7.8v-5.3h-7.8v-7.3h9.7l.4-2.8c-10.3-.8-14.4-2.4-16.2-2.4zm21 7.8c.5 1 .8 2 .9 3.4 1.9-2.7 4.4-4.2 7.5-2.9l-1.6 5.4c-1.5-.9-3.5-.6-5.3 1.5v16.7H40c0-14.5.3-19.6-.8-22.7l5.2-1.4z"/>
</svg>