<svg xmlns="http://www.w3.org/2000/svg" viewBox="0 0 100 100">
	<path fill="#f9ae41" d="M99.7 13.6C99.7 6.4 93.8.5 86.6.5c-6.6 0-12.1 4.9-13 11.3l-.1-.1c-10.7-4.8-19.8 3.7-19.8 3.7l-23.9 24 9.4 9.1 19.2-18.9c9-9 13.9-2.9 13.9-2.9 6.8 5.7.2 12.5.2 12.5l9.7 9.3c7.9-8.5 8.4-16 6-21.9 6.4-.8 11.5-6.4 11.5-13z"/>
	<path fill="#ee4035" d="m88.3 73.9.1-.1C93.2 63 84.6 54 84.6 54l-24-23.9-9.1 9.4 18.9 19.2c9 9 2.9 13.9 2.9 13.9-5.7 6.8-12.5.2-12.5.2l-9.3 9.7c8.5 7.9 16 8.4 21.9 6 .8 6.5 6.3 11.5 13 11.5 7.2 0 13.1-5.9 13.1-13.1.1-6.6-4.8-12.1-11.2-13z"/>
	<path fill="#4f91cd" d="M60.8 51.5 41.6 70.4c-9 9-13.9 2.9-13.9 2.9-6.8-5.7-.2-12.5-.2-12.5l-9.7-9.3c-7.9 8.5-8.4 16-6 21.9-6.5.8-11.5 6.3-11.5 13 0 7.2 5.9 13.1 13.1 13.1 6.6 0 12.1-4.9 13-11.3l.1.1c10.7 4.8 19.8-3.7 19.8-3.7l23.9-24-9.4-9.1z"/>
	<path fill="#7ac043" d="M29.6 41.2c-9-9-2.9-13.9-2.9-13.9 5.7-6.8 12.5-.2 12.5-.2l9.3-9.7c-8.5-7.9-16-8.4-21.9-6C25.8 5 20.2 0 13.6 0 6.3 0 .4 5.9.4 13.1c0 6.6 4.9 12.1 11.3 13l-.1.1C6.8 37 15.4 46 15.4 46l24 23.9 9.1-9.4-18.9-19.3z"/>
</svg>