<svg xmlns="http://www.w3.org/2000/svg" viewBox="0 0 100 100">
	<path fill="#111" d="M35.336 18.797V10h-8.834v8.798h8.834ZM61.838 45.19h17.667V10H44.17v35.19h17.667Zm29.328-33.782V10H84.1v1.408h2.827v7.389h1.412v-7.388h2.827Zm8.834 7.39V10h-7.067v8.798h1.413v-7.39h1.414v7.389h1.413v-7.388h1.414v7.388H100ZM35.336 45.19V23.02h-8.834v13.372H8.834v-8.798H0V45.19h35.336Zm22.261-8.798h-4.593v-9.149h9.186v9.149h-4.594ZM35.336 89.177v-35.19H0v35.19h35.336Zm37.456 0h6.713v-35.19H44.17v35.19h13.427v8.798h8.48v-8.798h6.715ZM17.667 71.582v-8.798h8.834v8.798h-8.834Zm35.336 8.798V62.785H70.67V80.38h-4.593v-4.575h-8.48v4.575h-4.594Z"/>
</svg>