<svg xmlns="http://www.w3.org/2000/svg" viewBox="0 0 100 100">
	<g fill="#21609b">
		<path d="m97.7 74-.4 1.2c-7.6 14.9-21.1 24-40.4 24.4-9 .2-17.6-2.1-23.2-4.6-12.2-5.6-22.4-15.6-27.9-26.4-8-15.4-9.4-36.9 7.2-53 .3 0-2 3.5-1.8 3.5l-.5 1.5C-1.2 58 35.6 90 71.4 86.4c8.6-.9 19.5-5.6 26.3-12.4z"/>
		<path d="M76 58.5c9 .1 18.4-4.1 24-10.1-4.9 12.4-19 20.3-37.9 17.8-15.8-2.1-30.9-18.1-32.5-34-1.1-11.6 2.9-18.6 9.6-27-2.3 4.4-3.2 7.8-3.4 10C33.3 40.4 55.9 58.4 76 58.5z"/>
		<path d="M99.1 27.3c-1.4 3.2-9.5 9.3-13 10C72 40.3 63 33.6 58.2 26c-.7-1.1-2-4.2-2.2-5-1.8-6.2-1-15.7 4.5-20.5-1.6 4.6-1.9 10-1 13.5.5 2.1 2.1 5.8 3.7 8.1 2.9 4.2 4.8 5.3 8.5 7.5 1.7 1 3.5 1.8 4.3 2 3.5 1.2 11 3.9 23.1-4.3z"/>
	</g>
</svg>