<svg xmlns="http://www.w3.org/2000/svg" viewBox="0 0 100 100">
	<path fill="#0481A3" d="M13.413 13h71.66a2.448 2.448 0 0 1 2.39 2.985l-10.1 44.894a3.416 3.416 0 0 1-3.333 2.666H2.737a2.736 2.736 0 0 1-2.67-3.33l9.9-44.452A3.53 3.53 0 0 1 13.413 13Z"/>
	<path fill="#14BEF0" d="M44.798 25.224h53.3a1.9 1.9 0 0 1 1.856 2.316l-8.956 40.047a3.048 3.048 0 0 1-2.974 2.382H34.562a1.717 1.717 0 0 1-1.676-2.094L41.953 27.5a2.916 2.916 0 0 1 2.845-2.277Z"/>
	<path fill="#73D8F4" d="M44.798 25.224a2.916 2.916 0 0 0-2.845 2.277l-8.095 36.044H74.03a3.415 3.415 0 0 0 3.332-2.666l8.022-35.655H44.798Z"/>
	<path fill="#6ABA2F" d="M27.388 38.585h24.396a2.05 2.05 0 0 1 1.997 2.511L43.553 85.402a2.83 2.83 0 0 1-2.756 2.193H16.028a1.853 1.853 0 0 1-1.807-2.262l9.987-44.207a3.26 3.26 0 0 1 3.18-2.541Z"/>
	<path fill="#B8EC00" d="M32.885 67.875a1.718 1.718 0 0 0 1.677 2.095h12.554l1.483-6.425H33.86l-.974 4.33Z"/>
	<path fill="#fff" d="M51.784 38.585h-12.32l-5.606 24.96h14.74l5.183-22.449a2.05 2.05 0 0 0-1.997-2.511Z"/>
	<path fill="#81D958" d="M27.388 38.585a3.26 3.26 0 0 0-3.18 2.541l-5.065 22.419h14.715l5.606-24.96H27.388Z"/>
</svg>