<svg xmlns="http://www.w3.org/2000/svg" viewBox="0 0 100 100">
	<path fill="#FAA523" d="M11.11 6h77.776C95.021 6 100 10.917 100 16.982v32.945c0 24.254-19.898 43.922-44.443 43.922H44.443C19.898 93.849 0 74.18 0 49.927V16.982C0 10.917 4.97 6 11.11 6Z"/>
	<path fill="#fff" d="M16.667 44.436c0 18.193 14.922 32.943 33.33 32.944 18.41 0 33.332-14.751 33.332-32.944H66.662c0 9.097-7.455 16.472-16.662 16.472-9.207 0-16.667-7.375-16.667-16.472V27.963H16.667v16.473Zm50.278-9.61 16.11 4.119v-.005l4.167-15.92-16.389-4.118-3.888 15.925Z"/>
</svg>