<svg xmlns="http://www.w3.org/2000/svg" viewBox="0 0 100 100">
	<path fill="#F7DF1E" d="M0 11h79.125v78.301H0V11Z"/>
	<path fill="#000" d="M53.24 72.457c1.597 2.609 3.676 4.526 7.352 4.526 3.089 0 5.061-1.544 5.061-3.676 0-2.555-2.026-3.46-5.426-4.947l-1.862-.8c-5.379-2.29-8.951-5.161-8.951-11.23 0-5.589 4.258-9.844 10.915-9.844 4.738 0 8.145 1.65 10.6 5.968l-5.804 3.726c-1.277-2.292-2.656-3.194-4.796-3.194-2.184 0-3.567 1.385-3.567 3.194 0 2.235 1.385 3.14 4.582 4.526l1.864.798c6.332 2.716 9.907 5.484 9.907 11.708 0 6.71-5.27 10.386-12.35 10.386-6.922 0-11.393-3.298-13.581-7.62 0-.002 6.056-3.521 6.056-3.521Zm26.885 0c1.598 2.609 3.676 4.526 7.353 4.526 3.088 0 5.06-1.544 5.06-3.676 0-2.555-2.026-3.46-5.425-4.947l-1.863-.8c-5.378-2.29-8.95-5.161-8.95-11.23 0-5.589 4.258-9.844 10.914-9.844 4.739 0 8.146 1.65 10.6 5.968l-5.803 3.726c-1.278-2.292-2.656-3.194-4.797-3.194-2.183 0-3.567 1.385-3.567 3.194 0 2.235 1.386 3.14 4.583 4.526l1.863.798C96.425 64.22 100 66.987 100 73.211c0 6.71-5.27 10.386-12.35 10.386-6.922 0-11.393-3.298-13.582-7.62l6.057-3.52Zm-53.212.646c1.17 2.078 2.236 3.834 4.796 3.834 2.449 0 3.993-.958 3.993-4.683V46.91h7.453v25.442c0 7.717-4.525 11.23-11.13 11.23-5.967 0-9.423-3.088-11.18-6.808l6.068-3.672Z"/>
</svg>