<svg xmlns="http://www.w3.org/2000/svg" viewBox="0 0 100 100">
	<path fill="#CB3C33" d="M45.389 74.008c0 12.59-10.184 22.695-22.695 22.695C10.105 96.703 0 86.518 0 74.008s10.184-22.694 22.695-22.694c12.51-.08 22.694 10.104 22.694 22.694Z"/>
	<path fill="#9558B2" d="M100 74.008c0 12.59-10.184 22.694-22.695 22.694-12.51 0-22.694-10.184-22.694-22.694s10.185-22.694 22.694-22.694c12.51 0 22.695 10.104 22.695 22.694Z"/>
	<path fill="#389826" d="M72.734 26.695c0 12.51-10.184 22.694-22.694 22.694-12.59 0-22.694-10.184-22.694-22.695C27.346 14.185 37.45 4 49.96 4c12.59 0 22.774 10.184 22.774 22.695Z"/>
</svg>