<svg xmlns="http://www.w3.org/2000/svg" viewBox="0 0 100 100">
	<path fill="#767677" d="M85.678 5.688a5.996 5.996 0 0 1-.85 3.344 5.908 5.908 0 0 1-2.55 2.305 5.857 5.857 0 0 1-6.477-1.01 5.961 5.961 0 0 1-1.742-2.973 6 6 0 0 1 .19-3.448 5.941 5.941 0 0 1 2.056-2.759 5.86 5.86 0 0 1 3.23-1.142 5.868 5.868 0 0 1 4.237 1.56 5.966 5.966 0 0 1 1.904 4.123h.002Z"/>
	<path fill="#F37726" d="M51.296 75.617c-15.702 0-29.416-5.753-36.534-14.27a39.013 39.013 0 0 0 14.14 18.949 38.492 38.492 0 0 0 22.402 7.2 38.492 38.492 0 0 0 22.403-7.2 39.013 39.013 0 0 0 14.14-18.949c-7.136 8.517-20.85 14.27-36.551 14.27Zm-.004-55.397c15.702 0 29.415 5.755 36.534 14.27a39.012 39.012 0 0 0-14.14-18.948A38.491 38.491 0 0 0 51.284 8.34a38.492 38.492 0 0 0-22.403 7.2 39.013 39.013 0 0 0-14.14 18.949c7.135-8.5 20.849-14.27 36.55-14.27Z"/>
	<path fill="#989798" d="M29.74 92.177a7.541 7.541 0 0 1-1.073 4.218 7.452 7.452 0 0 1-3.216 2.904 7.372 7.372 0 0 1-4.275.612 7.405 7.405 0 0 1-3.89-1.888 7.517 7.517 0 0 1-2.194-3.748 7.56 7.56 0 0 1 .244-4.347 7.488 7.488 0 0 1 2.598-3.478 7.386 7.386 0 0 1 4.076-1.434 7.396 7.396 0 0 1 5.333 1.97 7.52 7.52 0 0 1 2.396 5.192v-.001Z"/>
	<path fill="#6F7070" d="M16.552 18.293a4.334 4.334 0 0 1-2.454-.636 4.381 4.381 0 0 1-1.69-1.905 4.438 4.438 0 0 1-.357-2.53 4.407 4.407 0 0 1 1.098-2.302 4.367 4.367 0 0 1 2.183-1.298 4.32 4.32 0 0 1 2.53.144 4.35 4.35 0 0 1 2.022 1.538 4.42 4.42 0 0 1-.312 5.569 4.343 4.343 0 0 1-3.022 1.418l.002.002Z"/>
</svg>