<svg xmlns="http://www.w3.org/2000/svg" viewBox="0 0 100 100">
	<path fill="#000" d="m73.12 28.56-.048-.075a6.172 6.172 0 0 0-3.686-2.782 6.18 6.18 0 0 0-4.67.608h.014c-1.47.834-2.455 2.202-2.872 3.74a6.157 6.157 0 0 0 .616 4.657l.027.04a6.035 6.035 0 0 0 3.706 2.804 6.03 6.03 0 0 0 4.656-.602l.076-.034a6.152 6.152 0 0 0 2.782-3.685c.404-1.539.24-3.207-.601-4.67Zm-34.407 4.698a16.894 16.894 0 0 1 9.23 4.766h.021c.39.396.773.814 1.122 1.244l6.126-3.548a12.975 12.975 0 0 1-.198-7.528 13.205 13.205 0 0 1 6.167-8.028l.103-.061a13.145 13.145 0 0 1 9.935-1.272 13.225 13.225 0 0 1 8.04 6.174v.007a13.21 13.21 0 0 1 1.32 10.03 13.139 13.139 0 0 1-6.167 8.035l-.834.5h-.082a13.305 13.305 0 0 1-9.122.833 13.303 13.303 0 0 1-6.413-3.931l-6.12 3.528a16.836 16.836 0 0 1 1.094 5.983c0 2.106-.39 4.143-1.094 6.017l6.12 3.521a13.101 13.101 0 0 1 6.413-3.931 13.068 13.068 0 0 1 10.045 1.326l.205.096v.014a13.169 13.169 0 0 1 5.962 7.938c.869 3.234.5 6.858-1.32 10.017l-.109.226-.013-.02a13.344 13.344 0 0 1-7.905 5.982 13.35 13.35 0 0 1-10.051-1.32v-.027a13.225 13.225 0 0 1-6.168-8.027 13.012 13.012 0 0 1 .199-7.522l-6.127-3.535c-.348.431-.731.835-1.121 1.231l-.02.02a16.712 16.712 0 0 1-9.231 4.732v7.077a13.16 13.16 0 0 1 6.605 3.59l.007.02a13.153 13.153 0 0 1 3.877 9.347c0 3.638-1.484 6.934-3.877 9.327l-.007.034c-2.407 2.393-5.716 3.877-9.36 3.877-3.632 0-6.941-1.484-9.348-3.877h-.007v-.034a13.153 13.153 0 0 1-3.877-9.327c0-3.644 1.484-6.967 3.877-9.347v-.02h.007a13.197 13.197 0 0 1 6.598-3.59v-7.077a16.74 16.74 0 0 1-9.217-4.731l-.027-.02C20.915 58.905 19 54.68 19 49.996c0-4.67 1.915-8.896 4.97-11.966h.028a16.831 16.831 0 0 1 9.217-4.766v-7.056a13.36 13.36 0 0 1-6.598-3.597h-.007v-.02c-2.393-2.407-3.877-5.696-3.877-9.348 0-3.63 1.484-6.947 3.877-9.347l.007-.013a13.203 13.203 0 0 1 18.708 0v.013h.007a13.213 13.213 0 0 1 3.877 9.347c0 3.645-1.484 6.94-3.877 9.348l-.007.02a13.435 13.435 0 0 1-6.605 3.597v7.05h-.007Zm3.542 10.455a8.897 8.897 0 0 0-6.29-2.612 8.88 8.88 0 0 0-6.285 2.612 8.84 8.84 0 0 0-2.591 6.277 8.94 8.94 0 0 0 2.591 6.304 8.873 8.873 0 0 0 6.284 2.598 8.89 8.89 0 0 0 6.29-2.598 8.911 8.911 0 0 0 2.592-6.304 8.823 8.823 0 0 0-2.591-6.277Zm27.131 30.591a6.026 6.026 0 0 0 3.734-2.844l.116-.219a6.066 6.066 0 0 0 .485-4.444 6.072 6.072 0 0 0-2.858-3.734l-.089-.061a6.192 6.192 0 0 0-4.567-.554c-1.525.383-2.892 1.402-3.733 2.858a6.093 6.093 0 0 0-.616 4.663 6.221 6.221 0 0 0 2.858 3.734h.014c1.456.847 3.118.998 4.656.601ZM35.964 92.89c1.71 0 3.241-.697 4.349-1.785l.014-.034c1.107-1.087 1.784-2.626 1.784-4.321a6.11 6.11 0 0 0-1.784-4.349h-.014a6.065 6.065 0 0 0-4.349-1.798c-1.71 0-3.227.677-4.321 1.798h-.028a6.138 6.138 0 0 0-1.784 4.349c0 1.689.684 3.227 1.784 4.321l.028.034a6.094 6.094 0 0 0 4.321 1.785Zm4.349-83.98a6.115 6.115 0 0 0-4.349-1.791c-1.71 0-3.227.684-4.321 1.791h-.028a6.122 6.122 0 0 0-1.784 4.342c0 1.71.684 3.234 1.784 4.329l.028.02a6.044 6.044 0 0 0 4.321 1.778c1.71 0 3.241-.677 4.349-1.778l.014-.02a6.044 6.044 0 0 0 1.784-4.329 6.094 6.094 0 0 0-1.784-4.342h-.014Z"/>
</svg>