<svg xmlns="http://www.w3.org/2000/svg" viewBox="0 0 100 100">
	<path fill="#D00000" d="M99.999 99.995a.004.004 0 0 1-.004.004H.004A.004.004 0 0 1 0 99.995V.004C0 .002.002 0 .004 0h99.992c.002 0 .004.002.004.004v99.991h-.001Z"/>
	<path fill="#fff" d="M27.299 77.17c0 .076.044.182.096.234l1.712 1.712a.381.381 0 0 0 .234.097h5.857a.382.382 0 0 0 .234-.097l1.711-1.712a.381.381 0 0 0 .097-.233V58.586c0-.076.045-.18.1-.232l7.441-7.107a.112.112 0 0 1 .176.019L63.76 79.1a.291.291 0 0 0 .213.114h8.298a.247.247 0 0 0 .2-.122l1.506-2.917a.252.252 0 0 0-.015-.235L51.969 44.064a.17.17 0 0 1 .019-.21l20.228-20.133a.379.379 0 0 0 .097-.234v-.371a.804.804 0 0 0-.055-.264L71.09 20.17a.228.228 0 0 0-.191-.125h-8.202a.382.382 0 0 0-.234.097L37.339 45.36c-.054.053-.097.035-.097-.04V22.184a.403.403 0 0 0-.094-.238l-1.679-1.8a.36.36 0 0 0-.23-.101H29.34a.36.36 0 0 0-.231.1l-1.72 1.857a.401.401 0 0 0-.092.237v54.932Z"/>
</svg>