<svg xmlns="http://www.w3.org/2000/svg" viewBox="0 0 100 100">
	<path fill="#121457" d="M81.9 0H18.1C8.1 0 0 8.1 0 18.1V82c0 10 8.1 18.1 18.1 18.1H82c10 0 18.1-8.1 18.1-18.1V18.1C100 8.1 91.9 0 81.9 0z"/>
	<path fill="#fff" d="m39 78.5.1-.1.1-.1.1-.2 32.6-44.7c2.3-3.1 1.6-7.5-1.5-9.7-1.5-1.1-3.4-1.5-5.2-1.3-1.8.3-3.5 1.3-4.6 2.8l-20 27.5V29.3c-.1-3.8-3.2-6.9-7.1-6.9-3.8.1-6.8 3.1-6.9 6.9V74.5c.1 1 .3 1.9.8 2.8l.1.2.1.1.1.1c0 .1.1.1.1.2.2.4.5.7.8 1l.1.1.2.1.1.1.2.2c.1.1.2.1.3.2.1.1.2.1.3.2l.3.2c.1 0 .2.1.3.1h.1c.1 0 .2.1.2.1h.1c.1 0 .2.1.2.1h.1l.2.1h.1l.2.1h.1l.2.1h2.2c.9-.1 1.7-.3 2.5-.6l.2-.1.1-.1.1-.1c.1 0 .1-.1.2-.1.6-.3 1.1-.8 1.5-1.2l.3.1z"/>
	<path fill="#ef4136" d="M65.4 65.4c-4.4 0-7.9 3.5-7.9 7.9s3.5 7.9 7.9 7.9 7.9-3.5 7.9-7.9c0-4.3-3.6-7.9-7.9-7.9z"/>
</svg>