<svg xmlns="http://www.w3.org/2000/svg" viewBox="0 0 100 100">
	<path fill="#760015" d="M0 0h100v100H0V0z"/>
	<path fill="#fff" d="M100 80.4v12.8H72.5c-6.7 0-9.5-3.8-11.6-9.5-4.4-12-8.8-24-13.3-35.9-.2-.5-.4-.5-.6 0-3.5 8.7-7 17.3-10.6 26-1.3 3.2-3.4 5.4-6.2 6.6-5 .8-7.7-1-8.1-5.3-.1-.9.2-2.3.9-4.1l3.9-9.6c3.6-8.9 7.1-17.8 10.6-26.7l.2-.5c2-5 4.1-10.4-1.6-13C24.3 15.8 11.4 37.7 25 42.5c7.2 2.6 5.4 9.9-1.2 11.8-5.9.8-10.8-1.6-14.7-7.2C-1.3 27.6 16.8 4.7 37.8 7.8c7.8 1.1 13.1 5.3 15.7 12.4 1.1 6.7-.3 13.3-3.2 19.2 0 .1 0 .2.1.2h.1s.1 0 .1-.1l12.3-12.9c4.4-4.6 9-9.5 13.9-14.6 2.8-2.9 7.8-5.9 11.4-2.7 2.1 1.8 2.5 4.3 1.3 7.5-1.1 1.8-2 3-2.7 3.7-8.3 8.9-16.6 17.6-24.8 26.2-.2.2-.3.6-.2.9L72 75.5c1.4 4 3.2 4.8 7.5 4.8 6.8.1 13.7.1 20.5.1z"/>
</svg>