<svg xmlns="http://www.w3.org/2000/svg" viewBox="0 0 100 100">
	<path fill="#000" d="M5.01 23v35.644l15.747-17.75h.715L9.806 54.064 25.194 76.68h-5.01L6.943 57.213 5.01 59.43v17.25H0V23h5.01Zm24.875 36.08c0-11.612 7.492-18.078 17.247-18.078 8.977 0 16.681 4.589 16.681 17.244 0 11.612-7.492 18.078-17.247 18.078-8.977 0-16.681-4.589-16.681-17.244Zm4.647.002c0 12.233 5.371 16.777 12.03 16.777 7.018 0 12.603-6.43 12.603-17.616 0-12.233-5.37-16.777-12.03-16.777-7.017 0-12.602 6.431-12.602 17.616ZM97.85 76.117c-8.463 0-8.047-4.937-8.047-4.937v-.974c-1.387 2.504-4.023 6.189-10.89 6.189-8.116 0-9.503-5.146-9.92-7.927-.693-4.659.972-8.135 13.319-8.97 3.121-.278 6.659-.139 7.491-.07V47.887s.763-6.258-7.283-6.258c-4.3 0-9.642 1.808-11.376 2.782l-.277-.487c.901-.417 5.133-2.85 12.555-2.85 10.058 0 11.237 4.45 11.237 6.813V71.18c0 4.52 3.19 4.38 3.19 4.38H100v.557h-2.15Zm-17.723-.187c5.2 0 9.443-4.734 9.648-7.56v-8.55c-.821-.07-4.037-.352-7.459.071-7.253.848-8.69 3.392-8.28 8.55.274 3.462 1.3 7.489 6.09 7.489Z"/>
</svg>