<svg xmlns="http://www.w3.org/2000/svg" viewBox="0 0 100 100">
	<path fill="#05AAD2" d="M49.422 42.002 88.688 81.68c16.122-19.641 15.012-48.691-3.332-67.035a49.998 49.998 0 0 0-70.71 0c-19.528 19.528-19.528 51.185 0 70.711a50.005 50.005 0 0 0 66.406 3.836L41.855 49.57 24.891 66.534V24.976h12.556v14.686l14.69-14.685h14.311L49.422 42.002Zm44.337 5.965a43.733 43.733 0 0 1-5.892 24.08l-29.7-30.028 22.897-22.902a43.685 43.685 0 0 1 12.695 28.85ZM9.401 66.495a43.749 43.749 0 0 1 9.295-47.129V80.64a43.507 43.507 0 0 1-9.295-14.145Zm32.43-8.14 29.563 29.887a43.76 43.76 0 0 1-52.28-7.174l22.717-22.712Zm8.409-39.573-6.6 6.595v-6.595H19.28a43.747 43.747 0 0 1 61.441 0H50.24Z"/>
</svg>