<svg xmlns="http://www.w3.org/2000/svg" viewBox="0 0 100 100">
	<path fill="#326ce5" d="M47.1 1.7C9.8 19.5 11.4 18.4 10 20.1 8.7 21.8 9.4 20 .2 60c-.4 1.9 0 4 1.3 5.6 25.9 32.2 24.4 30.8 26.4 31.7 2 .9.1.7 41.5.6 2 0 3.9-.9 5.2-2.5 25.7-32 24.7-30.3 25.2-32.4.5-2.1.6-.2-8.6-40.2-.5-2-1.8-3.6-3.6-4.5L52.9 1.7c-1.9-.9-4-.9-5.8 0z"/>
	<path fill="#fff" d="M50 13.7c-1.2 0-2.1 1.2-2.1 2.4 0 2.5 1.4 5.9-.2 7.4v.9c-6.4.5-12.7 3.4-17.4 8.3-.3-.2-.5-.4-.8-.5-.4 0-.7.2-1.2-.1-1.8-1.2-3.4-3.4-4.2-4-3-2.6-5.4 1-3.1 2.9 1.9 1.4 3.7 2.1 5.3 3.6.3.3.4.9.4 1.2l.7.6c-3.6 5.4-5.2 12-4.2 18.8l-.9.3c-.8 1-.6 1.1-4.6 1.5-1.2.1-1.2 0-2.6.3-3.1.9-1.9 4.7 1 4 1.3-.3 1.4-.4 2.4-.8 3.8-1.3 3.8-1.2 4.8-.6l.9-.2c2.1 6.5 6.5 11.7 12 15l-.4.9c.1.4.3.8.2 1.2-.8 2.2-2.5 4.1-3 5-1.9 3.6 2.2 5 3.5 2.3.6-1.3.5-1.3.9-2.4 1.2-2.9 1-3.8 2.5-4.2l.5-.9c6.2 2.4 13 2.4 19.2.1.1.2.4.7.4.8.4.1.7.2 1.1.6 1.1 1.9 1.6 4.5 2 5.4 1.6 3.6 5.6 1.6 3.7-1.8-.4-.8-2.2-3-3-5-.2-.5 0-.9.2-1.2-.1-.1-.2-.6-.3-.8 5.8-3.4 10-8.8 12-15.1.3 0 .7.1.9.2.9-.6.9-.8 4.8.6 1.1.4 1 .5 2.4.8 2.9.8 4-3.3 1-4-1.6-.4-1.3-.2-2.6-.3-3.9-.4-3.9-.5-4.6-1.5l-.8-.4c.9-6.6-.7-13.3-4.3-18.7l.7-.7c0-.4 0-.8.4-1.2 1.6-1.5 4.1-2.7 4.8-3.2 3.1-2.3.4-5.8-2.6-3.3-.7.6-2.5 2.9-4.2 4-.4.2-1 .2-1.3.1l-.8.6c-4.5-4.7-10.7-7.8-17.3-8.3v-.9c-.8-.8-.9-.8-.4-4.8.2-1.3.3-1 .3-2.6 0-1.3-1-2.3-2.1-2.3zm-2.6 16.1-.6 10.9c-.1 1.5-1.7 2.3-2.9 1.4l-9-6.3c3.3-3.2 7.6-5.4 12.5-6zm5.2 0c4.7.6 9.1 2.7 12.5 6l-8.9 6.3c-1.2.9-2.9 0-2.9-1.4-.1 0-.7-10.9-.7-10.9zm-21 10.1 8.2 7.3c1.1 1 .7 2.8-.7 3.2l-10.5 3c-.6-4.6.5-9.4 3-13.5zm36.7 0c2.4 3.9 3.6 8.7 3.1 13.5l-10.5-3c-1.4-.4-1.8-2.2-.7-3.2l8.1-7.3zm-20 7.9h3.3l2.1 2.6-.7 3.3-3 1.4-3-1.5-.7-3.2 2-2.6zm10.8 8.9h.4l10.8 1.8c-1.6 4.5-4.7 8.3-8.7 10.9l-4.2-10.2c-.4-1.1.4-2.4 1.7-2.5zm-16.6 2.6-4.1 10.1c-4-2.6-7-6.4-8.6-10.8l10.7-1.8c1.4-.3 2.6 1.2 2 2.5zm7.4 1.9c.7 0 1.3.3 1.7 1l5.3 9.6c-4.5 1.5-9.3 1.5-13.9 0l5.3-9.5c.4-.8 1-1.1 1.6-1.1z"/>
</svg>