<svg xmlns="http://www.w3.org/2000/svg" viewBox="0 0 100 100">
	<path fill="#FF2D20" d="M98.084 22.623c.036.133.055.27.055.409v21.464c0 .561-.3 1.079-.786 1.358L79.337 56.226v20.56a1.57 1.57 0 0 1-.783 1.357L40.948 99.792c-.086.049-.18.08-.274.113-.035.012-.068.033-.105.043-.263.069-.54.069-.803 0-.043-.012-.082-.035-.123-.05-.086-.032-.176-.06-.258-.106L1.786 78.143A1.566 1.566 0 0 1 1 76.785V12.391c0-.14.02-.278.055-.41.012-.046.039-.087.055-.132.029-.082.056-.166.1-.242.029-.051.072-.092.107-.14.045-.062.086-.127.139-.181.045-.045.104-.079.154-.118.057-.047.108-.097.173-.135h.001L20.584.21a1.57 1.57 0 0 1 1.566 0l18.8 10.824h.004c.063.04.115.088.172.133.05.04.108.075.153.118.054.056.094.121.14.184.034.047.079.088.106.139.045.078.07.16.102.242.015.045.043.086.055.133.036.134.054.271.054.41V52.61l15.667-9.02V23.028c0-.136.02-.275.054-.406.014-.047.04-.088.055-.133.032-.083.059-.167.102-.243.03-.05.072-.092.106-.139.047-.063.086-.127.14-.182.045-.045.102-.078.153-.117.059-.047.11-.098.172-.135h.002L76.99 10.85a1.563 1.563 0 0 1 1.565 0l18.8 10.824c.067.039.118.088.177.133.049.039.105.074.15.117.055.057.094.122.141.184.035.047.078.088.106.139.045.076.07.16.102.243.017.045.043.086.054.133ZM95.005 43.59V25.741l-6.58 3.787-9.088 5.234V52.61l15.67-9.02h-.002Zm-18.8 32.29V58.017l-8.94 5.106-25.53 14.571v18.03l34.47-19.846ZM4.134 15.1v60.78L38.6 95.721V77.697l-18.006-10.19-.005-.005-.008-.003c-.06-.036-.112-.087-.168-.13-.05-.039-.106-.07-.15-.113l-.003-.006c-.05-.049-.086-.11-.13-.164-.038-.053-.085-.098-.116-.153l-.002-.006c-.036-.058-.057-.129-.083-.195-.025-.059-.058-.114-.074-.176v-.002c-.02-.075-.024-.153-.031-.23-.008-.058-.024-.117-.024-.175V24.12l-9.087-5.235-6.579-3.784V15.1ZM21.369 3.375 5.705 12.391l15.66 9.017 15.663-9.019-15.663-9.015h.004Zm8.146 56.272 9.087-5.231V15.1l-6.579 3.787-9.089 5.233v39.314l6.581-3.789Zm48.257-45.631-15.663 9.017 15.663 9.016 15.66-9.019-15.66-9.014Zm-1.567 20.747-9.09-5.234-6.578-3.787v17.85l9.087 5.23 6.58 3.79v-17.85Zm-36.04 40.224L63.14 61.87l11.483-6.553-15.65-9.011-18.02 10.374-16.423 9.455 15.637 8.85Z"/>
</svg>