<svg xmlns="http://www.w3.org/2000/svg" viewBox="0 0 100 100">
	<path fill="teal" d="M9.1 12c1 1.8 2 3.2 3 4.5-1.6-.2-3.2-.1-4.8.4 2.1 1.7 3.8 3 5.3 4-2.4-.8-4.9-.9-7.9.6 2.2 1.4 4 2.4 5.6 3.1-2.5-.5-5.1-.3-8 1.6 1.9.8 3.5 1.5 4.9 1.9-2.4.1-4.7.8-7 3 2 .5 3.7.8 5.2 1-1.8.4-3.6 1.2-5.4 3 1.2.3 2.4.5 3.7.7-1.4.7-2.7 1.7-3.8 3.3 1.6.1 2.9.2 4.2.2-1.4.7-2.8 1.8-4.1 3.5 2.2.1 4.1.1 5.7 0-1.8.7-3.4 1.9-4.8 4 2.8 0 4.9-.1 6.8-.3-2.3.6-4.4 1.9-6.1 4.5 2.2 0 4.1 0 5.7-.2-2 1.1-3.6 2.7-4.7 5.4 2-.4 3.7-.8 5.2-1.2-1.5 1.1-2.8 2.6-3.6 5 1.3-.3 2.5-.6 3.6-.9-1 1.2-1.7 2.6-2.1 4.6 1.3-.5 2.6-1 3.9-1.6-1.1 1.3-1.9 2.8-2.3 5 2.1-.8 3.7-1.6 5.2-2.4-1.3 1.4-2.3 3.2-2.6 5.7 2.5-1.1 4.4-2.1 6-3.1-1.8 1.5-3.2 3.5-3.7 6.6 3.3-1.4 5.6-2.8 7.4-4-.8 1.5-1.2 3.4-1 5.6 3.2-2.4 5.2-4.4 6.7-6.1-.1 1.1 0 2.3.3 3.7 2.3-3.9 4.5-5.1 6.9-6.4-3.7 1.9-3.2 3.3-3.2 4.9 2.8-3 6.8-6.2 8-8.2-1.6 2.4-2.3 4.7-2.7 6.8-8.3 4.4-13.4 5.5-19 7.3 5.5 2 4.2 2.1 1 5.3 1.7-.5 3.4-1.3 4.8-.2-.1 1.4-1.9 2.1-3.3 2.8 2.6-.9 3.1-.7 3.8-.5.3 1.6-.8 2.5-1.6 3.6C37.7 75.3 58.8 76.6 63.6 65l3-11.9c3.5-3.7 6.7-7.6 8.2-12.4 9.6-1.9 17.4-1.2 25.6-1-.7-.1-24.8-4.2-24.8-4.2-7-9.6-17.5-3.1-21 6.4-.9 2.4-5.9 2.4-7.3 0C41.2 29.8 23.8 16.8 9.1 12z"/>
	<path fill="#fff" d="M12.1 16.5c1.2.3 2.9 1.2 4.8 2.3 3.9 2.2 10 6 13.1 8.9.6.6.8.8 1.1.7 2-.3-16.1-12-19-11.9zm5.9 7.2c-2-.9-3.9-1.9-5.4-2.8 5.6 1.8 11.6 5.2 16.2 8.8 3.7 2.9 2.7 3 2.2 2.6-4.1-4.1-7.6-6-13-8.6zm47.8 13.8c-.6-2.6 3.3-3.6 3.9-1 .1.3.1.7 0 1 .7.1 1.4 0 2.1-.3 1.2-.5 1.5.2 3.2-2l.3.3c-1.5 1.9-2.1 1.7-2.9 1.9.4 1.7 1.3 2.3 2.4 3.2h-.3l-.1.4c-1.1-.9-2.1-1.5-2.6-3.3-.8.3-1.5.3-2.3.3-.8 1.4-2.8 1.4-3.6-.1-.8.9-2 1-3.2 1 .1.1.2.3.2.4 0 .2.1.6-1.5 1.8 1.4 2.3.4 2.9-1.5 3.9 0 1-.7 1.5-1.6 1.9.3 1.8 1.1 2 2.6 1.6.4 2.3 1 3.1 3.1 2.4.4 1.3 1.1 1.6 2.4 2l-.3.3c-1.1-.3-1.9-.4-2.4-1.8-2 .5-2.8-.4-3.2-2.4-1.8.4-2.5-.5-2.8-2.3 1.9-.8 1.8-1.5 1.7-2 2-1 2.9-1.5 1.4-3.8.2-.1.1-.1.4-.3 1.7-1.3 1.4-1.5.6-2.2.9 0 1.9.1 2.8-.2.5-.1.9-.4 1.2-.7zM10.4 24.6c9.7 1.4 20.5 10.3 21 11.3.1.3-.1.5-.6 0-1.2-1.5-5.3-4.3-7.2-5.5-3.7-2.3-9.3-4.2-13.2-5.8zm-3.1 3.6c3.8 0 15.2 4.6 22.4 11.5.2.2.6 0 .3-.3-3.4-4-15.4-11.2-22.7-11.2zm12.4 8.5c-4-2-9.5-3.9-14.1-4.5 6.7.1 15 4 20.1 7.6 4.1 2.9 3.3 3.6 2.7 3-2.3-2.6-5.7-4.5-8.7-6.1zm-15.8-.8c6-.6 17.4 3.8 23.6 10.1.3.3.5-.1.3-.3-3.3-4.3-15.5-10.9-23.9-9.8zm13.4 6.4c-3.8-1.7-9.1-2.7-13.2-3 8.9-.6 18.4 4.4 21.6 8.1.3.4-.1.5-.3.3-1.4-1.4-4.3-3.7-8.1-5.4zm-11.6.5c5.8.3 12.2 1.8 16.6 5.6.3.2.5-.1.3-.3-2-2.3-8.6-5.3-14.8-5.6-.6.1-1.3.3-2.1.3zm14 7.6C17 48 13.5 47 7.7 46.6c4.1-.3 9.6.5 12.4 3.5.1.2-.2.5-.4.3zm-12.4.5c4.7-.8 6.7-.4 10.2 1.3.4.2.4-.3.2-.4-2.7-1.7-6.2-2.4-10.4-.9zm.4 4.1c2.7-2.2 6.5-2.1 9.7-.8.2.1.3.5-.1.4-3.6-1-4.9-1.4-9.6.4zm13.5 1.2c-3.7-.4-10.5.4-13.5 2.8 4-1.7 7.4-2.7 13.5-2.4.3.1.3-.3 0-.4zm-6.4 3.3c2.4-.7 5.2-1.4 7.9-1.3.4 0 .3.4 0 .4-4.6-.1-9.2 1.4-13.3 3.4 1.2-.9 3-1.8 5.4-2.5zm10.1.4c-3.5.5-10.1 2.2-12.6 4.8 3.3-1.9 6.1-3.1 12.7-4.3.3-.1 0-.5-.1-.5zm-9.2 7.3c2.1-2.2 5.4-4.4 10.5-5.2.3 0 .4.4.1.4-5.1 1.1-7.4 2.4-10.6 4.8zm13-3.3c-5.1.8-8.1 3.9-9.3 6 3.2-3.2 5.8-5 9.4-5.5.3-.1.2-.6-.1-.5zm-1.4 2.9c3.3-2.1 3.5-1 3-.9-2.2.6-3.7 1.7-5.3 3.4.5-1 1.3-1.8 2.3-2.5z"/>
	<path fill="#37c871" d="M67.7 38.6c2.1 0 2.1-3.2 0-3.2-.9 0-2.1 3.2 0 3.2z"/>
</svg>