<svg xmlns="http://www.w3.org/2000/svg" viewBox="0 0 100 100">
	<linearGradient id="a" x1="-11.2901" x2="3490.7397" y1="41.4062" y2="-276.8237" gradientTransform="matrix(1 0 0 -1 0 101.433)" gradientUnits="userSpaceOnUse">
		<stop offset="0" stop-color="#8ac443"/>
		<stop offset="1" stop-color="#75b843"/>
	</linearGradient>
	<path fill="url(#a)" d="M10.5 41c.9 1 17.3 6.5 23 13.1 5.7 6.7 8.2 12.6 7.4 18.3-.9 5.7-4.4 5.6-5.9 7.7-1.5 2.1-3.7 4.7-7.7 4.4-5.3-.3-10.8-3-14.7-12.2C8.7 63.2 9 54.5 9.3 49.7c.3-4.8 1.2-8.7 1.2-8.7z"/>
	<linearGradient id="b" x1="-137.2896" x2="2884.1514" y1="51.3413" y2="-164.8187" gradientTransform="matrix(1 0 0 -1 0 101.433)" gradientUnits="userSpaceOnUse">
		<stop offset="0" stop-color="#75b843"/>
		<stop offset="1" stop-color="#4b9744"/>
	</linearGradient>
	<path fill="url(#b)" d="m10.9 42.5 24.6 36.8-1.1 1.3-23.5-38.1z"/>
	<path fill="#3d3d3c" d="M0 92.1s13 .4 14.9-4.4c.1.7-.7 1.9.4 1.7 8.1-3.7 22-11.5 24.4-13.6 2.7-2.3 6.3-2.2 9.7-3 6.3-1.5 13-2.9 18.5-6.1 3.4 2.3 10.5 3.5 14.2 2.7 3.9-.9 10.1-7.4 13.3-9.7 1.3-.9 3.2-2.7 4.5-1.7-.9.7.1 2.5-1 2.2-.6-1.1-1.8.2-2.7-.1-3.3 2.7-6.7 5.3-10.1 7.9-1.6.9 1.5 1.9-.3 2.3-8.5 1.7-21.8-2.7-27.2 3.3-8.7 3-16.8 3.7-25.4 8.3-4.9 2.7-10.9 7.5-16 10-.9.4-2.1.6-3.1 1.2-1.3.7-1.5 1.7-2.6 1.9C8.9 95.6 0 93.8 0 93.8v-1.7z"/>
	<linearGradient id="c" x1="4929.8354" x2="-827.1601" y1="742.6933" y2="-67.6066" gradientTransform="matrix(1 0 0 -1 0 101.433)" gradientUnits="userSpaceOnUse">
		<stop offset="0" stop-color="#c1db74"/>
		<stop offset="1" stop-color="#acd259"/>
	</linearGradient>
	<path fill="url(#c)" d="M73.8 4.8c-1.1 1.9-27.2 15.3-35 27.9-7.8 12.7-10 22.6-7.2 31.9 2.9 9.3 8.3 8.9 11.3 12 3.1 3.1 7.3 6.8 14 5.3 8.8-2 17.2-7.9 21.4-24.2 4.3-16.4 1.5-30.8-.3-38.7S73.8 4.8 73.8 4.8z"/>
	<linearGradient id="d" x1="3922.6052" x2="-1052.4707" y1="326.2634" y2="-17.8761" gradientTransform="matrix(1 0 0 -1 0 101.433)" gradientUnits="userSpaceOnUse">
		<stop offset="0" stop-color="#acd259"/>
		<stop offset="1" stop-color="#8ac443"/>
	</linearGradient>
	<path fill="url(#d)" d="M73.4 7.6 41.7 75.4l1.9 1.9L73.4 7.6z"/>
</svg>