<svg xmlns="http://www.w3.org/2000/svg" viewBox="0 0 100 100">
	<linearGradient id="a" x1="50.35" x2="50.35" y1="1006.521" y2="1050.618" gradientTransform="translate(0 -978.567)" gradientUnits="userSpaceOnUse">
		<stop offset=".15" stop-color="#2a4f84"/>
		<stop offset=".388" stop-color="#294e82"/>
		<stop offset="1" stop-color="#172e4e"/>
	</linearGradient>
	<path fill="url(#a)" d="M94.6 63.5c0 4.7-3.8 8.5-8.5 8.5H14.6c-4.7 0-8.5-3.8-8.5-8.5v-27c0-4.7 3.8-8.5 8.5-8.5h71.5c4.7 0 8.5 3.8 8.5 8.5v27z"/>
	<path fill="#404040" d="M99.8 48.2c-2.9-1-4.6-2.8-4.6-6.3 0-7.1.1-7.7-.3-8.8-1-3.3-4.1-5.3-6.3-5.3H85v3.9c5.8 0 2.5 9.5 4.1 14.3.8 1.7 2.2 3 4.3 4.1-4.2 1.9-4.6 3.6-4.8 7.6 0 5.1.8 9.3-3.4 10.5H85v4.1c11.7 0 10.1-7 10.1-15 0-2.8 1.5-4.8 4.6-5.8l.2-.1-.1-3.2c.1 0 0 0 0 0zm-87-20.5c-1.5 0-2.6-.1-4.7 1.6-2.6 1.9-2.6 3.7-2.6 5.9 0 8.1.9 10.8-5.2 12.8l-.3.3v3.2l.2.1c6.3 1.9 5.3 4.4 5.3 13.1-.3 5.8 4.3 7.6 10.1 7.6v-4.1c-1.5-.7-3.6-.8-3.6-4.7 0-8.5.6-11-4.9-13.5 4.2-2.2 5-4.8 5-8.4 0-7.6-.4-8.8 3-9.9h1.8v-4.1l-4.1.1c0-.1 0 0 0 0z"/>
	<path fill="#f6f6f6" d="M96.5 46.9c-4.2-3.9.9-12.8-4.4-17.2-2.3-1.8-3.3-1.5-6.5-1.5v2.9c4.5 1.1 3.6 5.4 3.6 10.4 0 3.9.3 5.7 5.7 8.4-5.1 1.7-5.6 3.6-5.8 7.8 0 5.4.9 9.4-3.6 11v3.2c17.1 0 2.5-16.9 13.9-20.7v-2.4c-1.4-.7-2.3-1.2-2.9-1.9zm-20.7-1c1.2-1.2 5.6.5 7.2 1.2 1.2-1 1.8-3 1.8-4.6-1-.5-2.2-1.3-3.7-1.7-4.1-.8-6.7-.9-10.1 1.8-3 2.4-3.9 8.7 3.1 11.3 2.6 1 4.2 1.3 4.2 2.8 0 1.2-1.2 1.5-2.4 1.5-1.7 0-3.6-.6-5.9-1.8-1.1 1.1-1.6 2.9-1.8 4.4 5.5 3.2 11.6 2.6 14.6.2s4.2-9-3.1-11.6c-2.5-.8-5.4-1.3-3.9-3.5zm-17.4 2.6c-3-1.1-2.3-5.2 6-1.4 1.2-1 1.8-3 1.8-4.6-1-.5-2.2-1.3-3.7-1.7-4.1-.8-6.7-.9-10.1 1.8-3 2.4-3.9 8.7 3.1 11.3 2.6 1 4.2 1.3 4.2 2.8 0 1.2-1.2 1.5-2.4 1.5-1.7 0-3.6-.6-5.9-1.8-1.1 1.1-1.6 2.9-1.8 4.4 6.6 3.9 16.9 2.7 16.9-4.8.2-4.8-4.1-6.1-8.1-7.5zm-16.2-6.9c-2.9-1-3.5-2-7.8.2-5.2 2.6-5.9 8.9-4.7 14.5 1.6 7.5 11 8.6 17.2 4.3-.2-1.6-.8-2.9-1.7-3.8-4.6 1.7-8.8 2.2-9.2-2.5h11c1.6-4.9.1-10.9-4.8-12.7zM35.9 50c.2-2.5.4-4.5 2.8-4.5s2.8 2.1 2.8 4.5h-5.6zm-11.7 5.5c0-25.1.4-25.9-1-27-.6-.7-1.8-.6-5.7-.6v28.8c0 6 3.9 6.5 9.9 5.4.2-.5.2-2.7-.4-4.6-1.6 0-2.8.2-2.8-2zM13.3 28.2c-2.1 0-2.7-.2-5 1.5-2.5 2-2.4 3.7-2.4 5.5 0 6.5.5 9.4-2 11.7-.7.7-2 1.1-3.4 1.7V51C7.3 53.1 6 57 6 64.6c0 5.3 3.8 7.2 9.1 7.2v-3.2c-4.6-1.3-3.6-5.9-3.6-11 0-4.5-1.4-5.9-5.1-7.5l-.7-.1c4.1-2.1 5.8-3.5 5.8-8.4 0-6.3-.9-10.3 4.7-10.3v-3l-2.9-.1z"/>
</svg>