<svg xmlns="http://www.w3.org/2000/svg" viewBox="0 0 100 100">
	<path d="M85.4 14.7C76 5.3 63.2 0 49.9 0c-9.6 0-19 2.8-27 8-3 1.9-5.7 4.1-8.2 6.6-19.6 19.5-19.6 51.2-.1 70.7s51.2 19.6 70.7.1c19.6-19.5 19.6-51.2.1-70.7zM42.9 35.3c-1.2 2.3-2.4 4.6-3.5 6.8-2.2 4.5-4.1 8.7-5.1 12.9-1 4.2-1.2 8.4-.1 12.6 1.1 4 3.2 8 6.9 12.3h-6.9c-9.8-15.9-17-30.4-23.1-51.4h7.3c2.1 8.7 5.3 16.4 8.5 24.1l.5 1.2.5-1.2c3.3-8.6 6.9-16.8 11.4-24.1h7.2c-1.2 2.3-2.3 4.5-3.4 6.6l-.2.2zm41.5 49.2c-9.4 9.4-24.7 9.4-34.1 0-9.4-9.4-9.4-24.7 0-34.1 9.9-9.9 9.9-26 0-35.9C43.7 7.8 34 5.3 25.2 7.8 33 3.3 41.7 1.2 50.4 1.3c12.4.1 24.8 4.9 34.1 14.3 19 19 19 49.9-.1 68.9z"/>
	<path d="M66.1 19.5h-8.4c16.4 18 5.2 32-5 52.4h8.4c4.6-7.4 8.2-15.7 11.6-24.4 3.3 7.8 6.5 15.6 8.5 24.4h8.4c-6.2-21.4-13.5-36.2-23.5-52.4z"/>
</svg>