<svg xmlns="http://www.w3.org/2000/svg" viewBox="0 0 100 100">
	<path fill="#000" d="M0 5h9.322v61.864h36.864v7.626H0V5Zm75.253 16.78c-9.534-.128-19.067 5.931-22.033 15.126-4.238 10.593-2.288 23.898 6.016 31.991 8.051 6.695 20.17 7.204 29.237 2.458 6.229-3.305 10.17-9.873 11.017-16.78 1.102-7.203.551-15.084-2.966-21.61-4.152-6.948-12.288-11.44-20.339-11.143l-.932-.127v.084Zm.848 7.372c6.991 0 13.262 5.34 14.406 12.203 2.119 7.755.848 17.246-5.508 22.712-5.932 4.83-15.466 4.152-20.339-1.822-5.932-6.356-5.932-16.101-2.881-23.728 2.118-5.509 7.754-9.45 13.686-9.322h.763l-.127-.043Z"/>
	<path fill="#3492FF" d="M0 84.363h99.999v10.593H0V84.363Z"/>
</svg>