<svg xmlns="http://www.w3.org/2000/svg" viewBox="0 0 100 100">
	<linearGradient id="a" x1="9.3507" x2="75.1638" y1="32.7994" y2="61.28" gradientTransform="matrix(1 0 0 -1 0 101.433)" gradientUnits="userSpaceOnUse">
		<stop offset=".1512" stop-color="#00ada3"/>
		<stop offset=".4968" stop-color="#00b6ed"/>
		<stop offset="1" stop-color="#0055b8"/>
	</linearGradient>
	<path fill="url(#a)" d="m100 25.4-1.2 3.1c-2.3 6.2-6.1 15.6-11.2 25.3-9 17.2-16.8 20.9-21.7 20.9-5.3 0-8.8-5.7-10.9-11.5-1.5-4.1-2.1-8.4-3.4-12.5-2-6.5-4.6-10.5-7.2-10.5-5.7 0-9.1 10.2-10 14l-.3 1.7H0l.6-2.8c.1-.7 3.9-17.6 14.5-17.6 5.1 0 8.4 5 10.6 10.8h-5c-1.7-3.9-3.7-6.2-5.6-6.2-5 0-8.2 8.2-9.2 11.2h24.5c1.4-4.9 5.6-15.8 14-15.8 4.7 0 8 4.4 10.1 9.4.4 1.5.9 2.9 1.4 4.4 1.5 5.1 2.5 10.4 4.7 15.3.9 2.1 2.5 5.3 5.2 5.3 3 0 9.3-2.4 17.7-18.3 4.3-8.2 7.7-16.2 9.7-21.6H68.9c-1.9 5-4.7 11.9-8.4 19.3-.3-1.3-.6-2.4-.9-3.7-.3-1-.6-2.1-.9-3.1 2.8-6.1 4.9-11.6 6.5-15.7l.5-1.5H100v.1zM49.5 59.5C43.4 68.4 38.8 70 36.5 70s-4.8-3.5-6.7-9.1h-4.9c2 6.6 5.6 13.7 11.6 13.7 3.5 0 8.5-1.9 14.5-9.3-.5-1.9-1-3.8-1.5-5.8z"/>
</svg>