<svg xmlns="http://www.w3.org/2000/svg" viewBox="0 0 100 100">
	<g fill="#00007d">
		<path d="M50 11.8c-21.1 0-38.3 17.1-38.3 38.3S28.9 88.3 50 88.3 88.2 71.1 88.2 50c0-21.1-17.1-38.2-38.2-38.2z"/>
		<circle cx="88.2" cy="11.8" r="11.2" transform="rotate(-9.213 88.23589252 11.74496263)"/>
	</g>
	<path fill="#fff" d="M77 34.2C77 28 72 23 65.8 23c-6.2 0-11.2 5-11.2 11.2 0 6.2 5 11.2 11.2 11.2C72 45.4 77 40.3 77 34.2zM27.3 44.4h-3.4v24.7h15.7v-2.9H27.3zM53.8 60c0 1.8-.2 3.1-.6 4.2-.7 1.9-2.1 2.8-4.2 2.8-1.4 0-2.4-.5-2.9-1.6-.3-.6-.4-1.3-.4-2.3v-12h-3.1v12.2c0 1.5.2 2.8.7 3.7.9 1.7 2.6 2.6 5.1 2.6 1.6 0 3-.5 4.1-1.4.6-.5 1.1-1.1 1.4-1.7v2.7h2.9v-18h-3V60zM77.5 67H77c-.4 0-.7-.1-.8-.3-.1-.1-.2-.4-.2-.7V55.7c0-1.7-.7-3-2-3.8-1.3-.8-3-1.2-5.2-1.2-1.8 0-3.4.4-4.8 1.3s-2.1 2.4-2.2 4.6h2.8c.1-.9.4-1.6.7-2.1.7-.9 1.8-1.3 3.4-1.3 1.4 0 2.4.2 3.1.7.7.5 1.1 1.2 1.1 2.3 0 .5-.1.9-.2 1.2-.2.5-.7.8-1.4.9l-4.8.6c-1.7.2-3.1.8-4.1 1.7-1 .9-1.6 2.2-1.6 3.9 0 1.5.5 2.8 1.6 3.8s2.4 1.5 4.1 1.5c1.4 0 2.7-.3 3.8-.9 1.2-.6 2-1.3 2.7-2.1.1.7.3 1.3.5 1.7.5.7 1.2 1.1 2.3 1.1h1c.4-.1.7-.1 1.1-.3V67h-.4zM73 62.4c0 1.9-.8 3.2-2.5 4-1 .5-2 .7-3.1.7-.9 0-1.6-.3-2.3-.8-.6-.5-1-1.2-1-2.1 0-1.2.5-2 1.4-2.5.6-.3 1.4-.5 2.5-.7l1.8-.2c.6-.1 1.1-.2 1.7-.3.6-.2 1.1-.4 1.4-.6v2.5z"/>
	<path fill="#929292" d="M56 98.5c-1.4.2-2.8.3-4.2.3v1.1c1.5-.1 2.9-.2 4.3-.3l-.1-1.1zM51.8 100zM43.1 99.6c1.4.2 2.9.3 4.3.4l.1-1.1c-1.4-.1-2.8-.2-4.2-.4l-.2 1.1zM60.2 97.8l.2 1.1c1.4-.3 2.8-.7 4.2-1.1l-.3-1.1c-1.3.5-2.7.8-4.1 1.1zM34.6 97.6l4.2 1.2.3-1.1c-1.4-.3-2.8-.7-4.1-1.1l-.4 1zM68.3 95.3l.4 1.1c1.3-.5 2.7-1.2 4-1.8l-.5-1c-1.3.6-2.6 1.2-3.9 1.7zM26.5 94.2c1.3.7 2.6 1.3 3.9 1.9l.4-1.1c-1.3-.6-2.6-1.2-3.8-1.8l-.5 1zM75.9 91.4l.6 1c1.2-.8 2.4-1.6 3.6-2.5l-.7-.9c-1.1.9-2.3 1.7-3.5 2.4zM19.2 89.4c1.1.9 2.3 1.7 3.6 2.5l.6-1c-1.2-.8-2.4-1.6-3.5-2.5l-.7 1zM82.7 86.3l.8.9c1.1-1 2.1-2 3.1-3.1l-.8-.8c-1 1.1-2 2.1-3.1 3zM13.7 82.7l-.9.8c1 1.1 2 2.1 3.1 3.1l.8-.8c-1.1-1-2-2-3-3.1zM91 76.6c-.8 1.2-1.6 2.3-2.5 3.5l.9.7c.9-1.1 1.7-2.3 2.5-3.6l-.9-.6zM89.4 80.8zM7.6 76.5c.8 1.2 1.6 2.4 2.5 3.6l.9-.7c-.9-1.1-1.7-2.3-2.4-3.5l-1 .6zM93.2 72.9l1 .5c.7-1.3 1.3-2.6 1.9-3.9l-1.1-.4c-.5 1.3-1.2 2.6-1.8 3.8zM3.6 68.8c.5 1.3 1.2 2.7 1.8 4l1-.5-1.8-3.9-1 .4zM96.5 65.1l1.1.4 1.2-4.2-1.2-.3c-.3 1.4-.7 2.7-1.1 4.1zM1.1 60.4c.3 1.4.7 2.8 1.1 4.2l1.1-.3c-.4-1.4-.8-2.7-1.1-4.1l-1.1.2zM98.4 56.8l1.1.2c.2-1.4.3-2.9.4-4.3l-1.1-.1c-.1 1.4-.2 2.8-.4 4.2zM1.5 56c-.2-1.4-.3-2.8-.3-4.2H.1c.1 1.5.2 2.9.3 4.3l1.1-.1zM98.9 48.3h1.1c0-1.4-.2-2.9-.3-4.4l-1.2.1c.2 1.5.3 2.9.4 4.3zM1.2 47.5c.1-1.4.2-2.8.4-4.2l-1.1-.2C.2 44.5.1 46 0 47.4l1.2.1zM98.9 39.6c-.3-1.4-.7-2.8-1.1-4.2l-1.1.3c.4 1.4.8 2.7 1.1 4.1l1.1-.2zM1.2 38.8l1.1.3c.3-1.4.7-2.8 1.1-4.1l-1.1-.4c-.4 1.4-.7 2.8-1.1 4.2zM93.6 27.8l1.8 3.9 1.1-.4c-.5-1.3-1.1-2.7-1.8-4l-1.1.5zM5 30.9zM3.9 30.5l1.1.4c.6-1.3 1.2-2.6 1.8-3.8l-1-.5c-.7 1.2-1.3 2.6-1.9 3.9zM8 22.8l1 .6c.8-1.2 1.6-2.4 2.5-3.5l-.9-.7c-1 1.2-1.8 2.4-2.6 3.6zM13.4 15.9l.8.8 3-3-.8-.9c-1 1-2 2.1-3 3.1zM19.8 10.1l.7.9c1.1-.9 2.3-1.7 3.5-2.4l-.6-1c-1.2.8-2.4 1.6-3.6 2.5zM77.2 8l-.6 1zM69 5l3.9 1.8.5-1c-1.3-.7-2.6-1.3-3.9-1.9L69 5zM27.2 5.4l.5 1 3.9-1.8-.4-1.1c-1.4.7-2.7 1.3-4 1.9zM60.9 2.4c1.4.3 2.8.6 4.1 1.1l.4-1.1-4.2-1.2-.3 1.2zM35.3 2.2l.3 1.1c1.4-.4 2.7-.8 4.1-1.1l-.2-1.1c-1.4.3-2.8.6-4.2 1.1zM52.5 1.2c1.4.1 2.8.2 4.2.4l.2-1.1C55.4.2 54 .1 52.5 0v1.2zM43.8.3l.2 1.2c1.4-.2 2.8-.3 4.2-.3V.1c-1.5 0-2.9.1-4.4.2zM44 1.5z"/>
</svg>