<svg xmlns="http://www.w3.org/2000/svg" viewBox="0 0 100 100">
	<path fill="#333" d="M25.4 16.7 50.6 3.1l49.3 28.5v19.1L74.7 64.3V55L25.3 26.5l.1-9.8z"/>
	<path fill="#888" d="m.3 40.1 25.1-13.6L74.7 55v9.3L49.4 78.2.3 49.8v-9.7z"/>
	<path fill="#dd4814" d="M.3 49.8v18.6L49.5 97l50.3-27.4V50.7L49.3 78.2.3 49.8z"/>
	<path fill="#cdcdcd" d="M25.4 16.7.3 30.3v9.8l24.5 14.3 25.1-13.5V31L25.4 16.7z"/>
	<path fill="#fff" d="M99.9 31.3 50.7 2.8h-.3L25.2 16.5.1 30.1c-.1 0-.1.2-.1.3v37.9c0 .1.1.2.1.2l49 28.5c.1.1.4.2.6.1l50.2-27.3c.1 0 .1-.1.1-.2V31.5c0-.1-.1-.2-.1-.2zM50.6 3.4l48.7 28.1L74.7 45 25.9 16.7 50.6 3.4zm23.9 42.1v9l-24.2-14v-9.1l24.2 14.1zm-32.6-9.8 7.7-4.2v8.7l-7.7-4.5zm7.5 5.2L25.1 54v-9l16.2-8.9 8.1 4.8zM25.6 17.1 49.2 31l-7.9 4.3-15.7-9v-9.2zm-.3 9.7 15.3 8.9-15.9 8.7-15.2-9 15.8-8.6zm-.7 18.1v9L.8 40.1 9 35.7l15.6 9.2zm.6-27.8-.1 9.3L9 35.1.9 30.3l24.3-13.2zM.5 30.8l7.9 4.6-7.9 4.3v-8.9zm48.6 65.7L.5 68.2v-18l48.6 28.1v18.2zm0-18.7L.5 49.6v-9C16.8 50 33 59.4 49.1 68.9v8.9zm.5-9.4-24.2-14L50 41.1 74.2 55 49.6 68.4zm24.8-12.9v8.6L49.8 77.5V69l24.6-13.5zm25.1 13.9L49.8 96.6V78.2l49.6-27v18.2zm.1-18.9L75 63.8V45.5L99.6 32v18.5z"/>
</svg>