<svg xmlns="http://www.w3.org/2000/svg" viewBox="0 0 100 100">
	<path d="M73.8 47.3c.7-.1 1.4-.1 2.1 0 .9-2-.1-7.9-2.5-7.5-2.2.3-.9 5.5.4 7.5zm-10 2.3c.6-.6-1.5-2.4-2.7-2.9-4.3-1.8-8.2 1.4-8 2.4.2.8 2.2-.6 5-.8 1.3 0 5.1 1.9 5.7 1.3zm-6.3 1.7c-.7.5-1.2 1.8.6 1 3.2-1.2 4.8.1 5.3-.5.1-.1.1-.3 0-.4-.9-1.2-3.8-1.8-5.9-.1zM72 54.1c.8-1.5-2.4-3.1-3.2-1.6-.3.7 2.4 3.1 3.2 1.6zm2.1-2.8c0 2.3 2.6 2.4 2.6 0 0-1-2.5-2.3-2.6 0zM27.5 67.2c-.3-.3-.8 0-1.4 0-1.1 0-1.9-1-1.2-2.7.9-1.9 1.7-3.9.6-5.9-1.5-3-5.5-3.7-7.8-1.2-1.8 2-2 5.3-1.1 5.4.3 0 .7-.2.9-.8 0-.1.3-1 .7-1.8 1.8-2.8 6.3-.6 5 2.5-2.2 5.6 2.7 7.5 4.3 5 .1-.1.1-.3 0-.5z"/>
	<path d="M93.5 63.3c-.5-1.9-.9-3.3-1.5-4.6 2.1-2.9 2-7-.7-9.6-2.5-2.7-8.6-3.9-9.2-4.1 0-6.5-.1-14.1-4.8-18.5C92 11.3 85.1-4.3 58.1 7.1l-5.1-5C37.9-11-9.1 41.3 5.9 54l3.3 2.8c-4.1 11 4.8 20.9 14.1 20.9 5.9 13.5 19.2 21.8 34.9 22.2 37.3 1.2 44.8-36.6 35.3-36.6zM23.1 74C18 73.9 12.5 69.3 12 63.9c-1.4-13.7 16.6-16.8 18.7-2.7.9 5.8-1.1 13-7.6 12.8zM19 48.6c-3.3.6-6.2 2.5-8.2 5.2-1.1-.9-3.1-2.7-3.5-3.4-2.9-5.5 3.2-16.2 7.4-22.3 10.5-15 26.9-26.3 34.6-24.3 1.2.4 5.3 5.2 5.3 5.2-5.2 3-10.1 6.3-14.7 10.1-9.5 7.3-16.6 18-20.9 29.5zm53.3 23.1c.3-.1.2-.6-.1-.5 0 0-8 1.2-15.5-1.6 1.4-4.5 5.9 1.3 21.5-3.1 3.4-1 7.9-2.9 11.4-5.7.7 1.7 1.3 3.5 1.6 5.4 1.7-.2 3 .8 2.5 4-3.4 21.2-37.4 27.4-45.3 8.8-2.7-6-1.7-14.8 3.4-20.1 2.9-2.5-7.2-5.6-5.7-15.6.8-5.3 5.5-9.1 9.8-8.9 3.7.2 4.5.4 6.2.5 6.3.6 7.7-3.7 10.7-4.3.9-.2 2.1-.1 3 .5 3 2 2.5 7 3 13.8.2 2.9.9 2.8 4.4 3.8 18 5.1-2.3 18.8-23.6 16.4-4.5-.6-7.1 5.2-4.4 9.2 5.2 7.7 26.9 4.2 33.5-4.4.5-.6.3-.7.1-.6-7.7 5.3-20.1 9-28.6 5.8-1.1-.4-3.3-1.4-3.6-3.7 9.6 3.1 15.7.3 15.7.3zM50.8 17.9c.1-.1.3.1.2.2-.2.4-1.5 2.9-1 3 .3 0 5-3.5 11-3.9.2 0 .3.2.1.3-.3.3-2 1.7-1.7 2 .2.2 4.2-.2 9.2 2.4.2.1 0 .4-.1.4-19.1-4.3-30.4 7.3-30.3 5.9.1-.3 6.1-7 12.6-10.3z"/>
</svg>