<svg xmlns="http://www.w3.org/2000/svg" viewBox="0 0 100 100">
	<linearGradient id="a" x1="50.0013" x2="50.0013" y1="992.8546" y2="1062.4249" gradientTransform="translate(0 -978.567)" gradientUnits="userSpaceOnUse">
		<stop offset="0" stop-color="#7fcdc4"/>
		<stop offset=".2469" stop-color="#88cda9"/>
		<stop offset=".5415" stop-color="#90cc8c"/>
		<stop offset=".6486" stop-color="#9ecf7e"/>
		<stop offset=".8769" stop-color="#b7d65e"/>
		<stop offset="1" stop-color="#c0d850"/>
	</linearGradient>
	<path fill="url(#a)" d="M50 78.4c-13.1 0-18.3-16.8-8.2-24.1l8.3 6.7-2 1.6c-2.3 2-1 5.7 2 5.7 3.3 0 4.1-4.1 2.1-5.6-.1-.1-.2-.1-.2-.2L50 61c4.9-4 8.1-6.6 8.3-6.8 10 7.8 4.6 24.2-8.3 24.2z"/>
	<linearGradient id="b" x1="69.7" x2="69.7" y1="992.8549" y2="1062.4307" gradientTransform="translate(0 -978.567)" gradientUnits="userSpaceOnUse">
		<stop offset="0" stop-color="#7fcdc4"/>
		<stop offset=".2469" stop-color="#88cda9"/>
		<stop offset=".5415" stop-color="#90cc8c"/>
		<stop offset=".6486" stop-color="#9ecf7e"/>
		<stop offset=".8769" stop-color="#b7d65e"/>
		<stop offset="1" stop-color="#c0d850"/>
	</linearGradient>
	<path fill="url(#b)" d="M69.7 13.4c-7.6 0-13.8 6.2-13.8 13.8 0 5.1 2.3 7.5 4.9 11.5l8.1-6.5c-2.2-3.4-2.5-3.7-2.5-4.8 0-4.1 6.2-4.1 6.2 0 0 2-2.1 3.4-3.7 4.8l5.6 8.7L77 39c3.8-2.4 6.5-6.8 6.5-11.7 0-7.7-6.1-13.9-13.8-13.9z"/>
	<linearGradient id="c" x1="58.25" x2="58.25" y1="992.855" y2="1062.4253" gradientTransform="translate(0 -978.567)" gradientUnits="userSpaceOnUse">
		<stop offset="0" stop-color="#7fcdc4"/>
		<stop offset=".2469" stop-color="#88cda9"/>
		<stop offset=".5415" stop-color="#90cc8c"/>
		<stop offset=".6486" stop-color="#9ecf7e"/>
		<stop offset=".8769" stop-color="#b7d65e"/>
		<stop offset="1" stop-color="#c0d850"/>
	</linearGradient>
	<path fill="url(#c)" d="M66.5 47.5c-4.9 4-8.1 6.6-8.3 6.8-1.2-1 0 0-8.2-6.7l10.8-8.9 5.7 8.8z"/>
	<linearGradient id="d" x1="30.3" x2="30.3" y1="992.8549" y2="1062.4296" gradientTransform="translate(0 -978.567)" gradientUnits="userSpaceOnUse">
		<stop offset="0" stop-color="#7fcdc4"/>
		<stop offset=".2469" stop-color="#88cda9"/>
		<stop offset=".5415" stop-color="#90cc8c"/>
		<stop offset=".6486" stop-color="#9ecf7e"/>
		<stop offset=".8769" stop-color="#b7d65e"/>
		<stop offset="1" stop-color="#c0d850"/>
	</linearGradient>
	<path fill="url(#d)" d="M30.3 13.4c7.6 0 13.8 6.2 13.8 13.8 0 5.1-2.3 7.5-4.9 11.5L31 32.2c2.2-3.4 2.5-3.7 2.5-4.8 0-4.1-6.2-4.1-6.2 0 0 2 2.1 3.4 3.7 4.8l-5.6 8.7L23 39c-3.8-2.4-6.5-6.8-6.5-11.7.1-7.7 6.2-13.9 13.8-13.9z"/>
	<linearGradient id="e" x1="45.85" x2="45.85" y1="992.8398" y2="1062.4407" gradientTransform="translate(0 -978.567)" gradientUnits="userSpaceOnUse">
		<stop offset="0" stop-color="#7fcdc4"/>
		<stop offset=".2469" stop-color="#88cda9"/>
		<stop offset=".5415" stop-color="#90cc8c"/>
		<stop offset=".6486" stop-color="#9ecf7e"/>
		<stop offset=".8769" stop-color="#b7d65e"/>
		<stop offset="1" stop-color="#c0d850"/>
	</linearGradient>
	<path fill="url(#e)" d="M58.3 54.3 50 61c-12.8-10.4-6.6-5.4-16.6-13.5l5.7-8.8c13.1 10.7 8.7 7.2 19.2 15.6z"/>
	<linearGradient id="f" x1="52.866" x2="78.1183" y1="1028.9192" y2="1009.458" gradientTransform="translate(0 -978.567)" gradientUnits="userSpaceOnUse">
		<stop offset="0" stop-color="#68c075"/>
		<stop offset=".1969" stop-color="#86cdb3" stop-opacity="0"/>
		<stop offset=".2383" stop-color="#86cdb3" stop-opacity="0"/>
		<stop offset=".2652" stop-color="#7fcaa4" stop-opacity=".1364"/>
		<stop offset=".3059" stop-color="#75c592" stop-opacity=".3431"/>
		<stop offset=".3475" stop-color="#6ec286" stop-opacity=".5543"/>
		<stop offset=".3901" stop-color="#6ac17e" stop-opacity=".7706"/>
		<stop offset=".4352" stop-color="#68c07c"/>
		<stop offset=".5233" stop-color="#86cdb3" stop-opacity="0"/>
		<stop offset=".6917" stop-color="#63c29e" stop-opacity=".7228"/>
		<stop offset=".7358" stop-color="#5dc19a"/>
		<stop offset=".878" stop-color="#78c8a9" stop-opacity=".3465"/>
		<stop offset=".9534" stop-color="#86cdb3" stop-opacity="0"/>
	</linearGradient>
	<path fill="url(#f)" d="M73.5 27.2c0 3.3-1 3.1-22.7 20.9l7 5.7c17.3-14.1 15.6-12.8 19-15.5 3.7-2.3 6.1-6.6 6.1-11.1h-9.4z"/>
	<linearGradient id="g" x1="48.041" x2="21.0844" y1="1027.6177" y2="1010.5954" gradientTransform="translate(0 -978.567)" gradientUnits="userSpaceOnUse">
		<stop offset=".0777202" stop-color="#82cbab" stop-opacity="0"/>
		<stop offset=".1921" stop-color="#75c39d" stop-opacity=".3619"/>
		<stop offset=".3938" stop-color="#5fb98a"/>
		<stop offset=".4493" stop-color="#6cbf95" stop-opacity=".7321"/>
		<stop offset=".5417" stop-color="#7cc8a5" stop-opacity=".2861"/>
		<stop offset=".601" stop-color="#82cbab" stop-opacity="0"/>
		<stop offset=".6788" stop-color="#62bb9c"/>
		<stop offset=".7797" stop-color="#69be9f" stop-opacity=".6391"/>
		<stop offset=".9221" stop-color="#7cc8a8" stop-opacity=".1304"/>
		<stop offset=".9585" stop-color="#82cbab" stop-opacity="0"/>
	</linearGradient>
	<path fill="url(#g)" d="M26.6 27.2c0 3.3 1 3.1 22.7 20.9l-6.9 5.7C23.8 38.5 27 41.1 23.5 38.3c-3.7-2.3-6.1-6.6-6.1-11.1h9.2z"/>
	<linearGradient id="h" x1="49.2162" x2="42.2952" y1="1038.9758" y2="1049.3882" gradientTransform="translate(0 -978.567)" gradientUnits="userSpaceOnUse">
		<stop offset="0" stop-color="#73c160"/>
		<stop offset=".1705" stop-color="#7ac360" stop-opacity=".7409"/>
		<stop offset=".3905" stop-color="#8bc75e" stop-opacity=".4066"/>
		<stop offset=".6366" stop-color="#a5d05a" stop-opacity=".0326123"/>
		<stop offset=".658" stop-color="#a8d05a" stop-opacity="0"/>
	</linearGradient>
	<path fill="url(#h)" d="M49.2 77.5c-10.8-.6-16.8-14.4-6.8-22.7l7.1 5.7c-1.7 1.3-3.5 2.3-3.5 4.6 0 1.9 1.4 3.5 3.2 3.9v8.5z"/>
	<linearGradient id="i" x1="80.3927" x2="80.3927" y1="992.8505" y2="1062.4252" gradientTransform="translate(0 -978.567)" gradientUnits="userSpaceOnUse">
		<stop offset="0" stop-color="#7fcdc4"/>
		<stop offset=".2469" stop-color="#88cda9"/>
		<stop offset=".5415" stop-color="#90cc8c"/>
		<stop offset=".6486" stop-color="#9ecf7e"/>
		<stop offset=".8769" stop-color="#b7d65e"/>
		<stop offset="1" stop-color="#c0d850"/>
	</linearGradient>
	<path fill="url(#i)" d="M98.7 83.7 95 86.1c-1.3.9-3.1.5-4-.9L60.8 38.7l8.1-6.5 30.6 47.4c.9 1.4.5 3.2-.8 4.1z"/>
	<linearGradient id="j" x1="19.5441" x2="19.5441" y1="992.8464" y2="1062.425" gradientTransform="translate(0 -978.567)" gradientUnits="userSpaceOnUse">
		<stop offset="0" stop-color="#7fcdc4"/>
		<stop offset=".2469" stop-color="#88cda9"/>
		<stop offset=".5415" stop-color="#90cc8c"/>
		<stop offset=".6486" stop-color="#9ecf7e"/>
		<stop offset=".8769" stop-color="#b7d65e"/>
		<stop offset="1" stop-color="#c0d850"/>
	</linearGradient>
	<path fill="url(#j)" d="M1.3 83.7 5 86.1c1.3.9 3.1.5 4-.9l30.1-46.5-8.1-6.5L.4 79.6c-.8 1.4-.4 3.2.9 4.1z"/>
</svg>