<svg xmlns="http://www.w3.org/2000/svg" viewBox="0 0 100 100">
	<path fill="#339af0" d="M99.7 50C99.7 22.4 77.5 0 50 0 22.5 0 .3 22.4.3 50s22.3 50 49.7 50c27.5 0 49.7-22.4 49.7-50z"/>
	<path fill="#fff" d="M61.6 61.9h-5.9c1.7-3.8 2.5-7.9 2.5-12.1 0-4.2-.8-8.3-2.5-12.1h5.9c2.1 0 3.8-1.7 3.8-3.8s-1.7-3.8-3.8-3.8H50.9c-1.5-1.7-3.1-3.2-4.9-4.5-1.7-1.2-4-.9-5.3.8-.4.6-.7 1.3-.7 2.1s.1 1.5.5 2.1c.3.4.6.8 1 1.1 5.8 4.3 9.1 10.9 9.1 18.1 0 7.2-3.3 13.8-9.1 18.1-1.4 1.1-1.9 3-1.2 4.6.3.7.8 1.3 1.5 1.7 1.3.8 3 .7 4.2-.2 1.8-1.3 3.4-2.9 4.9-4.5h10.7c2.1 0 3.8-1.7 3.8-3.8 0-2.1-1.7-3.8-3.8-3.8z"/>
	<path fill="#fff" d="M44.3 52.6c1-1 1.7-2.4 1.7-3.9 0-.8-.1-1.5-.4-2.2-.3-.7-.7-1.3-1.2-1.9-.5-.5-1.1-1-1.8-1.3-1.4-.6-3-.6-4.4 0-.7.3-1.3.7-1.8 1.3-.5.5-.9 1.2-1.2 1.9-.3.7-.4 1.5-.4 2.2 0 1.5.6 2.9 1.7 3.9 1 1 2.5 1.6 3.9 1.6s2.8-.5 3.9-1.6z"/>
</svg>