<svg xmlns="http://www.w3.org/2000/svg" viewBox="0 0 100 100">
	<path fill="#939598" d="M57 45.3c9.6-22.7 9.3-22.8 10.1-22.5.8.3.5.2-8 20.2L57 45.3z"/>
	<path fill="#931a2b" d="M65.1 34c-6.4 8.4-7.4 8.7-15.4 18v12c2-.2 2 2.9 0 2.7v12.1c8.3-5.7 13.6-10.6 20-18.8l-4.6-26z"/>
	<path fill="#a7a9ac" d="M46.4 12.1v4.7l-17 6.8.3-4.1 16.7-7.4z"/>
	<path fill="#bcbec0" d="m69.9 19.2.3 4.1-17-6.7-.1-4.6 16.8 7.2zm-20.2-8.6v4.8L25 5.7l.5-5.5 24.2 10.4zM25.5.2 25 5.7l-3.3 1.9.6-5.3L25.5.2z"/>
	<path fill="#a7a9ac" d="m73.9 0 .6 5.5-24.7 9.9v-4.8L73.9 0z"/>
	<path fill="#bcbec0" d="m77.2 2 .6 5.3-3.3-1.9-.6-5.4 3.3 2z"/>
	<path fill="#808285" d="m32.7 24.5-3.4-1 17-6.8-24.6-9.1L25 5.7l24.8 9.7 24.7-9.9 3.3 1.9-24.6 9.3 17 6.7-3.4 1-17-6.4-17.1 6.5z"/>
	<path fill="#939598" d="M21.9 38.2c-.8 0-.8 1.8 2.5-30.7.1-.6.7-.5.6-.5.8.1.5.1-2.5 30.7-.1.3-.3.5-.6.5zm53.9-.5C73.9 7 73.6 6.8 74.4 6.8c.9-.1.5 0 2.4 30.9 0 .6-.6.6-.5.6 0-.1-.5-.3-.5-.6zM41 44.2c-8.9-21-9.2-21-8.5-21.3.8-.3.5-.2 10.4 23.2L41 44.2z"/>
	<path fill="#a81e2c" d="M48.4 65.4c0-.7.6-1.3 1.3-1.4V52c-7.9-9.1-9.2-9.8-15.4-18l-4.6 26c6.4 8.2 11.7 13.1 20.1 18.8V66.7c-.9 0-1.4-.6-1.4-1.3z"/>
	<path fill="#939598" d="M49.8 66.2c-.3 0-.1.1-18.6-16.9v-1.4L49.8 65l18.3-17.3.1 1.4C49.9 66.3 50.1 66.2 49.8 66.2z"/>
	<path fill="#ce2227" d="M87.8 37.6 65.1 34c2.8 15.7 3 47.7-.7 66l23-2.5c4-15.2 3.6-46.1.4-59.9zm-11.6 52c0-1.5 2.2-1.5 2.2 0 0 .6-2.2 1.5-2.2 0zM32.1 66.1C32.1 46 34.2 34 34.2 34l-22.7 3.7c-3.1 13.6-3.7 44.5.4 59.9l23 2.5c0-.1-2.8-13.8-2.8-34zM21.6 90.6c-1.4 0-1.4-2.1 0-2.1 1.4.1 1.4 2.1 0 2.1z"/>
	<path fill="#a51724" d="M77.3 45.3c1.4 0 1.4-2.1 0-2.1-1.3 0-1.3 2.1 0 2.1z"/>
	<path fill="#939598" d="M77.3 90.1c-1.6 0 1.1-1.1 1.1-22.9 0-21.6-2.5-23.3-1.1-23.5 2.7-.3 2.9 46.4 0 46.4z"/>
	<path fill="#a51724" d="M22.8 44.2c0-1.6-2.4-1.6-2.4 0 0 .7 2.4 1.6 2.4 0z"/>
	<path fill="#939598" d="M21.6 90.1c-.3 0-.5-.2-.5-.4-1.7-12.5-1.8-32.1 0-45.5 0-.3.3-.5.6-.4.6.1.4.7.4.6-1.6 10.3-1.9 32.2 0 45.2 0 .2-.2.5-.5.5z"/>
</svg>