<svg xmlns="http://www.w3.org/2000/svg" viewBox="0 0 100 100">
	<path fill="#002B64" d="M97.806 17.002c-1.546.05-1.057.494-4.397 1.316-3.372.83-7.49.576-11.122 2.099-10.84 4.546-13.015 20.084-22.87 25.65-7.367 4.16-14.798 4.493-21.48 6.587-4.391 1.377-9.194 4.2-13.173 7.629-3.088 2.662-3.168 5.002-6.395 8.341-3.451 3.572-13.717.06-18.369 5.527 1.499 1.515 2.156 1.94 5.11 1.546-.612 1.16-4.217 2.136-3.511 3.84.742 1.795 9.457 3.011 17.378-1.772 3.69-2.227 6.628-5.437 12.374-6.204 7.435-.99 16 .636 24.608 1.877-1.277 3.806-3.84 6.336-5.892 9.367-.635.685 1.277.761 3.459.348 3.924-.97 6.752-1.752 9.714-3.476 3.639-2.118 4.19-7.549 8.654-8.724 2.488 3.823 9.253 4.726 13.451 1.668-3.683-1.042-4.701-8.883-3.458-12.338 1.178-3.27 2.342-8.502 3.528-12.826 1.273-4.643 1.743-10.495 3.284-12.86 2.32-3.558 4.881-4.78 7.106-6.786 2.224-2.007 4.26-3.96 4.193-8.551-.021-1.479-.786-2.303-2.192-2.258Z"/>
	<path fill="#fff" d="M3.2 79.211c5.64.808 9.072 0 13.602-1.965 3.854-1.671 7.577-5.117 12.128-6.578 6.685-2.145 14.016.002 21.162.43 1.74.105 3.469.106 5.176-.08 2.662-1.636 2.607-7.756 5.198-8.316-.077 8.586-3.597 13.73-7.278 18.712 7.759-1.37 12.402-5.858 15.537-11.851.952-1.818 1.765-3.773 2.483-5.822 1.11.852.481 3.446 1.04 4.851 5.344-2.977 8.404-9.77 10.43-16.642 2.345-7.952 3.305-16.005 4.817-18.358 1.476-2.296 3.772-3.712 5.869-5.183 2.382-1.671 4.507-3.413 4.874-6.599-2.512-.232-3.093-.813-3.465-2.08-1.258.71-2.414.861-3.721.9-1.134.035-2.38-.016-3.901.14-12.584 1.293-14.182 15.161-22.248 23.024a18.911 18.911 0 0 1-1.892 1.605c-2.824 2.105-6.29 3.61-9.476 4.827-5.157 1.971-10.061 2.111-14.9 3.812-3.553 1.249-7.163 3.06-10.08 5.057-.73.499-1.418 1.01-2.05 1.527-1.712 1.4-2.836 2.955-3.923 4.554-1.121 1.648-2.204 3.343-3.855 4.962-2.673 2.626-12.664.766-16.182 3.2a2.875 2.875 0 0 0-.915.987c1.919.872 3.2.337 5.409.581.29 2.095-4.555 3.34-3.84 4.305Zm76.233-15.093c.15 2.403 1.546 7.172 2.778 8.331-2.413.587-6.569-.383-7.635-2.084.548-2.457 3.399-4.703 4.858-6.247Z"/>
	<path fill="#002B64" d="M82.968 25.973c1.78 1.547 5.518.306 4.85-2.771-2.767-.23-4.37.71-4.85 2.771Zm12.418-3.595c-.474.994-1.38 2.275-1.38 4.805-.005.434-.33.732-.336.062.024-2.473.679-3.541 1.374-4.946.323-.576.518-.338.342.079Z"/>
	<path fill="#002B64" d="M94.909 22.003c-.559.949-1.905 2.678-2.127 5.198-.041.433-.393.7-.34.032.243-2.46 1.319-4 2.135-5.339.37-.544.544-.29.332.11Zm-.435-.496c-.637.898-2.708 2.975-3.141 5.468-.078.427-.45.665-.341.003.448-2.431 2.234-4.343 3.16-5.607.414-.512.566-.244.322.136Zm-.388-.553c-.757.8-3.226 3.448-4.005 5.855-.138.411-.54.595-.338-.045.785-2.344 2.948-4.87 4.043-5.99.483-.45.595-.163.3.18Z"/>
</svg>