<svg xmlns="http://www.w3.org/2000/svg" viewBox="0 0 100 100">
	<path fill="#000" d="M93.114 80.677H7.186C3.293 80.677 0 77.383 0 73.49V26.186C0 22.293 3.293 19 7.186 19h85.628c3.893 0 7.186 3.293 7.186 7.186V73.49c0 3.892-2.994 7.186-6.886 7.186ZM7.186 23.79c-1.198 0-2.396 1.198-2.396 2.396V73.49c0 1.497 1.198 2.395 2.396 2.395h85.628c1.497 0 2.396-1.197 2.396-2.395V26.186c0-1.497-1.198-2.396-2.396-2.396H7.186Zm7.185 42.515V33.371h9.581l9.58 11.976 9.582-11.976h9.58v32.934h-9.58V47.443L33.533 59.42l-9.58-11.976v18.862H14.37Zm60.18 0L60.18 50.437h9.58V33.371h9.581v16.767h9.581L74.551 66.305Z"/>
</svg>