<svg xmlns="http://www.w3.org/2000/svg" viewBox="0 0 100 100">
	<path fill="#f6a2ad" d="M100 51.8H85.3c-1.6.3-2.7 1.2-3.5 3v.1c-.2-.9-.3-2-.5-2.8-3-16.2-5.2-26.9-8-27.5H57.7c-2.3.5-4.2 7.1-7.6 25.4-.1.5-.2.9-.2 1.4v.2c-3-16-5.1-26.3-7.9-27H27.2c.1 0 .3 0 .4.1-.1-.1-.3-.1-.4-.1h-.8c-2.3.5-4.2 7.1-7.7 25.4-.3 1.2-.4 2.4-.7 3.6-1-1.2-2-1.8-3.4-1.8H0c.1 0 .2.1.3.1H0c4 1 6.4 6.2 7.8 14.5 1.5 9 3.2 8.7 3.4 9h13.6c.3.1.6.1 1.1.1 2.3-.5 4.3-7.2 7.7-25.4.2-1.3.5-2.4.6-3.6.1-.5.2-1 .3-1.4-.1.5-.2.9-.3 1.4l.3 1.5c3.1 16.1 5.2 26.8 8.1 27.5.1 0 .2 0 .4-.1h13.8c.1.1.3.1.4.1 2.3-.5 4.3-7.2 7.7-25.4.2-1.3.5-2.4.6-3.6l.3 1.5c3 16.2 5.2 26.9 8 27.5h14.4c.1.1.2.1.4.1 0 0 3.2-1.8 3.8-8.7.8-9.9 2.5-13.3 7.6-15.1l-.2.1c0-.1.1-.1.2-.1zM11.5 75.3s.1 0 0 0c.1 0 .1 0 0 0zm29.3-50.7c-.1 0 0 0 0 0zm-4 9.7c0 .1 0 .1-.1.2 0-.1.1-.1.1-.2zm-1.7 7.5c-.2.9-.4 1.9-.6 2.9.2-1 .4-2 .6-2.9zm1.6-7.3-.3 1.2.3-1.2zm-.3 1.4c-.2.9-.4 1.7-.6 2.7.2-1 .4-1.8.6-2.7zm-.7 2.8c-.2.9-.4 1.8-.6 2.8.2-.9.4-1.8.6-2.8zm13.5 16.5c-.6 3.2-1.2 6.2-1.9 8.9.6-2.7 1.3-5.7 1.9-8.9zm20.1-25.6c-1 3-2 7.2-2.9 11.8 1-4.6 2-8.8 2.9-11.8zm11.8 26.8c-.6 1.8-1.2 4.1-1.7 7l.3-1.8c.4-2.1.9-3.8 1.4-5.2z"/>
	<path fill="#eb7077" d="M100 51.8H85.3c-1.6.3-2.7 1.2-3.5 3 0 0 1.5 7.7 0 0-1 2.1-1.8 5.1-2.5 9.3-1.1 6.3-2.9 11.3-5.5 11.3h.6c-.2.1-.4.1-.6.1h14.4c.1.1.2.1.4.1 0 0 3.2-1.8 3.8-8.7.8-9.9 2.5-13.3 7.6-15.1l-.2.1c0-.1.1-.1.2-.1zM72.4 24.5H57.7c-2.3.5-4.2 7.1-7.6 25.4l-.3 1.5v-.2c-2.3 12.6-4.9 24-7.4 24h.4c-.1.1-.3.1-.4.1h14.3c.1.1.3.1.4.1 2.3-.5 4.3-7.2 7.7-25.4.2-1.3.5-2.4.6-3.6 2.2-11.7 4.7-21.8 7-21.9l-.4.1c.2 0 .3-.1.4-.1zM41.1 24.5H27.2c.1 0 .3 0 .4.1-.1-.1-.3-.1-.4-.1h-.8c-2.3.5-4.2 7.1-7.7 25.4-.3 1.3-.5 2.5-.7 3.8v.2c-2.2 11.5-4.6 21.4-6.9 21.4h.4c-.1.1-.3.1-.4.1h13.6c.3.1.6.1 1.1.1 2.3-.5 4.3-7.2 7.7-25.4.2-1.3.5-2.4.6-3.6 2.3-11.8 4.7-21.9 7-22l-.4.1c.2 0 .3-.1.4-.1z"/>
</svg>