<svg xmlns="http://www.w3.org/2000/svg" viewBox="0 0 100 100">
	<path fill="#fff" d="M50 0C22.4 0 0 22.4 0 50s22.4 50 50 50 50-22.4 50-50S77.6 0 50 0z"/>
	<path fill="#818181" opacity=".9" d="M59.3 59.3c.1-.1.1-.1-.2-.4-.1-.1-.1-.1-.2 0s-.1.1.2.4c.1.1.2.1.2 0zm0-19.3c-.1-.1-.1-.1-.2 0-.3.3-.3.3-.2.4.1.1.1.1.4-.2.1 0 .1-.1 0-.2zm-1.6 1.6c.1.1.1.1.4-.2.1-.1.1-.1 0-.2s-.1-.1-.4.2v.2zM34.9 64.7c.3-.3.3-.3.2-.4-.1-.1-.1-.1-.4.2-.1.1-.1.1 0 .2h.2zm23.8-6c.1-.1.1-.1-.2-.4-.1-.1-.1-.1-.2 0s-.1.1 0 .2c.3.3.3.3.4.2zm-24-24c-.1.1-.1.1.2.4.1.1.1.1.2 0s.1-.1 0-.2c-.3-.3-.3-.3-.4-.2zm1 15c0-.1-.2-.1-.4-.1-.1 0-.1.2 0 .2 0 0 .4 0 .4-.1zm20.9-6.9c.1.1.1.1.2 0 .3-.3.3-.3.2-.4-.1-.1-.1-.1-.4.2-.1 0-.1.1 0 .2zm-19.9-5.9c.1.1.1.1.2 0s.1-.1-.2-.4c-.1-.1-.1-.1-.2 0-.1 0-.1.1.2.4zM57 57c.1-.1.1-.1-.2-.4-.1-.1-.1-.1-.2 0s-.1.1 0 .2c.3.3.3.3.4.2zm-.8-13.6c.3-.3.3-.3.2-.4-.1-.1-.1-.1-.4.2-.1.1-.1.1 0 .2h.2zm3.7 16.5c.1-.1.1-.1-.2-.4-.1-.1-.1-.1-.2 0s-.1.1 0 .2c.3.3.3.3.4.2zm-1.7-10.4c-.2 0-.4 0-.4.1s.2.1.4.1c.1 0 .1-.1 0-.2zm-1.6.2c0-.1-.1-.1 0 0-.3-.1-.5-.1-.5 0s.2.1.5 0c0 .1 0 .1 0 0zm.4.1c.2 0 .4 0 .4-.1s-.2-.1-.4-.1c0-.2-.2.2 0 .2zm3.7-.2c-.2 0-.4 0-.4.1s.2.1.4.1c.1 0 .1-.2 0-.2zm-27.5.1c0-.1-.2-.1-.4-.1-.1 0-.1.2 0 .2 0 0 .4 0 .4-.1zm25.5.1c.2 0 .4 0 .4-.1s-.2-.1-.4-.1c-.1-.1-.1.2 0 .2zM31.5 31.6c.1-.1.1-.1-.2-.4-.1-.1-.1-.1-.2 0s-.1.1 0 .2c.3.3.3.3.4.2zm.8 35.4c.1.1.1.1.4-.2.1-.1.1-.1 0-.2s-.1-.1-.4.2v.2zm-.6.6c.1.1.1.1.4-.2.1-.1.1-.1 0-.2s-.1-.1-.4.2v.2zm.4-35.5c.1-.1.1-.1-.2-.4-.1-.1-.1-.1-.2 0s-.1.1.2.4c.1.1.2.1.2 0zm.6.6c.1-.1.1-.1-.2-.4-.1-.1-.1-.1-.2 0s-.1.1.2.4c.1.1.2.1.2 0zM58.3 41c.1.1.1.1.4-.2.1-.1.1-.1 0-.2s-.1-.1-.4.2v.2zm-23-5.7c-.1.1-.1.1.2.4.1.1.1.1.2 0s.1-.1 0-.2c-.3-.3-.3-.3-.4-.2zm-1.2-1.2c-.1.1-.1.1.2.4.1.1.1.1.2 0s.1-.1-.2-.4h-.2zm-.6-.4c.3.3.3.3.4.2.1-.1.1-.1 0-.2-.3-.3-.3-.3-.4-.2v.2zm-.6-.6c.3.3.3.3.4.2.1-.1.1-.1-.2-.4-.1-.1-.1-.1-.2 0v.2zm1 16.4h-.3c-.1 0-.1.2 0 .2.2 0 .4 0 .3-.2.2.1.1 0 0 0zm22.3 6.9c.1.1.1.1.2 0s.1-.1-.2-.4c-.1-.1-.1-.1-.2 0-.1 0-.1.1.2.4zm-6.5 3.1c-.1 0-.1.2-.1.4 0 .1.2.1.2 0 0 0 0-.4-.1-.4zm-11.5 1.6c.1.1.1.1.4-.2.1-.1.1-.1 0-.2s-.1-.1-.4.2v.2zm11.5-3.3c-.1 0-.1.2-.1.4 0 .1.2.1.2 0 0 0 0-.4-.1-.4zm-11.1-8.2c0 .1.2.1.4.1.1 0 .1-.2 0-.2-.2 0-.4 0-.4.1zm11.1 11.5c-.1 0-.1.2-.1.4 0 .1.2.1.2 0 0 0 0-.4-.1-.4zm0-.8c-.1 0-.1.2-.1.4 0 .1.2.1.2 0 0 0 0-.4-.1-.4zm0-3.3c-.1 0-.1.2-.1.4 0 .1.2.1.2 0 0 0 0-.4-.1-.4zm0 1.6c-.1 0-.1.2-.1.4 0 .1.2.1.2 0 0 0 0-.4-.1-.4zm-8.3-.8c-.3.3-.3.3-.2.4.1.1.1.1.2 0 .3-.3.3-.3.2-.4-.1-.1-.2-.1-.2 0zm4.9-4.8c-.1-.1-.1-.1-.3.1l-.2-.2-.1.1.2.3v.1h.1l.1.1.2-.2-.1-.1c.2 0 .2-.1.1-.2zm-4.7-11.6c-.3-.3-.3-.3-.4-.2-.1.1-.1.1.2.4.1.1.1.1.2 0v-.2zm8.1 14.7c-.1 0-.1.2-.1.4 0 .1.2.1.2 0 0 0 0-.4-.1-.4zm0-.8c-.1 0-.1.2-.1.4 0 .1.2.1.2 0 0 0 0-.4-.1-.4zm.1-.7c0-.1-.2-.2-.2.1-.3 0-.1 0-.6-.1l-.1.3.3.1h.2l.1.1c.1 0 .1-.1.1-.5h.2zm-.1 8.2c-.1 0-.1.2-.1.4 0 .1.2.1.2 0 0 0 0-.4-.1-.4zm0-.8c-.1 0-.1.2-.1.4 0 .1.2.1.2 0 0 0 0-.4-.1-.4zm5.7-18c.1.1.1.1.2 0 .3-.3.3-.3.2-.4-.1-.1-.1-.1-.4.2-.1 0-.1.1 0 .2zm-16.8-5.3c.1-.1.1-.1-.2-.4-.1-.1-.1-.1-.2 0s-.1.1.2.4h.2zm-1-1c-.1.1-.1.1 0 .2.3.3.3.3.4.2.1-.1.1-.1-.2-.4 0-.1-.1-.1-.2 0zm19.9 19.9c.1-.1.1-.1-.2-.4-.1-.1-.1-.1-.2 0s-.1.1.2.4h.2zm-21.4-7.8c.2 0 .4 0 .4-.1s-.2-.1-.4-.1c0-.2-.2.2 0 .2zm21.4-8c-.1-.1-.1-.1-.2 0l-.1.2c-.1.1-.1.1 0 .2s.1.1.4-.2c0-.1 0-.1-.1-.2zM35.9 63.5c.1.1.1.1.2 0 .3-.3.3-.3.2-.4-.1-.1-.1-.1-.4.2-.1 0-.1.1 0 .2zm1.4-14c-.2 0-.4 0-.4.1s.1.1.1.1c.2 0 .4 0 .3-.2zm12.4 14.1c-.1 0-.1.2-.1.4 0 .1.2.1.2 0v-.3l-.1-.1zM37.8 49.8c.2 0 .4 0 .4-.1s-.2-.1-.4-.1c-.1-.1-.1.2 0 .2zm17.9-.3c-.2 0-.4 0-.4.1s.2.1.4.1c.1 0 .1-.1 0-.2zM37.1 37.1c-.1.1-.1.1.2.4.1.1.1.1.2 0s.1-.1-.2-.4c-.1-.1-.2-.1-.2 0zm-1.2-1.2c-.1.1-.1.1.2.4.1.1.1.1.2 0s.1-.1 0-.2c-.3-.3-.3-.3-.4-.2zM20.2 49.6c0 .1.2.1.4.1.1 0 .1-.2 0-.2 0 0-.4 0-.4.1zm-3-32.2c.1.1.1.1.2 0s.1-.1-.1-.3c-.1-.1-.1-.1-.2 0-.1 0-.1.1.1.3zm.7.6c.1-.1.1-.1-.2-.4-.1-.1-.1-.1-.2 0s-.1.1 0 .2c.3.3.3.3.4.2zm.6.6c.1-.1.1-.1-.2-.4-.1-.1-.1-.1-.2 0s-.1.1 0 .2c.3.3.3.3.4.2zm.6.5c.1-.1.1-.1-.2-.4-.1-.1-.1-.1-.2 0s-.1.1 0 .2c.3.3.3.3.4.2zM5.2 49.7c.2 0 .4 0 .4-.1-.5-.3-.6.1-.4.1zm.9-.2c-.1 0-.1.2 0 .2.2 0 .4 0 .4-.1-.1-.1-.2-.1-.4-.1zm-1.4 0c-.2 0-.4 0-.4.1s.2.1.4.1c.1 0 .1-.1 0-.2zm-1 0c-.1 0-.2.2.1.2.1 0 .1-.1.1-.1.1 0 0-.1-.2-.1zm19-26.8c.1-.1.1-.1-.2-.4-.1-.1-.1-.1-.2 0s-.1.1 0 .2c.3.3.3.3.4.2zm1.7 1.8c.1-.1.1-.1-.2-.4-.1-.1-.1-.1-.2 0s-.1.1 0 .2c.3.3.3.3.4.2zm.4 25.1c-.2 0-.4 0-.4.1s.2.1.4.1c0 0 .1-.2 0-.2zm-3.9-28.7c.1-.1.1-.1-.2-.4-.1-.1-.1-.1-.2 0s-.1.1 0 .2c.3.3.3.3.4.2zm-.6-.6c.1-.1.1-.1-.2-.4-.1-.1-.1-.1-.2 0s-.1.1 0 .2c.3.3.3.3.4.2zm43.6 15.4c.3-.3.3-.3.2-.4-.1-.1-.1-.1-.4.2-.1.1-.1.1 0 .2h.2zM41.5 49.8c.1 0 .1-.2 0-.2-.2 0-.4 0-.4.1-.1.1 0 .1.4.1zM19.7 19.7c.1-.1.1-.1-.2-.4-.1-.1-.1-.1-.2 0s-.1.1 0 .2c.3.3.3.3.4.2zM13 49.5h-.3c-.1 0-.1.2 0 .2.2 0 .4 0 .4-.1.1 0 0-.1-.1-.1zm2.5 0h-.3c-.1 0-.1.2 0 .2.2 0 .4 0 .4-.1.1 0 0-.1-.1-.1zm-1.6 0c-.2 0-.4 0-.4.1s.2.1.4.1c.1 0 .1-.1.1-.1l-.1-.1zm.5.2c.2 0 .4 0 .4-.1-.5-.3-.6.1-.4.1zm-7.5 0c.2 0 .4 0 .4-.1-.5-.3-.6.1-.4.1zM17.2 82c-.2.2-.2.2-.1.3.1.1.1.1.3-.1.1-.1.1-.1 0-.2s-.2-.1-.2 0zm.1-32.3c0-.1-.1-.1-.1-.1-.2 0-.4 0-.4.1s.2.1.4.1c.1 0 .1 0 .1-.1zm-.9-.2c-.2 0-.4 0-.4.1s.2.1.4.1c.1 0 .1-.1.1-.1l-.1-.1zm-7.8 0c-.1 0-.1.2 0 .2.2 0 .4 0 .4-.1-.1-.1-.2-.1-.4-.1zm3.3.2c.2 0 .4 0 .4-.1-.5-.3-.6.1-.4.1zm-4.2 0c.2 0 .4 0 .4-.1-.5-.3-.6.1-.4.1zm1.7 0c.2 0 .4 0 .4-.1-.5-.3-.6.1-.4.1zm2-.2c-.2 0-.4 0-.4.1s.2.1.4.1c.1 0 .1-.1.1-.1l-.1-.1zm-.9 0h-.3c-.1 0-.1.2 0 .2.2 0 .4 0 .4-.1.1 0 0-.1-.1-.1zm7.2 31.9c-.3.3-.3.3-.2.4.1.1.1.1.4-.2.1-.1.1-.1 0-.2h-.2zM29 49.7c0-.1-.1-.1-.1-.1-.2 0-.4 0-.4.1s.2.1.4.1c.1 0 .1 0 .1-.1zm32.1 11.4c.1-.1.1-.1-.2-.4-.1-.1-.1-.1-.2 0s-.1.1 0 .2c.3.3.3.3.4.2zM29.7 49.5h-.3c-.1 0-.1.2 0 .2.2 0 .4 0 .4-.1.1 0 0-.1-.1-.1zm-.5-20.3c.1-.1.1-.1-.2-.4-.1-.1-.1-.1-.2 0s-.1.1 0 .2c.3.3.3.3.4.2zm-1.1 20.4c-.2 0-.4 0-.4.1s.2.1.4.1c0 0 .1-.2 0-.2zm33.4-11.5c.3-.3.3-.3.2-.4-.1-.1-.1-.1-.4.2-.1.1-.1.1 0 .2h.2zM28 28c.1-.1.1-.1 0-.2-.3-.3-.3-.3-.4-.2-.1.1-.1.1 0 .2.3.3.3.3.4.2zm.6.6c.1-.1.1-.1-.2-.4-.1-.1-.1-.1-.2 0s-.1.1 0 .2c.3.3.3.3.4.2zm30.9 11.2c.1.1.1.1.4-.2.1-.1.1-.1 0-.2s-.1-.1-.4.2v.2zm1.4-1.1c.3-.3.3-.3.2-.4-.1-.1-.1-.1-.4.2-.1.1-.1.1 0 .2h.2zm2.4 24.8c.1.1.1.1.2 0s.1-.1-.2-.4c-.1-.1-.1-.1-.2 0-.1 0-.1.1.2.4zM31 31c.1-.1.1-.1-.2-.4-.1-.1-.1-.1-.2 0s-.1.1 0 .2c.3.3.3.3.4.2zm-.6-.6c.1-.1.1-.1-.2-.4-.1-.1-.1-.1-.2 0s-.1.1 0 .2c.3.3.3.3.4.2zm-.6-.6c.1-.1.1-.1-.2-.4-.1-.1-.1-.1-.2 0s-.1.1 0 .2c.3.3.3.3.4.2zm.5 20c.2 0 .4 0 .4-.1s-.2-.1-.4-.1c-.1-.1-.1.2 0 .2zm31.2 0c.1 0 .1-.2 0-.2-.2 0-.4 0-.4.1s.2.1.4.1zM25.6 25.6c.1-.1.1-.1-.2-.4-.1-.1-.1-.1-.2 0s-.1.1 0 .2c.3.3.3.3.4.2zm0 23.9c-.2 0-.4 0-.4.1s.2.1.4.1c.1 0 .1-.1.1-.1l-.1-.1zm37.7-13.2c.3-.3.3-.3.2-.4-.1-.1-.1-.1-.4.2-.1.1-.1.1 0 .2h.2zm0 13.4c0-.1-.1-.1 0 0-.3-.1-.5-.1-.5 0s.2.1.5 0c0 .1 0 .1 0 0zm-1.3-.1c0 .1.2.1.4.1.1 0 .1-.2 0-.2-.2 0-.4 0-.4.1zM27.4 27.4c.1-.1.1-.1-.2-.4H27c-.1.1-.1.1 0 .2.3.3.3.3.4.2zM25 25.1c.1-.1.1-.1 0-.2-.3-.3-.3-.3-.4-.2-.1.1-.1.1 0 .2.3.3.3.3.4.2zm37.5 11.8c.1.1.1.1.4-.2.1-.1.1-.1 0-.2s-.1-.1-.2 0c-.3.3-.3.3-.2.4zm-.6.6c.1.1.1.1.2 0 .3-.3.3-.3.2-.4-.1-.1-.1-.1-.4.2-.1 0-.1.1 0 .2zM27.3 49.6c-.2 0-.4 0-.4.1s.2.1.4.1c0 0 .1-.2 0-.2zm-.5-22.8c.1-.1.1-.1-.2-.4-.1-.1-.1-.1-.2 0s-.1.1 0 .2c.3.3.3.3.4.2zm-.6-.6c.1-.1.1-.1-.2-.4-.1-.1-.1-.1-.2 0s-.1.1 0 .2c.3.3.3.3.4.2zM26 49.6c0 .1.2.1.4.1.1 0 .1-.2 0-.2-.2 0-.4 0-.4.1zm33.5.2c.2 0 .4 0 .4-.1s-.2-.1-.4-.1c0-.2-.2.2 0 .2zm-5.4-.1c0-.1-.2-.1-.4-.1-.1 0-.1.2 0 .2l.4-.1c0 .1 0 .1 0 0zm-4.5-10.6c.1 0 .1-.2.1-.4 0-.1-.2-.1-.2 0 0 0 0 .4.1.4zm4.8 5.7c-.3.3-.3.3-.2.4.1.1.1.1.4-.2.1-.1.1-.1 0-.2s-.2-.1-.2 0zm-.6.5c-.3.3-.3.3-.2.4.1.1.1.1.4-.2.1-.1.1-.1 0-.2h-.2zm-4.1 7.5c-.1 0-.1.2-.1.4 0 .1.2.1.2 0 0 0 0-.4-.1-.4zm0-2.5c-.1 0-.1.2-.1.4 0 .1.2.1.2 0 0 0 0-.4-.1-.4zm3.5-4.4c-.3.3-.3.3-.2.4.1.1.1.1.3-.1.1.1.1 0 .3.4l.2-.2c-.2-.4-.2-.3-.3-.4v-.1h-.3zM49.7 52c-.1 0-.1.2-.1.4 0 .1.2.1.2 0 0 0 0-.4-.1-.4zm1.9-2.3c0-.1-.2-.1-.4-.1-.1 0-.1.2 0 .2 0 0 .4 0 .4-.1zm-2-11.5c.1 0 .1-.2.1-.4 0-.1-.2-.1-.2 0 0 0 0 .4.1.4zm2 13.5c.1-.1.1-.1-.2-.4-.1-.1-.1-.1-.2 0s-.1.1 0 .2c.3.3.3.3.4.2zm-2-15.2c.1 0 .1-.2.1-.4 0-.1-.2-.1-.2 0 0 0 0 .4.1.4zm.3 13.3s0-.1 0 0v-.3h-.4v.4h.3l.1-.1c0 .1 0 0 0 0zm-.1-14.1c0-.2 0-.4-.1-.4s-.1.2-.1.4c-.2 0 .2.2.2 0zm-.2 1.7c.1 0 .1-.2.1-.4 0-.1-.2-.1-.2 0 0 0 0 .4.1.4zm.1 13.7c-.1 0-.1.2-.1.4 0 .1.2.1.2 0 0 0 0-.4-.1-.4zm4.9 3.5c.1-.1.1-.1-.2-.4-.1-.1-.1-.1-.2 0s-.1.1 0 .2c.3.3.3.3.4.2zm-5.5-4.5c-.3.3-.3.3-.2.4.1.1.1.1.4-.2.1-.1.1-.1 0-.2s-.2-.1-.2 0zm4.7 3.5c-.1-.1-.1-.1-.2 0s-.1.1.2.4c.1.1.1.1.2 0 .1 0 .1-.1-.2-.4zm1.4-9.4c-.1-.1-.1-.1-.4.2-.1.1-.1.1 0 .2s.1.1.4-.2v-.2zm-5.9 5.1c.1-.1.1-.1-.2-.4-.1-.1-.1-.1-.2 0s-.1.1 0 .2c.3.3.3.3.4.2zm-.6.5c.2 0 .4 0 .4-.1s-.2-.1-.4-.1c-.1-.1-.1.2 0 .2zm6.5 5.4c.1-.1.1-.1-.2-.4-.1-.1-.1-.1-.2 0s-.1.1 0 .2c.3.3.3.3.4.2zm-2.4-5.4c.2 0 .4 0 .4-.1s-.2-.1-.4-.1c0-.2-.2.2 0 .2zm0-3.3c-.1-.1-.1-.1-.4.2-.1.1-.1.1 0 .2s.1.1.2 0c.3-.3.3-.3.2-.4zm-4.3 4.6c.3-.3.3-.3.2-.4-.1-.1-.1-.1-.4.2-.1.1-.1.1 0 .2h.2zm4.9 2.3c.1-.1.1-.1-.2-.4H53c-.1.1-.1.1.2.4.1.1.2.1.2 0zm-1-.8c.3.3.3.3.4.2.1-.1.1-.1-.2-.4-.1-.1-.1-.1-.2 0v.2zm-2.7 1c-.1 0-.1.2-.1.4 0 .1.2.1.2 0 0 0 0-.4-.1-.4zm2.1-1.6c.3.3.3.3.4.2.1-.1.1-.1 0-.2l-.2-.1c-.1-.1-.1-.1-.2.1zm.2-2.2c.2 0 .4 0 .4-.1s-.2-.1-.4-.1c0-.2-.2.2 0 .2zm-2.4-1.5c.1 0 .1-.2.1-.4 0-.1-.2-.1-.2 0 0 0 0 .4.1.4zm0-22.6c.1 0 .1-.2.1-.4 0-.1-.2-.1-.2 0 0 0 0 .4.1.4zm0 23.4c.1 0 .1-.2.1-.4 0-.1-.2-.1-.2 0 0 0 0 .4.1.4zm.2-24.3c0-.2 0-.4-.1-.4s-.1.2-.1.4c-.2 0 .2.2.2 0zm-.2 3.4c.1 0 .1-.2.1-.4 0-.1-.2-.1-.2 0 0 0 0 .4.1.4zm0-.8c.1 0 .1-.2.1-.4 0-.1-.2-.1-.2 0 0 0 0 .4.1.4zm0-.9c.1 0 .1-.2.1-.4 0-.1-.2-.1-.2 0 0 .2 0 .4.1.4zm0 19.2c.1 0 .1-.2.1-.4 0-.1-.2-.1-.2 0 0 0 0 .4.1.4zm-.1 1.6c0 .1.1.1 0 0 .2.1.2-.1.2-.3 0-.1-.1-.1-.1-.1-.1 0-.1.2-.1.4zm.1-4.1c.1 0 .1-.2.1-.4 0-.1-.2-.1-.2 0 0 0 0 .4.1.4zm0 1.7c.1 0 .1-.2.1-.4 0-.1-.2-.1-.2 0 0 0 0 .4.1.4zm0-.8c.1 0 .1-.2.1-.4 0-.1-.2-.1-.2 0 0 0 0 .4.1.4zm0 2.5c.1 0 .1-.2.1-.4 0-.1-.2-.1-.2 0 0 0 0 .4.1.4zm0-17.6c.1 0 .1-.2.1-.4 0-.1-.2-.1-.2 0 0 0 0 .4.1.4zm-.1 1.6c0 .1.2.1.2 0 0-.2 0-.4-.1-.4s-.1.1-.1.1v.3zm.1 10.1c.1 0 .1-.2.1-.4 0-.1-.2-.1-.2 0 0 0 0 .4.1.4zm1.8 7c-.3.3-.3.3-.2.4.1.1.1.1.4-.2.1-.1.1-.1 0-.2h-.2zm-1.8-17.8c.1 0 .1-.2.1-.4 0-.1-.2-.1-.2 0 0 0 0 .4.1.4zm0 10c.1 0 .1-.2.1-.4 0-.1-.2-.1-.2 0 0 0 0 .4.1.4zm1.1 10.8c-.1.1-.1.1.2.4.1.1.1.1.2 0s.1-.1-.2-.4c-.1-.1-.2-.1-.2 0zm-.2-1.8c-.1-.1-.1-.1-.4.2-.1.1-.1.1 0 .2s.1.1.4-.2v-.2zm-.2.9c.2 0 .4 0 .4-.1s-.2-.1-.4-.1c0-.2-.2.2 0 .2zm.4-1.1c.1.1.1.1.2 0 .3-.3.3-.3.2-.4-.1-.1-.1-.1-.4.2-.1.1-.1.1 0 .2zm-1.1-17.2c.1 0 .1-.2.1-.4 0-.1-.2-.1-.2 0 0 0 0 .4.1.4zm0 10.1c.1 0 .1-.2.1-.4 0-.1-.2-.1-.2 0 0 0 0 .4.1.4zm.9 8.9c.1-.1.1-.1-.2-.4-.1-.1-.1-.1-.2 0s-.1.1 0 .2c.3.3.3.3.4.2zm-.9-18.1c.1 0 .1-.2.1-.4 0-.1-.2-.1-.2 0 0 0 0 .4.1.4zm0 1.6c.1 0 .1-.2.1-.4 0-.1-.2-.1-.2 0 0 0 0 .4.1.4zm0-.8c.1 0 .1-.2.1-.4 0-.1-.2-.1-.2 0 0 0 0 .4.1.4zm-9.2 7.2c.1-.1.1-.1-.2-.4H40c-.1.1-.1.1 0 .2.3.3.3.3.4.2zM44 44c.1-.1.1-.1-.2-.4-.1-.1-.1-.1-.2 0s-.1.1 0 .2c.3.3.3.3.4.2zm-.2 11.4c-.3.3-.3.3-.2.4.1.1.1.1.4-.2.1-.1.1-.1 0-.2s-.2-.1-.2 0zm.2-5.8c-.2 0-.4 0-.4.1s.2.1.4.1c0 0 .1-.2 0-.2zm2.9-2.7c.1-.1.1-.1-.2-.4-.1-.1-.1-.1-.2 0s-.1.1.2.4c.1.1.2.1.2 0zm-4.7-4.7c.1-.1.1-.1 0-.2-.3-.3-.3-.3-.4-.2-.1.1-.1.1.2.4 0 .1.1.1.2 0zm1 1.2c.1.1.1.1.2 0s.1-.1-.2-.4c-.1-.1-.1-.1-.2 0-.1 0-.1.1.2.4zm3.3 9.4c.1.1.1.1.4-.2.1-.1.1-.1 0-.2s-.1-.1-.4.2v.2zM42 57.6c.3-.3.3-.3.2-.4-.1-.1-.1-.1-.4.2-.1.1-.1.1 0 .2h.2zm2.1-13.4c-.1.1-.1.1.2.4.1.1.1.1.2 0s.1-.1 0-.2c-.3-.3-.3-.3-.4-.2zm0 11c.1.1.1.1.4-.2.1-.1.1-.1 0-.2s-.1-.1-.4.2v.2zm.8-.6c.3-.3.3-.3.2-.4-.1-.1-.1-.1-.4.2-.1.1-.1.1 0 .2s.2.1.2 0zm.3-5c0 .1.2.1.4.1.1 0 .1-.2 0-.2 0 0-.4 0-.4.1zm3 0c-.2 0-.4 0-.4.1s.2.1.4.1c0 0 .1-.2 0-.2zm-3.4.2c.1 0 .1-.2 0-.2h-.4v.1l-.1.1s0 .1.1.1v.1l.1.3h.3v-.5zm-.1-5c-.1.1-.1.1.2.4.1.1.1.1.2 0s.1-.1 0-.2c-.3-.3-.3-.3-.4-.2zm2.3 5c.2 0 .4 0 .4-.1s-.2-.1-.4-.1c-.1-.1-.1.2 0 .2zm-7.5 0c.2 0 .4 0 .4-.1s-.2-.1-.4-.1c-.1 0-.1.1 0 .2-.1 0-.1 0 0 0zm-.1-10.2c.3.3.3.3.4.2.1-.1.1-.1-.2-.4-.1-.1-.1-.1-.2 0v.2zm.2 20.3c.3-.3.3-.3.2-.4-.1-.1-.1-.1-.4.2-.1.1-.1.1 0 .2s.2.1.2 0zm2.8-10.2c0-.1-.1-.1 0 0-.3-.1-.5-.1-.5 0s.2.1.4.1c.1 0 .1 0 .1-.1zM41 41c.1-.1.1-.1 0-.2-.3-.3-.3-.3-.4-.2-.1.1-.1.1.2.4.1.1.1.1.2 0zm-.8 18.3c.3-.3.3-.3.2-.4-.1-.1-.1-.1-.4.2-.1.1-.1.1 0 .2s.2.1.2 0zm.5-9.6c0-.1-.1-.1 0 0-.3-.1-.5-.1-.5 0s.2.1.5 0c0 .1 0 .1 0 0zm.1 9c.3-.3.3-.3.2-.4-.1-.1-.1-.1-.4.2-.1.1-.1.1 0 .2s.1.1.2 0zm7.7-10c.1.1.1.1.2 0s.1-.1 0-.2c-.3-.3-.3-.3-.4-.2-.1.1-.1.1.2.4zm-5.9-5.9c.1.1.1.1.2 0s.1-.1-.2-.4c-.1-.1-.1-.1-.2 0-.1 0-.1.1.2.4zm0 14.2c.3-.3.3-.3.2-.4-.1-.1-.1-.1-.4.2-.1.1-.1.1 0 .2h.2zm4.7-5.1-.2.1c-.1.1-.1.1 0 .2s.1.1.4-.2c.1-.1.1-.1 0-.2-.1 0-.1 0-.2.1zm-4.1-2.3c-.2 0-.4 0-.4.1s.2.1.4.1c0 0 .1-.2 0-.2zm3.9-2.3c.3.3.3.3.4.2.1-.1.1-.1-.2-.4-.1-.1-.1-.1-.2 0s-.1.2 0 .2zm-1.8-2c-.1.1-.1.1.2.4.1.1.1.1.2 0s.1-.1 0-.2c-.3-.3-.3-.3-.4-.2zm4.5-37.2c0-.3 0-.5-.1-.5s-.1.2-.1.4c-.2.2.2.3.2.1zm0-.9c0-.2 0-.4-.1-.4s-.1.2-.1.4c-.1.1.2.1.2 0zm0 1.7c0-.2 0-.4-.1-.4s-.1.2-.1.4c-.2 0 .2.2.2 0zm0 2.5c0-.2 0-.4-.1-.4s-.1.2-.1.4c-.2 0 .2.2.2 0zm0-1.7c0-.2 0-.4-.1-.4s-.1.2-.1.4c-.1.1.2.1.2 0zm0-3.3c0-.2 0-.4-.1-.4s-.1.2-.1.4c-.2 0 .2.2.2 0zm0 4.2c0-.2 0-.4-.1-.4s-.1.2-.1.4c-.2 0 .2.2.2 0zm0-5v-.4c0-.1-.2-.1-.2 0v.3c-.2.2.2.3.2.1zm-2.1 42.1c-.1.1-.1.1.2.4.1.1.1.1.2 0s.1-.1-.2-.4h-.2zm.2 4c.3-.3.3-.3.2-.4-.1-.1-.1-.1-.4.2-.1.1-.1.1 0 .2h.2zm3.9-4.2c.1.1.1.1.4-.2.1-.1.1-.1 0-.2s-.1-.1-.4.2v.2zm-2-43.6c0-.1 0-.3-.1-.3s-.1.1-.1.2c-.2.2.2.3.2.1zm0 8.3c0-.2 0-.4-.1-.4s-.1.2-.1.4c-.1.1.2.1.2 0zm0-7.5c0-.2 0-.4-.1-.4s-.1.2-.1.4c-.1.1.2.1.2 0zm0 15.1c0-.2 0-.4-.1-.4s-.1.2-.1.4c-.2 0 .2.2.2 0zm0-6.7c0-.2 0-.4-.1-.4s-.1.1-.1.3c-.2.2.2.3.2.1zm0 7.5c0-.2 0-.4-.1-.4s-.1.2-.1.4c-.2 0 .2.2.2 0zM45.5 54c.3-.3.3-.3.2-.4-.1-.1-.1-.1-.4.2-.1.1-.1.1 0 .2s.2.1.2 0zm4.3-32.6v-.3c0-.1-.2-.1-.2 0v.3c-.1.1.2.1.2 0zm0 .9c0-.2 0-.4-.1-.4s-.1.2-.1.4c-.2 0 .2.2.2 0zm-3.3 27.3c-.2 0-.4 0-.4.1s.2.1.4.1c0 0 .1-.2 0-.2zm3.3-26.5c0-.2 0-.4-.1-.4s-.1.2-.1.4c-.1.1.2.1.2 0zm0-4.2c0-.2 0-.4-.1-.4s-.1.2-.1.4c-.1.1.2.1.2 0zm0-3.3c0-.2 0-.4-.1-.4s-.1.2-.1.4c-.2 0 .2.2.2 0zm0-.8c0-.2 0-.4-.1-.4s-.1.2-.1.4c-.2 0 .2.2.2 0zm0-.9c0-.2 0-.4-.1-.4s-.1.2-.1.4c-.1.1.2.1.2 0zm0 3.4c0-.2 0-.4-.1-.4s-.1.2-.1.4c-.2 0 .2.2.2 0zm0-.9c0-.2 0-.4-.1-.4s-.1.2-.1.4c-.1.1.2.1.2 0zm0 1.7c0-.2 0-.4-.1-.4s-.1.2-.1.4c-.2 0 .2.2.2 0zm41.5 31.6c.2 0 .4 0 .4-.1-.5-.3-.6.1-.4.1zM49.7 77.8c-.1 0-.1.2-.1.4 0 .1.2.1.2 0 0-.2 0-.3-.1-.4zm23.1-28.2c0 .1.2.1.4.1.1 0 .1-.2 0-.2 0 0-.4 0-.4.1zm-.3.1c0-.1-.1-.1 0 0-.3-.1-.5-.1-.5 0s.2.1.5 0c0 .1 0 .1 0 0zm.8-23.5c.3-.3.3-.3.2-.4-.1-.1-.1-.1-.4.2-.1.1-.1.1 0 .2s.2.1.2 0zm-15.2 32c.1-.1.1-.1-.2-.4-.1-.1-.1-.1-.2 0s-.1.1.2.4h.2zm16-8.5c0-.1-.2-.1-.4-.1-.1 0-.1.2 0 .2 0 0 .4 0 .4-.1zm0-24.3c.1-.1.1-.1 0-.2s-.1-.1-.2 0c-.3.3-.3.3-.2.4.1.1.1.1.4-.2zm-2 2c.3-.3.3-.3.2-.4-.1-.1-.1-.1-.2 0-.3.3-.3.3-.2.4.1.1.2.1.2 0zM49.6 76.3c0 .2 0 .4.1.4s.1-.2.1-.4c0-.1-.2-.1-.2 0zm23.1-49.5c.3-.3.3-.3.2-.4-.1-.1-.1-.1-.4.2-.1.1-.1.1 0 .2s.2.1.2 0zm-1.9 22.9c0-.1-.2-.1-.4-.1-.1 0-.1.2 0 .2l.4-.1c0 .1 0 .1 0 0zM49.7 77c-.1 0-.1.2-.1.4 0 .1.2.1.2 0l-.1-.4zm21.5-27.2c.2 0 .4 0 .4-.1s-.2-.1-.4-.1c0-.2-.2.2 0 .2zm.3-21.8c.3-.3.3-.3.2-.4-.1-.1-.1-.1-.4.2-.1.1-.1.1 0 .2s.2.1.2 0zm3-2.9c.3-.3.3-.3.2-.4-.1-.1-.1-.1-.4.2-.1.1-.1.1 0 .2h.2zM55.8 55.8c.1-.1.1-.1-.2-.4-.1-.1-.1-.1-.2 0s-.1.1.2.4h.2zm11.4 11.4c-.1.1-.1.1.2.4.1.1.1.1.2 0s.1-.1 0-.2c-.3-.3-.3-.3-.4-.2zm.4-35.4c-.1-.1-.1-.1-.4.2-.1.1-.1.1 0 .2s.1.1.4-.2v-.2zm-.2 17.8c-.2 0-.4 0-.4.1s.2.1.4.1c0 0 .1-.2 0-.2zm7.2.2c.2 0 .4 0 .4-.1s-.2-.1-.4-.1c-.1-.1-.1.2 0 .2zM61.7 61.7c.1-.1.1-.1 0-.2-.3-.3-.3-.3-.4-.2-.1.1-.1.1.2.4 0 .1.1.1.2 0zm6.7 6.7c-.1.1-.1.1.2.4.1.1.1.1.2 0s.1-.1 0-.2c-.3-.3-.3-.3-.4-.2zm-.5-18.7c.2 0 .4 0 .4-.1-.5-.3-.6.1-.4.1zm-.1 18.1c-.1.1-.1.1.2.4.1.1.1.1.2 0s.1-.1 0-.2c-.3-.3-.3-.3-.4-.2zm-4.9-5.1c-.3-.3-.3-.3-.4-.2-.1.1-.1.1.2.4.1.1.1.1.2 0v-.2zm1 1.4c.1.1.1.1.2 0s.1-.1 0-.2c-.3-.3-.3-.3-.4-.2-.1.1-.1.1 0 .2l.2.2zm-1.6-1.8c.1-.1.1-.1-.2-.4-.1-.1-.1-.1-.2 0s-.1.1.2.4h.2zm2.9 2.9c.1-.1.1-.1 0-.2l-.2-.1c-.1-.1-.1-.1-.2 0s-.1.1.2.4c.1 0 .2 0 .2-.1zm1 .8H66c-.1.1-.1.1.2.4.1.1.1.1.2 0 .1 0 .1-.1-.2-.4zm-.6-.6c-.1-.1-.1-.1-.2 0s-.1.1.2.4c.1.1.1.1.2 0 .1 0 .1-.1-.2-.4zM49.7 87c-.1 0-.1.2-.1.4 0 .1.2.1.2 0l-.1-.4zm-.1 8.6c0 .1.2.2.2-.1 0-.1-.2-.2-.2.1zm.1-30.3c-.1 0-.1.2-.1.4 0 .1.2.1.2 0 0 0 0-.4-.1-.4zm0 29.2c-.1 0-.1.1-.1.5 0 .1.2.1.2 0 0-.3 0-.4-.1-.5zm0-2.5c-.1 0-.1.2-.1.4 0 .1.2.1.2 0l-.1-.4zm0-25.8c-.1 0-.1.1 0 0-.1.3-.1.5 0 .5s.1-.1.1-.1c0-.2 0-.4-.1-.4zm0 27.5c-.1 0-.1.2-.1.4 0 .1.2.1.2 0l-.1-.4zm0-2.5c-.1 0-.1.2-.1.4 0 .1.2.1.2 0l-.1-.4zm-.1 1.8c0 .2 0 .4.1.4s.1-.2.1-.4c0-.1-.2-.1-.2 0zm.2-25.9c0-.1-.2-.1-.2 0 0 .2 0 .4.1.4s.1-.1.1-.1v-.3zm-.1 4.1c-.1 0-.1.2-.1.4 0 .1.2.1.2 0 0 0 0-.4-.1-.4zm0 .8c-.1 0-.1.2-.1.4 0 .1.2.1.2 0 0 0 0-.4-.1-.4zm0-1.7c-.1 0-.1.2-.1.4 0 .1.2.1.2 0 0 0 0-.4-.1-.4zm0-2.5c-.1 0-.1.2-.1.4 0 .1.2.1.2 0 0 0 0-.4-.1-.4zm0 .9c-.1 0-.1.1-.1.3 0 .1.2.1.2 0 0 0 0-.3-.1-.3zm0 .8c-.1 0-.1.2-.1.4 0 .1.2.1.2 0 0 0 0-.4-.1-.4zm0 19.2c-.1 0-.1.2-.1.4 0 .1.2.1.2 0l-.1-.4zm0-6.7c-.1 0-.1.2-.1.4 0 .1.2.1.2 0l-.1-.4zm0 .8c-.1 0-.1.2-.1.4 0 .1.2.1.2 0 0-.2 0-.3-.1-.4zm0 1.7c-.1 0-.1.2-.1.4 0 .1.2.1.2 0l-.1-.4zm-.1-.7c0 .2 0 .4.1.4s.1-.2.1-.4c0-.1-.2-.1-.2 0zm.1-4.3c-.1 0-.1.2-.1.4 0 .1.2.1.2 0l-.1-.4zm0 .8c-.1 0-.1.2-.1.4 0 .1.2.1.2 0l-.1-.4zm-.1 1v.3c0 .1.2.1.2 0v-.3c0-.1-.2-.1-.2 0zm0 6.7c0 .2 0 .4.1.4s.1-.2.1-.4c0-.1-.2-.1-.2 0zm0-9.2c0 .2 0 .4.1.4s.1-.2.1-.4c0-.1-.2-.1-.2 0zm.1 6.5c-.1 0-.1.2-.1.4 0 .1.1.1.1.1.1 0 .1-.2 0-.5zm-.1 5.2c0 .2 0 .4.1.4s.1-.2.1-.4c0-.1-.2-.1-.2 0zm.1-1c-.1 0-.1.2-.1.4 0 .1.2.1.2 0l-.1-.4zm-.1-3.2c0 .2 0 .4.1.4s.1-.2.1-.4c0-.1-.2-.1-.2 0zM69 69c-.1.1-.1.1.2.4.1.1.1.1.2 0s.1-.1 0-.2c-.3-.3-.3-.3-.4-.2zm10.2-49.1c-.3.3-.3.3-.2.4.1.1.1.1.4-.2.1-.1.1-.1 0-.2h-.2zM18.1 49.6c-.2 0-.4 0-.4.1s.1.1.3.1c.1 0 .2-.2.1-.2zm63.3 31.8c-.1.1-.1.1.2.4.1.1.1.1.2 0s.1-.1 0-.2c-.3-.3-.3-.3-.4-.2zm.2-31.8c-.2 0-.4 0-.4.1s.2.1.4.1c0 0 .1-.2 0-.2zm0-32c-.3.3-.3.3-.2.4.1.1.1.1.4-.2.1-.1.1-.1 0-.2s-.2-.1-.2 0zm2.2 32.1c.2 0 .4 0 .4-.1-.5-.3-.6.1-.4.1zm-5.4 28.7c-.1.1-.1.1.2.4.1.1.1.1.2 0s.1-.1 0-.2c-.3-.3-.3-.3-.4-.2zm4-28.9c-.2 0-.4 0-.4.1s.2.1.4.1c.1 0 .1-.1 0-.2.1.1.1 0 0 0zm.6 0c-.1 0-.1.2 0 .2.2 0 .4 0 .4-.1-.1-.1-.2-.1-.4-.1zM49.7 72.8c-.1 0-.1.2-.1.4 0 .1.2.1.2 0 0 0 0-.4-.1-.4zM79.2 79H79c-.1.1-.1.1.2.4.1.1.1.1.2 0s.1-.1-.2-.4zm.8-29.3c0-.1-.2-.1-.4-.1-.1 0-.1.2 0 .2 0 0 .4 0 .4-.1zm-.4 29.9c-.1.1-.1.1.2.4.1.1.1.1.2 0s.1-.1 0-.2c-.3-.3-.3-.3-.4-.2zm.6.6c-.1.1-.1.1.2.4.1.1.1.1.2 0s.1-.1 0-.2c-.3-.3-.3-.3-.4-.2zm-.4-60.9c-.3.3-.3.3-.2.4.1.1.1.1.4-.2.1-.1.1-.1 0-.2h-.2zm1 30.3c-.2 0-.4 0-.4.1s.2.1.4.1c0 0 .1-.2 0-.2zM82.2 82c-.1-.1-.1-.1-.2 0s-.1.1.1.3c.1.1.1.1.2 0 0-.1 0-.2-.1-.3zm10.2-32.5h-.3c-.1 0-.1.2 0 .2.2 0 .4 0 .3-.2.2.1.1 0 0 0zm-7.5 0h-.3c-.1 0-.1.2 0 .2.2 0 .4 0 .3-.2.2.1.1 0 0 0zm8.4 0c-.2 0-.4 0-.4.1s.2.1.4.1c.1 0 .1-.1 0-.2zm.5.2c.2 0 .4 0 .4-.1-.5-.3-.6.1-.4.1zm1.7-.2c-.1 0-.2.2.1.2.1 0 .1-.1.1-.1.1 0 0-.1-.2-.1zm-4.7 0c-.2 0-.4 0-.4.1s.2.1.4.1c.1 0 .1-.1 0-.2zm4.1 0c-.2 0-.4 0-.4.1s.2.1.4.1c.1 0 .1-.1 0-.2.2.1.1 0 0 0zm-45.3-7.1c.1 0 .1-.2.1-.4 0-.1-.2-.1-.2 0 0 0 0 .4.1.4zm36.7 7.3c.2 0 .4 0 .4-.1-.5-.3-.6.1-.4.1zm-.6-.2h-.3c-.1 0-.1.2 0 .2h.3c.1 0 .1-.1 0-.2.2.1.1 0 0 0zm1.7 0h-.3c-.1 0-.1.2 0 .2.2 0 .4 0 .3-.2.2.1.1 0 0 0zm2.5 0h-.3c-.1 0-.1.2 0 .2.2 0 .4 0 .3-.2.2.1.1 0 0 0zm-1.6 0c-.2 0-.4 0-.4.1s.2.1.4.1c.1 0 .1-.1 0-.2zm.5.2c.2 0 .4 0 .4-.1-.5-.3-.6.1-.4.1zM81 18.6c.3-.3.3-.3.2-.4-.1-.1-.1-.1-.4.2-.1.1-.1.1 0 .2h.2zm-8.5 53.9c-.1.1-.1.1.2.4.1.1.1.1.2 0s.1-.1 0-.2c-.3-.3-.3-.3-.4-.2zm5.5-51c.3-.3.3-.3.2-.4-.1-.1-.1-.1-.4.2-.1.1-.1.1 0 .2s.2.1.2 0zm.7 28.3c.2 0 .4 0 .4-.1s-.2-.1-.4-.1c0-.2-.2.2 0 .2zm-.1-28.9c.3-.3.3-.3.2-.4-.1-.1-.1-.1-.4.2-.1.1-.1.1 0 .2s.2.1.2 0zm-4.9 52.8c-.1.1-.1.1.2.4.1.1.1.1.2 0s.1-.1 0-.2c-.3-.3-.3-.3-.4-.2zm-.6-.6c-.1.1-.1.1.2.4.1.1.1.1.2 0s.1-.1 0-.2c-.3-.3-.3-.3-.4-.2zm-1.2-1.2c-.1.1-.1.1.2.4.1.1.1.1.2 0s.1-.1 0-.2c-.3-.3-.3-.3-.4-.2zm8.7-53c.1-.1.1-.1 0-.2s-.1-.1-.2 0c-.3.3-.3.3-.2.4.1.1.1.1.4-.2zm-4.3 4.4c.3-.3.3-.3.2-.4-.1-.1-.1-.1-.4.2-.1.1-.1.1 0 .2h.2zm-5 48.1c-.1.1-.1.1.2.4.1.1.1.1.2 0s.1-.1 0-.2c-.3-.3-.3-.3-.4-.2zm3.8-46.9c.3-.3.3-.3.2-.4-.1-.1-.1-.1-.4.2-.1.1-.1.1 0 .2h.2zm-4.9 45.7c-.1.1-.1.1.2.4.1.1.1.1.2 0s.1-.1 0-.2c-.3-.3-.3-.3-.4-.2zm.5.6c-.1.1-.1.1.2.4.1.1.1.1.2 0s.1-.1 0-.2c-.3-.3-.3-.3-.4-.2zm7.5-21.3h-.3c-.1 0-.1.2 0 .2.2 0 .4 0 .3-.2.2.1.1 0 0 0zm-1.3-26.8c.3-.3.3-.3.2-.4-.1-.1-.1-.1-.4.2-.1.1-.1.1 0 .2h.2zm-.8 53.4c-.1.1-.1.1.2.4.1.1.1.1.2 0s.1-.1 0-.2c-.3-.3-.3-.3-.4-.2zm1.4-26.4c0-.1-.1-.1 0 0-.3-.1-.5-.1-.5 0s.2.1.5 0c0 .1 0 .1 0 0zm-.9-.1c-.2 0-.4 0-.4.1s.2.1.4.1c0 0 .1-.2 0-.2zm.1 27.1c-.1.1-.1.1.2.4.1.1.1.1.2 0s.1-.1 0-.2c-.3-.3-.3-.3-.4-.2zm1.1 1.2c-.1.1-.1.1.2.4.1.1.1.1.2 0s.1-.1 0-.2c-.3-.3-.3-.3-.4-.2zm-.4-56.2c-.3.3-.3.3-.2.4.1.1.1.1.4-.2.1-.1.1-.1 0-.2h-.2zm-.2 55.6c-.1.1-.1.1.2.4.1.1.1.1.2 0s.1-.1 0-.2c-.3-.3-.3-.3-.4-.2zm-1.7-1.8c-.1.1-.1.1.2.4.1.1.1.1.2 0s.1-.1 0-.2c-.3-.3-.3-.3-.4-.2zm6.7-58.1c.2-.2.2-.2.1-.3-.1-.1-.1-.1-.3.1-.1.1-.1.1 0 .2h.2zm-6.5 6.1c-.3.3-.3.3-.2.4.1.1.1.1.4-.2.1-.1.1-.1 0-.2s-.2-.1-.2 0zm-.8 51.4c-.1.1-.1.1.2.4.1.1.1.1.2 0s.1-.1 0-.2c-.3-.3-.3-.3-.4-.2zm-.6-.6c-.1.1-.1.1.2.4.1.1.1.1.2 0s.1-.1 0-.2c-.3-.3-.3-.3-.4-.2zm1.1-24.5c.2 0 .4 0 .4-.1s-.1-.1-.5-.1v-.2H75v.6h.3l.1-.2zm-5.8 19.8c-.1.1-.1.1.2.4.1.1.1.1.2 0s.1-.1 0-.2c-.3-.3-.3-.3-.4-.2zm11.2 11.2c-.1.1-.1.1.2.4.1.1.1.1.2 0s.1-.1 0-.2c-.3-.3-.3-.3-.4-.2zM30.2 69c-.3.3-.3.3-.2.4.1.1.1.1.2 0 .3-.3.3-.3.2-.4-.1-.1-.2-.1-.2 0zm-.6.6c-.3.3-.3.3-.2.4.1.1.1.1.4-.2.1-.1.1-.1 0-.2s-.2-.1-.2 0zm1.2-1.2c-.3.3-.3.3-.2.4.1.1.1.1.4-.2.1-.1.1-.1 0-.2s-.2-.1-.2 0zM29 70.2c-.3.3-.3.3-.2.4.1.1.1.1.4-.2.1-.1.1-.1 0-.2s-.2-.1-.2 0zm-3 2.9c-.3.3-.3.3-.2.4.1.1.1.1.4-.2.1-.1.1-.1 0-.2H26zm.6-.6c-.3.3-.3.3-.2.4.1.1.1.1.4-.2.1-.1.1-.1 0-.2h-.2zm4.7-4.7c-.3.3-.3.3-.2.4.1.1.1.1.4-.2.1-.1.1-.1 0-.2h-.2zm-2.9 3c-.3.3-.3.3-.2.4.1.1.1.1.4-.2.1-.1.1-.1 0-.2s-.2-.1-.2 0zm-1.2 1.1c-.3.3-.3.3-.2.4.1.1.1.1.4-.2.1-.1.1-.1 0-.2h-.2zm37.4-7.2c.1-.1.1-.1-.2-.4-.1-.1-.1-.1-.2 0s-.1.1 0 .2c.3.3.3.3.4.2zm-36.8 6.7c-.3.3-.3.3-.2.4.1.1.1.1.4-.2.1-.1.1-.1 0-.2s-.2-.1-.2 0zm3.6-21.6c.1 0 .1-.2 0-.2-.2 0-.4 0-.4.1s.2.1.4.1zm4.1 13.9c-.3.3-.3.3-.2.4.1.1.1.1.4-.2.1-.1.1-.1 0-.2s-.2-.1-.2 0zm1.9-1.8c-.1-.1-.1-.1-.2 0-.3.3-.3.3-.2.4.1.1.1.1.4-.2.1-.1.1-.1 0-.2zm-.5.6c-.1-.1-.1-.1-.2 0-.3.3-.3.3-.2.4.1.1.1.1.2 0 .3-.3.3-.3.2-.4zm2.1-2c.3-.3.3-.3.2-.4-.1-.1-.1-.1-.4.2l-.1-.1-.1-.2-.2.2.4.4.2-.1c-.1.1 0 .1 0 0zm-1.2.8c-.3.3-.3.3-.2.4.1.1.1.1.4-.2.1-.1.1-.1 0-.2h-.2zm-3.3 3.6c-.1-.1-.1-.1-.4.2-.1.1-.1.1 0 .2s.1.1.4-.2v-.2zm-1.4 1.5c.3-.3.3-.3.2-.4-.1-.1-.1-.1-.4.2-.1.1-.1.1 0 .2s.2.1.2 0zm31.7-31.9c.1.1.1.1.4-.2.1-.1.1-.1 0-.2s-.1-.1-.4.2v.2zM32.3 49.6c-.2 0-.4 0-.4.1s.2.1.4.1c0 0 .1-.2 0-.2zm32.1-14.9c-.3.3-.3.3-.2.4.1.1.1.1.4-.2.1-.1.1-.1 0-.2h-.2zM33.9 65.4c-.1-.1-.1-.1-.4.2-.1.1-.1.1 0 .2s.1.1.2 0c.3-.3.3-.3.2-.4zm29.7-15.8c0 .1.2.1.4.1.1 0 .1-.2 0-.2 0 0-.4 0-.4.1zm-42.1.1c0-.1-.2-.1-.4-.1-.1 0-.1.2 0 .2 0 0 .4 0 .4-.1zm-.8 28.7c-.3.3-.3.3-.2.4.1.1.1.1.4-.2.1-.1.1-.1 0-.2h-.2zm.4-57.3c-.1.1-.1.1.2.4.1.1.1.1.2 0s.1-.1 0-.2c-.3-.3-.3-.3-.4-.2zm1 1c.1-.1.1-.1-.2-.4-.1-.1-.1-.1-.2 0s-.1.1 0 .2c.3.3.3.3.4.2zm-.8 55.8c-.3.3-.3.3-.2.4.1.1.1.1.4-.2.1-.1.1-.1 0-.2s-.2-.1-.2 0zM20.1 79c-.3.3-.3.3-.2.4.1.1.1.1.2 0 .3-.3.3-.3.2-.4h-.2zM19 49.7c0-.1-.1-.1-.1-.1-.2 0-.4 0-.4.1s.2.1.4.1c.1 0 .1 0 .1-.1zm-.7 31.1c-.3.3-.3.3-.2.4.1.1.1.1.4-.2.1-.1.1-.1 0-.2h-.2zm1.2-1.2c-.3.3-.3.3-.2.4.1.1.1.1.4-.2.1-.1.1-.1 0-.2h-.2zm-.6.6c-.3.3-.3.3-.2.4.1.1.1.1.4-.2.1-.1.1-.1 0-.2h-.2zm.8-30.7h-.3c-.1 0-.1.2 0 .2.2 0 .4 0 .4-.1.1 0 0-.1-.1-.1zm4.2-25.6c.1-.1.1-.1 0-.2-.3-.3-.3-.3-.4-.2-.1.1-.1.1 0 .2.3.3.3.3.4.2zm-2 53.4c-.3.3-.3.3-.2.4.1.1.1.1.4-.2.1-.1.1-.1 0-.2s-.2-.1-.2 0zm3.5-3.6c-.3.3-.3.3-.2.4.1.1.1.1.4-.2.1-.1.1-.1 0-.2h-.2zm-.6.6c-.3.3-.3.3-.2.4.1.1.1.1.2 0 .3-.3.3-.3.2-.4h-.2zm-.8.8c-.1.1-.1.1 0 .2s.1.1.4-.2c.1-.1.1-.1 0-.2 0-.1-.1-.1-.4.2zm-1.1-52.2c-.1.1-.1.1.2.4.1.1.1.1.2 0s.1-.1 0-.2c-.3-.3-.3-.3-.4-.2zm.8 52.6c-.3.3-.3.3-.2.4.1.1.1.1.4-.2.1-.1.1-.1 0-.2s-.2-.1-.2 0zm-.6.6c-.3.3-.3.3-.2.4.1.1.1.1.4-.2.1-.1.1-.1 0-.2s-.2-.1-.2 0zm-.6.6c-.3.3-.3.3-.2.4.1.1.1.1.4-.2.1-.1.1-.1 0-.2s-.2-.1-.2 0zm-.2-27.1c-.2 0-.4 0-.4.1s.2.1.4.1c0 0 .1-.2 0-.2zm.8 0c-.2 0-.4 0-.4.1s.2.1.4.1c0 0 .1-.2 0-.2zm47.3-20.4c.3-.3.3-.3.2-.4-.1-.1-.1-.1-.4.2-.1.1-.1.1 0 .2s.1 0 .2 0zm-.6.6c.3-.3.3-.3.2-.4-.1-.1-.1-.1-.4.2-.1.1-.1.1 0 .2h.2zm-4.4 19.7c-.1 0-.1.2 0 .2.2 0 .4 0 .4-.1s-.2-.1-.4-.1zm3.7.1c-.2 0-.4 0-.4.1s.1.1.3.1c.1 0 .2-.2.1-.2zm.4 0c0 .1.2.1.4.1.1 0 .1-.2 0-.2 0 0-.4 0-.4.1zm-19.9 25v.3c0 .1.2.1.2 0v-.3c0-.1-.2-.1-.2 0zM67 67c.1-.1.1-.1-.2-.4-.1-.1-.1-.1-.2 0s-.1.1 0 .2c.3.3.3.3.4.2zm1.6-36c.3-.3.3-.3.2-.4-.1-.1-.1-.1-.4.2-.1.1-.1.1 0 .2h.2zm.6-.6c.3-.3.3-.3.2-.4-.1-.1-.1-.1-.4.2-.1.1-.1.1 0 .2h.2zM68 31.6c.3-.3.3-.3.2-.4-.1-.1-.1-.1-.4.2-.1.1-.1.1 0 .2h.2zm-2.6 2.3c.1.1.1.1.4-.2.1-.1.1-.1 0-.2s-.1-.1-.2 0c-.3.3-.3.3-.2.4zM43.2 56.4c.3-.3.3-.3.2-.4-.1-.1-.1-.1-.4.2-.1.1-.1.1 0 .2h.2zM67 32.3c-.1-.1-.1-.1-.2 0-.3.3-.3.3-.2.4.1.1.1.1.4-.2.1 0 .1-.1 0-.2zm3.9-3.7c.3-.3.3-.3.2-.4-.1-.1-.1-.1-.4.2-.1.1-.1.1 0 .2s.2.1.2 0zm-4.3 21c-.2 0-.4 0-.4.1s.2.1.4.1c0 0 .1-.2 0-.2zm-.4-16.7c-.3.3-.3.3-.2.4.1.1.1.1.4-.2.1-.1.1-.1 0-.2h-.2zM49.7 73.7c-.1 0-.1.2-.1.4 0 .1.2.1.2 0 0 0 0-.4-.1-.4zM58.5 62l.4-.3.2.2-.4.3-.2-.2zm3-22.3-.2-.2-.2.2.2.2.1.2.2-.2-.1-.2zm1.1-11.9.2-.2-.2-.2-.3-.1-.1.2.2.1.2.2zm-1.1 31.8.2-.2-.2-.2-.1.2-.2.2.2.2.1-.2zm1.4-31.5.2-.3.5.3-.2.3-.5-.3zm-1.3 12.2.2-.2.3.4-.2.2-.3-.4zm-2.5-2.5.2-.2.4.3-.2.2-.4-.3zm3.7 3.7-.2-.2-.2.2.2.4.2-.1v-.3zm-.8-.7.2-.2.3.4-.2.2-.3-.4zm2.4 12.6.1-.5.3.1-.1.5-.3-.1zm-.7 2 .2-.5.3.1-.2.5-.3-.1zm-15.2 9.7v-.3h.5v.3h-.5zm15.2-8.9.2-.4-.3-.1-.2.4.3.1zm-5.1-18.8.2-.2.4.3-.2.2-.4-.3zm4.2 20.5.1-.2-.2-.1-.2.4.2.2.1-.3zm-.9.6.3-.4.2.2-.3.4-.2-.2zm5-27.5.2-.2-.2-.2h-.1l-.2-.2-.2.2c.4.2.2.1.5.4zm-5.3 28 .3-.4.2.2-.3.4-.2-.2zm2.3-4.2.2-.5.3.1-.2.5-.3-.1zm-.8-12.1.3-.1.2.4-.3.1-.2-.4zm-8.4-7.3.1-.3.5.2-.1.3-.5-.2zm14.8-1.5.2-.2.4.5-.2.2-.4-.5zm-12.8 2.3.2-.3.4.2-.2.3-.4-.2zm11.8 30.9.2-.2h.1l.1-.3-.2-.1-.4.4.2.2zm1.9-32.5-.2-.2-.2.1.4.4.2-.2-.2-.1zm-1.5-1.5.2-.2.4.5-.2.2-.4-.5zm-13.5 2.6.1-.3.5.2-.1.3-.5-.2zm2.4-10.1.1-.3-.6-.2-.1.3.6.2zm-1.4-.4.1-.3.6.2-.1.2-.6-.1zm.3 38 .4-.3.2.3-.4.3-.2-.3zm.7-26.6.2-.3.4.2-.2.3-.4-.2zm-1.1-.6.2.1.1-.2-.4-.2-.1.3h.2zm-.8-11 .1-.3.6.2-.1.3-.6-.2zm3.4 1 .1-.3.6.2-.1.3-.6-.2zm4.7 2.5.2-.3.5.3-.2.3-.5-.3zM62.8 42l.3-.1.2.4-.3.1-.2-.4zm1.7 10.8.1-.5.3.1-.1.5-.3-.1zm-1.8 4.6.2-.4.3.1-.2.4-.3-.1zm2.3-5.9h-.3v.5l.3.1v-.6zm-1.2-8.1-.1-.2-.2.1.2.4.3-.1-.2-.2zm-5.4-6.2.2-.2-.2-.2-.2-.1-.3.3.2.1.3.1zm6.7 12.5v-.3h-.3v.1c-.2 0-.4 0-.4.1s.2.1.4.1v.1l.3-.1c0 .1 0 0 0 0zm3.6-16.8.2-.2-.1-.2h-.1l-.2-.2-.2.2.4.4zm-3.9-3.6.2-.2-.4-.4-.2.3.2.2.2.1zm0 21.3v-.5h.3v.5h-.3zm-6.7-24.9.1-.3.6.2-.1.3-.6-.2zm6.7 25.7v-.5h.3v.5h-.3zm10.4-4.7h-.3v.6h.3v-.6zm-1.1-5-.1-.2-.3.1.2.6.3-.1-.1-.4c0 .1 0 0 0 0zm-9.6 3.7-.1-.3-.3.1.2.4.3-.1-.1-.1zm-19.9 5.7.1.3.3-.1-.2-.6h-.3l.1.4zm20-4.5.3-.1.1.5-.3.1-.1-.5zm-19.6.8s-.1 0 0 0l-.1.4.3.1.1-.3.2-.3-.2-.2-.3.3zm20 .1-.1-.3-.3.1.1.2v.2h.3v-.2zm-20.5 1.1v.4h.3v-.3l.1-.3-.3-.1-.1.3zm4-14.3h.5v.3h-.5v-.3zm15.9 11.6.3-.1.1.5-.3.1-.1-.5zm6.1-10.7.3-.2.3.5-.3.2-.3-.5zm3 23.4.2-.6.3.1-.2.6-.3-.1zm.7-2.5.2-.6.3.1-.2.6-.3-.1zm-1.1-16.2.3-.1.2.6-.3.1-.2-.6zM45.6 52.4l-.2-.3-.1-.3-.3.2.1.3.2.3.3-.2zm27.8-11.6.3-.1.2.6-.3.1-.2-.6zm-2.9 23.3.3-.5.3.2-.3.5-.3-.2zM72 37.5l.3-.1.3.5-.4.1-.2-.5zm-.2-.3.2-.1-.1-.3-.2-.2-.2.2.2.2.1.2zm-24.7-2.8.5-.1.1.3-.5.1-.1-.3zM65 29.5l.2-.2.5.4-.2.2-.5-.4zM64.8 48h.3v.5h-.3V48zm7.1 14.5.1-.3-.2-.1-.1.2-.2.2.2.2.2-.2zM73 39.6l.3-.1c-.1-.2-.1-.4-.2-.5l-.2.1.1.5zm-.7 21.5.3-.5.3.1-.3.5-.3-.1zM46.5 45.9c.3-.3.1-.2.5-.4l-.1-.2-.6.4.2.2zm18.3 2.8h.3v.5h-.3v-.5zM46.4 34.6l.5-.1.1.3-.5.1-.1-.3zm26 3.7.3-.1.3.5-.3.1-.3-.5zM60.2 61l-.2-.2-.4.4.2.2.4-.4zm13.7-18.5.3-.1.2.6h-.3l-.2-.5zm1.1 5.1h.3v.6H75v-.6zM46.4 64.8l.1-.3.5.1-.1.3-.5-.1zm.9-10.8-.3-.1-.3-.2-.2.2.3.2.3.1.2-.2zm27.5-8.2h.3l.1.6h-.3l-.1-.6zm-.2-.8h.3l.1.6h-.3l-.1-.6zM47 64.9l.1-.3.5.1-.1.3-.5-.1zm18.8-34.8.2-.2.5.4-.2.2-.5-.4zm-4.5-2.9.1-.3.5.3-.1.3-.5-.3zM48.1 45l-.1-.3-.3.1-.3.2.1.2.3-.2h.3zm.9-.2h.3v-.3H49l-.3.1.1.3.2-.1zM71.1 36l.3-.2.3.5-.3.2-.3-.5zm-7.4 7.9.2.5.2-.1-.1-.5-.3.1zm-3-4.7.2-.2.3.4-.2.2-.3-.4zm-.5-12.6.1-.2-.6-.2-.1.3.3.1h.3zm14.7 25.2v-.6h.3v.6h-.3zm-10.7 2.3.3.1c.1-.3.1-.1.2-.5l-.3-.1c-.1.3-.1.1-.2.5zM75 50.8v-.6h.3v.6H75zm-.8-7.6.3-.1.2.6-.3.1-.2-.6zM59.8 38l-.2.2.4.4.2-.2-.4-.4zM75 48.5h.3v.6H75v-.6zM60.6 26.8l.1-.3.5.3-.1.2-.5-.2zm13.8 17.3.2.6.2-.1v-.3l-.1-.2h-.3zm-28.8 2.2-.2.3.2.2c.2-.4.1-.2.4-.5.1.1.1.1.2 0s.1-.1-.2-.4c-.1-.1-.1-.1-.2 0v.1l-.2.3zm14.5-7.6.1.2c-.2.2-.2.2-.1.3.1.1 0 .2.6-.4l-.4-.4-.2.3zm14.5 15.7.1-.6h.3l-.1.6h-.3zm.6-2.3h-.3v.5l.3.1v-.6zm-11.3-7.5.3-.1.2.5h-.3l-.2-.4zm-3.4 15.7c-.3-.3-.3-.3-.4-.2-.1.1-.1.1.2.4l-.1.2.2.2.4-.4-.3-.2zm14.2-6.8.1-.6h.3l-.1.7-.3-.1zM43.1 74.4l.1-.3.6.2-.1.3-.6-.2zm-7.5-18.3.3-.1.2.5-.3.1-.2-.5zm-.5 14.6.2-.3.5.3-.2.3-.5-.3zm.7.6.2-.3.5.3-.2.3-.5-.3zm1.5.9.1-.3.5.3-.1.3-.5-.3zm13.2-27.4.1-.3-.3-.1H50v.3h.3l.2.1zM38.1 72.6l.1-.3.5.3-.1.3-.5-.3zm-3.6-2.5-.2.2.4.4.2-.2-.4-.4zm-4.6-4.2.2-.2.4.5-.2.2-.4-.5zm1.1 1.4.2-.2.4.4-.2.2-.4-.4zm.6.6.4.4.2-.2-.4-.4-.2.2z"/>
	<path fill="#818181" opacity=".9" d="m38.8 60.7.2-.2.4.3-.2.2-.4-.3zm-6.3 7.7-.2.2.4.4.2-.3-.2-.1-.2-.2zm1.1 1.3.2-.2.5.4-.2.2-.5-.4zm-.7-.6.2-.2.5.4-.2.2-.5-.4zm7.6-7 .2-.2.4.3-.1.2-.5-.3zm3.7 1.7H44l-.2-.1-.1.3.4.2.1-.4zm-1.9 10.5.1-.3.6.2-.1.3-.6-.2zm.7-10.7.1-.3.4.2-.1.3-.4-.2zm1.1 10.9-.1.2.6.2.1-.3-.3-.1h-.3zm.8.4v-.3l.6.1v.3l-.6-.1zm-.5-10.8.1-.3.5.2-.1.3-.5-.2zm-4.3-2.6-.2.2.2.2.2.1.2-.2-.2-.1-.2-.2zm-1 11.3-.1.2.6.2.1-.3-.3-.1h-.3zm2.8-10.1-.2.2.4.2.1-.3-.3-.1zm-2.1 10.6.1-.3.6.2-.1.3-.6-.2zm-10.5-8 .2-.2.4.5-.2.2-.4-.5zm12.3 8.4-.1.3.6.2.1-.3-.6-.2zm-.9 0 .1-.3.6.2-.1.3-.6-.2zM24.2 46.4l.1-.6h.3l-.1.6h-.3zm.2-.9.1-.6h.3l-.1.6h-.3zm.3 10.1.3-.1.2.6-.3.1-.2-.6zm.2-11.5-.3-.1c-.1.2-.1.4-.1.6h.3l.1-.5zM45 64.4l.1-.3.5.2-.1.3-.5-.2zM24.1 47.3h.3v-.6h-.3v.6zm0 .9v-.6h.3v.6h-.3zm1.4-6.4.1-.3-.3-.1-.1.3v.3l.3.1v-.3zm0 16.4.3-.1.2.6-.3.1-.2-.6zm-.1-17 .2-.6.3.1-.2.6-.3-.1zm.4-.8.2-.6.3.1-.2.6-.3-.1zm-1.7 8.7v-.6h.3v.6h-.3zm.6-5.3.2-.6.3.1-.2.6-.3-.1zm.2-1 .2-.6.3.1-.2.6-.3-.1zm0 12.4-.1-.2v-.3h-.3v.3l.1.3.3-.1zm1.6 4.8-.1-.3-.3.1.2.6.2-.1V60zm-.7-.9.3-.1.2.6H26l-.2-.5zM24 50.3h.3v.6H24v-.6zm.9 6.1.3-.1.2.6-.3.1-.2-.6zm2.9 6.6.3-.2.3.5-.3.2-.3-.5zm-.9-1.5.3-.1.3.5-.3.1-.3-.5zm-1.6-3.6.3-.1-.2-.6-.3.1.2.6zm3.6 6.9.2.2.2-.2-.2-.2-.1-.2-.2.2.1.2zm-4.6-11.9h.3l.1.6h-.3l-.1-.6zm-.2-1.7h.3v.6h-.3v-.6zm0 1.5h.3v-.6h-.3v.6zm.2-2.7v-.6H24v.2c-.3 0-.5 0-.5.1s.1.1.5.1v.2h.3zm.1 3.8h.3l.1.6h-.3l-.1-.6zM74.5 55l-.1.3.3.1.1-.3v-.3h-.3v.2zM62.9 71.4l.5-.3.2.3-.6.2-.1-.2zm4.2-3.3.4-.4.2.2-.4.4-.2-.2zm-4-11.4.2-.4.3.1-.2.4-.3-.1zm1.3 13.7.2.2.4-.4-.2-.2-.4.4zm2.3-1.8-.3.1.2.3.2-.2h.1l.2-.2-.2-.2-.2.2zm-.9.7.5-.4.2.2-.5.4-.2-.2zm-.8.5.5-.4.2.2-.5.4-.2-.2zm-1.4 1.1.5-.3.2.3-.5.3-.2-.3zm-3 1.7.5-.3.1.3-.5.3-.1-.3zm-.6.3-.3.1.1.3.6-.2-.1-.2H60zm-.9-11.3.4-.3.2.2-.4.3-.2-.2zm2.3 10.6.5-.3.1.3-.5.3-.1-.3zm-.7-12.1.3-.4.2.2-.3.4-.2-.2zm1.7 11.6-.3.1.1.3.3-.2.3-.1-.2-.3-.2.2zm5.4-39.8.2-.2.4.4-.2.2-.4-.4zm5.3 27.6.2-.6.3.1-.2.6-.3-.1zm.6-1.7.3.1.2-.6-.3-.1-.2.6zm-.5 2H73l-.2.4.2.1c.1-.3.1-.1.2-.5zM74 57l.2-.6.3.1-.2.5H74zm-7-25.8.2-.2.4.4-.2.2-.4-.4zm4.9 30.6.3-.5.3.1-.3.6-.3-.2zM26.1 39.5l.3.1c.1-.4.1-.2.2-.5l-.3-.1c-.1.3-.1.1-.2.5zm19.8 25.2h.3v-.3H46l-.2-.1-.1.3.2.1zm21.8 2.9.4-.4.2.2-.4.4-.2-.2zm-8.8 5.7.6-.2.1.3-.6.2-.1-.3zm10.5-7.8.4-.5.2.2-.4.5-.2-.2zm.6-.7.2.2.4-.4-.2-.2-.4.4zm1.1-1.4.3-.5.3.2-.3.5-.3-.2zm-2.2 2.8.4-.5.2.2-.4.5-.2-.2zM49.7 65c.1-.3.1-.5 0-.5s-.1.1-.1.3h-.3v.3h.5l-.1-.1zm.2 10.1h-.6v.3h.2c0 .3 0 .5.1.5s.1-.1.1-.5h.2v-.3zm.4-.1h.6v.3h-.6V75zm.1-10.2H50v.3h.6l-.2-.3zm1-.1.5-.1v.3l-.5.1v-.3zM51.2 75h.6v.3h-.6V75zm-2.7.3V75h.6v.3h-.6zm-1 0V75h.6v.3h-.6zm-.8-.4v.3h.6v-.3h-.6zm-.8.1v-.3l.6.1v.3l-.6-.1zm1.9-10.3v.3h.6v-.3h-.6zm0-10.4-.1.3.6.2.1-.3-.6-.2zm4.5 20.6-.3.1v.3h.6V75l-.3-.1zM54.6 64l-.4.2.1.3c.4-.1.2-.1.5-.2l-.2-.3zm2.6 9.9.1.3.6-.2-.1-.3-.6.2zm-.8.3.6-.2.1.3-.6.2-.1-.3zm.1-10.6.2-.1-.1-.2-.4.2.1.3.2-.2c-.1 0-.1 0 0 0zm.9-.9.4-.2.1.3-.4.2-.1-.3zm-1.9 11.7.6-.2.1.3-.6.2-.1-.3zm2.8-11.9.2-.2-.2-.2-.2.2-.2.1.1.2.3-.1zm-5.4 12.3.6-.1v.3l-.6.1v-.3zm.9-.1.6-.1v.3l-.6.1v-.3zm4.3-1.1.6-.2.1.3-.6.2-.1-.3zm-5.3-9 .5-.1.1.3-.5.1-.1-.3zm2.7-.9.5-.2.1.3-.5.2-.1-.3zm-.6 10.8h-.3v.3h.3l.3-.1-.1-.3-.2.1zM54.8 64l.5-.2.1.3-.5.2-.1-.3zm-18.1 7.5-.2.2.2.2.3.1.1-.2c-.1-.1 0-.1-.4-.3zM46 34.9h.2v-.3h-.3l-.2.1.1.3.2-.1zm-1.1-10.4.6-.1v.3l-.6.1v-.3zM45 35l.5-.2.1.3-.5.2-.1-.3zm-.7.2.5-.2.1.3-.5.2-.1-.3zm-1.1-10.3.6-.2.1.3-.6.2-.1-.3zm1.5-.1v-.3c-.4 0-.2 0-.7.1l.1.3c.4-.1.2-.1.6-.1zm-.9 10.9.4-.2-.1-.3-.4.2.1.3zm2-11.4.6-.1v.3l-.6.1v-.3zm1.9 10v.3h.4v-.3h-.4zm.8-10.3h.6v.3h-.6V24zm1 10.5c0 .1 0 .3.1.3s.1-.2.1-.4c0 0 0-.1-.1-.1v-.1h-.5v.3h.4zm-2.2-10.1v-.3h-.6v.3h.6zm.3-.3h.6v.3h-.6v-.3zm-4.7 11.6.4-.2.1.3-.3.2-.2-.3zm-.6 27.6.1-.3.4.2-.1.3-.4-.2zm-1.6-37.6.6-.2.1.3-.6.2-.1-.3zm.5 11.1.4-.3.2.2-.4.3-.2-.2zm-.6.4.4-.2.2.2-.4.3-.2-.3zm.5 25.3.2-.2.4.3-.2.2-.4-.3zm-.9-25c-.1 0-.1 0 0 0l-.2.2.2.2.2-.2.2-.1-.2-.2-.2.1zm2.2-1.4.4-.2.1.3-.4.2-.1-.3zM39.8 26l.6-.2.1.3-.6.2-.1-.3zm2.1 10.3-.2.1.2.2.4-.2-.1-.3-.3.2zm.4-11.2.6-.2.1.3-.6.2-.1-.3zm7.1-.8h.6V24h-.2c0-.3 0-.5-.1-.5s-.1.1-.1.5h-.2v.3zm-7.6 1.2.3-.1-.1-.2-.6.2.1.3.3-.2zm-2.4 12.6.4-.3.2.2-.4.3-.2-.2zm0 23.1.2-.2.4.3-.2.2-.4-.3zm15.4-10.6v-.3h-.3v.3l-.1.3.3.1.1-.4zm0-2.2-.1-.3-.3.1.1.3v.3h.3v-.4zm.1 1.6v-.2l.1-.1s0-.1-.1-.1v-.3h-.3v.2c-.2 0-.3.2 0 .2v.1l.3.2zm-1-2.9.2.3.1.3.3-.1-.1-.3-.2-.3-.3.1zm-1.4-12.3.1-.3-.3-.1H52v.3h.2l.3.1zm1.1 17.9-.3.3.2.2c.3-.3.2-.1.4-.5l-.2-.1-.1.1zM53.5 35l.1-.3.5.1-.1.3-.5-.1zm-1.7 19.5.3-.2-.1-.2-.3.2-.3.1.1.3.3-.2zm-1.2.4.4-.1-.1-.3-.3.1h-.3v.3h.3zm.1-20.4v-.3l.5.1v.3l-.5-.1zm2 11.3.2-.2-.6-.4-.1.2.3.1.2.3zm-1.2-1-.4-.1-.1.2.6.2.1-.2-.2-.1zm.8 20.1.3-.1-.1-.3-.2.1h-.2v.3h.2zm-1.6-.1.5-.1v.3l-.5.1v-.3zM39.3 26.5l.3-.1-.1-.3-.3.1-.2.2.1.2.2-.1zm13.6-2v-.3l.6.1v.3l-.6-.1zm-.2 10.3.1-.3.5.1-.1.3-.5-.1zm-1.3-.2v-.3l.5.1v.3l-.5-.1zm1.2-10.1v-.3H52v.3h.6zm-2.3-.2V24h.6v.3h-.6zm.8.1v-.3h.6v.3h-.6zm3 10.8.4.2.1-.3-.1-.1-.3-.1-.1.3zm-4.2-.7h.4v-.3h-.6l.2.3zm4.6 17.3.1-.4-.3-.1c-.1.4-.1.2-.3.7l.2.1.3-.3zm-1 12.6.5-.1.1.3-.5.1-.1-.3zm.9-39.9-.6-.1v.3h.6v-.2zm-1.3 29.1-.1-.2c-.3.3-.1.2-.5.4l.1.2c.4-.2.2-.1.5-.4zm2.1-28.7.1-.3h-.6v.3h.5zM34.8 54.1l.3-.1.1.5H35l-.2-.4zm.6-10.1.2-.5.3.1-.2.5-.3-.1zM35 29l-.2-.2-.4.4.2.2c.1-.4 0-.3.4-.4zm.1-.4.5-.3.2.3-.5.3-.2-.3zm-1.5 1 .5-.4.2.2-.5.4-.2-.2zm-.6.6.5-.4.2.2-.5.4-.2-.2zm-.1.4-.2-.2-.4.4.2.2.4-.4zm1.6 22.3.1.2.3-.1-.1-.2v-.2h-.3v.3zm-.1-1h.3l.1.5h-.3l-.1-.5zm.9 3.5.3-.1.2.5-.3.1-.2-.5zm-1.1-6.5h.3v-.4h-.3v.4zm.1 2.3h.3l.1.5h-.3l-.1-.5zm.9 4 .3-.1-.2-.4-.3.1.2.4zm-3.5-23.8.4-.4.2.2-.4.4-.2-.2zm2.5 19.7h.3v-.4h-.3v.4zm-6.8 11.4.2.3.2-.2-.2-.2-.1-.2-.2.1.1.2zm.3-26.1.3-.5.3.2-.3.4-.3-.1zm.1.3-.2-.2-.2.2-.1.3.2.1.1-.2.2-.2zm-1.3 24 .3-.1.3.5-.3.1-.3-.5zm1.7-25.1.3-.5.3.2-.3.5-.3-.2zm-1.3 2.3.3-.5.3.1-.3.5-.3-.1zm2.4-3.8.4-.5.2.2-.4.5-.2-.2zm1.5 33 .2-.2-.4-.4-.2.1c.2.4.1.2.4.5zm-1-33.7.4-.5.2.2-.4.5-.2-.2zm1.2-.9-.2-.2-.4.4.2.2.4-.4zm-1.9 2.3.2-.2-.2-.2-.4.4.3.2.1-.2zm2.5-2.9-.2-.2-.4.4.2.2.4-.4zm-3.3 31.9.3-.2.3.5-.3.2-.3-.5zm6.2-17.3v.3h.3v-.2l.1-.2-.3-.1-.1.2zm1.8 10.8.3-.2.3.4-.3.2-.3-.4zm.4.6.3-.2.3.4-.3.2-.3-.4zm-.7-1 .1.2.2-.1-.2-.4-.3.1.2.2zm1.5 2.2.2-.2.3.4-.2.2-.3-.4zm-1.2-16.5.1-.2-.2-.1-.2.1-.1.2.3.1.1-.1zm.9 16.2.2.2.2-.2-.2-.2-.1-.2-.3.1.2.3zm.3-18.6.3-.4.2.2-.3.4-.2-.2zm.4 19.5.2-.2.3.4-.2.2-.3-.4zm.8-20.9-.4.4.2.2.3-.3c.3.3.3.3.4.2.1-.1.1 0-.2-.5h-.3c.1 0 .1.1 0 0zm-.8.9.3-.4.2.2-.3.4-.2-.2zm-1.3 1.7.3-.4.3.2-.3.4-.3-.2zm-.4.6.3-.4.3.2-.3.4-.3-.2zm1-1.4-.2.2.2.1v-.3l.3-.1-.2-.2-.1.3zM37 27.7l.2-.1-.1-.2-.3.1-.2.2.2.2.2-.2zM26.5 38.8l.3-.5.3.1-.3.5-.3-.1zm8.4 6.5.1-.5.3.1-.1.5-.3-.1zm.2-.9-.1.3.3.1.2-.4-.3-.1-.1.1zm-.5 9 .3-.1.1.5-.3.1-.1-.5zm4.3-14.8.4-.3.2.2-.4.3-.2-.2zm-4.5 8.9.1-.5h.3l-.1.5h-.3zm1.2-4.2.2-.5.3.1-.2.5-.3-.1zm.3-15.2.5-.3.2.3-.6.2-.1-.2zm-1.6 20.1.1-.5h.3l-.1.5h-.3zm3.1-21.1.5-.3.1.3-.5.3-.1-.3zm-3.2 23.2h.3v-.5c.1 0 .3 0 .3-.1s-.1-.1-.3-.1v-.5h-.3v.5h.1v.2h-.1v.5zm.5-4.3.1-.5.3.1-.1.5-.3-.1zm3.5-19.3.5-.3.1.3-.5.3-.1-.3z"/>
	<path fill="#11557c" d="M49.7 3c25.4 0 46.7 21.2 46.7 46.7 0 25.4-21.2 46.7-46.7 46.7C24.3 96.3 3 75.1 3 49.7S24.3 3 49.7 3zm0 1.4C25 4.4 4.4 25 4.4 49.7S25 95 49.7 95 95 74.4 95 49.7 74.3 4.4 49.7 4.4z"/>
	<path fill="#004cff" opacity=".6" d="m49.7 49.7 9.7-3.2c.5 1.2.5 2.3.5 3.2H49.7z"/>
	<path fill="#ceff29" opacity=".6" d="M49.7 49.7 60.4 21c3.1 1.2 4.9 2 8.4 4.7l-19.1 24z"/>
	<path fill="#ffc400" opacity=".6" d="m49.7 49.7-35.2 6.4c-1.4-7.7-.1-15.5 3-21.9-.1 0 32.2 15.5 32.2 15.5z"/>
	<path fill="#29ffce" opacity=".6" d="M49.7 49.7 32.9 61.3c-1-1.7-1-1.3-1.6-2.8l18.4-8.8z"/>
	<path fill="#7dff7a" opacity=".6" d="M49.7 49.7 54 74.9c-2.6.5-5.6.5-10-.3l5.7-24.9z"/>
	<path fill="#ff6800" opacity=".6" d="m23.4 18.4 26.2 31.4-9-40c-7.1 1.8-13.1 5-17.2 8.6zm26.3 31.3 25.5 32c2.8-2.4 4.3-3.7 6.7-6.8L49.7 49.7z"/>
	<path opacity=".85" d="M50.6 50c9.9 0 9.5.1 9.5-.1.3-.3-.2-2.8-.5-3.4 0-.1-.1-.1-.2-.2h-.2l-8.7 2.8C69.2 25.7 69.3 25.8 69 25.5c-2-1.7-5.6-3.8-8.4-4.8-.4-.2.3-1.6-10.9 27.9C40 6 41 9.4 40.5 9.6c-6.4 1.4-12.1 4.5-17.2 8.6-.3.3-.2.2 25.3 30.7l-31-15c-.1-.1-.3 0-.4.1-3.4 7.1-4.3 15.2-3 22.1 0 .5-1.6.7 35.4-6.1 26.8 33.5 25.6 32.3 25.8 31.8 2.7-2.1 4.6-4.2 6.8-6.8 0-.5.1-.2-31.6-25zm8.6-3.1c.4 1.5.4 1.4.4 2.5h-7.9l7.5-2.5zm1.4-25.5c2.9 1.1 6 3 7.7 4.4L50.6 48l10-26.6zM14.7 55.7c-1.2-7.4-.3-14.6 2.8-21.1l31.1 15-33.9 6.1zm9.2-37.3c5-3.9 10.2-6.8 16.4-8.1L49 48.6 23.9 18.4zm51.3 62.8L51.5 51.5l29.9 23.3c-2.3 3.1-4.5 5-6.2 6.4z"/>
</svg>