<svg xmlns="http://www.w3.org/2000/svg" viewBox="0 0 100 100">
	<linearGradient id="a" x1="50" x2="50" y1="-9898.5674" y2="101.433" gradientTransform="matrix(1 0 0 -1 0 101.433)" gradientUnits="userSpaceOnUse">
		<stop offset="0" stop-color="#574c4a"/>
		<stop offset="1" stop-color="#80716d"/>
	</linearGradient>
	<path fill="url(#a)" d="M0 67.6V32.4C0 4.1 4 0 32.4 0h35.2C96 0 100 4.1 100 32.4v35.1c0 28.4-4 32.4-32.4 32.4H32.4C4 100 0 95.9 0 67.6z"/>
	<linearGradient id="b" x1="3680.9482" x2="224.5282" y1="-6857.9238" y2="-281.8552" gradientTransform="matrix(1 0 0 -1 0 101.433)" gradientUnits="userSpaceOnUse">
		<stop offset="0" stop-color="#268d83"/>
		<stop offset="1" stop-color="#2ea19e"/>
	</linearGradient>
	<path fill="url(#b)" d="M21.6 18.8c-4.9 31.2-2.3 60.3-2.3 60.3h15.4c-1.5-7.8-6.7-43.3-2.3-43.4 2.3.4 13 30.1 13 30.1s2.4-.3 4.7-.3 4.7.3 4.7.3 10.7-29.8 13-30.1c4.4.1-.9 35.6-2.3 43.4h15.4s2.6-29.2-2.3-60.3H64.2c-2.7 0-13 18.1-14.2 18.1s-11.5-18-14.2-18.1H21.6z"/>
	<radialGradient id="c" cx="-4951.3462" cy="3209.8613" r="1" gradientTransform="matrix(363.636 0 0 -363.637 1800828.5 1167606.875)" gradientUnits="userSpaceOnUse">
		<stop offset="0" stop-color="#db7c7c"/>
		<stop offset="1" stop-color="#c83737"/>
	</radialGradient>
	<path fill="url(#c)" d="M47 75.5c0 2-1.6 3.6-3.6 3.6s-3.6-1.6-3.6-3.6 1.6-3.6 3.6-3.6 3.6 1.6 3.6 3.6z"/>
	<radialGradient id="d" cx="-4951.3462" cy="3209.8613" r="1" gradientTransform="matrix(363.636 0 0 -363.637 1800862.625 1167606.875)" gradientUnits="userSpaceOnUse">
		<stop offset="0" stop-color="#db7c7c"/>
		<stop offset="1" stop-color="#c83737"/>
	</radialGradient>
	<path fill="url(#d)" d="M60.3 75.5c0 2-1.6 3.6-3.6 3.6S53 77.5 53 75.5s1.6-3.6 3.6-3.6 3.7 1.6 3.7 3.6z"/>
	<path opacity=".1" d="M77.7 19.9c2.2 15 2.7 29.4 2.7 40.1 0 11-.7 18.1-.7 18.1H66.8l-1.4 1h15.4s2.6-29.2-2.3-60.3l-.8 1.1zM37 19.5c4 4.5 11 16.4 12 16.4-2.6-3.3-8.9-13.7-12-16.4zm-5.8 15.2c-4.4.1.9 35.6 2.3 43.4H20.1l-.9 1h15.4c-1.5-7.7-6.7-43-2.4-43.4-.4-.6-.7-1-1-1zm35.5 0c-2.3.4-13 30.1-13 30.1s-2.4-.3-4.7-.3c-1.4 0-2.6.1-3.4.2l-.3 1.2s2.4-.3 4.7-.3c2.4 0 4.7.3 4.7.3s10.6-29.6 13-30.1c-.2-.7-.6-1.1-1-1.1z"/>
	<path fill="#fff" opacity=".3" d="M21.6 18.8c-4.9 31.2-2.3 60.3-2.3 60.3l.9-1c-.5-6.9-1.7-31.8 2.5-58.3h14.2c.3 0 .7.3 1.2.7-.9-1-1.7-1.7-2.2-1.7H21.6zm42.6 0c-2.7 0-13 18.1-14.2 18.1.5.6.9 1 1 1 1.2 0 11.5-18.1 14.2-18.1h12.6l.6-1H64.2zm-31 18c3.5 5.2 12 29.1 12 29.1l.3-1.2c-2.1-5.8-10.2-27.6-12.3-27.9.1 0 .1 0 0 0zm35.6 0c2.3 5.9-2.1 35.4-3.4 42.4l1.4-1.1c1.8-10.5 6.1-41.2 2-41.3z"/>
</svg>