<svg xmlns="http://www.w3.org/2000/svg" viewBox="0 0 100 100">
	<path fill="#fff" d="M90.8.8h-82v98.4h82V.8z"/>
	<path d="M8 0h83.6v100H8V0zm1.6 1.6v96.8H90V1.6H9.6z"/>
	<path d="M55.7 65.8c1.8.2 5.8 0 9-1.8 7.9-4.5 20-26 13.9-39.6-2.7-6.1-4.1-7.8-6.9-10.8-1.3-1.4 2.3-.3 7.1 8.6 4.6 8.5 4.4 18.6 2.7 25-1.2 4.4-5.3 14.4-11.4 18.7-15.1 10.8-18.8-.5-14.4-.1zm-7-25.5c-4.1-1.2-9.5-2.9-12.5-7-3.2-4.2-4.2-9.1-3.7-9.4.1-.1 1.7 3.6 4.1 6.6 2.4 3 5.8 4.8 8.6 5.5 2.5.6 7.7 1.8 9.4 3.3 1.8 1.5 1.9 4.8 1.3 5.2-.7.4-1.9-2.7-7.2-4.2zM28.9 65.6c8.2 7.6 20.5-2.8 15.1-12-.6-1-1.4-1.8-1.1-1 3.4 10.4-6.1 16-13 12.4-1.1-.6-1.5.2-1 .6zm-7.8-23.3c.9.2 3.2.9 6.2-1s3.3-6.9 2-8.4c-.4-.8-1-1.3-.5-.1 1.1 3-1 5.8-2.9 7.2-1.8 1.3-4.2.7-5.1.4-2-.7-2 1.2.3 1.9z"/>
	<path fill="#fff" d="M57.2 68.8c-.2 2.5 10.5.3 16.1-7.1 6.5-8.4 8.8-18.4 8.4-19.9-.1 1.2-1.7 7.4-5.3 13-4.6 7.2-7.9 11.1-15.6 12.9-2 .6-3.5-.2-3.6 1.1zM40.2 36c2.8 2.3 9.3 3.3 13.4 6.1.9.6 1.5 2 1.6.8.1-1.2-.7-2.3-2.4-2.8-1.1-.4-3-1.3-4.9-1.6-5.3-1.2-5.8-1.8-7.7-2.5zm-4.9 31.1c1-.2 7.1-1.8 8.5-6.8.4-1.6.5-1.2.4-.4-.6 4.3-4.7 7.5-8.2 7.6-.6.1-1.6-.2-.7-.4zM23.2 41.5c.3-.2 1.7-.1 2.9-.8 1.2-.7 2.7-2.1 3-4.2.2-1.2.2-.9.3-.2-.4 5.5-7.4 6.3-6.2 5.2z"/>
	<path fill="#999" d="M77.8 42.2C83 27.3 72.2 4.8 50.3 7.5c-19.8 2.4-20.1 23.2-2.7 28.2 19.7 3 7.8 17.9 6.2 25.4-1.5 6.6 16 7.8 24-18.9zM28.5 63.4c1.2 0 2 .2 3.2 1.1 2.5 1 7 .4 9.1-2.4 2.1-2.8 2.2-6.6 1.4-8.9-2-5.6-10.3-5.5-14-.9-4 5.3-1 11.1.3 11.1zm-8.9-24c1.8.3 2.1 1.1 4.2.6 2.1-.4 3.7-2.1 4.3-4 1.5-5.4-5.5-7.9-9.4-4.3-1.5 1.4-2 7.3.9 7.7z"/>
	<path fill="#f3f3f3" d="M64.3 53.8c-5.3-.7-13 11.4-5.8 10-7.2 1.4 7.2-1.4 0 0 3.5-.5 6.4-1.7 9-4.7 3.4-3.8 8.4-12.1 9.9-17.5 1.2-4.6.6-11.6-.7-5-1.3 6.8-7 17.8-12.4 17.2zm-27.8 10c1.4-.4 5.6-2.1 4.8-8.2-.4-3.1-2.1 3.8-5.2 4.9-4.8 1.6-4.3 4.5.4 3.3zM24.4 39c1.6-.4 3.7-2.6 2.7-4.3-1.3-2.1-4.9-.3-5.1 2-.1 2.4.7 2.8 2.4 2.3z"/>
	<path fill="#010101" d="M15.8 81.4c1.6-.7 4.8-1.3 5.8.1.9-.6 2-.9 2.9-.9 3.4 0 2.8 1.2 2.8 11.5 0 .3 0 .3-1.3.3 0-10.3.4-10.7-1.6-10.7-.7 0-1.4.2-2.2.7v9.7c0 .3 0 .3-1.3.3 0-10.2.4-10.7-1.6-10.7-.7 0-1.4.1-2.2.5v9.9c0 .3 0 .3-1.3.3v-11zm18-.7c-2 0-4.3.6-4.3 6.7 0 4.7 1.7 5.5 3.9 5.5 1.7 0 3.3-.6 3.3-.9 0-.3 0-.9-.2-1.2-.7.5-1.8.8-3 .8-1.6 0-2.7-.5-2.7-4 1.1 0 3.7 0 5.7-.4.2-.8.2-1.9.2-2.8.1-2.4-.8-3.7-2.9-3.7zm-.1 1.1c2 0 2 2.4 1.7 4.4-1.3.3-3.6.3-4.6.3.2-4.2 1.7-4.7 2.9-4.7zm5.2-.1c2-1.3 5.9-1.6 4.7.6-1-.6-2.5-.4-3.4.4v9.6c0 .3 0 .3-1.3.3V81.7zm12.1-.3c0-.7-6.3-3-6.3 5.6 0 5.4 1.4 5.9 4 5.9 1.2 0 2.4-.7 2.4-1 0-.2 0-.5-.2-.8-.5.4-1.3.7-2.1.7-1.7 0-2.7-.5-2.7-4.7 0-4.6 1.7-5.3 3.1-5.3.8 0 1.3.2 1.7.5.1-.2.1-.6.1-.9zm9.2 10.7c-1.1.5-2.4.7-3.6.7-4.1 0-3.5-1.7-3.5-11.6 0-.3 0-.3 1.3-.3 0 9.5-.5 10.7 2.1 10.7.7 0 1.7-.1 2.4-.6v-9.9c0-.3 0-.3 1.3-.3v11.3zm2.7-10.4c2-1.3 5.8-1.6 4.7.6-1-.6-2.5-.4-3.4.4v9.6c0 .3 0 .3-1.3.3V81.7zm8-.7c-1.1 0-1.4 0-1.4.6v10.9c1.3 0 1.4 0 1.4-.3V81zm-1.4-4c0 .8.2 1 .7 1.1.6 0 .8-.4.8-1.1 0-.7-.2-1-.7-1-.5-.1-.8.3-.8 1zm3.7 4.7c0-.3 0-.4.1-.5.5-.3 2.2-.6 4.2-.6 2.6 0 2.5 2 2.5 4.3 0 4.1-.1 7.2-.1 7.2-.6.3-1.6.8-3.3.8-1.7 0-3.4-.1-3.4-3.5 0-3.2 1.8-3.8 3.5-3.8.7 0 1.5.1 2 .3 0-2.2.4-4-1.7-4-1.2 0-2.9.2-3.7.6-.1-.3-.1-.7-.1-.8zm5.5 5.1c-.5-.2-1.1-.2-1.6-.2-1.4 0-2.6.3-2.6 2.8 0 2.4 1 2.4 2.3 2.4.8 0 1.5-.2 1.8-.5 0 0 .1-2.8.1-4.5zm5.1 5.4c0 .3 0 .3-1.3.3V76.2c0-.6.3-.6 1.3-.6v16.6z"/>
</svg>