<svg xmlns="http://www.w3.org/2000/svg" viewBox="0 0 100 100">
	<path fill="#DF5052" d="M94.683 51.318c.952 0 1.666-.715 1.666-1.667 0-.397-.159-.794-.397-1.032-.079-.159-22.222-20.476-22.222-20.476l19.524 22.301c.238.556.794.873 1.428.873Zm4.523 11.349-.158-.16L50.794 18.46 95 66.556l.159.158c.476.477 1.19.794 1.984.794A2.845 2.845 0 0 0 100 64.65c0-.714-.317-1.429-.794-1.984Zm-21.349 29.84L8.016 27.826 72.38 98.064c.714.793 1.746 1.349 2.936 1.349a3.895 3.895 0 0 0 3.89-3.89c0-1.19-.477-2.3-1.35-3.015ZM0 1l85.397 90.952.08.08a3.78 3.78 0 0 0 2.698 1.11 3.895 3.895 0 0 0 3.889-3.888c0-.794-.239-1.587-.715-2.222C91.111 86.635 0 1 0 1Zm97.143 73.65L27.302 9.969l64.365 70.238c.714.794 1.746 1.35 2.936 1.35a3.895 3.895 0 0 0 3.89-3.89c0-1.27-.556-2.3-1.35-3.015Zm-33.73 19.683-.159-.158L15 50.127l44.206 48.095.16.159c.475.476 1.19.794 1.983.794a2.845 2.845 0 0 0 2.857-2.858c0-.793-.317-1.428-.793-1.984ZM26.27 72.191l19.524 22.301c.317.476.793.873 1.428.873.953 0 1.667-.714 1.667-1.667 0-.396-.159-.793-.397-1.031-.159-.08-22.222-20.477-22.222-20.477Z"/>
</svg>