<svg xmlns="http://www.w3.org/2000/svg" viewBox="0 0 100 100">
	<path fill="#008610" d="M0 50h50v50H0V50Z"/>
	<path fill="#0086FC" d="M50 50h50v50H50V50Z"/>
	<path fill="#FF5800" d="M25 0h50v50H25V0Z"/>
	<path fill="#fff" d="M34.45 40.934V9.117h9.617l5.767 21.717L55.55 9.117h9.633V40.95H59.2V15.884l-6.333 25.033H46.7l-6.283-25v25l-5.967.017Z" opacity=".96"/>
	<path fill="#fff" d="M33.95 66.1h-11v7.634h10.1v5.683H22.967v12.1h-7V60.4H33.95v5.7Zm48.867 14.067 6.233 1.967c-.955 3.477-2.55 6.06-4.783 7.75-2.211 1.677-5.022 2.516-8.433 2.516-4.223 0-7.695-1.439-10.417-4.316-2.722-2.89-4.084-6.84-4.084-11.85 0-5.3 1.367-9.411 4.1-12.334 2.734-2.933 6.328-4.4 10.784-4.4 3.889 0 7.055 1.15 9.5 3.45 1.444 1.367 2.528 3.322 3.25 5.867l-6.367 1.5c-.378-1.644-1.166-2.944-2.366-3.9C79.044 65.472 77.6 65 75.9 65c-2.355 0-4.272.845-5.75 2.534-1.467 1.688-2.2 4.427-2.2 8.216 0 4.022.722 6.89 2.167 8.6 1.444 1.711 3.328 2.567 5.65 2.567 1.71 0 3.178-.544 4.4-1.633 1.233-1.09 2.122-2.795 2.666-5.117h-.016Z"/>
</svg>