<svg xmlns="http://www.w3.org/2000/svg" viewBox="0 0 100 100">
	<path fill="#ed6c47" d="m60.5 54.7-7-51.2H53c-25.4.1-45.9 20.6-46 46v.5l53.5 4.7z"/>
	<path fill="#ff8f6b" d="M54 3.5h-.5V50l23.3 9.3L100 50v-.5c-.1-25.4-20.6-45.9-46-46z"/>
	<path fill="#d35230" d="M100 50v.5c-.1 25.4-20.6 45.9-46 46h-1c-25.4-.1-46-20.6-46-46V50h93z"/>
	<path opacity=".1" d="M55.8 26.3V76c0 1.7-1.1 3.3-2.7 3.9-.5.2-1.1.3-1.6.3H18c-.7-.7-1.3-1.5-1.9-2.3C10.2 70 7 60.4 7 50.5v-1c0-8.9 2.6-17.6 7.5-25.1.5-.8 1-1.6 1.6-2.3h35.5c2.3 0 4.2 1.9 4.2 4.2z"/>
	<path opacity=".2" d="M53.5 28.7v49.6c0 .6-.1 1.1-.3 1.6-.7 1.6-2.2 2.6-3.9 2.7H20.1c-.7-.7-1.4-1.5-2.1-2.3-.7-.7-1.3-1.5-1.9-2.3C10.2 70 7 60.4 7 50.5v-1c0-8.9 2.6-17.6 7.5-25.1h34.8c2.3 0 4.2 1.9 4.2 4.3z"/>
	<path opacity=".2" d="M53.5 28.7v45c0 2.3-1.9 4.2-4.3 4.3H16.1C10.2 70 7 60.4 7 50.5v-1c0-8.9 2.6-17.6 7.5-25.1h34.8c2.3 0 4.2 1.9 4.2 4.3z"/>
	<path opacity=".2" d="M51.2 28.7v45c0 2.3-1.9 4.2-4.3 4.3H16.1C10.2 70 7 60.4 7 50.5v-1c0-8.9 2.6-17.6 7.5-25.1h32.4c2.3 0 4.2 1.9 4.3 4.3z"/>
	<linearGradient id="a" x1="8.888" x2="42.2747" y1="80.3458" y2="22.5214" gradientTransform="matrix(1 0 0 -1 0 101.433)" gradientUnits="userSpaceOnUse">
		<stop offset="0" stop-color="#ca4c28"/>
		<stop offset=".5" stop-color="#c5401e"/>
		<stop offset="1" stop-color="#b62f14"/>
	</linearGradient>
	<path fill="url(#a)" d="M4.3 24.4h42.6c2.4 0 4.3 1.9 4.3 4.3v42.6c0 2.4-1.9 4.3-4.3 4.3H4.3c-2.4 0-4.3-1.9-4.3-4.3V28.7c0-2.4 1.9-4.3 4.3-4.3z"/>
	<path fill="#fff" d="M26 35.8c2.8-.2 5.5.6 7.8 2.3 1.9 1.7 2.9 4.1 2.7 6.6 0 1.7-.4 3.4-1.3 4.9-.9 1.5-2.2 2.6-3.8 3.3-1.8.8-3.7 1.2-5.7 1.2h-5.4v10h-5.5V35.8H26zm-5.7 14h4.8c1.5.1 3-.3 4.2-1.3 1-1 1.5-2.3 1.4-3.7 0-3.1-1.8-4.7-5.4-4.7h-4.9l-.1 9.7z"/>
</svg>