<svg xmlns="http://www.w3.org/2000/svg" viewBox="0 0 100 100">
	<path fill="#28A8EA" d="M93.654 6H71.459a6.343 6.343 0 0 0-4.487 1.859L14.586 60.245a6.342 6.342 0 0 0-1.86 4.487v22.195a6.346 6.346 0 0 0 6.347 6.346h22.194a6.341 6.341 0 0 0 4.487-1.86l52.387-52.386A6.345 6.345 0 0 0 100 34.541V12.346A6.345 6.345 0 0 0 93.654 6Z"/>
	<path fill="#0078D4" d="M93.654 93.273H71.46a6.345 6.345 0 0 1-4.487-1.859l-10.61-10.609V60.982A11.345 11.345 0 0 1 67.71 49.636h19.823l10.61 10.61A6.345 6.345 0 0 1 100 64.732v22.195a6.345 6.345 0 0 1-6.346 6.346Z"/>
	<path fill="#50D9FF" d="M19.072 6h22.195c1.683 0 3.297.669 4.487 1.859l10.61 10.609V38.29a11.346 11.346 0 0 1-11.346 11.345H25.194L14.585 39.027a6.345 6.345 0 0 1-1.858-4.486V12.346A6.345 6.345 0 0 1 19.072 6Z"/>
	<path fill="#000" d="M52.727 28.418V76.31c.004.244-.02.488-.073.727a4.207 4.207 0 0 1-4.164 3.51H12.727V24.182H48.49a4.228 4.228 0 0 1 4.237 4.236Z" opacity=".2"/>
	<path fill="#000" d="M54.545 28.418v44.255a6.112 6.112 0 0 1-6.055 6.054H12.727V22.363H48.49a6.076 6.076 0 0 1 6.055 6.055Z" opacity=".1"/>
	<path fill="#000" d="M52.727 28.418v44.255a4.228 4.228 0 0 1-4.237 4.236H12.727V24.182H48.49a4.228 4.228 0 0 1 4.237 4.236Z" opacity=".2"/>
	<path fill="#000" d="M50.909 28.418v44.255a4.228 4.228 0 0 1-4.237 4.236H12.727V24.182h33.945a4.228 4.228 0 0 1 4.237 4.236Z" opacity=".1"/>
	<path fill="#0078D4" d="M46.667 24.182H4.242A4.242 4.242 0 0 0 0 28.424V70.85c0 2.343 1.9 4.242 4.242 4.242h42.425c2.343 0 4.242-1.9 4.242-4.242V28.424c0-2.343-1.9-4.242-4.242-4.242Z"/>
	<path fill="#fff" d="M33.791 40.33H21.887v6.96H33.06v4.462H21.887v7.23h12.538v4.443h-17.94V35.847H33.79v4.481Z"/>
</svg>