<svg xmlns="http://www.w3.org/2000/svg" viewBox="0 0 100 100">
	<path fill="#185c37" d="m62.8 47.7-39.5-7v51.9c0 2.4 1.9 4.3 4.3 4.3h68.2c2.4 0 4.3-1.9 4.3-4.3V73.4L62.8 47.7z"/>
	<path fill="#21a366" d="M62.8 3.2H27.5c-2.4 0-4.3 1.9-4.3 4.3v19.1L62.8 50l20.9 7 16.3-7V26.6L62.8 3.2z"/>
	<path fill="#107c41" d="M23.3 26.6h39.5V50H23.3V26.6z"/>
	<path d="M51.6 21.9H23.3v58.5h28.3c2.4 0 4.3-1.9 4.3-4.3V26.2c-.1-2.4-2-4.3-4.3-4.3z" opacity=".1"/>
	<g opacity=".2">
		<path d="M49.2 24.3h-26v58.5h26c2.3 0 4.3-1.9 4.3-4.3V28.6c0-2.4-1.9-4.3-4.3-4.3z"/>
		<path d="M49.2 24.3h-26v53.8h26c2.3 0 4.3-1.9 4.3-4.3V28.6c0-2.4-1.9-4.3-4.3-4.3z"/>
		<path d="M46.9 24.3H23.3v53.8h23.6c2.4 0 4.3-1.9 4.3-4.3V28.6c0-2.4-1.9-4.3-4.3-4.3z"/>
	</g>
	<linearGradient id="SVGID_1_" x1="8.7328" x2="42.4302" y1="80.4343" y2="22.4318" gradientTransform="matrix(1 0 0 -1 0 101.433)" gradientUnits="userSpaceOnUse">
		<stop offset="0" stop-color="#18884f"/>
		<stop offset=".5" stop-color="#117e43"/>
		<stop offset="1" stop-color="#0b6631"/>
	</linearGradient>
	<path fill="url(#SVGID_1_)" d="M4.3 24.3h42.6c2.4 0 4.3 1.9 4.3 4.3v42.9c0 2.4-1.9 4.3-4.3 4.3H4.3c-2.4 0-4.3-1.9-4.3-4.3v-43c0-2.3 1.9-4.2 4.3-4.2z"/>
	<path fill="#fff" d="m13.2 63.9 9-14L14 36.1h6.6l4.5 8.9c.4.8.7 1.5.9 1.9.3-.7.6-1.3.9-2l4.8-8.8h6.1l-8.4 13.8 8.6 14h-6.5l-5.2-9.8c-.2-.4-.5-.9-.6-1.3h-.1c-.2.4-.4.9-.6 1.3l-5.3 9.8h-6.5z"/>
	<path fill="#33c481" d="M95.7 3.2H62.8v23.4H100V7.5c0-2.4-1.9-4.3-4.3-4.3z"/>
	<path fill="#107c41" d="M62.8 50H100v23.4H62.8V50z"/>
</svg>