<svg xmlns="http://www.w3.org/2000/svg" viewBox="0 0 100 100">
	<path fill="#fff" opacity=".2" d="M30.1 21.9c-5.4 0-7.3-7.1-2.7-9.9C46.3 1.2 47.4 0 51.3 0c2 0 .1-.4 31 8.4 4.4 1.3 7.3 5.2 7.3 9.7v3.7l-59.5.1z"/>
	<path fill="#fff" opacity=".12" d="M30.1 21.9c-5.4 0-7.3-7.1-2.7-9.9C46.3 1.2 47.4 0 51.3 0c2 0 .1-.4 31 8.4 4.4 1.3 7.3 5.2 7.3 9.7v3.7l-59.5.1z"/>
	<linearGradient id="a" x1="71.8602" x2="71.8602" y1="1085.1475" y2="987.268" gradientTransform="translate(0 -978.567)" gradientUnits="userSpaceOnUse">
		<stop offset="0" stop-color="#ffb900"/>
		<stop offset=".17" stop-color="#ef8400"/>
		<stop offset=".31" stop-color="#e25c01"/>
		<stop offset=".43" stop-color="#db4401"/>
		<stop offset=".5" stop-color="#d83b01"/>
		<stop offset="1" stop-color="#d83b01"/>
	</linearGradient>
	<path fill="url(#a)" d="m54 99.6 7.6-17.4V21.9L54.1.4c30.1 8.5 30.8 8 33.5 11.6 2.9 4 2 1.7 2 69.7 0 4.2-2.5 8.3-7.3 9.7L54 99.6z"/>
	<linearGradient id="b" x1="53.5239" x2="1.6871" y1="1079.4465" y2="1005.4271" gradientTransform="translate(0 -978.567)" gradientUnits="userSpaceOnUse">
		<stop offset="0" stop-color="#800600"/>
		<stop offset=".6" stop-color="#c72127"/>
		<stop offset=".73" stop-color="#c13959"/>
		<stop offset=".85" stop-color="#bc4b81"/>
		<stop offset=".94" stop-color="#b95799"/>
		<stop offset="1" stop-color="#b85ba2"/>
	</linearGradient>
	<path fill="url(#b)" d="M26.5 27.1c2.4 1.3 3.7 3.8 3.7 6.4 0 35.3-.5 33.9 1.3 36.6 1.6 2.4.7 1.6 30.1 12.2v7.3c0 7.7-8.3 13.3-15.7 9.1-33.4-19.1-32.3-18-34.2-21.2-1.9-3.2-1.4-2-1.4-50.3 0-2.7 2.1-5.2 5.2-5.2 2.1 0 1.6 0 11 5.1z"/>
	<linearGradient id="c" x1="27.1102" x2="94.822" y1="989.5444" y2="989.5444" gradientTransform="translate(0 -978.567)" gradientUnits="userSpaceOnUse">
		<stop offset="0" stop-color="#f32b44"/>
		<stop offset=".6" stop-color="#a4070a"/>
		<stop offset="1" stop-color="#a4070a"/>
	</linearGradient>
	<path fill="url(#c)" d="M61.6 21.9c-33.8 0-32.7.4-34.7-1.1-1.9-1.5-2.6-3.8-1.7-6.2.8-2.3.6-1.7 21-13.3 7.2-3.9 15.4 1.4 15.4 9v11.6z"/>
	<linearGradient id="d" x1="55.0876" x2="44.1108" y1="1081.6671" y2="1065.9969" gradientTransform="translate(0 -978.567)" gradientUnits="userSpaceOnUse">
		<stop offset="0" stop-opacity=".4"/>
		<stop offset="1" stop-opacity="0"/>
	</linearGradient>
	<path fill="url(#d)" d="M26.5 27.1c2.4 1.3 3.7 3.8 3.7 6.4 0 35.3-.5 33.9 1.3 36.6 1.6 2.4.7 1.6 30.1 12.2v7.3c0 7.7-8.3 13.3-15.7 9.1-33.4-19.1-32.3-18-34.2-21.2-1.9-3.2-1.4-2-1.4-50.3 0-2.7 2.1-5.2 5.2-5.2 2.1 0 1.6 0 11 5.1z"/>
	<linearGradient id="e" x1="74.0194" x2="43.7199" y1="987.9622" y2="990.6079" gradientTransform="translate(0 -978.567)" gradientUnits="userSpaceOnUse">
		<stop offset="0" stop-opacity=".4"/>
		<stop offset="1" stop-opacity="0"/>
	</linearGradient>
	<path fill="url(#e)" d="M61.6 21.9c-33.8 0-32.7.4-34.7-1.1-1.9-1.5-2.6-3.8-1.7-6.2.8-2.3.6-1.7 21-13.3 7.2-3.9 15.4 1.4 15.4 9v11.6z"/>
</svg>