<svg xmlns="http://www.w3.org/2000/svg" viewBox="0 0 100 100">
	<path fill="#185c37" d="M95.7 93.6H38.9c-2.4 0-4.3-1.9-4.3-4.3V64.5l21.8-10.8 27.2 10.8h12.1c2.4 0 4.3 1.9 4.3 4.3v20.5c0 2.4-1.9 4.3-4.3 4.3z"/>
	<path fill="#33c481" d="m67.2 35.5-25.5 9.1-29-9.1V10.7c0-2.4 1.9-4.3 4.3-4.3h46c2.4 0 4.3 1.9 4.3 4.3l-.1 24.8z"/>
	<path fill="#21a366" d="M12.7 35.5h66.6c2.4 0 4.3 1.9 4.3 4.3v24.8H17c-2.4 0-4.3-1.9-4.3-4.3V35.5z"/>
	<path opacity=".1" d="M34.6 80.9h13.9c2.1 0 3.8-1.4 4.1-3.5V28.8c0-2.4-1.9-4.3-4.1-4.3H12.7v35.7c0 2.4 1.9 4.3 4.3 4.3h17.5v16.4z"/>
	<path opacity=".2" d="M48.4 79.1c3.3 0 6-2.7 6.1-6V28.8c0-3.3-2.7-6-6-6.1H12.7v37.6c0 2.4 1.9 4.3 4.3 4.3h17.5v14.5h13.9z"/>
	<path opacity=".2" d="M48.4 77.2c2.4 0 4.3-1.9 4.3-4.1V28.8c0-2.4-1.9-4.3-4.1-4.3H12.7v35.7c0 2.4 1.9 4.3 4.3 4.3h17.5v12.7h13.9z"/>
	<path opacity=".1" d="M46.7 77.2c2.4 0 4.3-1.9 4.3-4.1V28.8c0-2.4-1.9-4.3-4.1-4.3H12.7v35.7c0 2.4 1.9 4.3 4.3 4.3h17.5v12.7h12.2z"/>
	<linearGradient id="a" x1="8.8597" x2="42.044" y1="80.217" y2="22.7385" gradientTransform="matrix(1 0 0 -1 0 101.433)" gradientUnits="userSpaceOnUse">
		<stop offset="0" stop-color="#18884f"/>
		<stop offset=".5" stop-color="#117e43"/>
		<stop offset="1" stop-color="#0b6631"/>
	</linearGradient>
	<path fill="url(#a)" d="M4.3 24.5h42.4c2.4 0 4.3 1.9 4.3 4.3v42.4c0 2.4-1.9 4.3-4.3 4.3H4.3c-2.4 0-4.3-1.9-4.3-4.3V28.8c0-2.4 1.9-4.3 4.3-4.3z"/>
	<path fill="#fff" d="M33.8 38.1c-2.1-1.6-4.8-2.4-7.5-2.2H15.1V64h5.4V54h5.3c1.9.2 3.8-.3 5.6-1.1 1.4-.8 2.7-1.9 3.7-3.3.8-1.6 1.3-3.2 1.3-4.9.1-2.5-.9-4.9-2.6-6.6zm-4.3 10.3c-1.3 1-2.7 1.4-4.1 1.3h-4.6l.2-9.6h4.8c3.5 0 5.3 1.4 5.3 4.6-.2 1.5-.7 2.8-1.6 3.7z"/>
</svg>