<svg xmlns="http://www.w3.org/2000/svg" viewBox="0 0 100 100">
	<path fill="#41a5ee" d="M95.7 3.5H27.5c-2.4 0-4.3 1.9-4.3 4.3v19l39.5 11.6L100 26.7v-19c0-2.3-1.9-4.2-4.3-4.2z"/>
	<path fill="#2b7cd3" d="M100 26.7H23.3V50l39.5 7 37.2-7V26.7z"/>
	<path fill="#185abd" d="M23.3 50v23.3L60.5 78l39.5-4.7V50H23.3z"/>
	<path fill="#103f91" d="M27.5 96.5h68.2c2.4 0 4.3-1.9 4.3-4.3v-19H23.3v19c0 2.4 1.9 4.3 4.2 4.3z"/>
	<path opacity=".1" d="M51.6 22.1H23.3v58.1h28.3c2.4 0 4.3-1.9 4.3-4.3V26.4c-.1-2.4-2-4.3-4.3-4.3z"/>
	<g opacity=".2">
		<path d="M49.2 24.4h-26v58.1h26c2.4 0 4.3-1.9 4.3-4.3V28.7c0-2.4-1.9-4.3-4.3-4.3z"/>
		<path d="M49.2 24.4h-26v53.5h26c2.4 0 4.3-1.9 4.3-4.3v-45c0-2.3-1.9-4.2-4.3-4.2z"/>
		<path d="M46.9 24.4H23.3v53.5h23.6c2.4 0 4.3-1.9 4.3-4.3v-45c0-2.3-1.9-4.2-4.3-4.2z"/>
	</g>
	<linearGradient id="a" x1="8.8879" x2="42.2751" y1="80.3453" y2="22.5208" gradientTransform="matrix(1 0 0 -1 0 101.433)" gradientUnits="userSpaceOnUse">
		<stop offset="0" stop-color="#2368c4"/>
		<stop offset=".5" stop-color="#1a5dbe"/>
		<stop offset="1" stop-color="#1146ac"/>
	</linearGradient>
	<path fill="url(#a)" d="M4.3 24.4h42.6c2.4 0 4.3 1.9 4.3 4.3v42.6c0 2.4-1.9 4.3-4.3 4.3H4.3c-2.4 0-4.3-1.9-4.3-4.3V28.7c0-2.4 1.9-4.3 4.3-4.3z"/>
	<path fill="#fff" d="M17.5 57.1c.1.7.1 1.2.2 1.7h.1c0-.5.1-1 .2-1.7s.2-1.2.3-1.7l4.5-19.3h5.8l4.7 19.1c.3 1.2.5 2.4.6 3.6h.1c.1-1.2.2-2.3.5-3.5l3.7-19.2h5.3L37 63.8h-6.2l-4.4-18.4c-.2-.7-.3-1.4-.4-2.1-.2-.8-.3-1.5-.3-1.9h-.1c-.1.7-.2 1.3-.3 2-.1.7-.2 1.3-.4 2l-4.2 18.3h-6.3L7.8 36.1h5.4l4 19.4c.1.4.2 1 .3 1.6z"/>
</svg>