<svg xmlns="http://www.w3.org/2000/svg" viewBox="0 0 100 100">
	<path fill="#8C9DA7" d="M56.673 40.193c-4.182 0-6.733 1.714-8.25 3.464h-.128V40.92H42.94v28.056h5.996V52.322c.037-1.476.58-6.844 6.529-6.844 5.848 0 7.179 4.08 7.179 7.265v10.952c0 1.455.385 2.872 1.572 4.073 1.473 1.49 4.427 1.206 4.427 1.206V52.852c0-5.506-3.423-12.659-11.97-12.659Zm29.587.389c-7.931 0-14.36 6.43-14.36 14.362 0 7.931 6.429 14.361 14.36 14.361 3.231 0 6.212-1.067 8.612-2.867a5.515 5.515 0 0 0 1.349 1.703c1.67 1.436 3.779.832 3.779.832v-28.05h-5.37v2.351a14.297 14.297 0 0 0-8.37-2.692Zm.119 5.333a9.066 9.066 0 0 1 9.067 9.067 9.066 9.066 0 0 1-9.067 9.067c-5.009 0-9.07-4.059-9.07-9.067s4.061-9.067 9.07-9.067Zm-46.718-4.992h-6.974L11.47 68.974h7.282l20.91-28.051Z"/>
	<path fill="#F4793B" d="M17.504 42.303a1.486 1.486 0 1 1-2.972 0 1.486 1.486 0 0 1 2.972 0Zm3.936 3.451a1.827 1.827 0 1 1-3.654 0 1.827 1.827 0 0 1 3.654 0Zm2.094 1.998a2.2 2.2 0 0 0-1.802 3.453h-.003s3.784 5.655 5.562 8.554c1.628 2.656 2.518 5.492 4.672 8.095.538.65 1.365 1.063 2.178 1.285 1.29.352 4.01 0 4.01 0s-2.254-5.797-5.722-11.249c-2.313-3.634-6.204-8.184-7.141-9.265l-.016-.019a2.195 2.195 0 0 0-.182-.21l-.01-.01a2.196 2.196 0 0 0-1.546-.635ZM0 30s4.555 3.62 6.634 5.397c2.133 1.823 4.666 4.228 5.17 4.735a1.1 1.1 0 0 0 .172.176l.022.019a1.141 1.141 0 1 0 1.378-1.821l-.054-.035c-.156-.108-2.868-2.014-5.284-3.57C5.418 33.213 0 30 0 30Z"/>
</svg>