<svg xmlns="http://www.w3.org/2000/svg" viewBox="0 0 100 100">
	<path fill="#2b7cd3" d="M54.4 26.2h41.3c2.4 0 4.4 2 4.4 4.4v38.9c0 2.4-2 4.4-4.4 4.4H54.4c-2.4 0-4.4-2-4.4-4.4v-39c0-2.4 2-4.3 4.4-4.3z"/>
	<path fill="#41a5ee" d="M76.2 26.2c0 1.2-.5 2.3-1.3 3.1L57.1 47l-1.7 1.7c-.2.2-.4.4-.7.6-.7.5-1.5.7-2.3.7-1.2 0-2.3-.5-3.1-1.3L29.9 29.3c-1.5-1.4-1.7-3.7-.6-5.5.2-.2.4-.5.6-.7L49.3 3.7C51 2 53.7 2 55.4 3.6l19.5 19.5c.8.8 1.3 1.9 1.3 3.1z"/>
	<path fill="#103f91" d="M76.2 73.8c0 13.1-10.7 23.8-23.8 23.8-8.5 0-16.4-4.5-20.6-11.9-.5-.8-.9-1.6-1.2-2.4-.4-.8-.7-1.6-.9-2.4-3.9-12.5 3-25.9 15.6-29.9 2.3-.7 4.7-1.1 7.1-1.1.8 0 1.6 0 2.4.1.8.1 1.6.2 2.4.4 11 2.4 19 12.1 19 23.4z"/>
	<path opacity=".1" d="M57.1 28.2V79c0 1.8-1.1 3.4-2.7 4-.5.2-1.1.3-1.6.3H30.6c-.4-.8-.7-1.6-.9-2.4-3.9-12.5 3-25.9 15.6-29.9 2.3-.7 4.7-1.1 7.1-1.1-1.2 0-2.3-.5-3.1-1.3L29.9 29.3c-1.5-1.4-1.7-3.7-.6-5.5h23.5c1.6 0 3.1.9 3.9 2.4.3.6.4 1.3.4 2z"/>
	<path opacity=".2" d="M54.8 30.5v50.8c0 .6-.1 1.1-.3 1.6-.7 1.6-2.3 2.7-4 2.7H31.8c-.5-.8-.9-1.6-1.2-2.4-.4-.8-.7-1.6-.9-2.4-3.9-12.5 3-25.9 15.6-29.9 2.3-.7 4.7-1.1 7.1-1.1-1.2 0-2.3-.5-3.1-1.3L29.9 29.3c-.8-.8-1.3-1.9-1.3-3.1h21.8c1.2 0 2.4.5 3.2 1.4.7.8 1.2 1.8 1.2 2.9z"/>
	<path opacity=".2" d="M54.8 30.5v46c0 2.4-2 4.3-4.4 4.4H29.7C25.8 68.4 32.7 55 45.3 51c2.3-.7 4.7-1.1 7.1-1.1-1.2 0-2.3-.5-3.1-1.3L29.9 29.3c-.8-.8-1.3-1.9-1.3-3.1h21.8c1.2 0 2.4.5 3.2 1.4.7.8 1.2 1.8 1.2 2.9z"/>
	<path opacity=".2" d="M52.4 30.5V50c-1.2 0-2.3-.5-3.1-1.3L29.9 29.3c-.8-.8-1.3-1.9-1.3-3.1H48c2.4 0 4.4 1.9 4.4 4.3zM52.4 50v26.6c0 2.4-2 4.3-4.4 4.4H29.7c-3.9-12.5 3-25.9 15.6-29.9 2.2-.7 4.7-1.1 7.1-1.1z"/>
	<linearGradient id="a" x1="9.0997" x2="43.2813" y1="78.6532" y2="19.4519" gradientTransform="matrix(1 0 0 -1 0 101.433)" gradientUnits="userSpaceOnUse">
		<stop offset="0" stop-color="#2368c4"/>
		<stop offset=".5" stop-color="#1a5dbe"/>
		<stop offset="1" stop-color="#1146ac"/>
	</linearGradient>
	<path fill="url(#a)" d="M4.4 26.2H48c2.4 0 4.4 2 4.4 4.4v43.7c0 2.4-2 4.4-4.4 4.4H4.4c-2.4 0-4.4-2-4.4-4.4V30.6c0-2.5 2-4.4 4.4-4.4z"/>
	<path fill="#fff" d="M24.8 57c.8 2.4 1.3 3.9 1.4 4.5h.1c.1-.6.7-2.2 1.5-4.8l6.4-18.5H40L29.2 66.6H23L12.4 38.2h6L24.8 57z"/>
</svg>