<svg xmlns="http://www.w3.org/2000/svg" viewBox="0 0 100 100">
	<path fill="#881421" d="M23.3 64v23.3c0 6.4 17.2 11.6 38.4 11.6s38.4-5.2 38.4-11.6V64H23.3z"/>
	<path fill="#af2031" d="M23.3 38.4V64c0 6.4 17.2 11.6 38.4 11.6s38.4-5.2 38.4-11.6V38.4H23.3z"/>
	<path fill="#c94f60" d="M23.3 12.8v25.6c0 6.4 17.2 11.6 38.4 11.6s38.4-5.2 38.4-11.6V12.8H23.3z"/>
	<path fill="#e08095" d="M61.6 24.4c21.2 0 38.4-5.2 38.4-11.6 0-6.4-17.2-11.6-38.4-11.6S23.3 6.4 23.3 12.8c0 6.4 17.1 11.6 38.3 11.6z"/>
	<path opacity=".1" d="M51.6 22.1H23.3v58.1h28.3c2.4 0 4.3-1.9 4.3-4.3V26.4c-.1-2.4-2-4.3-4.3-4.3z"/>
	<path opacity=".2" d="M49.2 24.4h-26v58.1h26c2.4 0 4.3-1.9 4.3-4.3V28.7c0-2.4-1.9-4.3-4.3-4.3z"/>
	<path opacity=".2" d="M49.2 24.4h-26v53.5h26c2.4 0 4.3-1.9 4.3-4.3v-45c0-2.3-1.9-4.2-4.3-4.2z"/>
	<path opacity=".2" d="M46.9 24.4H23.3v53.5h23.6c2.4 0 4.3-1.9 4.3-4.3v-45c0-2.3-1.9-4.2-4.3-4.2z"/>
	<linearGradient id="a" x1="8.888" x2="42.2748" y1="80.3453" y2="22.5208" gradientTransform="matrix(1 0 0 -1 0 101.433)" gradientUnits="userSpaceOnUse">
		<stop offset="0" stop-color="#b72c3f"/>
		<stop offset=".5" stop-color="#b12334"/>
		<stop offset="1" stop-color="#9d1623"/>
	</linearGradient>
	<path fill="url(#a)" d="M4.3 24.4h42.6c2.4 0 4.3 1.9 4.3 4.3v42.6c0 2.4-1.9 4.3-4.3 4.3H4.3c-2.4 0-4.3-1.9-4.3-4.3V28.7c0-2.4 1.9-4.3 4.3-4.3z"/>
	<path fill="#fff" d="M22.5 36.1h6.3l10.1 27.7H33l-2.2-6.6H20.4l-2.2 6.6h-5.9l10.2-27.7zM29.4 53l-3.2-10c-.3-.7-.5-1.5-.6-2.3h-.1c-.1.8-.3 1.6-.6 2.3l-3.3 10h7.8z"/>
</svg>