<svg xmlns="http://www.w3.org/2000/svg" viewBox="0 0 100 100">
	<path fill="#293239" d="M95.917 25.787a6.896 6.896 0 0 0-.395-.786 5.849 5.849 0 0 0-.512-.712c-1.008-1.237-2.65-2.45-4.75-3.603l-16.89-9.254-16.887-9.266c-2.1-1.153-4.026-1.893-5.657-2.105A7.381 7.381 0 0 0 49.918 0c-1.804 0-4.065.796-6.57 2.166l-16.889 9.26L9.571 20.68c-2.1 1.153-3.742 2.361-4.75 3.603-.195.24-.368.479-.512.713-.145.24-.273.507-.396.785C3.29 27.234 3 29.183 3 31.483v37.029c0 2.745.406 5 1.309 6.487.902 1.486 2.756 2.945 5.262 4.315l16.888 9.26 16.888 9.254c2.1 1.147 4.026 1.894 5.658 2.105.312.04.618.067.907.067.29 0 .596-.022.908-.067 1.632-.211 3.558-.952 5.657-2.105l33.777-18.514c2.5-1.37 4.36-2.829 5.262-4.315a6.88 6.88 0 0 0 .396-.785c.623-1.448.913-3.403.913-5.702v-37.03c.005-2.299-.284-4.248-.908-5.695ZM30.05 69.23c0 .84-.902 1.38-1.642.974l-6.042-3.313A4.443 4.443 0 0 1 20.061 63V45.103c0-.841.902-1.376 1.643-.975l7.2 3.943a2.217 2.217 0 0 1 1.152 1.949v19.21h-.006ZM79.77 63c0 1.62-.886 3.117-2.306 3.897l-6.041 3.307a1.108 1.108 0 0 1-1.643-.974V45.52a1.11 1.11 0 0 0-1.643-.974l-10.913 5.98a4.443 4.443 0 0 0-2.306 3.892v23.52c0 .814-.44 1.56-1.152 1.95l-1.715.935c-1.331.73-2.94.73-4.271 0l-1.704-.935a2.217 2.217 0 0 1-1.153-1.95V54.425c0-1.62-.885-3.113-2.305-3.892L20.061 38.17V37a4.44 4.44 0 0 1 2.305-3.891l2.49-1.37a4.43 4.43 0 0 1 4.265 0L47.78 41.962c1.33.73 2.94.73 4.265 0l8.62-4.727a1.112 1.112 0 0 0 0-1.95L41.298 24.674a1.112 1.112 0 0 1 0-1.949l6.482-3.553a4.442 4.442 0 0 1 4.27 0l25.414 13.927a4.44 4.44 0 0 1 2.31 3.897V63h-.005Z"/>
</svg>