<svg xmlns="http://www.w3.org/2000/svg" viewBox="0 0 100 100">
	<path fill="#EA6618" d="M100 92.341V7.66A7.66 7.66 0 0 0 94.517.315l-3.6 2.154L50.97 45.062l-1.252 3.914-.732 3.758 12.457 46.554 1.927.712h28.971A7.659 7.659 0 0 0 100 92.34Z"/>
	<path fill="#D65813" d="M0 7.659V92.34a7.65 7.65 0 0 0 3.32 6.31l2.456-1.176 42.284-45.27 1.658-3.229.061-3.12L38.273 2.071 36.529 0H7.659A7.659 7.659 0 0 0 0 7.659Z"/>
	<path fill="#E05E11" d="m49.717 48.976 44.8-48.66A7.655 7.655 0 0 0 92.34 0H36.53l13.188 48.976Z"/>
	<path fill="#DE5C16" d="M7.659 100H63.37L49.717 48.976 3.32 98.652A7.622 7.622 0 0 0 7.659 100Z"/>
	<path fill="#fff" d="M37.077 37.902h5.557c2.214 8.354 4.734 15.685 7.545 22.3 3.184-7.443 5.519-14.778 7.494-22.3h5.251c-2.352 9.346-6.198 18.766-10.598 28.488H47.68c-4.226-9.213-7.824-18.686-10.604-28.488ZM18.75 23.427h12.356v52.984h-12.41v-4.084H26.3V27.403h-7.552v-3.976Zm62.566 3.976h-7.551v44.924h7.606v4.084H68.96V23.427h12.355v3.976Z"/>
</svg>