<svg xmlns="http://www.w3.org/2000/svg" viewBox="0 0 100 100">
	<path fill="#8D6748" d="M38.023 100h24.418c.873 0 1.455-.292 2.036-.873 14.535-16.278 15.989-50.291 15.989-60.465 0-1.452-1.164-2.907-2.907-2.907H22.907c-1.453 0-2.907 1.162-2.907 2.907 0 9.883 1.454 43.896 15.99 60.465.58.58 1.161.873 2.033.873Zm-6.686-55.233H69.71c1.452 0 2.907 1.162 2.907 2.907 0 8.14-1.455 31.104-11.338 43.022-.872.583-1.453.874-2.326.874h-17.15c-.873 0-1.454-.291-2.035-.874C29.883 79.07 28.721 55.814 28.43 47.674c0-1.453 1.163-2.907 2.907-2.907Zm24.419-14.825s10.466-6.105 4.069-17.152C56.046 6.976 54.303 2.035 55.755 0c-3.778 4.652-10.173 9.593-3.197 20.058 2.326 2.617 3.489 8.139 3.198 9.884Zm-11.628.872s6.976-4.07 2.617-11.628c-2.617-3.78-3.779-7.267-2.617-8.431-2.616 3.197-6.685 6.395-2.035 13.664 1.454 1.452 2.035 5.232 2.035 6.395Zm-.872 57.267h14.535c.581 0 1.162-.29 1.743-.872 4.943-5.814 7.269-14.825 8.43-22.675 0 0-.29 2.617-7.266 5.233-9.592 3.488-26.453 1.162-26.453 1.162 1.452 6.105 3.778 11.919 7.266 16.28.29.581 1.164.872 1.745.872Z"/>
</svg>