<svg xmlns="http://www.w3.org/2000/svg" viewBox="0 0 100 100">
	<path fill="#3CAFCE" d="M64.344 3c-5.937 0-10.747 4.81-10.747 10.747a10.748 10.748 0 0 0 5.708 9.462l-5.931 11.256c-1.45-.47-2.965-.71-4.49-.713-8.067 0-14.606 6.54-14.606 14.605.013 1.043.138 2.083.373 3.099l-11.807 4.32a12.37 12.37 0 0 0-10.471-5.79C5.537 49.986 0 55.523 0 62.358c0 6.833 5.537 12.373 12.372 12.373 6.832 0 12.372-5.54 12.372-12.373a12.488 12.488 0 0 0-.29-2.647l11.317-4.969a14.603 14.603 0 0 0 13.113 8.222 14.605 14.605 0 0 0 8.856-3.038l9.523 9.066a17.958 17.958 0 0 0-3.142 10.092c0 9.91 8.033 17.939 17.94 17.939 9.91 0 17.939-8.03 17.939-17.94 0-9.906-8.03-17.94-17.94-17.94a17.953 17.953 0 0 0-11.306 4.054l-10.132-8.21a14.602 14.602 0 0 0 2.867-8.63 14.61 14.61 0 0 0-6.341-12.035l5.025-12.076c.713.155 1.44.239 2.17.25 5.934 0 10.747-4.811 10.747-10.748C75.09 7.813 70.277 3 64.344 3Z"/>
</svg>