<svg xmlns="http://www.w3.org/2000/svg" viewBox="0 0 100 100">
	<path fill="#E5E3DF" d="M100 50c0 27.614-22.386 50-50 50S0 77.614 0 50 22.386 0 50 0s50 22.386 50 50Z"/>
	<path fill="#414347" d="M35.008 97.713c.48-3.592.725-6.82.602-9.395-.404-8.466-2.824-14.68-5.032-20.347-1.273-3.269-2.476-6.356-3.18-9.589-1.346-3.416 8.758-30.808 8.758-30.808l3.678-1.524 5.19 19.806s3.71 3.99 9 2.448c5.291-1.542 5.476-6.888 5.476-6.888l-6.658-19.723 3.55-.86S76.71 33.196 77.079 45.697c.19 6.477-5.538 14.937-11.331 23.495-5.389 7.959-10.834 16.002-11.628 22.61-.273 2.279-.481 5.035-.64 8.079-1.15.079-2.31.119-3.48.119-5.223 0-10.26-.801-14.992-2.287Z"/>
</svg>