<svg xmlns="http://www.w3.org/2000/svg" viewBox="0 0 100 100">
	<path fill="#213473" d="M15.762 87.985c20.214-5.313 42.03-4.368 62.304-.877.145.025.218-.035.218-.18v-33.58a1.006 1.006 0 0 1 .42-.818c7.028-5.028 13.407-10.546 18.443-17.625a.535.535 0 0 1 .427-.222h2.111c.21 0 .315.105.315.314v61.674c0 .126-.06.171-.18.135a203.417 203.417 0 0 0-50.831-8.129c-16.676-.537-33.11 1.49-48.724 7.449-.143.053-.216.003-.218-.151-.056-3.492-.062-6.084-.017-7.776.008-.3.14-.586.394-.86C22.023 64.17 40.184 34.779 45.976 3.26c.03-.173.136-.26.315-.26h2.253c.174 0 .26.088.26.264L48.8 76.751c0 .162-.08.248-.24.256-12.647.747-24.442 4.212-35.383 10.395-.025.014-.02.044.013.092.008.017.02.02.037.013C24.817 81.5 37.466 78.58 50.512 78.9c.12.003.18-.055.18-.172v-23.39a.944.944 0 0 1 .29-.68c10.214-9.782 18.305-22.145 22.623-35.661.053-.174.172-.26.356-.26h2.17c.176 0 .264.088.264.264v65.614a.213.213 0 0 1-.073.159.206.206 0 0 1-.166.047c-19.446-2.824-41.515-2.963-60.41 3.11a.03.03 0 0 0 .017.054Z"/>
</svg>