<svg xmlns="http://www.w3.org/2000/svg" viewBox="0 0 100 100">
	<path fill="#00546B" d="M92.11 76.922c-5.44-.136-9.657.409-13.194 1.904-1.02.408-2.653.409-2.789 1.7.545.545.613 1.43 1.089 2.177.816 1.36 2.244 3.197 3.536 4.15 1.428 1.087 2.857 2.175 4.353 3.128 2.653 1.632 5.645 2.584 8.23 4.217 1.497.951 2.992 2.176 4.489 3.196.748.544 1.224 1.428 2.176 1.768v-.204c-.476-.612-.612-1.496-1.088-2.176-.68-.68-1.36-1.292-2.04-1.973-1.973-2.652-4.421-4.964-7.074-6.869-2.176-1.496-6.937-3.536-7.821-6.053l-.136-.136c1.496-.136 3.264-.68 4.693-1.088 2.312-.612 4.42-.476 6.8-1.088 1.089-.272 2.177-.612 3.265-.953v-.611c-1.223-1.225-2.108-2.857-3.4-4.013-3.469-2.994-7.278-5.918-11.222-8.366-2.11-1.36-4.83-2.245-7.074-3.4-.816-.41-2.176-.613-2.652-1.293-1.225-1.496-1.905-3.468-2.789-5.237-1.972-3.741-3.877-7.89-5.577-11.834-1.224-2.653-1.972-5.305-3.468-7.754-7.006-11.562-14.623-18.567-26.322-25.436-2.516-1.429-5.508-2.04-8.705-2.789-1.7-.068-3.4-.204-5.101-.272-1.088-.476-2.177-1.768-3.129-2.38C13.284 2.786 3.286-2.518.43 4.487c-1.837 4.421 2.72 8.774 4.284 11.019 1.157 1.564 2.652 3.332 3.469 5.1.476 1.156.612 2.381 1.088 3.605 1.088 2.992 2.108 6.325 3.536 9.114.749 1.428 1.565 2.925 2.517 4.216.544.748 1.496 1.089 1.7 2.313-.952 1.36-1.02 3.4-1.564 5.101-2.449 7.685-1.496 17.207 1.972 22.852 1.088 1.7 3.673 5.442 7.142 4.013 3.06-1.224 2.38-5.1 3.264-8.501.204-.817.068-1.36.476-1.905v.136c.953 1.905 1.905 3.741 2.789 5.645 2.108 3.333 5.78 6.802 8.841 9.114 1.633 1.224 2.925 3.333 4.966 4.081v-.204h-.136c-.409-.613-1.02-.884-1.565-1.36-1.224-1.225-2.585-2.721-3.537-4.081-2.856-3.81-5.373-8.026-7.617-12.379-1.088-2.108-2.04-4.42-2.924-6.529-.409-.816-.409-2.04-1.089-2.448-1.02 1.496-2.516 2.788-3.264 4.625-1.292 2.924-1.428 6.529-1.905 10.27-.271.068-.136 0-.272.136-2.176-.545-2.924-2.789-3.74-4.694-2.041-4.828-2.381-12.582-.613-18.159.477-1.428 2.517-5.917 1.7-7.277-.407-1.292-1.768-2.04-2.516-3.06-.884-1.293-1.836-2.925-2.448-4.354-1.633-3.808-2.449-8.025-4.217-11.834-.816-1.769-2.244-3.605-3.4-5.237-1.293-1.836-2.721-3.128-3.741-5.305-.34-.748-.817-1.972-.272-2.788.136-.544.407-.748.952-.884.884-.749 3.4.203 4.285.611 2.516 1.02 4.624 1.973 6.733 3.401.952.68 1.972 1.973 3.196 2.313h1.429c2.176.475 4.625.136 6.665.748 3.605 1.155 6.87 2.856 9.794 4.693 8.91 5.645 16.255 13.67 21.22 23.26.816 1.564 1.156 2.993 1.904 4.625 1.429 3.333 3.197 6.733 4.625 9.998 1.428 3.196 2.788 6.461 4.829 9.114 1.02 1.427 5.1 2.176 6.937 2.924 1.36.612 3.47 1.157 4.693 1.905 2.313 1.427 4.625 3.06 6.802 4.624 1.088.816 4.488 2.517 4.693 3.877Z"/>
	<path fill="#00546B" d="M22.737 17.818c-1.156 0-1.972.137-2.788.34v.137h.136c.544 1.088 1.495 1.836 2.176 2.788.544 1.088 1.02 2.177 1.564 3.265l.136-.136c.953-.68 1.429-1.768 1.429-3.4-.409-.477-.477-.953-.817-1.429-.408-.68-1.292-1.02-1.836-1.565Z"/>
</svg>