<svg xmlns="http://www.w3.org/2000/svg" viewBox="0 0 100 100">
	<path fill="#000" d="M9.004 95.157a11.432 11.432 0 0 1 11.981-5.407 143.88 143.88 0 0 0 32.848-.198 43.655 43.655 0 0 1 10.798-.08l16.788 1.385a36.9 36.9 0 0 1 5.142.724 3.64 3.64 0 0 1 3.042 2.852 3.56 3.56 0 0 1-2.025 4.011 10.569 10.569 0 0 1-4.866 1.396l-18.037-.854a134.297 134.297 0 0 0-15.605.443c-7.18.712-14.414.76-21.597.135-3.984-.348-8.018-.127-12.025-.198A7.007 7.007 0 0 1 9 96.756l.004-1.599Zm80.44-71.256.594 13.655a68.168 68.168 0 0 1-.277 8.82 65.34 65.34 0 0 0 0 18.426c.376 2.65.293 5.34-.237 7.962a6.842 6.842 0 0 1-7.547 6.353 72.83 72.83 0 0 1-13.07-1.907 13.41 13.41 0 0 1-7.491-5.826 83.499 83.499 0 0 1-4.866-7.848 63.815 63.815 0 0 0-9.307-13.07 66.266 66.266 0 0 1-5.783-8.156 16.815 16.815 0 0 0-1.27-2.045 2.73 2.73 0 0 0-4.802.91 9.652 9.652 0 0 0-.503 3.176l-.395 18.473a9.02 9.02 0 0 1-.692 3.113 8.544 8.544 0 0 0-.186 7.702 3.086 3.086 0 0 1-2.223 4.446 18.355 18.355 0 0 1-14.098-.396 6.35 6.35 0 0 1-3.956-5.985l-.474-13.267a8.648 8.648 0 0 1 2.82-7.333 11.883 11.883 0 0 0 2.243-2.817c1.364-1.977 1.277-4.549-.21-6.392a25.118 25.118 0 0 1-4.885-18.56l.297-13.235.031-3.216a3.996 3.996 0 0 1 5.123-4.51 27.729 27.729 0 0 0 9.81-1.83 5.933 5.933 0 0 1 8.144 3.623c.506 1.091.894 2.235 1.345 3.354a6.724 6.724 0 0 0 4.059 4.2 9.612 9.612 0 0 1 4.782 4.119l12.61 18.17a31.522 31.522 0 0 0 4.446 5.178c1.8 1.634 3.291 1.124 3.584-1.352.562-3.837.74-7.726.534-11.602a129.848 129.848 0 0 1 .202-18.046 6.025 6.025 0 0 1 1.859-5.569 6.016 6.016 0 0 1 5.716-1.337l4.446.253a8.584 8.584 0 0 1 8.948 7.124 23.3 23.3 0 0 1 .799 5.146l.039 10.06-.158.035Z"/>
</svg>