<svg xmlns="http://www.w3.org/2000/svg" viewBox="0 0 100 100">
	<path fill="#65ADF1" d="M100.004 25.001C100.004 11.203 88.801 0 75.003 0H25C11.203 0 0 11.203 0 25.001v50.002c0 13.798 11.203 25.001 25.001 25.001h50.002c13.798 0 25.001-11.203 25.001-25.001V25Z"/>
	<path fill="#fff" d="M82.327 50.096v-.108a.048.048 0 0 0-.043-.047c-3.247-.317-5.784-3.03-5.784-6.36v-13.58a6.524 6.524 0 0 0-6.524-6.524h-6.83v32.978L36.858 23.511l-.027-.034h-6.803A6.525 6.525 0 0 0 23.504 30v13.582c0 3.33-2.537 6.042-5.784 6.358a.049.049 0 0 0-.043.048v.108c0 .025.019.046.044.048 3.258.305 5.808 2.953 5.808 6.29v13.57a6.524 6.524 0 0 0 6.524 6.523h6.805V43.525L63.146 76.47l.047.058h6.758c2.668 0 4.962-1.709 5.973-4.06.354-.823.55-1.725.55-2.659V56.434c0-3.337 2.551-5.985 5.81-6.29a.047.047 0 0 0 .043-.048Z"/>
</svg>