<svg xmlns="http://www.w3.org/2000/svg" viewBox="0 0 100 100">
	<path fill="#018BFF" d="M73.63 31.726a14.523 14.523 0 0 0-10.396 3.644L43.727 22.616c.525-1.57.743-3.225.643-4.877a17.685 17.685 0 1 0-17.685 17.63 14.201 14.201 0 0 0 10.343-3.643l19.507 13.397a13.984 13.984 0 0 0-.59 4.877c-.098 1.648.102 3.3.59 4.877l-19.507 13.45a16.452 16.452 0 0 0-10.343-3.697A17.685 17.685 0 1 0 44.37 82.315a12.754 12.754 0 0 0-.643-4.877l19.507-13.397a16.4 16.4 0 0 0 10.396 3.644A17.631 17.631 0 0 0 91.262 50c.062-9.87-7.767-17.983-17.632-18.274Z"/>
</svg>