<svg xmlns="http://www.w3.org/2000/svg" viewBox="0 0 100 100">
	<path fill="#e0234e" d="M58.9 0c-.7 0-1.4.2-2 .4 1.5 1 2.3 2.5 2.5 3.8.4 2.3-.6 3.3-1 4.4-.8 2-.4 4.1.7 5.7-1-6.5 4.5-7.5 5.5-9.6 0-2-2.6-4.7-5.7-4.7zm6.2 6.2c-1.6 1.3-4.2 2.3-4.9 5.1-.5 1.6-.4 3.3.3 4.6-8.6-3.3-16.3-5.6-28.1-3.7-3.6.5-6.6 1.9-6.7 2-3.4 1.7-3.3 1.6-5.8 3.6 0 0-.4.4-.6.5l-.6.5c-.1.1-.8.9-1 1 0 .1-.1.1-.1.1C9.7 28 5.3 25 2.5 27.8.8 29-.6 32.6.3 34.5c.6 1.2 2.2 2.5 3.5 3.1h.1v.1c.1.8.5 1.7.6 1.8.5 1 1.5 2.1 1.7 2.1.7.6 1.5 1 2.1 1.2.1.2.3.2.5.2-.2 4-.1 4.6 2.6.3-.2 1.8-.3 3.9 0 4.5.3.6 1.8-1.4 3.2-3.6 18.3-4.2 35 8.4 36.8 26.3-.3-2.8-3.8-4.3-5.3-3.9-.8 1.9-2.1 4.4-4.2 5.9.2-1.7.1-3.5-.3-5.2-.6 2.4-1.7 4.6-3.2 6.5-2.5.2-4.9-1-6.2-2.8-.2-.1-.6-1.1-.6-2 0-.8.3-1.5.6-2 .4-1.2.4-2.2-.4-2.8-.9-.6-2.7-.9-3.6-.6-1.1.2-1.6.6-2.1.8-6 3.9-2.4 13.1 1.7 15.8-.7.1-3.2.6-3.6 1 2.6 1.6 4.4 2.1 7.7 3 13.9 2.9 27-6.7 29-20.5.9 4.2.5 6.7.5 7.5 0 .1-.3 2.7-.7 4.2v.1c-.1.3-.2.5-.2.7v.1c-.4 1.4-.7 2.1-1.1 3-.1.1-.4.8-.4.9 0 0 0 .1-.1.1-2 4-5.2 7.4-8.6 9.6l.1.2c.9 0 7-1.1 12.6-3.4-4.1 5.7-9.7 10.2-16 13.1 14.8-1 26.8-9.5 33.2-21-1.1 6-3.4 11.7-6.9 16.6 9.7-6.4 16-16.6 17.8-27.7.9 4.1 1.1 8.3.7 12.4 18.6-26 1.6-53-5.6-60.1 0-.1-.1-.1-.1-.1-.1.1 0 .1-.1 0 0 10.7-11.8 19.6-22.9 15.9C79 34.6 84.9 15.3 73.8 5.5c-2-1.6-4.1-3.1-6.6-3.9-.1 2.1-1.2 4-2.1 4.6z"/>
</svg>