<svg xmlns="http://www.w3.org/2000/svg" viewBox="0 0 100 100">
	<path fill="#512BD4" d="M100 0H0v100h100V0Z"/>
	<path fill="#fff" d="M17.823 63.889c-.707 0-1.308-.236-1.803-.707-.495-.483-.742-1.057-.742-1.722 0-.677.247-1.256.742-1.74a2.484 2.484 0 0 1 1.803-.725c.72 0 1.326.242 1.821.725.507.484.76 1.063.76 1.74 0 .665-.253 1.239-.76 1.722-.495.471-1.102.707-1.82.707Zm28.267-.399h-4.597L29.385 44.387a8.547 8.547 0 0 1-.76-1.504h-.107c.095.556.142 1.746.142 3.57V63.49h-4.066V37.5h4.896l11.703 18.65c.495.773.813 1.305.954 1.595h.07c-.117-.689-.176-1.855-.176-3.498V37.5h4.048v25.99Zm19.798 0h-14.23V37.5h13.665v3.661h-9.458v7.358h8.715v3.644h-8.715v7.684h10.023v3.643Zm20.223-22.329h-7.283v22.33h-4.207V41.16h-7.265V37.5h18.755v3.661Z"/>
</svg>