<svg xmlns="http://www.w3.org/2000/svg" viewBox="0 0 100 100">
	<path fill="#A1C535" d="M50.36 0v19.336l-26.563 15.43L7 25 50.36 0Z"/>
	<path fill="#ADD439" d="m93.719 25-16.797 9.766-26.563-15.43V0l43.36 25Z"/>
	<path fill="#1B6AC6" d="m93.719 75-16.797-9.766V34.766L93.719 25v50Z"/>
	<path fill="#2E90E8" d="M50.36 100V80.664l26.562-15.43L93.719 75l-43.36 25Z"/>
	<path fill="#EA205E" d="m7 75 16.797-9.766 26.562 15.43V100L7 75Z"/>
	<path fill="#A5073E" d="m7 25 16.797 9.766v30.468L7 75V25Z"/>
	<path fill="#F1F6E2" d="m23.797 34.766 26.562-15.43 26.563 15.43L50.359 50 23.797 34.766Z"/>
	<path fill="#CEDBE6" d="m50.36 50 26.562-15.234v30.468l-26.563 15.43V50Z"/>
	<path fill="#fff" d="M23.797 34.766 50.359 50v30.664l-26.562-15.43V34.766Z"/>
</svg>