<svg xmlns="http://www.w3.org/2000/svg" viewBox="0 0 100 100">
	<path fill="#176B97" d="M99.75 47.713A50.683 50.683 0 0 0 74.638 7.35L70.4 5l-3.225 3.686a21.84 21.84 0 0 0-3.87 12.164 48.565 48.565 0 0 0-26.91 0 21.425 21.425 0 0 0-3.87-12.164L29.346 5 25.06 7.35A50.684 50.684 0 0 0 .225 47.713a39.119 39.119 0 0 0 9.906 30.456c20.228 22.486 59.577 22.486 79.85 0a38.888 38.888 0 0 0 9.769-30.456Zm-18.8 22.393a43.68 43.68 0 0 1-61.88 0 26.538 26.538 0 0 1-6.773-21.15 41.469 41.469 0 0 1 12.21-26.217c.2 2.238.2 4.49 0 6.728l-1.106 11.288 9.769-5.437a35.017 35.017 0 0 1 33.451 0l9.999 5.391-.968-11.427a43.463 43.463 0 0 1 0-6.727 41.1 41.1 0 0 1 12.256 26.218 26.678 26.678 0 0 1-6.773 21.149l-.184.184Z"/>
</svg>