<svg xmlns="http://www.w3.org/2000/svg" viewBox="0 0 100 100">
	<path fill="#000" d="M46.725.027c-.215.02-.899.088-1.515.137-14.203 1.28-27.507 8.943-35.933 20.72C4.585 27.433 1.584 34.861.45 42.728.049 45.475 0 46.286 0 50.01s.049 4.535.45 7.281c2.717 18.776 16.08 34.55 34.203 40.395 3.245 1.046 6.667 1.76 10.557 2.19 1.515.166 8.065.166 9.58 0 6.715-.743 12.405-2.405 18.015-5.269.86-.44 1.027-.557.91-.654-.079-.06-3.744-4.975-8.143-10.918l-7.996-10.8-10.02-14.827c-5.513-8.15-10.049-14.816-10.088-14.816-.039-.01-.078 6.577-.098 14.621-.029 14.084-.039 14.65-.215 14.983-.254.48-.45.675-.86.89-.313.156-.586.185-2.062.185h-1.691l-.45-.283a1.827 1.827 0 0 1-.655-.714l-.205-.44.02-19.596.029-19.606.303-.381c.156-.205.488-.47.723-.596.4-.196.557-.215 2.248-.215 1.994 0 2.327.078 2.845.645.146.156 5.572 8.327 12.062 18.17 6.491 9.841 15.367 23.28 19.727 29.877l7.918 11.993.4-.264c3.549-2.307 7.302-5.59 10.274-9.011 6.325-7.262 10.4-16.117 11.77-25.559.4-2.746.449-3.557.449-7.281 0-3.724-.049-4.535-.45-7.282-2.717-18.775-16.08-34.55-34.203-40.394-3.196-1.036-6.598-1.75-10.41-2.18-.939-.098-7.4-.205-8.212-.127Zm20.47 30.24c.469.234.85.684.987 1.153.078.254.098 5.688.078 17.935l-.03 17.573-3.098-4.75-3.109-4.75V44.654c0-8.259.04-12.902.098-13.126.157-.548.499-.978.968-1.232.4-.205.547-.225 2.082-.225 1.447 0 1.7.02 2.023.196Z"/>
</svg>