<svg xmlns="http://www.w3.org/2000/svg" viewBox="0 0 100 100">
	<path fill="#009639" d="M6.706 75.019c.454.807 1.11 1.412 1.917 1.866l38.84 22.396c1.614.959 3.581.959 5.145 0l38.84-22.396c1.614-.908 2.572-2.623 2.572-4.489V27.604c0-1.866-.958-3.581-2.572-4.49L52.608.72c-1.614-.959-3.581-.959-5.145 0L8.623 23.115C6.958 24.023 6 25.738 6 27.604v44.842c0 .908.202 1.766.706 2.573Z"/>
	<path fill="#fff" d="M37.576 67.1a4.973 4.973 0 0 1-4.993 4.993 4.973 4.973 0 0 1-4.994-4.993V32.85c0-2.674 2.37-4.843 5.65-4.843 2.37 0 5.144.959 6.809 3.027l1.513 1.816 20.883 24.968V32.951a4.973 4.973 0 0 1 4.994-4.994 4.973 4.973 0 0 1 4.993 4.994V67.2c0 2.673-2.37 4.842-5.65 4.842-2.37 0-5.144-.959-6.809-3.027L37.576 42.282V67.1Z"/>
</svg>