<svg xmlns="http://www.w3.org/2000/svg" viewBox="0 0 100 100">
	<path fill="#412846" d="M49.717 0 3 16.216l6.688 61.98L49.718 100V0Z"/>
	<path fill="#4B314F" d="m49.517 0 46.717 16.216-6.688 61.98L49.516 100V0Z"/>
	<path fill="#BA2BD2" d="m72.902 34.22-.008-.027c2.133 2.374 3.229 5.193 3.287 8.457.058 3.264-1.037 6.707-3.312 10.319 1.7-1.322 3.663-4.175 5.883-8.526.96 8.818-2.604 15.516-10.723 20.103 2.592-.239 6.034-1.945 10.302-5.126-4.555 10.968-12.93 16.754-25.127 17.36-11.787-.004-19.422-7.087-19.416-7.082-4.846-3.772-8.18-8.525-9.992-14.24-2.898-3.165-2.927-3.505-3.226-4.77-.299-1.264.19-1.617 1.038-2.855.566-.825.7-2.012.409-3.54-.722-1-1.137-2.567-1.247-4.7 0-1.032.688-2.12 2.065-3.265 1.376-1.144 2.22-2.025 2.526-2.63.234-.331.324-1.764.27-4.299-.014-2.49 1.369-3.844 4.148-4.063 4.168-.33 6.52-3.464 7.829-4.89.873-.95 2.165-1.413 3.795-1.422 2.294-.107 4.382.772 6.18 2.587 4.48-.231 9.068.977 13.717 3.594 6.607 3.924 10.213 8.175 10.817 12.729-.708 5.993-8.76 5.837-24.118-.472-8.037 2.277-11.989 7.21-11.857 14.8-.006 6.965 3.365 12.027 10.09 15.179-3.278-3.218-4.674-5.922-4.204-8.162 6.817 8.073 14.582 11.09 23.282 9.053-3.836.134-6.874-1.1-9.16-3.72 5.88-.144 11.431-2.873 16.658-8.218-3.017 2.401-6.175 3.31-9.518 2.739 9.055-7.119 12.259-15.424 9.612-24.914Zm-16.434-1.096a1.33 1.33 0 1 0 0-2.658 1.33 1.33 0 0 0 0 2.658Z"/>
</svg>