<svg xmlns="http://www.w3.org/2000/svg" viewBox="0 0 100 100">
	<path fill="#fff" d="M35.186 27.497c.142-.992.709-3.119 1.418-3.686 1.417-1.134 3.119-1.56 4.678-.425 1.985 1.417 2.836 2.977 2.41 5.387-.425 2.269-3.118 3.261-5.245 3.261 1.843-.709 3.828-1.418 3.828-3.686-.142-.85-1.701-.709-2.269-1.418-.425-.709.426-2.41-.141-2.552-.426 0-.851-.142-1.276 0-1.418.142-2.694 1.276-3.403 3.12Zm-2.552 14.746c2.977-1.985 4.253-4.962 5.67-7.515-1.275 1.986-1.275 4.112-2.551 5.955-.567.851-2.127 1.276-3.12 1.56Z"/>
	<path fill="#87802A" d="M50.77 1C36.063 1 22.817 7.59 13.798 17.984c1.4.11 2.739.322 3.939.69.015.004.034-.005.049 0C26.118 9.904 37.817 4.397 50.77 4.397h.148c25.095 0 45.636 20.547 45.636 45.784s-20.54 45.784-45.636 45.784h-.148c-25.096 0-45.636-20.547-45.636-45.784 0-3.595.443-7.078 1.23-10.437-.457-3.024-1.014-5.261-1.673-6.35A48.909 48.909 0 0 0 1.737 50.18c0 27.08 22.094 49.082 49.033 49.082h.148C77.856 99.263 100 77.261 100 50.181 100 23.1 77.856 1 50.918 1h-.148Z"/>
	<path fill="#903A36" d="M89.063 34.586C85.377 24.095 76.445 15.02 65.243 10.91c-6.947-2.552-18.006-1.843-25.095.425-5.671 1.843-5.955 1.843-11.2 4.963-1.986 1.134-5.672.141-7.09 1.984-1.418 1.844 1.56 4.538 1.702 6.806 0 .992 3.544-5.813 3.544-4.962 0 2.126-2.41 6.663-2.835 9.783-.851 5.954 1.276 23.394 2.693 29.065.284.85 2.978-.142 3.687-.425 1.134-.142 2.127-3.829 3.828-4.963C41.85 48.34 45.82 41.534 51.917 40.4c5.529-.993 12.192 2.268 14.603 6.805 1.276 2.41 2.268 5.104 2.268 6.806 0 1.276-.425 1.985-.709 1.276-1.701-4.82-3.402-8.507-4.962-9.783-3.686-2.978-5.388-3.828-10.775-2.694-5.53 1.276-15.88 11.342-19.141 15.88-1.985 2.693-2.694 7.372-1.276 9.499 4.395 6.38 7.94 8.081 15.738 8.649.283 0 2.552 1.56 1.56 1.56-9.925 0-14.888-2.695-21.552-13.187-.709-1.134-2.268-5.387-2.694-6.663-2.693-7.231-1.985-19.283-3.402-28.924-.426-2.836-.993-6.097-2.41-8.082-2.27-3.402-16.022-2.694-18.007.851-1.134.85-1.56 1.56-.709 2.127 7.515 5.671 7.515 11.91 7.798 18.006.284 7.94.284 13.753 3.12 21.126 5.67 15.454 18.431 25.662 32.751 27.647 17.44 2.552 30.058-4.395 39.557-16.446 8.507-10.776 9.925-27.506 5.388-40.267Z"/>
	<path fill="#fff" d="M36.603 25.512c.142-1.134.426-3.828 1.276-4.679 1.56-1.418 3.687-2.268 5.53-1.134 2.694 1.56 3.97 3.403 3.828 6.38-.283 2.836-3.544 4.254-5.955 4.537 1.985-.992 4.537-2.127 4.112-4.962-.283-.993-2.268-.567-2.977-1.418-.568-.709.141-2.977-.568-3.12-.425 0-.992 0-1.417.143-1.702.425-3.261 1.984-3.829 4.253Zm-3.26 17.44c.567-.851 1.984-2.269 2.977-3.687 1.418-1.843 1.276-2.977 3.261-5.104-1.701 2.836-.992 4.112-2.552 5.813-.709.71-1.418 1.843-3.687 2.978Z"/>
</svg>