<svg xmlns="http://www.w3.org/2000/svg" viewBox="0 0 100 100">
	<path fill="#452815" d="m4.95 67.894 18.123 18.122h74.08v2.758h-74.08L11.844 100l-1.95-1.95 10.657-10.654L3 69.844l1.95-1.95Z"/>
	<path fill="#794422" d="M56.379 84.223c20.652 0 37.395-14.372 37.395-32.101 0-17.73-16.743-32.102-37.395-32.102-20.653 0-37.396 14.373-37.396 32.102S35.726 84.223 56.38 84.223Z"/>
	<path fill="#502D17" d="M56.377 0c4.86 0 9.457 1.57 13.55 4.366L81.401.142A1.634 1.634 0 0 1 83.6 1.751l-.01.11-1.863 16.621c3.526 7.041 5.595 15.618 5.595 24.872 0 23.942-13.853 43.351-30.943 43.351-17.089 0-30.942-19.41-30.942-43.35 0-8.995 1.955-17.35 5.302-24.277L28.804 1.86a1.635 1.635 0 0 1 2.19-1.718l11.71 4.31C46.827 1.602 51.468 0 56.377 0Z"/>
	<path fill="#fff" d="M68.595 12.162c7.97 0 14.43 7.36 14.43 16.44 0 8.909-6.219 16.162-13.983 16.431 5.386 3.647 8.888 9.56 8.888 16.234 0 11.078-9.65 20.059-21.553 20.059-11.902 0-21.55-8.981-21.55-20.058 0-6.671 3.496-12.582 8.877-16.229l-.295-.007c-7.748-.286-13.953-7.532-13.953-16.43 0-9.078 6.46-16.438 14.43-16.438 5.24 0 9.827 3.182 12.355 7.943 2.527-4.762 7.115-7.945 12.354-7.945ZM56.24 37.1a16.056 16.056 0 0 1-3.376 4.372 23.314 23.314 0 0 1 6.7-.047A16.05 16.05 0 0 1 56.24 37.1Z"/>
	<path fill="#FF7F2B" d="M55.193 34.205a3.296 3.296 0 0 1 2.477.026c2.516 1.046 4.317 2.331 5.9 4.2.525.621.556 1.515.124 2.203-1.648 2.627-3.647 4.603-6.195 6.562a1.744 1.744 0 0 1-2.12 0c-2.548-1.959-4.546-3.935-6.195-6.562-.428-.681-.391-1.566.128-2.18 1.644-1.942 3.248-3.213 5.881-4.25Z"/>
	<path fill="#D6D6D6" d="M54.945 51.097a2.884 2.884 0 1 1-5.768 0h5.768Zm8.764 0a2.885 2.885 0 1 1-5.77 0h5.77Zm-13.144 5.75a2.884 2.884 0 1 1-5.77 0h5.77Zm8.761 0a2.885 2.885 0 1 1-5.77 0h5.77Zm8.764 0a2.885 2.885 0 1 1-5.77 0h5.77ZM46.183 62.47a2.883 2.883 0 0 1-2.885 2.885 2.883 2.883 0 0 1-2.883-2.885h5.768Zm8.762 0a2.883 2.883 0 1 1-5.769 0h5.77Zm8.764 0a2.883 2.883 0 0 1-2.886 2.885 2.883 2.883 0 0 1-2.885-2.885h5.77Zm8.76 0a2.884 2.884 0 1 1-5.769 0h5.77Zm-21.904 5.751a2.884 2.884 0 1 1-5.77 0h5.77Zm8.761 0a2.885 2.885 0 1 1-5.77 0h5.77Zm8.764 0a2.885 2.885 0 1 1-5.77 0h5.77Zm-13.145 5.624a2.884 2.884 0 1 1-5.769 0h5.77Zm8.764 0a2.884 2.884 0 0 1-2.886 2.885 2.884 2.884 0 0 1-2.885-2.885h5.77Z"/>
	<path fill="#C2DDEB" d="M45.77 35.158a8.396 8.396 0 1 0 0-16.792 8.396 8.396 0 0 0 0 16.792Zm20.543.002a8.398 8.398 0 1 0 0-16.796 8.398 8.398 0 0 0 0 16.796Z"/>
	<path fill="#000" d="M45.77 32.016a5.254 5.254 0 1 0 0-10.508 5.254 5.254 0 0 0 0 10.508Zm20.543 0a5.254 5.254 0 1 0 0-10.508 5.254 5.254 0 0 0 0 10.508Z"/>
	<path fill="#fff" d="M47.093 26.762a1.944 1.944 0 1 0 0-3.889 1.944 1.944 0 0 0 0 3.889Zm20.543 0a1.945 1.945 0 1 0 0-3.89 1.945 1.945 0 0 0 0 3.89Z"/>
	<path fill="#FF7F2B" d="M73.806 86.714c0 2.214-1.222 4.008-2.726 4.008-1.507 0-2.73-1.794-2.73-4.008 0 2.214-1.22 4.008-2.728 4.008-1.506 0-2.729-1.794-2.729-4.008 0 2.214-1.22 4.008-2.727 4.008-1.505 0-2.728-1.794-2.728-4.008 0-3.13 3.653-5.664 8.16-5.664 4.505 0 8.159 2.535 8.159 5.664h.05Zm-18.61 0c0 2.214-1.223 4.008-2.729 4.008s-2.728-1.794-2.728-4.008c0 2.214-1.22 4.008-2.728 4.008-1.507 0-2.726-1.794-2.726-4.008 0 2.214-1.223 4.008-2.73 4.008-1.505 0-2.727-1.794-2.727-4.008 0-3.13 3.653-5.664 8.16-5.664 4.506 0 8.16 2.535 8.16 5.664h.047Z"/>
</svg>