<svg xmlns="http://www.w3.org/2000/svg" viewBox="0 0 100 100">
	<path fill="#3D3B47" d="M50.234 98.815c-.948 0-1.817-.237-2.449-.553L9.633 76.304c-1.342-.79-2.448-2.765-2.448-4.266V27.962c0-1.5 1.185-3.475 2.448-4.265L47.785 1.738c.632-.395 1.5-.553 2.449-.553.948 0 1.817.237 2.449.553l38.072 22.038c1.342.79 2.448 2.764 2.448 4.265v43.997c0 1.5-1.184 3.475-2.448 4.265L52.682 98.341c-.632.316-1.5.474-2.449.474Z"/>
	<path fill="#CCC" d="M50.234 2.37c.71 0 1.422.158 1.895.395l38.073 21.96c.948.552 1.896 2.132 1.896 3.237V71.96c0 1.106-.948 2.686-1.896 3.239L52.13 97.236c-.474.237-1.185.395-1.896.395-.711 0-1.422-.158-1.896-.395l-38.073-21.96c-.947-.553-1.895-2.133-1.895-3.238V27.962c0-1.105.948-2.685 1.895-3.238l38.073-21.96c.474-.236 1.185-.394 1.896-.394Zm0-2.37c-1.106 0-2.212.237-3.08.71L9.08 22.67C7.42 23.697 6 26.066 6 27.962V71.96c0 1.975 1.343 4.345 3.08 5.292L47.154 99.29c.87.474 1.975.711 3.08.711 1.107 0 2.213-.237 3.081-.71L91.387 77.25c1.659-.947 3.08-3.317 3.08-5.292V27.962c0-1.975-1.342-4.345-3.08-5.292L53.314.71C52.446.237 51.34 0 50.234 0Z"/>
	<path fill="#EFF3F3" d="M50.234 46.604h.237c1.106.078 2.132.71 2.764 1.658.316.553.474 1.264.474 1.975-.158 1.817-1.58 3.16-3.396 3.16h-.237c-1.106-.08-2.133-.711-2.765-1.66-.316-.552-.474-1.263-.474-1.974.08-1.737 1.58-3.16 3.397-3.16Zm0-.237c-1.896 0-3.476 1.5-3.634 3.396-.079.711.08 1.422.474 2.054.632 1.027 1.659 1.738 2.923 1.816h.237c1.895 0 3.475-1.5 3.633-3.396.08-.71-.158-1.422-.473-2.054-.633-1.026-1.66-1.737-2.923-1.816h-.237Z"/>
	<path fill="#EFF3F3" d="M50.313 48.815c.632.08 1.185.632 1.106 1.264-.08.632-.632 1.185-1.264 1.106-.632-.079-1.185-.632-1.106-1.264 0-.632.632-1.185 1.264-1.106Zm-.08 6.003h-.315c-1.58-.078-3.08-1.026-3.87-2.37-.474-.868-.711-1.816-.632-2.764a4.923 4.923 0 0 1 1.263-2.922v-.08l-31.2 23.776 35.86-15.797c-.394.078-.71.157-1.105.157Z"/>
	<path fill="#0977F7" d="M49.049 45.34c.474-.08.948-.158 1.5-.158 1.58.079 3.081 1.026 3.871 2.37.474.868.711 1.816.632 2.764-.079 1.185-.553 2.212-1.343 3.002l31.517-23.223L49.049 45.34Z"/>
</svg>