<svg xmlns="http://www.w3.org/2000/svg" viewBox="0 0 100 100">
	<path fill="#539E43" d="M50.373 100c-1.378 0-2.664-.368-3.858-1.01l-12.22-7.258c-1.837-1.01-.918-1.378-.367-1.562 2.48-.827 2.94-1.01 5.513-2.48.275-.184.643-.092.918.091l9.37 5.604c.368.184.828.184 1.103 0l36.656-21.222c.368-.183.552-.55.552-1.01V28.801c0-.46-.184-.827-.552-1.01L50.832 6.66c-.367-.184-.827-.184-1.102 0L13.074 27.79c-.367.183-.551.643-.551 1.01v42.352c0 .367.184.827.551 1.01l10.014 5.788c5.42 2.756 8.82-.459 8.82-3.674V32.475c0-.551.459-1.103 1.102-1.103h4.685c.551 0 1.102.46 1.102 1.103v41.8c0 7.258-3.95 11.484-10.84 11.484-2.113 0-3.767 0-8.452-2.297L9.859 77.95A7.753 7.753 0 0 1 6 71.245V28.893a7.753 7.753 0 0 1 3.859-6.707L46.515.965c2.296-1.287 5.42-1.287 7.716 0l36.657 21.221a7.753 7.753 0 0 1 3.858 6.707v42.352a7.753 7.753 0 0 1-3.858 6.706L54.23 99.173c-1.194.551-2.572.827-3.858.827Zm11.3-29.123c-16.077 0-19.385-7.35-19.385-13.596 0-.552.46-1.103 1.103-1.103h4.777c.551 0 1.01.368 1.01.919.736 4.869 2.849 7.258 12.587 7.258 7.717 0 11.024-1.746 11.024-5.88 0-2.389-.918-4.134-12.953-5.328-10.014-1.011-16.261-3.216-16.261-11.209 0-7.441 6.247-11.85 16.72-11.85 11.76 0 17.547 4.041 18.282 12.861 0 .276-.092.551-.276.827-.183.184-.459.367-.735.367H72.79c-.46 0-.918-.367-1.01-.827-1.103-5.052-3.95-6.706-11.484-6.706-8.452 0-9.463 2.94-9.463 5.145 0 2.664 1.195 3.49 12.587 4.96 11.3 1.47 16.628 3.584 16.628 11.484-.092 8.085-6.707 12.678-18.374 12.678Z"/>
</svg>