<svg xmlns="http://www.w3.org/2000/svg" viewBox="0 0 100 100">
	<path fill="#90e59a" d="M27.7 27.9c2.7-2.6 6.5-3.4 10-4.5 4-.2 8 1 11.6 2.7 1.6.6 1.5 2.5 1.8 3.9-1.1.3-2.3.5-3.4.8.5-.8 1-1.5 1.4-2.3 0-.8-.9-1-1.4-1.6L46 28.1l-1.2-1c-1.1.2-2.3.3-3.3-.3-1.8-.8-3.7-1.4-5.6-1.2-.9.4-1.6 1.1-2.3 1.7V26c-.4.5-.8.9-1.2 1.4-2.7.3-4 3.1-3.4 5.5-.6.4-1.2.9-1.7 1.4.6-1.2 1.2-2.6.4-3.9-2 .6-2.2 2.8-3.1 4.4-.9 1.7-2.5 3.1-3.3 4.9-.1 1 .1 2 .2 3-.8-.2-1.5-.4-2.2-.6 1.9-5.2 4.2-10.5 8.4-14.2z"/>
	<path fill="#5cce74" d="M33.6 27.3c.8-.6 1.4-1.3 2.3-1.7 2-.2 3.8.4 5.6 1.2-.2 1.1-.6 2.2-1.1 3.2-1.5-.8-3-1.6-4.4-2.5l.8 1.7c-.3.4-.7.9-1 1.3-.6-.8-1.3-1.6-1.9-2.5-.2 1.2-1.1 2.1-2.4 1.4 1-2.2.8-1.9 2-3.4.1.3.1.9.1 1.3z"/>
	<path fill="#75d66f" d="M41.5 26.8c1 .6 2.2.4 3.3.3l1.2 1 1.8-1.2c.4.5 1.3.8 1.4 1.6-.5.8-.9 1.6-1.4 2.3-.3.1-.8.2-1.1.3.6.7 1.1 1.4 1.7 2-2.4.1-4.1-1.5-6-2.7-1.7.3-2.9 2-4.6 2.2-.8-.4-1.6-.9-2.4-1.4-.3.9-.5 1.9-1 2.6-.8.5-1.8.5-2.7.8 0 .4.1.8.1 1.3-1-.9-2.2-1.8-3.6-1.2 1.6 1.7-3.9 2-4.2 5.4-.4 1 0 2.5-1.1 3-1.3.3-2.6.1-3.9.1.1-.3.3-.9.3-1.2.8.2 1.5.4 2.2.6-.1-1-.3-2-.2-3 .8-1.8 2.4-3.2 3.3-4.9.9-1.6 1.1-3.8 3.1-4.4.7 1.3.2 2.7-.4 3.9.6-.5 1.1-.9 1.7-1.4-.6-2.4.7-5.2 3.4-5.5-.3.6-.6 1.3-.9 1.9 1.2.7 2.2-.2 2.4-1.4.6.9 1.2 1.7 1.9 2.5.3-.4.6-.9 1-1.3l-.8-1.7c1.4.9 2.9 1.7 4.4 2.5.4-.8.8-1.9 1.1-3zm-12.6 20c.7.1 1.4.3 2 .4-2.8 7.5-2.2 6.5.9 10.5-1.4.4-3.3.1-4.3 1.4-.6 2.5 1.7 4 3.2 5.5-2.1-.8-4.5-1.9-5.3-4.3 1-1.3 2.3-2.3 3.7-3.3-1.9-3-2.8-7.4-.2-10.2zm21.8 5.3c.5.4 1 .9 1.5 1.3.1.8.1 1.7.2 2.6-.9-1.2-1.7-2.4-1.7-3.9zm13.4.7c1.6-2.3 3.3 2.1 4.4 4.6.9.1 1.8.1 2.7.2-1.8.7-3.5 1.7-3.7 3.7-.8-1.1.3-2 .8-3-1-2.2-3.5-3.2-4.2-5.5zm-25.7 1.3.5-.3c.1 1.4.8 3.1-.3 4.3-1-.1-2-.2-3.1-.3 1.5-.9 2.5-2 2.9-3.7zm14 1.9c.8 1 1.6 1.9 2.5 2.7 1-1.2 3.2-3 4.2-.8-1.5.7-3.4 1.3-3.9 3.1 0 1.3.7 3.2 1.3 4.9-3.5-2.2-1.4-7.1-4.1-9.9zm18.8.4c1.5.2 3.1.5 4.2 1.6-1.4-.1-2.9 0-4.2-.5v-1.1zm-3.7 8.2c1.8.8 3.6 1.6 5.4 2.3 1.1-.4 2.6-2.8 3.5-1.1-5 4.5-6.6 1-8.9-1.2zm-49.9.3c.3.1 1 .2 1.4.2 1.5 3.5 1.6 7.6 3.7 10.8 4.1 6.8 2.3 6.2 8.3 10.8 4 2.9 10.5 2.5 13.3-1.8 1.8-3.8-.4-7.9-2-11.4-2.6-4.2-9.5-1-9.4 3.5-.8-4.5 5-8.3 8.8-6 2.7 1.8 3.5 5.1 4.6 8 1.3 3.4-.6 7.5-3.8 9-2.5 1.6-5.6 1-8.4 1-3.8-.2-6.3-3.3-8.8-5.8-2.4-3-4-6.5-5.9-9.8-1.1-2.8-1.6-5.6-1.8-8.5zM38 76.4c.4.5.8 1.1 1.2 1.6-1.1 1.4-2.8 1.3-4.3 1.1-.6-.7-1.3-1.4-1.9-2.1 1.5.9 3.2 2.8 5.1 1.6-.1-.7-.1-1.5-.1-2.2z"/>
	<path fill="#8fe772" d="M37.7 32.6c1.7-.2 2.9-2 4.6-2.2 1.9 1.2 3.6 2.8 6 2.7-.6-.7-1.1-1.4-1.7-2 .4-.1 0 0 4.5-1 .3 1.1.6 2.2.9 3.2l-1.6 1.6c1.2 1.6 2.2 3.3 3.4 4.9 2.4-.7 4 1.7 5 3.5-6.2-.4-5.2-1.1-9.5-4.6l-2 .6c-.5-1.3-.8-3-2.5-3.3.1.7.3 1.3.4 2-1 .6-2 .8-3.2.5.4-.9.9-1.8 1.4-2.7-1.4-.1-2.1 1-2.9 2-.2-.5-.3-.9-.4-1.4-.5-.1-1-.2-1.5-.2-.7.2-1 1.2-1.8 1.2-1.3-.1-2.5-.7-3.8-.7-1.6.2-3.1.9-4.6 1.4l-1.5-1.2c.7-.5 2.2-.9 1.2-1.9 1.4-.6 2.6.3 3.6 1.2 0-.4-.1-.8-.1-1.3.9-.2 1.9-.3 2.7-.8.5-.8.7-1.8 1-2.6.8.2 1.6.7 2.4 1.1z"/>
	<path fill="#a9f37e" d="m50.4 34.9 1.6-1.6c.5 1.6 1.2 3.2 2.6 4.3 2.3 1.7 4.6 3.6 7.5 4.3 2.5.5 5.3.2 7.5-1.3 1.9-1.7 2.8-4.2 4.7-5.8 1.8.9 3.9 1.3 5.6 2.4 1.8 1.2 2.7 3.2 3.8 5-1.2.2-2.4.5-3.6.7.4.8.9 1.5 1.4 2.3-.3.5-.6.9-.9 1.4-.6-.9-1.2-1.9-1.7-2.8-1.3.3-2.5.8-3.6 1.5l.4 1.8c-3.5-1.8-7.2.9-10.5 2.7-1.6-.8-3.1-1.7-4.8-2.4-.7 1.1-1.4 2.1-2.2 3.1-.3-.8-.6-1.6-.8-2.5-.3 0-.8.1-1.1.2-.1 1.2-.1 2.3.1 3.5-.8-.1-1.5-.2-2.3-.3.3-1.6.8-3.1 1.1-4.7-.4 0-1.2.1-1.5.1-1.3 2-1.4 4.4-1.1 6.7-.5-.4-1-.9-1.5-1.3.1-1.6.3-3.2.4-4.9-1.7-.7-2.4 1.2-2.7 2.5-.9-.3-1.9-.6-2.8-.9-2.1-.7-3.5-2.5-5.5-3.3-1.1-.4-1.9-1.3-2.7-2.1-.1.3-.3.9-.3 1.3.8 1.4.8 3.2-.8 4-.7-.1-1.4-.2-2-.3 1.7 1.7 4.2 2 6.4 2.6l-1.3.9c-2.1-.7-4.5-.8-6.5-1.9-.1-.8-.2-1.7-.2-2.5-1.3-.3-2.3-.4-3.8-.8-1.8-2.2-1.7-1.4-4 1.1-.4-.6-.9-1.1-1.3-1.7-3.1.4-2.8 4.1-4.8 5.8-1.3.9-1.2 2.6-2.4 3.7-.6-5.4.2-4.3 2.5-12.4 1.3.1 2.6.3 3.9-.1 1.1-.5.7-2 1.1-3 .2-1.7 1.7-2.7 3-3.4l1.5 1.2c1.5-.5 3-1.1 4.6-1.4 1.3.1 2.5.6 3.8.7.8 0 1-1.1 1.8-1.2.5 0 1 .2 1.5.2.2.5.3.9.4 1.4.8-.9 1.5-2.1 2.9-2-.5.9-.9 1.8-1.4 2.7 1.1.3 2.2 0 3.2-.5-.2-.6-.3-1.3-.4-2 1.6.3 2 2 2.5 3.3l2-.6c4.3 3.7 3.5 4.2 9.5 4.6-1-1.8-2.6-4.2-5-3.5-1.6-1.5-2.7-3.2-3.8-4.8z"/>
	<path fill="#87de71" d="M80.2 42.9c1.2-.3 2.4-.5 3.6-.7.4.8.7 1.6 1 2.5-3.3 3.3-8.1 4.1-12.4 5.1-1.8.5-3.5-.4-4.9-1.3 2.5-1.4 5.4-2.8 8.2-1.4l-.4-1.8c1.1-.7 2.3-1.2 3.6-1.5.6.9 1.2 1.9 1.7 2.8.3-.5.6-1 .9-1.4-.4-.8-.9-1.6-1.3-2.3z"/>
	<path fill="#fbfdfc" d="m56.4 35.5-.1.4c5.1 5.1 12.1 4.5 14.1 0 2.4-4.9 2.8-10.6 1.2-15.8-1.4-1-2.8-2.2-3.7-3.8-1.7-2.4-4.6-4.9-7.7-3.8-6.8.9-8.9 12.2-6.3 18 .2 1.8.6 4.1 2.5 5zm6-9.3c.7 2-.4 4.9-3 4.9-1.1-.8-2.7-1.5-2.5-3.1-.4-3 3.7-2.9 5.5-1.8zm21.2 11.9c1.4-1.5 3.2-2.7 4.8-4.2 2.6-3.9 4.9-9 2.9-13.7-1.4-6.3-13.6-4.1-16.8 1.6.1 3.4.6 6.8-.1 10.2 3.5 1 7.4 2.6 9.2 6.1zm2.6-14.3c.7-.2 1.5-.3 2.2-.6.8 1.3.8 3.1.3 4.4-1.4 1.4-3.5 0-4.1-1.6.6-.7 1.1-1.5 1.6-2.2z"/>
	<path d="M71.2 56.4c0 .1 0 .1 0 0 .1.1.1.1 0 0z"/>
	<path fill="#fff" d="M8.9 58.5c-.4.8-.7 1.6-1.2 2.4.3 1 .9 2 1.5 2.8.2-.1.6-.3.7-.3-1.4-1.6-.3-3.5.6-5-.5.1-1 .1-1.6.1zm3.9.6-.1-.3c-.1.2-.1.3-.2.5-.5.6-.5.5-.5.7-.8.7-.7 1.8-.8 2.7.1.2.4.7.5.9 1.4.9 1.1-2.3.2-2.3.6-.7 1.3-1.4 1.4-2.4l-.5.2z"/>
	<path d="M59.4 31.1c2.5 0 3.6-2.9 3-4.9-1.8-1.2-5.8-1.2-5.4 1.7-.3 1.7 1.3 2.4 2.4 3.2zm29.4-3.5c.4-1.4.5-3.2-.3-4.4-.7.2-1.4.4-2.2.6-.5.8-1 1.5-1.6 2.3.6 1.5 2.6 2.9 4.1 1.5z"/>
	<path d="M87.4 58.1c-3.2-.6-6.5 0-9.8-.1-1.4-1-2.9-2.1-4.7-2.2-.6.3-1.1.5-1.7.7 1.5.2 3 .5 4.2 1.6-1.4-.1-2.9 0-4.2-.5-1.8.7-3.5 1.7-3.7 3.7-.8-1.1.3-2 .8-3-1-2.1-3.4-3.2-4.2-5.5 1.6-2.3 3.3 2.1 4.4 4.6.9.1 1.8.1 2.7.2v-1c-.4.2-.9.4-1.4.6-.8-1.7-1.5-3.5-2-5.3 1.1.3 2.1.6 3.2.8 4.9-.8 10.2-1.7 14-5.1.8-.8 2.3-1.5 2-2.9-.3-2-1.7-3.5-2.4-5.3 1.1-.4 2.2-.8 3.3-1.3 3.8-3.7 5.8-9.1 6.2-14.4-.4-2.8-1.2-5.9-3.3-7.9-4-2-8.6-1.4-12.7.1-1.8.7-3.1 2.2-4.7 3.4-2.6-.6-3.8-6.7-9.4-8.9-2.5-.1-5.3-.8-7.4.8-1.1.7-2.3 1.3-3 2.4-1.7 3.2-2.7 6.7-3 10.3-15.4-6.3-26.8-1-31.9 13.2-1.2 2.4-2 4.9-2.5 7.5-.4 2.4-1.4 4.7-1.5 7.1 0 1.6.1 3.3.1 4.9-2.3 1.2-3.3.9-5.8 1.4-1.4 0-2.8-.7-4.2-.3-1.5.7-3.1 1.1-4.6 1.8-.3 2.1-.7 5.1 1.9 5.9 7.2 0 12 .1 13.3.1.8 4.1 1.6 8.3 3.7 11.9 6.3 10.2 9.8 15.4 21.6 13.3 1.6-.2 2.7-1.4 4.2-2 .9-.5 2.2-.7 2.5-1.8 2.9-4.7.7-10.6-2-14.9-1.7-3-5.3-3.6-8.4-3.4-1.8.3-3 1.8-4.4 2.8-1.6 1-3.2 3.1-2 4.9 1 2 2.3 4.6 5 4.5 6.3-.7 5.8-4.6.8-5.8.1 1 .2 2 .3 3.1-.8-.6-1.7-1.2-2.6-1.8.5-2.8 3.6-2.7 5.8-3.6 2.2 3.4 4.4 7.7 2.7 11.7-2 2.6-5.7 2.2-8.6 1.6-3.7-.6-6.2-3.9-7.8-7-2.5-4.3-5.5-8.9-5-14.1 1.7 0 3.5-.2 5.2 0 1.7.4 3.1 1.8 4.9 1.1 3.8-1 7.8-.4 11.8-.5 3.1-.2 6.2-.3 9.3-.1 1.1.3 1.7 1.7 3 1.6 1.5.5 2.3-1 3.4-1.7 2.5-.1 5-.2 7.5 0 1.2 2 2.9 4.3 5.4 4.6 3.1.1 5.7-2 7.3-4.4 2.2.5 4.5 1.2 6.6.1 4.6-1.9 9.6-1.9 14.3-3.3v-1.4c-3.6-2.4-8.2-1.7-12.5-2.8zm-21.1.1c-2.8.1-6.1.4-7.8-2.4-1.1.3-2.3.8-2.9 1.9-.4-.2-1.3-.7-1.7-.9 0-1 0-2.1.1-3.1 4.1 0 3 .1 7-.4.9.1 1.1 1.2 1.7 1.7 1.1 1.2 2.5 2.1 3.6 3.2zM64.4 61c-2.2.1-4.3.1-6.5-.1-.3-1.6 3.3-1.3 7.7-1.3 0 1-.4 1.5-1.2 1.4zm10-39c3.2-5.7 15.3-8 16.8-1.6 2 4.6-.2 9.8-2.9 13.7-1.5 1.4-3.3 2.6-4.8 4.2-1.8-3.5-5.7-5.1-9.3-6 .8-3.5.3-7 .2-10.3zm-14.3-9.5c3.2-1.1 6 1.4 7.7 3.8.9 1.6 2.2 2.8 3.7 3.8 1.6 5.2 1.2 10.9-1.2 15.8-2 4.5-8.9 5.2-14.1 0l.1-.4c-1.9-.9-2.2-3.2-2.6-5-2.5-5.9-.3-17.1 6.4-18zM1.5 64c-.8-4.6.5-2 3-6.1.4.1 1.9.2 3.2-.1-.1 1.2-1.8 1.8-1.5 3 .3 1.2 1 2.3 1.5 3.5-2.3-.1-4.2 0-6.2-.3zm8.5-.6c-.2.1-.6.3-.7.3-.6-.9-1.1-1.8-1.5-2.8L9 58.5c.5 0 1.1-.1 1.6-.1-.9 1.5-2 3.4-.6 5zm1.7.2c-.1-.2-.4-.7-.5-.9.3-2.6.2-2 1.3-3.4.1-.1.2-.4.2-.5l.1.3.4-.2c-.2.9-.9 1.6-1.4 2.4 1 0 1.3 3.1-.1 2.3zm2.3-2.7c.7-2 3-1.7 5-1.8 1.6.2 3.5-.4 4.7.9l-.5 1.1c-4.6-.1-8.8-.1-9.2-.2zm13.1-4.5c-1.6.8-3.5.9-5.2.9-.4-2.7 1.3-5 2.6-7.2.6-.1 1.1-.3 1.7-.4-.8 2.2-.4 4.6.9 6.7zm-4.5 19.5c4.2 6.8 2.3 6.2 8.3 10.8 4 2.9 10.5 2.5 13.3-1.8 1.8-3.8-.4-7.9-2-11.4-2.6-4.2-9.5-1-9.4 3.5 1.5.9 3.2 2.8 5.1 1.6 0-.7-.1-1.5-.1-2.2.4.5.8 1.1 1.2 1.6-1.1 1.4-2.8 1.3-4.3 1.1-.6-.7-1.3-1.4-1.9-2.1-.8-4.5 5-8.3 8.8-6 2.7 1.8 3.5 5.1 4.6 8 1.3 3.4-.6 7.5-3.8 9-2.5 1.6-5.6 1-8.4 1-3.8-.2-6.3-3.3-8.8-5.8-2.4-3-4-6.5-5.9-9.8-1-2.7-1.5-5.6-1.8-8.5.3.1 1 .2 1.4.2 1.5 3.5 1.6 7.5 3.7 10.8zm-7.5-12.4c-.1-.2-.3-.7-.4-.9 3.3-.5 6.7.3 10 .4.1.2.4.4.5.6-3.3 0-6.7.2-10.1-.1zm10.4-3.3c1-1.3 2.3-2.3 3.7-3.3-2-2.9-2.8-7.3-.3-10.1-1.8-2.2-1.6-1.4-4 1.1-2.9 2.2-4.1 5.8-5.8 8.8-.9 0-1.7-.1-2.6-.1 0-.3 0-.8-.1-1.1-.5-4.8-.2-3.7 2.8-13.6C25 26.2 30.3 25.6 37.6 23.3c3.9-.2 7.9 1 11.4 2.6 1.9.9 1.5 2.1 2 4 .7 2.7 1.4 5.9 3.5 7.6 2.3 1.7 4.6 3.6 7.5 4.3 2.5.5 5.3.2 7.5-1.3 1.9-1.7 2.8-4.2 4.7-5.8 5.3 2.6 6.4.5 10.5 9.9-3.3 3.3-8.1 4.1-12.4 5.1-1.8.5-3.5-.4-4.9-1.3-6.7 3.6-7.9 3.6-13.5 2.9.3-1.6.8-3.1 1.1-4.7-.4 0-1.2.1-1.5.1-1.8 2.8-1.1 5.9-.9 9.3-2.4-3-1.6-4.2-1.3-8.8-1.7-.7-2.4 1.2-2.7 2.5 0 .7.1 1.4.1 2.1-3 .7-6.2 1-9.1.1-2.1-.7-4.5-.8-6.5-1.9-.1-.8-.2-1.7-.2-2.5l-1.8-.3c-2.8 7.5-2.2 6.5.9 10.5-1.4.4-3.3.1-4.3 1.4-.6 2.5 1.7 4 3.2 5.5-2.3-.9-4.7-2-5.4-4.4zm26.4-1.7c-3.9.1-7.8.2-11.7-.2.3-1.3.7-2.5 1-3.8 2.7-.1 5.5 0 8.2-.1 1.3.9 1.9 2.6 2.5 4.1zm-13.2-.4c-1-.1-2-.2-3.1-.3 1.4-.9 2.4-2 2.8-3.6l.5-.3c.2 1.3.8 3-.2 4.2zm-3.1-4.7c-.2.7-.3 1.5-.5 2.2-1 .5-1.9 1.3-2.7 1.9-1.1-1.7-1.6-3.6-1.2-5.6 1.5.4 3.2.4 4.4 1.5zm-5.9 7.7c-.2-.7-.4-1.4-.6-2 1.5.3 3.7-.5 4.6.7 1.3.2 2.5.8 3.8.8 4.7-1.4 9.7-.6 14.5-.6 0 .4.1 1.3.1 1.7-3.6.1-7.2.2-10.9.1-1.9 0-3.7-1.3-5.6-.7-.6 0-1.6.9-2.3.1-1.2 0-2.4-.1-3.6-.1zm2.6 3-.9-1.2c6.8 0 14.3.1 21 .5-.1.2-.3.5-.4.7 0 .1-7.7.3-19.7 0zM55 58.7c1-1.2 3.2-3 4.2-.8-1.6.8-3.7 1.4-3.9 3.3.2 1.6.8 3.1 1.3 4.7-3.2-2.1-1.6-6.4-3.6-9.3.1.1.7 1 2 2.1zm16.2 9.2c-1.5-.7-2.5-2.2-3.6-3.3 1.8.8 3.6 1.6 5.4 2.3 1.1-.4 2.6-2.8 3.5-1.1-2.7 2.4-3.9 2.1-5.3 2.1zm9.2-3.9c-1.4.2-2.8-.7-4.3-.6-2.9.2-5.8.4-8.7-.2-3.3.7-6.6.4-10 .6 0-.3-.1-.9-.1-1.3 3.4-.3 6.7-.2 10 .5 3.1-.4 6.2 0 9.3-.6 1.4.2 4.1-.4 3.8 1.6zm-5.6-2.7c-1.9-.3-3.9.1-5.7-.5.1-.2.4-.7.5-.9 12.1-1 9.9-.9 12.6.9-2.3 1.1-4.9.8-7.4.5zm16.4 1.4c-2.6.5-4.9 1.6-7.6 1.7.1-.7.1-1.4.1-2.1l1.2-.8c.1-.8.2-1.5.2-2.3 2.1-.1 4.1.7 6.2.9.1.9.4 1.8-.1 2.6z"/>
	<path fill="#97eb74" d="M37.4 43.3c.8.8 1.6 1.7 2.7 2.1 2 .8 3.4 2.7 5.5 3.3-.2.3-.4.7-.6 1-2.9-.9-5.9-.2-8.8-1.1 1.6-.8 1.6-2.6.8-4 .1-.3.3-.9.4-1.3z"/>
	<path fill="#84cb71" d="M18.8 51.9c2-1.7 1.7-5.4 4.8-5.8.4.6.9 1.1 1.3 1.7-2.9 2.2-4.1 5.8-5.8 8.8-.9 0-1.7-.1-2.5-.1 0-.3 0-.8-.1-1.1 1.1-.8 1-2.6 2.3-3.5z"/>
	<path fill="#6cb960" d="M60.3 47.4c1.7.7 3.2 1.5 4.8 2.4-2.7 1.4-5.9 2.2-8.9 1.9-.2-1.2-.2-2.3-.1-3.5.3 0 .8-.1 1.1-.2.3.8.6 1.6.8 2.5.8-1 1.6-2.1 2.3-3.1z"/>
	<path fill="#77c66c" d="M34.2 48.4c.5.1 1.5.2 2 .3 2.9.9 5.9.2 8.8 1.1.2-.3.4-.7.6-1 .9.3 1.9.6 2.8.9 0 .7.1 1.4.1 2.1-3 .7-6.2 1-9.1.1l1.3-.9c-2.3-.6-4.8-.9-6.5-2.6z"/>
	<path fill="#d07b84" d="M4.6 57.9c1.1.1 2.1.1 3.2-.1-.1 1.2-1.8 1.8-1.5 3 .3 1.2 1 2.3 1.5 3.5-2-.1-4.1 0-6.1-.3-.9-4.6.4-2 2.9-6.1z"/>
	<path fill="#fefefe" d="M85.2 59.2c2.1-.1 4.1.7 6.2.9 0 .8.3 1.8-.2 2.6-2.6.5-4.9 1.6-7.6 1.7.1-.7.1-1.4.1-2.1l1.2-.8c.1-.7.2-1.5.3-2.3z"/>
	<path fill="#e1cb86" d="M29.1 59.1c1.5.3 3.7-.5 4.6.7l-1-.1c.2.5.3 1 .5 1.5-1.2 0-2.4-.1-3.5-.1-.1-.7-.4-1.3-.6-2zm-14.4 3.5c3.3-.5 6.7.3 10 .4.1.2.4.4.5.6-3.4 0-6.8.3-10.1-.1-.1-.2-.3-.7-.4-.9z"/>
	<path fill="#ddc377" d="M14 61c.6-2.1 3.3-1.7 5.1-1.8 1.6.2 3.5-.4 4.7.9l-.5 1.1c-3.2-.1-6.2-.2-9.3-.2zm21.8 2c5.6.1 11.1.2 16.7.5-.1.2-.3.5-.4.7-5.4.2-10.9.1-16.3.1V63z"/>
	<path fill="#dcc576" d="M32.8 59.7c2.6.3 3.3.9 4.8 1 4.7-1.4 9.7-.6 14.5-.6 0 .4.1 1.3.1 1.7-3.6.1-7.2.2-10.9.1-1.9 0-3.7-1.3-5.6-.7-.7-.1-1.7.8-2.4 0-.2-.5-.4-1-.5-1.5zm-1.3 3.2h4.3v1.3c-1.1 0-2.3-.1-3.4-.1-.4-.4-.6-.8-.9-1.2z"/>
	<path fill="#f5d776" d="M65.5 59.7c.1.9-.3 1.4-1.2 1.3-2.2.1-4.3.1-6.5-.1.1-1.5 2.7-1.2 7.7-1.2zm4.1.2c12-1 9.9-.9 12.6.9-2.3 1.1-4.9.9-7.4.5-1.9-.3-3.9.1-5.7-.5.1-.2.4-.7.5-.9zm-12.2 2.7c3.4-.3 6.7-.2 10 .5 3.1-.4 6.2 0 9.3-.6 1.3.1 4-.5 3.7 1.5-1.4.2-2.8-.7-4.3-.6-2.9.2-5.8.4-8.7-.2-3.3.7-6.6.4-10 .6v-1.2z"/>
	<path fill="#959d64" d="M55.2 61.2V61v.2z"/>
</svg>