<svg xmlns="http://www.w3.org/2000/svg" viewBox="0 0 100 100">
	<path d="M59.8 1C32.7-4.4 6.3 13.2 1 40.2c-.6 3.2-1 6.5-1 9.8 0 27.6 22.4 50 50 50s50-22.4 50-50c0-23.9-16.8-44.4-40.2-49zM50 94.6c-24.6 0-44.6-20-44.6-44.6S25.4 5.4 50 5.4s44.6 20 44.6 44.6-20 44.6-44.6 44.6z"/>
	<path d="M75.2 39.8s.1 0 0 0l9.1.1c4.3 0 4.6-1.6 4-3.3-4.2-11.7-11.9-20.1-23.5-24.5-1.1-.4-2.2.1-2.7 1.2-.1.2-.1.4-.1.7l-.7 11.8c-.1 1.3-1.1 2.3-2.4 2.3h-6.4c-1.4 0-2.8-.5-3.8-1.5L35.9 13.7c-.8-.8-1.9-1-2.9-.6-10.3 4.7-17.4 12.3-21.5 23.1-.5 1.4.2 2.9 1.6 3.3.3.1.6.2.9.1l27.7.2c1.5 0 2.9.6 4 1.6l13 14c.6.5.9 1.3.9 2l-1.2 27.8c0 2.2 1.4 3.9 3.5 3.2 12.3-4.3 19.8-11.1 23.5-19.9.6-1.2.4-2.7-.5-3.7L73.6 53c-.9-.9-1.3-2.1-1.3-3.4l-.1-6.7c-.1-1.7 1.3-3.1 3-3.1zm-9.8 5.7c-1.9 1.6-5 1-8.1-1.7-3.4-2.9-4.6-7.8-2.6-9.7 1.7-1.7 6-.9 8.8 2.1 2.9 2.9 4.6 7.1 1.9 9.3z"/>
</svg>