<svg xmlns="http://www.w3.org/2000/svg" viewBox="0 0 100 100">
	<path fill="#4DABCF" d="m42.758 20.316-16.71-8.434-18.337 9.152 17.161 8.618 17.886-9.336Zm7.659 3.867 17.519 8.842-18.176 9.128-17.188-8.632 17.845-9.338ZM73.814 12.01l17.997 9.025-16.096 8.084-17.555-8.855 15.654-8.253Zm-7.746-3.887L49.866 0 33.838 7.997l16.695 8.42 15.535-8.294ZM53.4 77.89V100l19.629-9.795-.022-22.119-19.606 9.805ZM73 60.367l-.022-21.887-19.577 9.732v21.894L73 60.366Zm23.563-4.102V78.46l-16.74 8.354-.012-22.094 16.752-8.456Zm0-7.761v-21.75l-16.772 8.338.014 21.93 16.758-8.518Z"/>
	<path fill="#4D77CF" d="m46.472 48.212-13.22-6.647v28.73s-16.17-34.403-17.668-37.492c-.193-.4-.988-.836-1.191-.943C11.494 30.338 3 26.035 3 26.035v50.756l11.752 6.282v-26.53S30.748 87.281 30.91 87.616c.162.336 1.768 3.576 3.484 4.714 2.285 1.513 12.08 7.403 12.08 7.403l-.002-51.522Z"/>
</svg>