<svg xmlns="http://www.w3.org/2000/svg" viewBox="0 0 100 100">
	<path fill="#005b0c" d="M50 0C22.4 0 0 22.4 0 50s22.4 50 50 50 50-22.4 50-50S77.6 0 50 0zm40.6 70.6c-.4 3.4-3.5 5.9-6.9 5.5-7.8 10-20 16.5-33.7 16.5s-25.9-6.5-33.7-16.5c-1.6.2-3.2-.2-4.4-1.2-2.8-2.1-3.4-6-1.3-8.7-2-5-3.2-10.4-3.2-16.1 0-21.6 16-39.4 36.8-42.2.6-1.5 1.8-2.6 3.3-3.3 3.2-1.4 6.8.1 8.2 3.3C76.5 10.6 92.6 28.4 92.6 50c0 5.5-1.1 11-3.2 16.1 1 1.3 1.4 2.9 1.2 4.5z"/>
	<path fill="#005b0c" d="M55.7 12.8c-1.4 3.2-5.1 4.6-8.2 3.2-1.4-.6-2.6-1.8-3.2-3.2C26.2 15.6 12.4 31.2 12.4 50c0 4.8.9 9.4 2.5 13.6 3.4-.4 6.5 2.1 6.9 5.5.2 1.6-.2 3.1-1.2 4.4 6.9 8.6 17.5 14.1 29.3 14.1 11.9 0 22.5-5.5 29.3-14.1-2-2.8-1.4-6.7 1.3-8.7 1.3-.9 2.8-1.3 4.4-1.2 1.7-4.3 2.6-9 2.5-13.6.2-18.8-13.6-34.4-31.7-37.2zm12.4 51.7c0 2-.5 3.6-1.4 4.6-.9 1-2.1 1.6-3.6 1.6s-2.7-.5-3.7-1.6c-.9-1.1-1.4-2.6-1.4-4.6v-17c0-3.4-.5-5.9-1.4-7.7-.9-1.8-2.8-2.7-5.6-2.7-1.8 0-3.5.5-5 1.6s-2.6 2.6-3.3 4.4c-.5 1.5-.7 4.4-.7 8.5v12.8c0 2.1-.5 3.6-1.5 4.7-.9 1-2.2 1.5-3.7 1.5s-2.7-.5-3.6-1.6c-.9-1.1-1.4-2.6-1.4-4.6V35.1c0-1.9.4-3.4 1.3-4.3.8-1 2-1.5 3.5-1.5.9 0 1.7.2 2.4.6.7.4 1.3 1.1 1.7 1.9.4.8.7 1.9.7 3.1v1.2c1.8-2.4 3.7-4.1 5.9-5.2 2.1-1.1 4.6-1.7 7.3-1.7s5.1.6 7.2 1.8c2.1 1.2 3.7 2.8 4.7 5 .7 1.3 1.1 2.6 1.3 4 .2 1.4.3 3.3.3 5.5v19z"/>
</svg>