<svg xmlns="http://www.w3.org/2000/svg" viewBox="0 0 100 100">
	<path fill="#00DC82" d="M56 83.667h37c1.18 0 2.31-.415 3.333-1 1.023-.585 2.077-1.32 2.667-2.334.59-1.013 1-2.163 1-3.333 0-1.17-.409-2.32-1-3.333l-25-43c-.59-1.014-1.311-1.749-2.333-2.334-1.023-.585-2.487-1-3.667-1-1.18 0-2.311.415-3.333 1-1.023.585-1.744 1.32-2.334 2.334l-6.333 11-12.667-21.335c-.59-1.013-1.31-2.08-2.333-2.665-1.023-.585-2.153-.667-3.333-.667-1.181 0-2.311.082-3.334.667-1.022.585-2.076 1.652-2.666 2.665l-31 53.335C.076 74.68 0 75.829 0 77c0 1.17.077 2.32.667 3.333.59 1.014 1.644 1.749 2.666 2.334 1.023.585 2.153 1 3.334 1H30c9.246 0 15.975-4.148 20.667-12L62 52l6-10.333L86.333 73H62l-6 10.667ZM29.667 73H13.333l24.334-42L50 52l-8.17 14.242C38.715 71.337 35.163 73 29.667 73Z"/>
</svg>