<svg xmlns="http://www.w3.org/2000/svg" viewBox="0 0 100 100">
	<path fill="#76B900" d="M37.284 36.728v-5.963a28.207 28.207 0 0 1 1.766-.073c16.342-.516 27.052 14.06 27.052 14.06s-11.557 16.046-23.96 16.046a15.2 15.2 0 0 1-4.821-.773V41.917c6.367.773 7.655 3.57 11.446 9.938l8.502-7.14s-6.22-8.135-16.673-8.135c-1.104-.036-2.208.037-3.312.148Zm0-19.728v8.907l1.766-.11c22.71-.773 37.542 18.623 37.542 18.623S59.588 65.104 41.884 65.104c-1.545 0-3.054-.147-4.563-.404v5.52c1.251.148 2.54.258 3.79.258 16.49 0 28.414-8.428 39.971-18.366 1.914 1.546 9.754 5.263 11.373 6.883-10.968 9.201-36.548 16.599-51.049 16.599-1.399 0-2.724-.074-4.049-.22v7.765H100V17H37.284Zm0 43.025v4.712c-15.238-2.724-19.47-18.587-19.47-18.587s7.324-8.097 19.47-9.422v5.152h-.037c-6.367-.773-11.373 5.19-11.373 5.19s2.834 10.048 11.41 12.955ZM10.232 45.487s9.017-13.323 27.089-14.722v-4.858C17.299 27.527 0 44.457 0 44.457s9.79 28.34 37.284 30.916V70.22c-20.17-2.502-27.052-24.733-27.052-24.733Z"/>
</svg>