<svg xmlns="http://www.w3.org/2000/svg" viewBox="0 0 100 100">
	<path fill="#93d500" d="M26.4 57.5H0C.3 64.3 2.1 71 5.5 77l22.6-13.6c-.9-1.9-1.5-3.9-1.7-5.9z"/>
	<path fill="#4d5a31" d="M32.9 69.6 14.3 88.3c3.4 3.1 7.3 5.8 11.5 7.7l10-24.4c-1-.6-2-1.2-2.9-2z"/>
	<path fill="#6ba43a" d="M28.9 65 6.4 78.6c1.1 1.8 1.2 1.7 1.2 1.8l.1.1C9.2 82.9 11 85.1 13 87l18.6-18.6c-1-.9-1.9-2.1-2.7-3.4z"/>
	<path fill="#4d5a31" d="M55.7 69.6c-.2.2-.4.3-.6.5l13.6 22.6c2-1.3 3.9-2.8 5.7-4.4L55.7 69.6z"/>
	<path fill="#93d500" d="M66.7 92.9 53.5 71.1c-5.1 3-11.1 3.3-16.1 1.2l-10 24.3.1.1c.1.1 1.8.7 1.9.7 11.6 4.1 24.4 3.2 35.4-2.6.1-.1 1.9-1.1 2-1.1l.2-.1-.3-.7zM33.5 41.3 19.9 18.7c-1.9 1.2-3.7 2.6-5.7 4.4l18.7 18.7s.5-.4.6-.5z"/>
	<path fill="#4d5a31" d="M13 24.4C4.3 33.1 0 44.3 0 55.7h26.3c0-4.8 2-9.4 5.3-12.7L13 24.4zm33.1-12.9v26.4c1.4.1 2.7.4 4 .9l19.4-19.4c-7.1-5.1-15.8-7.7-23.4-7.9z"/>
	<path fill="#6ba43a" d="M21.4 17.8 35 40.3c2.8-1.7 6.1-2.6 9.3-2.6V11.4c-7.8 0-15.6 2-22.9 6.4z"/>
	<path fill="#4d5a31" d="M80.7 30.5 61.3 49.9c.4 1.3.7 2.6.9 4h26.4c-.5-8.4-2.9-16.2-7.9-23.4z"/>
	<path fill="#6ba43a" d="M62.2 55.7c0 4.7-1.8 9.2-5.3 12.7L75.6 87c8.3-8.3 13-19.5 13-31.3H62.2z"/>
	<path fill="#424143" d="M96.4 3.6c-4.8-4.8-12.6-4.8-17.4 0-3.8 3.8-4.6 9.6-2.3 14.2L49.8 44.7c-4.6-2.3-10.4-1.5-14.2 2.3-4.8 4.8-4.8 12.6 0 17.4 4.8 4.8 12.6 4.8 17.4 0 3.8-3.8 4.6-9.6 2.3-14.2l26.9-26.9c4.6 2.3 10.4 1.5 14.2-2.3 4.8-4.8 4.8-12.6 0-17.4z"/>
</svg>