<svg xmlns="http://www.w3.org/2000/svg" viewBox="0 0 100 100">
	<linearGradient id="a" x1="50" x2="50" y1="-7069.0137" y2="87.4264" gradientTransform="matrix(1 0 0 -1 0 101.433)" gradientUnits="userSpaceOnUse">
		<stop offset="0" stop-color="#04b6f0"/>
		<stop offset="1" stop-color="#3ecaf0"/>
	</linearGradient>
	<path fill="url(#a)" d="M100 35.6c0-4.2-7.8-6.1-27.9-6.1-47.2 0-59.2-2-72.1-15.5 5.4 8.1 8.3 23.3 58.3 22.5 52.1-.8 20.3 13.4 11.1 29.5C86 51.2 99.9 41.4 100 35.6zM33.6 78.9c0 3.9-3.2 7.1-7.1 7.1-4 0-7.1-3.2-7.1-7.1 0-4 3.2-7.1 7.1-7.1 3.9-.1 7.1 3.1 7.1 7.1zm32.5 0c0 3.9-3.2 7.1-7.1 7.1-3.9 0-7.1-3.2-7.1-7.1 0-4 3.2-7.1 7.1-7.1 4-.1 7.1 3.1 7.1 7.1z"/>
</svg>