<svg xmlns="http://www.w3.org/2000/svg" viewBox="0 0 100 100">
	<path fill="#5586a4" d="M13 43.5c1.4-1.7 3.6-2.8 6.3-2.8 11.3 0 11.4 18.1 0 18.1-5.4 0-8.5-4-8.5-9 .1-1.2.8-4.6 2.2-6.3zm1.7 11.1c3.6 4.9 13 1.7 10.5-7.5-1.6-6.1-9.9-6.2-11.5 0-.6 1.8-.5 5.5 1 7.5zm16.7-7.2v1.5c1.1-2.2 5.4-2.5 7.5 0 1.8 2.2 1.7 6.1 0 8.1-2 2.4-6.2 2-7.5 0v5.7h-1.9V47.3l1.9.1zm6.6 3.9c-1.2-4.5-8.1-3-6.5 3.1.9 3.7 6.7 3.9 6.7-1.6 0-.5-.1-1-.2-1.5zm11.6 6.4c-2.2 1.7-7 1.4-8.2-2.5-2.9-9.3 10.4-11.5 10-1.8H43c-.1 4.3 5.7 4.8 6.4 1.5h1.8c-.2 1.3-.8 2.2-1.6 2.8zm-.4-7c-1.2-2.9-5.9-2.5-6.2 1.2h6.4c0-.4-.1-.8-.2-1.2zm5.2-3.3v1.8c.8-1.3 2-2 3.7-2 2.7 0 3.9 1.4 3.9 4v7.3h-1.9c0-8.1.2-8.3-.6-9.1-1.3-1.2-5-.8-5 2.9v6.2h-1.9v-11c.1-.1 1.8-.1 1.8-.1zm20.5 10.9c-3.6 1.5-9-.2-10.6-4.9-1.6-4.3-.2-10 4.4-12 4.5-2 10.6.1 11.1 5.4h-3.7c-.9-3.8-5.7-3.7-7.4-1.1-1.4 2.1-1.5 5.9 0 8.1 1.9 2.7 7.5 2.8 7.9-1.9h-3.9V49h7.4v9.4h-2.5l-.4-2c-.7.9-1.4 1.5-2.3 1.9zm11.5-17.1v14.1H95v3.2H82.6V41.1l3.8.1z"/>
	<path fill="#5586a4" d="M68.1 60.6c-18.5 11-57 4.7-57-10.7 0-15.6 38.6-21.7 57.1-10.7C48 20.6 0 29.4 0 49.8c0 20.6 48 29.1 68.1 10.8zm30.3-2.2c-1.2 0-2-1.4-1.4-2.4.6-1.1 2.2-1.1 2.8 0 .1.3-.1 2.5-1.4 2.4zm.9-2.5c-.5-.5-1.3-.5-1.9 0-1.2 1.2.6 3.1 1.9 1.9.3-.3.5-1.4 0-1.9zm-1.7.1c.9 0 1.1 0 1.3.1.3.3.2.8-.3.8.2.1.3.2.6.8h-.5c-.2-.3-.3-.7-.6-.7v.7h-.4c-.1 0-.1-1.7-.1-1.7zm.5.7c.1 0 .4 0 .5-.1.1-.1.2-.4-.5-.4v.5z"/>
</svg>