<svg xmlns="http://www.w3.org/2000/svg" viewBox="0 0 100 100">
	<linearGradient id="a" x1="49.9996" x2="49.9996" y1="93.1862" y2="41.9701" gradientTransform="matrix(1 0 0 -1 0 101.433)" gradientUnits="userSpaceOnUse">
		<stop offset="0" stop-color="#2684ff"/>
		<stop offset=".82" stop-color="#0052cc"/>
	</linearGradient>
	<path fill="url(#a)" d="M50 49.8c13.8 0 24.9-11.2 24.9-24.9S63.8 0 50 0 25.1 11.2 25.1 24.9c0 13.8 11.1 24.9 24.9 24.9z"/>
	<linearGradient id="b" x1="34.6789" x2="51.8349" y1="43.4203" y2="7.5141" gradientTransform="matrix(1 0 0 -1 0 101.433)" gradientUnits="userSpaceOnUse">
		<stop offset="0" stop-color="#2684ff"/>
		<stop offset=".62" stop-color="#0052cc"/>
	</linearGradient>
	<path fill="url(#b)" d="M47.9 99.4C31.7 89 18.1 74.9 8.4 58.1c-.7-1.4-.3-3.1 1.1-3.8h.1l18.9-9.2c1.3-.7 2.9-.1 3.6 1.1 9.5 16 23.6 28.8 40.6 36.7-6.2 6.3-13.2 11.9-20.6 16.7-1.3.6-2.9.6-4.2-.2z"/>
	<path fill="#2684ff" d="M52.1 99.4C68.3 89 81.9 74.9 91.6 58.1c.7-1.4.3-3.1-1.1-3.8h-.1l-18.9-9.2c-1.3-.7-2.9-.1-3.6 1.1-9.5 16-23.6 28.8-40.6 36.7 6.2 6.3 13.2 11.9 20.6 16.7 1.3.6 2.9.6 4.2-.2z"/>
</svg>