<svg xmlns="http://www.w3.org/2000/svg" viewBox="0 0 100 100">
	<path fill="#B9CED9" d="M27.344 9.426C12.24 9.426 0 7.316 0 4.712V55.63c0 2.604 12.24 4.714 27.344 4.714 15.104 0 27.343-2.11 27.343-4.714V4.714c0 2.604-12.24 4.712-27.343 4.712Z"/>
	<path fill="#A1BDCC" d="M0 4.714V55.63c0 2.604 12.24 4.714 27.344 4.714V9.426C12.242 9.426 0 7.318 0 4.714Zm50.916 2.39V58.02c2.396-.7 3.772-1.518 3.772-2.39V4.714c0 .872-1.375 1.692-3.772 2.39Z"/>
	<path fill="#8AADBF" d="M27.344 9.43c15.101 0 27.343-2.112 27.343-4.715C54.688 2.11 42.445 0 27.345 0 12.242 0 0 2.11 0 4.715c0 2.603 12.242 4.714 27.344 4.714Z"/>
	<path fill="#789EB2" d="M0 36.77c0 2.605 12.24 4.715 27.344 4.715 15.104 0 27.343-2.11 27.343-4.715v3.772c0 2.605-12.24 4.715-27.343 4.715C12.24 45.257 0 43.147 0 40.544V36.77ZM54.688 19.8c0 2.604-12.24 4.715-27.344 4.715C12.24 24.515 0 22.404 0 19.8v3.772c0 2.604 12.24 4.714 27.344 4.714 15.104 0 27.343-2.11 27.343-4.714V19.8Z"/>
	<path fill="#F80000" d="M93.75 34.376H40.625a6.25 6.25 0 0 0-6.25 6.25V93.75a6.25 6.25 0 0 0 6.25 6.249H93.75a6.25 6.25 0 0 0 6.25-6.25V40.627a6.25 6.25 0 0 0-6.25-6.25Z"/>
	<path fill="#fff" d="M51.394 76.875c-4.87 0-5.782-2.864-5.573-6.12h3.932c0 1.797.078 3.307 2.24 3.307 1.328 0 1.979-.858 1.979-2.135 0-3.385-7.917-3.594-7.917-9.194 0-2.942 1.407-5.286 6.198-5.286 3.829 0 5.73 1.718 5.469 5.651h-3.828c0-1.406-.235-2.839-1.823-2.839-1.277 0-2.031.703-2.031 2.005 0 3.569 7.916 3.256 7.916 9.167 0 4.871-3.568 5.444-6.562 5.444Zm23.802-.313h-5.547c-.339 0-.73.052-1.12.078a8.81 8.81 0 0 1-1.146.104c-5.807 0-6.537-3.047-6.537-9.583 0-4.974 0-9.714 6.485-9.714s6.485 4.74 6.485 9.714c0 4.036-.729 5.808-2.291 7.11l.052.052c.573-.156 1.588-.652 1.979-.652h1.64v2.89ZM69.83 67.16c0-4.818-.286-6.901-2.5-6.901-2.213 0-2.5 2.083-2.5 6.901 0 4.688.287 6.771 2.5 6.771 2.214 0 2.5-2.085 2.5-6.773v.002Zm8.959 9.402V57.76h3.932v15.677h5.886v3.125h-9.818Z"/>
</svg>