<svg xmlns="http://www.w3.org/2000/svg" viewBox="0 0 100 100">
	<path fill="#1E7DD5" d="M67.194 18.867c5.31 3.893 9.921 8.43 13.835 13.612L64.583 48.864 48.542 64.946 31.388 82.019c-.668-1.026-1.99-1.481-3.968-1.366a1.371 1.371 0 0 1-.97-.33c-.27-.232-.44-.56-.477-.915l-.435-4.13c-.054-.485-.32-.768-.8-.85l-3.947-.698a1.326 1.326 0 0 1-.82-.506c-1.082-1.396-.718-3.026-2.013-4.908l16.81-17.094 15.9-16.03 16.526-16.325Z"/>
	<path fill="#FFC033" d="m50.667 35.19-15.9 16.032-33.75-33.955a3.492 3.492 0 0 1-.111-4.807 182.051 182.051 0 0 1 9.989-10.171c2.003-1.882 3.157-3.4 6.052-1.204a44.238 44.238 0 0 1 4.979 4.412 1555.198 1555.198 0 0 0 24.168 24.4 46.364 46.364 0 0 1 4.574 5.294Zm-32.993-21.1a3.785 3.785 0 1 0-7.57 0 3.785 3.785 0 0 0 7.57 0Zm46.909 34.773c13.946 13.345 25.298 24.68 34.055 34.005 1.552 1.646 1.468 3.353-.253 5.12A402.417 402.417 0 0 1 87.172 99.03c-2.348 2.216-4.251.152-5.84-1.397-10.97-10.7-21.9-21.597-32.79-32.689l16.04-16.081Z"/>
	<path fill="#F4412A" d="M91.878 21.528 78.508 7.805c2.12-2.659 4.005-4.467 5.658-5.425 7.752-4.473 15.93 1.61 14.634 10.171-.506 3.35-4.554 6.791-6.922 8.977Z"/>
	<path fill="#EDB07B" d="M17.958 68.315c1.295 1.882.93 3.512 2.014 4.908.201.267.494.447.82.506l3.946.699c.48.08.746.364.8.85l.435 4.129c.036.355.207.683.476.914.27.232.618.35.971.33 1.977-.114 3.3.342 3.968 1.367-4.993 4.257-10.759 7.57-17.296 9.938l-6.396-6.254c1.74-3.893 3.744-7.914 6.011-12.064a19.57 19.57 0 0 1 4.25-5.323Z"/>
	<path fill="#34526A" d="m7.696 85.702 6.396 6.254-9.574 4.878a.996.996 0 0 1-.514.102.967.967 0 0 1-.488-.173c-.736-.512-.887-1.19-.456-2.034 1.444-2.793 2.99-5.802 4.636-9.027Z"/>
	<path fill="#BDC0C4" d="m78.508 7.804 13.37 13.723-10.85 10.95c-3.913-5.181-8.524-9.719-13.834-13.612L78.508 7.804Z"/>
</svg>