<svg xmlns="http://www.w3.org/2000/svg" viewBox="0 0 100 100">
	<path fill="#B9CED9" d="M27.344 9.426C12.24 9.426 0 7.316 0 4.712V55.63c0 2.604 12.24 4.714 27.344 4.714 15.104 0 27.343-2.11 27.343-4.714V4.714c0 2.604-12.24 4.712-27.343 4.712Z"/>
	<path fill="#A1BDCC" d="M0 4.715v50.916c0 2.604 12.24 4.715 27.344 4.715V9.428C12.242 9.428 0 7.319 0 4.715Zm50.916 2.391v50.916c2.396-.7 3.772-1.518 3.772-2.39V4.715c0 .873-1.376 1.692-3.772 2.391Z"/>
	<path fill="#8AADBF" d="M27.344 9.43c15.101 0 27.343-2.112 27.343-4.715C54.688 2.11 42.445 0 27.345 0 12.242 0 0 2.11 0 4.715c0 2.603 12.242 4.714 27.344 4.714Z"/>
	<path fill="#789EB2" d="M0 36.77c0 2.605 12.24 4.715 27.344 4.715 15.104 0 27.343-2.11 27.343-4.715v3.772c0 2.605-12.24 4.715-27.343 4.715C12.24 45.257 0 43.147 0 40.544V36.77ZM54.688 19.8c0 2.604-12.24 4.715-27.344 4.715C12.24 24.515 0 22.404 0 19.8v3.772c0 2.604 12.24 4.714 27.344 4.714 15.104 0 27.343-2.11 27.343-4.714V19.8Z"/>
	<path fill="#F80000" d="M93.75 34.374H40.625a6.25 6.25 0 0 0-6.25 6.25v53.125a6.25 6.25 0 0 0 6.25 6.25H93.75a6.25 6.25 0 0 0 6.25-6.25V40.624a6.25 6.25 0 0 0-6.25-6.25Z"/>
	<path fill="#fff" d="M51.22 54.68h9.42c4.78 0 6.65 2.91 6.65 7.481 0 2.84-.83 7.344-6.96 7.344h-3.88v10.183h-5.23V54.68Zm5.23 10.979h2.91c1.558 0 2.631-1.697 2.631-3.36 0-2.043-.553-3.774-2.909-3.774H56.45v7.134Zm14.373 14.029V54.68h5.23v20.85h7.828v4.158H70.823Z"/>
</svg>