<svg xmlns="http://www.w3.org/2000/svg" viewBox="0 0 100 100">
	<path fill="#e8b67f" d="m94.2 21-4.3 7.2L71.5 36C55.1 51.3 55.4 50.8 55.4 51.6c0 .1-.1 0-.2 0s-.2 0-.2-.1c0-.9.4-.6-14-9.7l-29.4-7.5L3 21l.1-.1 32.1-8.3c11.4 17.1 11.4 16.9 11.4 17.3h.2c0-.7 0-.6.1-.7v-.1c.1 0 .1-.1.1-.1 0-.1.1-.1.1-.2l9.8-14.3s0-.1.1 0l37.1 6.4.1.1z"/>
	<linearGradient id="a" x1="1796.3519" x2="2043.6919" y1="1742.0632" y2="1844.5881" gradientTransform="translate(0 -978.567)" gradientUnits="userSpaceOnUse">
		<stop offset="0" stop-color="#c37a44"/>
		<stop offset=".4442" stop-color="#bb713d"/>
		<stop offset=".6406" stop-color="#a05728"/>
		<stop offset="1" stop-color="#964e23"/>
	</linearGradient>
	<path fill="url(#a)" d="M46.7 45.5 41 41.8l-16-4.1 21.6-7.8.1-.1v15.7z"/>
	<linearGradient id="b" x1="1670.3629" x2="1133.8629" y1="3313.7075" y2="2560.6782" gradientTransform="translate(0 -978.567)" gradientUnits="userSpaceOnUse">
		<stop offset="0" stop-color="#e9b880"/>
		<stop offset="1" stop-color="#e4af76"/>
	</linearGradient>
	<path fill="url(#b)" d="M46.5 29.9 25 37.7l-13.5-3.4L3 21l.1-.2 32.1-8.3c11.5 17.2 11.3 16.6 11.3 17.4z"/>
	<linearGradient id="c" x1="321.1496" x2="310.9995" y1="1800.6818" y2="1772.7268" gradientTransform="translate(0 -978.567)" gradientUnits="userSpaceOnUse">
		<stop offset="0" stop-color="#c37a45" stop-opacity="0"/>
		<stop offset=".1334" stop-color="#c37a45"/>
		<stop offset=".2945" stop-color="#d08d55"/>
		<stop offset=".5021" stop-color="#dea167"/>
		<stop offset=".6966" stop-color="#e8af73"/>
		<stop offset=".8631" stop-color="#ecb477"/>
		<stop offset="1" stop-color="#ecb477" stop-opacity="0"/>
	</linearGradient>
	<path fill="url(#c)" d="M46.6 30.7 26.2 38l-3.2-.8L46.1 29c.3.4.5.8.5 1h.1l-.1.7z"/>
	<path fill="#d2a679" d="m11.8 34.3-.3-.1L3 21l.1-.1 8.7 13.4z"/>
	<linearGradient id="d" x1="23.3363" x2="-467.2616" y1="1094.4469" y2="2221.9858" gradientTransform="translate(0 -978.567)" gradientUnits="userSpaceOnUse">
		<stop offset=".0881" stop-color="#af6938"/>
		<stop offset=".4829" stop-color="#9a5227"/>
		<stop offset=".7792" stop-color="#8d4520"/>
	</linearGradient>
	<path fill="url(#d)" d="m72.5 35.6-1 .4C55.1 51.3 55.4 50.8 55.4 51.6c0 .1-.1 0-.2 0s-.2 0-.2-.1c0-1 .3-.5-8.3-6.1l-.1-15.7.1.1 25.8 5.8z"/>
	<linearGradient id="e" x1="17.2896" x2="300.7596" y1="1099.396" y2="589.725" gradientTransform="translate(0 -978.567)" gradientUnits="userSpaceOnUse">
		<stop offset=".0327" stop-color="#e4af76"/>
		<stop offset="1" stop-color="#e9b880"/>
	</linearGradient>
	<path fill="url(#e)" d="m94.2 21-4.3 7.2-17.4 7.4-25.8-5.7c0-.2.1-.7.3-.9 0-.1.1-.1.1-.2l9.8-14.3s0-.1.1 0l37.1 6.4.1.1z"/>
	<linearGradient id="f" x1="47.0681" x2="50.4281" y1="1070.056" y2="1055.1619" gradientTransform="translate(0 -978.567)" gradientUnits="userSpaceOnUse">
		<stop offset="0" stop-color="#af6a38" stop-opacity="0"/>
		<stop offset=".086" stop-color="#af6a38"/>
		<stop offset=".1977" stop-color="#b87542"/>
		<stop offset=".5828" stop-color="#d59c66"/>
		<stop offset=".7771" stop-color="#e4af76"/>
		<stop offset=".9239" stop-color="#e4af76" stop-opacity="0"/>
	</linearGradient>
	<path fill="url(#f)" d="M74.1 34.9 71.5 36l-.3.3-24.6-5.4c.2-1.6.2-1.6.4-1.8l27.1 5.8z"/>
	<linearGradient id="g" x1="56.8924" x2="170.154" y1="1016.4164" y2="1016.4164" gradientTransform="translate(0 -978.567)" gradientUnits="userSpaceOnUse">
		<stop offset="0" stop-color="#743f1a" stop-opacity="0"/>
		<stop offset=".4929" stop-color="#743f1a" stop-opacity=".8872"/>
		<stop offset=".5" stop-color="#743f1a" stop-opacity=".9"/>
		<stop offset=".5297" stop-color="#743f1a" stop-opacity=".8466"/>
		<stop offset="1" stop-color="#743f1a" stop-opacity="0"/>
	</linearGradient>
	<path fill="url(#g)" opacity=".75" d="M47.3 30v15.8c-.8-.5-.5-.3-1.3-.8V30.1l.6-.2c.3 0 .1 0 .7.1z"/>
	<path fill="#bf9064" d="M54.8 87.5C17 73.3 17.5 73.7 17.1 73c-1.6-32.7-1.5-32.1-1.8-32.7L0 31.6l.1-.3L41 41.8c14.3 9.3 14 8.8 14 9.8 0 .1.1.1.4.1 0-.8-.2-.3 16.1-15.7l28.3-12 .2.2-15.3 13.4c-.3.3-.4.7-.4.8-1.6 31.7-1.5 31.5-1.9 31.7L55.1 87.4c-.1.1-.2.1-.3.1z"/>
	<path fill="#bd8f63" d="M55.2 51.6 55 87.5h-.2C17 73.3 17.5 73.7 17.1 73l-1.6-32L55 51.7c.1-.1.2-.1.2-.1z"/>
	<linearGradient id="h" x1="33.1315" x2="34.0416" y1="1066.8392" y2="1064.4104" gradientTransform="translate(0 -978.567)" gradientUnits="userSpaceOnUse">
		<stop offset="0" stop-color="#322214"/>
		<stop offset=".2397" stop-color="#322314" stop-opacity=".9891"/>
		<stop offset="1" stop-color="#322214" stop-opacity="0"/>
	</linearGradient>
	<path fill="url(#h)" opacity=".54" d="m55 87.4-.2.1-37.4-14c-.1-.1-.2-.2-.2-.3L55 87.4z"/>
	<path d="m38 65.6 14.5 4.7v14.1l-14.2-5.2-.3-13.6zm7.3 9.5v6.6l7 2.6v-6.7l-7-2.5zm2.1 2.1 1.4 2.3 1.4-1.2.2.3-1.4 1.2 1.4 2.3-.2.1-1.4-2.3-1.4 1.2-.2-.3 1.4-1.3-1.4-2.3h.2zm4.2 2.5v.6l.4.1v.7l-.4-.1v.6l-.8-1.2.8-.7zm-1.3-.7.3.1v2.6l-.3-.1V79zm-12-6.3.1 6.4 6.7 2.5v-6.5l-6.8-2.4zm10.5 7.6.7 1.2-1.4-.5.7-.7zm1.2-1V81l-.8-1.1.8-.6zm-2.9-1.5.3.1v2.6l-.3-.1v-2.6zm.6.7.7 1.1-.7.6v-1.7zm-6.1-3.2.3.1v.2c.8.3 1.6 1.2 2 2.4-.3-.4-.5-.5-.9-.4-.1-.3-.6-.5-.8-.3l-.3-.3c0 2.4.2 2.9-.5 2.9-.4-.1-.5-.4-.5-.8h.2c0 .3 0 .5.3.5.4 0 .3.1.3-2.6-.1 0-.2 0-.3.1-.1-.2-.5-.5-.8-.3-.2-.4-.7-.5-.9-.2.3-.9 1.1-1.2 2-1l-.1-.3zm4.5 2.4.8 1.2-.8.7V79l-.4-.1v-.7l.4.1v-.6zm2 .3 1.5.5-.7.7-.8-1.2zm-2.8-9.8v6.7l7.1 2.5v-6.8l-7.1-2.4zm1.3 5.7 4.2 1.4v.8l-4.2-1.5v-.7zM43 75.5s0 .3-.1.4c-.3 0-.3 0-.3-.2.1-.1.4-.2.4-.2zm.4-.6s0 .3-.1.4c-.3 0-.3 0-.3-.2.1-.2.3-.3.4-.2zm-1.1-.1s0 .3-.1.4H42V75c0-.1.3-.2.3-.2zm-1.1-.1s0 .3-.1.4c-.3 0-.3 0-.3-.2.1-.2.3-.3.4-.2zm8.7-4.4 1 2-.7-.2V75l-.7-.2v-2.9l-.7-.2 1.1-1.4zm-11.7-4.5.1 6.6 6.8 2.3L45 68l-6.8-2.2zm9.4 3.7 1 2-.7-.2v2.9l-.7-.2v-2.9l-.7-.2 1.1-1.4zm-7.9-2.3.6.2.3.9h-.3l.8 2-.4-1.6h.2l-.2-1.1 2.9.9V70c0 .6-.6 1.4-1.6 1v1.6l1.3.8-3.2-1.1 1.3.1v-1.6c-.9-.3-1.6-1.4-1.6-2l-.1-1.6z"/>
	<linearGradient id="i" x1="-12.4145" x2="-43.5143" y1="1153.6953" y2="1257.4753" gradientTransform="translate(0 -978.567)" gradientUnits="userSpaceOnUse">
		<stop offset=".0476" stop-color="#c69866"/>
		<stop offset=".4156" stop-color="#ba8c5e"/>
		<stop offset=".8135" stop-color="#b5875b"/>
	</linearGradient>
	<path fill="url(#i)" d="M55.2 51.6c-.2 0-.3.2-.3.4L15.4 41c0-.2.3.1-.2-.8L0 31.6l.1-.3L41 41.8c14.3 9.3 14 8.8 14 9.8h.2z"/>
	<path fill="#cd9c6b" d="M84.7 37.6c-.3.3-.4.7-.4.8L55.6 52h-.1c0-.2-.1-.4-.3-.4h.1c0-.3 0-.3.1-.4.1-.2.2-.4.4-.6 0 0 0-.1.1-.1L71.5 36l28.3-12 .2.2-15.3 13.4z"/>
	<linearGradient id="j" x1="1085.2754" x2="348.0093" y1="2195.689" y2="1376.8799" gradientTransform="translate(0 -978.567)" gradientUnits="userSpaceOnUse">
		<stop offset="0" stop-color="#845f35"/>
		<stop offset=".4311" stop-color="#91673c"/>
		<stop offset=".4407" stop-color="#976a40"/>
		<stop offset=".8737" stop-color="#986b40"/>
		<stop offset="1" stop-color="#ab8157"/>
	</linearGradient>
	<path fill="url(#j)" d="M37.5 55.1c0 .1.1.1 0 0-.1-8.2.1-8.6-.5-9l-14.4-8.7-6.7-1.7 14.6 8.7c.3.2.6-.2.6 8.8l6.4 1.9z"/>
	<path fill="#d4a271" d="M55.2 51.6c-.2 0-.3.2-.3.4 0-1.2.4-.6-14-9.9l.1-.4c14.3 9.3 14 8.8 14 9.8.1.1.2.1.2.1z"/>
	<path fill="#deb37e" d="m41 41.8-.1.4L0 31.6l.1-.3L41 41.8z"/>
	<path fill="#dbad77" d="M82.8 69.7c0 .2-.1.3-.3.4L55.1 87.4s-.1 0-.1.1l.3-35.9h.2l28.9-13.2c-.1 0 0 0-1.6 31.3z"/>
	<linearGradient id="k" x1="68.8573" x2="68.9519" y1="1057.0997" y2="1057.2487" gradientTransform="translate(0 -978.567)" gradientUnits="userSpaceOnUse">
		<stop offset="0" stop-color="#322214" stop-opacity="0"/>
		<stop offset="1" stop-color="#322214"/>
	</linearGradient>
	<path fill="url(#k)" opacity=".54" d="M82.8 69.7c0 .2-.1.3-.3.4L55.1 87.4s-.1 0-.1.1v-.1l27.8-17.7z"/>
	<path d="m82.3 56.1-.6 12.7-9.1 5.7.4-13.3 9.3-5.1zm-4.9 9.2L72.9 68l-.2 6.3 4.5-2.8.2-6.2zM75.3 68v.2c.5-.3 1.1-.1 1.3.8-.1-.2-.4-.1-.6.3-.1-.2-.5 0-.6.3 0-.1-.1-.1-.2-.1-.1 2.9 0 2.9-.4 3.1-.1.1-.4.1-.4-.4l.2-.1c0 .3.1.4.2.3.2-.1.2-.1.3-2.8-.1.1-.2.2-.2.3 0-.1-.5-.1-.6.3-.1-.2-.5 0-.6.4.2-1.1.9-2.1 1.5-2.5l.1-.1zm6.6-5.3-4.3 2.6-.2 6.1 4.3-2.7.2-6zm-1.4 2-.8 2.3.8 1.1-.1.3-.8-1.1-.9 2.1-.1-.1.9-2.1-.8-1.2.1-.3.8 1.1.9-2.1zm-2.6 2.5.5.6-.5 1.1v-.5l-.2.1v-.6l.2-.1v-.6zm.8-.8-.1 2.4-.2.1.1-2.3.2-.2zm.9 1.2.4.6-.9.5.5-1.1zm-4.8.2c0 .3-.1.4-.2.5 0 0-.1 0 0-.1 0-.1.2-.4.2-.4zm4.1-1.1.4.5-.5 1 .1-1.5zm-2.9.6c0 .3-.1.4-.2.5 0 0-.1 0 0-.1 0-.1.2-.4.2-.4zm1.7-8.5-4.6 2.6-.2 6.4 4.5-2.7.3-6.3zm3 6.4-.1 2.4-.2.1.1-2.3.2-.2zm-5.2 1.9c0 .3-.1.4-.2.5-.1 0 .1-.1.2-.5zm4.8-1.2-.1 1.5-.4-.5.5-1zm1-.7v.6l.2-.1v.6l-.2.1v.5l-.5-.6.5-1.1zm-5 1.2c0 .3-.1.4-.2.5 0 0-.1 0 0-.1 0-.2.2-.4.2-.4zm3.8-.9-.5 1.1-.4-.6.9-.5zm-3.5-5.3c-.1 1.3 0 2.6-1.2 3.6l-.1 1.5.9-.2-2.1 1.2.9-.8V64c-.6.3-1-.3-1-.9l.1-1.5.4-.2.1.7-.2.2.5 1.3-.2-1.2.2-.2-.1-.9 1.8-1.1zm5.6-3.9-4.4 2.4-.3 6.3 4.3-2.6.4-6.1zM81 61.7v.8L78.4 64v-.8l2.6-1.5zm-1.8-3.2.6 1.2-.4.2-.1 2.7-.4.2.1-2.7-.4.2.6-1.8zm1.5-.8.6 1.2-.5.3-.1 2.7-.5.1.1-2.7-.4.2.8-1.8z"/>
	<path fill="#d7aa77" d="M71.8 36.3C55.7 51.3 55.6 51 55.6 52.1h-.1c0-.2-.1-.4-.3-.4h.1c0-.3 0-.3.1-.4.1-.2.2-.5.4-.6L71.5 36l.3.3z"/>
	<linearGradient id="l" x1="-181.7337" x2="-39.5335" y1="2334.6863" y2="1615.5404" gradientTransform="translate(0 -978.567)" gradientUnits="userSpaceOnUse">
		<stop offset="0" stop-color="#a9794b"/>
		<stop offset=".3857" stop-color="#ae7f53"/>
		<stop offset=".4557" stop-color="#ac7d50"/>
		<stop offset=".6236" stop-color="#a9794b"/>
		<stop offset="1" stop-color="#b2875d"/>
	</linearGradient>
	<path fill="url(#l)" d="M68.4 53.7c0 .1 0 .1 0 0l4.7-2.3c.3-8.4.1-8.1.9-8.7l15.4-13.9-4.7 2c-16.4 14.8-16 14.1-16 15.2l-.3 7.7z"/>
	<path fill="#f8ce93" d="M71.8 36.3 100 24.2l-.2-.2-28.3 12 .3.3z"/>
</svg>