<svg xmlns="http://www.w3.org/2000/svg" viewBox="0 0 100 100">
	<path fill="#b3d0e1" d="M99.9 48.8C79 28 79.1 27.8 78.7 28.2 65.1 41.8 65.2 41.4 65.8 41.7c1.6.9 2 3.4 2.5 2.9.1-.2.2-.5.4-.7.4-.4 2.3-1.9 2.6-1 0 .3.1 1.2-.6 2-.1.1 0 .2 0 .3.2.2.3.4.5.5.6.6 1.2 1.2 1.3 2.1 0 1.1-1.7-.1-2-1-.2-.4-.3-.9-.5-1.3 0-.3-1 0-1.3.2-.4.4.4 3 .7 3.7 1.1 2.3 2.4 2.4 14.6 15.2.3.3.2.2 15.6-15.2.4-.2.4-.4.3-.6zm-30.8-7.4c-.5-.1-1.3-.8-1-1.4.7-.6.8-.8 1.3-.6l.3.4c.5.7.5 1.6-.6 1.6z"/>
	<path fill="#73acc7" d="M64.1 15C49.6.5 49.7.3 49.4.6 34.9 15.1 34.7 15 35 15.3c8.4 8.4 9.5 9.3 9.5 8.4-.3-.5.1-.9.6-1.1 1.1-.6 1.9-3 3.1-2.2 3.7 2.5 4.4-1.4 6.3-2.6.5-.4 1.6 0 2.1.1.9.2 1.4.8 2 1.4.7.7.6 1 4.3-2.7.4-.4.8-.9 1.2-1.3.1-.1.1-.3 0-.3zM41.9 68.5c-2.1-1.4-.8-2-2.3-3.5-.3-.4-.8-.8-.8-1.3 0 0 .1-.1.1 0 1 1 .8 1.5 3.9 1.9 4.2.7 3.9 1.8 5 .9s2.1-2 3-3.2c0 0 0-.1.1-.1 0-.7-.9.5-2.4-2.4 0-.4-1.6-.1-2.6-2.8-3-8.1-.8-5.1-7.1-11.4-.1-.1-.2-.1-.3 0-21 20.8-21.2 20.7-20.9 21 4.1 4.2 8.3 8.3 12.5 12.4 1.5 1.5 2 2.4 2.3 1.9 4.7-4.9 5.9-5.2 6.4-6.8.2-.2-.2-.5-2.7-2.7-.2-.2-.1-.7.2-.5 1 .8 2 1.5 3.1 2.1.5.2 2.4-.9 1.2-2.4-.3-.6-2.3-.3-2.1-2.6 0-.2.2-.4.4-.5 1.1-.1 2.5 1.3 3.2 1.6 1.1.5 1.3.1 1.1-.1-.5-.7-.9-1.2-1.3-1.5zM49.5 87c-.6-.4-1.2-1.1-1.5-1.5-.7-.6-1.8-1.1-2.6-1.6-.4-.2-.9.6-.5 1 3.7 3.3 3.4 1.8 5.5 4.6-.1-.4-.2-.7-.1-.9 0-.1.1-.1.2-.1l1.2.7c-.8-.7-1.3-1.7-2.2-2.2z"/>
	<path fill="#1171a0" d="M66.3 25.8c.1.1.1.1.1.2.1.3.2.5.5.6.4.4-.3.7 1 2 .1.1.2.2.3.4.3.3.6.9.8 1.7.2.6-.1 1.2-.8 1.9v.2c1.6-1.2 7.2-6.6 6.9-6.9l-8-8c0 .1-.1.1-.2.1l-4.2 4.3c1.7 1.2 2.1 2 3.6 3.5zm-5.8 14.9c.1.1.1.1.2 0 1.1-.7 1.6-1.5 1.6-2.2-2.4-3.2-3.8-1.4-5.7-2.4-.1 0-.5-.2-.4.1.6 1.2 3.9 4.2 4.3 4.5zm-49.4-1.5c-.1-.1-.2-.1-.3 0C-.1 50.1-.2 49.9.1 50.2 14.7 64.8 14.6 65 14.9 64.7L25.6 54c0-.5.1-.2-14.5-14.8zm70.5 28.2C68.1 53.9 69.7 55 67.8 54.3c-1.3-.6-1.3-.9-2.1-.1-1.3 1.3-1.3 1 .1 1.3.4 0 0 1.8 2.1 2.6.3 0 0 .9-.2 1.3 0 .1-.1.2-.2.2-.7.2-1.3.2-1.7-.1-2.6-1.9-3 .5-3.5.5-.5-.1-.7-.3-.8-.8 0-.1-.1-.2-.2-.2-.7.2-1.2.7-1.6 1.3-.3.5.6.2 1.3.2 1.8-.2 2.1-.4 3.8.4.8.4 1.6.7 2.5.7.4 0 .9.2.6.5-1.4 1.1-2.9-.1-6.3 1.7h-.2l-1-.3c-.8 0 0 1.4 1.7 1.4 0 0 .6 0 1.6-.1 3.2-.2 3.4 2.3 2.6 2.3-2.3-.3-3.6 2.7-7 .6-.8-.4-3.6-3.3-4.3-2.6-.6.4-3 2.4-2.5 2.4 1 1.3 2.1 2.2 3.2 2.7 3.9 1.3 3.4 1.5 4 1.7 2.1 1.5 2.7.9 2.7 1.8-.1 1.5.6 2.6 1.3 3.7.1.3.4.8 1.1 1.3.1 0 .1 0 0 0-2.7-3.6-1.7-3.4-1.7-5.1 0-.3.7-.5 1.5.5.5.7 1 1.3 1.6 1.8.9.9 1.5 2.2 2.7 2.7.4 0 0 1.1.7.8 1-.8 12.1-11.9 12.2-12-.1.2-.1 0-.2 0zM55.1 92.6c-.5 0-.8-.1-1.2-.3-2.6-1.1-1.5-1.1-3.5-2.7-2.3-3.2-2.4-2.1-5.2-4.6-.3-.3-.3-.9.2-.7 2.5 1.3 2.9 2.5 3.8 3.1 3.4 2.1 4 3.9 4.9 3 .3-.3-.4-.8-.6-.9-.2 0-4.4-4.8-5.6-5.7-5.2-4.1-5.5-5.9-6-5.4-.6.2-.1-.2-7 6.8 4.9 4.8 9.8 9.7 14.7 14.5 5.7-5.5 6.1-5.6 5.7-6.7 0-.3-.1-.4-.2-.4zm-9.7-59.5c.1-.2.4-.3.5-.6v-.3c-2-2.7-.8-1.4-13.6-14.2-.1-.1-.3-.1-.4 0-17.8 17.8-17.5 17.4-17.2 17.4 14.7 14.5 14.5 14.7 14.9 14.3C45 34.3 42.6 37 45.4 33.1z"/>
</svg>