<svg xmlns="http://www.w3.org/2000/svg" viewBox="0 0 100 100">
	<path fill="#1b1918" d="M50 0c27.5 0 50 22.5 50 50s-22.5 50-50 50S0 77.5 0 50 22.5 0 50 0zm0 3.4C24.3 3.4 3.4 24.3 3.4 50S24.3 96.6 50 96.6 96.6 75.7 96.6 50 75.7 3.4 50 3.4zm0 11.7c19.2 0 34.9 15.7 34.9 34.9S69.2 84.9 50 84.9 15.1 69.2 15.1 50 30.8 15.1 50 15.1zm3.9 65.7H37c8.3 3.6 18.1 3.4 26 0h-4.6l.1.9-3.5.7-1.1-1.6zm-1.8-6.7H26.8c2.7 2.6 5.7 4.7 9.1 6.2h17.7l-2-3c.3-1 .4-2.1.5-3.2zm-3.3-49-1.7.2-2.7 1.7.4 1.2 1.3-.4.4-1c1.4.8 1.9 1.8 1.4 3-.7 1.1-2.2.8-3.7 1l-.2-1.3c.6-.7 1.8 1 1.6.2-.6-.7-1.1-1.2-2.3-.8l-.8-.9c-4.9.1-3.3 0-7 .6L34.4 30l.7 1h1.8l-1.3.7.3 1.5 3.9-.3c2.4.6 3.6 1.2 3.6 1.3l4.9-.7-3.6 1.7c1.4.1 1.3-.1 2.7-.4l-2.7 1.7c.9.3 2.1-.5 3-.6 0 .3-2.9 1.8-3 2.2-.4 2-2.4 4.6-3.9 10-1.2 5 .6 7.7.6 9.8.6 1.7 3.6 4.4 7.7 5.1l1.5.7.4-1.1h1.4l.5-.7.9 1.4 1.2.8.4-1.3 2.6.6.5-.3 1-3.2-1.6-2.4h1l1 1.7.4-.7.3-1.8.7.2.8 3.3-.2 2.5.7.4.6 1 .7-.8-.1 1.6.7-.2-.2.9 1 .4.7 1.5-.6 2 .9.6c-.7 6.2-.2 4-2.3 9.7l-1.7-.5-.9-5.2H58c0 2.2.2 4.4.3 6.2h5.8c1.1-.5 2.2-1.1 3.3-1.8 0-7.6.9-6.3.6-10.9.8-1.3.5-.8 1.2-1.9-.2-1.4-.1-.9-.4-2.3l.3-1.2 1 .2c1.4.7 1 .5 1.9 1 1.7-.4 1.2-.2 2.3-.6l.6-.4c.2 0 .6-.2 1-.2.2-.1.4-.1.7-.2.5-.1.7.2 1.9 1.4l-.3.6-1 .4v.8c-3.6 2.6-2.4.7-4.6 2.9h5.7c1.3-2.1 2.4-4.4 3.3-6.7-1.3-.7-1.6-1.1-.3-1.8l-.4-.8-.1-.1c-.3-.6-.6-.8.2-2.1l-1.2-1.3s-.1 0-.2.1l-.4 2.8c.1 1.6.1 2.2-.8 3.1h-1.1c.4-2.5.6-2.8.6-3.2 0-.4.2-3 .2-3.4-.1-.2-.2-.3-.3-.4l-.3 1.9-.9.9c.3-9.5.3-7.6.4-10.1l.7-1.6.7-.2.5-.9c.4-2 1.4-2.3 1.6-2.3.3 0 .7-.9.9-1.1.2-.2.2-1 .2-1.2 0-.9-.9-2.1-1.2-2.5l-.2.9-.6-.3-.3 1.1c-2.8-3.2.3-.2-4.8-5.3h-.7l-1.1.8-1.2.3c-1.1.9-.5.5-3 1.9.1.3.1.1 1.1 2.6 1.3 1.7 1 1.2 1.5 1.9l-.4.4-1.5-.5-.4.1.9.7-.1.9-.3.4h-.8l-.7-.3.5.8c2.1 0 3.4 0 3.7-.1h1.7l-1.1.7-.4.9.3 1c-.5 0 0 .1-3.6-.8-1.1-1.2-.6-.8-1.9-1.8l-.3-.8c-.4-.3 0 0-2.5-1.9l-3.7 3.6c-.4 1.8 1 3.3 1.7 3.9h-.6l-1.3-.6c-.7-.1-1 .4-.9 1.3l1.9 2.7-.6.5-2.3-1.9c.8 2.3.2 1.8-.5.8l1.9 3.7-.6.6c-1.3.4-2.3-.2-2.6-2.7v.4c-.2.4-.2-.3-.5-.1-1.7 1.1-1.8.9-1.5.4h-.1c-1.7 1.1-4.9 1.2-4.5 1 1.2-.8 3.8-1.5 3.7-2.1 0-.3 0 0-.5-.9-.3.7-1.9.6-4.1.2 2-.5 4.3.3 3-1.7-.1.5-1.7.4-3.5.2.2 0 0-.1 1-.1 1.3-.2 2.6-.5 1.8-1.2l-2.6.1 2.4-.6.8-.8-1.7-.2 1.2-.7.2-1-.8-1.2 1.3-.3 1.4-1.6.1-2.6c-1 .8-3.5 1.2-5 .8 1.8-.5 4.1-1.5 5-1.7v-.6L49.1 40c3.4-3 .7-.4-.3-1.7 2.9-3 5.3-2 4.8-3.2.7-2.4-3.1-1.9-2.6-2.1l2.8-1.5c-4-2.1 0-3.2-.7-3.9L51 25.7l-2.2-.6zm24.4 49h-4.3c-.4 1.3-.2.4-.7 4 1.8-1.2 3.5-2.5 5-4zm-22.3-5.7H22c1.2 1.9 2.7 3.7 4.3 5.3h25.8c-.1-1.9-.5-3.7-1.2-5.3zm21.4 0c-.2.2-.4.1-.9 0-1.2.7-.8.4-1.7 1.3 0 .6.1 2.1-.6 3.9h4.6c1.6-1.6 3-3.4 4.3-5.2h-5.7zm-24.6-3.2H20.2l1.5 2.7h28.9c-.6-.9-1.5-1.8-2.9-2.7zm-5.4-2.8H18.9c.3.8.7 1.5 1 2.3H47c-1-.7-3.1-1.4-4.5-2.1 0-.1-.1-.1-.2-.2zm-1.1-1.7H18.3c.1.4.3.8.4 1.2H42c-.3-.3-.6-.7-.8-1.2zm-.6-1.1H17.9c.1.2.1.4.2.6h22.8l-.3-.6zm-23-.9h2.9c.2-.5 1.3-1.7 4.8-1.9 1.3-2.2.1-6.9-.9-7.9-.9-.9-1.9.7-2.3 1.1-.1.2-.2.3-.2.2 0-1.7.6-2.2 1.5-2.3-.4-.4-1.1-.6-1.6-.6-.3.8-.5.6-.5 1.9-.4-.6-.3-1.1-.3-2-.8 0-1.7 1.3-2.1 2-.2-1.7.4-1.3.8-2.1-.5-.5-.3-2.7 2-1.6.4-.7.9-.9 1.5-.7 0-1.8.9-1.6 1.2-1.9-2.6-1.5-1.9.1-3.3 1.2.6-1.8 1.5-2.8 2.5-2.8s2 .3 2.9 1.1c0-2.3.8-3.2 3.8-1.9-.4.2-.8-.4-1.4-.2-.8 0-1.4 1.8-1.6 2.7v-.1c.2-.4.6-.9 1.2-1.5 1.2-1.2 2.4-.8 2.4 1.7-.2-1-.6-1.4-1.4-1.2s-1.3.9-1.6 2.1c1.7 0 1.7-1.8 4.2 0-.4 0-.7 0-.9.1-.1.1-.2.1-.3.1 1.2 0 1.7 1.9 1.7 2.8-.5-1.3-1.3-2-2.3-2.1-1-.2-1.7 0-1.9.5 1.4.4 1 1.5.1 2.7-.4-1.4-.1-1.6-1.5-2 .6 3 .9 6.9.3 9.9-.1.2-.1.5-.1.7.3.3 3.5-.1 5.7 2.1h6.9c-.4-1.1-.6-1.6-.9-2.9.1-3.7-.9-7.9 1.7-12.2 1.9-3.2 2.9-5.6 2.3-6.5 0-1.2-1.2-3-2.7-3.4-.5 0-4.5.1-5.1.2l-1-2 .2-.4-.7-.1-.6-1.1 2.1-2.7c3-.7 1.6-.2 7.6-1l1.8-1.1.4-1.4c2.8-.6 1.9-.4 4-.9l2.2.5 2.6 2.1c2.5 3.7 3.1 3.3 2.2 7.6.3 4.5-3.8 20.3 1.7 9.5 3.5-4.5 3.9-3.4 7.4-5.4l.6-1.5c1.4-1.9.7-1.4 4.8-4.3l1.7-.8c1.4-.2 1.9-.4 5 .2C57.6.9 8.2 21 17.6 58.7zm9.2-12.8c-3.7.5-.2 3.2-.2 10.1h.4c.6-2.8.8-6.5-.2-10.1zm27.6 7.2v.2l-.1.1c.3-.2.5-.4.7-.7 0-.2-.1-.1-.6.4zm-29.7-8.5c.2 0 .4-.5 1.2-.2 0-.5-.3-.8-.7-.9-.3-.1-.5.3-.5 1.1zM21.6 46c-.3-.3-1.1-.2-1.2-.1-.1.1-.1.3-.2.4-.1.2-.1.3 0 .5.2-.4.5-.3 1.2-.3 0-.1.1-.2.1-.3s.1-.2.1-.2zm1.3-.2c.1 0 .3.1.5.3.2.1.4.3.6.5-.1-.2-.2-.4-.2-.6-.1-.2-.1-.4-.2-.6-.1 0-.2.1-.3.2-.3-.1-.4 0-.4.2zm1.9-.3c0 .1-.1.3 0 .8 0 .4.1.7.2.8 0-.5.4-2 1.1-2-.4 0-.6.1-.7.2-.4 0-.5.1-.6.2zm36.6 28.1-.9-5.3h-2.1c-.2 1.6-.3 3.4-.3 5.3h3.3zm-1-5.7v-.2l-.7.2h.7zM18.3 82.6l-.4-4-3.8-1 3.6-1.6-.3-3.6 2.4 2.7 3.6-1.6-1.9 3.5 2.5 3-3.8-.8-1.9 3.4zm63 .4-1.9-3.6-4 .5 2.7-2.8-1.7-3.3 3.3 1.6 2.8-2.9-.4 4 3.5 1.8-3.9.7c.1.1-.4 4-.4 4zM57.7 93.3l-1.3-6.4 1.4-.3 1.1 5.3 3.4-.6.2 1.1-4.8.9zm-7 .6-.4-6.6c4.2-.1 5.2-.5 5.7 1.6 0 1.1-.7 1.7-1.7 1.9.8.5.5 0 2.6 2.7l-1.7.1c-1.6-2.1-1.7-2.2-1.9-2.3-.1-.1-.3-.2-.4-.3-.2 0-.4-.1-.7 0h-.3l.2 2.7-1.4.2zm1.1-3.9 2.3-.2c.8-.4.6-1.5-.2-1.5-1.3 0-.8 0-2.1.1V90zm-7.6 3.5.5-6.6 5.1.3-.1 1.1-3.7-.2-.1 1.5 3.5.2-.1 1.1-3.5-.2-.1 1.8 3.9.3-.1 1.1-5.3-.4zm-6.3-1.4 1.6-6.4c3.2.7 3.6.8 3.8 1 1.6.8 1 3.1-.3 3.5-.7.4-1.4.2-3.1-.2l-.6 2.4-1.4-.3zm2.7-5-.4 1.8c1.4.4 1.6.4 1.8.3.5 0 .6-.3.8-.7.1-.2 0-.4-.1-.6-.2-.4-1.1-.6-1.5-.7 0 .1-.6-.1-.6-.1zM87 55l6.5 1-.7 4.5-1.1-.2.5-3.1-1.5-.2-.4 2.7-1.1-.2.4-2.7-2.8-.4.2-1.4zm6.2-6.6c1.9 1.9 1 5.5-2.5 5.5-5.9 0-3.5-9.5 2.5-5.5zm-4.8 2.3c0 1.2 1.1 1.8 2.3 1.8 2.6 0 2.7-2.3 1.7-3.1-1.2-.9-4-.6-4 1.3zm.6-8.4v1.3c-3.3 0-4.1-5.1-.2-5.9 4.3-1.2 5.4 4.1 2.9 5.1l-.7-1.1c.3-.2.5-.4.7-.7 1.2-3.7-6.7-1.8-3.8 1.1.3.1.7.2 1.1.2zm-4.3-5.9 6.1-2.6.5 1.2-6.1 2.6-.5-1.2zm-2.4-5 5.8-3.1.6 1.2-4.8 2.5 1.6 2.9-1 .5c-.1.1-2.2-4-2.2-4zm1.6-9.3c1.9 2.8 1.8 2.6 2.1 3.2.5 1-.2 1.8-.5 2-.5.5-1.1.3-1.7.1.3 1.3-.6 2.2-1.4 2.2-1.5 0-1.4-.2-4-3.8.1.1 5.5-3.7 5.5-3.7zm-.1 1.7-1.2.9c1.1 1.6 1.3 1.8 1.6 1.8.2 0 .4 0 .5-.1.4-.2.4-.6.2-.9-.4-.4-1-1.7-1.1-1.7zm-2.2 1.5-1.4 1c.7 1 1.6 2.5 2.4 1.7.1-.1.3-.2.3-.4.2-.4.1-.4-.6-1.5 0 .1-.7-.8-.7-.8zm-3.4-8.9 1 .9c-3.1 3.5-3 3.4-3.1 3.5-.1.2-.2.5-.1.8 0 .4.7 1.2 1.3 1.2.2 0 .5 0 .6-.2.1-.1 0 .1 3.3-3.5l1 .9c-3.2 3.3-3.9 5.2-6.5 3.2-1.6-1.3-1.3-2.7.1-4.1l2.4-2.7zm-9.5 1.4 3.6-5.5c3.1 2.1 3 2 3.1 2.1 1.2 1.2-.4 4.9-3.4 2.5l-.7-.5-1.4 2.1c-.1 0-1.2-.7-1.2-.7zm4.1-3.9-1 1.6c1.8 1.2 1.3.7 1.5.9h.5c.2-.1.3-.2.4-.3.1-.2.2-.4.1-.6 0-.2-.1-.4-.3-.5-.1-.1-.4-.3-.8-.6.1-.1-.4-.5-.4-.5zm-9.7 1.2 2.7-6 4.5 2-.5 1-3.2-1.4L66 12l3 1.3-.4 1-3-1.3-.7 1.6 3.4 1.5-.5 1-4.7-2zm-6.4-1.9 1.8-6.3c2.8.8 4.3 1 4.7 2.2.4 1.1-.4 2.7-2.2 2.4.7.7.8 1.6 1.3 3.4l-1.5-.4c-.9-2.9-.8-3.1-2.1-3.5l-.7 2.5-1.3-.3zM59 9.9c2.7.9 2.1.7 2.8 0 .5-.9-.7-1.1-2.3-1.6L59 9.9zm-8.9.5V9.3H53v2.6c-.5.5-1.6 1-2.8 1-4.5 0-4.6-6.7-.1-6.7 1.4 0 2.4.5 2.8 1.8l-1.3.2c-.8-1.6-3.5-1.3-3.5 1.2 0 2.2 1.5 2.8 2.7 2.2.3-.1.5-.2.7-.4v-.8h-1.4zm-9.6 3.4-1-6.5 1.3-.2 3.4 3.9-.7-4.3 1.2-.2 1 6.5-1.3.2L41 9.4l.7 4.2-1.2.2zm-2.5.9-1.9-6.3 1.3-.4 1.9 6.3-1.3.4zm-7 3-2.7-6 1.8-.8 2.9 3.6-.7-4.6 1.8-.8 2.7 6-1.1.5-2.1-4.7.9 5.3-1.2.5-3.3-4.2 2.1 4.7-1.1.5zm-6.2 4.6-4.1-5.2 1.6-1.2 3.7 2.8-1.8-4.3 1.6-1.2 4.1 5.2-1 .8-3.2-4.1 2.2 4.9-1 .8-4.2-3.3 3.2 4.1c-.1 0-1.1.7-1.1.7zm-.6.4-.9 1.1-1.5-.5-1.7 2 .8 1.4-.9 1.1-3.3-6.3.9-1.1 6.6 2.3zm-3.6.2-2.4-.9 1.3 2.3c0-.1 1.1-1.4 1.1-1.4zm-4 9.8-5.3-3.9c2.4-3.4 1.7-2.5 2.6-3.4 1.3-.9 3.6.7 2.4 2.7 1-.3 1.5-.2 3.7-.1l-.9 1.3c-3.3-.2-2.9-.1-3.4.1-.1.1-.3.2-.5.5l-.1.1 2.2 1.6-.7 1.1zm-2.3-3.3c1.4-1.8 1.2-1.6 1.2-2.3-.1-.2-.2-.3-.3-.4-.2-.1-.3-.2-.5-.2s-.4.1-.5.3c-.4.4-.2.3-1.2 1.6-.1 0 1.3 1 1.3 1zm-1.5 6.3-1-.4 1.1-2.6 2.4 1c.8 3.1-1.1 5.1-2.8 5.1-5.7 0-4.4-7-.7-6.5l-.3 1.3c-1.5 0-1.9 1.5-1.5 2.5.4.9 2.2 1.7 3.1 1.3.9-.4 1.3-1.2 1.3-1.8 0-.3 0-.6-.1-.8l-.8-.3-.7 1.2zm-6.3 6.8c.9-4.4 7.6-2.7 6.7 1.2-.9 4.3-7.5 2.9-6.7-1.2zm4.8 2.1c1.3-1 1.2-3.1-1.1-3.4-2.5-.4-3.1 1.7-2.3 2.8.7.9 2.6 1.1 3.4.6zm1.3 8.5-6.6.1c-.1-2.7-.2-3.8.1-4.3.5-1.4 3-1.8 3.4.6.6-.8.3-.7 2.9-2.3v1.6c-.1.1-2.3 1.7-2.4 1.7-.1.1-.2.3-.3.4 0 .2-.1.2-.1 1h2.8c.2-.1.2 1.2.2 1.2zm-3.8-1.3c0-2.1.1-2.1-.4-2.6-.2-.2-1.2-.2-1.2.6v2h1.6zm4.7 7.4L7 60.3c-.1-.6-.6-3.1-.6-3.7 0-1.3 2.3-2.3 3.4-1.2.2.2.5.3.8 2.8l2.4-.4.5 1.4zm-5.6-.4 1.8-.3c-.1-1-.3-1.6-.4-1.7-.4-.7-2-1-1.5 1.4l.1.6zm67.6-5.5.4 1.6c-.8 2.5-.4.8-.7 5.4l-1.1 2.2c-.1-1.3.1-.6-1.2-4 0-3.7-.5-2.7 1.9-4.3 0-.1.7-.9.7-.9z"/>
</svg>