<svg xmlns="http://www.w3.org/2000/svg" viewBox="0 0 100 100">
	<path d="M28.9 70.6c3.7 0 7-1.2 9.7-3.4 2.7-2.2 4.6-5.2 5.7-8.8 1-3.6.8-6.6-.6-8.8-1.4-2.2-4.1-3.4-7.9-3.4-3.7 0-7 1.2-9.7 3.4-2.7 2.2-4.5 5.2-5.5 8.8-1 3.6-.9 6.6.6 8.8 1.3 2.3 3.8 3.4 7.7 3.4z"/>
	<path d="M99 19.2c-.6-.1-1.4-.3-2.3-.3-2.3 0-4.3.5-5.8 1.5-1.4 1-2.7 3.1-3.6 6.3L85 34.5h8.4l2.1 6.6-5.4 5.3h-8.4L71.5 82.5H56.8L67 46.3h-5.7l-.2.1h-.2v-.1l3.4-11.9h5.9l2.3-8.5c.8-2.6 1.7-5.2 2.8-7.5 1-2.3 2.6-4.4 4.4-6.2 1.8-1.8 4.1-3.2 6.8-4.3 2.7-1 6.2-1.5 10.2-1.5 1 0 1.9 0 3 .1-.9-3.7-4.3-6.5-8.1-6.6H8.4C3.7 0 0 3.9 0 8.5v74.1l13.5-48.1h13.7l-1.8 6.3h.3c.8-.9 1.8-1.7 3.1-2.6 1.3-.9 2.6-1.7 4-2.5s3-1.3 4.6-1.8c1.7-.5 3.4-.6 5-.6 3.6 0 6.6.6 9.2 1.8 2.6 1.2 4.5 3 6.1 5.2 1.3 1.9 2.1 4.3 2.5 7 0 .2.1.6.1.8.3 3-.1 6.3-1.2 9.9-.9 3.4-2.3 6.6-4.3 9.7-1.9 3.1-4.1 5.8-6.6 8.1-2.6 2.3-5.4 4.3-8.5 5.7-3.1 1.4-6.3 2.1-9.8 2.1-3.1 0-5.8-.5-8.3-1.4-2.5-.9-4.1-2.6-5.2-4.9h-.3L9.8 100h81.7c4.6 0 8.5-3.7 8.5-8.5V19.6c-.4-.1-.8-.2-1-.4z"/>
</svg>