<svg xmlns="http://www.w3.org/2000/svg" viewBox="0 0 100 100">
	<path fill="#73B08F" d="m75.808 47.958-6.086-12.26 1.94 8.203 4.146 4.057Z"/>
	<path fill="#C5E4D3" d="m68.666 31.401 4.698 19.847-15.108-15.966L36.24 14.73 30.62 0l38.046 31.401Z"/>
	<path fill="#76C39B" d="M59.466 35.774 39.682 26.29l-10.8-11.603-1.413-7.643 31.997 28.731Z"/>
	<path fill="#000" d="m74.6 52.118-18.676-4.761-35.917-20.661L6 7.472l53.874 28.566L74.6 52.118Z"/>
	<path fill="#73B08F" d="M55.068 46.808v.552l-2.412 4.505-12.598-4.138-23.408-17.56L7.537 17.11l10.453 6.253 1.609 2.482 35.47 20.963Z"/>
	<path fill="#000" d="m21.13 33.609-1.742-.203-6.1-2.227 12.49 11.441 3.291 2.53 13.07 4.355L21.13 33.609Z"/>
	<path fill="#000" d="m13.14 31.34.224-.367 6.074 2.218 1.777.207L42.27 49.33l-.202.383-13.104-4.366-3.328-2.56L13.14 31.34Zm1.112.424 11.666 10.688 3.255 2.503 11.77 3.922L21.045 33.82l-1.709-.199-5.084-1.857Z"/>
	<path fill="#76C39B" d="m72.331 51.265-.265 10.14-.97-1.657-5.645-.39-13.054-7.508 2.998-5.265 16.936 4.68Z"/>
	<path fill="#C5E4D3" d="m19.202 40.095 16.25 12.418 16.877 5.617 13.018 1.183-12.928-7.49-33.217-11.728Z"/>
	<path fill="#76C39B" d="m27.081 49.987 11.29 6.263 13.143 1.323-15.877-4.94-2.558-1.587-5.998-1.059Z"/>
	<path fill="#73B08F" d="m52.17 57.318-18.473-1.611 9.517 3.652 6.25.86 2.707-2.9Z"/>
	<path fill="#76C39B" d="m47.986 60.166-1.588.235-7.409 1.053 3.617-2.458 5.38 1.17Zm11.834 1.601-.363.641-27.04 15.669-5.336 7.055 1.9-7.605 5.878-8.063 16.82-11.362 8.14 3.665Z"/>
	<path fill="#000" d="m30.257 69.481-4.763 6.263v-2.735l4.763-3.528Z"/>
	<path fill="#C5E4D3" d="M69.509 62.865 51.426 75.126l-1.5-2.558-6.262 13.23 1.412 1.941L46.134 100l-7.586-14.025 6.175-15.171 15.083-9.35 9.703 1.411Z"/>
	<path fill="#000" d="m44.723 70.54-12.084 6.526-.353 8.997 3.704 12.084v-6.174l8.733-21.434Z"/>
	<path fill="#73B08F" d="m29.728 87.828.176.617 1.588 6.704-2.117-1.323.353-5.998ZM51.74 74.265l-1.622-2-6.77 12.821 10.775 14.095-2.67-6.275.286-18.64Z"/>
	<path fill="#76C39B" d="m53.014 73.5-1.412.74-.088 15.358 2.646 5.55 4.94-1.85-.177-3.7-5.38-5.274-.53-10.825Z"/>
	<path fill="#000" d="m77.37 62.677-8.203 2.293-8.908 7.586-4.852-.177 14.025-9.438 7.939-.264Z"/>
	<path fill="#73B08F" d="m73.999 63.69-2.57-4.73-23.137-1.81 10.375 4.326 15.332 2.214Zm-13.488 8.573 1.147 2.704 2.47 1.772h.44l-.176 2.89-7.585 3.171-2.558-5.875-.706-3.45 2.293-1.865 4.675.653Z"/>
	<path fill="#000" d="m64.569 87.475-4.587-2.03-1.764 3.617.617.882-.088 3.881 3.352 3.793-.53-7.144.795-.353 2.646 2.558-1.235-2.911-2.823-1.5.618-1.058 2.999 1.323v-1.058Zm1.147-15.083-1.765 4.234.353 3.616 3.617 4.498-.441-7.233.529-.352 2.823 2.47-1.147-2.735-3.176-1.676.53-.882 3.263 1.411-.088-1.234-4.498-2.117Z"/>
	<path fill="#C5E4D3" d="m82.033 53.692-9.79-2.294v9.174l1.146 2.029 8.644.088 8.203 2.822-.264-1.146-5.028-2.911-10.055-3.97 5.733-.088-5.557-2.557 6.968-1.147Z"/>
	<path fill="#73B08F" d="m93.454 62.077-3.705-5.998-8.468-2.558-6.703 1.235 5.292 2.646-4.94.176 9.262 3.97 5.292 2.558 3.97-2.029Z"/>
	<path fill="#000" d="m88.626 69.216 1.411-2.117-1.058-2.734 4.41-2.47.088 5.028-2.646 2.381-2.205-.088Zm3.536-7.891-3.027-1.412-1.615 1.412"/>
	<path fill="#000" d="m89.125 59.843 3.062 1.43-.05.105-2.992-1.396-1.586 1.387-.077-.088 1.643-1.438Z"/>
</svg>