<svg xmlns="http://www.w3.org/2000/svg" viewBox="0 0 100 100">
	<path fill="#FD4F00" d="M37.553 63.671c-.44-.08-.613-.11-.786-.141-5.582-1.038-9.11-4.416-10.782-9.725-1.042-3.31.852-5.746 4.323-5.907 2.842-.132 4.788 1.502 6.508 3.403 2.218 2.45 4.25 5.067 6.428 7.555 3.136 3.58 6.831 5.887 11.887 5.175 4.533-.638 8.483-2.458 11.921-5.452.517-.45 1.084-.842 1.628-1.261l-.343-.404c-2.886.896-5.829 1.197-8.836 1.046-4.55-.23-8.885-1.18-12.765-3.677-3.54-2.28-6.15-5.334-7.391-9.415-1.002-3.296 1.05-5.602 4.465-5.125 1.35.188 2.487.796 3.507 1.659.831.701 1.628 1.445 2.475 2.126 3.987 3.203 9.558 3.381 14.618-.097-8.32-.038-13.98-4.614-18.951-10.413-1.946-2.27-3.845-4.58-5.831-6.815-3.843-4.323-8.106-8.131-13.943-9.43-7.456-1.66-14.654-.576-21.564 2.589-1.378.63-2.7 1.364-4.121 2.546.703 0 1.087.009 1.47-.001 3.483-.09 6.094 1.458 7.976 4.308 1.37 2.074 2.017 4.419 2.509 6.832.73 3.58.352 7.232.774 10.829 1.084 9.248 5.81 15.701 14.612 19.006 3.227 1.212 6.537 1.616 10.212.79ZM15.31 21.485c-1.39.35-2.502-.21-3.647-1.37 1.961-.488 3.69-.678 5.55-.75-.153 1.206-.864 1.858-1.903 2.12Zm45.57 54.004c-.122-.89-.882-1.282-1.48-1.748-2.646-2.059-5.74-2.788-9.02-2.848-1.957-.036-3.894-.182-5.74-.869-.846-.314-1.793-.718-1.771-1.811.021-1.11.987-1.423 1.865-1.686.72-.215 1.462-.352 2.28-.543-2.08-1.333-4.111-1.518-6.818-.43-4.262 1.714-8.463 1.51-12.71-.023-2.4-.866-4.528-2.225-6.744-3.428l-.06.041a5.1 5.1 0 0 0 .057-.04c-.054-.166-.154-.17-.281-.077l.174.152c1.838 3.012 4.32 5.436 7.125 7.507 5.402 3.988 11.302 6.366 18.205 5.31a94.984 94.984 0 0 1 6.725-.786c2.82-.228 5.506.566 8.192 1.28ZM47.864 32.28c-.149-.109-.292-.38-.597-.1 2.484 3.36 5.674 5.837 9.516 7.396 6.2 2.516 12.493 2.946 18.93.726 4.996-1.724 8.59-.04 10.456 4.812.27-5.631-3.043-9.734-8.32-10.539-2.969-.452-5.71.533-8.49 1.34-7.74 2.243-14.93 1.135-21.495-3.636Zm38.57 21.964c1.008.084 2.016.176 3.024.264-2.278-2.001-5.055-2.16-7.864-2-4.277.243-7.359 2.71-10.168 5.657-2.475 2.598-4.712 5.512-8.406 6.556.061.11.077.166.095.166.496.007.995.03 1.49.008 5.366-.243 10.42-1.374 14.44-5.268 1.266-1.226 2.4-2.588 3.622-3.861 1.02-1.062 2.256-1.65 3.766-1.522Zm-12.464-6.65c-4.004.35-7.482 2.007-10.75 4.19-2.514 1.681-5.203 2.477-8.224 1.951-.532-.093-1.068-.162-1.601-.242l-.019.224c.192.099.378.214.578.293.504.2 1 .44 1.522.564 5.815 1.382 11.382.674 16.4-2.568 3.164-2.043 6.438-2.43 9.988-1.903.358.054.715.12 1.075.153.334.031.682.363 1.133.004-3.103-2.241-6.445-2.985-10.102-2.666Zm-14.31-13.59c2.1.072 4.191-.203 6.388-1.508-.644.057-.917.056-1.178.108-3.027.603-5.744-.057-8.164-1.97-.888-.703-1.79-1.386-2.69-2.074-3.564-2.727-7.652-3.639-12.124-3.561.073.22.077.37.155.448 4.865 4.922 10.496 8.311 17.612 8.556Zm35.211 25.249c-3.01-2.987-7.051-3.372-10.79-.765 2.475.111 4.333.9 5.84 2.46a18.537 18.537 0 0 0 1.681 1.576c2.279 1.837 6.14 1.925 8.397.22-2.65-1.034-2.65-1.034-5.128-3.491ZM64.885 82.12c-2.646-4.926-7.093-6.037-12.23-5.706a13.768 13.768 0 0 1 4.238 1.977c1.196.835 2.202 1.869 3.194 2.927 1.965 2.097 5.032 3.385 7.065 2.95-.934-.589-1.763-1.21-2.267-2.148Zm24.622-27.512.003-.096-.008.008.009-.01a9.994 9.994 0 0 1-.052-.004c.01.01.021.017.031.026l.017.076Zm-28.48 20.996-.104-.059a.18.18 0 0 0 .022.062c.007.012.054-.001.082-.003Zm-.104-.059-.01-.048-.012.014.012-.014-.032-.009c.001.013.006.024.008.038l.034.02Z"/>
</svg>