<svg xmlns="http://www.w3.org/2000/svg" viewBox="0 0 100 100">
	<path fill="url(#a)" d="M50 76.578c27.614 0 50-11.77 50-26.289C100 35.77 77.614 24 50 24S0 35.77 0 50.29c0 14.518 22.386 26.288 50 26.288Z"/>
	<path fill="#6181B6" d="M50 74.625c26.536 0 48.047-10.896 48.047-24.336 0-13.44-21.511-24.336-48.047-24.336-26.536 0-48.047 10.896-48.047 24.336 0 13.44 21.511 24.336 48.047 24.336Z"/>
	<path fill="#fff" d="m59.727 58.18 2.382-12.266c.547-2.773.078-4.844-1.328-6.133-1.367-1.25-3.71-1.875-7.148-1.875h-4.14l1.171-6.093a.816.816 0 0 0-.156-.665.703.703 0 0 0-.586-.273h-5.703a.798.798 0 0 0-.782.625l-2.539 13.008c-.234-1.485-.78-2.735-1.718-3.75-1.68-1.914-4.297-2.89-7.852-2.89H20.352a.798.798 0 0 0-.782.624l-5.117 26.406c-.039.235 0 .47.156.665a.703.703 0 0 0 .586.273h5.742a.798.798 0 0 0 .782-.625l1.25-6.367h4.258c2.226 0 4.14-.235 5.585-.703a11.075 11.075 0 0 0 4.102-2.461 12.616 12.616 0 0 0 2.422-3.008l-1.016 5.273a.817.817 0 0 0 .157.664.703.703 0 0 0 .585.274h5.704c.39 0 .703-.274.78-.625l2.813-14.453h3.907c1.68 0 2.148.312 2.304.468.117.118.352.586.078 2.032l-2.265 11.68a.816.816 0 0 0 .156.663.703.703 0 0 0 .586.274h5.86c.35-.117.663-.39.742-.742ZM33.32 48.023c-.351 1.836-1.015 3.164-1.992 3.907-.976.742-2.578 1.133-4.687 1.133H24.1l1.836-9.454h3.282c2.422 0 3.398.508 3.789.938.508.625.625 1.836.312 3.476Zm50.782-7.265c-1.68-1.914-4.297-2.89-7.852-2.89H65.195a.798.798 0 0 0-.781.624L59.297 64.86c-.04.235 0 .47.156.664a.702.702 0 0 0 .586.274h5.742c.39 0 .703-.274.781-.625l1.25-6.367h4.258c2.227 0 4.14-.235 5.586-.703a11.076 11.076 0 0 0 4.102-2.461c1.015-.938 1.875-1.993 2.5-3.125a13.006 13.006 0 0 0 1.367-3.75c.664-3.399.156-6.055-1.523-8.008Zm-5.977 7.265c-.352 1.836-1.016 3.164-1.992 3.907-.977.742-2.578 1.133-4.688 1.133h-2.539l1.836-9.454h3.281c2.422 0 3.399.508 3.79.938.546.625.663 1.836.312 3.476Z"/>
	<path fill="#000004" d="M29.219 42.828c2.187 0 3.633.39 4.375 1.211.742.82.898 2.188.508 4.14-.391 2.032-1.172 3.516-2.305 4.376-1.133.86-2.852 1.289-5.156 1.289h-3.477l2.148-11.016h3.907ZM15.234 65.016h5.743l1.367-6.993h4.922c2.187 0 3.945-.234 5.351-.703 1.406-.468 2.656-1.21 3.828-2.304.977-.899 1.758-1.875 2.344-2.93a11.398 11.398 0 0 0 1.25-3.516c.625-3.125.156-5.547-1.367-7.304-1.524-1.758-3.945-2.618-7.266-2.618H20.352l-5.118 26.368Zm29.024-33.36h5.703l-1.367 6.992h5.078c3.203 0 5.39.547 6.601 1.68 1.211 1.133 1.563 2.93 1.094 5.43l-2.383 12.265h-5.78l2.265-11.68c.273-1.327.156-2.226-.274-2.695-.43-.468-1.406-.742-2.851-.742h-4.57l-2.93 15.117H39.14l5.117-26.367Zm29.765 11.172c2.188 0 3.633.39 4.375 1.211.743.82.899 2.188.508 4.14-.39 2.032-1.172 3.516-2.304 4.376-1.133.86-2.852 1.289-5.157 1.289H67.97l2.148-11.016h3.906ZM60.04 65.016h5.742l1.367-6.993h4.922c2.188 0 3.946-.234 5.352-.703 1.406-.468 2.656-1.21 3.828-2.304.977-.899 1.758-1.875 2.344-2.93a11.398 11.398 0 0 0 1.25-3.516c.625-3.125.156-5.547-1.367-7.304-1.524-1.758-3.946-2.618-7.266-2.618H65.156L60.04 65.016Z"/>
    <radialGradient id="a" cx="0" cy="0" r="1" gradientTransform="translate(30.02 33.245) scale(65.6622)" gradientUnits="userSpaceOnUse">
		<stop stop-color="#fff"/>
		<stop offset=".5" stop-color="#4C6B97"/>
		<stop offset="1" stop-color="#231F20"/>
    </radialGradient>
</svg>