<svg xmlns="http://www.w3.org/2000/svg" viewBox="0 0 100 100">
	<g fill="#ccc">
		<path d="m74.3 22.2-.1-.1-.1-.1H74c-.1.1-.1 0-2.3 40.4l.3-.1 2.1-39.2 2.6 4.2c1.9 5.7 2.7 11.8 2.4 18.2.2.4.1.2 2.7 4.7 2.6 2.6 7.8 5.7 13.3 7.1l1.2 1.9.2.1v-.1L74.2 22.9l.1-.7"/>
		<path d="M73.5 36.4c2.7 5.6 3.7 14.1 3 25.5l10.7-1.3-13.7-24.2zm26.5 24-56 6.8c0 3.1 2.2 5.4 4.8 6.3.5-.6 1-1 1.7-1.4 11.6-7.1 29.6 0 30.8-1 .4-.3.9-.6 1.6-.7 5.9-10.4 15.8-8.6 17.1-10zm-29 1.7 2.6-39.3C69.8 37.2 63.9 50.5 55.7 63l15.3-.9zM56.6 30.5l-.1-.1h-.1l-.1.1-2.1 34h.3l2.1-34zm-.8.2L44 64.9l9.6-1 2.2-33.2z"/>
		<path d="M54.1 75c-2.1 1-4.5 1.8-6.6.8-1.3-1.3-4.5-.1-6.1.6-.2.1-.3-.2-.1-.3 7.6-3.6 5 2.3 12.7-1.4.2 0 .3.3.1.3zm.4 1.1c5.1-3 7.4-.5 6.4-.8-5.2-1.7-5.7 3.1-12.9 2.4-.2 0-.2-.3 0-.3 2.6.2 4.7-.2 6.5-1.3zm-4.4-2c5.5-3.8 14.6-4.4 27-1.9.2 0 .1.3-.1.3-12.4-2.6-21.4-1.9-26.8 1.8-.1.2-.3 0-.1-.2zM72 75.9c-.2 0-.2.3 0 .3 7.2.6 8.1-4.2 12.9-2.4.1 0 .2 0 .2-.1s0-.2-.1-.2c-4.9-1.9-5.8 3-13 2.4zm-7.7-45c-1.3-1.2-2.6-1.3-4-.5-.4.3 0 .9.4.6 2.3-1.4 3.3 1.1 3.8.6 1.4-1.2 2.5-1.2 3.6-.6.4.3.8-.4.4-.6-.8-.4-1.5-.6-2.3-.4-.6.1-1.3.4-1.9.9zm1.2-4.9c.4.3 0 .9-.4.6-2.3-1.4-3.4 1.6-4 .9-1-1.1-2.1-1.6-3.4-.9-.4.3-.8-.4-.4-.6 1.2-.8 2.7-.7 4.1.7 1.3-1.1 2.7-1.5 4.1-.7z"/>
	</g>
	<path fill="#6c78af" d="M1.4 67.3h3.5c4.2 0 3.3 5.3.5 6.3-.8.3-1.8.2-3.2.2l-.4 2.4H0l1.4-8.9zM3 68.8l-.6 3.8c2.2 0 2.3-.1 2.7-.4.7-.6 1-2.4.5-2.9-.2-.3-.7-.4-1.4-.4.1-.1-1.2-.1-1.2-.1zM9.7 65h1.8l-.4 2.4c5.2 0 4.3.6 3.4 6.6h-1.8c.9-5.6 1.4-5.1-1.8-5.1l-.8 5.1H8.3c0-.1 1.4-9 1.4-9zm7.4 2.3h3.5c4.2 0 3.3 5.3.5 6.3-.8.3-1.8.2-3.2.2l-.4 2.4h-1.8l1.4-8.9zm1.6 1.5-.6 3.8c2.2 0 2.3-.1 2.7-.4.7-.6 1-2.4.5-2.9-.2-.3-.7-.4-1.4-.4 0-.1-1.2-.1-1.2-.1z"/>
	<path fill="#f89c0e" d="M26.4 63.1h3.5l1.5 8.3 4.2-8.3h3.5L37.3 74H35l1.6-8.5-4.2 8.5h-2.5l-1.6-8.5-1.1 8.5h-2.4c-.1-.1 1.6-10.9 1.6-10.9zm16.8 9.1H45l1-6.2h2.2c-1.9 11.6-.5 10.9-9.1 10.9l.3-1.6c4 0 5.1.4 5.4-1.3-6.2 0-5.2-.7-4.1-8h2.2c-1 5.8-1.5 6.2.3 6.2zm13.3-9.1 3 10.9H57l-.6-2.6h-4.9L50 73.9h-2.5L54 63.1h2.5zm-1.6 2.1-2.3 4.2h3.3l-1-4.2zm12.9 8.7c-3.8 0-8.3.7-7.5-4.1.2-1 .6-1.9 1.3-2.7 1.4-1.5 3.1-1.2 5.3-1.2l.5-2.9h2.2c-.1.1-1.8 10.9-1.8 10.9zm-1.2-6.2c-2.3 0-3.7-.1-4.1 2.3-.4 2.4 1 2.2 3.4 2.2l.7-4.5zm4.4-1.8c13.1 0 12-1.2 10.5 8h-2.2c1.1-6.9 1.5-6.2-1.6-6.2l-1 6.2h-2.2l1-6.2H73l-1 6.2h-2.2l1.2-8zm16.1-.9h-2.3l.3-2h2.3l-.3 2zm-1.4 8.9h-2.3l1.3-8H87l-1.3 8zm3.2-8c8.4 0 7.6-.5 6.3 8H93c1.1-7 1.7-6.2-2.2-6.2l-1 6.2h-2.2l1.3-8z"/>
</svg>