<svg xmlns="http://www.w3.org/2000/svg" viewBox="0 0 100 100">
	<linearGradient id="a" x1="18.4374" x2="46.6745" y1="44.3397" y2="98.5677" gradientTransform="matrix(1 0 0 -1 0 102)" gradientUnits="userSpaceOnUse">
		<stop offset="0" stop-color="#af1df5"/>
		<stop offset=".2116" stop-color="#bc20e4"/>
		<stop offset=".6282" stop-color="#dd29b8"/>
		<stop offset="1" stop-color="#ff318c"/>
	</linearGradient>
	<path fill="url(#a)" d="M55.2 17.6 51.9 7.5 36.4 15l-20.5 1.8L18.7 52l29.1-4.9 7.4-29.5z"/>
	<linearGradient id="b" x1="10.3328" x2="44.5599" y1="27.7514" y2="72.9618" gradientTransform="matrix(1 0 0 -1 0 102)" gradientUnits="userSpaceOnUse">
		<stop offset=".01613" stop-color="#6b57ff"/>
		<stop offset=".4236" stop-color="#b74af7"/>
		<stop offset=".7459" stop-color="#ff318c"/>
	</linearGradient>
	<path fill="url(#b)" d="M27.6 26.6 0 19.3l9.5 57.2 51.4-.5c0 .1-33.3-49.4-33.3-49.4z"/>
	<linearGradient id="c" x1="87.7723" x2="68.8061" y1="39.9542" y2="84.9672" gradientTransform="matrix(1 0 0 -1 0 102)" gradientUnits="userSpaceOnUse">
		<stop offset="0" stop-color="#293896"/>
		<stop offset=".07538" stop-color="#3b3aa2"/>
		<stop offset=".2871" stop-color="#6740c0"/>
		<stop offset=".4913" stop-color="#8a44d8"/>
		<stop offset=".6832" stop-color="#a347e9"/>
		<stop offset=".8579" stop-color="#b249f3"/>
		<stop offset="1" stop-color="#b74af7"/>
	</linearGradient>
	<path fill="url(#c)" d="M65.5 50.9 53.7 30.7 66.5 19 87 10.6 100 43 81.3 61.6 65.5 50.9z"/>
	<linearGradient id="d" x1="72.2292" x2="40.6984" y1="13.3898" y2="59.6064" gradientTransform="matrix(1 0 0 -1 0 102)" gradientUnits="userSpaceOnUse">
		<stop offset=".01613" stop-color="#6b57ff"/>
		<stop offset=".7829" stop-color="#b74af7"/>
	</linearGradient>
	<path fill="url(#d)" d="m81.3 42.5-6.5-13.3-51 10.3L29 88.2 62.7 100 100 77.6 81.3 42.5z"/>
	<linearGradient id="e" x1="62.6726" x2="52.2262" y1="38.1976" y2="93.4432" gradientTransform="matrix(1 0 0 -1 0 102)" gradientUnits="userSpaceOnUse">
		<stop offset=".01613" stop-color="#6b57ff"/>
		<stop offset=".637" stop-color="#b74af7"/>
	</linearGradient>
	<path fill="url(#e)" d="m54.9 44.9-31.2-5.4 38-33.6L87 10.6 71.3 26.2l3.6 3.2c.1 0-20 15.5-20 15.5z"/>
	<linearGradient id="f" x1="11.3775" x2="27.6498" y1="62.183" y2="91.7142" gradientTransform="matrix(1 0 0 -1 0 102)" gradientUnits="userSpaceOnUse">
		<stop offset="0" stop-color="#af1df5"/>
		<stop offset=".2116" stop-color="#bc20e4"/>
		<stop offset=".6282" stop-color="#dd29b8"/>
		<stop offset="1" stop-color="#ff318c"/>
	</linearGradient>
	<path fill="url(#f)" d="M51.9 7.5 17.1 0 0 19.3l27.6 7.3L51.9 7.5z"/>
	<path d="M81.2 18.8H18.8v62.5h62.5V18.8z"/>
	<path fill="#fff" d="M50 69.5H26.6v3.9H50v-3.9zm-3-22.6 3.1-3.7c2.1 1.7 4.3 2.9 7 2.9 2.1 0 3.4-.8 3.4-2.2v-.1c0-1.3-.8-2-4.7-3-4.8-1.2-7.8-2.5-7.8-7.2v-.1c0-4.3 3.4-7.1 8.2-7.1 3.2-.1 6.3 1 8.7 3l-2.7 3.9c-2.1-1.4-4.1-2.3-6.1-2.3s-3 .9-3 2v.1c0 1.5 1 2.1 5.1 3.1 4.8 1.2 7.5 3 7.5 7.1v.1c0 4.7-3.6 7.3-8.6 7.3-3.8 0-7.3-1.4-10.1-3.8zM26.6 26.8h9.6c5.6 0 9 3.3 9 8.1v.1c0 5.4-4.2 8.2-9.5 8.2h-3.9v7h-5.1c-.1 0-.1-23.4-.1-23.4zm9.3 11.8c2.6 0 4.1-1.5 4.1-3.5V35c0-2.3-1.6-3.5-4.2-3.5h-4v7.2h4.1z"/>
</svg>