<svg xmlns="http://www.w3.org/2000/svg" viewBox="0 0 100 100">
	<path fill="#356388" d="M65.3 37h-5.21v4.681h5.21V37Z"/>
	<path fill="#39B54A" d="M88.575 37H83.47v4.972h5.105V37ZM73.023 57.154H67.92v4.972h5.104v-4.972ZM65.3 43.163h-5.21v4.972h5.21v-4.972Z"/>
	<path fill="#356388" d="M60.09 49.616v5.871c0 1.375-.74 2.222-1.984 2.222-1.163 0-2.01-.74-2.01-2.248V37h-.74c-3.121 0-4.787 2.01-4.787 5.924V55.62c0 4.761 2.724 6.903 7.22 6.903 4.232 0 7.538-2.433 7.511-7.008v-5.872h-5.21v-.026Z"/>
	<path fill="#3C9CD7" d="M42 37h-3.307c-3.12 0-4.787 2.01-4.787 5.924v19.228h5.501v-8.94h2.434c4.549 0 6.48-3.173 6.48-8.436 0-5.131-2.196-7.776-6.322-7.776Zm-1.006 11.743h-1.587v-7.22h1.614c1.296 0 1.93.978 1.93 3.411 0 2.592-.687 3.809-1.957 3.809ZM8.093 37H4.787C1.667 37 0 39.01 0 42.924v19.228h5.501v-8.94h2.433c4.55 0 6.48-3.173 6.48-8.436 0-5.131-2.195-7.776-6.32-7.776ZM7.062 48.743H5.475v-7.22h1.613c1.296 0 1.93.978 1.93 3.411.027 2.592-.687 3.809-1.956 3.809ZM30.468 37c-3.12 0-4.787 2.01-4.787 5.924v4.1h-3.914V37h-.714c-3.121 0-4.787 2.01-4.787 5.924v19.228h5.5V51.996h3.915v10.156h5.475V37.026h-.688V37Z"/>
	<path fill="#356388" d="M100 47.288v-3.94h-2.565v-4.259H95.82c-2.248 0-3.464 1.455-3.464 4.258H90.69v3.941h1.667v11.108c0 2.777 1.983 4.02 4.47 4.02.978 0 2.221-.185 3.147-.502v-4.047c-.397.08-.952.106-1.481.106-.82 0-1.058-.396-1.058-1.084v-9.6H100ZM76.937 42.74c-1.666 0-2.988.713-3.914 2.036v-1.614h-1.666c-2.248 0-3.465 1.455-3.465 4.259v8.251h5.105v-6.691c0-1.137.555-1.984 1.401-1.984 1.138 0 1.376.873 1.376 1.667v13.462h5.078V46.759c.052-2.486-1.72-4.02-3.915-4.02Zm9.998.607c-2.248 0-3.465 1.455-3.465 4.258v14.52h5.105V43.347h-1.64Z"/>
</svg>