<svg xmlns="http://www.w3.org/2000/svg" viewBox="0 0 100 100">
	<linearGradient id="a" x1="-424.7988" x2="2381.5613" y1="-281.6028" y2="7570.2466" gradientTransform="translate(0 -978.567)" gradientUnits="userSpaceOnUse">
		<stop offset="0" stop-color="#52ce63"/>
		<stop offset="1" stop-color="#51a256"/>
	</linearGradient>
	<path fill="url(#a)" d="M45.7 24.4c6.1 9.7 8.2 17.7 1.4 24.1-6.8 6.5-12.8 2.2-18.9-7.5s-5.6-25.4-3.3-27.6 14.7 1.3 20.8 11z"/>
	<linearGradient id="b" x1="1361.2308" x2="-6491.3198" y1="553.0332" y2="3358.0225" gradientTransform="translate(0 -978.567)" gradientUnits="userSpaceOnUse">
		<stop offset="0" stop-color="#52ce63"/>
		<stop offset="1" stop-color="#51a256"/>
	</linearGradient>
	<path fill="url(#b)" d="M73 46.5c-8.3 7.9-15 10.8-20 2.9S51.8 34 60.1 26.1s21.3-8 23-5.4c1.6 2.7-1.8 17.9-10.1 25.8z"/>
	<linearGradient id="c" x1="55.6716" x2="-1494.9589" y1="978.5512" y2="13607.3672" gradientTransform="translate(0 -978.567)" gradientUnits="userSpaceOnUse">
		<stop offset="0" stop-color="#8ae99c"/>
		<stop offset="1" stop-color="#52ce63"/>
	</linearGradient>
	<path fill="url(#c)" d="M63.4 25.9C61.8 38.4 58.6 46 50.2 45s-9.9-9.3-8.3-21.7S52.9-.3 55.8 0c2.8.4 9.1 13.5 7.6 25.9z"/>
	<linearGradient id="d" x1="-264.7916" x2="-1939.9216" y1="6188.395" y2="33695.6055" gradientTransform="translate(0 -978.567)" gradientUnits="userSpaceOnUse">
		<stop offset="0" stop-color="#ffe56c"/>
		<stop offset="1" stop-color="#ffc63a"/>
	</linearGradient>
	<path fill="url(#d)" d="M48.1 100c17.5 0 31.6-5.1 31.6-28.1S65.6 30.1 48.1 30.1 16.5 48.9 16.5 71.9 30.7 100 48.1 100z"/>
	<path fill="#eaadcc" d="M30.7 65.9c-5.9-.7-5.4-4.8.5-4.1 2.5.3 5.4 4.8-.5 4.1zm33.4 1.3c-6 0-6-4.2 0-4.2 2.5 0 6.1 4.2 0 4.2z"/>
	<path d="M36.8 54.7c2 2 1.7 4.8.2 6.3-2 2-4.8 1.7-6.3.2-2-2-1.7-4.8-.2-6.3.7-.8 4.8-1.7 6.3-.2zm5 9.2c2 3 6.6 3.4 9.6 1 .6-.4 0-1.6-.8-1-2.6 2.2-6.5 1.2-7.7-.7-.2-.3-1.6 0-1.1.7zm19.1-9.3c-2.4 0-4.5 2.2-4.3 4.6 0 2.4 2.2 4.5 4.6 4.3 2.4 0 4.5-2.2 4.3-4.6 0-1.2-2.4-4.5-4.6-4.3z"/>
	<path fill="#fff" d="M39.2 57.8c-.1-3-2.6-5.4-5.6-5.3-3 .1-5.4 2.6-5.3 5.6s2.6 5.4 5.6 5.3c3-.1 5.4-2.6 5.3-5.6zm-1.9 0c.1 2-1.5 3.6-3.4 3.7-2 .1-3.6-1.5-3.7-3.4-.2-4.6 6.8-5.1 7.1-.3zm-5-2c.8 0 1.5.6 1.5 1.4 0 2-2.9 1.9-2.9.1-.1-.8.6-1.4 1.4-1.5zm34.2 3.1c-.1-3-2.6-5.4-5.6-5.3-3 .1-5.4 2.6-5.3 5.6.1 3 2.6 5.4 5.6 5.3 3.1 0 5.4-2.5 5.3-5.6zm-1.9.1c.1 2-1.5 3.6-3.4 3.7-2 .1-3.6-1.5-3.7-3.4-.2-4.7 6.9-5 7.1-.3zm-3.5-.6c0 2-2.9 1.9-2.9.1 0-.8 2.9-1.9 2.9-.1z"/>
	<path fill="#ecb732" d="M23.4 73.2c.5-.4 1.2-.4 1.6 0l6.8 7.1 4.9-5.2c.9-1.2 2.8.4 1.7 1.5l-5 5.3 7.1 7.4c1 1.3-.7 2.5-1.6 1.6l-7-7.3-3.3 3.5c-.9 1.2-2.8-.4-1.7-1.5l3.4-3.6-6.9-7.2c-.5-.4-.4-1.1 0-1.6zm49.3 0c-.5-.4-1.2-.4-1.6 0l-6.8 7.1-4.9-5.2c-.9-1.2-2.8.4-1.7 1.5l5 5.3-7.1 7.4c-1 1.3.7 2.5 1.6 1.6l7-7.3 3.3 3.5c.9 1.2 2.8-.4 1.7-1.5L65.8 82l6.9-7.2c.5-.4.4-1.1 0-1.6z"/>
	<path fill="#ffc73b" d="M53.2 47.8c1.2 1.2-.7 2.7-1.6 1.6l-3.3-3.3-3.3 3.4c-.5.5-1.2.5-1.6 0-.9-1.2-.1-1.5 3.3-4.9l-5.4-5.4c-1.2-1.2.8-2.6 1.6-1.6l5.4 5.4 5.4-5.4c1.2-1.2 2.7.7 1.6 1.6l-5.4 5.4 3.3 3.2z"/>
</svg>