<svg xmlns="http://www.w3.org/2000/svg" viewBox="0 0 100 100">
	<path fill="#E72264" d="M50.275 0C29.688 0 13 16.688 13 37.275c0 .404.007.804.02 1.204v39.47l.004-.004v9.005c0 .07-.003.136-.003.205 0 .07.003.14.007.209v.167h.003c.199 6.918 5.864 12.465 12.831 12.465s12.692-5.547 12.89-12.465V74.307h10.65c.289.007.581.01.87.01 20.587 0 37.275-16.455 37.275-37.042C87.547 16.688 70.862 0 50.275 0Zm0 48.58H38.763V37.278c0-6.334 5.178-11.471 11.512-11.471 6.334 0 11.471 5.137 11.471 11.47 0 6.334-5.137 11.305-11.47 11.305v-.004Z"/>
	<path fill="#1D1D1B" d="M25.539 74.314h13.196v13.22h-.06C38.478 94.452 32.813 100 25.846 100S13.209 94.452 13.01 87.534h-.003v-.167c0-.07-.007-.139-.007-.208 0-.07.004-.136.004-.206v-.932c.396-6.187 6.236-11.707 12.531-11.707h.004Z" opacity=".15"/>
	<path fill="#000" d="M13.021 58.412v15.895c0-14.003 11.767-25.53 25.735-25.72v-5.072C28.373 44.607 19.18 50.197 13.02 58.412Z" opacity=".02"/>
	<path fill="#000" d="M38.755 48.586v-4.605c-10.469 1.026-19.707 6.737-25.734 15.123v15.203c0-14.003 11.766-25.53 25.734-25.721Z" opacity=".02"/>
	<path fill="#000" d="M38.755 48.586v-4.143c-10.563.957-19.86 6.807-25.734 15.38v14.48c0-14.003 11.766-25.53 25.734-25.72v.003Z" opacity=".02"/>
	<path fill="#000" d="M38.755 48.586V44.91c-10.67.883-20.03 6.893-25.734 15.676v13.72c0-14.002 11.766-25.529 25.734-25.72Z" opacity=".02"/>
	<path fill="#000" d="M38.755 48.586v-3.207c-10.796.8-20.228 6.998-25.734 16.01v12.918c0-14.003 11.766-25.53 25.734-25.721Z" opacity=".02"/>
	<path fill="#000" d="M38.755 48.586v-2.737c-10.938.716-20.461 7.126-25.734 16.403v12.055c0-14.003 11.766-25.53 25.734-25.721Z" opacity=".02"/>
	<path fill="#000" d="M38.755 48.586v-2.264c-11.105.622-20.736 7.29-25.734 16.865v11.12c0-14.003 11.766-25.53 25.734-25.721Z" opacity=".02"/>
	<path fill="#000" d="M38.755 48.586v-1.788c-11.31.522-21.07 7.503-25.734 17.43v10.079c0-14.003 11.766-25.53 25.734-25.72Z" opacity=".02"/>
	<path fill="#000" d="M38.755 48.586v-1.3c-11.571.413-21.498 7.787-25.734 18.148v8.873c0-14.003 11.766-25.53 25.734-25.721Z" opacity=".02"/>
	<path fill="#000" d="M13.042 86.268c3.033-2.226 6.713-3.537 10.685-3.537h15.032v-8.424H25.88c-6.803 0-12.364 5.276-12.837 11.961Z" opacity=".05"/>
	<path fill="#000" d="M25.88 74.307c-6.62 0-12.066 4.998-12.79 11.425 3.03-2.365 6.773-3.763 10.832-3.763h14.834V74.31h-12.88l.004-.003Z" opacity=".05"/>
	<path fill="#000" d="M25.88 74.307c-6.435 0-11.76 4.72-12.72 10.886 3.012-2.5 6.817-3.993 10.956-3.993h14.64v-6.893h-12.88.003Z" opacity=".05"/>
	<path fill="#000" d="M25.88 74.307c-6.25 0-11.457 4.455-12.626 10.361 2.988-2.64 6.845-4.233 11.06-4.233H38.76v-6.128H25.88Z" opacity=".05"/>
	<path fill="#000" d="M25.88 74.307c-6.063 0-11.14 4.19-12.508 9.829 2.946-2.776 6.852-4.47 11.137-4.47h14.247v-5.363h-12.88l.004.004Z" opacity=".05"/>
	<path fill="#000" d="M25.88 74.307c-5.871 0-10.817 3.93-12.365 9.297 2.894-2.912 6.838-4.703 11.193-4.703h14.051v-4.594H25.88Z" opacity=".05"/>
	<path fill="#000" d="M25.88 74.307c-5.673 0-10.487 3.673-12.202 8.768 2.828-3.043 6.81-4.939 11.22-4.939h13.858v-3.83h-12.88.003Z" opacity=".05"/>
	<path fill="#000" d="M25.88 74.307c-5.479 0-10.153 3.426-12.014 8.25 2.751-3.18 6.758-5.186 11.23-5.186H38.76v-3.064H25.88Z" opacity=".05"/>
	<path fill="#000" d="M25.88 74.307c-5.28 0-9.816 3.182-11.798 7.732 2.654-3.315 6.688-5.433 11.213-5.433H38.76v-2.3H25.88Z" opacity=".05"/>
</svg>