<svg xmlns="http://www.w3.org/2000/svg" viewBox="0 0 100 100">
	<path fill="#2d4552" d="M25.2 60.1c3.5-3.1 9-4.7 13.7-3.8v-1.6c-4.6-.4-10.3 1.4-13.7 5.4zm-.2-18-13.9 3.7s.3.4.7.8l11.8-3.1s-.2 2.1-1.6 4.1c2.7-2.1 3-5.5 3-5.5zm11.6 32.6C17.1 80 6.8 57.3 3.6 45.6c-.8-3-2.5-10.4-2.2-12.9-1 .1-1.5.6-1.4 2.1 1.1 17.8 13.5 47.1 35.2 41.3 4.2-1.1 7.4-3.2 9.8-5.9-2.2 2-4.9 3.5-8.4 4.5zm3.7-46.4v1.4H48c-.2-.5-.3-.9-.5-1.4h-7.2z"/>
	<path fill="#2d4552" d="M49.6 39.7c3.4 1 5.3 3.4 6.2 5.5l3.8 1.1c-.7-9.6-12.2-13.5-18-5.2 2-1.3 4.6-2.4 8-1.4zm19.9 9.7c4.9-3.5 11.5-1.7 14.1 4.1l3.8 1.1c-.6-9.6-12.2-13.5-17.9-5.2zM76.4 65l-32-9s.3 1.8 1.7 4L73 67.6c2.2-1.3 3.4-2.6 3.4-2.6zM54.2 84.2c-26.5-7.1-24-44.8-13.2-68.4-.9-.2-1.6.3-2.3 1.7-9.9 20-15.8 61.8 12.8 69.4 11.9 3.2 21.2-1.7 28.1-9.3-6.6 6-15 9.3-25.4 6.6z"/>
	<path fill="#e2574c" d="M40.3 67.1v-6.5l-18.1 5.1c1.2-7.1 10.4-12.3 18.1-10.8V28.3h9c-3.6-11.2-4-9.1-8.5-5.3-8.5 7-22.7 10.8-33.6 9-3.9-.7-6-1.5-5.8 1.5 1.1 17.8 13.5 47.1 35.2 41.3 5.1-1.4 8.7-4.1 11.2-7.5l-7.5-.2zM11.1 45.7 25 42.1s-.4 5.3-5.6 6.7c-5.2 1.4-8.3-3.1-8.3-3.1z"/>
	<path fill="#2ead33" d="M92.4 28.6C78.3 31 59.9 26.1 48.9 16.9c-4-3.3-5.7-5.7-7.5-2.1-9.9 20-15.8 61.8 12.8 69.4C79.5 90.9 93 61.5 97 46.3c1.9-7 2.7-12.4 2.9-15.8.3-4-2.3-2.8-7.5-1.9zM41.7 41.2c5.3-8.2 17.3-4.9 18 5.1l-18-5.1zM58.2 69c-11.9-3.5-13.7-13-13.7-13l31.9 9s-6.5 7.4-18.2 4zm11.2-19.5c5.3-8.2 17.3-4.9 18 5.1.1 0-18-5.1-18-5.1z"/>
	<path fill="#d65348" d="m34 62.4-11.7 3.3s1.3-7.3 9.9-10.2l-6.7-25C8.2 35.9 1 27.8 1.4 33.4c1.3 20.9 15.4 47.4 35.8 41.1L34 62.4zM11.1 45.7 25 42.1s-.4 5.3-5.6 6.7c-5.2 1.4-8.3-3.1-8.3-3.1z"/>
	<path fill="#1d8d22" d="M58.7 69.1c-7.8-1.9-13.3-8-14.3-13.1l16.5 4.6 8.7-33.5C46.8 21 44.6 8.2 41.4 14.7 29.5 39 28.1 78.3 54.7 84.3l4-15.2zm-17-27.9c5.3-8.2 17.3-4.9 18 5.1l-18-5.1z"/>
	<path fill="#c04b41" d="m34.6 62.2-3.1.9c.7 4.2 2.1 8.2 4.1 11.8 1-.2 2-.5 3.8-1.2-2.4-3.4-3.9-7.3-4.8-11.5zm-3.9-6c1.6-.7 2.4-.9 2.9-1-.8-10 .9-20.2 3.9-29.8-.7.5-1.5.9-2.3 1.4-3.2 9.5-5 19.3-4.5 29.4z"/>
</svg>