<svg xmlns="http://www.w3.org/2000/svg" viewBox="0 0 100 100">
	<path fill="#92D13D" d="m24.765 5.3 2.55-2.551c3.91-3.868 10.288-3.621 13.868.535L76.487 44.43a9.45 9.45 0 0 1-.082 12.427L41.224 96.728c-3.621 4.074-9.917 4.28-13.785.412l-2.55-2.551c-3.457-3.457-3.704-8.97-.577-12.756L45.38 56.569c2.88-3.456 2.921-8.435.123-11.973L24.106 17.85c-3.045-3.704-2.757-9.135.659-12.55Z"/>
	<path fill="#49691F" d="M45.339 56.652 24.27 81.916c-3.127 3.745-2.88 9.3.576 12.756l2.551 2.551c3.868 3.868 10.164 3.662 13.785-.411l7.612-8.641c2.88-5.678 4.485-12.098 4.485-18.887a41.902 41.902 0 0 0-6.666-22.713c1.564 3.21 1.152 7.2-1.275 10.08Z"/>
</svg>