<svg xmlns="http://www.w3.org/2000/svg" viewBox="0 0 100 100">
	<path fill="#d7d8da" d="M78.2 51.5c.2 1-6.1-3.7-18.9.8-7.8-4.2-17.7-2.6-24.4 3-7.8-6.1-14.5-3.6-14.3-4.5 2-9.2.8-18.8 1.6-24C24 15.4 33.2 6.2 44.5 4.4 59.6 2.1 73.3 12.5 76 27.3c1.4 8 .4 16.2 2.2 24.2zm14.9 31.1c-17.7 2.4-23.1 3-46.5-.1-.1-3.8 0-6.9.1-9.2.8-11 9.3-19.8 20.3-20.9 13.3-1.4 24.2 8.2 25.7 21.2.2 2.5.4 5.5.4 9zm-55.4-8.2 1.1-.1c0-2.9-.1-5.3-.3-7.4-2-17.8-28.2-18.6-32.1-2.4-.7 2.9-.5 6.6-.5 9.8l2.9.5c.1-1 .1-1.7.3-2 1.5-3 6-.7 4.2 2.5l2.6.3c-.1-.6-.2-1.3-.3-1.9-1.2-9.7 15.8-9.5 12.9 1.9l2.9-.3c-.6-2.2-.1-3.5 1.5-3.8 2.2-.5 3.3 1.2 3 3.3l1.8-.4z"/>
	<path fill="#892ca0" d="M34.6 34.1c3.1 0 5.6-2.8 5.5-5.9 0-3.1-2.6-5.8-5.7-5.7-3.1 0-5.6 2.8-5.5 5.9s2.6 5.7 5.7 5.7zm30.1 0c3.1-.1 5.5-2.9 5.4-6-.1-3.1-2.6-5.7-5.8-5.6-3.1.1-5.5 2.9-5.4 6 .1 3.1 2.7 5.7 5.8 5.6zM17.3 66.3c0 2.4-2 4.4-4.4 4.4-2.4 0-4.4-2-4.4-4.4s2-4.4 4.4-4.4 4.4 2 4.4 4.4zm19 0c0-2.4-2-4.4-4.4-4.4s-4.4 2-4.4 4.4c0 2.4 2 4.4 4.4 4.4s4.4-2 4.4-4.4zm21.8 8.3c-2.7 0-4.8-2.2-4.9-4.9 0-2.6 2.1-5 4.7-5 2.7 0 4.8 2.2 4.9 4.9s-2 4.9-4.7 5zm24.8 0c2.7-.1 4.7-2.5 4.6-5.1-.1-2.6-2.3-4.9-5-4.8-2.7.1-4.7 2.5-4.6 5.1.1 2.6 2.3 4.9 5 4.8z"/>
	<path fill="#3c6eb4" d="m85.3 55.7 2.2 2c1-.1 8.1-.9 8-1.4-.5-1.9-.4-1.9-.6-1.9-3.3.9-6.7 1.3-9.6 1.3zm4.8 5.2 1.2 1.9c3-.4 5.9-1 8.5-2 .1 0 .1-.1.1-.2-.7-1.8-.6-1.8-.8-1.7-2.8 1-5.8 1.6-9 2zm-50.8.6 9.1.1-1.3 2.3-7.1-.1-.7-2.3zM.5 73.2c-.5 1.9-.6 1.9-.4 1.9 23.2 6.2 43.6.7 43.5.1-.5-1.9-.5-1.9-.6-1.9-24.6 6.1-42.2-1-42.5-.1zm2.2 5.9c14.2 3.5 19.8 1.9 19.8 2.5 0 1.9 0 2-.1 2-6.8.1-13.6-.7-20.2-2.4-.1-.2-.2-.3-.2-.5.4-1.5.4-1.7.7-1.6zm43.9 3.5c-2.7-.4-1.1-.2-7.4-1.3-.2 0-.1 0-.5 1.9 0 .2 0 .1 8.5 1.7 26.6 4.7 52.2-.4 51.8-1.7-.5-1.9-.5-1.9-.7-1.8-3.8 1.1-2.5.8-5.2 1.3-16.8 2.3-7.4 1.2-17.9 1.9-3.2 1.7-6.4 1.7-9.6 0-10.6-.8-.4.4-19-2zm-13.7 4.8c-4.3-1-4.4-.9-4.3-1.2.4-1.6.4-1.8.7-1.8 29.5 7.3 43.7 4 43.7 5 0 1.9.1 1.9-.1 1.9-13.5.6-26.9-.7-40-3.9zm21.6 7.3-.2 1.6c-.2 1.5 23.2.8 23.1.1-.2-1.9-.2-2-.3-1.9-20.6 2-22.4-1.1-22.6.2z"/>
	<path fill="#fff" d="M68 27.8c-2.2 4.1-6.8-1.3-2.8-3.2 2-.5 3.3 1.3 2.8 3.2zm-34.2-3.1c3.7 2.1-.1 6.9-2.7 3.5-.8-2 .5-3.9 2.7-3.5zm24.1 10.6c.1 4.4-4.2 7.3-8.2 7.4s-8.4-2.7-8.5-7.1 4.2-7.3 8.2-7.4c4.1-.1 8.4 2.7 8.5 7.1zm-32.7 1.3c-.1-4.1 5.8-4.2 5.9-.1.1 4.1-5.8 4.2-5.9.1zm46.5 3.1c3.9-.2 3.7-6.3-.2-6.2-4 .1-3.7 6.3.2 6.2zM48.5 61.6c2.6-4.1 6.2-7.2 10.9-9.4-6.7-3.7-16.6-3.5-24.4 3 1.9 1.8 3.4 3.9 4.4 6.3l9.1.1zm-14.2 4.6c-1.8 2-4.1-.6-2.3-2.3 1.6-1 3 .7 2.3 2.3zm-23.7.2c1.8 1.7 3.8-.4 2.4-2.5-2.3-1-3.3 1.2-2.4 2.5zm47.1.3c2.4 2.1 0 5.2-2.4 3-.6-2.2.2-3.3 2.4-3zm27.8 2.8c-2.4 2.5-4.9-1-2.5-2.8 1.9-.8 3.2 1.1 2.5 2.8zm-59.2 6.2-8.2-.1c-.4-1.3-.6-2.3-.5-3.2.6-5.6 11.4-5 8.7 3.3zm-17.5-1 4.5.6c1.8-3.2-2.8-5.6-4.2-2.5-.1.3-.2.9-.3 1.9zm27.1.1-4.4.6c-.6-2.2-.1-3.5 1.5-3.8 2.1-.6 3.2 1.2 2.9 3.2zm41.3 2.6c-.1-3.4-3.2-6.1-7-6-6 .1-9 6.9-4.5 10.7 4.4 3.7 11.6.8 11.5-4.7zM48.4 77c.1 4.1 5.9 4 5.9-.1-.1-4.1-6-4-5.9.1zm41.5 3c-3.9.3-4.4-5.8-.5-6.2 3.8-.2 4.4 5.9.5 6.2z"/>
	<path d="M80.7 52.5c-3-10.1-1.4-19.3-2.8-26.5C75.1 12.8 63.8 2.7 50.3 2c-14.2-.7-27.1 9.2-29.9 23.2-1.1 5.3-.2 25.7-2.3 26-7.7 1.7-12.4 6.2-13.8 13.5-.6 2.8-.4 6.2-.4 9.1l2.1.4c0-3.2-.2-6.9.5-9.8 3.9-16.1 30-15.5 32.1 2.4.2 2.1.4 4.6.3 7.4h.1l2-.4c.3-7.9-.9-13.8-6-18.6-7.8-6.1-14.5-3.6-14.3-4.5 2-9.2.8-18.8 1.6-24C24 15.4 33.2 6.2 44.5 4.4 59.6 2.1 73.3 12.5 76 27.3c.2 1.3.4 3.8.6 7.4.7 17.9 2.3 17.2 1.5 17-11-3.8-23.3 0-29.6 10-3.9 6.9-4.1 11.8-4 20.6l2.1.3c-.1-3.8 0-6.9.1-9.2.8-11 9.3-19.8 20.3-20.9 13.3-1.4 24.2 8.2 25.7 21.2.3 2.5.4 5.5.4 9l2.1-.4c-.3-7 .1-12.2-3.9-19.4-5.8-9.3-10.2-8.9-10.6-10.4zM31 21.1c1.5-2.3 4.3-2.7 6.2-.7.2.2.2.1.9-.7.1-.1.1-.2 0-.3-4-4.3-8.9.7-8.3 1.1 1 .6 1.1.7 1.2.6zm36.2-.1c-1.6-2.3-4.5-2.4-6.3-.2 0 .1-.1.1-.1 0-1-.8-1-.8-.9-1 3.7-4.6 8.9 0 8.4.4-1 .9-1 .9-1.1.8zm-33.4 3.7c3.7 2.1-.1 6.9-2.7 3.5-.1 1.6.5 2.7 1.8 3.4 5.6 2.8 7.5-7.6.9-6.9zm31.4-.1c-4 1.9.6 7.3 2.8 3.2.1 1-.1 1.9-.7 2.7-3 4.2-8.6-.8-5.5-4.6.9-1 2-1.4 3.4-1.3zM49.2 39c.7-.5 3.2 2.5 5.3-.6.1-.1.1-.3.1-.4-.3-1.9-.2-2-.5-1.9-.9.2-1 .2-1 .4 0 .7.5 1.7-.5 1.9-.8.2-2.2-.3-2.2-.9-.1-2-.4-1 2.1-2.9 1.3-1 .7-2.4.1-3.6l-.3-.3c-3-1-3.4-.6-5.4 0-.1 0-.3.1-.3.2-2.5 3.7 2.2 4.6 2.2 5.3 0 1.3 0 1.5-.2 1.7-1 .8-2.8.8-2.7-.4.2-1.3.5-1.1-.9-1.4-.3-.1-.3.1-.5 1.8-.2.1 1.9 3 4.7 1.1zM14.9 60.1c-.9-1.2-2.5-1-3.3.2-.1.2-.3.2-.5.1-.7-.6-.9-.6-.7-.9 1.7-2 3.5-2.1 5.4-.4.3.3.1.4-.6 1.1 0 .1-.1.1-.3-.1zm14.3.2c.8-1.3 2.5-1.2 3.3 0 .3.4.7-.1 1.1-.5.1-.1.2-.3 0-.5-1.8-1.8-3.6-1.9-5.5-.1-.1.1-.1.3 0 .4.7.7.9 1 1.1.7zm31.1 2.9c-1.7-1.7-3.9-1.5-5.1.6 0 .1-.1.1-.2 0-.8-.6-1-.7-1-.8 2.6-4.5 7.6-1.1 7.2-.6-.4.5-.7 1-.9.8zm19.5.3c1.4-1.8 3.8-1.8 5 .1.1.2.2.1 1-.6.1-.1.1-.2 0-.3-2.9-4.1-7.7-.5-7.2 0l.9.8c.2.1.3.1.3 0zm-69.2 2.9c1.8 1.7 3.8-.4 2.4-2.5 1.7.3 2.4 1.2 2.1 2.7-.6 2.9-4.1 2.5-4.5-.2zm23.7-.1c-1.8 2-4.1-.6-2.3-2.3-1.5.3-2.2 1-2.2 2.3-.1 3.1 4.1 3.2 4.5 0zm21 3.4c2.5 2.2 4.8-1 2.4-3 4.7.1 3.4 7-.6 5.6-1-.4-1.6-1.2-1.8-2.6zm30.2-.2c-2.4 2.5-4.9-1-2.5-2.8-3.6.1-4 5.2-.4 5.7 1.6.2 2.6-.7 2.9-2.9zm-66.2 3.3c0-.8.3-1.8 1.1-2.1 2-.7 5.2-.4 4.6 2.6 0 .1-.1.2-.2.3-2.6 1.9-2.5 1.9-2.7 1.8-.9-.4-2.8-1.5-2.8-2.6zm53.8 5.8c-1 .5-2-.1-1.8-.4.1-.2 2.9-1.6 2.8-2.9-.2-3.3-3.9-3.3-6.2-2.5-1.4.6-1.9 3-.6 3.9.6.5 1.2.9 1.5 1.1 1.3.9-.5 1.2-1.2.8-.5-.2-1 .1-1 .6.2 5.1 7.6 4.7 7.3-.1 0-.4-.4-.7-.8-.5z"/>
	<path fill="#60605b" d="m62.9 51 1.3-.3c-1.3-3.8-3.6-6.7-6.8-8.8-.6-.3.6-.8 1-.6 5.9 2 8 6.4 8.4 6.1.9-.8 1-.8.9-.9-2.3-3-5.2-5.2-8.7-6.5-.6-.2.2-.9.7-.9 6.8 1 8.6 4.2 9.1 3.5.5-.8.7-.9.4-1.1-5.8-4.2-9.7-3.2-9.5-4.1 2.2-9.8-10.5-14.7-17.4-8.8-5.2 4.4-2.4 9.3-3.1 9.4-5.3 1.1-9.5 4.4-9.3 4.6.8.9.8 1 .9.9 2.5-2.1 5.6-3.6 8.8-4.2.4-.1 1 .7.6.9-3.5 1.5-6.3 3.9-8.4 7.1-.1.1 0 .1 1 .8.4.3 2.3-4.4 8.1-6.6.3-.1 1.3.3.8.6-3.4 2.2-5.3 5.4-6.6 9.2 0 .1 0 .2.1.3.9.3 1.1.4 1.2.1 1.9-6.1 6.2-9 6.8-8.7 7.5 4.3 12.1-.6 12.8-.1 3.8 2 5.1 4.6 6.9 8.1zm-5-15.7c.1 4.4-4.2 7.3-8.2 7.4-4.1.1-8.4-2.7-8.5-7.1-.1-4.4 4.2-7.3 8.2-7.4 4.1-.1 8.4 2.7 8.5 7.1zm-6.7-3.5c-2-.6-1.3-.6-3.3 0-.8.2-.9 1.3-.3 1.7 2.3 1.7 1.8 1.6 4 0 .5-.5.3-1.5-.4-1.7zM28.6 75.6l-2.3.1c2.7-8.3-8-8.9-8.6-3.2-.1.9.1 1.9.5 3.2H16c-.1-.6-.2-1.3-.3-1.9-1.2-9.8 15.8-9.6 12.9 1.8zm52.3 9.6c.8-.3 1.1-.6.8-.9-.6-1.3-1.5-2.6-2.8-4-.2-.3.1-.8.4-.6 4 2.3 3 3.9 4.5 2.7.2-.2.2-.4.1-.6-2.7-3.3-6.2-4-4-3.9 1.1 0 2.5.7 4.2 1.9.2.1.4.1.5-.1.4-.6.6-.8.3-1-3.5-2.5-5.7-2-5.8-2.6-1.1-4.6-5.5-7.4-10.1-6.7-7.2 1.2-7 7-7.8 7.2-2 .5-3.8 1.4-5.3 2.7-.1.1-.1.2 0 .3.6.7.7.9.9.7 1.3-1.1 2.8-1.9 4.4-2.3.4-.1.3.4.1.6-1.7 1-3 2.2-4.1 3.7-.1.2-.1.3.1.5 1.8 1.3.3-.2 4.3-2.8.4-.2.4.5.2.7-1.9 2.1-2.2 3.8-2.5 4.5-.1.1 0 .2.1.3 1 .3 1.1.4 1.2.1.2-.4 1.7-4.2 2.2-3.5 4 5.4 11.6 5 15.3-.3.4-.6 2 2.5 2.3 3.2.1.1.3.2.5.2zm-3.7-7.8c.1 5.4-7.1 8.5-11.5 4.7s-1.4-10.5 4.6-10.7c3.4-.1 6.8 2.4 6.9 6zm-54.8-5.6.9.2c.5.1.6.7.2 1-1.5 1.1-1.1 1.1-2.6 0-.4-.3-.3-.9.2-1 1.1-.3 1.1-.3 1.3-.2zm49.9 4c.7-.5.4-1.6-.4-1.8-1.9-.4-1.2-.4-3.1 0-.8.2-1.1 1.3-.4 1.8 2.2 1.6 1.7 1.6 3.9 0zm-1.7 3.9c-.2-.1-.4-.1-.6.1-.9.5-2.1.4-1.3 1.1 1.3 1.1 2.4 1 3.6-.2.2-.4-.1-.4-1.7-1z"/>
</svg>