<svg xmlns="http://www.w3.org/2000/svg" viewBox="0 0 100 100">
	<path fill="#FF6C37" d="M56.368.407a50 50 0 1 0-12.737 99.186A50 50 0 0 0 56.368.407Z"/>
	<path fill="#fff" d="M36.148 53.158a.19.19 0 0 0 .22.1l8-1.725-3.365-3.41-4.795 4.795a.186.186 0 0 0-.06.24Zm37.461-34.346a7.455 7.455 0 1 0 3.14 14.22l-5.07-5.07a.628.628 0 0 1 0-.885l6.625-6.62a7.454 7.454 0 0 0-4.695-1.645Z"/>
	<path fill="#fff" d="m79.213 21.314-6.21 6.184 4.87 4.87a7.127 7.127 0 0 0 1-.85 7.5 7.5 0 0 0 .34-10.204ZM66.788 32.73h-.11a1.937 1.937 0 0 0-.385.036h-.045c-.14.03-.276.07-.41.12l-.105.05c-.1.041-.197.091-.29.15l-.11.07c-.12.083-.235.177-.34.28l-18.415 18.42 2.28 2.28 19.5-17.115c.11-.097.21-.205.3-.32l.085-.11c.067-.098.127-.2.18-.305.03-.06.055-.12.08-.18.034-.08.062-.162.085-.245 0-.06.035-.12.05-.18.025-.124.042-.25.05-.375v-.436c0-.09 0-.12-.025-.18a2.432 2.432 0 0 0-1.905-1.915h-.095a2.596 2.596 0 0 0-.375-.045ZM41.863 47.241l3.78 3.76 18.465-18.465a3.695 3.695 0 0 1 2.22-1.035c-3.265-2.5-6.825-1.845-24.465 15.74Zm27.535-9.5-.225.22-19.5 17.11 3.315 3.31c8.22-7.775 15.515-15.18 16.41-20.64ZM20.759 77.823a.18.18 0 0 0 .16.13l8.5.585-4.765-4.765-3.855 3.85a.191.191 0 0 0-.04.2Zm4.784-4.932 5.025 5.025a.38.38 0 0 0 .475.065.375.375 0 0 0 .195-.435l-.845-3.61a1.08 1.08 0 0 1 .555-1.205c8.81-4.415 15.915-8.96 21.13-13.5l-3.5-3.5-7.5 1.615-15.535 15.545ZM47.504 54.67l-1.88-1.88-2.6 2.594a.125.125 0 0 0 0 .16.12.12 0 0 0 .145.065l4.335-.94Z"/>
	<path fill="#FF6C37" d="M79.388 25.346a.579.579 0 1 0-1.035.5 1.74 1.74 0 0 1-.215 1.88.58.58 0 0 0 .89.74 2.892 2.892 0 0 0 .36-3.12Z"/>
</svg>