<svg xmlns="http://www.w3.org/2000/svg" viewBox="0 0 100 100">
	<g fill="#dd3735">
		<path d="M100 47.3c-.5-16.4-3-20.1-9.3-29.3-1-1.5-2.4-2.7-3.4-4.2C83.6 8.3 64.7-2.6 42.7.7c-16.3 2-24.2 5.9-34.4 19.8-1.7 2.3-5.7 9.2-6.4 12.2C.2 38.6-.4 40 .2 46.2c0 .3-.2.7.2 1v.2c-.1.2 0 .4.2.5v.1H.5c-.1.3.2.5.1.9 0 .1.1.2.2.3 0 1.7.7 2 .4 2.4-.5.4.3.4.3.7 0 .2-.1.4-.1.6 0 .1.1.1 0 .2 0 .1-.1.2-.1.3.5 1 .2 1.4.5 2.2H2l-.2.6c.2-.1.3-.1.5-.2.2 1 .3 1.3.5 1.4 0 .1 0 .2-.1.2.1.6.2 1.2.4 1.8h.1c0-.1-.3-1.8-.3-2.1H3c0 .1.1.3.1.4.3 0 .7.2.9.2 0-.1.1-.2.1-.3-.2-.2-.4-.5-.6-.7.1.3 0 .4 0 .5-.1-.1-.3-.1-.5-.2.1-.2.3-.4.5-.5 0-.3-.2-.6-.6-.5.2-.1.4-.2.6-.2 0 .1.1.2.1.3.3-.5-.1-.8-.1-1.3 0-.6-.3-1.1-.4-1.8-.3-1.5 0-3.1-.4-3.5l-.2.5.3 2.4h-.1c-.1-.7-.3-1.5-.4-2.3 0 .2-.1.3-.1.5-.1 0-.1-.1-.3-.1.1.3.3.5.4.7-.2-.1-.5-.1-.5-.1v.9c-.3-.3-.4-.6-.6-.8-.1-.3-.1-.5-.2-.8h.1c-.1-.3-.1 0-.2-1.1l.2-.1-.1-.6c.3 0 .4.1.6.1v-.1c-.3-.3-.1-.6 0-.8.2-.5 1.2 0 1.4-4.6.8-9.4 8.2-23.3 18.5-31.2 10.3-7.9 18.9-7.7 24.2-8.3-1.5 1.9-1.6 2.8-12 16.3-8.9 12.2-4.7 7-12.3 17.6 0 0-.4.2-.4.3-.1.2-.1.5-.2.7-1 1.9-1 1.6-1.5 2.3-.1 0-.1-.1-.2-.1.1-.3.7-.5.4-1-.7 1.1-.3.3-.9 1.6.1.1.4.2.1.4-.1.2-.2.4-.3.5h.1c.1-.1.2-.2.3-.4h.1c-.3 1.1-1 1.5-1.2 1.6 0 0 .3.1.3.2l.2-.2c.1.1.2-.1.2 0 .1-.1.2-.2.2-.3.3-.7.6-.6 1-1 5.4-5.5 3.7-4.6 8.9-10.6.1 0 .1 0 .2.1-.4 3.7-.5 7.4-.5 7.5 0 .1-.1.2-.1.4 0 .3.1.7.1 1-.4 4.5-.5 3.5-.2 4.5 0 0-.1-.1-.2-.1 0 2 .4 3.9.1 5.8.1 0 .2-.1.2-.1.3-2 .1-5.8.4-6.4 0 2.6 0 4.7-.2 6.3 0 .2.1.5-.3.4 0 0-.1.2-.1.3-.2.3.2.8-.1 1.1-.1.1.2.7.1.7-.1.2-.1.2.1.3 0 .7.1 1.4.1 2.1h.1c.4-1.3.2-2.6.4-3.9.1 1.1 0 4.1-.1 4.8-.5 2.3-.4 1.2-.4 3.9 0 0 .1.1.1.3 0 .3-.1.6 0 .9.1.1-.3.4.1 1.2v-.3c.6.1.3.6.5.8-.1.1-.2.1-.2.1.2.9 0-.9 0 4.8h.1c-.1.1-.1.2-.2.3-.2 0-.1.4-.1-4.3H28c-.1 2 .1 3.8-.3 5.7-2.5.2-18.9 0-21.3.7-1.1 0-.8.2-1.5.3-.7.1-.6.4-.6 1.1 0-.1-.1-.1-.1-.2h-.1c0 .1.1.2.1.3.5-.2.1-.2.9-.2-.1 0-.1.2-.2.4.3-.1.4-.2.6-.2v.3c.5 0 .9-.2 1.3-.1 10.8 2.8 74.3-1.9 83.4-1.4-.3.2-.4.4-.6.5.1 0 .3.1.4.2v.1h-.5c-.1.2-.1.2-.2.6h.6c-.2 0-.4.3-.7.5 0 0 .1 0 .1.1-.4-.1-.6-.1-.7.3h.3c0 .1-.1.2-.1.3 0 .1-.1.2-.1.2l-.1-.1v-.2c-.2.2-.5.3-.3.8-.1.1-.3.1-.5.2 0 .1.1.1.1.2-.3 0-.6.1-.5.5.1 0 .3.1.4.1-.2.1-.3.2-.5.2 0 .1-.1.2-.1.3-.5.1-.2.3-.1.4-.1.1-.2.1-.3.2.1 0 .2.1.2.1-.1.1-.2.1-.2.1.1 0 .2.1.2.1-.2.1-.3.3-.5.4v.2c-.5.5-3 5.3-13.5 11.4-3.3 1.9-2.6 2-6.8 3.3-3.4 1.5-2.6 1.6-14.5 3h-1.9c-.4 0-.9.1-1.3 0-1.3-.2-2.5-.5-2.7-.4-.3.1-.5-.1-.8 0-.2 0-.3-.1-.5-.1H44c-.4-.1-.7-.2-1.1-.2s-.8-.2-1.2-.3c-1.7-.4-2-.4-2.5-.7-.1 0-.2.1-.3.1-3-.5-1.9-.7-3.5-.7-.1-.1-.2-.4-.3-.4-.9 0-3.5-2.2-4.7-2.3-.3 0-.5-.2-.8-.3l.3.3-.1.1c-.9-.5-1.8-1.1-2.7-1.6-.1 0-1.6-1.1-1.6-1-.2.2-.4 0-.5 0-.3-.2-3.4-2-3.9-2.6-1.3-1.6-3.6-1.9-3.6-2.9 0-.2-.1-.5-.4-.3-.1-.2-.3-.4-.4-.5-.7-.3-1.4-1.4-1.9-1.5-1.3-.5-3.4-4.1-4.5-5.1.2.3.3.6.5 1l-.1.1c-.2-.2-.4-.5-.6-.7l-.1.1c3 4.8 2.9 4.7 3 4.8l-.1.1c-1.2-.3-.8-1.6-2.2-1.5-.1-.2-.1-.5-.2-.7H10c.5.7.9 1.4 1.3 2.1-.2-.1-.3-.2-.3-.2.6.6 1 1.5 1.8 1.9.2.8 1 1.1 1.2 1.9-.2 0-.3-.1-.5-.1-.3-.3-.6-.7-.9-1 .2.6 1.2 1.8 1.6 2.1.2.2.4.2.4.5.1-.1.1-.1.3-.2-.1.1-.1.2-.1.3h.3c.1.2 0 .5.4.4 0 0 .1 0 .1.1.2.4.4.4.8.3.4-.2.3.8 1 .2v.5h.1v-.3c1.1.9 1.5 2.9 11.9 8.5 3.5 1.8 6.7 2.3 8.7 2.8.3.1 2.6 1 6.1 1.4.3 0 .7-.1.7 0 .2.3.3.1.5.1.7-.2 2.4.2 3.6.1.2 0 .5-.2.7.2.4-.2.2-.1.6-.2v.1c-.1 0-.1 0-.3.1.2 0 .3.1.4.1-.1.1-.3.2-.5.3 1.2.2 2.4.3 3.4 0v-.2h.1c0 .1 0 .1.1.2 1.5.1 3.1-.1 4.5-.6.1.2.2.4.4.1.1-.1 1-.4 1.3-.3.3.1.4-.2.6-.2 1.2 0 1.5-.2 1.8-.3v-.1c-.2 0-.5-.1-.7-.1.4-.2.8-.4 1.1-.5v.1c-.1 0-.2.2-.3.2h.5c-.1 0-.2.3-.4.5 1.2-.3 2.3-.6 3.4-.8v-.1c-.1 0-.2 0-.3.1 0-.7.7-.5 1-.9-.3.1-.7.2-1 .3v-.1c1.1-.5 2.3-1 3.5-1.5v.1c-.2.1-.4.2-.7.4.2 0 .3 0 .4.1v.2c.6 0 .4-.5.6-.8.4.1.2.1 1.2-.2 1.4-.4 1.2-.4 2.6-1.1.2-.1.4.1.6-.1.1-.1.3-.3.4-.3.5.1.8-.1.9-.5h.1c.4-.3.5-.4 2.7-1.6h.2c.3 0 .2.1 1.6-.7-.1 0 0-.1-.3-.1v-.1c.3-.1.4-.1.6-.2l-.1-.1c.9-.9 2-1.5 2.8-2.3.2 0 .2.1.3.1v-.3c1.4-1.7 5-3.2 10.4-12.9 1.4-2.6 1.7-3.5 2.1-3.5 3.1-.4 2.5-.1 3.3-.5-.3-.5-2.2-3.2-2-3.7 2.4-5.5 3.5-14.3 3.4-20.2zM14.4 84.1l.1-.1c.4.4.7.8 1.1 1.2-.8-.3-.2.1-1.2-1.1zm1.2 1.2c.1 0 .2 0 .3-.1l.3.6c-.5 0-.7-.2-.6-.5zm35.1 13.9v-.1l1.9-.2v.1c-.6.1-1.2.2-1.9.2zm7.1-.6c-.2 0-.4.2-.4-.1-.1 0-.1 0-.2.1.2.5.6.1.9.3-.7.1-1.5.2-2.2.3v-.1c.2 0 .4-.1.6-.1v-.1c-2-.2 0 .2-3.6.2V99c2.3-.3 4.5-.6 6.8-.9 0 .1 0 .1.1.2-.3-.1 0 0-2 .3zm2-.6c.8-.1 1.5-.2 2.2-.3-1.6.5-2.1.5-2.2.3zM30.4 29.9c4.5-6.2 4.1-5.8 4.6-6.2v-.1c.5-.6.4-.5.7-1.3 0-.1.1-.1.1-.1.5.2.5-.3.6-.4 1.8-2 1.4-1.9 1.3-2.3h-.1c.1-.1.2-.2.3-.2.2 0 .6-1 2-2.5-.1.2-.1.3-.2.5h.1c.4-.5.8-1 1.2-1.6l-.1-.1-.5.5-.1-.1c.3-.4.7-.9 1-1.4.1.1.1.2.3.5.1-.3.3-.6.4-.8l-.3.3-.1-.1c.4-.5 5.3-7.7 6.4-8.7.2-.2.3-.1.4 0 4.2 5.3 6.8 8.5 16.2 22.8-15.9 0-9.8.7-21.3.7-.5 0-5.5.6-12.9.6zm38.7 15.8H69c-.4-1.4-.9-3.1-1.8-4.3-1.5-2.2-1.5-2.5-2.6-3.5-3.3-3.6-5.5-3.6-7.7-4.9 12.1 0 10-1.2 11.9 1.7.2.3.3 10.9.3 11zM32.8 34.1c8.8-.4 9-.5 9.8-.4-3.6 1.8-7.7 6.4-10.1 10 .2-3.2.4-6.4.3-9.6zm10.3 32.5c-4.9-2.2-2.8-1.2-6.3-4.2.1.4.3.7.7 1-.2.2-.4.1-.7-.4-.1.1-.2.1-.3.1.1-.2.2-.5.3-.7-.6-1.1-2-3.6-2.7-4.4v.3H34l-.7-1.7h-.1l.6 2.2h-.1c-.1-.1-.2-.3-.3-.4-.1-.5-.7-.1-.6.2.7 1.7 1.1 2.5 1.1 2.5.6 1.2.6.8 2.2 3.2 0 .1.1.1.2.1.2.5.7.9 1.1.7.1.8.9 1 1.3 1.8-.3-.1-.7-.3-1-.4 0 0 0 .1-.1.1 2.6 1.3 2.2 1.7 3.6 2 0-.1-.1-.1-.1-.1.9.4 1.9.9 2.7 1.3-3.5.1-7.3.1-11.1.2 0-4.3-1-17.3-.4-18.8h.1c0 .1 0 .2.1.2.1.1.3.3.3.2.2-.1.5-.3.6-.5.5-1.3-.2-.6.7-2.3-.1-.1-.3-.2-.4-.3.1-.4.1-.8.6-1 .1-.1.1-.7.2-1.1l.2.2c0-.1.1-.1.1-.1v-.4c.4-.1.2-.5.4-.7V45c.4-.1.2-.2 1-1.2.3.5-.2.7-.2 1 .6-.3.7-1.1.4-1.4.1-.1 1.3-1.3 1.5-1.6.6-.7.3-.9 1.2-1.4 1.5-.8 1.3-1.2 1.8-1.5.2-.1.5 0 .2-.5.1-.1.3-.2.5-.3-.1.2-.1.3-.2.5l.2.2c.3-.2.8-.5 1.1-.7l-.2-.2c-.2.1-.5.3-.8.4.5-.8 3.7-2 5.1-2.6.3-.1.7 0 1-.1.9-.3 1.8-.6 2.4-.6 3 .1 4.2-.2 7.5 2 3.6 2.3 4.2 2.7 5.2 4.2 1.9 2.7 1.7 2.1 2.4 5.5.4 1.5.4.1-.2 3.8-.4 1.8.5 1.2-1.4 4.9 0 0 .2.1.3.1l.3-.6h.1c-2.2 6-1.9 4.6-2.9 6.2-.7.9-1 2.2-4.8 4.3-3.1 2.3-11.3 2.3-13.6 1.2zm-6.3-1.8c-.1 0-.2 0-.3-.1-.9-1.3-.9-1.3-.9-1.6.4.6.8 1.1 1.2 1.7zm21 4.6c2.5-1.1 4.1-2.8 4.5-3.1 3.8-2.3 5.4-7.4 6.3-8.8-.1 3.8.4 7.6.9 11.4-3.9.2-7.8.3-11.7.5zm34.2-1c0 .1-.1.1-.1.2 0-.1 0-.2-.1-.3-.2.6-5 0-13.5.5-1.4.1-2.8.1-4.2.1-.1 0-.2-.2-.4-.3-.1.1-.1.2-.2.3 0-.1-.1-.1-.2-.2 0 .1-.1.2-.1.3h-.1c-.4-2.7-.1-1.7-.1-5.8.1.1.2.2.4.3.1-.1.1-.2.2-.3 0 0-.1 0-.1-.1.1 0 .1-.1.1-.1.1-.4.1-.1 0-.9h.1l.2 1h.1c-.1-.2.3-.4-.1-.7v-.3c-.1-.2-.2-.4-.3-.7 0 0 .1-.1.2-.1-.1-.1-.2-.1-.3-.2.3-.3.3-.5 0-.8.1 0 .1 0 .1-.1 0-.3 0-.6-.1-.9-.1-.3.1-.7-.4-.9 0 .1.1.2.1.3 0 0-.1 0-.2.1-.4-.4-.2-.9-.3-1.6.2.1.4.1.6.2-.1-.2-.2-.5-.3-.8h-.1v-2.2s.2 0 .4.1v-.1c-.1-.1-.2-.3-.4-.4l.1-.1c-.2-.3-.1.1-.1-3.3.3.3-.2.8.3 1V51c0-.5 0-1-.1-1.5H73c0 .1 0 .1-.1.2h-.1c.1-2.7.1-5.3.2-8.1 3.1 4.1 15.2 23.2 18.3 25.8h-.1c.1.1.2.2.2.3.8.2.8.4.6.7zm1.8-8.5v-.2.2zM94.9 45s-.2-.2-.3-.2c0 .1 0 .2-.1.3 0-.1-.3-.1-.3-.2 0 .5.2.9.2 1.4.1-.1.5-.1.6-.2l.1.1c-1.2.9.3 1.7-.1 2.3-.1.1 0 .3.1.4h.1v.1l-.3.1c-.1-.1-.5-.3-.5-.5v1.7c.3.1.3.6.5.8.1-.1.1-.2.1-.3-.1.5-.2.9-.3 1.5l.1.1c-.6 1.3 0 6.2-1 6.6.1-.4 0-.7 0-1l-.5-.2c0 .5.3 1.1.4 1.7-.1 0-.5-.3-.5-.3-.1.4-.1.9-.1 1.4 0 .3-.3.6-.4 1 0 .2.2.3.2.7h.3c0-.7.3-1.3.3-2h.1c0 .1.1.1.1.2-.1.4-.2.8-.2 1.1 0 .2.2.4.1.6-.1.2-.1.5-.1.7 0-.2-.1-.2-.1-.3H93c0 .2.2.4.2.6 0 0-.1 0-.1.1-.1-.1-12.5-18.4-16.5-24.7-4.2-6.5-3.3-2.9-3.3-10.1l.1-.1c-3.6 0-3.6.2-4.4-.7-.8-.9-10.6-15.1-17.7-23.7 6.5 1 12.5-.3 27.7 8.1.8.4 1.3 1.1 1.9 1.8C92.1 25.5 91.7 27.8 93 31.8c1.1 3.7.9 5.9 1.2 6.5.4.4-.1.3 0 .7l.2-.2v.1c0 .3-.1.3.1.6.1-.1.1-.1.3-.2.4 1.4.6 5.6.1 6.8.1-.4-.1-.7 0-1.1z"/>
		<path d="M73.4 58.3c.1 0 .1 0 0 0 .1-.1.1-.1 0 0zm5.4 33.3c-.4.3-.7.5-1.2.6 0 0 0-.1-.1-.1.4-.2.8-.5 1.1-.7.1.1.1.2.2.2zM15.5 45.9c.4-.5.8-1 1.1-1.4l.3.1c-.4.5-.9 1.1-1.2 1.6-.1 0-.2-.3-.2-.3zM5.9 62.4c-.3-.6-.5-1.2-.8-1.8l.3-.1c.4.5.5 1.2.8 1.8l-.3.1zm8.6-16.2-.6.9-.4.1c.2-.3.7-.8.9-1.1 0 .1 0 .1.1.1zM75.2 93h.8c-.4.4-.7.3-.8 0zM14.6 47.6c0-.1.1-.2.2-.3h.2c.1-.2.1-.4.3-.6 0 0-.1 0-.1-.1-.2.1-.4.3-.6.4.1.1.1.1.1.2-.3 0-.4.1-.5.5 0 .1-.2.1-.4.3 0 .1-.1.2-.1.4-.1.1-.2.1-.2.1l-.6.6c0 .1-.1.2-.1.3.2-.2.6-.7.9-.9.1-.2.2-.4.4-.6 0 0 0 .1.1.1-.1.3-.2.6-.3.8-.1 0-.2.1-.2.1-.1.1-.2.2-.4.3-.9.6-.2.1-1.7 1.3-.2.4-.5.7-.7 1.1.4-.1.5.1.5.4.6.1.6-.7.8-.8 1-.9 1-.6 1-1.1 0 0-.2 0-.3-.1.3-.3.7-.9 1-1.3.7-.4-.1-.5.8-.9-.1 0-.1-.1-.1-.2z"/>
		<path d="M15.2 47.3c-.1.2-.3.4-.4.7l-.2-.1c-.1.8-.6 1.5-1.1 1.6.3.2.3.5 1.8-2 .1-.1-.1-.2-.1-.2zM4 62.1h.5c0-.1.2-.1.2-.2h.1v.5h-.7c0-.1-.1-.3-.1-.3zm-.3-1.6c-.2-.2-.4-.2-.1-.8.1.2.1.4.2.7 0 .1-.1.1-.1.1zm.9-2.1c.1.3.3.7.4 1 0 0-.2.1-.3.1-.1-.3-.3-.7-.4-1 0 0 .2-.1.3-.1zm75.1 32.3c.2-.1.4-.1.6-.2-.3.2-.5.4-.7.6l-.1-.1c.1-.1.1-.2.2-.3zM38.8 19c-.1.3-.3.6-.5.9 0-.2 0-.4-.1-.5l.6-.4zm9.3 17.4c.3-.1.6-.3 1-.4v.5c-.6-.2-.7.2-1.1.3 0-.1.1-.4.1-.4zM73.4 65c.1.3.7.5.1.8.1.1.2.1.3.2 0 .1 0 .1-.1.1s-.2.1-.3.1c-.1 0 0-.7 0-1.2z"/>
	</g>
</svg>