<svg xmlns="http://www.w3.org/2000/svg" viewBox="0 0 100 100">
	<path d="M94.7 56.6c-2.4-.4-4.4.7-8.3.8 6.4-10.8 17.1-36.8 9.7-46.3C87.2-.2 72.3-2.1 60 1.7 53.2.5 46.2.6 40.2 4.1 30.8 1 18.8-.5 10.6 5.2c-13.3 9.4-8.3 30.4-3.5 45.9 2.3 7.4 6.8 20.4 14.1 22.9 1.8.6 5.1 1 8.5-1.8 3.3 4 11.9 4.5 16.9 2.3.4 11.8 1 25.5 12.9 25.5 4.4 0 11-1.8 14.5-6.8 4.6-6.5 4.1-16.3 4.7-21.4 4.3.4 9.3-.6 12.2-1.9 11.4-5.2 8.8-12.5 3.8-13.3z"/>
	<path fill="#336791" d="M92.2 60.9c-11.3 2.3-12.1-1.5-12.1-1.5C92 41.7 97 19.2 92.7 13.7 81-1.2 60.7 5.8 60.4 6h-.1c-6.7-1.4-14-1.4-19.5 2.8 0 0-36.2-14.9-34.6 18.8.4 7.2 10.3 54.3 22.1 40 2.7-3.3 5.6-6.5 8.5-9.6 2.1 1.4 4.6 2.1 7.2 1.8l.2-.2c-.1.6 0 1.3.1 2-3 3.4-2.2 4-8.2 5.3-6.2 1.3-2.5 3.5-.2 4.1 2.9.7 9.5 1.7 14-4.5l-.2.7c1.2 1 2 6.2 1.9 11-.1 4.8-.2 8.1.7 10.6s1.9 8.3 9.9 6.6C68.9 94 72.4 90.2 72.8 84c.3-4.4 1.1-3.8 1.2-7.7l.6-1.9c.9-7.5 0-7.4 5.2-6.9 3 .1 7-.5 9.3-1.6 5.1-2.1 8.1-6 3.1-5z"/>
	<path fill="#fff" d="M40.6 32.9c1.7 2.3 4.6 1 4.8-.4.2-1.5-7.1-2.6-4.8.4zm33.5-2.8c-4.7.7-.6 4.5 1.9 2 .5-.5.2-2.3-1.9-2z"/>
	<path fill="#fff" d="M96 60.6c-.4-1.3-1.8-1.7-4.1-1.2-6.8 1.4-9.3.4-10.1-.2 5.3-8.1 9.7-17.9 12-27 1.3-5.2 3.3-15.3 0-19.5-5.1-6.5-12.6-10-21.6-10.1-6.2-.1-11.5 1.5-12.5 2C53.4 3.1 46.2 3.3 40.6 7 20.2-.4 3.6 4.7 4.8 27.5c.6 11.7 11.7 56.4 24.6 40.9 2.5-3 5-5.9 7.7-8.7 1.7.9 3.6 1.4 5.5 1.5v.2c-2.4 2.8-1.8 3.1-6.9 4.1-6.7 1.4-5.3 5.6-.2 6.9 4.9 1.2 9.7.6 13.4-2.8-.1 8.9.3 17.6 1.4 20.3 2.3 5.8 6.2 8.6 13 7.1 7-1.5 10.1-4.6 11.3-11.5.6-3.7 1.7-12.4 2.2-17.1 1.1.3 2.5.5 4 .5 10.1 0 16-5.8 15.2-8.3zM79.3 28.9c0 2.8-.8 5.1-.9 8.6-.2 5.2 2.1 10.6-.5 15.9-.3-.5-.5-1-.7-1.5-.9-2.3-10-16.1-6.5-21.2.8-1.2 3-2.5 8.6-1.8zm12.3-14.4c3.5 4.4-.4 24.7-11.4 42.1-.2-.3-.2-.3-.5-.6 4-6.7 1.3-13.2 1.5-18.4.1-3.6 1-6 .9-9.6.6-2.4-4.9-16.2-17.6-21.8 10.2-2.1 20.5-.1 27.1 8.3zM27.2 66.6c-2.2 2.7-3.8 2.2-4.3 2-3.3-1.1-7.2-8.1-10.6-19.2-3.7-12.5-9.1-32.3 1.5-39.8 7.4-5.2 19.5-2.1 24.4-.5-5.8 5.8-8.2 15.6-8 22.9 0 1.4.6 6.8-.2 12.9-.7 5.2 1.3 10.1 4.8 13.1-2.7 2.9-5.2 5.7-7.6 8.6zm5.5-21.2c.7-5.3.4-9.4.3-12.9 2.1-1.9 12.2-6.5 13.7.6 2.7 12.7-.5 16.3-2.4 21.4-.5 1.4-1 2.7-1.3 4-6.1-.1-11.3-6-10.3-13.1zm1.6 23.4c.3-.2.9-.4 2-.6 6.6-1.4 6-2.3 9-5.7 2-2.3 4.5 1.5 3.4 3.1-3.6 5-12.3 4.7-14.4 3.2zm28.4 25.5c-6.2 1.3-8.4-1.8-9.8-5.4-.9-2.3-1.4-12.9-1.1-24.5 0-.3-.2-1-.2-1.3-.9-3.2-3.8-4.6-5.9-4 1.9-7.6 7.2-10.9 3.8-26.6-1.6-7.6-9.8-7.2-16.3-3.4C36-4.7 71.5 3.7 79.1 26.2c-5.2-.5-8.8.5-10.6 3.1-3.9 5.6 2.1 16.5 5.1 21.7 2.1 3.8 1.5 3.7 4.2 7.1.3.3.5.7.7 1-1.6.5-4.4 1.5-4.2 6.8-.2 2.6-1.7 15-2.4 19.4-1.1 5.6-3.3 7.7-9.2 9zM77 65.5c-.2-3.6 1.2-3.6 2.9-4.2 2.9 2.4 8.9 1.5 12.6.8-.8.7-14.2 4.5-15.5 3.4z"/>
</svg>