<svg xmlns="http://www.w3.org/2000/svg" viewBox="0 0 100 100">
	<linearGradient id="a" x1="16.0592" x2="82.8291" y1="89.3232" y2="14.7893" gradientTransform="matrix(1 0 0 -1 0 101.433)" gradientUnits="userSpaceOnUse">
		<stop offset="0" stop-color="#2d4664"/>
		<stop offset="1"/>
	</linearGradient>
	<path fill="url(#a)" d="M96.3 12.6c2.4 0 3.8 1.9 3.3 4.3L84.4 83.1c-.5 2.4-2.9 4.3-5.2 4.3H3.7c-2.4 0-3.8-1.9-3.3-4.3l15.2-66.2c.5-2.4 2.9-4.3 5.2-4.3h75.5z"/>
	<path fill="#c8e1fe" d="M20.8 12.9c-2.2 0-4.4 1.8-4.9 4L.7 83.2c-.3 1.1 0 2.1.5 2.8.5.7 1.4 1.1 2.5 1.1h75.5c2.2 0 4.4-1.8 4.9-4l15.2-66.2c.3-1.1 0-2.1-.5-2.8-.5-.7-1.4-1.1-2.5-1.1H20.8zm-5.5 3.9c.6-2.5 3-4.5 5.5-4.5h75.5c1.3 0 2.3.5 3 1.4.7.9.9 2 .6 3.3m0 0L84.7 83.2c-.6 2.5-3 4.5-5.5 4.5H3.7c-1.3 0-2.3-.5-3-1.4-.7-.9-.9-2-.6-3.3l15.2-66.2"/>
	<path fill="#284b7e" d="M61.6 46.9c1.3 1.4 1.4 3.5.4 5.1-.3.6-1 1.3-2.1 2.2L25.8 78.7c-1.9 1.4-4.5.9-6-1.1-1.4-2-1.1-4.7.8-6l30.7-22.3c3.4-1.3 3.4-1.3 10.3-2.4zM46.5 74.1c0-2.1 1.7-3.8 3.9-3.8h18.3c2.1 0 3.9 1.7 3.9 3.8 0 2.1-1.7 3.8-3.9 3.8H50.4c-2.1 0-3.9-1.7-3.9-3.8z"/>
	<path fill="#fff" d="M61.2 46.2c1.3 1.4 1.4 3.5.4 5.1-.3.6-1 1.3-2.1 2.2L25.4 77.9c-1.9 1.4-4.5.9-6-1.1-1.4-2-1.1-4.7.8-6L51 48.6v-.5L31.6 27.6c-1.6-1.7-1.4-4.4.4-6 1.8-1.7 4.5-1.6 6.1 0l23.1 24.6zm-15 27.1c0-2.1 1.7-3.8 3.9-3.8h18.3c2.1 0 3.9 1.7 3.9 3.8 0 2.1-1.7 3.8-3.9 3.8H50.1c-2.2.1-3.9-1.6-3.9-3.8z"/>
</svg>