<svg xmlns="http://www.w3.org/2000/svg" viewBox="0 0 100 100">
	<path fill="#A3DBE8" d="M.004 0h100v100h-100V0Z"/>
	<path fill="#000" d="M42.813 62.013v16.05a.125.125 0 0 1-.126.125H27.876a.063.063 0 0 1-.063-.063V21.508c0-.077.038-.115.113-.115 11.893-.037 19.625-.04 23.195-.008 1.583.014 3.357.25 5.32.71 5.428 1.273 10.21 4.533 13.078 9.295 5.014 8.333 3.254 18.893-4.028 25.225-4.082 3.553-9.752 5.21-15.177 5.225-2.46.009-4.921.026-7.383.053-.078 0-.117.04-.117.12Zm13.417-29.09c.333-1.108-.37-2.605-1.73-2.608a4227.17 4227.17 0 0 0-10.682-.002.092.092 0 0 0-.054.017.083.083 0 0 0-.032.045l-1.105 3.755a.095.095 0 0 0 .09.12c3.68.004 7.366.003 11.056-.002 1.127-.003 2.122-.21 2.457-1.325Zm-12.09 6.01c3.078-.023 2.9-3.933.172-3.935-1.106-.002-2.206 0-3.3.005a.118.118 0 0 0-.112.085l-1.087 3.725a.098.098 0 0 0 .014.082.092.092 0 0 0 .073.038c1.41.01 2.823.01 4.24 0Zm-1.583.885 1.085 3.73a.1.1 0 0 0 .038.055.11.11 0 0 0 .065.022 3111 3111 0 0 0 10.13-.005c2.987-.005 2.92-3.865.25-3.867-3.857-.004-7.696-.004-11.517-.003-.047 0-.064.023-.05.068Zm9.498 4.745 1.057 3.62c.022.078.073.117.153.117 1.185.024 2.37.026 3.557.008.574-.008 1-.082 1.278-.22 1.237-.608 1.245-2.67.167-3.313-.395-.235-1.052-.349-1.972-.342-1.395.008-2.778.01-4.148.005a.097.097 0 0 0-.092.125Zm3.41 8.125c1.51-.975.895-3.558-.968-3.563a2560.09 2560.09 0 0 0-11.757.003c-.09 0-.123.043-.098.13l1.043 3.61c.025.088.083.132.175.132l10.22.003c.597-.002 1.058-.107 1.385-.315Z"/>
</svg>