<svg xmlns="http://www.w3.org/2000/svg" viewBox="0 0 100 100">
	<path fill="#bf85bf" d="M74.2 57.1H59.1c-1.1 0-2 .9-2 2v.9c0 1.1.9 2 2 2h15.1c2.7 0 2.7-4.9 0-4.9zM26.6 76.2H2c-1.1 0-2 .9-2 2v.8c0 1.1.9 2 2 2h24.7c1.1 0 2-.9 2-2v-.9c-.1-1-1-1.9-2.1-1.9zm0-38.1H2c-1.1 0-2 .9-2 2v.9c0 1.1.9 2 2 2h24.7c1.1 0 2-.9 2-2v-1c-.1-1-1-1.9-2.1-1.9zM64.7 19H44.8c-1.1 0-2 .9-2 2v.9c0 1.1.9 2 2 2h19.9c2.8-.3 2.7-4.9 0-4.9zM2 71.4h5.6c1.1 0 2-.9 2-2v-.9c0-1.1-.9-2-2-2H2c-1.1 0-2 .9-2 2v.9c0 1.2.9 2 2 2z"/>
	<path fill="#ea5e5e" d="M26.6 95.2H2c-1.1 0-2 .9-2 2v.8c0 1.1.9 2 2 2h24.7c1.1 0 2-.9 2-2v-.9c-.1-1-1-1.9-2.1-1.9zm23.8-38.1H30.5c-1.1 0-2 .9-2 2v.9c0 1.1.9 2 2 2h19.9c1.1 0 2-.9 2-2v-.9c0-1.1-.9-2-2-2zM2 14.3h15.1c1.1 0 2-.9 2-2v-.9c0-1.1-.9-2-2-2H2c-1.1 0-2 .9-2 2v.9c0 1.1.9 2 2 2zm0 38.1h5.6c2.7 0 2.7-4.9 0-4.9H2c-1.1 0-2 .9-2 2v.9c0 1.1.9 2 2 2zm81.8-23.8H59.1c-1.1 0-2 .9-2 2v.9c0 1.1.9 2 2 2h24.7c1.1 0 2-.9 2-2v-.9c-.1-1.2-1-2-2-2z"/>
	<path fill="#f7ba3e" d="M25.8 14.3h48.5c1.1 0 2-.9 2-2v-.9c0-1.1-.9-2-2-2H25.8c-1.1 0-2 .9-2 2v.9c0 1.1.9 2 2 2zm.8 71.4H21c-1.1 0-2 .9-2 2v.9c0 1.1.9 2 2 2h5.6c1.1 0 2-.9 2-2v-.9c0-1.1-.9-2-2-2zM14.3 30.5c0-1.1-.9-2-2-2H2c-1.1 0-2 .9-2 2 0 3.7.7 2.9 12.4 2.9 1.1 0 2-.9 2-2l-.1-.9zm1.9 21.9h15.1c1.1 0 2-.9 2-2v-.9c0-1.1-.9-2-2-2H16.2c-1.1 0-2 .9-2 2v.9c.1 1.1 1 2 2 2zM60 66.7H16.2c-1.1 0-2 .9-2 2v.9c0 1.1.9 2 2 2H60c1.1 0 2-.9 2-2v-.9c-.1-1.2-1-2-2-2zm23.8-28.6H59.1c-1.1 0-2 .9-2 2v.9c0 1.1.9 2 2 2h24.7c1.1 0 2-.9 2-2v-1c-.1-1-1-1.9-2-1.9z"/>
	<path fill="#56b3b4" d="M73.4 23.8H79c1.1 0 2-.9 2-2V21c0-1.1-.9-2-2-2h-5.6c-1.1 0-2 .9-2 2v.9c0 1 .9 1.9 2 1.9zM21.9 57.1H2c-1.1 0-2 .9-2 2v.9c0 1.1.9 2 2 2h19.9c1.1 0 2-.9 2-2v-.9c-.1-1.1-1-2-2-2zm-9.6 28.6H2c-1.1 0-2 .9-2 2v.9c0 1.1.9 2 2 2h10.4c1.1 0 2-.9 2-2v-.9c-.1-1.1-1-2-2.1-2zm14.3-57.1H21c-1.1 0-2 .9-2 2 0 3.6 1.5 2.9 7.6 2.9 1.1 0 2-.9 2-2v-.9c0-1.2-.9-2-2-2zm52.4 19H40c-1.1 0-2 .9-2 2v.9c0 1.1.9 2 2 2h39c1.1 0 2-.9 2-2v-.9c0-1.1-.9-2-2-2zM38.1 21c0-1.1-.9-2-2-2H2c-1.1 0-2 .9-2 2v.9c0 1.1.9 2 2 2h34.2c1.1 0 2-.9 2-2V21h-.1zM2 4.8h58c1.1 0 2-.9 2-2V2c0-1.1-.9-2-2-2H2C-.7 0-.7 4.8 2 4.8z"/>
	<path fill="#d0d4d8" opacity=".5" d="M35.3 90.5h19.9c1.1 0 2-.9 2-2v-.9c0-1.1-.9-2-2-2H35.3c-1.1 0-2 .9-2 2v.9c0 1.1.9 2 2 2zm36.1-2v-.9c0-1.1-.9-2-2-2h-5.6c-1.1 0-2 .9-2 2v.9c0 1.1.9 2 2 2h5.6c1.2 0 2-.9 2-2zM98 85.7H78.1c-1.1 0-2 .9-2 2v.9c0 1.1.9 2 2 2H98c1.1 0 2-.9 2-2v-.9c0-1.1-.9-2-2-2zM98 0H68.6c-1.1 0-2 .9-2 2v.9c0 1.1.9 2 2 2H98c1.1 0 2-.9 2-2V2c0-1.1-.9-2-2-2zM68.6 71.4H79c2.7 0 2.7-4.9 0-4.9H68.6c-1.1 0-2 .9-2 2v.9c.1 1.2.9 2 2 2zM98 66.7H87.7c-1.1 0-2 .9-2 2v.9c0 1.1.9 2 2 2 11.6 0 12.3.8 12.3-2.9 0-1.2-.9-2-2-2zm0-9.6H82.9c-1.1 0-2 .9-2 2v.9c0 1.1.9 2 2 2H98c1.1 0 2-.9 2-2v-.9c0-1.1-.9-2-2-2zm0-47.6H82.9c-2.7 0-2.7 4.9 0 4.9H98c1.1 0 2-.9 2-2v-.9c0-1.1-.9-2-2-2zm0 38.1H87.6c-1.1 0-2 .9-2 2v.9c0 1.1.9 2 2 2H98c1.1 0 2-.9 2-2v-.9c0-1.1-.9-2-2-2zM98 19H87.6c-1.1 0-2 .9-2 2v.9c0 1.1.9 2 2 2H98c1.1 0 2-.9 2-2V21c0-1.1-.9-2-2-2zm0 9.6h-5.6c-1.1 0-2 .9-2 2v.9c0 1.1.9 2 2 2H98c1.1 0 2-.9 2-2v-.9c0-1.2-.9-2-2-2zm0 9.5h-5.6c-1.1 0-2 .9-2 2v.9c0 1.1.9 2 2 2H98c1.1 0 2-.9 2-2v-1c0-1-.9-1.9-2-1.9zm0 38.1H54.3c-1.1 0-2 .9-2 2v.8c0 1.1.9 2 2 2H98c1.1 0 2-.9 2-2v-.9c0-1-.9-1.9-2-1.9zM35.3 81h10.4c1.1 0 2-.9 2-2v-.9c0-1.1-.9-2-2-2H35.3c-1.1 0-2 .9-2 2v.9c0 1.1.9 2 2 2zM98 95.2H73.4c-1.1 0-2 .9-2 2v.8c0 1.1.9 2 2 2H98c1.1 0 2-.9 2-2v-.9c0-1-.9-1.9-2-1.9zm-33.3 0H35.3c-2.7 0-2.7 4.8 0 4.8h29.4c2.7 0 2.7-4.8 0-4.8zM35.3 33.3h15.1c1.1 0 2-.9 2-2v-.9c0-1.1-.9-2-2-2H35.3c-1.1 0-2 .9-2 2v.9c0 1.2.9 2 2 2zm0 9.6h15.1c1.1 0 2-.9 2-2V40c0-1.1-.9-2-2-2H35.3c-2.7 0-2.7 4.9 0 4.9z"/>
</svg>