<svg xmlns="http://www.w3.org/2000/svg" viewBox="0 0 100 100">
	<path fill="#0468FF" d="M88.275 73.787C80.3 81.76 68.89 86.449 55.028 86.449V63.963c8.624 0 14.077-2.807 17.347-6.077 3.375-3.375 5.14-7.947 5.14-12.662 0-4.714-1.765-9.287-5.14-12.662-3.27-3.27-8.723-6.076-17.347-6.076V4C68.89 4 80.301 8.689 88.275 16.662 96.143 24.53 100 34.948 100 45.224c0 10.277-3.857 20.695-11.725 28.563Z"/>
	<path fill="#1F34AB" d="m1.062 83.45 44.972-59.962 17.988 13.491L19.05 96.942 1.062 83.45Z"/>
	<path fill="#85AEFF" d="M14.99 80.234 0 50.252l20.112-10.056 14.99 29.982-20.111 10.056Z"/>
</svg>