<svg xmlns="http://www.w3.org/2000/svg" viewBox="0 0 100 100">
	<path fill="#E7522C" d="M50.001 0C22.388 0 0 22.385 0 50c0 27.613 22.387 50 50.001 50 27.614 0 50.001-22.387 50.001-50 0-27.615-22.388-50-50-50Zm0 93.58c-7.856 0-14.226-5.248-14.226-11.72h28.453c0 6.47-6.37 11.72-14.227 11.72ZM73.5 77.978h-47v-8.522h47l-.001 8.522Zm-.17-12.908H26.635c-.155-.18-.314-.356-.464-.538-4.81-5.841-5.944-8.89-7.044-11.998-.018-.103 5.834 1.195 9.983 2.129 0 0 2.136.494 5.258 1.063-2.998-3.514-4.778-7.98-4.778-12.545 0-10.023 7.688-18.782 4.914-25.86 2.7.219 5.587 5.696 5.782 14.26 2.869-3.966 4.07-11.208 4.07-15.648 0-4.597 3.03-9.937 6.06-10.12-2.702 4.452.699 8.268 3.722 17.735 1.134 3.556.989 9.54 1.864 13.335.29-7.882 1.646-19.383 6.646-23.354-2.206 5 .327 11.258 2.059 14.266 2.794 4.853 4.489 8.53 4.489 15.483 0 4.663-1.722 9.053-4.626 12.484 3.302-.62 5.582-1.178 5.582-1.178l10.723-2.092S79.317 58.9 73.33 65.07Z"/>
</svg>