<svg xmlns="http://www.w3.org/2000/svg" viewBox="0 0 100 100">
	<path fill="#DB4336" d="m43.945 22-21.24 27.777H0a5.02 5.02 0 0 1 1.026-3.044l.008-.01L19.939 22h24.006Z"/>
	<path fill="url(#a)" fill-opacity=".15" d="M26.02 45.44 10.701 34.08 1.034 46.722l-.004.006A5.02 5.02 0 0 0 0 49.776h22.704l3.316-4.336Z"/>
	<path fill="#4185F4" d="M22.704 49.776 10.701 34.08 1.034 46.722a5.027 5.027 0 0 0-.008 6.097l.008.011 18.905 24.722h24.006l-21.24-27.776Z"/>
	<path fill="#FDC006" d="m56.055 77.552 21.24-27.776H100a5.02 5.02 0 0 1-1.026 3.044l-.008.01-18.905 24.722H56.055Z"/>
	<path fill="url(#b)" fill-opacity=".1" d="m73.98 54.112 15.319 11.36 9.667-12.642.004-.005a5.019 5.019 0 0 0 1.03-3.049H77.296l-3.316 4.336Z"/>
	<path fill="#0F9C57" d="m77.296 49.776 12.003 15.696 9.667-12.642a5.028 5.028 0 0 0 .008-6.097l-.008-.01L80.061 22H56.055l21.24 27.776Z"/>
	<linearGradient id="a" x1="10.513" x2="33.387" y1="34.066" y2="51.033" gradientUnits="userSpaceOnUse">
		<stop/>
		<stop offset="1" stop-opacity="0"/>
	</linearGradient>
	<linearGradient id="b" x1="89.487" x2="66.613" y1="65.487" y2="48.519" gradientUnits="userSpaceOnUse">
		<stop/>
		<stop offset="1" stop-opacity="0"/>
	</linearGradient>
</svg>