<svg xmlns="http://www.w3.org/2000/svg" viewBox="0 0 100 100">
	<path fill="#16b4f2" d="M0 0h100v100H0V0z"/>
	<path fill="#fff" d="M49.1 40.6zM49.1 50.1v-2.9h2.8v-3h-2.8v-3.6l-3 1.3v8.4c.1 3.2 2.7 5.7 5.9 5.7v-3c-.7 0-1.5-.3-2-.8-.6-.6-.9-1.3-.9-2.1zM39 44.2c-3.2 0-5.7 2.7-5.7 5.9s2.6 5.8 5.8 5.8c3.2 0 5.8-2.6 5.8-5.9 0-3.2-2.7-5.8-5.9-5.8zm2 7.9c-.5.5-1.2.8-2 .8-1.5 0-2.8-1.3-2.8-2.8 0-1.6 1.3-2.8 2.8-2.8 1.5 0 2.8 1.3 2.8 2.8 0 .7-.3 1.5-.8 2zM58.6 44.2c-3.2 0-5.7 2.7-5.7 5.9s2.6 5.8 5.8 5.8c3.2 0 5.8-2.6 5.8-5.9-.1-3.2-2.7-5.8-5.9-5.8zm0 8.7c-1.5 0-2.8-1.3-2.8-2.8 0-1.6 1.3-2.8 2.8-2.8 1.5 0 2.8 1.3 2.8 2.8 0 1.6-1.3 2.8-2.8 2.8zM22.8 45c-.9-.5-1.9-.8-2.9-.8-3.2 0-5.8 2.6-5.9 5.9v8.2l3 1.3v-4.4c.9.5 1.8.7 2.8.7 1 0 2-.2 2.9-.8.9-.5 1.6-1.3 2.2-2.1 1.1-1.8 1.1-4.1 0-5.9-.5-.9-1.2-1.6-2.1-2.1zm-1 7.1c-.5.5-1.2.8-2 .8-1.5 0-2.8-1.3-2.8-2.8 0-1.6 1.3-2.8 2.8-2.8 1.5 0 2.8 1.3 2.8 2.8.1.7-.2 1.5-.8 2zM26.8 49.9V56h3v-5.9c0-.8.3-1.5.8-2s1.2-.8 2-.8v-3c-3.1-.1-5.7 2.4-5.8 5.6zM80.3 44.2c-3.2 0-5.7 2.7-5.7 5.9s2.6 5.8 5.8 5.8c3.2 0 5.8-2.6 5.8-5.9-.1-3.2-2.7-5.8-5.9-5.8zm2 7.9c-.5.5-1.2.8-2 .8-1.5 0-2.8-1.3-2.8-2.8 0-1.6 1.3-2.8 2.8-2.8 1.5 0 2.8 1.3 2.8 2.8 0 .7-.3 1.5-.8 2zM70.2 44.2h3v11.7h-3zM66.9 52c-1.1 0-1.9.9-1.9 2s.9 2 2 2 1.9-.9 1.9-2-.9-2-2-2z"/>
</svg>