<svg xmlns="http://www.w3.org/2000/svg" viewBox="0 0 100 100">
	<path fill="#efcca3" d="M83.7 38.2c-.2-3.4.3-6.5-1.2-9.1C78.7 22.7 69.3 19 50.6 19S22 22.7 18.3 29.2c-1.5 2.7-1.3 5.6-1.6 9.1-.2 2.7-1.4 5.6-.9 8.7.6 4.1.9 8.1 1.5 11.9.5 3 4.7 5.6 5.1 8.5 1.1 8 9.4 11.6 28.1 11.6v.6H50h.5V79c18.7 0 26.7-3.7 27.7-11.6.4-3 4.3-5.5 4.8-8.5.6-3.7.9-7.8 1.5-11.9.6-3.1-.7-6.1-.8-8.8z"/>
	<path fill="#ccac8d" d="M50.3 41c3.4.1 5.7 2.2 7.9 4.1 2.6 2.3 6.9 3.8 8.7 5.8C69.8 54.1 73 56 73 65.8c0 1 .5.8 2.1 0 3.7-1.8 7.7-6.6 7.7-6.6-.5 3-4.4 5.8-4.8 8.7-1.3 11-16.6 11.8-27.9 11.8h.5"/>
	<path fill="#ccac8d" d="M62.6 34.9c.7 2.4 3.2 10.6-1.6 7.9 0 0 2 1.2 3.3 5.6 1.3 4.4 4.5 5 4.5 5s5.2 1 9.1-2.3c3.3-2.8 3.8-7.8 2.4-11.6-1.4-3.7-3.9-4.9-7.6-5.7-3.6-.9-11-1.6-10.1 1.1z"/>
	<path d="M71.9 50.7c3.8 0 6.9-3.1 6.9-6.9S75.7 37 71.9 37 65 40 65 43.8s3.1 6.9 6.9 6.9z"/>
	<path fill="#fff" d="M71.9 40.8c0-2.4-3.6-2.4-3.6 0 0 1 3.6 2.3 3.6 0z"/>
	<path fill="#efcca3" d="M61.4 43.5c8.5 5.8 12.9 12.5 12.8 13.3l-2.4 1.1s-3.4-6.5-7.6-8.9c-4.3-2.4-4.8-4.4-4.8-4.4l2-1.1z"/>
	<path fill="#ccac8d" d="M50.5 41c-3.4.1-5.9 2.2-8.1 4.1-2.6 2.3-7.1 3.8-8.9 5.8-1.8 2-4.2 3.9-5.1 6.9-2.5 8.9.6 9.8-3.3 8-3.7-1.7-7.7-6.6-7.7-6.6.5 3 4.5 5.8 4.8 8.7 1.1 8 8.8 11.8 27.9 11.8h.4"/>
	<path fill="#56332b" d="M68.6 54.2c-9.8-12-26.7-11.8-36.3 0-3.9 4.8-3.6 6.6-3.6 11.2 0 16.4 5.8 11.7 9.6 13.7 3.9 1.9 7.9 1.3 12.2 1.3 4.2 0 8.2.5 12.1-1.4 3.8-2 9.6 2.9 9.6-13.5.1-4.5.3-6.5-3.6-11.3z"/>
	<path fill="#442823" d="M50.1 49.4s-.5 7.6-1.6 9.1l2-.5-.4-8.6z"/>
	<path fill="#442823" d="M50.7 49.4s.5 7.6 1.6 9.1l-2-.5.4-8.6z"/>
	<path fill="#56332b" d="M50.6 42.8c6.8 0 10.6 7 0 7.3-2.8-.1-6.9-7.2 0-7.3z"/>
	<path d="M50.6 49.4c0-.3 2.7-.4 4.1-1.3 0 0-2.9.9-3.5.5-.6-.3-.8-1.2-.8-1.2s-.2.9-.7 1.2c-.5.3-3.8-.5-3.8-.5s4.4 1.1 4.4 1.3c0 .1-.2 8.2.2 8.7.4.8.3-7.8.1-8.7z"/>
	<path fill="#7f4a41" d="M50.7 59.8c1.3 0 3.7.9 5.8 2.4-2-2.3-4.4-3.8-5.8-3.8-1.4 0-4.4 1.7-6.5 4.2 2.2-1.7 5.1-2.8 6.5-2.8z"/>
	<path fill="#442823" d="M41.7 72c-.5-.2-1.1.2-1.6.1-4.9-1.6-8.9-4.2-11.3-7.6 0 17.5 5.5 12.4 9.6 14.5 3.9 1.9 8 1.3 12.1 1.3 4.3 0 8.3.5 12.2-1.4 3.8-2 9.6 2.8 9.6-13.6 0-.6 0-1.2.1-1.8-2.3 3.7-6.4 6.6-11.6 8.3-.5.2-1.6-.2-2-.2-7.6 2.6-8.4 2.7-17.1.4z"/>
	<path fill="#442823" d="M42.8 64.8s-2 5.9-.6 8.4l-1.8-.8c0 .1 1.3-5.9 2.4-7.6zm15.4 0s2 5.9.6 8.4l1.8-.8c.1.1-1.4-5.9-2.4-7.6z"/>
	<path fill="#ccac8d" d="M37.8 34.9c-.7 2.4-3.2 10.6 1.6 7.9 0 0-2 1.2-3.3 5.6s-4.5 5-4.5 5-5.2 1-9.1-2.3c-3.3-2.8-3.8-7.8-2.4-11.6s3.9-4.9 7.6-5.7c3.6-.9 10.9-1.6 10.1 1.1z"/>
	<path d="M50.5 58.4c2.1 0 8.7 4.5 8.7 10.1 0-5.9-5.1-10.7-8.7-10.7-3.6 0-8.7 4.7-8.7 10.7 0-5.6 6.6-10.1 8.7-10.1z"/>
	<path fill="#331712" d="M52.5 46.3c-.4-1.5-1.6-1.2-1.2.3.2.7 1.6 1.2 1.2-.3zm-3.4.4c.5-1.5-.7-1.9-1.2-.4-.1.6.8 1.8 1.2.4z"/>
	<path d="M28.9 50.7c3.8 0 6.9-3.1 6.9-6.9S32.7 37 28.9 37 22 40 22 43.8s3.1 6.9 6.9 6.9z"/>
	<path fill="#fff" d="M32.5 40.8c0-2.4-3.6-2.4-3.6 0 0 1 3.6 2.3 3.6 0z"/>
	<path fill="#7f4a41" d="M52.5 43.9c0-.1-1.8.8-2.3.9-.5-.1-2.3-.9-2.3-.9h4.6z"/>
	<path fill="#efcca3" d="M38.9 43.5C30.4 49.3 26 56 26.1 56.8l2.4 1.1s3.4-6.5 7.6-8.9 4.8-4.4 4.8-4.4l-2-1.1z"/>
	<path fill="#ccac8d" d="M25.4 31s-2.1 5.8-6.8 8.2c0 0 7.3-.8 6.8-8.2zm49.2 0s2.1 5.8 6.8 8.2c0 0-7.3-.8-6.8-8.2zM61.3 41.8s-4.6-4.8-10.8-5h.2c-6.2.2-10.8 5-10.8 5 6.6-4.6 14.1-5.1 21.4 0zm-5.4-10.2s-2.3-3.3-5.5-3.4h.2c-2.3.1-5.4 3.4-5.4 3.4 3.4-3.3 7.2-3.2 10.7 0zm-27 24s-3.7 1.8-6.3.7h-.1C20.1 55 19 51 19 51s2.3 7 9.9 4.6zm42.8 0s3.7 1.8 6.3.7c3.1-1.3 3.6-5.3 3.6-5.3s-2.4 7-9.9 4.6z"/>
	<path fill="#ccac8d" d="M33.1 30.6c2-.4 5.4-.5 8 .4 3.4 1.2.6 5.5 1.3 5.7.7.2 1.6-3 7.9-2.7 6.3.3 7 3.1 7.9 2.7.9-.5-.9-7.8 8.6-6.1 0 0-9.9-2.7-9.4 4.5 0 0-5.7-4.4-13.7-.5.1.1 2.1-6.6-10.6-4zm34.6 0c.2 0 .2.1.3.1.1 0-.1-.1-.3-.1zM30.4 21S22 31.6 20.7 35.7c-1.2 4.1-2.2 21.1-3.3 23.5l-3.9-16.7 7.2-17.4 9.7-4.1zM70 21s8.4 10.6 9.7 14.7c1.2 4.1 2.2 21.1 3.3 23.5l3.9-16.7-7.2-17.4L70 21z"/>
	<path fill="#56332b" d="M69.6 21s9.1 7.6 11.7 16.3 1.6 19.4 3.6 20.7c2.9 1.9 6.2-9.3 7.3-10.5 1.7-1.9 7.4-6.6 7.8-7.5.4-.9-11.6-13.9-16.8-16.5-6.3-2.9-14.1-3.1-13.6-2.5z"/>
	<path fill="#442823" d="M77.4 25.7s10.7 13.7 10.5 30.7l4.3-8.7c-.1-.1-3.8-11.2-14.8-22z"/>
	<path fill="#56332b" d="M30.4 21s-9.1 7.6-11.7 16.3-1.6 19.4-3.6 20.7c-2.9 1.9-6.2-9.3-7.3-10.5C6.1 45.6.4 40.9 0 40c-.4-.9 11.6-13.9 16.8-16.5 6.3-2.9 14.1-3.1 13.6-2.5z"/>
	<path fill="#442823" d="M22.6 25.7S11.9 39.4 12.1 56.4l-4.2-8.7c0-.1 3.7-11.2 14.7-22z"/>
	<path fill="#ccac8d" d="M18.9 62.2c1.2 1.3.4-1 .4-1s-1.3-.7-1.1-6.1c.2-5.4-1.3 1.6-1.3 1.6 0 .3.9 4.4 2 5.5zm62.5 0c-1.2 1.3-.4-1-.4-1s1.3-.7 1.1-6.1c-.2-5.4 1.3 1.6 1.3 1.6 0 .3-.9 4.4-2 5.5z"/>
	<path fill="#442823" d="M43 53.5c0-.8-1.2-.8-1.2 0 0 .3 1.2.8 1.2 0zm-3.6 3.7c0-.8-1.2-.8-1.2 0 0 .4 1.2.9 1.2 0zm-1.1-3.7c0-.8-1.2-.8-1.2 0-.1.3 1.2.8 1.2 0zm19.9 0c0-.3-.3-.6-.6-.6s-.6.3-.6.6c0 .8 1.2.8 1.2 0zm3.6 3.7c0-.8-1.2-.8-1.2 0 0 .4 1.2.9 1.2 0zm1.2-3.7c0-.8-1.2-.8-1.2 0-.1.3 1.2.8 1.2 0z"/>
</svg>