<svg xmlns="http://www.w3.org/2000/svg" viewBox="0 0 100 100">
	<path fill="#fff" d="M78.2 99.1H21.7c-2.5 0-4.6-2.1-4.6-4.6V56.1h65.7v38.4c0 2.5-2 4.6-4.6 4.6z"/>
	<path fill="#dfdedf" d="M82.8 56.1H17.1v-3.7c0-2.5 2-4.5 4.5-4.5h56.7c2.5 0 4.5 2 4.5 4.5v3.7z"/>
	<path d="m82.2 48.7-5.4-16.4-1.7-20.8-2.5.2L75.4 47h-51l1-10.9.9-2.4-.7-.3 2-21.6-2.5-.2-2.2 24-5 13c-2 2-1.4.5-1.4 46.5 0 2.8 2.3 5 5 5h56.9c2.8 0 5-2.3 5-5 0-46.3.5-44.5-1.2-46.4zM79.1 47h-1l-.3-4.1 1.3 4.1zm-57-2.5-.2 2.4h-.7l.9-2.4zM82 95c0 2-1.6 3.6-3.6 3.6H21.5c-2 0-3.6-1.6-3.6-3.6V56.8h64L82 95zM18 55.3V52c0-2 1.6-3.6 3.6-3.6h56.9c2 0 3.6 1.6 3.6 3.6v3.3H18z"/>
	<path d="M20.9 52c0 1.6 2.3 1.6 2.3 0 0-1.5-2.3-1.4-2.3 0zm3.9 0c0 1.6 2.3 1.6 2.3 0 0-1.4-2.3-1.5-2.3 0zm3.7 0c0 1.5 2.3 1.7 2.3 0 0-1.4-2.3-1.5-2.3 0zm30.3 23.7h1.8v-1.2h-1.8v-1.7h-1.5v1.7H56v1.2h1.2c0 2.8-.1 3.3.6 4 .8.8 2.2.7 3.1.2l-.4-1.2c-2.1.7-1.7-.5-1.7-3zm17.5-.2v-1h-1.5v5.6h1.5c0-2.5-.3-4.2 2.3-4.2l.1-1.4c-.2-.2-1.6-.2-2.4 1zm-54.4-3.7v8.6h1.4v-3.3c1.9 0 4.4.3 4.4-2.6 0-.8-.2-1.4-.7-1.9-.8-1-1.6-.8-5.1-.8zm1.3 3.8v-2.4c1.6 0 3-.3 3 1.2s-1.3 1.2-3 1.2zm7.9 3.3c-1.5 0-1.1-2.2-1.1-4.5h-1.5c0 3.4-.2 4.5.6 5.3 1 1 2.5.9 3.4 0v.5H34v-5.6h-1.5c0 2 .4 4.3-1.4 4.3zm6-4v-.5h-1.5v8.3h1.5v-3.1c1 .8 2.7.9 3.8-.2 1.1-1.1 1-3.2 0-4.2-.5-.6-2.8-1.1-3.8-.3zm1.7 4.2c-1.3 0-2.2-1.8-1.1-2.9 1-1 2.6-.4 2.6 1.2 0 .5-.7 1.7-1.5 1.7zm5.5-4.2v-.5h-1.5v8.3h1.5v-3.1c1.7 1.4 4.6.4 4.6-2.3 0-2.7-2.8-3.8-4.6-2.4zM46 79c-.7 0-1.6-.7-1.6-1.7 0-2.1 3.1-2.4 3.1 0 0 .5-.4 1.7-1.5 1.7zm4.5-3.9c-1.1 1.1-1.1 3.2 0 4.3 1.1 1.1 3.8 1.3 4.9-.9l-1.4-.2c-.5.9-2.2 1.2-2.8-.6h4.3c0-3.5-3.1-4.2-5-2.6zm.7 1.6c.5-1.6 2.4-1.3 2.7 0h-2.7zM62 75.1c-1.1 1.1-1.1 3.2 0 4.3 1.1 1.1 3.8 1.3 4.9-.9l-1.3-.3c-.7 1-2.4 1.3-3-.5h4.3c0-1.2-.1-1.8-.9-2.6-.5-.5-2.6-1.1-4 0zm.7 1.6c.5-1.5 2.4-1.4 2.7 0h-2.7zm6 2.7c1.1 1.1 3.8 1.3 4.9-.9l-1.3-.3c-.5.9-2.2 1.2-2.8-.6h4.3c0-1.2-.1-1.8-.9-2.6-4.2-2.4-6.4 2.2-4.2 4.4zm.7-2.7c.5-1.5 2.4-1.4 2.7 0h-2.7z"/>
	<path fill="#00d8a2" d="m71.7 34.7 8-3.9v-3.9L61.1 18l18.6-9.6V4.8L72 1.1l-22 11-22.4-11L20.4 5v3.3l17.5 9.6-17.5 8.9v4l7.5 3.9 22.2-11.4 21.6 11.4z"/>
	<path d="M80.3 9.2c.4-.2.3-.2.3-4.6 0-.5.3-.2-8.3-4.6-.3-.3-.1-.2-22.1 11-.3.3-.1.2-22.3-10.9-.1-.1-.3-.1-.5 0-8.5 4.3-8.2 4-8.2 4.5 0 4.2-.1 4.4.3 4.6l17.3 8.5c-17.6 8.7-17.5 8.5-17.5 9-.1 4.4-.2 4.4.2 4.6l8.3 4.2c.3.3.2.2 22.1-10.8.3-.3.1-.2 21.8 10.8.2.2-.1.3 8.7-4 .2-.1.3-.3.3-.5 0-4.7.1-4.6-.3-4.8l-17.2-8.4 17.1-8.6zM21.2 8.1V6.2l19.5 9.7-2 .8-17.5-8.6zM26.8 33l-5.9-3v-1.7l5.9 3.4V33zm22.3-10.2L28.5 33.3v-1.8l20.6-10.2v1.5zM71 33.2 50.9 22.8v-1.6l20.1 10v2zm7.8-3-6.1 2.9v-1.7l6.1-3.1v1.9zm-1.4-3.1-5.2 2.7L50 18.4 27.5 30l-5.2-3 20.8-10.4c.8-.4.8-1.6 0-2l-20.9-10 5.4-2.8L50 13.5 72 1.9l5.6 2.9L57.2 15c-.9.5-.8 1.6 0 2l20.2 10.1zM61.1 16.8l-1.9-.9 19.6-9.8v1.8l-17.7 8.9z"/>
</svg>