<svg xmlns="http://www.w3.org/2000/svg" viewBox="0 0 100 100">
	<path fill="#3D3D3D" d="m73.597 61.907 2.89-7.305h8.34L80.87 43.52 85.819 31 100 68.65H89.543l-2.424-6.743H73.597Z"/>
	<path fill="#5A0FC8" d="M64.676 68.65 79.856 31H69.792L59.408 55.33 52.023 31h-7.735l-7.929 24.33-5.591-11.086-5.06 15.589 5.137 8.817h9.904l7.165-21.819 6.831 21.82h9.93Z"/>
	<path fill="#3D3D3D" d="M9.553 55.725h6.199c1.878 0 3.55-.209 5.016-.628l1.603-4.94 4.48-13.803a11.026 11.026 0 0 0-1.168-1.535C23.383 32.273 20.016 31 15.585 31H0v37.65h9.553V55.725Zm8.205-16.063c.899.904 1.348 2.114 1.348 3.63 0 1.528-.395 2.74-1.185 3.636-.866.995-2.462 1.492-4.785 1.492H9.553V38.305h3.609c2.166 0 3.698.452 4.596 1.357Z"/>
</svg>