<svg xmlns="http://www.w3.org/2000/svg" viewBox="0 0 100 100">
	<linearGradient id="a" x1="1464.8492" x2="9366.916" y1="-1376.0543" y2="-9199.2861" gradientUnits="userSpaceOnUse">
		<stop offset="0" stop-color="#387eb8"/>
		<stop offset="1" stop-color="#366994"/>
	</linearGradient>
	<path fill="url(#a)" d="M49.6.3c-25.4 0-23.8 11-23.8 11v11.4H50v3.4H16.2S0 24.3 0 49.9s14.2 24.7 14.2 24.7h8.5V62.7s-.5-14.2 14-14.2h24s13.5.2 13.5-13v-22c-.1 0 2-13.2-24.6-13.2zm-9 12c0 2.4-1.9 4.4-4.3 4.4s-4.4-1.9-4.4-4.3S33.8 8 36.2 8c2.5-.1 4.4 1.9 4.4 4.3z"/>
	<linearGradient id="b" x1="2412.229" x2="10889.2324" y1="-2157.7878" y2="-10171.3447" gradientUnits="userSpaceOnUse">
		<stop offset="0" stop-color="#ffe052"/>
		<stop offset="1" stop-color="#ffc331"/>
	</linearGradient>
	<path fill="url(#b)" d="M85.8 25.4h-8.5v11.9s.5 14.2-14 14.2h-24s-13.5-.2-13.5 13v21.9s-2 13.3 24.5 13.3c25.4 0 23.8-11 23.8-11V77.3H49.9v-3.4h33.8s16.2 1.8 16.2-23.8-14.1-24.7-14.1-24.7zM59.4 87.7c0-2.4 1.9-4.4 4.3-4.4s4.4 1.9 4.4 4.3-1.9 4.4-4.4 4.4c-2.4.1-4.3-1.9-4.3-4.3z"/>
</svg>