<svg xmlns="http://www.w3.org/2000/svg" viewBox="0 0 100 100">
  <radialGradient id="a" cx="-4906.0054" cy="3268.3196" r="1" gradientTransform="matrix(48.7437 75.6539 41.8826 -26.9849 102294.8906 459393.4688)" gradientUnits="userSpaceOnUse">
		<stop offset="0"/>
		<stop offset="1" stop-opacity=".897"/>
  </radialGradient>
	<path fill="url(#a)" d="M50 .3C22.4.3 0 22.7 0 50.2S22.4 100 50 100c8.7 0 17.2-2.2 24.8-6.6l2.6 6.6h20.1l-7.9-19.5c6.7-8.7 10.3-19.3 10.3-30.3C100 22.7 77.6.3 50 .3z"/>
	<linearGradient id="b" x1="49.6665" x2="49.6665" y1="100.739" y2="46.3561" gradientTransform="matrix(1 0 0 -1 0 101.433)" gradientUnits="userSpaceOnUse">
		<stop offset="0" stop-color="#fff"/>
		<stop offset="1" stop-color="#fff" stop-opacity="0"/>
	</linearGradient>
	<path fill="url(#b)" d="M49.7 56.9C68.1 56.9 83 44.2 83 28.5S68.1 0 49.7 0 16.4 12.7 16.4 28.5s14.9 28.4 33.3 28.4z"/>
	<path d="M76.3 28.7s-15.1-2.6-15.2-8.6c0-3.3-2.7-5.9-5.9-5.9-3.3 0-5.9 2.7-5.9 5.9 0 1.9-5.1 3.6-5.1 3.6l-.9 4.8 33.5 4h3.5l-4-3.8z"/>
	<path fill="#f60" d="M36.6 8.5c-.1 2-3.5.3-3.6 2.5-3.8-1.7.3 2.6-.1 3h-.3c-.3-.1-.6-.3-.8-.4-2.6 2.1-2.7 6.5-5.4 8.9-1.8 3.9-2.2 8-3.5 12.1-.6 3.9-1.2 7.7-.3 11.6.3 3.1-.6 7.4 2.2 9.6 4.2 3.5 7.8 7.9 11.3 12.1C41.7 74.6 46.6 82 51 89.6c.3-1.9 1 3.8 2.3 4.2-.4-2.9-1-7.4-1.3-10.9-1.4-9.2-6-17.6-7.7-26.7-.1-.4-.1-.8-.2-1.2v-1.1H44c-.6-4.5-.8-9.4 2.5-12.9 3.4-3.4 8.3-4.2 12.4-6.6.9-.5 1.8-1 2.8-1.3 2.8-.9 5.8-.8 8.7-.4h.1c.3 0 .6.1.8.1 2.1.2 6.4 1 7.2-.4-2.9-2.5-7.2-2.3-10.8-3.3-.7-.1-1.3-.2-2-.3l-3.5-.8-.9-.2-12.6-2.4c-.2-.2-.4-.4-.6-.5l12.2 1.5v-.1c.4.1.9.2 1.3.2l8.6 1.6c1.5.6 3.1 1 4.6 1.1 2.5.4 5.6 4 6.4 4.2-.4-3.9-4.2-5.6-7.5-6.7-3.7-1.8-9.3-1.7-10-6.8-.2-.3-.3-.7-.5-1L61.7 17h.1c-2-2.3-4.8-4-7.8-4.7-2.9-1-6.3-2-9.4-2.4-.8 3.1-2-2.5-4.6-.8-2.2.3-1.9.9-3.6-.6h.2zm16.1 9.2c.8 0 1.7.1 2.7.4 2.5.9 4.1 2.7 3.6 4-.5 1.4-2.9 1.8-5.4.9-2.5-.9-4.1-2.6-3.6-4 .3-.8 1.3-1.3 2.7-1.3z"/>
</svg>