<svg xmlns="http://www.w3.org/2000/svg" viewBox="0 0 100 100">
	<path fill="#6EB33F" d="M98.183 82.8c-3.677-3.07-7.05-6.125-10.728-9.194-1.23-.912-1.534-1.534-.608-3.068 4.59-8.268 6.746-16.852 6.125-26.35C91.437 19.995 70.907 1 46.092 1c-1.23 0-3.068 0-4.907.304C14.227 4.056-4.767 30.723 1.053 57.376c7.05 32.17 42.897 46.879 70.78 29.1 1.23-.608 1.84-.608 2.752.305L86.53 96.887c2.142 1.534 3.068 1.534 4.907-.304 2.447-2.752 4.907-5.82 7.355-8.585 1.838-2.13 1.534-3.36-.609-5.198Zm-51.786-6.43c-15.926 0-28.492-12.87-28.492-28.797 0-15.317 12.87-28.188 28.492-28.188 15.622 0 28.492 12.87 28.492 28.493.305 15.317-12.87 28.492-28.492 28.492Z"/>
	<path fill="#5F6062" d="M46.397 29.492c10.106 0 18.387 8.267 18.387 18.387 0 10.119-8.268 18.386-18.387 18.386-10.106 0-18.386-8.267-18.386-18.386 0-10.424 8.28-18.387 18.386-18.387Z"/>
</svg>