<svg xmlns="http://www.w3.org/2000/svg" viewBox="0 0 100 100">
	<linearGradient id="a" x1="-2.0281" x2="79.5724" y1="22.9109" y2="34.644" gradientTransform="matrix(1 0 0 -1 0 101.433)" gradientUnits="userSpaceOnUse">
		<stop offset=".18" stop-color="#fc801d"/>
		<stop offset=".63" stop-color="#ff318c"/>
	</linearGradient>
	<path fill="url(#a)" d="M67.2 43.5 19 53.6c-1.3.2-2.5.5-3.7.8-3.8 1.1-7.2 3.4-9.6 6.6-14.4 18.7 1 43.1 23.1 38.3l52.9-7.7c5.6-1.2 10.5-4.6 13.6-9.4 13.6-20.2-4.1-45.7-28.1-38.7z"/>
	<linearGradient id="b" x1="-13.9254" x2="102.1241" y1="102.6662" y2="16.4177" gradientTransform="matrix(1 0 0 -1 0 101.433)" gradientUnits="userSpaceOnUse">
		<stop offset="0" stop-color="#ff318c"/>
		<stop offset=".4" stop-color="#b74af7"/>
		<stop offset=".87" stop-color="#ff318c"/>
	</linearGradient>
	<path fill="url(#b)" d="M40.7 6.4C34.8.9 26-1.6 16.2 1.3 12.1 2.4 8.5 4.9 6 8.3-3.9 21.1-.6 36.5 9.3 44.4l52.6 43.9c2.9 1.9 6.1 3.2 9.5 3.7 3.4.6 6.9.5 10.2-.3 5.6-1.2 10.5-4.6 13.6-9.4 8.1-12.1 5.1-26.1-3.7-33.9l-50.8-42z"/>
	<linearGradient id="c" x1="-27.4153" x2="101.2821" y1="64.4367" y2="94.6209" gradientTransform="matrix(1 0 0 -1 0 101.433)" gradientUnits="userSpaceOnUse">
		<stop offset="0" stop-color="#ff318c"/>
		<stop offset=".2" stop-color="#d73bab"/>
		<stop offset=".51" stop-color="#9d4ad8"/>
		<stop offset=".75" stop-color="#7953f4"/>
		<stop offset=".87" stop-color="#6b57ff"/>
	</linearGradient>
	<path fill="url(#c)" d="M22.9.1c-2.3.1-4.5.5-6.7 1.1C12.1 2.4 8.5 4.9 6 8.3-9.4 28.1 7 54.1 30.5 49l63.1-23.8c1.8-.4 3.4-1.5 4.5-3.1C102 16.2 98 9 91.6 9l-66-9c-1 0-1.9.1-2.7.1z"/>
	<path d="M18.8 18.8h62.5v62.5H18.8V18.8z"/>
	<path fill="#fff" d="M26.6 69.5H50v3.9H26.6v-3.9zM46.9 50.6l-2.6-2.3c-2.1 1.3-4.5 2-6.9 2-7.2 0-12.4-5.3-12.4-12 0-6.6 5.2-12.1 12.5-12.1s12.4 5.4 12.4 12v.1c0 2.4-.7 4.7-2.1 6.7l2.4 2-3.3 3.6zM40.5 45l-3.8-3.2L40 38l3.8 3.5c.4-1 .6-2.1.6-3.2 0-1-.1-1.9-.5-2.8-.3-.9-.9-1.7-1.5-2.4-.7-.7-1.5-1.2-2.3-1.6-.9-.4-1.8-.6-2.8-.6-4.1 0-7 3.3-7 7.3v.1c0 1 .1 1.9.5 2.8.3.9.9 1.7 1.5 2.4.7.7 1.5 1.2 2.3 1.6.9.4 1.8.6 2.8.6 1.1-.1 2.1-.3 3.1-.7zM53.8 26.6h8.8c7.3 0 12.4 5 12.4 11.6v.1C75 44.9 70 50 62.6 50h-8.8V26.6zm5.1 4.7v14.1h3.7c4.2 0 7-2.8 7-7 0-.9-.1-1.9-.4-2.7-.3-.9-.9-1.7-1.5-2.3-.7-.7-1.5-1.2-2.3-1.5-.9-.3-1.8-.5-2.7-.4h-3.8z"/>
</svg>