<svg xmlns="http://www.w3.org/2000/svg" viewBox="0 0 100 100">
	<path fill="#000" d="M37.957 31.207c-4.028 0-6.793 1.329-8.293 3.986-1.5 2.657-2.25 6.9-2.25 12.728 0 5.829.729 9.993 2.186 12.5 1.457 2.508 4.243 3.758 8.357 3.758 4.114 0 6.886-1.23 8.329-3.693 1.435-2.465 2.15-6.629 2.15-12.5 0-5.872-.743-10.136-2.215-12.793-1.478-2.657-4.235-3.986-8.264-3.986Z"/>
	<path fill="#000" d="M11.429 14 0 25.429v60h88.571L100 74V14H11.429ZM54.22 76.336 47.6 79.42l-5.721-9.385c-.815.257-2.122.385-3.922.385-6.686 0-11.343-1.8-13.986-5.4-2.635-3.6-3.95-9.292-3.95-17.071 0-7.779 1.336-13.55 4.015-17.329 2.678-3.771 7.314-5.657 13.914-5.657s11.229 1.879 13.886 5.629c2.657 3.75 3.985 9.528 3.985 17.328 0 5.143-.55 9.3-1.635 12.472-1.093 3.171-2.886 5.593-5.372 7.264l5.4 8.679h.007Zm18.736-5.915c-3.643 0-6.143-.835-7.493-2.507-1.35-1.671-2.021-4.821-2.021-9.45V43.55h-4.114v-5.979h4.114V28.25h6.943v9.321h8.871v5.979h-8.871v14.143c0 2.614.193 4.35.578 5.207.386.857 1.372 1.286 2.957 1.286l5.272-.193.321 5.593c-2.871.557-5.057.835-6.557.835Z"/>
</svg>