<svg xmlns="http://www.w3.org/2000/svg" viewBox="0 0 100 100">
	<path fill="#fc2a51" d="M79.4 66.4c.1-.2-7.7-10.1-10.6-13.3-.6-.7-.5-.8 4.9-7.5 3-3.8 5.5-7 5.5-7.3 0-.3-.7-.4-3.1-.3l-3.1.1-3.8 5c-2.1 2.8-3.9 5-4.1 5-.1 0-2-2.3-4.1-5l-3.8-5-2.9-.1c-2.1-.1-3.1 0-3.1.3 0 .2 2.5 3.4 5.5 7.2 3 3.8 5.5 7 5.4 7.1-.1.2-2.7 3.3-5.7 6.9-3 3.6-5.4 6.7-5.3 6.9.1.2 1.4.3 3 .3 3.3 0 2.7.5 7.5-5.8 1.9-2.5 3.6-4.6 3.7-4.6.1 0 1.8 2.1 3.8 4.7 2 2.6 3.9 4.9 4.3 5.2.8.6 5.7.7 6 .2zM48.5 63.7l-2.1-1.9 1-1.4c3.9-5.4 3.4-13.6-1.3-18.4-3.9-4-9.5-5.6-14.7-4.2-2.5.7-4 1.5-6 3.3-3.5 3.2-4.9 6.6-4.7 11.7.2 4.3 1.1 6.4 3.8 9.1 4.4 4.4 10.9 5.8 16.4 3.5 2-.9 2-.9 3.2.3.9.9 1.2 1 3.3 1 1.7 0 2.4-.1 2.8-.5.4-.5.1-.8-1.7-2.5zm-4.2-7.8c-.5 1-1 1.8-1.2 1.8-.2 0-1.2-.8-2.2-1.7l-1.8-1.7h-2.7c-1.6 0-2.8.1-2.9.4-.1.2.9 1.4 2.5 2.9 1.5 1.4 2.7 2.8 2.7 3.1 0 .7-1 .9-3.7 1-5.2 0-9.4-4.3-9.3-9.7 0-4.6 2.4-8 6.6-9.6 2.1-.8 5.7-.4 7.8.8 2 1.1 4 3.5 4.6 5.4.7 2.2.5 5.3-.4 7.3zM82.5 79.8c-1.3-.5-1.8-.4-3.4.3-2.3 1-3.2 4.1-1.8 6.3 2 3.2 6.9 2.5 8.1-1.1.6-2.2-.6-4.7-2.9-5.5z"/>
	<path fill="#3a3938" d="M46.1.1c-11.6.8-22.2 5.6-30.8 14C7.8 21.3 2.8 30.5.7 40.8c-.9 4.5-.8 14.5.2 19.1C2.4 67 4.6 72.1 8.6 78.1 15.9 89 27.5 96.7 41 99.4c4.2.8 13.8.8 18.1 0 6.1-1.2 11.7-3.2 12.7-4.6.8-1.2.7-3-.3-4.1-1.3-1.4-2.3-1.4-5.3-.3-6 2.3-11.5 3.2-18 2.9-8.4-.3-15.5-2.6-22.5-7.3-3.2-2.2-9.5-8.4-11.6-11.6-3.5-5.2-6-11.4-7-17.6-.8-4.8-.5-12.1.7-16.8 3.7-14.9 14.6-26.6 29.1-31.3C45.5 5.8 55.8 6 64.3 9c3.6 1.3 8.8 4 11.6 6.2 3.2 2.4 8.1 7.5 10.1 10.5 5 7.5 7.4 15.3 7.4 24.1 0 7.1-1.5 13.8-4.6 20-1.4 2.8-1.5 4-.2 5.3 1.3 1.3 3.3 1.4 4.6.1 1.7-1.7 4.7-9.4 6-15.2.9-4.1.9-15.6 0-19.7C93.9 15 71.8-1.7 46.1.1z"/>
</svg>