<svg xmlns="http://www.w3.org/2000/svg" viewBox="0 0 100 100">
	<path fill="#4695eb" d="m50 26.5 15.4 8.8V17.6zM33.8 54.6V36.8l-15.4 8.9zM66.2 72.4V54.6l-15.4 8.9z"/>
	<path fill="#4695eb" d="M83.4 0H16.6C7.5 0 0 7.5 0 16.6v66.8C0 92.5 7.5 100 16.6 100h45.8L50 70l-9 18.9H16.6c-3 0-5.5-2.5-5.5-5.5V16.6c0-3 2.5-5.5 5.5-5.5h66.8c3 0 5.5 2.5 5.5 5.5v66.8c0 3-2.5 5.5-5.5 5.5H68.9l4.6 11.1h9.9c9.1 0 16.6-7.5 16.6-16.6V16.6C100 7.5 92.5 0 83.4 0z"/>
	<path fill="#ff004a" d="M34.6 35.3 50 26.5l-15.4-8.9zM33.8 72.4l15.4-8.9-15.4-8.9zM66.2 54.6l15.4-8.9-15.4-8.9zM81.6 45.7z"/>
	<path fill="#091313" d="m50 26.5-15.4 8.8L50 44.2l15.4-8.9zM33.8 54.6l15.4 8.9V45.7l-15.4-8.9zM50.8 45.7v17.8l15.4-8.9V36.8z"/>
</svg>