<svg xmlns="http://www.w3.org/2000/svg" viewBox="0 0 100 100">
	<path d="M50 57.3c4 0 7.3-3.3 7.3-7.3S54 42.7 50 42.7 42.7 46 42.7 50s3.3 7.3 7.3 7.3zM82.2 31.4c-1.6-2.7-3.5-5.2-5.7-7.5l-8.4 4.8c-2.6-2.2-5.6-3.9-8.8-5.1-2.8 2.8-5.1 6.1-6.8 9.7 9.3-.6 19 2.7 27.9 9.7l5.3-3.1c-.7-2.9-1.9-5.8-3.5-8.5zM40.7 79.9V86c3 .8 6.2 1.2 9.3 1.2 3.1 0 6.3-.4 9.3-1.2v-9.7c3.2-1.1 6.2-2.8 8.8-5.1-1-3.8-2.7-7.5-5-10.7-4.1 8.4-11.9 15.1-22.4 19.4zM28.8 27l-5.3-3c-2.2 2.2-4.1 4.7-5.7 7.4-1.6 2.7-2.8 5.6-3.6 8.7l8.4 4.8c-.6 3.3-.6 6.8 0 10.1 3.8 1 7.8 1.4 11.8 1-5.3-7.7-7.2-17.7-5.6-29z"/>
	<path fill="#00b4ff" d="M50 0C22.4 0 0 22.4 0 50s22.4 50 50 50 50-22.4 50-50S77.6 0 50 0zm0 93.6C26 93.6 6.4 74 6.4 50S26 6.4 50 6.4 93.6 26 93.6 50 74 93.6 50 93.6z"/>
	<path fill="#00b4ff" d="M40.7 14v9.7c-3.2 1.1-6.2 2.8-8.8 5 1 3.8 2.7 7.5 5 10.7 4.1-8.4 11.9-15 22.4-19.3V14c-3-.8-6.2-1.2-9.3-1.2-3.1 0-6.3.4-9.3 1.2zM77.4 55.1c.6-3.3.6-6.8 0-10.1-2.6-.7-5.2-1.1-7.8-1.1-1.3 0-2.6 0-4 .1 5.2 7.8 7.1 17.8 5.5 29.1l5.3 3.1c2.2-2.2 4.1-4.7 5.7-7.4 1.6-2.7 2.8-5.6 3.6-8.7l-8.3-5zM19.5 56.9 14.2 60c.8 3 2 5.9 3.6 8.7 1.6 2.7 3.5 5.2 5.7 7.5l8.4-4.8c2.6 2.2 5.6 3.9 8.8 5.1 2.8-2.8 5.1-6.1 6.8-9.7-9.4.5-19.1-2.9-28-9.9z"/>
</svg>