<svg xmlns="http://www.w3.org/2000/svg" viewBox="0 0 100 100">
	<path fill="#18b6f6" d="m85.7 100-18-17.8h-.3V82l-38-37.7 9.4-9.1-5.6-31.7L7 36c-4.4 4.5-5.3 11.9-2 17.3l16.4 27.2c2.5 4.2 6.4 6.8 11.9 6.6 11.6-.4 16.7-.4 16.7-.4L85.7 100z"/>
	<path fill="#ac7ef4" d="M94.5 50c2.6-5.3 3.5-10 1-14.7l-3.6-6.7-1.9-3.3-.7-1.3h-.1L79.3 6.9c-2.5-4.3-7.1-7-12.1-6.9l-8.6.2-25.8.1C27.9.3 23.4 2.9 21 7.1L5.2 38.3 33.3 3.4l36.8 40.5-6.6 6.7 3.9 31.7.1-.1v.1h-.1l.1.1 3.1 3 14.8 14.5c.6.6 1.6-.1 1.2-.9l-9.2-18.1"/>
	<path fill="#fff" d="M70.2 43.7 33.3 3.5 38.5 35l-9.4 9.1 38.2 38-3.4-31.6 6.3-6.8c0 .1 0 0 0 0z"/>
</svg>