<svg xmlns="http://www.w3.org/2000/svg" viewBox="0 0 100 100">
	<linearGradient id="a" x1="19.0353" x2="80.9649" y1="102.7382" y2="10.2682" gradientTransform="matrix(1 0 0 -1 0 101.433)" gradientUnits="userSpaceOnUse">
		<stop offset="0" stop-color="#cbced0"/>
		<stop offset="1" stop-color="#84838b"/>
	</linearGradient>
	<path fill="url(#a)" d="M50 78.4c-27.6 0-50-15-50-33.5s22.4-33.5 50-33.5 50 15 50 33.5-22.4 33.5-50 33.5zm7.7-53.9c-21 0-38 10.2-38 22.9s17 22.9 38 22.9 36.5-7 36.5-22.9c-.1-15.9-15.6-22.9-36.5-22.9z"/>
	<linearGradient id="b" x1="37.1942" x2="93.499" y1="65.1088" y2="9.9304" gradientTransform="matrix(1 0 0 -1 0 101.433)" gradientUnits="userSpaceOnUse">
		<stop offset="0" stop-color="#276dc3"/>
		<stop offset="1" stop-color="#165caa"/>
	</linearGradient>
	<path fill="url(#b)" d="M76.1 63.3s3 .9 4.8 1.8c.6.3 1.7.9 2.4 1.7.7.8 1.1 1.6 1.1 1.6l11.9 20.1H77l-9-16.9s-1.8-3.2-3-4.1c-.9-.8-1.4-1-2.3-1h-4.6v22H41V32.2h34.3s15.6.3 15.6 15.1c.2 14.9-14.8 16-14.8 16zm-7.4-18.8H58.4v9.6h10.3s4.8 0 4.8-4.9c0-5-4.8-4.7-4.8-4.7z"/>
</svg>