<svg xmlns="http://www.w3.org/2000/svg" viewBox="0 0 100 100">
	<path fill="#F60" d="M95.967 40.005h-31.99a3.98 3.98 0 0 1-4.007-4.008V4.008A3.984 3.984 0 0 0 55.962.025H43.988a3.983 3.983 0 0 0-4.008 3.983v31.989a3.984 3.984 0 0 1-4.008 4.008H23.998a3.98 3.98 0 0 1-4.008-4.008V4.008A3.98 3.98 0 0 0 15.982 0H3.983A3.983 3.983 0 0 0 0 4.008v91.984A3.982 3.982 0 0 0 4.008 100h91.959a3.986 3.986 0 0 0 3.71-2.47c.2-.488.301-1.01.298-1.538V44.088a3.984 3.984 0 0 0-4.008-4.083ZM79.885 73.973a5.987 5.987 0 0 1-5.987 6.012h-8.016a5.988 5.988 0 0 1-5.987-6.012v-7.991a5.987 5.987 0 0 1 5.987-6.012h8.016a5.988 5.988 0 0 1 5.987 6.012v7.99Z"/>
</svg>