<svg xmlns="http://www.w3.org/2000/svg" viewBox="0 0 100 100">
	<path fill="#11100E" d="M15.182 8.21C19.722 3.275 26.235.121 32.974.02c5.156-.206 10.367 1.233 14.648 4.122 5.535 3.623 9.577 9.42 11.152 15.834.337 1.225.243 2.727 1.302 3.619 2.01.482 4.11.132 6.141.504 5.181 1.242 9.94 4.135 13.457 8.134a10.84 10.84 0 0 1 2.001 3.141c2.65 5.459 3.069 11.609 4.17 17.49 1.02 7.883 2.411 15.71 3.713 23.55 1.187 7.256 2.411 14.592 2.057 21.967-1.639-.61-3.056-1.865-3.623-3.542-.815-2.66-1.071-5.442-1.409-8.19-.128-1.161-1.092-2.275-2.338-2.147-1.81-.03-2.6 2.258-2.053 3.722.926 2.18 2.607 3.905 4.174 5.633.858.913 1.186 2.16 1.87 3.188.882 1.059 2.154 1.66 3.4 2.185-.443.265-.806.769-1.386.692-1.883.089-3.765-.013-5.647.017-2.313-.026-4.652.26-6.94-.222-3.2-7.951-6.875-15.702-10.37-23.529a688.915 688.915 0 0 0-5.254-11.745c-2.01-4.323-3.735-8.775-5.869-13.038-.315-1.494-1.195-2.762-1.77-4.153-.884-2.181-1.87-4.328-2.997-6.393-5.595 10.447-10.951 21.019-16.367 31.556-4.554 9.07-9.518 17.942-13.696 27.2-4.246-.03-8.489-.128-12.735-.158 11.007-20.725 21.694-41.616 32.517-62.44.947-1.856 1.976-3.678 2.71-5.633-2.091.606-3.995 1.771-6.167 2.121-4.49.913-9.074-.043-13.277-1.673 5.3-4.865 12.859-6.692 19.905-6.342-.593-1.9-1.447-3.726-2.68-5.296 1.464-2.66 3.815-4.597 6.099-6.518-3.308-.388-6.146 1.836-8.174 4.204a28.01 28.01 0 0 0-3.969-2.253c.227-2.407 1.285-4.58 2.403-6.68-2.676.632-4.26 3.214-5.032 5.673-1.677-.252-3.375-.278-5.07-.175-.294-1.9-.307-3.824-.132-5.736-2.104 1.271-2.04 4.046-2.057 6.205-1.58.576-3.086 1.327-4.529 2.185-.853-1.31-1.48-2.74-2.112-4.165-1.046 1.84-.252 4.003.495 5.8a36.478 36.478 0 0 0-2.339 3.905c-1.118-.563-2.202-1.186-3.299-1.793.303 1.571 1.327 2.83 2.65 3.67-.367 1.644-.52 3.317-.533 4.994-1.118.103-2.24.171-3.363.278.917.986 2.24 1.216 3.517 1.323a34.948 34.948 0 0 0 1.212 3.973c-.696.679-1.396 1.349-2.062 2.057.952-.14 1.882-.371 2.796-.661 1.178 1.105 2.624 1.835 4.011 2.637-.068.325-.209.973-.277 1.298l1.392-.91c2.62.756 5.475 1.127 8.108.214 1.618-.508 2.928-1.664 4.524-2.215-.597 2.783-2.932 4.883-5.411 6.073-3.624 1.716-7.84 1.238-11.49-.132-2.496-.721-4.506-2.501-6.166-4.43-2.664-3.022-4.435-6.863-4.75-10.892-.479-7.242 2.223-14.592 7.127-19.914Zm53.173 39.575c-.26 1.353-.209 2.792.24 4.098 1.186 3.277 4.647 4.8 7.528 6.286-.214-.725-.423-1.451-.628-2.176-3.73-.38-5.838-5.707-2.919-8.297-.358-.837-.721-1.673-1.08-2.514-1.207.606-2.727 1.178-3.14 2.603Zm4.849 2.267c-.303 1.519-.005 3.384 1.685 3.922-.405-1.357-.704-2.838-1.685-3.922Z"/>
</svg>