<svg xmlns="http://www.w3.org/2000/svg" viewBox="0 0 100 100">
	<path fill="#007FFF" d="M84.286 66.026a2.78 2.78 0 0 0 1.394-2.4l.05-16.075a2.778 2.778 0 0 1 1.395-2.4l8.714-5.006A2.777 2.777 0 0 1 100 42.553V71.78a2.778 2.778 0 0 1-1.394 2.409L65.719 93.076a2.778 2.778 0 0 1-2.762.003L37.148 78.318a2.778 2.778 0 0 1-1.4-2.411V61.171c0-.017.02-.028.036-.02.014.008.034 0 .034-.02v-.016a.03.03 0 0 1 .016-.028L57.09 48.876c.02-.011.012-.042-.01-.042a.022.022 0 0 1-.023-.022l.042-14.448a2.777 2.777 0 0 0-4.167-2.417l-15.798 9.104a2.78 2.78 0 0 1-2.772 0l-15.848-9.126a2.778 2.778 0 0 0-4.164 2.406v26.112a2.778 2.778 0 0 1-4.155 2.414L1.4 57.829A2.778 2.778 0 0 1 0 55.412l.078-45.64a2.778 2.778 0 0 1 4.161-2.403l30.126 17.303a2.778 2.778 0 0 0 2.767 0L67.249 7.37a2.778 2.778 0 0 1 4.161 2.41v45.651a2.777 2.777 0 0 1-1.391 2.409l-15.773 9.083a2.777 2.777 0 0 0 .011 4.82l8.7 4.953a2.777 2.777 0 0 0 2.759-.006l18.57-10.664Zm1.825-40.951a2.778 2.778 0 0 0 4.205 2.38l8.334-5a2.778 2.778 0 0 0 1.35-2.38V9.885a2.778 2.778 0 0 0-4.206-2.377l-8.333 5a2.778 2.778 0 0 0-1.35 2.38v10.187Z"/>
</svg>