<svg xmlns="http://www.w3.org/2000/svg" viewBox="0 0 100 100">
	<g fill="#61dafb">
		<circle cx="50" cy="50" r="8.9"/>
		<path d="M95.5 41.3c-2.7-2.4-6.5-4.5-10.9-6.2-1.7-.7-3.6-1.3-5.5-1.8.5-2 .9-3.9 1.2-5.7.8-4.7.8-9 .1-12.6-.8-3.5-2.4-6.6-5.3-8.2-2.9-1.7-6.3-1.6-9.8-.5-3.4 1.1-7.1 3.3-10.9 6.4-1.4 1.2-2.9 2.5-4.4 3.9-1.5-1.4-2.9-2.7-4.4-3.9-3.7-3-7.4-5.2-10.9-6.4-3.4-1.2-6.8-1.3-9.7.4-2.9 1.7-4.6 4.7-5.3 8.2-.8 3.5-.7 7.9.1 12.6.3 1.8.7 3.7 1.2 5.7-2 .6-3.8 1.2-5.5 1.8-4.5 1.7-8.2 3.8-10.9 6.2C1.8 43.7 0 46.6 0 50c0 3.4 1.8 6.3 4.5 8.7 2.7 2.4 6.5 4.5 10.9 6.2 1.7.7 3.6 1.3 5.5 1.8-.5 2-.9 3.9-1.2 5.7-.8 4.7-.8 9-.1 12.6.8 3.5 2.4 6.6 5.3 8.2 2.9 1.7 6.3 1.6 9.8.5 3.4-1.1 7.1-3.3 10.9-6.4 1.4-1.2 2.9-2.5 4.4-3.9 1.5 1.4 2.9 2.7 4.4 3.9 3.7 3 7.4 5.2 10.9 6.4 3.4 1.1 6.9 1.2 9.8-.5 2.9-1.7 4.6-4.7 5.3-8.2.8-3.5.7-7.9-.1-12.6-.3-1.8-.7-3.7-1.2-5.7 2-.6 3.8-1.2 5.5-1.8 4.5-1.7 8.2-3.8 10.9-6.2 2.7-2.4 4.5-5.4 4.5-8.7 0-3.4-1.8-6.3-4.5-8.7zM57.1 15.9c3.5-2.8 6.7-4.7 9.5-5.6 2.8-.9 4.8-.7 6.3.1 1.5.8 2.6 2.5 3.2 5.4.6 2.8.6 6.6-.1 11-.3 1.7-.6 3.5-1.1 5.3-4.1-.9-8.6-1.6-13.3-2.1-2.7-3.9-5.6-7.4-8.5-10.5 1.3-1.3 2.7-2.5 4-3.6zM63.9 58c-1.6 2.7-3.2 5.3-4.8 7.7-2.9.2-6 .3-9.1.3-3.1 0-6.2-.1-9.1-.3-1.7-2.4-3.3-5-4.8-7.7-1.6-2.7-3-5.4-4.3-8.1 1.3-2.7 2.7-5.3 4.3-8.1 1.6-2.7 3.2-5.3 4.8-7.7 2.9-.2 6-.3 9.1-.3 3.1 0 6.2.1 9.1.3 1.7 2.4 3.3 5 4.8 7.7 1.6 2.7 3 5.4 4.3 8.1-1.3 2.8-2.7 5.4-4.3 8.1zm6.6-2.9c1.2 2.9 2.3 5.8 3.1 8.5-2.8.6-5.8 1.1-9 1.5 1-1.6 2-3.3 3-5 1.1-1.6 2-3.3 2.9-5zM50 77.3c-1.9-2.1-3.9-4.5-5.8-7 1.9.1 3.9.1 5.8.1 2 0 3.9 0 5.8-.1-1.9 2.6-3.9 4.9-5.8 7zM35.3 65.2c-3.2-.4-6.2-.9-9-1.5.9-2.7 1.9-5.6 3.1-8.5.9 1.7 1.8 3.4 2.8 5.1 1.1 1.6 2.1 3.3 3.1 4.9zm-5.8-20.3c-1.2-2.9-2.3-5.8-3.1-8.5 2.8-.6 5.8-1.1 9-1.5-1 1.6-2 3.3-3 5-1.1 1.6-2 3.3-2.9 5zM50 22.7c1.9 2.1 3.9 4.5 5.8 7-1.9-.1-3.9-.1-5.8-.1-2 0-3.9 0-5.8.1 1.9-2.6 3.9-4.9 5.8-7zm17.7 17.1c-1-1.7-2-3.4-3-5 3.2.4 6.2.9 9 1.5-.9 2.7-1.9 5.6-3.1 8.5-1-1.6-1.9-3.3-2.9-5zm-43.6-13c-.7-4.4-.7-8.2-.1-11 .6-2.8 1.8-4.5 3.2-5.4 1.5-.8 3.5-1 6.3-.1s6 2.8 9.5 5.6c1.3 1.1 2.7 2.3 4.1 3.6-2.9 3.1-5.7 6.6-8.5 10.5-4.7.4-9.2 1.1-13.3 2.1-.6-1.8-1-3.6-1.2-5.3zM17 60.9c-4.2-1.6-7.4-3.4-9.6-5.4-2.2-1.9-3-3.8-3-5.5 0-1.7.9-3.6 3-5.5 2.2-1.9 5.4-3.8 9.6-5.4 1.6-.6 3.3-1.2 5.2-1.7 1.3 4 2.9 8.3 4.9 12.6-2 4.3-3.6 8.6-4.9 12.6-1.9-.5-3.6-1.1-5.2-1.7zm25.9 23.2c-3.5 2.8-6.7 4.7-9.4 5.6-2.8.9-4.8.7-6.3-.1-1.5-.8-2.6-2.5-3.2-5.4-.6-2.8-.6-6.6.1-11 .3-1.7.6-3.5 1.1-5.3 4.1.9 8.6 1.6 13.3 2.1 2.7 3.9 5.6 7.4 8.5 10.5-1.4 1.3-2.8 2.5-4.1 3.6zm33-10.9c.7 4.4.7 8.2.1 11-.6 2.8-1.8 4.5-3.2 5.4-1.5.8-3.5 1-6.3.1s-6-2.8-9.4-5.6c-1.3-1.1-2.7-2.3-4.1-3.6 2.9-3.1 5.7-6.6 8.5-10.5 4.7-.4 9.2-1.1 13.3-2.1.5 1.8.9 3.6 1.1 5.3zm16.7-17.7c-2.2 1.9-5.4 3.8-9.6 5.4-1.6.6-3.3 1.2-5.2 1.7-1.3-4-2.9-8.3-4.9-12.6 2-4.3 3.6-8.6 4.9-12.6 1.8.5 3.6 1.1 5.2 1.7 4.2 1.6 7.4 3.4 9.6 5.4 2.2 1.9 3 3.8 3 5.5.1 1.7-.8 3.6-3 5.5z"/>
	</g>
</svg>