<svg xmlns="http://www.w3.org/2000/svg" viewBox="0 0 100 100">
	<path fill="#f44250" d="M77.7 39.8c-2.9-.9-4.3-.6-7.3-.9-4.6-.5-6.5-2.3-7.3-7-.4-2.6.1-6.4-1-8.8-2.1-4.5-7.2-6.5-12.2-5.4-4.3 1-7.8 5.2-8 9.6-.2 5 2.6 9.2 7.5 10.7 2.3.7 4.8 1 7.2 1.2 4.4.3 4.8 2.8 6 4.8.8 1.3 1.5 2.5 1.5 6.4 0 3.8-.7 5.1-1.5 6.4-1.2 2-2.7 3.3-7.1 3.7-2.4.2-4.9.5-7.2 1.2-4.9 1.5-7.7 5.7-7.5 10.7.2 4.4 3.7 8.6 8 9.6 5 1.2 10-.9 12.2-5.4 1.1-2.4 1.7-5 2.2-7.6.8-4.7 2.6-6.5 7.3-7 3-.3 6.1 0 8.9-1.6 3-2.2 5.6-5.4 5.6-9.9-.1-4.6-2.9-9.4-7.3-10.7z"/>
	<path fill="#121212" d="M30.1 39.7c-5.8 0-10.6 4.8-10.6 10.6 0 5.9 4.8 10.6 10.6 10.6s10.6-4.8 10.6-10.6c.1-5.8-4.7-10.6-10.6-10.6zM10.7 61.3C4.8 61.3 0 66.1 0 71.9c0 5.9 4.7 10.7 10.6 10.7 5.9 0 10.6-4.7 10.7-10.6 0-5.9-4.8-10.7-10.6-10.7zM89.3 61.3c-5.8 0-10.6 4.8-10.5 10.7 0 5.8 4.8 10.6 10.7 10.6 5.8 0 10.6-4.9 10.5-10.7 0-5.9-4.8-10.6-10.7-10.6z"/>
</svg>