<svg xmlns="http://www.w3.org/2000/svg" viewBox="0 0 100 100">
	<path fill="#61dafb" d="M95.5 41.3c-2.7-2.4-6.5-4.5-10.9-6.2-1.7-.7-3.6-1.3-5.5-1.8.5-2 .9-3.9 1.2-5.7.8-4.7.8-9 .1-12.6-.8-3.5-2.4-6.6-5.3-8.2-2.9-1.6-6.3-1.6-9.8-.5-3.4 1.1-7.1 3.3-10.9 6.4-1.5 1-2.9 2.3-4.4 3.8-1.5-1.4-2.9-2.7-4.4-3.9-3.7-3-7.4-5.2-10.9-6.4-3.4-1.1-6.8-1.2-9.7.5s-4.6 4.7-5.3 8.2c-.8 3.5-.7 7.9.1 12.6.3 1.8.7 3.7 1.2 5.7-2 .6-3.8 1.2-5.5 1.8-4.5 1.7-8.2 3.8-10.9 6.2C1.8 43.8 0 46.6 0 50.1s1.8 6.3 4.5 8.7c2.7 2.4 6.5 4.5 10.9 6.2 1.7.7 3.6 1.3 5.5 1.8-.5 2-.9 3.9-1.2 5.7-.8 4.7-.8 9-.1 12.6.8 3.5 2.4 6.6 5.3 8.2 2.9 1.7 6.3 1.6 9.8.5 3.4-1.1 7.1-3.3 10.9-6.4 1.4-1.2 2.9-2.5 4.4-3.9 1.5 1.4 2.9 2.7 4.4 3.9 3.7 3 7.4 5.2 10.9 6.4 3.4 1.1 6.9 1.2 9.8-.5 2.9-1.7 4.6-4.7 5.3-8.2.8-3.5.7-7.8-.1-12.6-.3-1.8-.7-3.7-1.2-5.7 2-.6 3.8-1.2 5.5-1.8 4.5-1.7 8.2-3.8 10.9-6.2 2.7-2.4 4.5-5.4 4.5-8.7s-1.8-6.3-4.5-8.8zM57.1 16.1c3.5-2.8 6.7-4.7 9.4-5.6 2.8-.9 4.8-.7 6.3.1s2.6 2.5 3.2 5.4c.6 2.8.6 6.6-.1 11-.2 1.6-.6 3.4-1.1 5.3-4.1-.9-8.6-1.6-13.3-2.1-2.7-3.9-5.6-7.4-8.5-10.5 1.4-1.4 2.7-2.6 4.1-3.6zM29.5 55.3c.9 1.7 1.8 3.4 2.8 5.1s2 3.4 3 5c-3.1-.5-6.1-1-8.9-1.6.9-2.7 1.9-5.7 3.1-8.5zm-.1-10.5c-1.2-2.9-2.2-5.8-3.1-8.5 2.8-.6 5.8-1.1 9-1.5-1 1.6-2 3.3-3.1 4.9-1 1.8-1.9 3.4-2.8 5.1zm2.4 5.3c1.3-2.7 2.7-5.3 4.3-8 1.6-2.7 3.2-5.3 4.8-7.7 2.9-.2 6-.3 9.1-.3s6.2.1 9.1.3c1.7 2.4 3.3 5 4.8 7.7 1.6 2.7 3 5.4 4.3 8-1.3 2.7-2.7 5.3-4.3 8-1.6 2.7-3.2 5.3-4.8 7.7-2.9.2-6 .3-9.1.3s-6.2-.1-9.1-.3c-1.7-2.4-3.3-5-4.8-7.7-1.6-2.8-3-5.3-4.3-8zm36 10.2c1-1.7 1.9-3.4 2.8-5.1 1.2 2.9 2.2 5.8 3.1 8.5-2.8.6-5.8 1.1-9 1.5 1-1.6 2-3.2 3.1-4.9zm2.7-15.5c-.9-1.7-1.8-3.4-2.8-5.1s-2-3.4-3-5c3.1.5 6.1 1 8.9 1.6-.9 2.8-1.9 5.7-3.1 8.5zm-14.7-15c-1.9-.1-3.8-.1-5.8-.1-1.9 0-3.9 0-5.8.1 1.9-2.5 3.9-4.9 5.8-7 1.9 2 3.9 4.5 5.8 7zM24 16c.6-2.9 1.7-4.6 3.2-5.4s3.5-1 6.3-.1c2.7.8 5.9 2.7 9.4 5.6 1.4 1.1 2.7 2.3 4.1 3.6-2.9 3.1-5.8 6.6-8.5 10.5-4.7.5-9.2 1.2-13.3 2.1-.5-1.8-.8-3.6-1.1-5.3-.7-4.4-.7-8.2-.1-11zm-1.9 46.6c-1.9-.5-3.6-1.1-5.2-1.7-4.2-1.6-7.4-3.5-9.6-5.4-2.1-1.9-3-3.8-3-5.5s.8-3.6 3-5.5c2.2-2 5.4-3.8 9.6-5.4 1.6-.6 3.4-1.2 5.2-1.7 1.3 4 2.9 8.3 4.9 12.6-2 4.3-3.6 8.6-4.9 12.6zm20.8 21.5c-3.4 2.8-6.6 4.7-9.4 5.6-2.8.9-4.8.7-6.3-.1-1.4-.9-2.6-2.6-3.2-5.4-.6-2.9-.6-6.6.1-11 .3-1.7.6-3.4 1.1-5.3 4.1 1 8.6 1.7 13.3 2.1 2.8 3.9 5.6 7.4 8.5 10.5-1.4 1.3-2.8 2.5-4.1 3.6zm1.3-13.8c1.9.1 3.9.1 5.8.1 2 0 3.9 0 5.8-.1-1.9 2.5-3.9 4.9-5.8 7-1.9-2-3.9-4.5-5.8-7zM76 84.1c-.6 2.9-1.7 4.6-3.2 5.4s-3.5 1-6.3.1c-2.7-.9-5.9-2.8-9.4-5.6-1.4-1.1-2.7-2.3-4.1-3.6 2.9-3.1 5.7-6.6 8.5-10.5 4.7-.5 9.2-1.2 13.3-2.1.5 1.8.8 3.6 1.1 5.3.7 4.5.7 8.2.1 11zm16.7-28.5c-2.2 2-5.4 3.8-9.6 5.4-1.6.6-3.4 1.2-5.2 1.7-1.3-4-2.9-8.3-4.9-12.6 2-4.3 3.6-8.6 4.9-12.6 1.9.5 3.6 1.1 5.2 1.7 4.2 1.6 7.4 3.5 9.6 5.4 2.1 1.9 3 3.8 3 5.5s-.8 3.5-3 5.5z"/>
	<circle fill="#61dafb" cx="50" cy="50.1" r="8.9"/>
</svg>