<svg xmlns="http://www.w3.org/2000/svg" viewBox="0 0 100 100">
	<path fill="#FCC397" d="M71.08 4.81C62.234.481 52.33-.973 42.67.638c-9.66 1.61-18.62 6.212-25.7 13.196-9.237 9.223 70.446-.989 54.108-9.026Z"/>
	<path fill="#FC9F95" d="M87.993 18.776s-3.822 5.6-15.924 7.18C47.8 29.25 6.176 29.448 6.239 29.25a50.219 50.219 0 0 1 10.733-15.415 33.396 33.396 0 0 0 16.306 1.087c8.917-1.746 16.816-7.017 25.638-9.19a38.68 38.68 0 0 1 12.165-.923c6.579 3.285 12.359 8.058 16.912 13.966Z"/>
	<path fill="#F77C88" d="M98.081 42.163c0 .198-54.682 5.534-81.339 3.986-5.203-.135-10.145-2.384-13.758-6.258a49.666 49.666 0 0 1 3.344-10.574c7.802-4.45 16.568-6.785 25.478-6.785 11.02 0 21.816 3.92 32.867 3.623 8.263-.3 16.303-2.844 23.313-7.379 5.294 6.743 8.776 14.81 10.095 23.387Z"/>
	<path fill="#F25192" d="M98.69 50.003v.824a144.454 144.454 0 0 1-34.778 3.722A593.013 593.013 0 0 1 2 49.575c.035-3.253.365-6.495.987-9.684 6.658 4.276 14.494 6.163 22.294 5.369a61.613 61.613 0 0 0 17.548-5.501 106.435 106.435 0 0 1 17.23-6.588 43.393 43.393 0 0 1 20.108-.051c6.62 1.558 12.812 4.65 18.109 9.044.347 2.596.485 5.219.414 7.84Z"/>
	<path fill="#D34CA3" d="M43.848 66.243c-14.49 2.931-39.396-.363-39.46-.626A51.573 51.573 0 0 1 2 50.003v-.428a39.023 39.023 0 0 1 7.293-4.678 37.116 37.116 0 0 1 20.128-3.721 65.847 65.847 0 0 1 19.523 6.126 159.126 159.126 0 0 0 15.924 6.588c.827.23-5.032 9.29-21.02 12.353Z"/>
	<path fill="#9A50A5" d="M96.939 63.344c-1.02 1.779-10.637 7.74-23.695 8.762-17.294 1.35-37.708-4.052-30.924-6.786 10.637-4.348 19.904-12.12 30.924-15.382a41.242 41.242 0 0 1 25.478.889 50.44 50.44 0 0 1-1.783 12.517Z"/>
	<path fill="#59569E" d="M92.255 74.937C83.911 89.925 23.37 93.68 14.515 83.6A51.217 51.217 0 0 1 4.387 65.615c7.415-4.428 16.032-6.21 24.523-5.072 10.828 1.515 20.51 7.774 31.21 10.211a45.65 45.65 0 0 0 26.053-1.581 47.703 47.703 0 0 0 10.764-5.666 50.342 50.342 0 0 1-4.682 11.43Z"/>
	<path fill="#39477F" d="M92.319 74.805c-3.788 6.856-9.092 12.687-15.478 17.015-6.387 4.328-13.673 7.03-21.264 7.885a46.868 46.868 0 0 1-22.405-2.966c-7.137-2.806-13.53-7.32-18.657-13.172 1.465.593 3.185 1.087 4.618 1.548a46.25 46.25 0 0 0 25.829-.23c5.382-1.647 10.414-4.25 15.669-6.193a69.225 69.225 0 0 1 31.847-3.887h-.159Z"/>
</svg>