<svg xmlns="http://www.w3.org/2000/svg" viewBox="0 0 100 100">
	<path fill="#1C1E21" d="M50.482 0a8.448 8.448 0 0 1 8.451 8.45c0 3.481-2.109 6.472-5.12 7.77l-.092.038v3.56c0 3.437 2.554 6.362 5.952 6.84l.103.014 1.02.133c5.523.699 9.804 4.669 10.902 10.125 1.098 5.457-1.298 10.78-6.122 13.575a17.55 17.55 0 0 1-6.996 2.26l-.124.013-15.338 1.442a10.703 10.703 0 0 0-4.402 1.408c-2.784 1.608-3.327 4.392-2.906 6.455.417 2.042 1.976 4.367 5.095 4.8l1.115.146c6.72.834 11.798 6.527 11.899 13.28l.001.206v3.305a8.456 8.456 0 0 1 5.035 7.73 8.448 8.448 0 0 1-8.45 8.45 8.448 8.448 0 0 1-8.451-8.45 8.455 8.455 0 0 1 5.099-7.758l.091-.04v-3.237c0-3.437-2.554-6.363-5.952-6.84l-.103-.014-1.02-.133c-5.523-.699-9.804-4.67-10.902-10.126-1.11-5.456 1.297-10.78 6.122-13.574a17.548 17.548 0 0 1 6.995-2.261l.124-.012 15.338-1.442a10.703 10.703 0 0 0 4.403-1.409c2.784-1.608 3.327-4.391 2.906-6.454-.418-2.042-1.976-4.367-5.096-4.8l-1.115-.146c-6.72-.835-11.797-6.528-11.898-13.28l-.002-.206V16.17A8.448 8.448 0 0 1 50.482 0Zm10.159 56.549 4.735 5.19A21.139 21.139 0 0 1 70.9 75.832v.158h-6.687c0-3.58-1.315-7.006-3.698-9.668l-.073-.08-8.051-8.828 6.432-.61.203-.023c.482-.055.963-.118 1.438-.2l.178-.032ZM36.165 24.088c0 3.58 1.315 7.006 3.698 9.668l.073.08 8.073 8.85-5.944.566-.177.016c-.647.062-1.293.156-1.925.281l-.172.035-4.78-5.245a21.117 21.117 0 0 1-5.522-14.093v-.158h6.676Z"/>
</svg>