<svg xmlns="http://www.w3.org/2000/svg" viewBox="0 0 100 100">
	<path fill="#912626" d="M96.082 72.766C90.745 75.547 63.1 86.914 57.214 89.982c-5.885 3.069-9.155 3.04-13.804.817-4.65-2.223-34.07-14.107-39.368-16.64C1.392 72.893 0 71.825 0 70.815V60.709s38.3-8.338 44.484-10.556c6.183-2.219 8.328-2.299 13.59-.371C63.336 51.708 94.8 57.385 100 59.29l-.002 9.964c0 1-1.2 2.096-3.916 3.512Z"/>
	<path fill="#C6302B" d="M96.08 62.717c-5.336 2.78-32.98 14.148-38.866 17.216-5.886 3.07-9.155 3.039-13.804.816-4.65-2.22-34.068-14.106-39.367-16.638-5.3-2.533-5.41-4.277-.205-6.315C9.043 55.757 38.3 44.28 44.484 42.06c6.183-2.217 8.328-2.298 13.59-.37 5.262 1.927 32.742 12.865 37.942 14.77 5.201 1.906 5.4 3.476.064 6.257Z"/>
	<path fill="#912626" d="M96.082 56.41C90.745 59.192 63.1 70.56 57.214 73.629c-5.885 3.068-9.155 3.038-13.804.815-4.65-2.221-34.07-14.106-39.368-16.639C1.392 56.538 0 55.471 0 54.462v-10.11s38.3-8.337 44.484-10.555c6.183-2.219 8.328-2.299 13.59-.372C63.336 35.353 94.8 41.03 100 42.934l-.002 9.966c0 .999-1.2 2.095-3.916 3.51Z"/>
	<path fill="#C6302B" d="M96.08 46.363c-5.336 2.78-32.98 14.147-38.866 17.216-5.886 3.068-9.155 3.038-13.804.816-4.65-2.221-34.068-14.107-39.367-16.639-5.3-2.532-5.41-4.276-.205-6.315C9.043 39.403 38.3 27.924 44.484 25.706c6.183-2.218 8.328-2.298 13.59-.37 5.262 1.927 32.742 12.864 37.942 14.769 5.201 1.906 5.4 3.476.064 6.258Z"/>
	<path fill="#912626" d="M96.082 39.449C90.745 42.231 63.1 53.598 57.214 56.667c-5.885 3.068-9.155 3.038-13.804.815-4.65-2.221-34.07-14.106-39.368-16.639C1.392 39.578 0 38.51 0 37.502V27.39s38.3-8.337 44.484-10.555c6.183-2.218 8.328-2.298 13.59-.371 5.262 1.929 36.726 7.604 41.926 9.51l-.002 9.965c0 .998-1.2 2.094-3.916 3.51Z"/>
	<path fill="#C6302B" d="M96.08 29.4c-5.336 2.782-32.98 14.15-38.866 17.218-5.886 3.067-9.155 3.037-13.804.816-4.65-2.222-34.068-14.107-39.367-16.64-5.3-2.532-5.41-4.276-.205-6.314C9.043 22.44 38.3 10.963 44.484 8.745c6.183-2.219 8.328-2.299 13.59-.37 5.262 1.927 32.742 12.864 37.942 14.77 5.201 1.904 5.4 3.474.064 6.256Z"/>
	<path fill="#fff" d="m62.22 19.568-8.597.892-1.925 4.631-3.11-5.167-9.927-.893 7.408-2.67-2.222-4.102 6.935 2.713 6.538-2.141-1.767 4.24 6.667 2.497ZM51.184 42.036 35.138 35.38l22.993-3.53-6.947 10.185ZM28.938 22.142c6.787 0 12.29 2.133 12.29 4.764 0 2.63-5.503 4.763-12.29 4.763-6.787 0-12.29-2.132-12.29-4.763s5.503-4.764 12.29-4.764Z"/>
	<path fill="#621B1C" d="m72.38 20.834 13.61 5.376-13.597 5.372-.011-10.75Z"/>
	<path fill="#9A2928" d="m57.326 26.788 15.055-5.954.011 10.75-1.475.577-13.59-5.373Z"/>
</svg>