<svg xmlns="http://www.w3.org/2000/svg" viewBox="0 0 100 100">
	<path fill="#764ABC" d="M69.29 69.3c3.69-.382 6.49-3.564 6.362-7.381-.127-3.818-3.308-6.872-7.126-6.872h-.255c-3.944.127-6.998 3.436-6.871 7.38.127 1.91.89 3.564 2.036 4.71-4.327 8.525-10.944 14.76-20.87 19.978-6.744 3.563-13.743 4.836-20.742 3.945-5.727-.764-10.18-3.309-12.98-7.508-4.072-6.236-4.454-12.98-1.018-19.725 2.417-4.835 6.235-8.398 8.653-10.18-.51-1.654-1.273-4.454-1.654-6.49C-3.627 60.52-1.718 78.59 3.88 87.115c4.2 6.363 12.725 10.308 22.142 10.308 2.545 0 5.09-.255 7.635-.891 16.29-3.182 28.634-12.853 35.633-27.233Z"/>
	<path fill="#764ABC" d="M91.686 53.52c-9.671-11.325-23.924-17.56-40.212-17.56h-2.036c-1.146-2.291-3.563-3.818-6.236-3.818h-.254c-3.945.127-7 3.435-6.872 7.38.127 3.818 3.309 6.872 7.126 6.872h.255c2.8-.127 5.217-1.909 6.235-4.327h2.29c9.672 0 18.835 2.8 27.106 8.272 6.363 4.2 10.944 9.671 13.489 16.288 2.163 5.345 2.036 10.563-.254 15.017-3.564 6.744-9.545 10.434-17.434 10.434-5.09 0-9.926-1.527-12.471-2.672-1.4 1.273-3.945 3.309-5.727 4.581 5.472 2.545 11.071 3.945 16.416 3.945 12.216 0 21.252-6.744 24.687-13.489 3.691-7.38 3.436-20.106-6.108-30.923Z"/>
	<path fill="#764ABC" d="M27.041 71.463c.127 3.817 3.309 6.872 7.126 6.872h.255c3.945-.128 6.999-3.436 6.872-7.381-.128-3.818-3.309-6.872-7.127-6.872h-.254c-.255 0-.636 0-.891.127-5.217-8.653-7.38-18.07-6.617-28.25.509-7.635 3.054-14.253 7.508-19.725 3.69-4.708 10.816-6.999 15.652-7.126 13.49-.254 19.216 16.543 19.597 23.288 1.655.382 4.454 1.272 6.363 1.909C73.998 13.689 61.272 3 49.056 3c-11.453 0-22.015 8.271-26.214 20.488-5.854 16.288-2.036 31.94 5.09 44.284-.636.891-1.018 2.291-.89 3.69Z"/>
</svg>