<svg xmlns="http://www.w3.org/2000/svg" viewBox="0 0 100 100">
	<path fill="#F26B00" d="M9.435 39.869c4.39 0 8.08-2.999 9.133-7.061h43.078c4.115 0 7.464 3.349 7.464 7.464 0 4.116-3.349 7.465-7.464 7.465H37.767c-6.969 0-12.638 5.67-12.638 12.638 0 6.97 5.67 12.638 12.638 12.638H81.49a9.437 9.437 0 0 0 9.076 6.848A9.433 9.433 0 0 0 100 70.427a9.433 9.433 0 0 0-9.434-9.435 9.437 9.437 0 0 0-9.076 6.847H37.767c-4.116 0-7.465-3.348-7.465-7.464 0-4.116 3.349-7.465 7.465-7.465h23.878c6.97 0 12.638-5.67 12.638-12.638s-5.669-12.638-12.638-12.638H18.447A9.438 9.438 0 0 0 9.434 21 9.433 9.433 0 0 0 0 30.434a9.433 9.433 0 0 0 9.435 9.435Z"/>
</svg>