<svg xmlns="http://www.w3.org/2000/svg" viewBox="0 0 100 100">
	<linearGradient id="a" x1="7.3212" x2="37.6025" y1="77.2805" y2=".6863" gradientTransform="matrix(1 0 0 -1 0 102)" gradientUnits="userSpaceOnUse">
		<stop offset=".22" stop-color="#dd1265"/>
		<stop offset=".74" stop-color="#ff45ed"/>
		<stop offset="1" stop-color="#fdb60d"/>
	</linearGradient>
	<path fill="url(#a)" d="m27 22.4-2.9 52.3-7.6 25.3L0 32.9l27-10.5z"/>
	<linearGradient id="b" x1="74.6845" x2=".6324" y1="-2.7009" y2="76.07" gradientTransform="matrix(1 0 0 -1 0 102)" gradientUnits="userSpaceOnUse">
		<stop offset=".11" stop-color="#fdb60d"/>
		<stop offset=".51" stop-color="#ff45ed"/>
		<stop offset=".76" stop-color="#ff45ed"/>
		<stop offset="1" stop-color="#fdb60d"/>
	</linearGradient>
	<path fill="url(#b)" d="M27 22.4 30 0l40.3 100H16.5l7.6-25.2L27 22.4z"/>
	<linearGradient id="c" x1="36.4231" x2="99.9439" y1="104.7571" y2="28.903" gradientTransform="matrix(1 0 0 -1 0 102)" gradientUnits="userSpaceOnUse">
		<stop offset=".18" stop-color="#fdb60d"/>
		<stop offset=".49" stop-color="#ff45ed"/>
		<stop offset=".82" stop-color="#dd1265"/>
	</linearGradient>
	<path fill="url(#c)" d="M50.4 67.2H100L83.4 0H30l20.4 67.2z"/>
	<path d="M18.8 18.9h62.5v62.5H18.8V18.9z"/>
	<path fill="#fff" d="M26.5 69.6H50v3.9H26.5v-3.9zm.1-43h10.7c1.2-.1 2.5.1 3.7.5 1.2.4 2.3 1.1 3.2 1.9.7.7 1.2 1.6 1.6 2.5.3.9.5 1.9.5 2.9v.1c.1 1.7-.4 3.3-1.4 4.6-.9 1.2-2.2 2.1-3.6 2.6l5.7 8.4h-6l-4.9-7.2h-4.3v7.2h-5.1V26.6zM37 38.1c1.1 0 2.1-.3 2.9-1 .3-.3.6-.7.8-1.1.2-.4.3-.9.3-1.3v-.1c0-.5 0-.9-.2-1.4-.2-.4-.5-.8-.8-1.1-.9-.6-1.9-.9-3-.8h-5.2V38c-.1 0 5.2.1 5.2.1zm26.2-3.7h-5.4v-4.7h5.3v-5.3H68v5.3h5.4v4.7H68v5.3h-4.9v-5.3zM53 47.2h-5.3v-4.7H53v-5.3h4.9v5.3h5.3v4.7h-5.3v5.3H53v-5.3z"/>
</svg>