<svg xmlns="http://www.w3.org/2000/svg" viewBox="0 0 100 100">
	<linearGradient id="a" x1="49.2119" x2="92.3369" y1="1.7886" y2="64.6328" gradientTransform="matrix(1 0 0 -1 0 102)" gradientUnits="userSpaceOnUse">
		<stop offset=".02" stop-color="#ff45ed"/>
		<stop offset=".4" stop-color="#dd1265"/>
		<stop offset="1" stop-color="#fdb60d"/>
	</linearGradient>
	<path fill="url(#a)" d="M73.1 22.5 37.7 67.3l-8 32.7h53.8L100 32.9 73.1 22.5z"/>
	<linearGradient id="b" x1="2.6172" x2="69.7526" y1="25.6744" y2="88.8202" gradientTransform="matrix(1 0 0 -1 0 102)" gradientUnits="userSpaceOnUse">
		<stop offset=".02" stop-color="#ff45ed"/>
		<stop offset=".66" stop-color="#dd1265"/>
	</linearGradient>
	<path fill="url(#b)" d="M70 0H16.6L0 67.2h79.4L70 0z"/>
	<linearGradient id="c" x1="67.9993" x2="68.6868" y1="104.3646" y2="64.6875" gradientTransform="matrix(1 0 0 -1 0 102)" gradientUnits="userSpaceOnUse">
		<stop offset="0" stop-color="#dd1265"/>
		<stop offset=".06" stop-color="#df1961"/>
		<stop offset=".7" stop-color="#f46330"/>
		<stop offset="1" stop-color="#fc801d"/>
	</linearGradient>
	<path fill="url(#c)" d="M72.8 19 70 0l-6 19h8.8z"/>
	<path d="M18.8 18.9h62.5v62.5H18.8V18.9z"/>
	<path fill="#fff" d="M26.5 69.6H50v3.9H26.5v-3.9zm25.6-24.5h-2.6v-4.3h3.3l.8-5h-2.9v-4.3h3.7l.8-4.9h4.4l-.9 4.9h4.9l.8-4.9H69l-.8 4.9h2.6v4.3h-3.3l-.8 5h3v4.3H66l-.9 5h-4.4l.9-5h-4.9l-.8 5h-4.5c-.1.1.7-5 .7-5zm10.1-4.3.9-5h-4.9l-.8 5h4.8zM26.6 26.6h10.8c1.2-.1 2.5.1 3.7.5 1.2.4 2.3 1.1 3.2 1.9.7.7 1.2 1.6 1.6 2.5.3.9.5 1.9.5 2.9v.1c.1 1.7-.4 3.3-1.4 4.7-.9 1.2-2.2 2.1-3.7 2.6l5.7 8.4h-6l-5-7.3h-4.2v7.2h-5.2V26.6zM37 38.1c1.1.1 2.1-.3 3-1 .3-.3.6-.7.8-1.1s.3-.9.3-1.3v-.1c0-.5 0-.9-.2-1.4-.2-.4-.5-.8-.8-1.1-.9-.6-1.9-.9-3-.8h-5.2v6.8H37z"/>
</svg>