<svg xmlns="http://www.w3.org/2000/svg" viewBox="0 0 100 100">
	<path fill="#0e9fb4" d="M76 73.8c-.6-.4-1.4-.7-2.2-.8-.8-.1-1.4-.3-2.3-.4-.5 0-.9-.2-1.1-.5-3.6-4.9-7.2-9.9-10.7-14.8-.9-1.3-2-2.5-3.2-3.5-.4-.3-.3-.5.2-.7 9.2-2.2 14.9-10.7 12.8-20.1-1.5-6.7-6.5-9.6-12.8-11.2h-.4c-.2.1-.4 0-.5-.2-.1-.1-.2-.1-.4-.1-.4.1-.7 0-1.1-.1-.1-.1-.3-.1-.4 0-.8.1-1.5-.2-2.1-.2H28.2c-.1 0-.2.1-.2.2v3.1c.1 1.4 1.2 1.8 2.4 1.9.4 0 .8.1 1.2.2.4.1.8.2 1.2.2.1 0 .3 0 .4.1.1.1.3.2.5.2.1 0 .2.1.2.2v44.6c0 .1-.1.2-.2.3-1.2.2-2.5.5-3.7.8-1.2.3-1.9.7-1.9 1.9v3c0 .2.1.3.3.3H47c.1 0 .2-.1.2-.2.1-1.7.3-3.6-.5-4.6-.1-.1-.2-.1-.3-.1-.1 0-.2 0-.3-.1-.1-.1-.2-.1-.3-.1-.8-.1-1.6-.3-2.4-.6h-.5c-.1 0-.3 0-.4-.1-.2-.2-.4-.2-.7-.2-.2 0-.2 0-.2-.2V54.8c0-.1.1-.2.2-.2h5.7c1.2 0 2.1.6 2.9 1.6 2.3 3.3 7.1 9.8 14.2 19.5 1.2 1.6 1.7 2.6 3.6 2.6 2.8.1 5.5.1 8.3.1h.1v-4.1c-.4-.3-.4-.4-.6-.5zM51.4 48.6c-.1 0-.3 0-.4.1-.3.1-.8.1-1.4.2h-8c-.1 0-.2-.1-.2-.2V27.8c0-.1.1-.2.2-.2 5.6-.1 9-.2 12.9.5 4 .7 7 3.6 7.6 7.7 1 6.8-2.9 11.3-9.3 12.7-.6.1-1.1.1-1.4.1z"/>
	<path fill="#0fb393" d="M99.8 47.8c-1.3-.1-2.2-.3-2.6-.5-1.6-1-2.5-2.4-2.6-4-.3-5.3 1.8-10.9 2-16.3 0-1.7 0-2.9-.2-3.7-1.2-5.1-4.3-8.2-9.5-9.3-.7-.1-1.4.1-2-.2-.1-.1-.2-.1-.3-.1h-3c-.2.1-.4.3-.4.6 0 1.3-.5 3.7 1.4 4.1 1 .2 2.1 0 3 .3 2.4.7 4.3 2.8 4.5 5.4.1.8.3 1.5.2 2.2-.2 1.3-.2 2.7-.3 3.8-.3 2.3-.7 4.7-1.1 7-.9 5.3-.7 10.4 5 12.6.2.1.2.2.1.3-.1.1-.3.2-.5.2-.1 0-.3 0-.4.1-3.3 1.8-4.8 4.7-4.5 8.6.3 3.1.8 6 1.3 9 .7 4.5 1.7 10.2-3.3 12.8-.4.2-.8.2-1.2.4-.1.1-.2.1-.4.1-1.1-.2-2.3 0-3.3.6-.1.1-.2.2-.2.3l-.3 3.9c0 .2.1.2.2.2 1.7 0 3.3-.2 5.1-.4.9-.1 1.7-.4 2.6-.7 9.7-3.5 7.3-14.1 6-21.5-.5-3-1.4-7.4.8-9.9.5-.6 1.2-.8 1.8-1.1.7-.3 1.3-.3 2.1-.5.1 0 .2-.1.2-.2v-3.8c0-.2-.1-.3-.2-.3zM17.6 81.5c-.3-.1-.9-.2-1.8-.2-4.1 0-6.2-3.7-6.1-7.3.2-4.8 1.5-10.3 1.9-15.2.2-2.4-.4-4.5-2-6.3-.6-.7-1.5-1.2-2.2-1.8-.3-.2-.8-.3-1.1-.7-.1-.1-.1-.2.1-.2 8.3-3.1 4.3-13.7 3.6-19.8-.4-3.3-.7-7 1.5-9.4 1.1-1.2 2.3-1.8 3.6-1.8 1.3 0 2.4-.2 3.2-.6l.3-.3c.3-1.1.4-2.3.2-3.5 0-.2-.2-.4-.5-.4-5.1-.2-9.9.6-12.8 5.1-1.7 2.6-2.4 6.1-2.1 9.2.4 4 1.5 8.3 1.9 12.5.3 2.7-.4 6.4-3.7 7l-1.5.3c-.1 0-.1 0-.1.1v4.1s0 .1.1.1h.1c.3-.1.5-.1.7 0 .1.1.2.1.4.1 3.7 0 4.5 5.3 4 7.8-.5 2.8-.9 5.7-1.4 8.5C3.2 73 3 76.6 5 80.3c.7 1.2 2.1 2.6 3 3.4 2.8 2.3 6.8 2.6 10.5 2.5.1 0 .3-.1.3-.3 0-1.4.5-3.6-1.2-4.4z"/>
</svg>