<svg xmlns="http://www.w3.org/2000/svg" viewBox="0 0 100 100">
	<path fill="#5a5c62" d="M50.1 13.6c3.8 0 6.8-3 6.8-6.8S53.9 0 50.1 0s-6.8 3-6.8 6.8 3 6.8 6.8 6.8zM80.5 26.4c3.8 0 6.8-3 6.8-6.8s-3-6.8-6.8-6.8-6.8 3-6.8 6.8 3.1 6.8 6.8 6.8zM93.2 43.3c-1.3 0-2.5.4-3.5 1-5.2-3.1-13.8-7.9-26.1-13.4-21.5-9.6-43-13-43.9-13.2l-.3 2.2-.8 2.2c.1 0 11.7 4.7 21.7 26.7 6.9 15.2 8.5 29.6 8.8 37.8-3.3.5-5.8 3.3-5.8 6.7 0 3.8 3 6.8 6.8 6.8s6.8-3 6.8-6.8c0-2.4-1.3-4.6-3.2-5.8-.2-8.3-1.6-23.9-9.2-40.6C41 39.3 37.4 33.6 34 29.4c6.5 3.7 12.7 7.9 18.5 12.5C65.2 52 72.9 66.6 76.6 75c-1.7 1.2-2.9 3.2-2.9 5.5 0 3.7 3 6.8 6.8 6.8s6.8-3 6.8-6.8c0-3.6-2.7-6.5-6.2-6.8-3.7-8.7-11.9-24.3-25.7-35.4-5.4-4.3-11.1-8.2-17-11.7 7 2 15.2 4.7 23.3 8.4 11.6 5.2 19.9 9.8 25.1 12.8-.2.7-.4 1.4-.4 2.2 0 3.8 3 6.8 6.8 6.8s6.8-3 6.8-6.8c0-3.7-3-6.7-6.8-6.7zM19.5 73.9c-3.8 0-6.8 3-6.8 6.8s3 6.8 6.8 6.8 6.8-3 6.8-6.8c0-3.7-3.1-6.8-6.8-6.8zM6.9 43.4C3.1 43.3.1 46.3 0 50.1c.1 3.7 3 6.6 6.7 6.7 3.8.1 6.8-2.9 6.9-6.7-.1-3.7-3-6.6-6.7-6.7z"/>
	<path fill="#f79224" d="M26.3 19.5c0 3.8-3 6.8-6.8 6.8-3.8-.1-6.7-3.2-6.7-6.9.1-3.7 3-6.6 6.7-6.7 3.7 0 6.8 3 6.8 6.8z"/>
</svg>