<svg xmlns="http://www.w3.org/2000/svg" viewBox="0 0 100 100">
	<linearGradient id="a" x1="93.5727" x2="16.4894" y1="44.1515" y2="88.3807" gradientTransform="matrix(1 0 0 -1 0 101.433)" gradientUnits="userSpaceOnUse">
		<stop offset="0" stop-color="#dd1265"/>
		<stop offset=".48" stop-color="#dd1265"/>
		<stop offset=".94" stop-color="#fdb60d"/>
	</linearGradient>
	<path fill="url(#a)" d="M100 38.9 29.9 0l46.9 69.7 9.6-6.3L100 38.9z"/>
	<linearGradient id="b" x1="47.7399" x2="78.2919" y1="92.704" y2="8.329" gradientTransform="matrix(1 0 0 -1 0 101.433)" gradientUnits="userSpaceOnUse">
		<stop offset=".14" stop-color="#087cfa"/>
		<stop offset=".48" stop-color="#dd1265"/>
		<stop offset=".96" stop-color="#087cfa"/>
	</linearGradient>
	<path fill="url(#b)" d="M72 23 63.3 1.6 43.8 20.7l7.9 69.4 18.8 9.9L100 82.8 72 23z"/>
	<linearGradient id="c" x1="24.8612" x2="47.4237" y1="90.1016" y2="9.8932" gradientTransform="matrix(1 0 0 -1 0 101.433)" gradientUnits="userSpaceOnUse">
		<stop offset=".28" stop-color="#dd1265"/>
		<stop offset=".97" stop-color="#fdb60d"/>
	</linearGradient>
	<path fill="url(#c)" d="M29.9 0 0 20.1l11.1 68.7 28.7 11 37.1-30.1L29.9 0z"/>
	<path d="M18.8 18.9h62.5v62.5H18.8V18.9z"/>
	<path fill="#fff" d="M26.5 69.6H50v3.9H26.5v-3.9zM26.6 26.6h10.7c1.2-.1 2.5.1 3.7.5 1.2.4 2.3 1 3.2 1.9.7.7 1.2 1.6 1.6 2.5.3.9.5 1.9.5 2.9v.1c.1 1.6-.4 3.2-1.3 4.5-.9 1.3-2.2 2.3-3.8 2.8l5.8 8.4h-6.1l-5-7.5h-4v7.5h-5.2V26.6zM37 38.1c2.5 0 4-1.3 4-3.3v-.1c0-2.2-1.5-3.4-4.1-3.4h-5.1v6.8H37zM50.4 26.6h9.2c7.4 0 12.5 5.1 12.5 11.7v.1c0 6.6-5.1 11.8-12.5 11.8h-9.2V26.6zm5.3 4.7v14.2h4c.9.1 1.9-.1 2.8-.4.9-.3 1.7-.8 2.3-1.5.7-.7 1.2-1.5 1.5-2.3.3-.9.5-1.8.4-2.8v-.1c0-.9-.1-1.9-.4-2.8-.3-.9-.9-1.7-1.5-2.4-.7-.7-1.5-1.2-2.3-1.5-.9-.3-1.8-.5-2.8-.4h-4z"/>
</svg>