<svg xmlns="http://www.w3.org/2000/svg" viewBox="0 0 100 100">
	<g fill="#ff496c">
		<path d="m46.3 52.3 3.3 25 3.3-25v-.2h-6.6zM59.7 50.7 49.6 77.3l15-27h-4.7zM39.6 50.6l6.6 1.7-3.3-8.2zM53 52.3l6.6-1.7-3.3-6.5z"/>
		<path d="m39.5 50.7-.1-.4h-4.8l15 27-10.1-26.6zM68.1 44H68l-3.1 6.4-.2.2 8.4-1.4 2.7-6.6zM34.4 50.4 31.2 44h-.1l-7.7-1.4 2.8 6.6 8.3 1.4-.1-.2zM42.9 43.5H68l-6.9-15.4H58l-1.5 15.4-6.9-15.4-6.9 15.4-1.5-15.4h-3.1l-6.9 15.4h11.5z"/>
	</g>
	<g fill="#fd405f">
		<path d="m34.5 50.6-8.3-1.4 23.4 28.1-15-27-.2.1z"/>
		<path d="M64.9 50.4 68 44h.1l-.1-.5H56.3v.6l3.3 6.5-6.6 1.7 3.2-8.2v-.6H31.1v.3-.3l6.8-15.4h-2l-13 13.6.4.9L31 44h.1l3.2 6.4.2-.1h4.8l.2.4 10.1 26.6-3.3-25v-.2h6.6v.2l-3.3 25 10.1-26.6.2-.4h4.8l.2.1-.2-.1-15 27 23.4-28.1-8.3 1.4.1-.2zm-22-6.3 3.2 8.2-6.6-1.7 3.4-6.5z"/>
		<path d="m75.8 42.6.4-.9-13-13.6h-2.1L68 43.5l.1.5zM58 28.1h-8.4l6.9 15.4zM49.6 28.1h-8.4l1.5 15.4z"/>
	</g>
	<path fill="#96efff" d="M100 50c0 6.3-1.2 12.6-3.5 18.5L89 70l-4.6-7c6.2-16.4 0-35-15-44.2-4.8-3-10.2-4.8-15.8-5.4v-.1l5-6.8L54.8.2C80.2 2.6 100 24 100 50z"/>
	<path fill="#6ce0f9" d="m88 72.7 7.3-1.4c-11.7 25-41.5 35.7-66.5 24-10.6-5-19.1-13.5-24.1-24.1l4-6.4 8.2 1.4c8.9 18.3 30.9 25.9 49.1 17 7.5-3.7 13.6-9.8 17.2-17.4l4.8 6.9z"/>
	<path fill="#40daf4" d="M50.7 13.3H50c-20.3 0-36.8 16.5-36.7 36.8 0 4.6.9 9.1 2.5 13.4l-8.3-1.4-3.9 6.3C1.2 62.5 0 56.3 0 50 0 22.4 22.4 0 50 0h1.8l3.9 6.5-5 6.8z"/>
</svg>