<svg xmlns="http://www.w3.org/2000/svg" viewBox="0 0 100 100">
	<path fill="#C00" d="M87.042 62.589v4.572h8.26c1.692 0 4.597-1.238 4.698-4.699v-1.768c0-2.955-2.425-4.698-4.698-4.698h-4.117v-2.122h8.158v-4.597h-7.83c-2.02 0-4.723 1.667-4.723 4.774v1.591c0 3.107 2.677 4.699 4.723 4.699 5.683.025-1.364 0 3.89 0v2.222m-52.614-1.086s4.42-.379 4.42-6.087c0-5.709-5.355-6.24-5.355-6.24h-9.649v18.01h4.85v-4.344l4.193 4.344h7.173l-5.632-5.683Zm-1.87-3.688h-3.864v-4.117h3.89s1.086.404 1.086 2.046-1.112 2.071-1.112 2.071Zm18.263-8.512h-4.926c-3.51 0-4.698 3.183-4.698 4.698V67.16h4.925v-3.157h4.623v3.157h4.774V53.975c0-3.839-3.486-4.698-4.698-4.698Zm-.076 9.624h-4.648v-4.37s0-.985 1.541-.985h1.692c1.364 0 1.39.985 1.39.985v4.37h.025Z"/>
	<path fill="#C00" d="M71.255 49.277h-5.127V67.16h5.127V49.277Z"/>
	<path fill="#C00" d="M78.454 62.538V49.277h-5.102V67.16H85.35v-4.622h-6.896ZM1.768 67.16h19.955s-3.814-17.403 8.815-24.45c2.753-1.339 11.518-6.34 25.865 4.269.455-.38.884-.682.884-.682s-13.134-13.11-27.76-11.645c-7.35.657-16.392 7.35-21.697 16.191-5.304 8.84-6.062 16.317-6.062 16.317Z"/>
	<path fill="#C00" d="M1.768 67.16h19.955s-3.814-17.403 8.815-24.45c2.753-1.339 11.518-6.34 25.865 4.269.455-.38.884-.682.884-.682s-13.134-13.11-27.76-11.645c-7.35.657-16.392 7.35-21.697 16.191-5.304 8.84-6.062 16.317-6.062 16.317Z"/>
	<path fill="#C00" d="M1.768 67.16h19.955s-3.814-17.403 8.815-24.45c2.753-1.339 11.518-6.34 25.865 4.268.455-.378.884-.681.884-.681s-13.134-13.11-27.76-11.645c-7.375.657-16.418 7.35-21.722 16.191C2.5 59.683 1.768 67.16 1.768 67.16Zm41.576-31.093.101-1.693c-.227-.126-.858-.43-2.45-.884l-.1 1.667c.833.278 1.64.581 2.45.91Z"/>
	<path fill="#C00" d="m40.945 41.422-.101 1.59c.833.026 1.667.127 2.5.304l.101-1.566a17.885 17.885 0 0 0-2.5-.328Zm-9.346-7.881h.253L31.346 32c-.783 0-1.591.05-2.425.152l.48 1.49a21.345 21.345 0 0 1 2.198-.101Zm1.212 9.295.581 1.743a15.979 15.979 0 0 1 2.198-.884l-.556-1.667c-.859.252-1.591.53-2.223.808Zm-11.467-6.643-1.137-1.743c-.631.328-1.288.682-1.97 1.086l1.162 1.768a25.391 25.391 0 0 1 1.945-1.111Zm5.178 11.367 1.212 1.818c.43-.631.935-1.212 1.49-1.793l-1.136-1.718a13.967 13.967 0 0 0-1.566 1.693Zm-3.663 8.133 2.046 1.616c.101-.985.278-1.97.53-2.955l-1.818-1.44c-.328.935-.556 1.87-.758 2.779ZM11.796 43.695l-1.793-1.566a43.833 43.833 0 0 0-1.87 1.894l1.945 1.667a25.56 25.56 0 0 1 1.718-1.995Zm-7.628 11.29-2.905-1.06C.783 55.01.253 56.274 0 56.955l2.905 1.062c.328-.86.859-2.097 1.263-3.031ZM22.48 62.11c.05 1.338.177 2.425.303 3.182l3.032 1.086a33.378 33.378 0 0 1-.607-3.283l-2.728-.985Z"/>
</svg>