<svg xmlns="http://www.w3.org/2000/svg" viewBox="0 0 100 100">
	<linearGradient id="a" x1="87.8355" x2="67.1585" y1="-8.659" y2="28.747" gradientTransform="matrix(1 0 0 -1 0 101.433)" gradientUnits="userSpaceOnUse">
		<stop offset="0" stop-color="#fb7655"/>
		<stop offset=".41" stop-color="#e42b1e"/>
		<stop offset=".99" stop-color="#900"/>
		<stop offset="1" stop-color="#900"/>
	</linearGradient>
	<path fill="url(#a)" d="M77.5 66 20.4 99.9l73.9-5 5.7-74.5L77.5 66z"/>
	<linearGradient id="b" x1="98.3285" x2="68.7535" y1="27.2044" y2="32.8934" gradientTransform="matrix(1 0 0 -1 0 101.433)" gradientUnits="userSpaceOnUse">
		<stop offset="0" stop-color="#871101"/>
		<stop offset=".99" stop-color="#911209"/>
		<stop offset="1" stop-color="#911209"/>
	</linearGradient>
	<path fill="url(#b)" d="M94.4 94.8 88 50.9 70.8 73.8l23.6 21z"/>
	<linearGradient id="c" x1="57.8223" x2="57.4383" y1="-8.0763" y2="10.6797" gradientTransform="matrix(1 0 0 -1 0 101.433)" gradientUnits="userSpaceOnUse">
		<stop offset="0" stop-color="#871101"/>
		<stop offset=".99" stop-color="#911209"/>
		<stop offset="1" stop-color="#911209"/>
	</linearGradient>
	<path fill="url(#c)" d="M94.5 94.8 48 91.1l-27.3 8.6 73.8-4.9z"/>
	<linearGradient id="d" x1="19.6548" x2="28.7008" y1="36.6596" y2="11.2856" gradientTransform="matrix(1 0 0 -1 0 101.433)" gradientUnits="userSpaceOnUse">
		<stop offset="0" stop-color="#fff"/>
		<stop offset=".23" stop-color="#e57252"/>
		<stop offset=".46" stop-color="#de3b20"/>
		<stop offset=".99" stop-color="#a60003"/>
		<stop offset="1" stop-color="#a60003"/>
	</linearGradient>
	<path fill="url(#d)" d="m20.7 99.8 11.6-38.1-25.6 5.5 14 32.6z"/>
	<linearGradient id="e" x1="48.3048" x2="50.0058" y1="63.7866" y2="35.7076" gradientTransform="matrix(1 0 0 -1 0 101.433)" gradientUnits="userSpaceOnUse">
		<stop offset="0" stop-color="#fff"/>
		<stop offset=".23" stop-color="#e4714e"/>
		<stop offset=".56" stop-color="#be1a0d"/>
		<stop offset=".99" stop-color="#a80d00"/>
		<stop offset="1" stop-color="#a80d00"/>
	</linearGradient>
	<path fill="url(#e)" d="M70.8 73.9 60.1 32 29.4 60.7l41.4 13.2z"/>
	<linearGradient id="f" x1="76.5265" x2="78.9465" y1="89.0021" y2="68.6521" gradientTransform="matrix(1 0 0 -1 0 101.433)" gradientUnits="userSpaceOnUse">
		<stop offset="0" stop-color="#fff"/>
		<stop offset=".18" stop-color="#e46342"/>
		<stop offset=".4" stop-color="#c82410"/>
		<stop offset=".99" stop-color="#a80d00"/>
		<stop offset="1" stop-color="#a80d00"/>
	</linearGradient>
	<path fill="url(#f)" d="M97.6 32.6 68.6 9l-8 26 37-2.4z"/>
	<linearGradient id="g" x1="68.295" x2="71.578" y1="93.078" y2="107.023" gradientTransform="matrix(1 0 0 -1 0 101.433)" gradientUnits="userSpaceOnUse">
		<stop offset="0" stop-color="#fff"/>
		<stop offset=".54" stop-color="#c81f11"/>
		<stop offset=".99" stop-color="#bf0905"/>
		<stop offset="1" stop-color="#bf0905"/>
	</linearGradient>
	<path fill="url(#g)" d="M84 .5 67 9.9 56.3.4 84 .5z"/>
	<linearGradient id="h" x1="-2.1922" x2="6.4408" y1="37.5675" y2="32.1185" gradientTransform="matrix(1 0 0 -1 0 101.433)" gradientUnits="userSpaceOnUse">
		<stop offset="0" stop-color="#fff"/>
		<stop offset=".31" stop-color="#de4024"/>
		<stop offset=".99" stop-color="#bf190b"/>
		<stop offset="1" stop-color="#bf190b"/>
	</linearGradient>
	<path fill="url(#h)" d="m0 79.9 7.1-13-5.7-15.5L0 79.9z"/>
	<path fill="#fff" d="m1 50.9 5.8 16.5L32 61.7 60.8 35l8.1-25.8-12.8-9-21.7 8.1c-6.9 6.4-20.2 19-20.6 19.2-.5.2-8.8 15.9-12.8 23.4z"/>
	<linearGradient id="i" x1="-8.5855" x2="68.8695" y1="23.932" y2="103.357" gradientTransform="matrix(1 0 0 -1 0 101.433)" gradientUnits="userSpaceOnUse">
		<stop offset="0" stop-color="#bd0012"/>
		<stop offset=".07" stop-color="#fff"/>
		<stop offset=".17" stop-color="#fff"/>
		<stop offset=".27" stop-color="#c82f1c"/>
		<stop offset=".33" stop-color="#820c01"/>
		<stop offset=".46" stop-color="#a31601"/>
		<stop offset=".72" stop-color="#b31301"/>
		<stop offset=".99" stop-color="#e82609"/>
		<stop offset="1" stop-color="#e82609"/>
	</linearGradient>
	<path fill="url(#i)" d="M21.4 21.4C36.3 6.7 55.4-2 62.8 5.4c7.3 7.4-.4 25.4-15.3 40.2C32.6 60.2 13.6 69.4 6.3 62c-7.3-7.4.2-25.9 15.1-40.6z"/>
	<linearGradient id="j" x1="50.2356" x2="28.2316" y1="12.7025" y2="21.8635" gradientTransform="matrix(1 0 0 -1 0 101.433)" gradientUnits="userSpaceOnUse">
		<stop offset="0" stop-color="#8c0c01"/>
		<stop offset=".54" stop-color="#990c00"/>
		<stop offset=".99" stop-color="#a80d0e"/>
		<stop offset="1" stop-color="#a80d0e"/>
	</linearGradient>
	<path fill="url(#j)" d="m20.7 99.8 11.5-38.2 38.3 12.3C56.7 86.8 41.3 97.8 20.7 99.8z"/>
	<linearGradient id="k" x1="91.2181" x2="68.7331" y1="43.2614" y2="59.3474" gradientTransform="matrix(1 0 0 -1 0 101.433)" gradientUnits="userSpaceOnUse">
		<stop offset="0" stop-color="#7e110b"/>
		<stop offset=".99" stop-color="#9e0c00"/>
		<stop offset="1" stop-color="#9e0c00"/>
	</linearGradient>
	<path fill="url(#k)" d="m60.8 34.9 9.8 39c11.6-12.2 22-25.3 27-41.4l-36.8 2.4z"/>
	<linearGradient id="l" x1="98.8215" x2="87.9065" y1="77.044" y2="87.993" gradientTransform="matrix(1 0 0 -1 0 101.433)" gradientUnits="userSpaceOnUse">
		<stop offset="0" stop-color="#79130d"/>
		<stop offset=".99" stop-color="#9e120b"/>
		<stop offset="1" stop-color="#9e120b"/>
	</linearGradient>
	<path fill="url(#l)" d="M97.6 32.6c3.9-11.9 4.8-28.9-13.7-32.1L68.7 9l28.9 23.6z"/>
	<path fill="#9e1209" d="M0 79.8c.5 19.6 14.7 19.9 20.7 20.1L6.8 67.3 0 79.8z"/>
	<radialGradient id="m" cx="-4770.8394" cy="2985.1824" r="1" gradientTransform="matrix(25.5716 0 0 -13.3639 122071.4688 39932.6719)" gradientUnits="userSpaceOnUse">
		<stop offset="0" stop-color="#a80d00"/>
		<stop offset=".99" stop-color="#7e0e08"/>
		<stop offset="1" stop-color="#7e0e08"/>
	</radialGradient>
	<path fill="url(#m)" d="M60.9 35c8.9 5.5 26.8 16.4 27.2 16.6.6.3 7.7-12.1 9.4-19.1L60.9 35z"/>
	<radialGradient id="n" cx="-4817.4023" cy="3099.4038" r="1" gradientTransform="matrix(33.6387 0 0 -26.188 162089.7812 81240.3672)" gradientUnits="userSpaceOnUse">
		<stop offset="0" stop-color="#a30c00"/>
		<stop offset=".99" stop-color="#800e08"/>
		<stop offset="1" stop-color="#800e08"/>
	</radialGradient>
	<path fill="url(#n)" d="m32.2 61.5 15.4 29.8c9.1-4.9 16.3-11 22.8-17.4L32.2 61.5z"/>
	<linearGradient id="o" x1="19.3406" x2=".4756" y1="9.402" y2="25.073" gradientTransform="matrix(1 0 0 -1 0 101.433)" gradientUnits="userSpaceOnUse">
		<stop offset="0" stop-color="#8b2114"/>
		<stop offset=".43" stop-color="#9e100a"/>
		<stop offset=".99" stop-color="#b3100c"/>
		<stop offset="1" stop-color="#b3100c"/>
	</linearGradient>
	<path fill="url(#o)" d="m6.7 67.4-2.2 26c4.1 5.6 9.8 6.1 15.7 5.7C16 88.4 7.4 66.9 6.7 67.4z"/>
	<linearGradient id="p" x1="81.4439" x2="86.8509" y1="96.8087" y2="83.0297" gradientTransform="matrix(1 0 0 -1 0 101.433)" gradientUnits="userSpaceOnUse">
		<stop offset="0" stop-color="#b31000"/>
		<stop offset=".44" stop-color="#910f08"/>
		<stop offset=".99" stop-color="#791c12"/>
		<stop offset="1" stop-color="#791c12"/>
	</linearGradient>
	<path fill="url(#p)" d="m68.6 9 30.6 4.3C97.6 6.4 92.6 1.9 84 .5L68.6 9z"/>
</svg>