<svg xmlns="http://www.w3.org/2000/svg" viewBox="0 0 100 100">
	<linearGradient id="a" x1="64.1175" x2="51.4716" y1="44.1574" y2="77.3344" gradientTransform="matrix(1 0 0 -1 0 102)" gradientUnits="userSpaceOnUse">
		<stop offset="0" stop-color="#fe2857"/>
		<stop offset=".06" stop-color="#fe3052"/>
		<stop offset=".33" stop-color="#fd533b"/>
		<stop offset=".58" stop-color="#fc6c2a"/>
		<stop offset=".81" stop-color="#fc7b20"/>
		<stop offset="1" stop-color="#fc801d"/>
	</linearGradient>
	<path fill="url(#a)" d="M83.2 0 54.6 10.2 32 0l-7.4 18.7h-4.8v55.2l69.4.6 10.8-55L83.2 0z"/>
	<linearGradient id="b" x1="40.0318" x2="59.5526" y1="91.636" y2="73.7401" gradientTransform="matrix(1 0 0 -1 0 102)" gradientUnits="userSpaceOnUse">
		<stop offset="0" stop-color="#6b57ff"/>
		<stop offset="1" stop-color="#fe2857"/>
	</linearGradient>
	<path fill="url(#b)" d="M82.3 35.9 36.6 8.8l45.7 53.6V35.9z"/>
	<linearGradient id="c" x1=".4356" x2="64.7168" y1="85.9777" y2="4.2693" gradientTransform="matrix(1 0 0 -1 0 102)" gradientUnits="userSpaceOnUse">
		<stop offset="0" stop-color="#6b57ff"/>
		<stop offset=".3" stop-color="#fe2857"/>
		<stop offset=".63" stop-color="#fe2857"/>
		<stop offset=".64" stop-color="#fe3052"/>
		<stop offset=".7" stop-color="#fd533b"/>
		<stop offset=".76" stop-color="#fc6c2a"/>
		<stop offset=".81" stop-color="#fc7b20"/>
		<stop offset=".85" stop-color="#fc801d"/>
	</linearGradient>
	<path fill="url(#c)" d="m41.6 97.4 37.4-5-5.8-11.2h9.1V62.4L36.6 8.7 0 17.7v52.5L21 100l20.4-2.6h.2z"/>
	<path d="M19.8 18.8h62.5v62.5H19.8V18.8z"/>
	<path fill="#fff" d="M27.6 69.4H51v3.9H27.6v-3.9zm23.1-42.9h5.6l6.2 9.9 6.2-9.9h5.6V50h-5.1V34.7l-6.6 10h-.1L56 34.8V50h-5.1c-.2 0-.2-23.5-.2-23.5zm-23.1.1h10.7c3 0 5.2.8 6.8 2.4.7.7 1.2 1.6 1.6 2.5s.5 1.9.5 2.9v.1c.1 1.7-.4 3.3-1.4 4.6-.9 1.2-2.2 2.1-3.6 2.6l5.7 8.3h-6L37 42.8h-4.3V50h-5.1V26.6zM38 37.9c1 0 2.1-.3 2.9-.9.3-.3.6-.7.8-1.1.2-.4.3-.9.3-1.3v-.1c0-.5 0-.9-.2-1.4-.2-.4-.5-.8-.8-1.1-.9-.6-1.9-.9-3-.8h-5.2v6.7H38z"/>
</svg>