<svg xmlns="http://www.w3.org/2000/svg" viewBox="0 0 100 100">
	<path d="M99.8 49.2c-.1-.2-.3-.4-.5-.5l-4.2-2.6c0-.4-.1-.8-.1-1.2l3.6-3.4c.4-.3.5-.8.4-1.3-.1-.5-.4-.9-.9-1.1l-4.6-1.7c-.1-.4-.2-.8-.4-1.2l2.9-4c.5-.6.3-1.6-.3-2l-.6-.3-4.9-.8c-.2-.4-.4-.7-.6-1.1l2-4.5c.2-.5.2-1-.1-1.4-.3-.4-.8-.7-1.3-.6l-4.9.2c-.3-.3-.5-.6-.8-.9l1.1-4.8c.2-.8-.3-1.6-1.1-1.7-.2-.1-.4-.1-.7 0L79 15.4c-.3-.3-.6-.5-.9-.8l.2-4.9c0-.8-.6-1.5-1.4-1.5-.2 0-.4 0-.7.1l-4.5 2c-.4-.2-.7-.4-1.1-.6L70 4.9c-.1-.8-.9-1.3-1.7-1.2-.2 0-.4.1-.6.3l-4 2.9c-.4-.1-.8-.2-1.2-.4l-1.7-4.6C60.6 1.1 59.7.7 59 1c-.2.1-.4.2-.6.4L55.1 5c-.4 0-.8-.1-1.2-.1L51.3.7c-.4-.7-1.3-.9-2-.5-.2.1-.4.3-.5.5l-2.6 4.2c-.4 0-.8.1-1.2.1l-3.4-3.6c-.5-.6-1.5-.6-2-.1-.2.2-.3.3-.4.6l-1.7 4.6c-.4.1-.8.2-1.2.4l-4-2.9c-.6-.5-1.6-.3-2 .3-.2.2-.3.4-.3.6l-.8 4.9c-.4.2-.7.4-1.1.6l-4.5-2c-.5-.2-1-.2-1.4.1-.4.3-.7.8-.6 1.3l.2 4.9c-.3.3-.6.5-.9.8L16 14.3c-.5-.1-1 0-1.4.4-.4.4-.5.9-.4 1.4l1.1 4.8c-.3.3-.5.6-.8.9l-4.9-.2c-.8 0-1.5.6-1.5 1.4 0 .2 0 .4.1.7l2 4.5c-.2.4-.4.7-.6 1.1l-4.7.7c-.8.1-1.3.9-1.2 1.7 0 .2.1.4.3.6l2.9 4c-.1.4-.2.8-.4 1.2l-4.6 1.7c-.8.3-1.2 1.1-.9 1.8.1.2.2.4.4.6L5 45c0 .4-.1.8-.1 1.2L.7 48.8c-.7.4-.9 1.3-.5 2 .1.2.3.4.5.5l4.2 2.6c0 .4.1.8.1 1.2l-3.6 3.4c-.6.5-.6 1.5-.1 2 .2.2.3.3.6.4l4.6 1.7c.1.4.2.8.4 1.2l-2.9 4c-.5.6-.3 1.5.3 2 .2.1.4.2.6.2l4.9.8c.2.4.4.7.6 1.1l-2 4.5c-.2.5-.2 1 .1 1.4.3.4.8.7 1.3.6l4.9-.2c.3.3.5.6.8.9L14.3 84c-.1.5 0 1 .4 1.4.4.4.9.5 1.4.4l4.8-1.1c.3.3.6.5.9.8l-.2 4.9c0 .8.6 1.5 1.4 1.5.2 0 .4 0 .7-.1l4.5-2c.4.2.7.4 1.1.6l.8 4.9c.1.8.9 1.3 1.7 1.2.2 0 .4-.1.6-.3l4-2.9c.4.1.8.2 1.2.4l1.7 4.6c.2.5.6.8 1.1.9.5.1 1-.1 1.3-.4L45 95c.4 0 .8.1 1.2.1l2.6 4.2c.4.7 1.3.9 2 .5.2-.1.3-.3.5-.5l2.6-4.2c.4 0 .8-.1 1.2-.1l3.4 3.6c.3.4.8.5 1.3.4.5-.1.9-.4 1.1-.9l1.7-4.6c.4-.1.8-.2 1.2-.4l4 2.9c.6.5 1.6.3 2-.3l.3-.6.8-4.9c.4-.2.7-.4 1.1-.6l4.5 2c.7.3 1.6 0 1.9-.7.1-.2.1-.4.1-.7l-.2-4.9c.3-.3.6-.5.9-.8l4.8 1.1c.5.1 1 0 1.4-.4.4-.4.5-.9.4-1.3l-1.1-4.8c.3-.3.5-.6.8-.9l4.9.2c.5 0 1-.2 1.3-.6.3-.4.3-.9.1-1.4l-2-4.5c.2-.4.4-.7.6-1.1l4.9-.8c.8-.1 1.3-.9 1.2-1.7 0-.2-.1-.4-.3-.6l-2.9-4c.1-.4.2-.8.4-1.2l4.6-1.7c.5-.2.8-.6.9-1.1.1-.5-.1-1-.4-1.3L95 55.1c0-.4.1-.8.1-1.2l4.2-2.6c.7-.5.9-1.4.5-2.1zm-52-39.5c1.2-1.2 3.1-1.1 4.2.1 1.1 1.2 1.1 3.1-.1 4.2-1.2 1.1-3.1 1.1-4.2-.1-1.1-1.2-1.1-3.1.1-4.2zM11.7 39.9c-.7-1.5 0-3.3 1.5-3.9 1.5-.7 3.3 0 3.9 1.5.7 1.5 0 3.3-1.5 3.9-1.5.7-3.2 0-3.9-1.5zm3.1 19.8c-.9-3.3-1.4-6.6-1.4-10 0-1.3.1-2.6.2-3.9L20 43c1.4-.6 2-2.2 1.4-3.6l-1.3-3h5.2v23.4H14.8zm13.7 23.8c-1.6.3-3.2-.7-3.5-2.3-.3-1.6.7-3.2 2.3-3.5 1.6-.3 3.2.7 3.5 2.3.2 1.6-.8 3.1-2.3 3.5zm46.2-2.2c-.3 1.6-1.9 2.6-3.5 2.3-1.6-.3-2.6-1.9-2.3-3.5.3-1.6 1.9-2.6 3.5-2.3 1.7.3 2.7 1.9 2.3 3.5zm1.4-6L69.8 74c-1.5-.3-2.9.6-3.2 2.1l-1.5 7c-4.7 2.1-9.9 3.3-15.1 3.2-5.3 0-10.6-1.2-15.4-3.4l-1.5-7c-.3-1.5-1.7-2.4-3.2-2.1l-6.1 1.3c-1.1-1.2-2.2-2.4-3.2-3.7h29.9c.3 0 .6-.1.6-.4V60.4c0-.3-.2-.4-.6-.4h-8.7v-6.7h9.5c.9 0 4.6.2 5.8 5 .4 1.5 1.2 6.3 1.8 7.8.6 1.7 2.8 5.2 5.3 5.2h14.9c.2 0 .3 0 .5-.1-1.2 1.5-2.3 2.9-3.5 4.1zM41.7 43.5v-6.9H54c.6 0 4.5.7 4.5 3.6 0 2.4-3 3.3-5.4 3.3H41.7zm44.9 6.2c0 .9 0 1.8-.1 2.7h-3.8c-.4 0-.5.2-.5.6v1.7c0 4.1-2.3 4.9-4.3 5.2-1.9.2-4-.8-4.3-2-1.1-6.3-3-7.7-6-10 3.7-2.3 7.5-5.8 7.5-10.4 0-5-3.4-8.1-5.7-9.6-3.3-2.1-6.9-2.6-7.8-2.6H22.8c5.3-5.9 12.4-10 20.5-11.5l4.6 4.8c1 1.1 2.7 1.1 3.8.1l5.1-4.9c10.7 2 19.8 8.7 25 17.8l-3.5 7.9c-.6 1.4 0 3 1.4 3.6l6.7 3c.1 1.1.2 2.4.2 3.6zM88 40c-.7 1.5-2.4 2.2-3.9 1.5-1.5-.7-2.2-2.4-1.5-3.9.7-1.5 2.4-2.2 3.9-1.5 1.5.7 2.1 2.4 1.5 3.9z"/>
</svg>