<svg xmlns="http://www.w3.org/2000/svg" viewBox="0 0 100 100">
	<path fill="#00a1e0" d="M41.6 22.6c8.2-8.6 22.2-6.8 28.1 3.7C83.9 20 100 30.5 100 46.2c0 13.7-12.4 24-25.8 21.3C70 75 60.9 77.6 53.5 74c-6.4 15-27.8 14.5-33.4-.8C9.8 75.4 0 67.4 0 56.7c0-6 3.2-11.6 8.3-14.6C2.8 29.4 12.1 15 26.2 15c6.3 0 11.9 3 15.4 7.6z"/>
	<path fill="#fff" d="M14.5 51.3c-.1.2 0 .2 0 .2 2.2 1.6 6.9 1.7 6.9-1.8 0-3-4.9-2.4-4.9-4 0-1.5 2.6-1 3.9-.3.2.1.3.1.7-1.2.3-.8-6.4-2.5-6.4 1.7 0 3.2 4.9 2.3 4.9 4 0 .2 0 1.1-1.4 1.1-1.5 0-2.3-.6-3-1-.3-.1-.3.1-.7 1.3zm30 0c-.1.2 0 .2 0 .2 2.2 1.6 6.9 1.7 6.9-1.8 0-3-4.9-2.4-4.9-4 0-1.5 2.6-1 3.9-.3.2.1.3.1.7-1.2.3-.8-6.4-2.4-6.4 1.7 0 3.2 4.9 2.3 4.9 4 0 .2 0 1.1-1.4 1.1-1.5 0-2.4-.7-3-1-.3-.1-.3.2-.7 1.3zM65 47.9c0 1.7-.5 3.1-2.2 3.1-1.7 0-2.2-1.4-2.2-3.1 0-3.9 3.1-3.5 3.9-2.3.3.5.5 1.3.5 2.3zm1.7-1.9c-1.5-5.1-9.9-3.2-7.9 3.7 1.6 5 9.9 3.3 7.9-3.7zm14.1 4.7c-.1-.3-.3 0-1 .1-1.1.2-2.1.1-2.9-.7-1.3-1.4-1.4-6.8 3.6-5.2 0 0 .1.1.2-.1.1-.4.3-.7.4-1.2.1-.3-2.6-1-4.4-.2-3 1.3-3.1 5.8-1.3 7.7 1.8 2 6.1 1.2 5.9.6-.1.2-.5-1-.5-1zm3-3.8c.4-3 3.9-3 4.1 0h-4.1zm5-2.6c-2.1-2.2-7.1-1.5-7.1 3.6 0 6.5 7.9 4.5 7.6 3.8-.4-1.1-.4-1.2-.6-1.2-2.4.9-4.9.7-5-2.2 6.3 0 5.9.1 6-.1 0-.1 0-2.8-.9-3.9zm-51.4 2.6c.4-3 3.9-3 4.1 0h-4.1zm5.7-1.2c-1.3-4.6-9.6-2.8-7.5 4.1.4 1.1 1.1 2 2.3 2.4 1.4.6 3.8.4 5-.2.2-.1.1-.2-.3-1.3-.1-.2-.2-.1-.2-.1-2.4.9-4.9.7-5-2.2 6.3 0 5.9.1 6-.1-.1-.2.1-1.3-.3-2.6zm-18.2 2.8c-.1 0 .8-.7 3.3-.3v2.6s-.7.2-1.6.2c-2.7.2-2.6-1.9-1.7-2.5zm-1.4 3.4c1.8 1.3 6.5.3 6.5-.1 0-5.3.3-6.8-.9-7.9-1.9-1.6-6.3-.4-6 .2.9 2.4 0 .5 3.2.6 1.6 0 1.9.7 1.9 2-6.8-.8-6.4 3.9-4.7 5.2zm50.3-8.5c-.9-.4-2.7-.2-3.4.8 0-1.1.3-.9-1.7-.9-.1 0-.2.1-.2.2 0 9.3-.1 8.8.2 8.8 1.6 0 1.7.1 1.7-.2 0-3.4-.1-5.1.2-5.8.4-1.2 1.5-1.6 2.6-1.3.1 0 .2-.1.2-.2.5-1.2.6-1.3.4-1.4z"/>
	<path fill="#fff" d="M59.6 39.6c-2.6-.8-4.4.3-5.1 3.7-1.4 0-1.5-.1-1.5.2-.3 1.7-.6 1.4 1.2 1.4-1.5 8.4-1.3 10.4-3.7 10-.3-.1-.4-.2-.5 0-.5 1.2-.5 1.3-.3 1.4 5.2 1.8 5.2-4.2 6.4-11.4 2.1 0 2.1.1 2.1-.2.3-1.7.7-1.4-1.8-1.4.3-1.3.4-2.3 1.8-2.3 1.2 0 .8.8 1.5-1.2 0-.1-.1-.2-.1-.2zM32 52.3c-.3 0-.2 0-.2-12.5 0-.2.1-.2 1.7-.2.3 0 .2 0 .2 12.5-.1.3 0 .2-1.7.2z"/>
</svg>