<svg xmlns="http://www.w3.org/2000/svg" viewBox="0 0 100 100">
	<linearGradient id="a" x1="50" x2="50" y1="96.6789" y2="6.1872" gradientTransform="matrix(1 0 0 -1 0 101.433)" gradientUnits="userSpaceOnUse">
		<stop offset="0" stop-color="#99a29b"/>
		<stop offset="1" stop-color="#738777"/>
	</linearGradient>
	<path fill="url(#a)" d="M89 7.9V11H53.7c-29.5 0-35.5.1-36.5.2-.7.1-1.3.2-1.3.3 0 0-.3.1-.5.2-.2 0-.7.2-1.1.4-.4.2-.8.3-.8.3-.1 0-.2.1-.2.1 0 .1-.1.1-.2.1s-.2.1-.3.2c0 .1-.1.2-.2.2-.2 0-1.5 1.3-1.5 1.6 0 .1-.1.1-.1.1-.2 0-1.2 2-1.3 2.6 0 .3-.1.5-.2.5s-.2.5-.3 1.1c-.1.9-.2 4.8-.2 18.9 0 9.9 0 17.9.1 17.9.1.1.2.3.2.5.1.4.9 1.2 1.2 1.2.1 0 .2.1.2.2s6.6.2 32.3.2c21 0 32.3.1 32.4.2.1.1.3.1.5.1.5 0 1.1.4 1.7 1 1.1 1.1 1.2 1.7 1.2 6.5 0 2.5-.1 4-.1 4.3-.4 1.3-.6 1.7-1.1 2.2-.6.6-1.3 1-1.8 1-.2 0-.3.1-.4.1-.1.1-10.9.1-32.2.1H11.1V70c0-2.8 0-3.3-.2-3.3-.1 0-.2.1-.2.2s0 .2-.1.2-.3.3-.6.6c-.2.3-.5.6-.5.7-.2.2-.9 1.2-.9 1.2s-.1.2-.3.4c-.2.2-.3.3-.3.4 0 .1-.1.3-.3.4-.5.5-1.1 1.4-1.1 1.5 0 .1-.1.2-.3.4-.2.2-.3.3-.3.4 0 0-.1.2-.2.3-.3.4-.4.6-1.2 1.6-.4.5-.7.9-.7.9-.1 0-.1.1-.1.2s0 .2-.1.2-.2.2-.4.5-.4.6-.5.6c-.1.1-.3.3-.5.6-.2.2-.4.5-.5.6-.1.1-.2.2-.2.3 0 .1-.1.2-.3.4l-.3.3c0 .1-.1.3-.3.4-.1.2-.4.4-.5.6-.3.4-.3.6.1 1 .2.2.3.4.3.4l.2.2c.1.1.3.4.5.6.2.2.4.5.5.6.1.1.3.4.5.6.2.3.4.5.4.5.1 0 .1.1.1.2s0 .2.1.2.3.3.6.6c.2.3.5.6.5.6l.4.6c.2.3.4.5.4.5.1 0 .1.1.1.1 0 .1.1.3.3.4.2.2.3.3.3.4 0 .1.5.8 1 1.3.1.1.2.2.3.4.1.1.2.2.2.3 0 0 .1.2.3.4.1.3.2.5.2.5 0 .1.7 1.1.9 1.2 0 0 .3.3.5.7.2.3.5.6.6.6.1 0 .1.1.1.2s.7 1.1 1.1 1.5c.3.2.3.2.3-3.1v-3.3h36.5c37.6 0 37.3 0 38.5-.5.1 0 .5-.2 1-.3.4-.1.9-.3 1-.4.1-.1.4-.2.5-.2.1 0 .2-.1.2-.1 0-.1.1-.1.2-.2.8-.3 3.3-2.6 3.3-3.1 0-.1.1-.1.1-.1.1 0 .2-.1.2-.3.1-.2.1-.3.2-.4.1-.1.7-1.4.9-2.2.3-1 .6-2.5.8-4 .2-1.7.1-23.6-.1-24.9-.2-1-.4-2.2-.6-2.4 0-.1-.1-.3-.2-.5-.1-.6-.7-1.7-1.3-2.6-.5-.7-1.5-1.9-1.7-1.9 0 0-.2-.1-.3-.2-.4-.3-.5-.4-1.1-.7-.3-.1-.6-.3-.6-.4 0-.1-.2-.1-.5-.2-.3 0-.5-.1-.5-.2s-.2-.1-.5-.2-.6-.1-.7-.2c-.9-.4-1.3-.4-29.9-.5-28.2-.1-29.3-.1-29.7-.5 0 0-.3-.2-.5-.3-.5-.3-.9-.7-.9-.9 0-.1-.1-.2-.1-.2-.1 0-.1-.1-.1-.2s-.1-.3-.2-.6c-.2-.4-.2-.9-.2-5 0-3.6 0-4.7.2-5l.4-.8c.3-.6 1-1.3 1.5-1.4.2 0 .3-.1.3-.2 0-.4 2-.4 31.7-.4h30v3.1c0 1.7 0 3.1.1 3.2.1.1.6-.4.6-.5 0 0 .1-.2.3-.4.2-.2.6-.7.9-1.1.3-.4.7-.9.8-1 .1-.1.3-.3.4-.5.3-.4.5-.7.8-1.1.1-.1.3-.4.5-.6.1-.2.3-.4.3-.4.1 0 .2-.2.4-.5l.4-.6c.1-.1.3-.3.5-.6.2-.2.5-.6.7-.9.2-.2.4-.5.4-.6 0-.1 0-.2.1-.2s.3-.3.6-.6c.2-.3.5-.6.5-.7.2-.2.9-1.2.9-1.2s.1-.2.3-.4c.2-.2.3-.3.3-.4 0-.1.2-.3.4-.5 1.2-1.4 1.2-1.3.7-1.9-.2-.3-.4-.5-.4-.6 0 0-.1-.2-.3-.4-.2-.2-.3-.3-.3-.4 0-.1-.1-.2-.5-.6-.1-.1-.4-.5-.8-1s-.7-.9-.7-.9c-.1 0-.1-.1-.1-.2s0-.2-.1-.2-.2-.2-.4-.5-.4-.5-.5-.6c-.1-.1-.3-.3-.5-.6-.2-.2-.4-.5-.5-.6-.1-.1-.2-.2-.2-.3 0 0-.1-.2-.3-.4-.2-.2-.3-.3-.3-.4 0-.1-.6-1-1.1-1.4-.1-.1-.2-.3-.2-.4 0-.1-.1-.2-.2-.3-.1-.1-.5-.6-.8-1l-.6-.8-.6-.8c-.6-.8-1-1.2-1.1-1.2-.2.2-.2 1.6-.2 3.3z"/>
</svg>