<svg xmlns="http://www.w3.org/2000/svg" viewBox="0 0 100 100">
	<linearGradient id="a" x1="50" x2="50" y1="75.9915" y2="26.5818" gradientTransform="matrix(1 0 0 -1 0 101.433)" gradientUnits="userSpaceOnUse">
		<stop offset="0" stop-color="#00b8f1"/>
		<stop offset=".2" stop-color="#00a2e0"/>
		<stop offset=".51" stop-color="#0087cc"/>
		<stop offset=".79" stop-color="#0077bf"/>
		<stop offset="1" stop-color="#0071bb"/>
	</linearGradient>
	<path fill="url(#a)" d="M100 25.3 51.6 73.7H0V25.3h100z"/>
	<path fill="#fff" d="M59.3 34.6h-9.8V58l-8.6-23.4h-8.5L25 54.2c-.8-4.9-5.9-6.6-9.9-7.9-2.7-.9-5.5-2.1-5.4-3.5 0-1.1 1.5-2.2 4.5-2 2.5.1 5 .7 7.2 1.9l3.4-6c-3.5-1.7-7.3-2.6-11.1-2.6-4.2 0-7.7 1.4-9.8 3.6-1.5 1.5-2.3 3.6-2.4 5.7-.1 1.3.2 2.7.8 3.9.6 1.2 1.5 2.2 2.6 3 2.1 1.4 4.3 2.4 6.7 3.1 2.8.9 5 1.6 4.9 3.2 0 .6-.2 1.1-.6 1.5-.4.4-.9.6-1.5.8-.5.2-1.1.2-1.7.2-2.8.1-4.9-.4-8.2-2.3l-3 6c3.4 1.9 7.2 3 11.1 3h.4c3.1.1 6.1-1 8.5-2.8.1-.1.2-.2.4-.3l-1 2.6h8.9l1.5-4.6c3.4 1.1 7 1.1 10.4 0l1.4 4.5h14.6v-9.4h3.2c7.7 0 12.2-3.9 12.2-10.5 0-7.4-4.4-10.7-13.8-10.7zm-22.7 20c-1.1 0-2.1-.2-3.2-.6l3.1-9.8h.1l3.1 9.9c-1 .3-2.1.5-3.1.5zM59.9 49h-2.2v-8h2.2c2.9 0 5.2.9 5.2 3.9S62.8 49 59.9 49z"/>
	<path fill="#0071bb" d="M62.5 71.5c0-.5.2-1 .5-1.4.3-.4.7-.7 1.2-.9.5-.2 1-.2 1.5-.1s1 .4 1.3.7c.4.4.6.8.7 1.3.1.5 0 1-.2 1.5s-.5.9-1 1.2c-.4.3-.9.4-1.4.4-.3 0-.7-.1-1-.2-.3-.1-.6-.3-.9-.6s-.4-.5-.6-.9c0-.3-.1-.7-.1-1zm2.6 3.2c.6 0 1.2-.2 1.8-.6.5-.4.9-.9 1.2-1.4.2-.6.3-1.2.2-1.8-.1-.6-.4-1.2-.9-1.6-.5-.4-1-.7-1.6-.9-.6-.1-1.3-.1-1.8.2-.6.2-1.1.7-1.4 1.2-.4.5-.5 1.1-.5 1.8 0 .4.1.8.2 1.2.2.4.4.7.7 1 .3.3.7.5 1.1.7.2.1.6.2 1 .2zm-.6-2.9h.6l1 1.6h.6l-1.1-1.6c.1 0 .3 0 .4-.1.1-.1.2-.1.3-.2.1-.1.2-.2.2-.3 0-.1.1-.3 0-.4 0-.7-.4-1.1-1.3-1.1h-1.4v3.7h.6l.1-1.6zm0-.5v-1.1h.8c.4 0 .8.1.8.5 0 .5-.4.6-.9.6h-.7z"/>
</svg>