<svg xmlns="http://www.w3.org/2000/svg" viewBox="0 0 100 100">
	<path fill="#159497" d="M85.83 13.236C76.536-.076 58.221-4.007 44.91 4.48L21.681 19.31C9.77 26.862 5.801 42.848 12.39 55.227c-6.208 9.594-5.762 22.222.893 31.538 9.292 13.312 27.607 17.243 40.919 8.756L77.52 80.69c12.011-7.614 15.727-23.448 9.292-35.916 6.234-9.636 5.612-22.173-.983-31.538Z"/>
	<path fill="#fff" d="M22.843 80.778c-3.547-4.965-3.83-10.846-1.966-16.439a34.25 34.25 0 0 0 11.168 5.718c-.154 1.543-.06 2.978.893 4.289 1.34 1.876 3.753 2.77 5.986 2.233.537-.178.983-.357 1.43-.625l23.229-14.83c2.467-1.519 2.84-4.853 1.25-7.148-1.664-2.33-4.965-3.078-7.415-1.608l-8.934 5.628a17.289 17.289 0 0 1-4.735 2.055c-7.505 1.965-15.456-.983-19.834-7.326-2.68-3.752-3.752-8.398-2.859-12.955.804-4.467 3.395-8.398 7.237-10.81L51.7 14.04c8.049-5.03 19.183-2.534 24.57 5.271 3.535 4.95 3.828 10.849 1.965 16.439a34.22 34.22 0 0 0-11.168-5.718c.156-1.558.07-3.053-.893-4.378-1.688-2.362-4.961-2.991-7.416-1.519L35.44 39.055c-2.486 1.53-2.958 4.81-1.34 7.148 1.669 2.336 4.956 3.083 7.415 1.608l8.935-5.628a17.288 17.288 0 0 1 4.735-2.055c7.505-1.966 15.456.983 19.834 7.326a17.124 17.124 0 0 1 2.948 12.954c-.804 4.468-3.395 8.399-7.237 10.81L47.412 86.05c-8.049 5.03-19.182 2.534-24.57-5.272Z"/>
</svg>