<svg xmlns="http://www.w3.org/2000/svg" viewBox="0 0 100 100">
	<path fill="#c69" d="M50 0c27.6 0 50 22.4 50 50s-22.4 50-50 50S0 77.6 0 50 22.4 0 50 0z"/>
	<path fill="#fff" d="M81.4 21.4c-2.3-8.9-17-11.8-30.9-6.9-8.3 2.9-17.3 7.6-23.7 13.6-7.7 7.2-8.9 13.4-8.4 16 1.8 9.2 14.4 15.2 19.6 19.7-1.5.8-12.7 6.4-15.3 12.2-2.8 6.1.4 10.5 2.6 11.1 6.6 1.8 13.3-1.5 16.9-6.9 3.5-5.2 3.2-12 1.7-15.3 2.1-.6 4.5-.8 7.7-.4 8.8 1 10.5 6.5 10.2 8.8-.3 2.3-2.2 3.6-2.8 3.9-.6.4-.8.5-.8.8.1.4.4.4.9.3.7-.1 4.6-1.9 4.8-6.1.2-5.4-4.9-11.4-14-11.2-3.8.1-6.1.4-7.8 1.1l-.4-.4c-5.6-6-16-10.3-15.6-18.3.2-2.9 1.2-10.7 20-20.1 15.4-7.7 27.8-5.6 29.9-.9 3 6.7-6.6 19.1-22.6 20.9-6.1.7-9.3-1.7-10.1-2.6-.8-.9-1-1-1.3-.8-.5.3-.2 1.1 0 1.6.5 1.2 2.4 3.5 5.8 4.6 2.9 1 10.1 1.5 18.8-1.9 9.4-3.6 17-14.1 14.8-22.8zM40.1 66.7c.7 2.7.6 5.2-.1 7.5l-.6 1.5C38.8 76.8 38 78 37 79c-2.9 3.2-7 4.4-8.7 3.4-1.9-1.1-.9-5.6 2.4-9.1 3.6-3.8 8.8-6.3 8.8-6.3.3-.2.4-.3.6-.3z"/>
</svg>