<svg xmlns="http://www.w3.org/2000/svg" viewBox="0 0 100 100">
	<linearGradient id="a" x1="19.2308" x2="6173.0737" y1="36.0486" y2="36.0486" gradientTransform="matrix(1 0 0 -1 0 101.433)" gradientUnits="userSpaceOnUse">
		<stop offset="0" stop-color="#4f4f4f"/>
		<stop offset="1"/>
	</linearGradient>
	<path fill="url(#a)" d="M19.2 61.5v7.7c0 1.3 28 3.5 46.2 7.7 8.8-2 15.3-4.6 15.3-7.7v-7.7c0-3.1-6.5-5.7-15.3-7.7-18.2 4.3-46.2 6.4-46.2 7.7z"/>
	<linearGradient id="b" x1="19.2308" x2="6173.0737" y1="66.8176" y2="66.8176" gradientTransform="matrix(1 0 0 -1 0 101.433)" gradientUnits="userSpaceOnUse">
		<stop offset="0" stop-color="#4f4f4f"/>
		<stop offset="1"/>
	</linearGradient>
	<path fill="url(#b)" d="M19.2 30.8v7.7c0 1.3 28 3.5 46.2 7.7 8.8-2 15.3-4.6 15.3-7.7v-7.7c0-3.1-6.5-5.7-15.3-7.7-18.2 4.2-46.2 6.4-46.2 7.7z"/>
	<linearGradient id="c" x1="19.2308" x2="6173.0737" y1="51.4328" y2="51.4328" gradientTransform="matrix(1 0 0 -1 0 101.433)" gradientUnits="userSpaceOnUse">
		<stop offset="0" stop-color="#c40000"/>
		<stop offset="1" stop-color="red"/>
	</linearGradient>
	<path fill="url(#c)" d="M19.2 46.2v23.1c0-1.9 61.5-5.8 61.5-15.4V30.8c.1 9.6-61.5 13.4-61.5 15.4z"/>
	<linearGradient id="d" x1="19.2308" x2="6173.0737" y1="82.2023" y2="82.2023" gradientTransform="matrix(1 0 0 -1 0 101.433)" gradientUnits="userSpaceOnUse">
		<stop offset="0" stop-color="#c40000"/>
		<stop offset="1" stop-color="red"/>
	</linearGradient>
	<path fill="url(#d)" d="M19.2 15.4v23.1c0-1.9 61.5-5.8 61.5-15.4V0c.1 9.6-61.5 13.5-61.5 15.4z"/>
	<linearGradient id="e" x1="19.2308" x2="6173.0737" y1="20.6638" y2="20.6638" gradientTransform="matrix(1 0 0 -1 0 101.433)" gradientUnits="userSpaceOnUse">
		<stop offset="0" stop-color="#c40000"/>
		<stop offset="1" stop-color="red"/>
	</linearGradient>
	<path fill="url(#e)" d="M19.2 76.9V100c0-1.9 61.5-5.8 61.5-15.4V61.5c.1 9.7-61.5 13.5-61.5 15.4z"/>
</svg>