<svg xmlns="http://www.w3.org/2000/svg" viewBox="0 0 100 100">
	<path fill="#F9A83A" d="M60.52.005c-4.797.125-8.583 2.363-11.036 4.752-5.24-.657-10.67-.377-15.476 1.997-4.552 2.249-7.521 5.723-9.379 9.096-2.741 4.976-3.499 10.58-3.91 16.153.145 5.556-.148 10.856 1.59 16.257-2.632 3.157-3.968 7.09-3.885 11.186.07 3.402-.098 6.74-.292 10.128-.441 7.737.367 15.754.33 14.312.133 5.108 2.662 9.07 5.218 11.497 2.557 2.426 6.646 4.745 11.754 4.612 4.854-.127 9.47-2.563 12.475-6.347 9.529 1.31 18.23-2.358 24.408-7.91 6.002-5.31 10.248-13.694 10.026-22.185-.201-7.706-2.83-13.678-6.604-18.155.818-1.962 1.132-3.97 1.188-6.093l.294-11.256c.135-5.241.29-11.22.27-11.935C77.26 7.234 69.4-.226 60.52.005Z"/>
	<path fill="#fff" d="M46.612 46.062c-4.213-.601-6.62-3.611-5.417-12.037 0-3.761.61-10.233 5.417-10.233 3.72 0 7.438 5.46 8.427 8.427 1.204 2.407 1.204 4.213 1.806 6.019v2.407c0 1.204 1.203 2.408 3.01 3.01 1.805.602 3.61-1.204 4.212-3.01 0 0 1.204-22.872 1.204-23.474 0-1.805-1.805-3.61-3.611-3.61-1.806 0-3.611 1.805-3.611 3.61v6.621c-3.01-3.01-6.621-6.019-10.835-6.019-9.877-1.56-13.241 7.4-13.241 15.65-1.204 11.436 2.407 18.658 11.436 20.464 9.63 1.806 16.25 3.611 16.25 9.63 0 6.615-7.58 9.972-13.24 9.029-3.27 0-7.608-2.575-9.03-5.417-.695-2.782-1.203-5.559-1.203-8.427 0-1.805-1.806-3.611-3.611-3.611-1.806 0-3.612 1.806-3.612 3.611 0 8.24-.602 16.438-.602 24.678 0 1.806 1.806 3.611 3.612 3.611 1.805 0 3.611-1.805 3.611-3.611v-6.62c2.408 1.805 6.019 3.61 10.232 4.212 5.417 1.204 10.834-.602 15.048-4.213 3.611-3.01 6.019-7.825 6.019-12.038 0-15.047-15.048-17.455-22.27-18.659Z"/>
</svg>