<svg xmlns="http://www.w3.org/2000/svg" viewBox="0 0 100 100">
	<linearGradient id="a" x1="0" x2="100" y1="51.433" y2="51.433" gradientTransform="matrix(1 0 0 -1 0 101.433)" gradientUnits="userSpaceOnUse">
		<stop offset="0" stop-color="#007c42"/>
		<stop offset="1" stop-color="#6cce7a"/>
	</linearGradient>
	<path fill="url(#a)" d="M77.7 99.4c-1.2.5-2.4.7-3.7.5-15.6-2.1-30.4-8-43.2-17.3C17.7 73.1 7.3 60.3.6 45.6c-1.1-2.3-.8-5.1.7-7.2C21.2 11.4 54-3 87.4.5c2.6.3 4.9 2 5.9 4.4 6.2 15.4 8.2 32.1 5.8 48.5-2.3 15.9-8.7 31-18.4 43.7-.9 1.1-1.9 1.9-3 2.3z"/>
	<path fill="#fff" d="M77.6 66.4c-.3 0-.5-.1-.8-.2-2-.7-3.1-2.9-2.4-4.9 1.2-3.4.1-5-.3-5.5-3-4.2-13.1-4.6-17.3-4.5-10.3.1-17.2-2.4-20.5-7.5-3.3-5.1-2-10.5-.9-13.1 1-1.9 3.3-2.6 5.2-1.6 1.7.9 2.5 2.9 1.9 4.7 0 .1-1.3 3.4.3 5.8s6.7 4 14 4c12-.1 19.9 2.5 23.7 7.8 2.5 3.5 2.9 7.8 1.3 12.5-.6 1.7-2.3 2.8-4.2 2.5z"/>
	<path opacity=".7" fill="#fff" d="M81 29.5c-8-10.4-16.2-12.1-23.3-12.3-4.6-.2-9.2.6-13.5 2.1-1.8.7-2.8 2.8-2 4.7.7 1.8 2.8 2.8 4.7 2.1 3.4-1.2 7-1.7 10.6-1.6 8 .2 12.7 2.9 17.7 9.5.5.7 1.2 1.1 2.1 1.3 2 .4 3.9-.8 4.3-2.7.3-1.1 0-2.2-.6-3.1zM70.3 68.7c-3.4 1.1-7 1.7-10.6 1.6-8-.2-14.6-3.7-19.6-10.2-1.3-1.5-3.6-1.7-5.1-.4-1.4 1.2-1.7 3.2-.6 4.8C40.1 72 47 75.4 53 76.7c2.1.5 4.3.8 6.5.8 4.6.1 9.1-.6 13.5-2.1 1.9-.7 2.8-2.8 2-4.7-.7-1.8-2.8-2.7-4.7-2z"/>
</svg>