<svg xmlns="http://www.w3.org/2000/svg" viewBox="0 0 100 100">
	<path fill="#01a71c" d="M66 64.2c-4-.2-7.4 2.8-7.9 6.8 0 .1 0 .3.2.3H73.6c.1 0 .2-.1.2-.2-.3-4.2-3.8-7.2-7.8-6.9z"/>
	<path fill="#01a71c" d="M99.5 12.7c-.2-.1-.4 0-.5 0-.2.1-.3.2-.4.4L66.3 49.4c-.4.4-1 .4-1.4.1l-.1-.1-16.5-17c-.3-.4-.3-.9 0-1.2l5.4-7c.3-.4.9-.5 1.4-.2.1.1.2.1.2.2l9.2 10.2c.3.4 1 .5 1.4.1l.1-.1L91.9 1.1c.2-.3.1-.8-.2-1-.1-.1-.2-.1-.4-.1H.8C.3 0 0 .3 0 .8v98.5c0 .4.3.8.8.8h98.4c.4 0 .8-.3.8-.8V13.6c.1-.4-.1-.8-.5-.9zM27.9 91.1c-.1 0 0 0 0 0-6.5.3-12.8-1.9-17.6-6.2-.3-.4-.3-.9 0-1.3l3.8-5.4c.3-.5.8-.6 1.3-.4 3.5 3.3 8.1 5.1 12.9 5 5 0 7.5-2.3 7.5-4.8 0-7.6-24.9-2.4-24.9-18.6 0-7.2 6.2-13.1 16.4-13.1 5.9-.2 11.6 1.7 16.1 5.4.4.4.4 1 0 1.3l-3.8 5.3c-.3.4-.9.5-1.3.2-3.4-2.7-7.5-4.1-11.8-4.1-3.9 0-6.2 1.8-6.2 4.3 0 6.9 24.8 2.3 24.8 18.5 0 7.9-5.6 13.9-17.2 13.9zM81.3 77c-.1 0-.1 0 0 0H58.4c-.2 0-.3.1-.2.3.8 4.4 4.8 7.5 9.2 7.1 2.8-.1 5.6-1 7.9-2.6.4-.3.9-.2 1.2.1 0 0 0 .1.1.1l2.8 4c.2.4.2.9-.2 1.1-3.7 2.7-8.1 4.1-12.6 3.9-9 .5-16.6-6.4-17.1-15.3v-1.6c-.3-9 6.8-16.5 15.9-16.8h.7c9.6 0 16.1 7.2 16.1 17.7v1c-.1.6-.5 1-.9 1z"/>
</svg>