<svg xmlns="http://www.w3.org/2000/svg" viewBox="0 0 100 100">
	<path fill="#95C93D" d="m82.294 59.785.66 6.637c0 13.2-7.595 24.626-18.654 30.147L57.58 100c4.617-2.45 7.61-7.402 7.61-12.645 0-5.668-3.297-10.564-8.076-12.881l-19.85-9.95-.007-.018.007.018c-9.975-5-17.758-13.575-19.765-25.156l.009.002.017.005-.01-.003-.016-.006v.002L17 33.576c0-13.198 7.594-24.623 18.654-30.143L42.374 0c-4.527 2.402-7.61 7.163-7.61 12.644 0 6.223 3.857 10.767 9.195 13.444l20.819 10.436a33.67 33.67 0 0 1 2.214 1.258l.008.005a.064.064 0 0 1 .008.005l.004.002c7.77 4.822 13.428 12.72 15.282 21.99Z"/>
</svg>