<svg xmlns="http://www.w3.org/2000/svg" viewBox="0 0 100 100">
	<path fill="#036c70" d="M51.2 57c15.4 0 27.9-12.5 27.9-27.9s-12.5-28-27.9-28-27.9 12.5-27.9 28S35.8 57 51.2 57z"/>
	<path fill="#1a9ba1" d="M74.4 80.2c14.1 0 25.6-11.5 25.6-25.6C100 40.5 88.5 29 74.4 29c-14.1 0-25.6 11.5-25.6 25.6 0 14.2 11.5 25.6 25.6 25.6z"/>
	<path fill="#37c6d0" d="M54.7 98.9c10.9 0 19.8-8.9 19.8-19.8s-8.9-19.8-19.8-19.8-19.8 8.9-19.8 19.8 8.8 19.8 19.8 19.8z"/>
	<path opacity=".1" d="M55.8 26.3V76c0 1.7-1.1 3.3-2.7 3.9-.5.2-1.1.3-1.6.3H34.9v-2.4c.4-7.4 5-14 11.8-17v-4.3c-15.2-2.4-25.6-16.7-23.2-31.9 0-.1 0-.2.1-.3.1-.8.3-1.6.5-2.3h27.4c2.4.1 4.3 2 4.3 4.3z"/>
	<path opacity=".2" d="M49.2 24.4H23.7C21.1 39.6 31.3 54 46.5 56.6c.5.1.9.1 1.4.2-7.2 3.4-12.5 13.1-12.9 21.1 0 .4-.1.8 0 1.2v1.2c0 .8.1 1.6.3 2.3h14c1.7 0 3.3-1.1 3.9-2.7.2-.5.3-1.1.3-1.6V28.7c0-2.4-1.9-4.3-4.3-4.3z"/>
	<path opacity=".2" d="M49.2 24.4H23.7C21.1 39.6 31.3 54 46.5 56.6c.3.1.6.1.9.1-7 3.7-12 13.4-12.5 21.2h14.3c2.3 0 4.2-1.9 4.3-4.3v-45c0-2.3-1.9-4.2-4.3-4.2z"/>
	<path opacity=".2" d="M46.9 24.4H23.7c-2.4 14.3 6.5 28.1 20.6 31.7-5.3 6.1-8.6 13.7-9.3 21.8h12c2.3 0 4.2-1.9 4.3-4.3v-45c-.1-2.3-2-4.2-4.4-4.2z"/>
	<linearGradient id="a" x1="8.8789" x2="42.2838" y1="80.3505" y2="22.5156" gradientTransform="matrix(1 0 0 -1 0 101.433)" gradientUnits="userSpaceOnUse">
		<stop offset="0" stop-color="#058f92"/>
		<stop offset=".5" stop-color="#038489"/>
		<stop offset="1" stop-color="#026d71"/>
	</linearGradient>
	<path fill="url(#a)" d="M4.3 24.4h42.6c2.4 0 4.3 1.9 4.3 4.3v42.7c0 2.4-1.9 4.3-4.3 4.3H4.3c-2.4 0-4.3-1.9-4.3-4.3V28.7c0-2.4 1.9-4.3 4.3-4.3z"/>
	<path fill="#fff" d="M19 49.5c-1-.7-1.8-1.5-2.4-2.6-.6-1.1-.9-2.3-.8-3.5-.1-1.7.5-3.3 1.6-4.6 1.1-1.3 2.6-2.2 4.2-2.7 1.9-.6 3.8-.9 5.7-.9 2.6-.1 5.1.3 7.6 1.1v5.4c-1.1-.6-2.2-1.1-3.4-1.4-1.3-.3-2.7-.5-4-.5-1.4-.1-2.8.2-4.1.9-1 .4-1.6 1.4-1.6 2.5 0 .7.2 1.3.7 1.7.5.6 1.2 1 1.9 1.3.8.4 1.9.9 3.5 1.5.2.1.3.1.5.2 1.5.6 3 1.3 4.4 2.2 1.1.7 2 1.6 2.6 2.6.7 1.2 1 2.6.9 4 .1 1.7-.4 3.4-1.5 4.8-1 1.3-2.4 2.2-4 2.7-1.8.6-3.7.8-5.6.8-1.7 0-3.4-.1-5.1-.4-1.4-.2-2.8-.6-4.1-1.2v-5.6c1.3.9 2.7 1.6 4.2 2 1.5.5 3.1.7 4.6.7 1.5.1 2.9-.2 4.2-.9.9-.5 1.5-1.5 1.4-2.5 0-.7-.3-1.4-.8-1.9-.6-.6-1.4-1.1-2.2-1.5-.9-.5-2.3-1.1-4.1-1.8-1.6-.8-3-1.6-4.3-2.4z"/>
</svg>