<svg xmlns="http://www.w3.org/2000/svg" viewBox="0 0 100 100">
	<path fill="#FDB300" d="M21.818 7.98 50 5l28.182 2.98L100 37.267 50 95.493 0 37.268 21.818 7.98Z"/>
	<path fill="#EA6C00" d="M20.253 37.268 50 95.493 0 37.268h20.253Zm59.495 0L50 95.493l50-58.225H79.748Z"/>
	<path fill="#FDAD00" d="M20.252 37.268h59.496L50 95.493 20.252 37.268Z"/>
	<path fill="#FDD231" d="M50 5 21.818 7.98l-1.566 29.288L50 5Zm0 0 28.182 2.98 1.565 29.288L50 5Z"/>
	<path fill="#FDAD00" d="M100 37.269 78.182 7.979l1.566 29.29H100Zm-100 0 21.818-29.29-1.566 29.29H0Z"/>
	<path fill="#FEEEB7" d="M50 5 20.252 37.268h59.496L50 5Z"/>
</svg>