<svg xmlns="http://www.w3.org/2000/svg" viewBox="0 0 100 100">
	<path fill="#729544" d="M19.697 9.886c-.58 1.366-1.231 2.707-1.723 4.103-1.192 3.39-1.494 6.891-1.196 10.464.238 2.84.788 5.599 1.885 8.235 1.51 3.628 3.882 6.604 6.9 9.089 2.965 2.442 6.29 4.29 9.76 5.9 4.364 2.023 8.89 3.635 13.427 5.216 4.732 1.647 9.403 3.445 13.836 5.805 3.023 1.61 5.872 3.467 8.295 5.916 3.016 3.046 4.823 6.675 5.369 10.949.715 5.604-.91 10.445-4.641 14.612-3.548 3.962-8.017 6.413-13.101 7.8-3.92 1.07-7.91 1.303-11.941.834-7.96-.927-14.955-4.17-21.315-8.916-1.063-.794-2.058-1.68-3.084-2.525-.134-.11-.26-.23-.396-.337-.797-.63-1.573-.67-2.38-.06-.432.327-.798.74-1.25 1.166-.968-.88-1.99-1.75-2.947-2.686-6.65-6.5-11.203-14.231-13.58-23.23a48.823 48.823 0 0 1-1.56-10.298c-.418-9.246 1.539-17.957 5.923-26.107 3.368-6.26 7.895-11.548 13.522-15.893.045-.034.1-.056.15-.084l.047.047Z"/>
	<path fill="#93BD5A" d="M81.593 88.177c.388-.962.81-1.913 1.158-2.889.811-2.276 1.2-4.63 1.217-7.048.025-3.378-.424-6.677-1.594-9.861-1.263-3.44-3.277-6.385-5.886-8.935-2.912-2.843-6.291-5.022-9.874-6.906-5.061-2.66-10.386-4.694-15.773-6.57-3.625-1.264-7.28-2.44-10.797-3.997-3.406-1.507-6.68-3.238-9.54-5.666-2.76-2.342-4.856-5.157-5.862-8.668-1.86-6.488-.816-12.464 3.376-17.809 2.317-2.955 5.318-5.021 8.764-6.461 2.955-1.235 6.047-1.899 9.229-2.187 2.236-.203 4.473-.253 6.708-.052 3.323.297 6.546 1.062 9.687 2.177 3.524 1.25 6.88 2.847 10.032 4.868.218.14.45.26.687.366.829.367 1.592.247 2.232-.391.333-.332.6-.728.94-1.149.839.563 1.724 1.128 2.578 1.735 5.993 4.257 10.832 9.572 14.5 15.94a49.165 49.165 0 0 1 5.763 15.647c.655 3.52.948 7.07.84 10.645-.195 6.418-1.539 12.588-4.104 18.483-2.657 6.105-6.39 11.467-11.177 16.089-.975.94-2.037 1.79-3.06 2.682a1.515 1.515 0 0 0-.044-.043Z"/>
</svg>