<svg xmlns="http://www.w3.org/2000/svg" viewBox="0 0 100 100">
	<path fill="#EA80FC" d="M17.188 17.692C7.7 20.152.762 28.832.066 38.542c-.338 4.584.59 9.482 3.491 13.894l11.478 18.047c5.98 9.944 18.378 12.535 28.308 7.642 6.471 4.306 15.015 4.472 21.92 1.003 5.117 3.125 11.712 4.307 17.518 2.626a23.961 23.961 0 0 0 11.829-7.78c6.254-7.592 7.31-18.67 1.88-27.012-5.04-7.73-8.83-13.794-11.482-17.982-5.89-9.573-18.56-12.715-28.452-7.675-6.459-4.143-14.915-4.481-21.758-1.073-5.239-3.009-11.734-4.063-17.61-2.54Z"/>
	<path fill="#fff" d="M11.098 47.552c-6.737-10.626 3.68-25.49 16.947-20.628-2.015 2.5-3.473 5.279-4.446 8.682-4.514-.695-6.25 3.89-4.584 6.46l11.53 18.058c2.778 4.514 9.654-.278 6.807-4.723l-4.098-6.39c-3.828-5.68-2.93-13.53 2.083-18.197 5.89-5.89 16.349-4.844 20.49 2.43 5.343-6.87 16.669-7.31 21.53.487l11.53 18.127c6.946 10.974-4.445 25.699-16.947 20.56a23.614 23.614 0 0 0 4.445-8.683c4.584.625 6.251-3.82 4.584-6.39L69.44 39.218c-1.388-2.292-3.958-2.015-5.417-1.042-2.083 1.32-2.43 3.89-1.597 5.209l4.237 6.807c4.861 7.64 2.222 15.28-3.056 19.308-5.418 4.376-14.725 4.723-19.448-3.334-5.278 6.46-16.044 8.057-21.53-.486l-11.53-18.128Zm30.838-10.14c-1.722 1.37-2.175 3.878-1.042 5.765l11.46 18.058c1.18 1.806 3.473 2.153 5.348 1.042 1.907-1.255 2.526-3.855 1.389-5.834l-11.53-18.128c-1.389-2.292-4.097-2.084-5.625-.903Z"/>
</svg>