<svg xmlns="http://www.w3.org/2000/svg" viewBox="0 0 100 100">
	<path fill="#FCDC00" d="M50 97.69C23.705 97.69 2.31 76.358 2.31 50 2.31 23.64 23.64 2.445 50 2.445c26.359 0 47.69 21.332 47.69 47.69 0 26.36-21.404 47.555-47.69 47.555Z"/>
	<path fill="#173647" d="M50 4.819c24.927 0 45.181 20.244 45.181 45.181 0 24.937-20.244 45.181-45.181 45.181C25.063 95.181 4.819 74.937 4.819 50 4.819 25.063 25.063 4.819 50 4.819ZM50 0C22.419 0 0 22.419 0 50c0 27.582 22.482 50 50 50s50-22.482 50-50S77.509 0 50 0Z"/>
	<path fill="#173647" d="m78.732 48.097 3.868-5.498-4.149-10.054-6.594-1.223-2.917-2.917-1.087-6.594-10.19-4.285-5.498 3.868h-4.14l-5.498-3.868-10.19 4.149-1.223 6.594-3.053 2.917-6.594 1.223-4.284 10.054 3.868 5.498v4.149l-3.868 5.498 4.148 10.19 6.595 1.223 2.925 2.917 1.223 6.594 10.055 4.284 5.498-3.868h4.148l5.498 3.868 10.19-4.148 1.224-6.595 3.052-2.916 6.594-1.087 4.285-10.054-3.868-5.499-.018-4.42Zm-1.495 10.326-2.174 5.362-5.498.952-5.1 5.1-.95 5.497-5.363 2.174-4.547-3.188h-7.129l-4.683 3.188-5.362-2.174-.951-5.498-4.964-5.1-5.498-.95-2.174-5.363 3.188-4.547v-7.129l-3.188-4.683 2.174-5.362 5.498-.951 5.09-5.1.952-5.498 5.371-2.174 4.547 3.189h7.129l4.683-3.189 5.362 2.174.951 5.498 5.1 5.1 5.498.951 2.174 5.372-3.188 4.682v7.129l3.052 4.538Zm-9.51-7.065c0 9.783-8.017 17.799-17.8 17.799-9.782 0-17.798-8.016-17.798-17.8 0-4.682 1.766-9.238 5.235-12.572l3.333 3.334c-2.445 2.445-3.867 5.779-3.867 9.239 0 5.235 3.052 9.647 7.41 11.685l6.448-10.19-9.927-2.039 10.87-19.429 4.148 2.31-7.745 13.786 10.462 2.31-9.239 14.601h.68c7.137 0 12.97-5.779 12.97-12.97 0-3.868-1.63-7.41-4.682-9.92l3.052-3.731c4.14 3.397 6.45 8.351 6.45 13.587Z"/>
</svg>