<svg xmlns="http://www.w3.org/2000/svg" viewBox="0 0 100 100">
	<path fill="#000" d="M37.8 47.5c5 0 10.1 0 15.1.1 2.9-4.5 5.9-9 8.9-13.5s6-9 8.9-13.5c-7.3 5.7-14.5 11.7-21.6 17.6-3.8 3.1-7.5 6.2-11.3 9.3zM38.2 65.9c-3 4.5-6 9-8.9 13.5 6.8-5.3 13.4-10.8 20-16.3 4.3-3.5 8.6-7.1 12.9-10.6-5-.1-10.1-.1-15.1-.1-2.9 4.5-5.9 9-8.9 13.5z"/>
	<path fill="#000" d="M50 0C22.4 0 0 22.4 0 50s22.4 50 50 50 50-22.4 50-50S77.6 0 50 0zm0 92.8C26.4 92.8 7.2 73.6 7.2 50 7.2 26.4 26.4 7.2 50 7.2c23.6 0 42.8 19.2 42.8 42.8 0 23.6-19.2 42.8-42.8 42.8z"/>
</svg>