<svg xmlns="http://www.w3.org/2000/svg" viewBox="0 0 100 100">
	<path fill="#ed3124" d="M93.2 40.4c2.6 0 7.7-.2 6.7-2.1-.9-1.7-4.7-2.3-9.4-3.1-8.2-1.3-23-1.8-28 5.7-3.9 5.8 3.5 13.7 10.2 21.4 5.4 6.2 11.2 12 8.8 15.5-1.9 2.8-14.4 2.8-18.8 3-5.2.3-12.8.3-14.1 1-1.2.6-1.8 2.5 2.6 3.3 3.6.6 12 1.9 20.9 1.9 9.3 0 19.1-1.5 21.2-8.5 1.7-5.6-4.2-11.7-9.4-17.8C78.3 54 72.5 49.2 73 44.5c.4-3.7 7.8-3.9 20.2-4.1zM43 8.6c8.8 0 17.3 1.6 19.4 3.8C65.5 16 60 24.7 43.3 36.6 40 38.9 37.6 41 37.1 42c-.3.6-.1 1.3.7 1.5.9.1 3.1-.4 6.8-2.1 14.9-7 32-21.3 28.6-31.1-2.1-6-13.1-7.8-22.5-7.4-9.3.4-17.7 2.6-17.2 4.2.8 2 7.1 1.5 9.5 1.5z"/>
	<path fill="#ed3124" d="M52.4 51.9c-5.3-3.5-14.7-4.7-22.5-4.3-6.9.4-18.8 2.5-18.4 4.6.4 2.3 7.9 1.6 11.4 1.6 7.6 0 19.6.5 21.5 5.2C48.6 69.2 20.9 87.5 15 85.8c-2.7-.8 5.4-14.1 8.4-18.9 1.8-2.9 4.4-7.4 2.1-7.7-2.5-.3-5.3 3.9-7.2 6.3-4.9 6.6-10 13.9-14 21.3C3 89.1-1.1 96 .3 96.9c1.3.8 7.7-.3 15.7-3.4 25.4-9.8 36.8-22.5 39.9-33 1-3.7-.8-6.9-3.5-8.6z"/>
</svg>