<svg xmlns="http://www.w3.org/2000/svg" viewBox="0 0 100 100">
	<path fill="#C7402B" d="M86.41 15.832 37.18 69.056 99.05 40.51c-1.83-9.443-6.312-17.935-12.64-24.68ZM49.883 0c-6.82 0-13.32 1.368-19.245 3.837l-6.606 55.666L57.042.518A50.359 50.359 0 0 0 49.882 0ZM99.54 43.578 40.915 76.386l55.003-6.527a49.912 49.912 0 0 0 4.058-19.765c0-2.21-.158-4.382-.435-6.516Zm-21.615 48.03a50.345 50.345 0 0 0 15.831-17.334L42.201 84.512l35.725 7.095ZM60.061 1.036 31.362 63.239l53.236-49.24C77.922 7.577 69.478 2.981 60.061 1.037ZM54.07 100a49.782 49.782 0 0 0 15.724-3.936l-28.88-3.426L54.07 100ZM4.22 29.5A49.774 49.774 0 0 0 0 45.6l7.78 13.904-3.56-30.003ZM26.297 5.897A50.328 50.328 0 0 0 8.646 21.661l7.26 36.556 10.391-52.32Z"/>
</svg>