<svg xmlns="http://www.w3.org/2000/svg" viewBox="0 0 100 100">
	<path fill="#2684ff" d="M89.5 39.6C89.5 17.7 71.8 0 49.9 0 28 0 10.3 17.7 10.3 39.6c0 17.6 11.4 32.5 27.5 37.7v19.9c0 1.5 1.3 2.8 2.8 2.8h18.8c1.5 0 2.8-1.3 2.8-2.8V77.4c15.9-5.2 27.3-20.1 27.3-37.8zM49.9 53c-7.4 0-13.4-6-13.4-13.4s6-13.4 13.4-13.4 13.4 6 13.4 13.4S57.3 53 49.9 53z"/>
	<linearGradient id="a" x1="69.8069" x2="69.8069" y1="31.2204" y2="73.3657" gradientTransform="matrix(1 0 0 -1 0 101.433)" gradientUnits="userSpaceOnUse">
		<stop offset=".176" stop-color="#0052cc"/>
		<stop offset="1" stop-color="#2684ff"/>
	</linearGradient>
	<path fill="url(#a)" d="M49.9 0v26.2c7.4 0 13.4 6 13.4 13.4S57.3 53 49.9 53c6.8 0 12.3 5.4 12.3 12.3v12.1c15.9-5.2 27.5-20.1 27.5-37.7C89.5 17.7 71.8 0 49.9 0z"/>
</svg>