<svg xmlns="http://www.w3.org/2000/svg" viewBox="0 0 100 100">
	<linearGradient id="a" x1="45.079" x2="55.519" y1="102.8065" y2="3.8467" gradientTransform="matrix(1 0 0 -1 0 101.433)" gradientUnits="userSpaceOnUse">
		<stop offset="0" stop-color="#fcf84a"/>
		<stop offset=".32" stop-color="#abe682"/>
		<stop offset=".79" stop-color="#36cdd2"/>
		<stop offset="1" stop-color="#07c3f2"/>
	</linearGradient>
	<path fill="url(#a)" d="M18.1 100c17.5-1.5 34.3-7.6 48.6-17.7C81.1 72.2 92.6 58.6 100 42.7c-9.2-13.2-21.5-23.9-35.7-31.4C50 3.9 34.2 0 18.1 0c-2.9 0-5.8.1-8.7.4C2 16.3-1.1 33.9.4 51.4S8 85.6 18.1 100z"/>
	<linearGradient id="b" x1="6.7809" x2="100.4078" y1="101.2512" y2="56.8379" gradientTransform="matrix(1 0 0 -1 0 101.433)" gradientUnits="userSpaceOnUse">
		<stop offset="0" stop-color="#3bea62"/>
		<stop offset="1" stop-color="#087cfa"/>
	</linearGradient>
	<path fill="url(#b)" d="M9.5.4C30.7 9 49 23.7 62.1 42.7H100c-9.2-13.2-21.4-23.9-35.7-31.4C50.1 3.9 34.3 0 18.2 0c-2.9 0-5.8.1-8.7.4z"/>
	<linearGradient id="c" x1="15.3629" x2="109.6297" y1="4.5663" y2="70.5529" gradientTransform="matrix(1 0 0 -1 0 101.433)" gradientUnits="userSpaceOnUse">
		<stop offset="0" stop-color="#009ae5"/>
		<stop offset=".18" stop-color="#0490dd"/>
		<stop offset=".49" stop-color="#1073c6"/>
		<stop offset=".89" stop-color="#2346a1"/>
		<stop offset="1" stop-color="#293896"/>
	</linearGradient>
	<path fill="url(#c)" d="M62.1 42.7c-4.6 30.2-44 57.3-44 57.3 35.8-3.4 67.2-24.9 81.9-57.3H62.1z"/>
</svg>