<svg xmlns="http://www.w3.org/2000/svg" viewBox="0 0 100 100">
	<path fill="#E26A1A" d="M75.639 67.884S61.08 63.865 54.96 62.16L35.464 83.772l-.15-.1c1.237-9.437 2.479-18.873 3.716-28.31 0 0-15.184-6.161-21.32-8.599.35-.316.658-.45.982-.55 7.332-2.324 14.664-4.649 22.004-6.956.525-.167.817-.375.867-.95 1.283-8.724 4.132-23.204 4.132-23.204s8.022 12.89 11.423 18.563c.291.475.55.65 1.133.492 7.72-2.068 15.445-4.122 23.178-6.14 0 0-11.868 14.31-15.822 18.928-.45.534-.491.9-.158 1.517 3.433 6.438 10.19 19.42 10.19 19.42ZM25.43 63.125c.481.225.768.722.715 1.25-.412 4.102-2.157 21.514-2.768 28.328-.572 6.366 7.285 9.824 11.599 5.108 5.523-6.038 18.838-20.462 21.653-23.51a1.22 1.22 0 0 1 1.277-.336c2.795.88 12.715 4 18 5.633 2.074.633 4.123 1.108 6.331.783 3.941-.575 6.849-3.824 6.807-7.79-.043-3.011-1.888-5.705-3.246-8.287a4604.82 4604.82 0 0 0-8.227-15.591c-.316-.608-.308-.992.15-1.533 4.746-5.553 9.48-11.124 14.212-16.693 1.945-2.288 4.301-4.548 5.318-7.435 1.258-3.591-.367-6.416-4.075-7.107-2.186-.408-4.269.08-6.37.634a5704.828 5704.828 0 0 0-22.815 6.056c-.716.192-1.066.067-1.45-.583a1554.518 1554.518 0 0 0-9.88-16.397c-.759-1.241-1.634-2.44-2.659-3.466-3.032-3.024-7.023-2.899-9.89.275-.79.875-1.457 1.9-2.015 2.95-1.442 2.724-1.733 5.765-2.267 8.74-1 5.557-2 11.114-2.957 16.68-.117.657-.392.924-1 1.116-7.215 2.266-14.43 4.524-21.62 6.865-1.583.516-3.158 1.175-4.55 2.066-4.248 2.716-4.882 7.157-1.69 11.056 1.416 1.733 3.224 2.924 5.24 3.824a1026.316 1026.316 0 0 1 16.177 7.364Z"/>
</svg>