<svg xmlns="http://www.w3.org/2000/svg" viewBox="0 0 100 100">
	<path fill="#1D1D1B" d="M78.133 31.473c-10.534-5.882-22.227-6.51-35.08-1.887l-20.593 6.32c-1.046.311-1.145.82-.297 1.527 15.885 13.192 32.428 22.248 53.658 16.819 2.178-.566 7.353-2.305 15.525-5.218.622-.226 1.06-.035 1.315.573.707 1.739.452 2.997-.764 3.775-6.546 4.157-14.153 7.508-22.82 10.053-9.65 2.82-6.448 11.77-3.16 18.833 1.011 2.145-5.806 1.332-6.702.382-4.482-4.935-7.437-10.675-8.866-17.222-.14-.678-.55-1.11-1.23-1.293C30.732 59.278 9.735 47.168 0 30.265V28.63c7.14-1.4 17.398-4.241 30.774-8.526 23.853-7.649 46.751-4.609 68.695 9.12.368.212.544.53.53.955l-.466 14.358a.339.339 0 0 1-.53.276l-20.87-13.34Z"/>
	<path fill="#3A7ACA" d="M78.133 31.474c2.418 27.847-40.105 26.787-35.079-1.888 12.852-4.623 24.546-3.994 35.08 1.888Z"/>
</svg>