<svg xmlns="http://www.w3.org/2000/svg" viewBox="0 0 100 100">
	<path fill="#6CB52D" d="M91.059 5.747c-1.437 3.493-3.295 6.589-5.35 9.363C76.641 5.87 63.958 0 49.963 0 22.468 0 0 22.344 0 49.939 0 64.356 6.168 77.336 15.953 86.5l1.858 1.66a49.675 49.675 0 0 0 32.128 11.741c26.257 0 47.882-20.486 49.74-46.347 1.486-12.559-2.328-28.635-8.62-47.808ZM23.186 86.922c-1.437 1.858-4.112 2.056-5.97.62-1.858-1.437-2.056-4.113-.62-5.97 1.437-1.858 4.113-2.056 5.97-.62 1.76 1.437 2.056 4.112.62 5.97Zm67.576-14.937C78.5 88.359 52.143 82.81 35.349 83.627c0 0-2.998.199-5.97.62 0 0 1.14-.52 2.576-1.04 11.84-4.113 17.414-4.955 24.622-8.646 13.5-6.91 26.976-22.046 29.676-37.702-5.152 15.037-20.808 28.017-35.026 33.268-9.785 3.617-27.397 7.11-27.397 7.11l-.718-.422c-11.94-5.87-12.361-31.83 9.487-40.178 9.586-3.716 18.653-1.66 29.057-4.112C72.678 29.948 85.46 21.7 90.588 10.899c5.722 17.415 12.733 44.39.174 61.086Z"/>
	<path fill="#6CB52D" d="M23.186 86.922c-1.437 1.858-4.112 2.056-5.97.62-1.858-1.437-2.056-4.112-.62-5.97 1.437-1.858 4.113-2.056 5.97-.62 1.76 1.437 2.057 4.113.62 5.97Z"/>
	<path fill="#fff" d="M90.762 71.985C78.5 88.36 52.143 82.81 35.349 83.628c0 0-2.998.198-5.97.619 0 0 1.14-.52 2.576-1.04 11.84-4.112 17.414-4.955 24.622-8.646 13.5-6.91 26.976-22.046 29.676-37.701-5.152 15.036-20.808 28.016-35.026 33.267-9.785 3.617-27.397 7.11-27.397 7.11l-.718-.421c-11.94-5.871-12.361-31.831 9.487-40.18 9.586-3.715 18.653-1.659 29.057-4.111C72.678 29.949 85.46 21.7 90.588 10.899c5.722 17.415 12.733 44.39.174 61.086Z"/>
</svg>