<svg xmlns="http://www.w3.org/2000/svg" viewBox="0 0 100 100">
	<path fill="#00BCF2" d="M44.521 99.936c-9.36-.675-18.612-3.031-24.286-6.185-3.232-1.797-5.694-4.005-6.66-5.973L13 86.608V13.156l.455-.923c2.033-4.127 8.52-7.848 17.577-10.08C34.106 1.394 38.544.64 42.164.258c3.697-.388 13.497-.33 17.185.105C69.15 1.515 77.49 4.094 82.63 7.56c1.983 1.337 4.016 3.477 4.706 4.95l.59 1.262-.05 36.614-.05 36.615-.475.963c-.26.53-1.049 1.573-1.75 2.317-4.275 4.53-13.443 7.882-25.467 9.31-2.451.291-13.1.526-15.614.345Zm17.25-31.47c-.036-.093-1.435-1.34-3.11-2.77a516.15 516.15 0 0 1-3.204-2.748c-.088-.083.221-.373.688-.647.466-.273 1.359-1.033 1.984-1.69 1.83-1.917 2.693-4.287 2.693-7.39 0-3.056-.931-5.521-2.795-7.403-1.88-1.897-4.037-2.712-7.179-2.712-4.843 0-8.562 2.826-9.75 7.407-.408 1.576-.405 4.76.005 6.158 1.07 3.645 3.986 6.292 7.615 6.913 1.228.21 1.394.301 2.232 1.217.497.544 1.518 1.63 2.269 2.413l1.364 1.424h3.627c1.995 0 3.597-.077 3.561-.171ZM49.333 58.313c-.873-.455-1.203-.808-1.7-1.82-.385-.782-.451-1.227-.456-3.075-.004-1.878.056-2.283.458-3.099.656-1.334 1.562-1.965 2.962-2.066 1.95-.142 3.075.815 3.664 3.114.723 2.819-.072 5.816-1.806 6.81-.91.522-2.268.581-3.122.136Zm-16.075 5.232c3.802-.72 5.96-2.932 5.96-6.107 0-2.816-1.393-4.457-5.245-6.176-2.204-.985-3.003-1.602-3.003-2.324 0-.598.758-1.254 1.64-1.419.862-.16 3.146.236 4.496.781l1.13.457V43.75l-1.227-.272c-.758-.168-2.353-.27-4.173-.264-2.58 0-3.084.063-4.055.448-2.835 1.125-4.18 3.042-4.158 5.926.02 2.7 1.444 4.384 4.988 5.899 2.092.894 2.93 1.575 2.93 2.379 0 1.71-2.848 1.92-5.863.433l-1.649-.814c-.08-.04-.147 1.129-.147 2.599 0 2.66.003 2.673.484 2.857 1.814.69 5.824.997 7.892.604Zm43.472-2.468v-2.258h-6.874V43.303h-6.088v20.032H76.73v-2.259ZM55.52 21.498c6.048-.42 10.583-1.212 14.573-2.546 3.975-1.33 6.324-2.937 6.849-4.69.202-.676.188-.932-.095-1.673-1.268-3.32-8.353-5.872-19.178-6.906-4.631-.443-13.053-.3-17.468.297-6.737.91-12.205 2.601-14.636 4.526-4.918 3.894.283 8.177 12.377 10.193 5.244.874 12.038 1.183 17.577.799Z"/>
</svg>