<svg xmlns="http://www.w3.org/2000/svg" viewBox="0 0 100 100">
	<path fill="#333" d="M7.339 60.292c-.593-.094-2.11-.474-3.367-.817l-2.29-.641 1.175-2.158 1.173-2.158-.948-1.174c-1.34-1.66-3.07-5.3-3.082-6.472-.012-2.74 3.544-6.71 7.907-8.845 3-1.47 5.382-1.505 8.37-.106l2.252 1.054.653-.936c.355-.51.652-1.185.652-1.482 0-.297.296-.557.652-.557.356 0 .652.094.652.201 0 .262-2.62 6.876-2.786 7.042-.072.071-.783-.26-1.59-.734-2.275-1.34-5.132-2.23-7.35-2.289-5.156-.13-6.947 4.91-3.307 9.318l1.28 1.554 3.498-2.834c3.924-3.165 4.374-3.236 7.434-1.126 3.437 2.371 3.496 5.975.176 9.745-2.94 3.355-5.962 4.28-11.155 3.414v.001Zm8.797-3.615c1.707-1.34 1.588-3.818-.261-5.786-2.324-2.466-3.046-2.36-7.137 1.055-4.067 3.39-4.09 3.26.77 4.814 3.213 1.042 5.229 1.007 6.628-.083Zm33.03 13.064c-1.164-.427-4.293-1.72-6.972-2.881-7.232-3.154-8.252-3.213-10.41-.592-.497.604-1.042.983-1.197.83-.462-.463.913-2.68 2.573-4.138 1.35-1.185 1.801-1.352 3.296-1.185.948.105 4.102 1.21 7.006 2.442 6.556 2.785 8.476 3.379 10.979 3.379 3.046 0 4.611-2.135 3.65-4.968-.236-.711-.166-.949.31-.949.888 0 1.339 3.32.699 5.229-.274.817-1.068 1.98-1.767 2.56-1.044.878-1.708 1.067-3.664 1.055-1.316-.011-3.342-.355-4.504-.782ZM32.27 59.605c-2.691-1.257-5.122-3.651-6.521-6.45-2.24-4.481-1.553-7.35 2.692-11.226 3.568-3.26 6.485-4.53 10.41-4.53 2.832 0 3.436.155 5.274 1.28 4.35 2.693 5.43 7.826 2.81 13.42-3.07 6.57-9.556 9.878-14.665 7.506Zm9.01-3.118c2.015-.996 3.403-5.596 2.833-9.414-.711-4.706-7.077-7.92-11.749-5.927-4.8 2.051-4.872 7.517-.153 12.436 3.295 3.45 6.129 4.351 9.069 2.905Zm9.14 3.983c0-.202.747-.557 1.672-.783l1.671-.415.356-6.021c.391-6.663.106-13.22-.616-14.096-.261-.31-1.055-.69-1.778-.854-2.94-.653-.985-1.103 4.718-1.103s7.516.415 4.801 1.103c-2.335.58-2.348.616-2.348 10.124 0 5.275.19 9.248.463 9.757.38.712.948.865 3.13.865 4.505 0 6.057-1.066 7.28-5.015.367-1.184 1.315-.97.983.226-.154.557-.403 2.252-.557 3.793l-.284 2.787h-9.746c-5.359 0-9.744-.166-9.744-.367Z"/>
	<path fill="#CA2727" d="M72.555 60.185c0-.355.344-.71.913-.984.76-.355 1.257-1.102 3.058-4.623 2.858-5.572 7.363-15.14 7.79-16.574.331-1.09.403-1.15 1.635-1.292.712-.083 1.305-.13 1.316-.107l2.194 4.802c1.186 2.619 3.569 7.599 5.3 11.06 2.892 5.821 3.213 6.343 4.184 6.816.593.286 1.055.724 1.055.985 0 .415-.51.462-4.895.462-4.4 0-4.897-.047-4.897-.474 0-.284.38-.592.983-.794.558-.178.985-.51.985-.759 0-.237-.581-1.802-1.293-3.473l-1.291-3.047h-9.793l-.936 2.063c-1.756 3.865-1.79 4.778-.155 5.216.819.225 1.044.403.948.77-.106.428-.533.486-3.615.486-3.308.025-3.486 0-3.486-.533Zm16.052-9.591c.166-.296-3.52-8.346-3.864-8.43-.25-.07-4.067 7.802-4.067 8.395 0 .296 7.754.332 7.931.035Z"/>
</svg>