<svg xmlns="http://www.w3.org/2000/svg" viewBox="0 0 100 100">
	<path fill="#0f80cc" d="M75.7 4.4H12.9c-4.2 0-7.6 3.4-7.6 7.6v69.2c0 4.2 3.4 7.6 7.6 7.6h41.3c-.4-20.4 6.6-60.3 21.5-84.4z"/>
	<linearGradient id="a" x1="40.4655" x2="40.4655" y1="-47.5969" y2="-6474.9272" gradientTransform="matrix(1 0 0 -1 0 101.433)" gradientUnits="userSpaceOnUse">
		<stop offset="0" stop-color="#97d9f6"/>
		<stop offset=".9202" stop-color="#0f80cc"/>
		<stop offset="1" stop-color="#0f80cc"/>
	</linearGradient>
	<path fill="url(#a)" d="M73.4 6.7H12.9c-3 0-5.4 2.4-5.4 5.4v64.1C21.2 71 41.8 66.4 56 66.6c2.8-14.9 11.2-44.2 17.4-59.9z"/>
	<path fill="#003b57" d="M90.3 2.2C86-1.7 80.8-.1 75.7 4.4c-.8.7-1.5 1.4-2.3 2.2-8.8 9.4-16.9 26.6-19.5 39.8 1 2 1.8 4.6 2.3 6.5.1.5.2 1 .3 1.4.2.9.3 1.6.3 1.6l-.4-1.2c-.1-.2-.1-.4-.2-.6 0-.1-.1-.2-.1-.3-.6-1.3-2.2-4.1-2.9-5.4-.6 1.8-1.1 3.4-1.6 4.9 2 3.7 3.2 10 3.2 10s-.1-.4-.6-1.8c-.4-1.3-2.7-5.2-3.2-6.1-.9 3.3-1.3 5.6-.9 6.2.6 1.1 1.2 2.9 1.8 4.9 1.2 4.6 2 10.2 2 10.2s0 .4.1.9c-.2 3.8-.1 7.8.2 11.4.4 4.8 1.1 8.9 2.1 11.1l.6-.4c-1.4-4.3-2-10-1.7-16.5.4-10 2.7-22 6.9-34.6 7.2-19 17.1-34.2 26.3-41.4C80.1 14.7 68.8 39 65.5 48c-3.8 10.1-6.4 19.5-8 28.6 2.8-8.5 11.8-12.1 11.8-12.1s4.4-5.4 9.6-13.2c-3.1.7-8.1 1.9-9.8 2.6-2.5 1-3.2 1.4-3.2 1.4S74 50.4 81 48.1c9.4-15.2 19.8-36.6 9.3-45.9z"/>
</svg>