<svg xmlns="http://www.w3.org/2000/svg" viewBox="0 0 100 100">
	<linearGradient id="a" x1="50.0005" x2="50.0005" y1="22.6539" y2="64.1775" gradientTransform="matrix(1 0 0 -1 0 101.433)" gradientUnits="userSpaceOnUse">
		<stop offset="0" stop-color="#2684ff"/>
		<stop offset=".824" stop-color="#0052cc"/>
	</linearGradient>
	<path fill="url(#a)" d="M50 86.9c13 0 23.5-10.5 23.5-23.5S63 40 50 40 26.5 50.5 26.5 63.5 37 86.9 50 86.9z"/>
	<path fill="#2684ff" d="m.6 36.2 12.6 14.9c.9 1.2 2.7 1.3 3.8.3 20.4-18.2 45.6-18.2 66 0 1.1.9 2.8.8 3.8-.3l12.6-14.9c.9-1.1.8-2.8-.3-3.8C69.6 6.6 30.4 6.6.9 32.5c-1.1 1.1-1.2 2.7-.3 3.7z"/>
</svg>