<svg xmlns="http://www.w3.org/2000/svg" viewBox="0 0 100 100">
	<path fill="#FF4785" d="M13.095 91.951 10.004 9.584a5.017 5.017 0 0 1 4.7-5.195l70.06-4.38a5.017 5.017 0 0 1 5.33 5.008v89.754a5.017 5.017 0 0 1-5.243 5.012l-66.968-3.008a5.017 5.017 0 0 1-4.788-4.824Z"/>
	<path fill="#fff" d="M69.143 12.265 69.62.756 79.243 0l.414 11.87a.748.748 0 0 1-1.211.613l-3.71-2.922-4.393 3.332a.748.748 0 0 1-1.2-.628ZM56.838 37.611c0 1.952 13.148 1.017 14.913-.354 0-13.292-7.132-20.277-20.193-20.277-13.06 0-20.378 7.093-20.378 17.734 0 18.531 25.01 18.886 25.01 28.994 0 2.838-1.39 4.522-4.446 4.522-3.983 0-5.558-2.034-5.373-8.95 0-1.5-15.19-1.968-15.654 0-1.179 16.76 9.263 21.595 21.212 21.595 11.578 0 20.656-6.172 20.656-17.344 0-19.862-25.38-19.33-25.38-29.172 0-3.99 2.964-4.522 4.724-4.522 1.852 0 5.187.326 4.91 7.774Z"/>
</svg>