<svg xmlns="http://www.w3.org/2000/svg" viewBox="0 0 100 100">
	<path fill="#4945FF" d="M0 34.667c0-16.342 0-24.513 5.077-29.59C10.154 0 18.325 0 34.667 0h30.666c16.343 0 24.513 0 29.59 5.077C100 10.154 100 18.325 100 34.667v30.666c0 16.343 0 24.513-5.077 29.59C89.846 100 81.675 100 65.333 100H34.668c-16.342 0-24.513 0-29.59-5.077C0 89.846 0 81.675 0 65.333V34.668Z"/>
	<path fill="#fff" d="M69 30.334H35.333V47.5H52.5v17.167h17.166V31a.667.667 0 0 0-.666-.666Z"/>
	<path fill="#fff" d="M52.5 47.5h-.667v.667h.667V47.5Z"/>
	<path fill="#9593FF" d="M35.333 47.5h16.5c.368 0 .667.299.667.666v16.5H36a.666.666 0 0 1-.667-.666V47.5ZM52.5 64.666h17.166L53.07 81.264a.333.333 0 0 1-.569-.235V64.667ZM35.333 47.5H18.971a.333.333 0 0 1-.236-.569l16.598-16.597V47.5Z"/>
</svg>