<svg xmlns="http://www.w3.org/2000/svg" viewBox="0 0 100 100">
	<path fill="#606060" d="M15.2 40.9c.9.4 1.5.9.6 3.1-.2.6-.5 1.2-.8 1.8-.2.2-.6.1-.6-.4.3-.8.4-2.4-.3-3.3-.9-1.1-2.8-.8-3.7.1-1.1 1.1-1 3.2-.2 4.7 1.3 2.1 1.8 2.5 3 4.7 1.2 2.1 1.1 5.4-1.6 7.3-2.9 2-7.9 1.9-10 .7-2.4-1.3-1.6-2.7.2-5.1.3-.4.6-.7 1-1 .2-.1.3-.1.4.1.4.4-.2.5-.7 1.4-.4.8-.4 2.6.7 3.6 2.7 2.6 8.8-.3 6-5.7-1.8-3.7-5.9-7.9-1.8-11.1 1.1-.9 2.8-1.4 5-1.4.9 0 1.9.1 2.8.5zm18.4-.1c.5.2.5.6-.4.9-1.9 0-4 .1-5.9.3-7.4 18-1.4 18.5 2.9 12.4.3-.2.6 0 .5.5-4.4 7.2-11.2 6.5-11.2 1.7 0-3.8 2.4-10.7 3.9-14.3-1.3.1-2.5.3-3.7.6-.9-.2.7-1.3 1.7-1.7 1.2-.5 1.7-.1 2.6-.3 1.2-2.7 2.7-5.6 4.3-8.1 1.2-1.4 4.8-2.4 4.6-1.6-1.9 3-3.6 6.4-5 9.7 1-.1 2-.1 3-.1h2.7z"/>
	<path fill="#b3d107" d="M83.6 6.3c-.1.8-.4 1.7-.9 2.5-.2.2-.6-.1-.7-.4.5-2.8-7-4.9-15.8 6.4C52.7 32.2 46.6 67.6 57 53.7c.3-.2.6.1.5.5-3.6 5.4-10.1 7.8-10.1 2.4 0-12.3 13.7-41.4 26.2-51.6 5-4 10.9-4.4 10 1.3zm-71.8 91c-3.4 0-3.8-3.8-2.1-6.8.2-.2.6.1.7.4-.5 2.8 7 4.9 15.8-6.4C39.8 67 45.8 31.8 35.4 45.7c-.3.2-.6-.1-.5-.5 3.6-5.4 10.1-7.8 10.1-2.4 0 14.6-20.2 54.5-33.2 54.5z"/>
	<path fill="#606060" d="M62 50.5c.8-2.4 1.8-4.8 3.2-6.9-3.2 2-3 2.8-3.5 2.2-.1-.2-.1-.3 0-.5 1.9-2.1 5.8-4.2 8.5-5.2.5 0 .8.3.6.7-8.5 11.2-7.5 27.4 4.8 6.7 3.7-6.1 2.5-5.8 4.4-6.6 1.2-.5 3.7-.8 3 .2-2.7 5-4.3 8.8-4.3 14.5 0 3.5 2.2 3.1 4.3.2.3-.2.7 0 .6.5-3.4 5.2-9.1 5.7-9.1.3 0-2.6.5-5.2 1.4-7.8-2 3.6-4 6.4-6.2 8.5-6 5.6-11.1 3.6-7.7-6.8zm34.2-10.1c1.3 0 3.8.3 3.8 1.6 0 1.2-.7 2.7-1.2 3.7-.2.2-.6.1-.6-.4.2-.4.2-.9.2-1.6 0-3.7-5.1-3.2-5.1.6 0 3.5 4.3 5.6 4.3 9.9 0 6.2-9.1 6.8-12.3 5-2-1.1-1.8-2.1-.7-3.9 2.2-3.4 2.6-2.1 2.3-1.7-1.9 1.9-.9 5.5 2.4 5.5 2.8 0 4.3-1.8 4.3-3.9 0-4.5-7.5-9.7-2.5-13.7 1.2-.6 2.9-1.1 5.1-1.1z"/>
</svg>