<svg xmlns="http://www.w3.org/2000/svg" viewBox="0 0 100 100">
	<path fill="#4d4d4d" d="M0 6.7C0 3 3 0 6.7 0h86.6C97 0 100 3 100 6.7v86.6c0 3.7-3 6.7-6.7 6.7H6.7C3 100 0 97 0 93.3V6.7z"/>
	<linearGradient id="a" x1="48.028" x2="54.414" y1="28.3901" y2="44.0151" gradientTransform="matrix(1 0 0 -1 0 101.433)" gradientUnits="userSpaceOnUse">
		<stop offset="0" stop-color="#ff9700"/>
		<stop offset=".53" stop-color="#f48e00"/>
		<stop offset="1" stop-color="#d06f00"/>
	</linearGradient>
	<path fill="url(#a)" d="M78.6 50c0-.9-.6-1.4-1.4-1.1L23.2 66c-.8.2-1.4 1.2-1.4 2v17.5c0 .9.6 1.4 1.4 1.1l53.9-17.1c.8-.2 1.4-1.2 1.4-2l.1-17.5z"/>
	<path fill="#ff9800" d="M21.8 49.4c0 .9.6 1.8 1.4 2l53.9 17.1c.8.2 1.4-.3 1.4-1.1V50c0-.9-.6-1.8-1.4-2L23.2 30.9c-.8-.2-1.4.2-1.4 1.1v17.4z"/>
	<path fill="#ff9800" d="M78.6 14.1c0-.9-.6-1.4-1.4-1.1l-54 17.1c-.8.2-1.4 1.2-1.4 2v17.5c0 .9.6 1.4 1.4 1.1l53.9-17.1c.8-.2 1.4-1.2 1.4-2 .1 0 .1-17.5.1-17.5z"/>
</svg>