<svg xmlns="http://www.w3.org/2000/svg" viewBox="0 0 100 100">
	<path fill="#e61617" d="M47.1.4c-.8.2-1.8.5-2.3.7-13.5 5.2-24 9.3-36.6 14.5-.2 0-.8.3-1.4.7-1.4.9-1.5 1.6-.1 2.4.6.3 1.1.6 1.3.6 12.6 5.3 24.4 9.9 36.8 14.6.5.4 3.5 1 4.8 1 .9 0 1.8-.1 2.6-.3 1.2-.2 2-.5 4.6-1.6 11.6-4.6 23.7-9.3 35.1-13.8 1.1-.3 2-1.3 1.8-1.9-.1-.3-.3-.6-.4-.6-.1 0-.4-.2-.6-.4-.2-.2-.8-.5-1.4-.6C79.8 10.8 66.8 5.6 54.6 1c-.4-.3-3.8-1-5-1-.5 0-1.6.2-2.5.4z"/>
	<path fill="#a7a9ab" d="M93.9 22.6c-14.1 5.7-24.3 9.5-37.7 15-1.6.7-2.9 2-3.6 3.4-.4.8-.4 3.6-.5 28.5 0 18.6 0 27.9.2 28.6.2.7.5 1.1 1.1 1.5.9.5 1.3.6 2 .3 14-5.2 24.9-9.5 38.7-15.3 1.7-.8 3-1.9 3.8-3.4 0 0 .5-1.6.5-2 0-9.8.1-26.2.1-26.2 0-15 0-27.7-.1-28.3-.1-.6-.4-1.3-.6-1.6-.7-1-2.5-1.2-3.9-.5z"/>
	<path fill="#343433" d="M6.1 22.6c14.1 5.7 24.3 9.5 37.7 15 1.6.7 2.9 2 3.6 3.4.4.8.4 3.6.5 28.5 0 18.6 0 27.9-.2 28.6-.2.7-.5 1.1-1.1 1.5-.9.5-1.3.6-2 .3-14-5.2-24.9-9.5-38.7-15.3-1.7-.8-2.9-1.9-3.8-3.4 0 0-.5-1.6-.5-2 0-9.8-.1-26.2-.1-26.2 0-15 0-27.7.1-28.3.1-.6.4-1.3.6-1.6.7-1 2.5-1.2 3.9-.5z"/>
</svg>