<svg xmlns="http://www.w3.org/2000/svg" viewBox="0 0 100 100">
	<path fill="#1976d2" d="M0 4.4C0 2 2 0 4.4 0h91.2C98 0 100 2 100 4.4v91.2c0 2.4-2 4.4-4.4 4.4H4.4C2 100 0 98 0 95.6V4.4z"/>
	<path fill="#fff" d="M25.9 48.5c-.2-.1-.4-.1-.6-.2-1.7-.5-3.7-1.1-4.8-2.2-1.5-1.6-.5-3.9 1.3-4.6 2.7-1 6.3-.1 6.5 3.4 0 .1.1.2.2.2h4c-.3-5.7-5.6-7.6-10.5-6.9-3.1.4-6.2 2.5-6.4 5.9-.2 3.5 2.4 5.7 5.3 6.8.7.3 1.3.5 2 .7 1.3.4 2.6.8 3.9 1.5.8.5 1.3 1.2 1.4 2.1.5 3.7-4.1 4-6.5 3.2-1.8-.6-2.7-1.8-2.7-3.7v-.1h-4c-.1 0-.1 0-.1.1-.1 3.9 3.3 6.5 6.8 7.1 4 .7 9.8-.2 10.7-5.1.2-1 .1-2.1-.2-3.1-.8-2.7-3.7-4.3-6.3-5.1zM49.4 38.3c-.1 0-.1 0 0 0-.1 5.3-.1 10.6 0 15.9 0 3.8-3.1 5.3-6.4 4.3-2-.6-2.9-2.3-2.9-4.3V38.4c0-.1 0-.1-.1-.1h-4s-.1 0-.1.1v13.7c0 2.1.1 3.6.3 4.4 1.2 4.8 6 6.1 10.5 5.5 3.7-.5 6.8-3.4 6.8-7.3V38.3s0-.1-.1-.1l-4 .1zM62.3 38.3h-4c-.1 0-.1 0-.1.1v23.3c0 .1 0 .1.1.1h4c.1 0 .1 0 .1-.1V38.4c0-.1 0-.1-.1-.1zM82.1 41.3c-1.9-1.9-4.6-3-7.3-3h-7.2c-.1 0-.1 0-.1.1V61.8h7.3c2.7 0 5.4-1.1 7.3-3 1.9-1.9 3-4.6 3-7.3v-2.9c0-2.8-1.1-5.4-3-7.3zm-3 15.2c-1.1 1.3-2.7 2-4.3 2h-3c-.1 0-.1-.1-.1-.1V41.7c0-.1.1-.1.1-.1h3c.8 0 1.6.2 2.3.5.8.3 1.4.8 2 1.5.6.6 1 1.4 1.3 2.2.3.8.5 1.7.5 2.6v3.5c0 1.6-.6 3.3-1.8 4.6z"/>
</svg>