<svg xmlns="http://www.w3.org/2000/svg" viewBox="0 0 100 100">
	<path fill="#600DFF" d="M100 29.077c-.156 4.303-.303 8.607-.47 12.911-.112 2.936-.26 5.872-.374 8.805-.24 6.056-.471 12.111-.696 18.167-.121 3.113-.26 6.226-.386 9.341-.219 5.407-.405 10.816-.662 16.221-.12 2.517-3.054 4.579-5.766 2.8-4.388-2.873-8.777-5.743-13.167-8.61A72062.164 72062.164 0 0 0 40.75 64.191c-1.784-1.155-3.532-2.38-5.36-3.465-3.372-1.996-2.236-5.601.433-6.928 8.804-4.368 17.523-8.89 26.27-13.356 4.438-2.264 8.87-4.548 13.316-6.798a4866.227 4866.227 0 0 1 19.232-9.68c2.107-1.053 4.717.02 5.247 2.218.221.915.036 1.925.036 2.886l.075.009Z"/>
	<path fill="#FF3C00" d="M66.697 7.518c-.156 4.304-.303 8.608-.469 12.913-.112 2.935-.261 5.871-.376 8.804-.237 6.056-.47 12.11-.696 18.166-.12 3.114-.259 6.228-.384 9.343-.22 5.407-.406 10.815-.663 16.22-.12 2.516-3.054 4.579-5.773 2.8a7595.867 7595.867 0 0 0-13.168-8.612c-12.57-8.176-25.144-16.35-37.72-24.519-1.785-1.155-3.533-2.379-5.361-3.464-3.372-1.996-2.238-5.602.433-6.928 8.804-4.368 17.523-8.892 26.27-13.356 4.44-2.265 8.87-4.548 13.316-6.799a5238.8 5238.8 0 0 1 19.242-9.678c2.108-1.053 4.717.02 5.247 2.217.22.914.036 1.926.036 2.887l.066.006Z"/>
</svg>