<svg xmlns="http://www.w3.org/2000/svg" viewBox="0 0 100 100">
	<path fill="#FF3E00" d="M85.85 13.231c-9.28-13.29-27.61-17.23-40.859-8.78L21.715 19.293A26.719 26.719 0 0 0 9.622 37.182a28.61 28.61 0 0 0-.447 4.997 28.243 28.243 0 0 0 3.252 13.07 26.872 26.872 0 0 0-3.992 9.986 28.503 28.503 0 0 0 4.88 21.534c9.279 13.29 27.65 17.229 40.858 8.781l23.252-14.844a26.663 26.663 0 0 0 12.06-17.905c.3-1.646.45-3.315.448-4.989A28.268 28.268 0 0 0 86.72 44.76a26.872 26.872 0 0 0 3.993-9.978 29.33 29.33 0 0 0 .44-4.989 28.442 28.442 0 0 0-5.303-16.545v-.016Z"/>
	<path fill="#fff" d="M42.716 88.017a18.65 18.65 0 0 1-4.651.594 18.466 18.466 0 0 1-15.183-7.959 17.1 17.1 0 0 1-3.188-9.953c0-1.006.088-2.01.26-2.994.14-.742.327-1.468.561-2.174l.44-1.334 1.186.903a30.192 30.192 0 0 0 9.108 4.558l.863.26-.081.862v.448a5.176 5.176 0 0 0 .96 3.011 5.54 5.54 0 0 0 4.57 2.441c.47.002.939-.058 1.398-.179.499-.13.98-.34 1.432-.626l23.25-14.917a4.888 4.888 0 0 0 2.269-4.142 5.172 5.172 0 0 0-.984-3.004 5.576 5.576 0 0 0-4.579-2.392 5.44 5.44 0 0 0-1.399.18 4.873 4.873 0 0 0-1.422.626L48.66 57.89a17.12 17.12 0 0 1-4.724 2.075 18.47 18.47 0 0 1-19.835-7.356 17.144 17.144 0 0 1-3.188-9.953c0-1.004.088-2.006.26-2.995a16.134 16.134 0 0 1 7.254-10.766l23.275-14.836a17.081 17.081 0 0 1 4.725-2.084 18.71 18.71 0 0 1 4.651-.586 18.48 18.48 0 0 1 15.232 7.943 17.138 17.138 0 0 1 3.147 9.961 17.693 17.693 0 0 1-.26 3.003c-.14.741-.327 1.467-.561 2.173l-.44 1.334-1.186-.87a30.009 30.009 0 0 0-9.108-4.558l-.863-.268.081-.863v-.447a5.23 5.23 0 0 0-.96-3.02 5.569 5.569 0 0 0-4.57-2.393c-.466.01-.929.082-1.382.212-.5.125-.981.337-1.43.627L35.502 39.059a4.877 4.877 0 0 0-2.187 3.255 5.624 5.624 0 0 0-.106.863c0 1.076.334 2.126.96 3.003a5.56 5.56 0 0 0 5.968 2.212c.5-.126.982-.337 1.432-.626l8.88-5.696a17.008 17.008 0 0 1 4.725-2.075 18.487 18.487 0 0 1 19.843 7.357 17.14 17.14 0 0 1 2.92 12.98 16.097 16.097 0 0 1-7.254 10.766L47.448 85.933a17.083 17.083 0 0 1-4.733 2.084Z"/>
</svg>