<svg xmlns="http://www.w3.org/2000/svg" viewBox="0 0 100 100">
	<path fill="#f90" d="M0 0h100v100H0V0z"/>
	<path d="M85.8 49.9c0-5.8-4.7-10.5-10.5-10.5 4.1-4.1 4.1-10.8 0-14.9s-10.8-4.1-14.8 0C60.5 18.7 55.8 14 50 14s-10.5 4.7-10.5 10.5c-4.1-4.1-10.8-4.1-14.8 0s-4.1 10.8 0 14.9c-5.8 0-10.5 4.7-10.5 10.5V82c0 2.6 1.4 4 4 4h63.7c2.6 0 4-1.4 4-4l-.1-32.1z"/>
	<path fill="#fff" d="M75.2 44.2c-1.5 0-3 .6-4 1.7H59.6l8.3-8.3c1.5 0 3-.6 4-1.7 2.2-2.2 2.2-5.8 0-8s-5.8-2.2-8 0c-1.1 1.1-1.7 2.6-1.7 4l-8.3 8.3V28.5c1-1 1.7-2.4 1.7-4 0-3.1-2.6-5.7-5.7-5.7s-5.7 2.6-5.7 5.7c0 1.5.6 3 1.7 4v11.6l-8.3-8.3c0-1.5-.6-3-1.7-4-2.2-2.2-5.8-2.2-8 0s-2.2 5.8 0 8c1.1 1.1 2.5 1.7 4 1.7l8.3 8.3H28.5c-1-1-2.5-1.7-4-1.7-3.1 0-5.7 2.6-5.7 5.7h62.1c0-3.1-2.5-5.6-5.7-5.6zM31.1 57.7c2.2 0 3.9 1.7 4.1 3.9h5.1c-.2-5.1-4.2-9-9.2-9-5.1 0-9.1 4.1-9.1 9.1 0 2.5 1 4.7 2.6 6.5 1.8 1.8 4 2.6 6.5 2.6 1 0 2.2.4 2.9 1.2.8.8 1.2 1.8 1.2 2.9 0 2.3-1.8 4.1-4.1 4.1-2.2 0-4-1.7-4.1-3.9h-5.1c.1 5 4.2 9 9.1 9 5.1 0 9.1-4.1 9.2-9.1 0-2.5-1-4.7-2.6-6.5-1.7-1.8-4-2.6-6.5-2.6h-.2c-1-.1-1.9-.5-2.6-1.2-.8-.8-1.2-1.8-1.2-2.9-.1-2.3 1.7-4.1 4-4.1zM50 71.1h-.4l-3.8-18.6h-5.2l6.6 31.6h5.2L59 52.5h-5.1zM68.7 70.8h3.9v4.1c0 2.3-1.8 4.1-4.1 4.1s-4.1-1.8-4.1-4.1V61.7c0-2.3 1.8-4.1 4.1-4.1 2.2 0 3.9 1.7 4.1 3.9h5.1c-.1-5-4.2-9-9.1-9-5 0-9.1 4-9.2 9v13.4c.1 5.1 4.2 9.2 9.2 9.2 5.1 0 9.1-4.1 9.1-9.1v-9.2h-9v5z"/>
</svg>