<svg xmlns="http://www.w3.org/2000/svg" viewBox="0 0 100 100">
	<path fill="#809CC9" d="M100 0H0v100h100V0Z"/>
	<path fill="#fff" d="M100 12.313c-14.664 2.645-29.9 5.963-45.709 9.954C31.6 27.997 13.511 33.685 0 39.339v18.769c2.835-.16 6.123-.395 9.865-.708 7.844-.654 17.706-1.617 29.575-2.89 7.65-.804 14.054-1.398 19.209-1.782 5.142-.38 9.172-.587 12.099-.619 5.712.04 8.795.931 9.237 2.678.51 2.018-2.573 4.492-9.247 7.428-6.674 2.936-16.185 5.96-28.528 9.076-12.563 3.172-26.634 5.905-42.21 8.2v6.246c13.8-2.109 30.149-5.55 49.045-10.32C69.325 70.296 86.314 65.04 100 59.644V38.656c-6.807.42-15.331 1.162-25.573 2.228-10.368 1.102-18.832 1.945-25.392 2.525-6.56.583-11.295.899-14.204.952-5.676.16-8.713-.598-9.136-2.272-.478-1.897 2.914-4.368 10.18-7.41 7.25-3.102 16.828-6.158 28.736-9.166C75.02 22.886 86.816 20.584 100 18.61v-6.297Z"/>
	<path fill="#fff" d="M4.307 64.098c.258 0 .482.097.674.293.19.19.286.418.286.681a.953.953 0 0 1-.286.699.943.943 0 0 1-.69.285.946.946 0 0 1-.697-.286.964.964 0 0 1-.287-.697c0-.275.096-.505.287-.69a.986.986 0 0 1 .713-.285Zm0 6.301c.258 0 .482.1.674.295a.95.95 0 0 1 .286.693.95.95 0 0 1-.286.692.986.986 0 0 1-.69.28.997.997 0 0 1-.697-.282.974.974 0 0 1-.286-.698.98.98 0 0 1 1-.979Zm3.384-6.301a.91.91 0 0 1 .674.293.93.93 0 0 1 .287.681.95.95 0 0 1-.287.699.94.94 0 0 1-.689.285.948.948 0 0 1-.698-.286.964.964 0 0 1-.286-.697c0-.275.095-.505.286-.69a.99.99 0 0 1 .713-.285Zm0 6.301c.26 0 .484.1.674.295a.946.946 0 0 1 .287.693c0 .27-.096.5-.287.692a.985.985 0 0 1-.689.28.997.997 0 0 1-.698-.282.974.974 0 0 1-.286-.698c0-.271.095-.503.286-.694a.983.983 0 0 1 .713-.286Z"/>
</svg>