<svg xmlns="http://www.w3.org/2000/svg" viewBox="0 0 100 100">
	<path fill="#85EA2D" d="M50 97.7C23.8 97.7 2.4 76.3 2.4 50 2.4 23.7 23.8 2.4 50 2.4c26.2 0 47.7 21.4 47.7 47.6 0 26.2-21.4 47.7-47.7 47.7Z"/>
	<path fill="#173647" d="M50 4.8C75 4.8 95.3 25 95.3 50 95.3 75 75 95.3 50 95.3 25 95.3 4.8 75 4.8 50 4.8 25 25 4.8 50 4.8ZM50 0C22.4 0 0 22.4 0 50s22.4 50 50 50 50-22.4 50-50S77.6 0 50 0Z"/>
	<path fill="#173647" d="M31.5 33.9c-.2 1.7.1 3.5-.1 5.2-.1 1.7-.3 3.4-.7 5.2-.5 2.4-2 4.3-4.1 5.8 4.1 2.7 4.5 6.8 4.8 10.9.1 2.3.1 4.5.3 6.8.2 1.7.8 2.2 2.6 2.2h2.3v5.3c-5.3.9-9.7-.6-10.7-5.1-.3-1.6-.6-3.3-.7-5-.1-1.8.1-3.6-.1-5.4-.4-4.9-1-6.6-5.7-6.8v-6c.3-.1.7-.1 1-.2 2.6-.1 3.7-.9 4.2-3.5.3-1.4.4-2.9.5-4.3.2-2.8.1-5.6.6-8.4.7-4 3.1-5.9 7.2-6.1 1.2-.1 2.3 0 3.7 0V30c-.6 0-1 .1-1.5.1-3.2-.2-3.3 1-3.6 3.8Zm6.4 12.6c-2-.1-3.7 1.4-3.8 3.3-.1 1.9 1.4 3.6 3.3 3.7h.2c1.9.1 3.5-1.3 3.7-3.3V50c.1-1.9-1.4-3.4-3.4-3.5Zm12.1 0c-1.9-.1-3.4 1.4-3.5 3.3v.3c0 2.1 1.4 3.4 3.6 3.4 2.1 0 3.4-1.4 3.4-3.6 0-2-1.4-3.4-3.5-3.4Zm12.3 0c-2 0-3.6 1.5-3.7 3.5 0 2 1.6 3.5 3.5 3.5 1.8.3 3.6-1.4 3.7-3.5.2-1.8-1.5-3.5-3.5-3.5Zm17 .3c-2.2-.1-3.3-.8-3.9-3-.3-1.3-.6-2.8-.6-4.1-.2-2.6-.1-5.2-.3-7.8-.4-6.1-4.8-8.3-11.3-7.2V30h2.6c1.4 0 2.4.5 2.5 2.1.1 1.4.1 2.8.3 4.2.3 2.8.4 5.6.9 8.4.4 2.3 2 4 3.9 5.3-3.4 2.3-4.4 5.6-4.6 9.2-.1 2.5-.2 5.1-.3 7.6-.1 2.3-.9 3.1-3.3 3.1-.7 0-1.3.1-2 .1v5.4c1.4 0 2.6.1 3.9 0 3.9-.2 6.2-2.1 7-5.9.3-2.1.5-4.2.6-6.3.1-1.9.1-3.9.3-5.8.3-3 1.7-4.2 4.6-4.4.3 0 .6-.1.8-.2v-6.1c-.4.2-.8.1-1.1.1Z"/>
</svg>