<svg xmlns="http://www.w3.org/2000/svg" viewBox="0 0 100 100">
	<linearGradient id="a" x1="59.4955" x2="40.6144" y1="104.9793" y2="-2.0997" gradientTransform="matrix(1 0 0 -1 0 101.433)" gradientUnits="userSpaceOnUse">
		<stop offset="0" stop-color="#faae42"/>
		<stop offset="1" stop-color="#ef3e31"/>
	</linearGradient>
	<path fill="url(#a)" d="M22.2 0h55.4c2.7 0 5.3.4 7.8 1.3 3.7 1.3 7 3.7 9.5 6.7 2.5 3.1 4.2 6.8 4.8 10.7.2 1.4.3 2.9.3 4.3v54c0 1.7-.1 3.5-.4 5.2-.8 3.9-2.6 7.5-5.3 10.4-2.6 2.9-6.1 5.1-9.8 6.3-2.3.7-4.6 1-7 1H21.2c-4-.2-7.9-1.5-11.2-3.7C6.7 94 4.1 91 2.4 87.5.9 84.5.2 81.1.2 77.8V22.2c-.1-3.3.6-6.6 2.1-9.6C4 9.1 6.6 6 9.8 3.8 13.1 1.6 17 .3 21 .1c.4-.1.8-.1 1.2-.1z"/>
	<linearGradient id="b" x1="51.0061" x2="37.1793" y1="99.7938" y2="21.3761" gradientTransform="matrix(1 0 0 -1 0 101.433)" gradientUnits="userSpaceOnUse">
		<stop offset="0" stop-color="#e39f3a"/>
		<stop offset="1" stop-color="#d33929"/>
	</linearGradient>
	<path fill="url(#b)" d="M84.3 81.8c-.4-.6-.7-1.1-1.2-1.6-1-1.2-2.1-2.2-3.4-3-1.6-1.1-3.4-1.7-5.3-1.8-1.3-.1-2.7.2-3.9.6-1.2.4-2.5 1.1-3.6 1.7-1.4.7-2.7 1.4-4.2 2-1.7.7-3.5 1.3-5.3 1.6-2.3.4-4.6.6-7 .5-4.2-.1-8.3-.7-12.3-1.9-3.5-1-6.9-2.5-10-4.3-2.8-1.6-5.4-3.4-7.8-5.5-2-1.7-3.8-3.5-5.5-5.5-1.2-1.4-2.3-2.8-3.4-4.3l-1.2-1.8L0 47.3V22.2C0 9.9 9.9 0 22.1 0h19.7l14.6 14.8C89.4 37.3 78.7 62 78.7 62s9.4 10.5 5.6 19.8z"/>
	<path fill="#fff" d="M56.5 14.9C89.5 37.3 78.8 62 78.8 62s9.4 10.6 5.6 19.8c0 0-3.9-6.5-10.3-6.5-6.2 0-9.9 6.5-22.5 6.5-28 0-41.2-23.4-41.2-23.4 25.2 16.6 42.4 4.8 42.4 4.8C41.4 56.6 17.3 25 17.3 25c21 17.9 30.1 22.6 30.1 22.6-5.4-4.5-20.7-26.4-20.7-26.4 12.2 12.3 36.4 29.6 36.4 29.6 6.9-19-6.6-35.9-6.6-35.9z"/>
</svg>