<svg xmlns="http://www.w3.org/2000/svg" viewBox="0 0 100 100">
	<path fill="#000" d="M0 50.59c.024 6.065 4.963 11.03 11.031 11.03a11.045 11.045 0 0 0 11.032-11.027v-1.565a4.55 4.55 0 0 1 8.064-2.864h7.134A11.052 11.052 0 0 0 26.605 38a11.046 11.046 0 0 0-11.028 11.032v1.557a4.55 4.55 0 0 1-4.549 4.542 4.549 4.549 0 0 1-4.542-4.542 1.3 1.3 0 0 0-1.3-1.3h-3.89A1.299 1.299 0 0 0 0 50.59Zm42.213 11.03a11.077 11.077 0 0 1-10.645-8.167h7.123a4.536 4.536 0 0 0 8.064-2.86v-1.565A11.046 11.046 0 0 1 57.787 38c6.007 0 10.904 4.825 11.028 10.797l.034 1.792a4.548 4.548 0 0 0 8.064 2.864h7.134a11.052 11.052 0 0 1-10.652 8.168c-6.069 0-11.007-4.97-11.032-11.028l-.034-1.62v-.069a4.55 4.55 0 0 0-4.542-4.415 4.55 4.55 0 0 0-4.542 4.543v1.557a11.045 11.045 0 0 1-11.032 11.032Zm43.233-15.452a4.535 4.535 0 0 1 8.065 2.864 1.3 1.3 0 0 0 1.299 1.299h3.894a1.3 1.3 0 0 0 1.296-1.3A11.046 11.046 0 0 0 88.969 38a11.051 11.051 0 0 0-10.656 8.168h7.133Z"/>
</svg>