<svg xmlns="http://www.w3.org/2000/svg" viewBox="0 0 100 100">
	<path fill="#1A171B" d="M50 100c27.614 0 50-22.386 50-50S77.614 0 50 0 0 22.386 0 50s22.386 50 50 50Z"/>
	<path fill="#fff" d="M71.86 18.502c-5.08.177-9.514 2.976-12.814 6.85-3.654 4.245-6.085 9.281-7.837 14.422-3.133-2.568-5.55-5.893-10.578-7.342-3.885-1.116-7.966-.655-11.719 2.141-1.778 1.328-3.002 3.335-3.585 5.223-1.508 4.903 1.585 9.268 2.99 10.835l3.073 3.292c.633.645 2.158 2.33 1.412 4.743-.805 2.626-3.97 4.325-7.216 3.324-1.45-.443-3.532-1.523-3.066-3.043.193-.623.638-1.088.877-1.626.219-.462.323-.808.39-1.012.593-1.936-.218-4.455-2.291-5.094-1.935-.594-3.915-.124-4.682 2.367-.87 2.83.484 7.967 7.738 10.204 8.5 2.611 15.69-2.017 16.71-8.053.642-3.78-1.065-6.589-4.192-10.202l-2.548-2.817c-1.544-1.542-2.074-4.17-.477-6.19 1.349-1.704 3.268-2.432 6.412-1.577 4.59 1.247 6.636 4.431 10.05 7-1.41 4.623-2.331 9.263-3.165 13.424l-.508 3.103c-2.44 12.8-4.303 19.827-9.144 23.862-.975.693-2.369 1.732-4.47 1.804-1.102.034-1.458-.724-1.473-1.054-.026-.773.625-1.127 1.058-1.475.647-.353 1.626-.939 1.56-2.814-.072-2.215-1.906-4.136-4.56-4.048-1.987.068-5.015 1.938-4.901 5.361.118 3.536 3.414 6.186 8.382 6.018 2.656-.091 8.587-1.173 14.432-8.12 6.803-7.966 8.706-17.097 10.137-23.78l1.598-8.823c.887.106 1.836.177 2.869.202 8.473.179 12.711-4.21 12.774-7.403.042-1.932-1.268-3.833-3.101-3.79-1.313.037-2.961.91-3.357 2.726-.387 1.78 2.696 3.388.286 4.948-1.711 1.108-4.78 1.889-9.101 1.254L60.608 39c1.604-8.236 3.582-18.367 11.087-18.613.546-.028 2.548.024 2.594 1.348.014.442-.096.554-.613 1.567-.527.788-.726 1.46-.701 2.232.072 2.103 1.671 3.485 3.984 3.401 3.096-.1 3.987-3.114 3.936-4.663-.125-3.637-3.96-5.936-9.036-5.77Z"/>
</svg>