<svg xmlns="http://www.w3.org/2000/svg" viewBox="0 0 100 100">
	<path fill="#7099A6" d="M48.41 5.529v4.547h-8.133v2.957h8.133v9.058h3.18v-9.058h8.336v-2.957H51.59V1h-3.18v4.529Z"/>
	<path fill="#EB912C" d="M21.83 17.063v6.6H9.52v4.14h12.31v13.4h4.565v-13.4h12.496v-4.14H26.395v-13.2H21.83v6.6Z"/>
	<path fill="#59879B" d="M73.42 17.063v6.6H61.11v4.343h12.31v13.198h4.75V28.006h12.31v-4.344H78.17V10.464h-4.75v6.6Z"/>
	<path fill="#E8762C" d="M47.228 39.54v7.393H33.53v5.509h13.697v14.787h5.545V52.442H66.47v-5.509H52.773V32.146h-5.545v7.394Z"/>
	<path fill="#5B6591" d="M87.505 43.274v4.64h-8.337v3.752h8.337v9.26h4.159v-9.26H100v-3.752h-8.336v-9.261h-4.16v4.62Z"/>
	<path fill="#7099A6" d="M8.133 43.68v4.436H0v3.142h8.133v8.873h3.18v-8.873l8.336-.295v-2.847h-8.337v-8.872H8.133v4.436Z"/>
	<path fill="#C72035" d="M21.83 64.567v6.599H9.52v4.344h12.31v13.198h4.75V75.51h12.31v-4.344H26.58V57.968h-4.75v6.6Z"/>
	<path fill="#1F447E" d="M73.42 64.567v6.599H61.11v4.14h12.31v13.402h4.75V75.307h12.31v-4.141H78.17V57.968h-4.75v6.6Z"/>
	<path fill="#5B6591" d="M48.023 81.333v4.621h-8.337v3.752h8.337v9.26h4.158v-9.26h8.337v-3.752h-8.337v-9.26h-4.158v4.639Z"/>
</svg>