<svg xmlns="http://www.w3.org/2000/svg" viewBox="0 0 100 100">
	<path fill="#38BDF8" d="M50.001 20C36.667 20 28.335 26.627 25 39.881c5-6.627 10.834-9.111 17.5-7.456 3.803.945 6.523 3.688 9.531 6.725 4.903 4.946 10.578 10.67 22.97 10.67 13.332 0 21.666-6.627 24.999-19.88-4.999 6.628-10.832 9.112-17.499 7.455-3.805-.945-6.525-3.688-9.532-6.724C68.066 25.722 62.393 20 50 20ZM25 49.82c-13.333 0-21.667 6.627-25 19.881 5-6.627 10.834-9.112 17.498-7.456 3.806.945 6.526 3.688 9.534 6.725C31.934 73.916 37.606 79.64 50 79.64c13.333 0 21.666-6.625 25-19.88-5 6.628-10.834 9.113-17.5 7.456-3.803-.946-6.523-3.69-9.531-6.725-4.903-4.945-10.578-10.671-22.97-10.671Z"/>
</svg>