<svg xmlns="http://www.w3.org/2000/svg" viewBox="0 0 100 100">
	<path fill="#ffc131" d="M67.6 36.2c-.1-5.3-4.4-9.5-9.6-9.4-5.3.1-9.5 4.4-9.4 9.6.1 5.2 4.2 9.4 9.4 9.4 5.3.1 9.6-4.2 9.6-9.4v-.2z"/>
	<path fill="#ffc131" d="M85.3 12.3C80.6 7 74.6 3.2 67.8 1.3c-6.7-1.9-13.9-1.8-20.6.3-11.4 3.6-20.3 12.5-23.9 23.9 4.4-2.1 9.1-3.5 13.9-4.1C44.3 11.5 57.4 8 68.5 13c12.9 5.9 18.6 21 12.8 33.9-2.9 6.4-8.3 11.3-14.9 13.6.1 1 .2 2.1.2 3.1 0 2.9-.5 5.7-1.4 8.4 4.5-.9 8.7-2.6 12.5-5.1 1.5-1 3-2.1 4.4-3.3 15.1-13.3 16.5-36.3 3.2-51.3z"/>
	<path fill="#24c8db" d="M32.5 63.6c0 5.3 4.3 9.5 9.5 9.5 5.3 0 9.5-4.3 9.5-9.5-.1-5.2-4.2-9.4-9.4-9.4s-9.6 4.2-9.6 9.4z"/>
	<path fill="#24c8db" d="M62.7 78.5c-6.3 8.7-17.3 12.6-27.7 9.7-4.7-1.3-9-4-12.3-7.7-3.3-3.7-5.4-8.2-6.1-13.1-.7-4.9-.1-9.8 2-14.3 2.9-6.4 8.2-11.3 14.8-13.6-.1-.9-.1-1.8-.1-2.7 0-3 .5-6 1.6-8.8-4.5.9-8.8 2.6-12.6 5.1-5.9 3.8-10.5 9.2-13.4 15.6-5.9 13-3.6 28.3 5.9 39 4.6 5.2 10.7 9 17.4 10.9 6.7 1.9 13.9 1.8 20.6-.3 6.7-2.1 12.6-6 17.1-11.4 3.1-3.7 5.4-7.9 6.8-12.5-4.4 2.2-9.1 3.6-14 4.1z"/>
</svg>