<svg xmlns="http://www.w3.org/2000/svg" viewBox="0 0 100 100">
	<linearGradient id="a" x1="38.7976" x2="30.2465" y1="40.5289" y2="65.8386" gradientTransform="matrix(1 0 0 -1 0 101.433)" gradientUnits="userSpaceOnUse">
		<stop offset="0" stop-color="#07c3f2"/>
		<stop offset="1" stop-color="#6b57ff"/>
	</linearGradient>
	<path fill="url(#a)" d="m25.5 86.5-21-55.1C3.2 28 2.7 24.3 3.1 20.6c.4-3.7 1.7-7.2 3.7-10.2 2-3.1 4.8-5.6 8-7.4C18 1.2 21.6.2 25.3.1c5-.1 9.8 1.3 13.9 4.2 4.1 2.9 7.1 7 8.6 11.7l18.3 56C70 83.3 29.6 97.4 25.5 86.5z"/>
	<linearGradient id="b" x1="35.8836" x2="66.5262" y1="31.9446" y2="47.3284" gradientTransform="matrix(1 0 0 -1 0 101.433)" gradientUnits="userSpaceOnUse">
		<stop offset="0" stop-color="#07c3f2"/>
		<stop offset="1" stop-color="#009ae5"/>
	</linearGradient>
	<path fill="url(#b)" d="M88.4 69 37 96.8c-3 1.6-6.3 2.6-9.7 2.9-3.4.3-6.8-.1-10.1-1.2-3.2-1.1-6.2-2.8-8.7-5.1-2.5-2.3-4.6-5.1-6-8.2C1.1 82.1.4 78.8.3 75.5c-.1-3.4.5-6.7 1.8-9.8 1.2-3.1 3.1-5.9 5.5-8.3 2.4-2.4 5.2-4.2 8.3-5.5L70.1 30c4.5-1.8 9.4-2.1 14.1-.7 4.6 1.3 8.7 4.2 11.5 8.1 1.8 2.5 3 5.3 3.7 8.4.6 3 .6 6.1-.1 9.1s-2 5.8-3.9 8.3c-2 2.3-4.3 4.3-7 5.8z"/>
	<linearGradient id="c" x1="74.7311" x2="24.0281" y1="46.9955" y2="85.2727" gradientTransform="matrix(1 0 0 -1 0 101.433)" gradientUnits="userSpaceOnUse">
		<stop offset="0" stop-color="#009ae5"/>
		<stop offset="1" stop-color="#6b57ff"/>
	</linearGradient>
	<path fill="url(#c)" d="M69 69.5 16 43.9c-3.3-1.6-6.2-4-8.4-6.9s-3.7-6.4-4.3-10c-.7-3.7-.4-7.5.7-11s3.1-6.7 5.7-9.3c3.5-3.5 8.1-5.8 13-6.5 4.9-.7 9.9.2 14.3 2.6l51.8 28.1c5 2.7 8.7 7.3 10.4 12.8 1.6 5.5 1.1 11.3-1.6 16.4-2.6 5-7 8.7-12.4 10.5-5.4 1.7-11.2 1.3-16.2-1.1z"/>
	<linearGradient id="d" x1="22.1893" x2="56.7273" y1="20.6807" y2="91.017" gradientTransform="matrix(1 0 0 -1 0 101.433)" gradientUnits="userSpaceOnUse">
		<stop offset=".3" stop-color="#07c3f2"/>
		<stop offset=".6" stop-color="#3bea62"/>
	</linearGradient>
	<path fill="url(#d)" d="M14.7 97.7c-3.5-1.6-6.6-4-9-7s-4.2-6.5-5-10.2c-.9-3.8-.9-7.7 0-11.4s2.6-7.2 5.1-10.2L50.6 4.7c1.7-2.1 4.1-3.6 6.8-4.2 2.7-.6 5.5-.3 8 .8 2.9 1.3 5.1 3.6 6.4 6.5 1.2 2.9 1.3 6.1.3 9.1L48.7 83.3c-1.1 3.3-3 6.3-5.3 8.8s-5.3 4.6-8.5 5.9c-3.2 1.4-6.6 2-10.1 2s-7-.8-10.1-2.3z"/>
	<path d="M18.8 18.8h62.5v62.5H18.8V18.8z"/>
	<path fill="#fff" d="M26.6 69.4H50v3.9H26.6v-3.9zM32.9 31.2h-7.2v-4.8h19.5v4.8H38V50h-5.2V31.2zM47.1 38.3c0-1.7.3-3.3.9-4.8.6-1.5 1.5-2.9 2.7-4 1.1-1.1 2.5-2 4-2.6 1.5-.6 3.1-.9 4.7-.8 1.7-.1 3.4.2 5 .8 1.6.6 3 1.6 4.2 2.8l-3.3 3.8c-1.6-1.6-3.7-2.6-6-2.7-4 0-6.8 3.3-6.8 7.3v.1c0 4 2.8 7.4 6.8 7.4 2.7 0 4.3-1 6.2-2.7l3.3 3.3c-1.2 1.4-2.7 2.5-4.3 3.2-1.7.7-3.5 1.1-5.3 1-1.6 0-3.2-.3-4.6-.9-1.5-.6-2.8-1.5-3.9-2.6s-2-2.5-2.6-3.9c-.7-1.5-1-3.1-1-4.7z"/>
</svg>