<svg xmlns="http://www.w3.org/2000/svg" viewBox="0 0 100 100">
	<path fill="#000" d="M0 16.672C0 9.122 6.121 3 13.672 3h72.656C93.878 3 100 9.121 100 16.672v66.016c0 7.55-6.121 13.671-13.672 13.671H13.672C6.122 96.36 0 90.24 0 82.688V16.671Z"/>
	<path fill="#F8F8FB" d="M14.214 17.487a3.613 3.613 0 0 1 5.088-.469l16.211 13.477a3.613 3.613 0 0 1 0 5.557L19.303 49.53a3.613 3.613 0 0 1-4.62-5.558L27.55 33.275l-12.868-10.7a3.613 3.613 0 0 1-.468-5.089ZM33.3 46.75a3.613 3.613 0 0 1 3.614-3.613H49.61a3.613 3.613 0 0 1 0 7.226H36.914a3.613 3.613 0 0 1-3.613-3.613Z"/>
</svg>