<svg xmlns="http://www.w3.org/2000/svg" viewBox="0 0 100 100">
	<path fill="#000" d="M.034 1.387A1.118 1.118 0 0 1 1.428.045l24.076 6.931c.215 0 .429.061.61.176l47.484 13.67c.197.005.39.06.56.162l24.077 6.932a1.118 1.118 0 0 1 .466 1.88L26.043 99.687a1.118 1.118 0 0 1-1.86-.537L12.13 50.357a1.152 1.152 0 0 1-.038-.153L.034 1.387Zm20.623 74.17 5.231 21.177L41.64 81.58l-20.983-6.023Zm16.226-16.745-15.251 14.7 20.316 5.832-5.066-20.532Zm2.263-.157 5.05 20.467 15.21-14.63-20.26-5.837Zm-24.4-7.032 5.07 20.534L35.05 57.474l-20.305-5.85Zm40.121-10.166L39.372 56.392l20.65 5.95-5.155-20.887Zm2.172-.532 5.154 20.886L77.73 46.865l-20.692-5.94Zm-26.147-6.4-15.528 14.95 20.687 5.961-5.159-20.91Zm2.163-.563 5.066 20.532 15.25-14.7-20.316-5.832ZM8.66 26.989l5.156 20.873 15.517-14.938L8.66 26.989Zm64.298-2.898-15.25 14.7 20.316 5.833-5.066-20.533Zm2.18-.499 5.138 20.825 15.478-14.889-20.616-5.936Zm-26.255-6.386L33.701 31.822l20.221 5.804-5.038-20.42Zm2.167-.549 5.073 20.557L71.378 22.51 51.05 16.657Zm-26.158-6.412L9.64 24.945l20.316 5.833-5.065-20.533Zm2.181-.491 5.053 20.48L47.34 15.59 27.073 9.754ZM2.667 2.727l5.155 20.868L23.306 8.669 2.667 2.727Z"/>
</svg>