<svg xmlns="http://www.w3.org/2000/svg" viewBox="0 0 100 100">
	<path fill="#000" d="M45.072 80.21h7.27V44.346l-7.27-2.423V80.21Z"/>
	<path fill="#000" d="M66.397 28.514c-.08 4.847-1.615 7.35-4.846 7.35-3.312 0-6.704-1.776-11.228-3.957-6.139-2.908-9.047-3.716-12.843-3.716-6.22 0-11.066 5.17-10.743 14.055h5.412c.08-5.654 2.1-8.159 5.33-8.159 3.232 0 6.624 1.697 10.825 3.797 6.22 2.827 9.45 4.12 13.085 4.12 5.574 0 10.743-2.99 10.34-13.49h-5.332Z"/>
	<path fill="#000" d="M50 0C22.456 0 0 22.456 0 50s22.456 50 50 50 50-22.456 50-50S77.625 0 50 0Zm0 96.769C24.233 96.769 3.231 75.849 3.231 50 3.231 24.152 24.233 3.231 50 3.231S96.769 24.233 96.769 50 75.767 96.769 50 96.769Z"/>
</svg>