<svg xmlns="http://www.w3.org/2000/svg" viewBox="0 0 100 100">
	<linearGradient id="a" x1="50" x2="50" y1="1.4651" y2="101.4009" gradientTransform="matrix(1 0 0 -1 0 101.433)" gradientUnits="userSpaceOnUse">
		<stop offset="0" stop-color="#0052cc"/>
		<stop offset="1" stop-color="#2684ff"/>
	</linearGradient>
	<path fill="url(#a)" d="M88.1 0H11.9C8.7 0 5.7 1.3 3.5 3.5S0 8.8 0 11.9V88c0 1.6.3 3.1.9 4.6.6 1.4 1.5 2.8 2.6 3.9s2.4 2 3.9 2.6c1.4.6 3 .9 4.6.9h76.2c1.6 0 3.1-.3 4.6-.9 1.4-.6 2.8-1.5 3.9-2.6s2-2.4 2.6-3.9c.6-1.4.9-3 .9-4.6V11.9c0-3.1-1.3-6.2-3.5-8.4C94.3 1.3 91.3 0 88.1 0zm-45 72c0 .5-.1 1-.3 1.5-.2.5-.5.9-.9 1.3s-.8.7-1.3.9c-.5.2-1 .3-1.5.3H22.5c-1 0-2-.4-2.8-1.2-.7-.7-1.2-1.7-1.2-2.8V22.4c0-1 .4-2.1 1.2-2.8.7-.7 1.7-1.2 2.8-1.2h16.7c1 0 2.1.4 2.8 1.2.7.7 1.2 1.7 1.2 2.8L43.1 72zm38.5-22.8c0 .5-.1 1-.3 1.5-.2.5-.5.9-.9 1.3s-.8.7-1.3.9c-.5.2-1 .3-1.5.3H60.9c-1 0-2.1-.4-2.8-1.2-.7-.7-1.2-1.7-1.2-2.8V22.4c0-1 .4-2.1 1.2-2.8.7-.7 1.7-1.2 2.8-1.2h16.7c1 0 2 .4 2.8 1.2.7.7 1.2 1.7 1.2 2.8v26.8z"/>
</svg>