<svg xmlns="http://www.w3.org/2000/svg" viewBox="0 0 100 100">
	<path fill="#398ccb" d="M70.7 0H29.3C13.1 0 0 13.1 0 29.3v41.4C0 86.9 13.1 100 29.3 100h41.4c16.2 0 29.3-13.1 29.3-29.3V29.3C100 13.1 86.9 0 70.7 0z"/>
	<path fill="#fff" d="M80.6 53.4V36.8l-16.8-9.7v-4.4l-13.9-8-13.9 8v4.6l-16.4 9.5v16.7L15.2 56v16l13.9 8 6.1-3.5 14.9 8.6 15-8.6 6.2 3.6 13.9-8V56l-4.6-2.6zM41.4 23.7l8.5-4.9 8.5 4.9-8.5 4.9-8.5-4.9zm18.8 3.1v9.8l-8.5 4.9v-9.8l8.5-4.9zm-20.6 0 8.5 4.9v9.8l-8.5-4.9v-9.8zm-12.3 48-8.5-4.9v-9.8l8.5 4.9v9.8zM20.7 57l8.5-4.9 8.5 4.9-8.5 4.9-8.5-4.9zm10.2 17.8V65l8.5-4.9v9.8l-8.5 4.9zm19.2 6.1-11.3-6.5L43 72V56l-13.9-8-5.9 3.4V38.8L36 31.4v7.2l13.9 8 13.9-8v-7.5L77 38.8v12.4L71.2 48l-13.9 8v16l4.1 2.4-11.3 6.5zm19.3-6.1-8.5-4.9v-9.8l8.5 4.9v9.8zM62.7 57l8.5-4.9 8.5 4.9-8.5 4.9-8.5-4.9zm18.8 12.9L73 74.8V65l8.5-4.9v9.8z"/>
</svg>