<svg xmlns="http://www.w3.org/2000/svg" viewBox="0 0 100 100">
	<linearGradient id="a" x1="10.069" x2="97.452" y1="83.1333" y2="13.7683" gradientTransform="matrix(1 0 0 -1 0 101.433)" gradientUnits="userSpaceOnUse">
		<stop offset="0" stop-color="#9013fe"/>
		<stop offset="1" stop-color="#6610f2"/>
	</linearGradient>
	<path fill="url(#a)" d="M11 20.6c-.2-5.4 4-10.4 9.7-10.4h58.5c5.7 0 9.9 5 9.7 10.4-.1 5.2.1 11.9 1.8 17.4 1.7 5.5 4.6 9 9.3 9.4v5.1c-4.7.4-7.6 3.9-9.3 9.4-1.7 5.6-1.9 12.3-1.7 17.5.2 5.4-4 10.4-9.7 10.4H20.8c-5.7 0-9.9-5-9.7-10.4.1-5.2-.1-11.9-1.8-17.4-1.7-5.5-4.6-9-9.3-9.4v-5.1c4.7-.5 7.6-4 9.3-9.5 1.7-5.5 1.9-12.2 1.7-17.4z"/>
	<linearGradient id="SVGID_00000036216929766133648970000017443432114530789032_" x1="37.514" x2="56.808" y1="68.2833" y2="35.6529" gradientUnits="userSpaceOnUse">
		<stop offset="0" stop-color="#fff"/>
		<stop offset="1" stop-color="#f1e5fc"/>
	</linearGradient>
	<path fill="url(#SVGID_00000036216929766133648970000017443432114530789032_)" d="M57.1 48.8v-.2c4.3-.7 7.7-4.7 7.7-9.2 0-6.4-5.1-10.6-12.8-10.6H34.7v42.4h17.4c9.2 0 14.8-4.5 14.8-12 .1-5.6-3.9-9.7-9.8-10.4zM41.5 34.2h9c4.9 0 7.6 2.2 7.6 6.1 0 4.2-3.2 6.5-9.1 6.5h-7.6V34.2zm9.3 31.6h-9.3v-14h8.9c6.4 0 9.7 2.4 9.7 6.9 0 4.7-3.2 7.1-9.3 7.1z"/>
	<path fill="#fff" d="M34.2 28.3H52c3.9 0 7.2 1.1 9.6 3 2.3 1.9 3.7 4.7 3.7 8.1 0 4.1-2.7 7.9-6.4 9.3 5.2 1.2 8.6 5.2 8.6 10.6 0 3.9-1.4 7-4.1 9.2-2.7 2.2-6.5 3.3-11.2 3.3h-18V28.3zm1 1v41.4h16.9c4.5 0 8.1-1.1 10.6-3.1 2.4-2 3.8-4.8 3.8-8.4 0-5.4-3.8-9.2-9.4-9.9h-.4v-1.1l.4-.1c4.1-.7 7.3-4.5 7.3-8.7 0-3.1-1.2-5.6-3.3-7.3-2.1-1.8-5.2-2.8-8.9-2.8h-17zm5.8 4.4h9.5c2.5 0 4.5.6 6 1.7 1.4 1.1 2.2 2.8 2.2 4.9 0 2.2-.9 4-2.5 5.3-1.7 1.2-4 1.8-7 1.8H41V33.7zm1 1v11.7h7c2.9 0 5-.6 6.4-1.6 1.4-1 2.1-2.5 2.1-4.4 0-1.8-.6-3.2-1.8-4.1-1.2-.9-3-1.5-5.3-1.5H42v-.1zm-1 16.7h9.4c3.2 0 5.8.6 7.5 1.8 1.8 1.3 2.7 3.2 2.7 5.6 0 2.4-.9 4.3-2.6 5.6-1.7 1.3-4.1 1.9-7.2 1.9H41V51.4zm1 1v13h8.8c3 0 5.2-.6 6.6-1.7 1.4-1.1 2.2-2.7 2.2-4.8 0-2.2-.8-3.7-2.2-4.8-1.5-1.1-3.8-1.7-6.9-1.7H42z"/>
</svg>