<svg xmlns="http://www.w3.org/2000/svg" viewBox="0 0 100 100">
	<path fill="#3178c6" d="M7.8 0h84.4c4.3 0 7.8 3.5 7.8 7.8v84.4c0 4.3-3.5 7.8-7.8 7.8H7.8C3.5 100 0 96.5 0 92.2V7.8C0 3.5 3.5 0 7.8 0z"/>
	<path fill="#fff" d="M90.9 72.2c-.6-1.5-1.4-2.8-2.5-3.9s-2.4-2.2-4-3.1c-1.5-.9-3.3-1.8-5.2-2.6-1.3-.5-2.6-1.1-3.8-1.7-1.1-.5-2.1-1.1-2.9-1.7-.8-.6-1.4-1.2-1.8-1.8-.4-.6-.7-1.4-.6-2.2 0-.7.2-1.4.6-2 .4-.6.9-1.1 1.6-1.5.7-.4 1.6-.8 2.6-1 1-.2 2.1-.4 3.4-.4 2 0 4 .3 5.9.8 1 .3 2 .6 3 1.1 1 .4 1.8.9 2.7 1.5v-10c-1.6-.6-3.4-1.1-5.4-1.4-1.9-.3-4.2-.5-6.7-.5-2.6 0-5 .3-7.3.8-2.5.6-4.5 1.4-6.3 2.6-1.7 1.1-3.1 2.7-4.1 4.5-1 1.8-1.5 4-1.5 6.5 0 3.2.9 6 2.8 8.2 1.9 2.3 4.7 4.2 8.5 5.8 1.5.6 2.9 1.2 4.2 1.8 1.3.6 2.4 1.2 3.3 1.8.9.6 1.7 1.3 2.2 2.1.5.7.8 1.6.8 2.5 0 .7-.2 1.3-.5 1.9-.3.6-.9 1.1-1.5 1.5-.7.4-1.5.8-2.6 1-1 .2-2.2.4-3.6.4-2.3 0-4.7-.4-7-1.2-2.3-.8-4.4-2.1-6.4-3.7v10.8c1.8.9 3.8 1.6 6.2 2 2.4.4 4.9.7 7.6.7 2.6 0 5-.2 7.4-.7s4.4-1.3 6.1-2.4c1.7-1.1 3.2-2.6 4.2-4.5 1-1.8 1.5-4.1 1.5-6.8 0-2-.3-3.7-.9-5.2zM16 51.5h13.8V91h11V51.5h13.9v-8.9H16z"/>
</svg>