<svg xmlns="http://www.w3.org/2000/svg" viewBox="0 0 100 100">
	<path fill="#8e8f8f" d="M54.2 17.6c1.2 0 2.2 1 2.2 2.2v25.4c0 1.2-1 2.2-2.2 2.2H33.5c-1.2 0-2.2-1-2.2-2.2V19.8c0-1.2 1-2.2 2.2-2.2h20.7zm0 1H33.5c-.7 0-1.2.5-1.2 1.2v25.4c0 .7.5 1.2 1.2 1.2h20.7c.7 0 1.2-.5 1.2-1.2V19.8c0-.7-.6-1.2-1.2-1.2zM36.4 41.2v1.5H35v-1.5h1.4zm16.5 0v1.5H37.2v-1.5h15.7zm-16.5-6.4v1.5H35v-1.5h1.4zm16.5 0v1.5H37.2v-1.5h15.7zm-16.5-6.1v1.5H35v-1.5h1.4zm16.5 0v1.5H37.2v-1.5h15.7zm0-5.7v1.5H35V23h17.9zm1.3 29.5c.2 0 2.2.2 2.2 2.2V80c0 .2-.2 2.2-2.2 2.2H33.5c-.3 0-2.2-.2-2.2-2.2V54.7c0-.3.2-2.2 2.2-2.2h20.7zm0 1H33.5c-.7 0-1.2.5-1.2 1.2v25.4c0 .7.5 1.2 1.2 1.2h20.7c.7 0 1.2-.5 1.2-1.2 0-26.5.5-26.6-1.2-26.6zM36.4 76.1v1.5H35v-1.5h1.4zm16.5 0v1.5H37.2v-1.5h15.7zm-16.5-6.4v1.5H35v-1.5h1.4zm16.5 1.5H37.2v-1.5h15.7v1.5zm-16.5-7.6v1.5H35v-1.5h1.4zm16.5 0V65H37.2v-1.5l15.7.1zm0-5.7v1.5H35v-1.5h17.9zm7.2-25.4v1.2h7.4v33.4h-7.4v1.2h8.6V32.5h-8.6z"/>
	<path fill="#fe0902" d="M7.6 10.8c2.7-4.4 9.5-5.9 14.3-5.7V11c-4.7-.4-9 .7-9.4 5.3 0 .1 0 11.6-.2 22.9-.1 4.7.5 9.5-7 11.1 4.4.9 6.2 3.1 6.7 5.9.4 2.3.4 16.1.4 23.7 0 3.8-1.5 10.8 9.3 9.8v5.9c-5.3.3-12.2-1.4-14.7-6.2.4-3.9 2-7.3 5.3-9.4C9 82 7.4 85.6 7 89.4c-1.4-2.8-.8-.2-1.8-29.8.1-3.6-1.6-5.9-5.2-5.8v-6.9c6.8.3 5.5-6.3 6-25.4.1-5.2-.1-7.9 1.6-10.7zm70.5.1V5c5.7-.2 12.6 1.5 14.9 6.8 1.1 2.5.8 2.5 1.2 18.8.3 9.7-.8 16.4 5.8 16.2v6.9c-7-.2-5.5 8-5.8 17.1-.4 15.4-.2 15.3-1 17.6-2.2 5.6-9.7 7.4-15 7.1v-5.9c4.4.4 8.7-.5 9.3-4.9.2-1.7-.3-26.7.7-29.7 1-2.9 3.4-4.2 6.5-4.8-8.6-1.8-7.1-6-7.2-29.9 2.1-1.2 3.6-3 4.6-5.1-1 2.2-2.5 4-4.6 5.1v-4.1c-.3-4.5-4.5-5.7-9.1-5.4 0 .1-.3.1-.3.1z"/>
	<path fill="#ffab00" d="M12.5 19.3c0-2.2-1.3-9.3 9.3-8.3V5.1c-5-.2-11.6 1.2-14.3 5.7.5 3.5 2.1 6.7 5 8.5zm9.4 70.4c-5 .5-9.6-1-9.4-5.9v-3.9c-3.3 2.1-5 5.6-5.3 9.5 2.5 4.8 9 6.4 14.4 6.3.4-.1.3.8.3-6zM93 11.8c-2.3-5.3-9.6-7-14.9-6.8v5.9c3.7-.3 7.7.2 9 3.6.5 1.4.3 1.8.3 5.8 3.3-1.7 5-4.9 5.6-8.5zM88.7 81c-.4-.3-.8-.5-1.2-.7 0 3.2.2 4.7-.5 6.2-1.6 3.1-5.4 3.5-8.8 3.2v5.9c5.7.3 12.9-1.6 15-7.1-.6-3.2-2.1-5.8-4.5-7.5z"/>
</svg>