<svg xmlns="http://www.w3.org/2000/svg" viewBox="0 0 100 100">
	<path fill="#E95420" d="M50 100.004c-27.614 0-50-22.387-50-50.002C0 22.387 22.386 0 50 0s50 22.387 50 50.002c0 27.615-22.386 50.002-50 50.002ZM18.796 43.997a6.002 6.002 0 0 0-5.997 6.013 6.004 6.004 0 0 0 5.997 5.997c3.319 0 6.028-2.694 6.028-5.997 0-3.327-2.71-6.013-6.028-6.013Zm42.902 27.316c-2.85 1.64-3.842 5.326-2.203 8.177 1.672 2.904 5.35 3.88 8.2 2.217a5.965 5.965 0 0 0 2.202-8.2 5.966 5.966 0 0 0-8.2-2.194ZM31.852 50.01a17.54 17.54 0 0 1 7.466-14.369l-4.39-7.364c-5.27 3.514-9.182 8.887-10.806 15.173a8.38 8.38 0 0 1 3.107 6.56 8.36 8.36 0 0 1-3.107 6.544c1.624 6.286 5.544 11.651 10.807 15.15l4.389-7.34a17.532 17.532 0 0 1-7.466-14.354Zm17.539-17.57c9.19 0 16.71 7.043 17.492 16.024l8.574-.157a25.975 25.975 0 0 0-7.762-16.906c-2.304.843-4.951.726-7.223-.61-2.28-1.311-3.694-3.53-4.092-5.934a26.39 26.39 0 0 0-6.99-.938 26.14 26.14 0 0 0-11.556 2.687l4.177 7.481a17.365 17.365 0 0 1 7.38-1.648Zm0 35.117c-2.624 0-5.138-.593-7.38-1.64l-4.177 7.481a26.118 26.118 0 0 0 11.557 2.687c2.436 0 4.763-.313 6.989-.937.39-2.421 1.811-4.647 4.092-5.951a8.406 8.406 0 0 1 7.223-.57c4.45-4.397 7.325-10.34 7.762-16.946l-8.574-.125c-.781 8.957-8.301 16.001-17.492 16.001ZM61.698 28.7a5.982 5.982 0 0 0 8.199-2.203c1.679-2.865.687-6.56-2.187-8.215a6.024 6.024 0 0 0-8.199 2.21c-1.663 2.866-.671 6.552 2.187 8.208Z"/>
</svg>