<svg xmlns="http://www.w3.org/2000/svg" viewBox="0 0 100 100">
	<linearGradient id="a" x1="50" x2="50" y1="1.4879" y2="98.4771" gradientTransform="matrix(1 0 0 -1 0 101.433)" gradientUnits="userSpaceOnUse">
		<stop offset="0" stop-color="#0e6aa5"/>
		<stop offset="1" stop-color="#009bde"/>
	</linearGradient>
	<path fill="url(#a)" d="M96.7 24.4c-27.5 0-33 8.3-45.6 18 0 0 .3-3.4-3-4-3.3-.6-4.1 2.4-4.1 2.4-.7-1.1-1.2-2.3-1.6-3.5-2-7.6-11.1-15.8-20.9-25.6-9.8-9.8-19.7-9-19.7-9L1 6.2c-2.4 6.9 0 8.7 0 10.8s.6 4 2.3 7.2C5 27.4 5.9 37.9 6.5 43.1c.6 5.2 4.6 8.5 5.3 9.2.7.7-4.8 3.2-4.8 3.9v3c0 .4-1.9 2-2.4 2.5s-.6 2.7 0 11.1c.6 8.4 14.9 17 18.8 17.9 3.9.9 7.2-6.7 9.5-7.6 2.4-.9 8.2-7.1 8.2-7.1s1.7 16.2 1.7 10.2c0-6.1 3.7-7.6 3.7-7.6l.4-4.3s4 13 8.7 17.7c4.7 4.7 13.6 5.4 14.4 5.4.9 0 6.7.3 11.9-12.7s-3-16.2-1.3-16.2 8-5 7.1-9.3c-.9-4.3 3.3-13.2 7.4-17.3 4.1-4.1 4.8-14.8 4.8-15.2s-.8-2.3-3.2-2.3z"/>
</svg>