<svg xmlns="http://www.w3.org/2000/svg" viewBox="0 0 100 100">
	<path fill="#FBBD16" d="M19.272 85.305V56.02l5.614 31.628 9.141 4.556 5.876-26.292v28.765l10.315 5.076V51.205l-15.669-7.42-4.961 23.168-5.006-27.94L9 31.55v48.592l10.272 5.162Z"/>
	<path fill="#452E7F" d="m51.654 51.192 16.366-8.505v35.23l22.633-11.714.087 13.276L51.698 100l-.044-48.808Z"/>
	<path fill="#962444" d="M45.056 0 33.483 10.232s22.58 11.606 25.323 12.978c2.743 1.371 6.647 4.009 2.426 7.913-4.22 3.904-8.862 3.377-12.028 1.794-3.165-1.583-26.588-13.4-26.588-13.4L10.693 29.646s23.001 11.711 26.8 13.716c3.798 2.005 17.937 6.964 31.336-3.482 13.4-10.445 11.502-14.244 11.502-14.982 0-.739-.317-4.643-2.638-7.07-2.322-2.426-9.074-5.908-11.923-7.385C62.921 8.966 45.056 0 45.056 0Z"/>
	<path fill="#6D6E71" d="M90.255 59.434c0 1.715-1.346 3.06-3.099 3.06-1.733 0-3.116-1.345-3.116-3.06 0-1.679 1.383-3.025 3.116-3.025 1.753 0 3.099 1.346 3.099 3.025Zm-5.44 0c0 1.346.996 2.416 2.36 2.416 1.328 0 2.306-1.07 2.306-2.398 0-1.347-.978-2.435-2.325-2.435-1.346 0-2.342 1.089-2.342 2.417Zm1.862 1.586h-.7v-3.025a6.07 6.07 0 0 1 1.161-.092c.572 0 .83.092 1.051.221a.839.839 0 0 1 .295.664c0 .331-.257.59-.627.7v.038c.296.11.462.331.554.737.092.462.147.646.22.757h-.755c-.093-.11-.148-.388-.24-.738-.056-.332-.24-.48-.628-.48h-.331v1.218Zm.019-1.715h.332c.387 0 .7-.13.7-.443 0-.276-.202-.46-.645-.46-.185 0-.314.017-.388.036v.867Z"/>
</svg>