<svg xmlns="http://www.w3.org/2000/svg" viewBox="0 0 100 100">
	<path fill="#001326" d="M83.07 45.124c-1.102-6.27-9.67-9.264-15.323-11.094-9.13-2.963-17.636-7.098-16.933-18.23.256-4.066 1.809-7.326 4.66-9.78C63.65-1.025 76.902.241 86.205 4.338a.369.369 0 0 1 .2.207.381.381 0 0 1-.005.293l-1.422 3.307c-.094.214-.248.273-.462.18-7.145-3.221-17.926-5.082-24.79-.196-5.644 4.019-5.87 12.97-.336 17.066 3.481 2.578 7.857 4.13 12.137 5.648 8.454 2.999 16.531 5.863 16.578 16.234.047 10.28-7.177 16.284-16.941 17.035-6.88.532-14.635.313-20.952-2.095a.293.293 0 0 1-.203-.297l.023-4.065c0-.13.06-.172.18-.125 5.348 1.97 11.406 2.835 18.176 2.595 8.74-.313 16.402-5.215 14.682-15.002Zm-66.287 29.05c9.045 2.166 16.097-.016 16.081-10.679-.031-20.425-.047-40.819-.047-61.181 0-.12.063-.18.188-.18l4.12-.008c.125 0 .188.063.188.188 0 20.294-.019 40.623-.055 60.986-.016 7.544-2.299 13.806-10.53 15.291-2.917.524-6.982.72-9.968-.5a.539.539 0 0 1-.36-.54v-3.08c0-.26.128-.36.383-.297Zm-2.011-18.107.781-.01a3.104 3.104 0 0 1 3.147 3.06l.028 2.016a3.104 3.104 0 0 1-3.06 3.147l-.781.01a3.104 3.104 0 0 1-3.147-3.06l-.028-2.016a3.104 3.104 0 0 1 3.06-3.147Z"/>
	<path fill="#0071B5" d="M0 87h50v13H0V87Z"/>
	<path fill="#002A41" d="M50 87h50v13H50V87Z"/>
</svg>