<svg xmlns="http://www.w3.org/2000/svg" viewBox="0 0 100 100">
	<path fill="#333" d="m54.33 17.891 15.895 9.137c.572.32.593 1.21 0 1.532L51.338 39.425a1.76 1.76 0 0 1-1.777 0L30.674 28.56c-.582-.31-.592-1.221 0-1.532l15.885-9.137V0L6 23.324V69.97l15.552-8.94V42.757c-.01-.652.759-1.118 1.33-.766L41.77 52.856c.571.331.893.921.893 1.532v21.72c.01.651-.758 1.117-1.33.765l-15.895-9.137-15.552 8.94L50.445 100l40.558-23.324-15.552-8.94-15.895 9.137c-.561.342-1.351-.103-1.33-.766v-21.72c0-.652.364-1.23.893-1.531L78.007 41.99c.56-.342 1.35.093 1.33.766V61.03l15.552 8.94V23.324L54.33 0v17.891Z"/>
</svg>