<svg xmlns="http://www.w3.org/2000/svg" viewBox="0 0 100 100">
	<path fill="#1D6434" d="M20.322 34h4.111v17.949c0 3.122-.353 5.601-1.06 7.438-.706 1.836-1.984 3.334-3.835 4.492-1.837 1.145-4.252 1.717-7.247 1.717-2.91 0-5.29-.502-7.142-1.505-1.85-1.003-3.171-2.451-3.962-4.344C.396 57.84 0 55.24 0 51.949V34h4.111v17.928c0 2.698.247 4.69.742 5.975.508 1.272 1.37 2.254 2.585 2.946 1.23.692 2.727 1.038 4.493 1.038 3.023 0 5.177-.685 6.463-2.055 1.285-1.37 1.928-4.005 1.928-7.904V34Zm10.913 31.066V34h4.218l16.316 24.39V34h3.942v31.066h-4.217L35.177 40.654v24.412h-3.942Zm32.084 0V34h4.11v31.066h-4.11Zm8.201 0 12.015-16.19L72.939 34h4.895l5.637 7.968c1.173 1.653 2.006 2.924 2.5 3.814a40.55 40.55 0 0 1 2.459-3.539L94.68 34h4.471L88.24 48.643 100 65.066h-5.086l-7.82-11.083a53.705 53.705 0 0 1-1.355-2.077c-.693 1.13-1.187 1.907-1.484 2.331l-7.798 10.829h-4.938Z"/>
</svg>