<svg xmlns="http://www.w3.org/2000/svg" viewBox="0 0 100 100">
	<path fill="#0E1128" d="M86.52 82.959c-1.643 1.85-2.878 3.085-3.705 3.705-1.194.897-2.276 1.868-3.335 2.539a67.14 67.14 0 0 0-3.57 2.414c-.401.287-.782.175-1.133.398a36.718 36.718 0 0 1-4.606 2.495c-.66.3-1.44.377-2.16.694a28.43 28.43 0 0 1-4.744 1.612c-1.118.272-2.752.601-4.903.988-5.79 1.038-11.55 1.008-17.279-.091-1.507-.287-2.967-.486-4.245-.843-13.425-3.746-24.447-12.246-31.062-24.29-9.056-16.483-7.276-36.824 3.999-51.83 1.681-2.24 2.971-3.773 3.87-4.603.915-.84 1.823-1.689 2.725-2.545a19.17 19.17 0 0 1 1.736-1.43c.904-.67 1.736-1.605 2.727-2.117.47-.245.808-.444 1.015-.597 1.396-1.04 2.693-1.846 3.891-2.417a76.8 76.8 0 0 0 3.877-1.99c.604-.33 1.214-.273 1.784-.519a39.133 39.133 0 0 1 8.01-2.478C45.708.821 52.158.63 58.369 1.695c4.039.694 7.663 1.628 12.343 3.722C80.799 9.93 88.505 16.874 93.83 26.249c10.468 18.43 7.309 41.265-7.148 56.616a.15.15 0 0 1-.078.047.15.15 0 0 0-.084.047ZM14.784 18.134c-.159.175-.287.162-.422.303-.762.793-1.271 1.723-2.003 2.516a13.87 13.87 0 0 0-.829.988c-4.76 6.25-7.742 13.271-8.945 21.062-1.472 9.534.072 18.759 4.633 27.673 1.964 3.84 4.072 6.972 6.321 9.397 1.877 2.02 3.083 3.275 3.618 3.763.861.78 2.739 2.26 5.634 4.44.502.377 1.116.543 1.605.883.802.562 1.783 1.128 2.943 1.7 2.466 1.21 4.297 2.073 5.492 2.585.888.378 2.97.97 6.245 1.774a44.336 44.336 0 0 0 12.97 1.227c4.853-.256 9.244-1.105 13.173-2.545.285-.106.784-.227 1.497-.365.616-.12 1.526-.49 2.73-1.105a626.407 626.407 0 0 0 3.001-1.545c.203-.104.428-.02.64-.151a579.93 579.93 0 0 1 4.236-2.654c.47-.29 1.025-.682 1.665-1.176.414-.317.96-.726 1.639-1.228 1.71-1.263 3.666-3.159 5.866-5.688 17.101-19.652 14.592-48.732-5.128-65.543C69.406 4.25 51.935.201 36.665 4.948c-.873.273-1.682.26-2.434.576-2.104.888-4.193 1.81-6.268 2.765-1.133.52-2.219 1.217-3.335 1.84-1.517.85-2.849 1.882-4.23 2.944a.59.59 0 0 0-.166.2.353.353 0 0 1-.266.195.51.51 0 0 0-.23.104 42.88 42.88 0 0 0-4.953 4.562Z"/>
	<path fill="#0E1128" d="M61.15 29.267c.35-.26.69-.671 1.119-.937a180.851 180.851 0 0 0 3.253-2.07 6.903 6.903 0 0 1 1.436-.715c2.195-.786 4.181-1.72 6.47-2.27.661-.158 1.416-.04 2.168-.306.063-.023.098 0 .105.067.004.047-.005.08-.027.098-.624.442-1.993 1.46-2.28 2.154a.774.774 0 0 1-.185.27c-.427.403-.84.817-1.24 1.244-.766.82-1.309 1.899-2 2.85-2.758 3.813-3.206 7.053-3.162 12.14.058 6.856.11 13.687.158 20.493a.68.68 0 0 0 .26.526c3.877 3.034 9.653-3.547 12.252-5.894.236-.213.313-.166.233.142-2.404 8.958-8.406 15.789-16.693 19.743a.382.382 0 0 1-.445-.087L57.95 71.64a.125.125 0 0 0-.086-.04.118.118 0 0 0-.086.033 4236.65 4236.65 0 0 0-7.947 7.758c-.169.166-.414.242-.735.226-9.75-.454-17.593-4.405-23.527-11.851-.177-.223-.128-.3.149-.23 1.78.449 4.37 1.022 5.053-1.213.106-.346.159-1.342.159-2.987-.002-6.19-.001-12.379.003-18.564 0-1.434-.115-2.43-.347-2.987-.452-1.082-1.3-1.76-2.545-2.037-4.181-.93-7.327 6.639-8.318 9.585-.247.731-.359.712-.334-.057.384-13.098 8.506-23.574 20.722-27.778 1.708-.587 3.354-.985 4.939-1.194.425-.054.452.026.08.24-2.936 1.702-5.286 4.332-5.97 7.71-.342 1.689-.237 3.066.314 4.134.66 1.283 1.802 1.639 3.425 1.065.094-.031.142.003.142.102.002 9.258.002 18.56 0 27.906 0 .853-.081 1.345.397 2.067 2.85 4.298 8.15 1.143 10.924-1.23a.36.36 0 0 0 .128-.274c.04-7.651.035-15.303-.017-22.957-.006-1.259-.155-2.269-.444-3.03-.614-1.613-1.627-2.959-3.038-4.04-.11-.083-.097-.136.04-.159 2.016-.337 3.873.036 5.57 1.12a.492.492 0 0 0 .634-.091 24.866 24.866 0 0 1 3.914-3.601Z"/>
</svg>