<svg xmlns="http://www.w3.org/2000/svg" viewBox="0 0 100 100">
	<linearGradient id="a" x1="96.356" x2="25.9092" y1="85.786" y2="76.4014" gradientTransform="matrix(1 0 0 -1 0 101.433)" gradientUnits="userSpaceOnUse">
		<stop offset="0" stop-color="#fc801d"/>
		<stop offset="1" stop-color="#6b57ff"/>
	</linearGradient>
	<path fill="url(#a)" d="M84.4 34.8 17.5 42c-4 .4-8-.7-11.2-3.1-3.2-2.4-5.3-5.9-6-9.8-.4-2.1-.3-4.2.1-6.3.5-2.1 1.3-4 2.6-5.7 1.2-1.7 2.8-3.2 4.6-4.3s3.8-1.8 5.9-2.2L79.9.3c2.6-.4 5.2-.2 7.7.5 2.5.8 4.8 2.1 6.7 3.8s3.4 3.9 4.4 6.3c1 2.4 1.4 5 1.2 7.6-.2 4.1-1.9 8-4.8 11-2.8 3-6.6 4.9-10.7 5.3z"/>
	<linearGradient id="b" x1="49.5379" x2="55.5515" y1="47.8052" y2="73.2331" gradientTransform="matrix(1 0 0 -1 0 101.433)" gradientUnits="userSpaceOnUse">
		<stop offset="0" stop-color="#07c3f2"/>
		<stop offset="1" stop-color="#6b57ff"/>
	</linearGradient>
	<path fill="url(#b)" d="M59.7 93 4.6 37.4C3 35.8 1.8 33.9 1 31.8c-.8-2.1-1.1-4.3-1-6.5s.7-4.4 1.8-6.4c1-2 2.5-3.7 4.2-5.1 2.6-2.1 5.9-3.3 9.2-3.4 3.4-.1 6.7.8 9.5 2.7L89.5 57c3 2 5.5 4.8 7.3 7.9 1.8 3.2 2.8 6.7 3 10.3s-.5 7.3-1.9 10.6c-1.5 3.3-3.7 6.3-6.4 8.6-4.5 3.8-10.3 5.7-16.2 5.5-5.9-.2-11.5-2.7-15.6-6.9z"/>
	<linearGradient id="c" x1="84.4376" x2="11.3584" y1="85.2183" y2="38.5971" gradientTransform="matrix(1 0 0 -1 0 101.433)" gradientUnits="userSpaceOnUse">
		<stop offset="0" stop-color="#fc801d"/>
		<stop offset=".92" stop-color="#6b57ff"/>
	</linearGradient>
	<path fill="url(#c)" d="M72.1 3.5 7.8 51.6c-1.4 1-2.5 2.3-3.3 3.8-.8 1.5-1.4 3.1-1.5 4.8-.2 1.7 0 3.4.5 5s1.4 3.1 2.5 4.4c1.9 2.1 4.4 3.5 7.2 4s5.6 0 8.1-1.4l69.9-39.5c2.3-1.3 4.2-3 5.7-5.2 1.5-2.1 2.5-4.6 2.9-7.1.4-2.6.3-5.2-.4-7.7s-2-4.8-3.7-6.7C92.8 2.7 88.8.7 84.4.2s-8.8.7-12.3 3.3z"/>
	<linearGradient id="d" x1="93.1481" x2="15.1478" y1="18.9114" y2="47.0964" gradientTransform="matrix(1 0 0 -1 0 101.433)" gradientUnits="userSpaceOnUse">
		<stop offset="0" stop-color="#07c3f2"/>
		<stop offset="1" stop-color="#6b57ff"/>
	</linearGradient>
	<path fill="url(#d)" d="M66.8 97.9 10.1 72.5c-1.7-.7-3.2-1.9-4.4-3.3-1.2-1.4-2-3.1-2.5-4.8-.5-1.8-.5-3.6-.1-5.5s1.1-3.5 2.3-5c1.2-1.6 2.8-2.8 4.6-3.7 1.8-.8 3.8-1.2 5.8-1.1l62 3.9c3.7.2 7.3 1.3 10.5 3.2 3.2 1.9 5.9 4.5 7.9 7.6 2 3.1 3.2 6.7 3.6 10.3.4 3.7-.1 7.4-1.5 10.9-1.2 3-2.9 5.7-5.1 8-2.2 2.3-4.9 4.1-7.9 5.3-2.9 1.2-6.1 1.8-9.3 1.8-3.2-.2-6.3-.9-9.2-2.2z"/>
	<path d="M18.9 18.8h62.4v62.4H18.9V18.8z"/>
	<path fill="#fff" d="M26.7 69.4h23.4v3.9H26.7v-3.9zM26.7 39.9V26.5h5.2v13.3c0 3.8 1.9 5.8 5.1 5.8 3.2 0 5.1-1.9 5.1-5.6V26.5h5.2v13.3c0 7.1-4 10.6-10.3 10.6-6.4 0-10.3-3.5-10.3-10.5zM52 26.5h9.6c5.6 0 9 3.3 9 8.1v.1c0 5.4-4.2 8.3-9.5 8.3h-3.9v7H52V26.5zm9.2 11.9c2.6 0 4.1-1.6 4.1-3.6v-.1c0-2.3-1.6-3.6-4.2-3.6h-4v7.2h4.1z"/>
</svg>