<svg xmlns="http://www.w3.org/2000/svg" viewBox="0 0 100 100">
	<path fill="#AEC84D" d="M0 44.574V57.79s-.095 7.526 6.93 7.36c1.096-.048 5.144.142 6.145-3.002v2.43h4.858l.009-20.005h-4.858l-.01 12.36s.143 4.43-4 4.215C4.93 60.935 5 57.291 5 57.291l-.024-12.717H0Z"/>
	<path fill="#141215" d="M25.84 65.103h2l6.525-16.147 6.526 16.1h2l8.098-29.818L46.083 34l-4.906 18.433-5.811-14.527h-2.048l-5.62 14.384L22.647 34l-4.858 1.238 8.05 29.865Zm25.006-6.764s1.238 3.715 3.286 5.049c2.048 1.333 5.525 1.857 7.192 1.81 1.667-.048 10.146-.19 10.24-8.05.715-4-2.762-6.906-3.714-7.478-.953-.571-4.05-2.572-6.526-3.286-2.477-.715-4.906-2.287-5.096-3.525-.19-1.238 0-4.858 5.334-4.906 3.716.381 3.859 1.953 4.43 2.81l1 2.048 4.096-1.905s-1.62-3.858-2-4.191c-.381-.334-1.905-2.715-7.907-2.667-6.001.047-9.526 2.524-9.764 6.81-.238 4.287.667 6.288 5.049 8.955 2.715 1.477 5.573 1.81 8.526 4.049 2.048 1.667 1.62 3.572 1.572 4.382-.048.81-1.048 3.096-5.192 2.905-4.144-.19-4.954-1.857-5.24-2.334-.285-.476-1.285-2.429-1.285-2.429l-4.001 1.953ZM100 34.524h-5.049v30.198H100V34.524ZM84.33 48.623v3.953h3.905v8.002s-1.19.714-3.81.62c-2.62-.096-6.763.237-7.097-11.67C76.994 37.62 82.663 38 83.329 38c.667 0 4.001.048 5.716 4.763.048.048 4.096-1.905 4.096-1.905s-1.762-7.192-9.573-6.811c-7.812.38-10.812 4.43-11.241 14.575-.429 10.145 3.143 16.766 11.67 16.432 8.525-.333 9.144-1.048 9.144-1.048l-.012-15.372-8.8-.012Z"/>
	<path fill="#AEC84D" d="M67.897 41.144a1.667 1.667 0 1 0 0-3.333 1.667 1.667 0 0 0 0 3.333Z"/>
	<path fill="#252326" d="M67.897 39.977a.5.5 0 1 0 0-1 .5.5 0 0 0 0 1Z"/>
	<path fill="#000" d="m4.999 55.79-.021-11.216H0V57.56c1.425-.79 3.124-1.4 4.999-1.77Zm12.943-11.216h-4.858l-.009 11.148c1.802.323 3.45.864 4.861 1.575l.006-12.723Z"/>
	<path fill="#fff" d="M0 57.792s-.095 7.525 6.93 7.359c1.096-.048 5.144.143 6.145-3.001v2.43h4.858l.003-7.282c-1.411-.711-3.06-1.253-4.86-1.575l-.001 1.211s.143 4.43-4.001 4.216C4.93 60.935 5 57.292 5 57.292l-.003-1.501c-1.874.37-3.573.979-4.998 1.77v.23Z" opacity=".1"/>
	<path fill="#000" d="m42.4 47.839-1.223 4.594-1.986-4.964c-3.27-.417-6.297-.932-9.012-1.53l-2.482 6.351-2.075-7.52c-2.344-.699-4.328-1.473-5.884-2.304l6.102 22.637h2l6.525-16.147 6.526 16.1h2L47.45 48.27c-1.73-.12-3.415-.264-5.05-.432Z"/>
	<path fill="#fff" d="M50.989 35.238 46.083 34 42.4 47.839a150.7 150.7 0 0 0 5.05.432l3.539-13.033ZM22.648 34l-4.858 1.238 1.948 7.228c1.556.831 3.54 1.605 5.884 2.305L22.648 34Zm12.718 3.906h-2.048l-3.14 8.033c2.716.598 5.742 1.113 9.013 1.53l-3.825-9.563Zm25.815-3.858c-6.001.047-9.526 2.524-9.764 6.81-.201 3.623.414 5.613 3.254 7.752a179.288 179.288 0 0 0 11.31-.065c-1.353-.784-3.123-1.719-4.657-2.161-2.477-.715-4.906-2.287-5.096-3.525-.19-1.238 0-4.858 5.334-4.906 3.716.381 3.858 1.953 4.43 2.81l1 2.048 4.096-1.905s-1.62-3.858-2-4.191c-.381-.334-1.905-2.715-7.907-2.667Zm22.387 0c-7.698.375-10.724 4.313-11.22 14.136 1.707-.13 3.368-.287 4.978-.466.263-10.056 5.373-9.717 6.004-9.717.666 0 4 .048 5.715 4.763.048.048 4.096-1.905 4.096-1.905s-1.762-7.192-9.573-6.811Zm11.383 10.086c2.06-.719 3.764-1.503 5.049-2.337v-7.273h-5.049v9.61Z" opacity=".1"/>
</svg>