<svg xmlns="http://www.w3.org/2000/svg" viewBox="0 0 100 100">
	<path fill="#f8f8fb" d="M0 0h100v100H0V0z"/>
	<path fill="#2857af" d="M0 0v100h100V0H0zm31.7 28.5c.1-4.5 2.9-8.5 7.2-10 3.5-1.2 7.2-1.9 11.1-1.9 7.9 0 15.1 2.8 20.8 7.3.3.3.1.7-.1.8-2.4.5-8.8 2.7-12.9 8-3.9 5.2-5.8 10.6-7.8 15.8-1.3 3.7-2.7 7.6-4.8 11.6-.7 1.2-1.6 2-2.4 2-.7 0-1.5-.5-2.1-1.5-7.8-10.9-9.1-23.3-9-32.1zm10.7 54c-11.6-2.5-21.6-12-24.8-24.4-2.4-9.7-.3-19.5 4.5-26.4.5-.7 1.6-.4 1.6.4.3 9.6 2.6 21.9 10.6 33.2 2.1 3.1 5.3 6.3 8.5 6.3h.5c3.6-.3 6.8-4 8.8-7.7 2.4-4.5 3.9-8.7 5.3-12.7 1.9-5.1 3.3-9.5 6.5-13.7 1.6-2 4.1-4.5 7.7-5.1 1.1-.1 2.1-.1 3.2.1 2.8.7 5.1 2.7 6.1 5.3 1.5 3.7 2.1 7.7 2.1 11.9.3 21.1-18.9 37.6-40.6 32.8z"/>
</svg>