<svg xmlns="http://www.w3.org/2000/svg" viewBox="0 0 100 100">
	<path fill="#00B4F0" d="M43.7 94.237 31.924 59.351h-.738c-3.83 0-5.76-2.988-5.76-5.761 0-2.774 1.93-5.763 5.76-5.763h4.565c2.443 0 4.524 1.585 5.32 3.55l9.022 30.533 9.04-30.572c.819-1.83 2.815-3.51 5.304-3.51H69c3.83 0 5.762 2.988 5.762 5.762 0 2.773-1.931 5.76-5.762 5.76h-.737L56.486 94.238c-.814 1.889-2.272 3.52-6.38 3.52-4.127 0-5.59-1.627-6.405-3.52ZM16.595 15.943h22.124c10.066 0 10.841 7.742 11.172 11.614.555-3.873 1.328-11.614 11.393-11.614h22.125c4.646 0 6.637-2.102 6.637-5.199V7.977C90.045 5.101 91.593 3 95.022 3 98.23 3 100 5.1 100 7.977v8.187c0 9.622-4.535 14.38-14.712 14.38H62.72c-6.746 0-7.412 2.875-7.412 5.641 0 3.651-2.653 5.31-5.308 5.31s-5.311-1.66-5.311-5.31c0-2.767-.664-5.64-7.411-5.64H14.713C4.535 30.545 0 25.785 0 16.164V7.977C0 5.101 1.771 3 4.978 3c3.43 0 4.98 2.1 4.98 4.977v2.767c0 3.097 1.99 5.199 6.636 5.199Z"/>
</svg>