<svg xmlns="http://www.w3.org/2000/svg" viewBox="0 0 100 100">
	<linearGradient id="a" x1="50" x2="50" y1="101.4331" y2="2.2031" gradientTransform="matrix(1 0 0 -1 0 101.433)" gradientUnits="userSpaceOnUse">
		<stop offset="0" stop-color="#a56de2"/>
		<stop offset="1" stop-color="#7239b3"/>
	</linearGradient>
	<path fill="url(#a)" d="M100 0H0v100h100V0z"/>
	<path fill="#fff" d="m42.6 78.3-1.1-48.5c-3.3 1.2-5.9 3.2-7.8 5.9-1.9 2.7-2.8 6-2.8 9.9 0 1.9.3 3.4.8 4.3.1.2.2.3.2.5-3.8 0-6.2-1.2-7.1-3.6-.3-.9-.5-2-.5-3.3 0-2.4.7-4.7 2.2-6.9 1.5-2.2 3.4-4.2 5.8-5.9 5.4-3.8 11-5.7 16.9-5.7 1 0 1.9 0 2.8.1l.6 43.7 15-43.5h5l-19.8 53H42.6z"/>
</svg>