<svg xmlns="http://www.w3.org/2000/svg" viewBox="0 0 100 100">
	<path fill="#019833" d="M50.4 5.2 5.6 50.1l44.6 44.7L95 49.9 50.4 5.2z"/>
	<path fill="#66fe98" d="M50.2 5.4V1.5L1.5 50.3h4.1L50.2 5.4z"/>
	<path fill="#45fe02" d="M50.1 5.4V1.5l48.7 48.8h-4.1L50.1 5.4z"/>
	<path fill="#017d17" d="M50.2 95v4L1.5 50.2h4.1L50.2 95z"/>
	<path fill="#005d04" d="M50.1 95v4l48.7-48.8h-4.1L50.1 95z"/>
	<path d="M99.9 49.9 50.1 0 .1 50.1 49.9 100l50-50.1zM2.3 50 50 2.3v3.1L5.5 50H2.3zm48.1 47.3 46.8-46.9h-2.5L50.4 95v2.3zM5.9 50.2 50.2 5.6l44.3 44.6-44.3 44.4L5.9 50.2zM50.4 2.5 97.6 50h-2.9L50.4 5.4V2.5zM5.7 50.4H2.6L50 97.7V95L5.7 50.4z"/>
	<path d="M9.4 3.8H43l3.4 3.5v7.9l-2.9 3.5h-2.1V39l20.8-20.5-3-3.3V6.9L62.4 4h33.9l3.1 3.1v8L26 90.5H16L11.8 88V18.4H9.3l-3-3V7.1l3.1-3.3z"/>
	<path fill="#ccc" d="m64.7 8-1.1 1.1v4.1l1 1h5.2v4L35.5 53V14.3h5.7l1.2-1.2V8.9l-1.1-.8h-30l-1 1v4.3l1 1h5.2v71.3l1 1h5.9l71.8-74.2V9.1L94.1 8H64.7z"/>
	<path fill="gray" d="m43.7 8.2-1.5 1v4.2l-1.1.9h-5.7V53l3.1-7.3V16H42l1.8-1.8v-6zm-32.9 7.7.5-1.7h5.4l-2.1 1.7h-3.8zm84.5-6.7 1.6-.9v5.8l-72.3 74h-7.7l.7-1.5h5.9l71.7-74.1.1-3.3zM68.2 16l1.6-1.7h-4.9L64 16h4.2z"/>
	<path fill="#fefefe" d="m42.3 9.1 1.5-.9-1.6-1.6H10.5L8.9 8.3v6.1l1.8 1.8.9-1.8-1.1-1.1V9l.8-.7h30.3c-.1-.1.7.8.7.8zm-25.8 5.1v71.4l.9 1.1-.7 1.4-2-2v-70c-.1 0 1.8-1.9 1.8-1.9zm48.3.2-.8 1.8v-.1l-1.6-1.5V8.4L64 6.8h31.4L97 8.4l-1.6 1.1L94.3 8H65l-1.4 1.4v3.8l1.2 1.2zM35.5 53l3.1-7.4L70 14.3v4.1L35.5 53z"/>
	<path d="M95.3 6.7H63.8l-1.6 1.6v6.3l1.8 1.6h4l-29.3 29V16.1H42l1.8-1.8V8l-1.6-1.4H10.5L8.8 8.2v6.2l1.8 1.9 3.8-.2v70l2.3 2.2h7.8l72.4-74.1V8.4l-1.6-1.7zm-31.4 9.1-1.5-1.4v-6l1.5-1.5h31.3l1.4 1.4-1.3.7-1.2-1.2H64.7L63.5 9v4.3l1.2 1.1-.8 1.4zm-47.3-1.6v-.1l-.1.1v-.1h-5l-.9-.9V9l.8-.7h29.9l.8.9v4l-1 .9h-5.8v39.2L70 18.5v-4.4h-5.3l-.9-.9V9.3l1.1-1.1h29.3l1 1.1v3.1L23.4 86.5h-5.8l-.9-.9-.1-71.4zm53.1 4.3.1-.1-.1.1zm-5.5-2.6.8-1.4h4.5l-1.4 1.4h-3.9zM38.7 45.6l30.9-30.8v3.4L35.9 52.4l2.8-6.8zm4.9-31.4-1.7 1.7h-3.5v29.6l-2.8 6.8V14.4h5.6l1.2-1.2v-4l1.1-.7v5.7zm-34.5.1v-6l1.5-1.5h31.6l1.4 1.4-1.2.8-.9-1H11.2l-1 1v4.4l1 1-.5 1.5-1.6-1.6zm1.9 1.5.5-1.3h4.6l-1.6 1.3H11zm5.8 72-2-1.8V16.1l.6-.6 1-.8v71l1 1-.6 1.1zm80-73.8L24.5 88h-7.4l.6-1.2h5.9l71.8-74.2.1-3 1.3-.9V14z"/>
	<path d="M56.6 55H52.3c-.2 0-.4.2-.6.3l-1.4 1.2c-.2.2-.3.3-.4.6L48.5 61c-.2.5-.1 1 .3 1.4l1.1 1.1c.3.2.6.4 1 .4h4.3c.4 0 .7-.1 1-.4l1.1-1.1c.2-.2.3-.4.3-.6l1.2-4.1c.1-.5 0-1-.3-1.3l-.9-.9c-.3-.3-.7-.5-1-.5zm-3.9 0zm1.6 11h-9.5c-.6 0-1.2.4-1.4 1l-.5 2.1c-.2.7.3 1.5 1 1.7H45.3l-5.8 16.5c-.3.9.4 1.8 1.3 1.8h9.1c.6 0 1.1-.4 1.3-.9l.6-1.9c.3-.9-.4-1.8-1.3-1.8h-.6l5.7-16.7c.3-.9-.4-1.8-1.3-1.8zm24.1.1h-4.6c-.4 0-.8.2-1.1.5l-1.6 1.8H69l-1.7-1.8c-.3-.3-.6-.4-1-.4h-7.2c-.6 0-1.1.4-1.3.9l-.7 2c-.3.9.4 1.8 1.3 1.8h.6l-5.5 16.3c-.3.9.4 1.8 1.3 1.8h7.7c.6 0 1.1-.4 1.3-.9l.6-1.7c.2-.6-.1-1.3-.7-1.6-.2-.1-.4-.1-.5-.2l3.2-10H71l-4 12.6c-.3.9.4 1.8 1.3 1.8h7.4c.5 0 1-.3 1.2-.8l.7-1.6c.2-.6 0-1.4-.6-1.7-.2-.1-.4-.2-.6-.2l3.2-10.2H84l-4 12.7c-.3.9.4 1.8 1.3 1.8h8.1c.6 0 1.1-.3 1.3-.9l.7-1.7c.3-.9-.3-1.8-1.3-1.8H90L94.5 70c.1-.4.1-.9-.2-1.2l-1.5-2.1c-.3-.3-.7-.5-1.1-.5h-5.8c-.4 0-.7.2-1 .4l-1.5 1.7H81l-1.6-1.8c-.3-.3-.6-.4-1-.4z"/>
	<path fill="#ccc" d="m51.3 57.7 1.3-1.1h3.9l.8.8-1.2 4-1.1 1.1h-4.2l-1-1 1.5-3.8zm-6.9 11.6.5-1.8h9.3L47.8 86h2.5l-.5 1.7H41l6.4-18.3h-3v-.1zm27.4.5 2-2.2h4.6l2 2.2H84l1.9-2.1h5.7l1.4 1.9L87.9 86h2l-.6 1.5h-7.9L86.1 73h-7.5l-4.2 13.2h1.8l-.6 1.3h-7.1L73 73h-7.9L61 86h1.8l-.5 1.5h-7.4L61 69.3h-2.4l.6-1.7h7l2.1 2.2h3.5z"/>
</svg>