<svg xmlns="http://www.w3.org/2000/svg" viewBox="0 0 100 100">
	<path fill="#1C68A7" d="M20.058 87.502h-4.15L0 44.388h8.307l9.84 28.735C33.298 33.835 67.59 17.187 99.075 12l.926 1.436C79.352 18.298 60.29 26.2 45.21 41.696 32.47 54.848 25.832 67.418 19.983 87.618l.075-.116Z"/>
	<path fill="url(#a)" d="M32.73 51.485a91.138 91.138 0 0 0-12.423 22.448l-2.316 5.94-2.06-6.02L6.627 46.68H3.3l14.194 38.483h.81c3.63-12 8.469-22.628 14.402-31.617l.023-2.061Z"/>
	<path fill="#009FE3" d="M83.694 87.436h-7.538l-4.549-23.592-8.83 24.16h-2.79l-8.831-24.16-4.733 23.592h-7.517l8.831-43.768h4.135l9.495 29.466 9.28-29.466h4.099l8.948 43.768Z"/>
	<linearGradient id="a" x1="18.026" x2="18.026" y1="46.617" y2="84.475" gradientUnits="userSpaceOnUse">
		<stop offset=".14" stop-color="#1C69A8"/>
		<stop offset="1" stop-color="#0F8ECE"/>
	</linearGradient>
</svg>