<svg xmlns="http://www.w3.org/2000/svg" viewBox="0 0 100 100">
	<linearGradient id="a" x1="74.3" x2="25.7" y1="1066.817" y2="1066.817" gradientTransform="translate(0 -978.567)" gradientUnits="userSpaceOnUse">
		<stop offset="0" stop-color="#3b5577"/>
		<stop offset=".2" stop-color="#83a4e6"/>
		<stop offset=".361" stop-color="#1a345e"/>
		<stop offset=".495" stop-color="#516892"/>
		<stop offset=".611" stop-color="#d1d2f0"/>
		<stop offset=".741" stop-color="#f3f3fb"/>
		<stop offset=".872" stop-color="#b1c1de"/>
		<stop offset="1" stop-color="#284265"/>
	</linearGradient>
	<path fill="url(#a)" d="M25.7 76.5v2.8C25.7 90.7 36.6 100 50 100s24.3-9.3 24.3-20.7v-2.8H25.7z"/>
	<path fill="#fff" fill-opacity=".2" d="M74.3 78.5c0 11.4-10.9 20.7-24.3 20.7s-24.3-9.3-24.3-20.7C25.7 91.8 37.6 100 50 100s24.3-8.2 24.3-21.5z"/>
	<linearGradient id="b" x1="50" x2="50" y1="1051.7561" y2="1075.7159" gradientTransform="translate(0 -978.567)" gradientUnits="userSpaceOnUse">
		<stop offset="0" stop-color="#616fac"/>
		<stop offset="1" stop-color="#d5dffd"/>
	</linearGradient>
	<path fill="url(#b)" d="M74.3 76.4c0 11.4-10.9 20.7-24.3 20.7s-24.3-9.3-24.3-20.7C25.7 65 36.6 55.7 50 55.7S74.3 65 74.3 76.4z"/>
	<linearGradient id="c" x1="33.7486" x2="45.708" y1="1074.2322" y2="1060.0549" gradientTransform="translate(0 -978.567)" gradientUnits="userSpaceOnUse">
		<stop offset="0" stop-color="#fff"/>
		<stop offset="1" stop-color="#fff" stop-opacity="0"/>
	</linearGradient>
	<path fill="url(#c)" fill-opacity=".7" d="M74.3 76.4c0 11.4-10.9 20.7-24.3 20.7s-24.3-9.3-24.3-20.7C25.7 65 36.6 55.7 50 55.7S74.3 65 74.3 76.4z"/>
	<linearGradient id="d" x1="50" x2="50" y1="1051.558" y2="1075.7159" gradientTransform="translate(0 -978.567)" gradientUnits="userSpaceOnUse">
		<stop offset="0" stop-color="#fff" stop-opacity=".03"/>
		<stop offset="1" stop-color="#fff" stop-opacity=".3"/>
	</linearGradient>
	<path fill="url(#d)" d="M50 97.1c13.4 0 24.3-9.3 24.3-20.7S63.4 55.7 50 55.7 25.7 65 25.7 76.4 36.6 97.1 50 97.1zm0-1c12.8 0 23.1-8.8 23.1-19.7S62.7 56.8 50 56.8s-23.1 8.8-23.1 19.7S37.2 96.1 50 96.1z"/>
	<linearGradient id="e" x1="50.25" x2="50.25" y1="1047.8746" y2="1073.6962" gradientTransform="translate(0 -978.567)" gradientUnits="userSpaceOnUse">
		<stop offset="0"/>
		<stop offset="1" stop-opacity=".3"/>
	</linearGradient>
	<path fill="url(#e)" d="M72.8 75.4c-3.5-24.2-42.5-23.8-45.1.7L48 94.5c1.1.9 2.7.9 3.9 0l20.9-19.1z"/>
	<path fill-opacity=".3" d="M72.8 75.4c-3.5-24.2-42.5-23.8-45.1.7L48 94.5c1.1.9 2.7.9 3.9 0l20.9-19.1z"/>
	<radialGradient id="f" cx="-5796.6113" cy="-2765.9521" r="1.0006" gradientTransform="matrix(0 46.5951 -42.4023 0 -117232.8047 270140.25)" gradientUnits="userSpaceOnUse">
		<stop offset="0" stop-color="#fff"/>
		<stop offset="1" stop-color="#e2e8f3"/>
	</radialGradient>
	<path fill="url(#f)" d="M8.4 18.1c-.1 0-.2.1-.3.2H8c-1.1.7-.6.1 3 45.3 0 .5-.1.2 37.2 28.9 1.1.9 2.7.9 3.9 0C89.3 63.8 89 64.4 89 63.4c3.6-45.1 3.9-44.6 2.8-45.2-.1-.1-.2-.2-.4-.2C49.8-.3 50.2-.3 49.7 0L8.4 18.1z"/>
	<linearGradient id="g" x1="10.2635" x2="50.9191" y1="997.9941" y2="1069.2889" gradientTransform="translate(0 -978.567)" gradientUnits="userSpaceOnUse">
		<stop offset="0" stop-color="#bfc1d8"/>
		<stop offset=".547" stop-color="#f4ebe6"/>
	</linearGradient>
	<path fill="url(#g)" d="M8 20.3C11.1 64 11 63.7 11.3 64c39.4 29.8 38 29.6 38 27-.1-46.4 0-46.1-.3-46.4C8.3 19.8 8.5 19.5 8 20.3zm4.9 8.6L15 59c0 .2.1.3.2.4C46 82.2 44.3 81.3 44.3 80.3L44 48.2c0-.2-.1-.3-.2-.4C10.4 27 12.9 28.3 12.9 28.9z"/>
	<radialGradient id="h" cx="-5609.9478" cy="-2961.6821" r="1.0008" gradientTransform="matrix(13.9153 19.5764 -6.5795 4.6769 58606.0508 123728.4609)" gradientUnits="userSpaceOnUse">
		<stop offset="0" stop-color="#2e517e"/>
		<stop offset="1" stop-color="#17375e"/>
	</radialGradient>
	<path fill="url(#h)" d="M13 28.6h.1l30.7 19.2c.1.1.2.2.2.4.3 32 .6 33.1-.2 32.3L15.2 59.4c-.1-.1-.2-.2-.2-.4-2.2-30.4-2.3-30.1-2-30.4z"/>
	<linearGradient id="i" x1="55.3105" x2="86.043" y1="1022.1182" y2="1046.7201" gradientTransform="translate(0 -978.567)" gradientUnits="userSpaceOnUse">
		<stop offset="0" stop-color="#385fa4"/>
		<stop offset="1" stop-color="#79a1e7"/>
	</linearGradient>
	<path fill="url(#i)" d="M90.8 20.2c.3-.2.7-.1.9.2.2.2-3.1 43.6-3.4 43.6L51.4 92.2c-.2.2-.9.1-.9-.4 0-47.2-.2-47 .3-47.2l40-24.4zM86.4 29c.6-.6.4-1.4-1.7 30 0 .1-.1.3-.2.4C53.8 82 55.7 80.8 55.7 80.2c.2-32.1 0-32 .5-32.2l30.2-19z"/>
	<path fill="#c62424" d="M86.8 29.3c0-.1-.1-.2-.2-.3h-.1L56.2 48c-.5.2-.3.2-.5 32.2 0 .2.2.2.3.2l28.5-21c.4-.4 2.2-30.2 2.3-30.1z"/>
	<radialGradient id="j" cx="-5893.5972" cy="-3490.1914" r=".9995" gradientTransform="matrix(-13.7406 19.3257 -6.4958 -4.6186 -103582.3047 97832.875)" gradientUnits="userSpaceOnUse">
		<stop offset="0" stop-color="#2e517e"/>
		<stop offset="1" stop-color="#17375e"/>
	</radialGradient>
	<path fill="url(#j)" d="M86.8 29.3c0-.1-.1-.2-.2-.3h-.1L56.2 48c-.5.2-.3.2-.5 32.2 0 .2.2.2.3.2l28.5-21c.4-.4 2.2-30.2 2.3-30.1z"/>
	<linearGradient id="k" x1="49.9" x2="49.9" y1="978.5161" y2="1022.2781" gradientTransform="translate(0 -978.567)" gradientUnits="userSpaceOnUse">
		<stop offset="0" stop-color="#d3e7ff"/>
		<stop offset="1" stop-color="#fff"/>
	</linearGradient>
	<path fill="url(#k)" d="M8 18.4c.1.1.3.2.4.2C17.9 24.3 50 43.5 50 43.5l41.8-25.2c0-.1-.3-.3-.5-.3C49.7-.3 50.1-.3 49.6 0L8.4 18c-.1.1-.4.3-.4.4zm10.3.7 31 17.9c.3.2.8.2 1.1 0l31-17.9c.1 0 .1-.3 0-.3L50.2 4.4c-.2-.1-.5-.1-.7 0-28 12.8-32.7 14.7-31.2 14.7z"/>
	<path fill="#183861" d="M18.4 19.2c-.2-.1-.2-.3-.1-.4 0-.1.1-.1.1-.1L49.5 4.4c.2-.1.5-.1.7 0L81.4 19c.1 0 .1.3 0 .3l-31 17.9c-.3.2-.8.2-1.1 0l-30.9-18z"/>
	<path fill="#fffffe" d="M49.8 7.5 24.7 19.2l25 14.3 25.4-14.3L49.8 7.5zm11.1 7.9s0-.1-.1-.1c-.1.1-.3.1-.4.2-2.5 1-5.1 2.1-7.6 3.1-.1 0-.2.1-.2.1-.2.1-.5.2-.7.2 1-1 4.3-5.1 5-5.8V13h-.1l-13.5 5.6h-.1v-.1c1.6-1.5 3.1-3.1 4.7-4.7v-.1L44 11.9c-.1 0-.1-.2 0-.2.9-.4 5-2.2 5.8-2.7h.3l21.6 10.1c.1 0 .1.1 0 .2-.2.1-.4.2-.5.3l-12.5 7c-.3.3-.2.1-.5.3h-.1l-4.4-2.3s-.1-.1 0-.1c.7-.7 6-7.3 6.6-8.1 0-.6.2-.6.6-1zm-19.2 5.3 9.9-4h.1v.1c-5.9 6.8-5.4 6.1-5.1 6.1.3-.1.6-.2.8-.3.1 0 .2-.1.3-.1 8-3.3 7.9-3.3 8-3.3.1-.1.2-.1.4-.1L51.4 25v.1c.2.1 3.8 2.1 4.4 2.4.1 0 .1.1.2.1.2.1.4.2.4.3 0 .1 0 .1-.1.1-.1.1-.3.1-.4.2-2 1.1-3.9 2.2-5.9 3.3h-.2c-7.1-4.1-14.3-8.1-21.5-12.1-.1 0 0-.1 0-.1 4.6-2.1 9.2-4.3 13.8-6.4h.3c1 .5 2.1.9 3.1 1.3.1 0 .1.1 0 .1-.1.1-8 8-8.6 8.4-.1.1 0 .2.1.1-.1-.1 4.7-2.1 4.7-2.1z"/>
	<path fill="#fffffb" d="M18.9 44.5c.7.5 1.3 1 1.8 1.9.5.9 1.5 3.5.5 4-.2.1-.6-.2-.8-.3-.9-.9-3.5-2.1-3.7-5.5 0-.4 0-.8.2-1 .4-.7 1.5.4 2 .7-.2 0 0 .2 0 .2zm-.4 3.4c.6.5 1.2.9 1.8 1.4.5.3 1 .1.7-1.1-.5-1.9-1.6-2.5-3-3.7-.2-.1-.4-.2-.5-.1h-.1c-.5.9.4 2.8 1.1 3.5zm6.1 4.1c-.1 0-.1 0 0 0 .6 1.4 1.2 1.8 1.2 2.2-.8-.6-.4-.1-2.7-4.3 0-.2.2-.1.2 0 .4.3.8.7 1.3 1 0 0 .1 0 .1.1.1.1.1.1.3.1.1 0 .1 0 .1-.1.2-1.1-1.1-1.9-2.3-2.9-.1-.1-.2-.1-.3-.1-.1 0-.1 0-.1.1.2.9.3 2.2.3 2.3 0 .2.1.3.1.5.1.3.1.7.2 1 0 .1 0 .3-.2.1-.7-.5-.4-.4-1-4.2 0-.1-.2-1.1-.2-1.2h.1c.1.1.2.2.3.2.8.8 2.3 1.5 2.9 2.5.7 1.1 1 3 .3 2.8-.1 0-.2-.1-.3-.1h-.3zm4.2 2.9s0 .1 0 0c-.1.1-.1.1-.2 0-.4-.3-.8-.6-1.2-1h-.1c-.1.3.4 1.1.6 1.2 1.2.9 1.5 1 1.7 1.7.3.8.6.8.8 1v-.1c-1.7-3.5-2.4-6.1-2.9-6.6-.1-.2-.4-.4-.5 0-.2.7-.5 1.5-.8 2.2 0 .1-.1.2-.1.3-.1.2-.2.5-.3.7v.1l.6.5h.1c0-.2.1-.3.2-.5.2-.6.4-1.3.6-1.9 0-.1.2-.1.2 0l1.3 2.4zm2.3-.1c-1-.7-.9 2 .9 3.6 1.5 1.2 2 1.3 1.8 1.7 0 .3 0 .5-.2.3-1.3-1.1-2.6-1.6-3.2-3.5-.8-1.9-.6-3.8.6-2.9.7.5 1.4 1.1 2.1 1.6.1.1.2.2.1.3l-.1.3c0 .5-.5-.4-2-1.4zm3.6 5.5c-.4-1.9-.5-3.9-.8-4.2l-.2-.1c-.5-.5.1 1.4.5 4.4.2.8.3.8 2.9 2.8.2.1.2.1.3-.1V63c.2-.3.1-.3-2.6-2.3 0-.1 0-.2-.1-.4zm5.7.9c.2.2.1.3 0 .5 0 .1-.1.1-.1.2s-.2.1-.2 0c-1.4-1.2-2-1.8-2.2-1.2-.3.3 0 .4 2.7 2.5.2.2.2.2 0 .6-.1.2-.1.2-.3.1-.5-.5-1.6-1.2-1.6-1.3-.2-.2-.5-.4-.7-.5 0 0-.1 0-.1.1.6 1.3 1.4 2 3.2 3.3.1.1.1.2.1.3l-.1.2c0 .4-.3 0-1.7-1.1-1.4-1.2-2.3-3.4-2.2-4.7 0-2 1.8.1 3.2 1zm1.1 1.8c-.2.2-.9-1.2-.5-1.4.3-.3.8 1.1.5 1.4z"/>
	<path fill="#fffffd" d="M81.7 47.6c.1 0 .1-.1 0 0 .1 0 .1 0 0 0 .3 1.6.3 1.5.3 1.6h.1c1-.7 1-.6 1-.9l-.7-2.6c0-.4.8-2.7.8-3.3H83c-.4.4-1 .3-1 2.2-.1 0-.1-.1-.1-.1 0-.3-.1-.6-.1-.9 0-.1-.1-.2-.2-.1-.4.2-1.1.7-.9.7.6 2.6.6 2.1.6 2.5-.1.4-.3 1.4-1 3.6v.1c.2-.1.4-.2.5-.4.1 0 .1-.1.2-.1.5-.5.1-.5.4-1 .1-.4.2-.9.3-1.3zm-1.6-2.9c-.8-.1-1.5 1-1.8 1.6-.6 1.4-.7 3.5-.5 5 0 .2.1.3.3.4.4.3 1.1-.4 1.3-.6 1.5-1.5 1.5-6 .7-6.4zm-1.3 5.7c0-.1-.5-3.8.6-4.2.3-.1.3.1.3.3.1 1-.1 4.4-.9 3.9zm-4.1 3.8c.1-1 .2-5.8.4-7.8 0-.1.1-.1.2-.2 1.1-.8 2.4-1.8 2.4-.4.1.8 0 1.5-.3 2.3 0 .1-.1.2-.2.3v.2l.3.3c.1.2.1.5.1.8 0 3.2-1.3 3.8-2.2 4.7-.2.1-.4.3-.5.4h-.1v-.2c-.2-.3-.2-.3-.1-.4zm1.9-7.6c0-.2-.2-.2-.4-.2-.2.1-.3.3-.3.5 0 1.3-.2 1.9 0 1.9.4 0 .9-1.4.7-2.2zm-1 6.1c1-.2 1.1-2.5.9-2.7-.1-.2-.3-.2-.5-.1-.2.2-.4 0-.4 2.8 0-.1 0 0 0 0zm-2.3-2.6c-.1.9-.1 1.9-.1 3.2 0 .9-.2 2 0 2.2 0 .1.1.1.2.1.4-.1.6-.4.9-.6.2-.2.1-.3.1-.9 0-.1-.1-.1-.2-.1-.4.2.1-5.3.1-7.6-.1 0-.2 0-.2.1 0 0-.1 0-.1.1-.2.2-.6.4-.6.6 0 .9-.1 1.9-.1 2.9zm-.7 1.6c-.3 4.9-.1 4.5-.8 4.9-.3 0-.3 0-.3-.3-.1 0-.1 0-.2.1v.1c0 .1-.1.2-.1.3-1.4 2.7-2.4-1.7.3-3.7.2-.2.1-.8.1-1-.1-.8-1 .5-1.1.6-.2.2-.2.2-.2-.1 0-.5-.1-.8.9-1.8.3-.3 1-.8 1.2-.1.2.4.3.7.2 1zm-1.1 3.6c0-.3 0-.7.1-.9 0-.2 0-.3-.2-.1-.6.4-.8 1.9-.5 1.9.3 0 .6-.6.6-.9zm-2.9 3.3.1.2c0 .1.1.1.2.1.2-.1.6-.4.6-.7 0-.4.2-4.3.2-5.9 0-.1-.1-.1-.2-.1-.2.2-.4.3-.6.5-.6.6.1 5.1-.9 5.4-.2.1-.3-.1-.2-.2 0-3.9.4-4.6.1-4.6h-.1c-.7 1-.6.8-.6.9-.3 3.6-.5 8 1.1 4.7l.3-.3c-.1 0-.1 0 0 0zM64 57.2c.2-.3.3-.7.4-1 .1-.2.2-.3.3-.5.1-.1.2-.1.3-.2 1-.5.3-2.7 1.4-2.7 0 1.3-.2 1.7 0 1.7.1-.1.3-.2.5-.1-.3.5.1.7-.4 1-.5.5-.2 0-.5 4 0 .5.2.2.5.2 0 .5.1.7-.1 1-.2.3-1 1.2-1.2.5 0-.1-.1-.2-.1-.3 0-4.2.2-4.3 0-4.3-.1 0-.2 0-.2.2-.1.3-.1.5-.2.6-.5.3-.8 1.4-.8 1.8-.4 4 .1 3.1-.7 3.9-.1.1-.1.1-.2.1l-.1.1c.1-.7.3-5.7.3-5.9 0-.4.3-.3.5-.7h.1c.1-.1.2 0 .2.1v.5c0-.1 0-.1 0 0zm-2.1-1.7c0 .1-.3.9-.1 1.4 0 .1.1.1.2.1.7-.4.8-1.1.7-1.9 0-.1-.3-.2-.6.1.1-.1.1-.1-.2.3zm-.5.7c.2 0 .1.5 0 .6 0 0-.3 2.8-.4 3-1.1 6.3-.2 4.8-2.1 6.2-.1 0-.6-3.7-.6-7.8l.9-.7h.1c0 .1.1 5.6.2 5.7 0 1.1.7-3 1-6.7 0-.1.1-.2.2-.3.3.3.5.1.7 0zm0 8c.1 0 .1 0 0 0l.8-.5c.1 0 .1.5.4-6.3 0 0 0-.1-.1-.1-.2.1-.4.3-.6.4-.3.3-.5 6-.5 6.5z"/>
</svg>