<svg xmlns="http://www.w3.org/2000/svg" viewBox="0 0 100 100">
	<path fill="#5e438f" d="M18.3 84.6 1.7 72.1c-1.1-.8-1.7-2-1.7-3.3V31.2c0-1.3.6-2.6 1.7-3.3l16.7-12.5c-.9.9-1.3 2.1-1.1 3.3v62.5c-.3 1.3.1 2.5 1 3.4z"/>
	<linearGradient id="a" x1="86.7705" x2="12.5169" y1="95.947" y2="21.2114" gradientTransform="matrix(1 0 0 -1 0 101.433)" gradientUnits="userSpaceOnUse">
		<stop offset="0" stop-color="#7252aa"/>
		<stop offset="1" stop-color="#7252aa"/>
	</linearGradient>
	<path fill="url(#a)" d="M98.1 17.4c-.7-.5-1.5-.7-2.3-.7-1.1 0-2.1.4-2.9 1.2l-.3.3L75 35.1 59.4 50 41 67.6 24 84l-.3.3c-.8.8-1.8 1.2-2.9 1.2-.9 0-1.8-.3-2.5-.8L1.7 72.1c1.8 1.3 4.2 1 5.7-.6l9.3-10.8L25.8 50 41 32.4 67.6 1.5c.8-1 2-1.5 3.2-1.5.8 0 1.6.2 2.3.7l25 16.7z"/>
	<linearGradient id="b" x1="13.5083" x2="83.299" y1="86.8964" y2="8.7728" gradientTransform="matrix(1 0 0 -1 0 101.433)" gradientUnits="userSpaceOnUse">
		<stop offset="0" stop-color="#ae7fe2"/>
		<stop offset="1" stop-color="#9a70d4"/>
	</linearGradient>
	<path fill="url(#b)" d="m98.1 82.6-25 16.7c-1.8 1.1-4.1.8-5.5-.8L41 67.6 25.8 50l-9.2-10.6-9.3-10.9c-1.4-1.7-3.9-1.9-5.7-.6l16.7-12.5c1.2-.9 2.7-1.1 4.1-.5.5.2.9.5 1.3.9l.3.2 17 16.3L59.4 50 75 64.9l17.7 17 .3.3c.8.8 1.8 1.2 2.9 1.2.8-.1 1.6-.3 2.2-.8z"/>
	<linearGradient id="c" x1="86.5408" x2="86.5408" y1="102.756" y2="2.2055" gradientTransform="matrix(1 0 0 -1 0 101.433)" gradientUnits="userSpaceOnUse">
		<stop offset="0" stop-color="#d59dff"/>
		<stop offset="1" stop-color="#c18ef1"/>
	</linearGradient>
	<path fill="url(#c)" d="M100 20.8v58.3c0 1.4-.7 2.7-1.9 3.5l-25 16.7c1.2-.8 1.9-2.1 1.9-3.5V4.2c0-1.4-.7-2.7-1.9-3.5l25.1 16.7c1.1.7 1.8 2 1.8 3.4z"/>
</svg>