<svg xmlns="http://www.w3.org/2000/svg" viewBox="0 0 100 100">
	<path fill="#3d87cf" d="M70.4 48.3 50.3 58.7 30.1 48.3V34.7l20.2-10.4 20.2 10.4-.1 13.6z"/>
	<path fill="#f3632e" d="M42 64.9 21.8 75.3 1.6 64.9V51.3l20.2-10.4L42 51.3v13.6z"/>
	<path fill="#912697" d="M98.4 65 78.2 75.4 58 65V51.4L78.2 41l20.2 10.4V65z"/>
	<path d="M78.2 39.2 72 42.3v-8.6L50.3 22.5 28.4 33.7v8.8l-6.6-3.4L0 50.3v15.6l21.8 11.2 21.8-11.2v-8.8l6.6 3.4 6.1-3.2V66l21.8 11.2L100 66V50.4L78.2 39.2zm-27.9-13 16.4 8.4-16.4 8.3-16.4-8.3 16.4-8.4zM20.1 72.6 3.3 64V53.8l16.8 8.5v10.3zm1.6-13.1L5.4 51.2l16.4-8.4 6.6 3.4v3.1l6.7 3.5-13.4 6.7zm18.7 4.4-17 8.7V62.3l15.4-7.7 1.6.8v8.5zm15.9-13.5v3.2l-6.1 3.2-6.6-3.4v-3.1l-11.9-6.1v-7.1l18.5 9.3 18.6-9.3V44l-12.4 6.4h-.1zm20.2 22.3L59.6 64v-8.3l1.8-.9 15.1 7.6v10.3zM65 52.9l7-3.6V46l6.2-3.1 16.4 8.4-16.4 8.2L65 52.9zM96.8 64l-17 8.7V62.4l17-8.5V64z"/>
	<path fill="#fac705" d="M70.4 65.3 50.3 75.7 30.1 65.3V51.7l20.2-10.4 20.2 10.4-.1 13.6z"/>
	<path d="M50.3 39.5 28.4 50.7v15.6l21.8 11.2L72 66.3V50.7L50.3 39.5zM48.6 73l-16.9-8.6V54.2l16.9 8.5V73zM33.9 51.6l16.4-8.4 16.4 8.4-16.4 8.3-16.4-8.3zm34.9 12.8-17 8.7V62.7l17-8.5v10.2z"/>
</svg>