<svg xmlns="http://www.w3.org/2000/svg" viewBox="0 0 100 100">
	<linearGradient id="a" x1="25.0021" x2="83.395" y1="112.3706" y2="33.0674" gradientTransform="matrix(1 0 0 -1 0 101.433)" gradientUnits="userSpaceOnUse">
		<stop offset="0" stop-color="#41d1ff"/>
		<stop offset="1" stop-color="#bd34fe"/>
	</linearGradient>
	<path fill="url(#a)" d="M99.6 14.8 52.7 98.7c-1 1.7-3.5 1.7-4.4 0L.4 14.8c-1.1-1.9.5-4.2 2.7-3.8l47 8.4c.3.1.6.1.9 0L97 11c2-.3 3.7 1.9 2.6 3.8z"/>
	<linearGradient id="b" x1="52.5363" x2="63.0994" y1="100.3208" y2="27.8587" gradientTransform="matrix(1 0 0 -1 0 101.433)" gradientUnits="userSpaceOnUse">
		<stop offset="0" stop-color="#ffea83"/>
		<stop offset=".08299999" stop-color="#ffdd35"/>
		<stop offset="1" stop-color="#ffa800"/>
	</linearGradient>
	<path fill="url(#b)" d="M72.4 0 37.7 6.8c-.6.1-1 .6-1 1.2l-2.1 36.1c0 .7.5 1.3 1.2 1.3h.4l9.7-2.2c.7-.2 1.4.3 1.5 1v.5l-2.9 14.1c-.1.7.3 1.4 1 1.5h.6l6-1.8c.7-.2 1.4.2 1.6.9.1.2.1.4 0 .6l-4.6 22c-.3 1.4 1.6 2.1 2.3 1l.5-.8 28.3-56.5c.5-.9-.3-2-1.4-1.8l-10 1.9c-.7.1-1.4-.3-1.5-1v-.6l6.5-22.5c.3-.7-.1-1.5-.8-1.6-.2-.1-.4-.1-.6-.1z"/>
</svg>