<svg xmlns="http://www.w3.org/2000/svg" viewBox="0 0 100 100">
	<path fill="#1b4790" d="M30.8 18.2c0 .1 0 .3-.2.4l-6 6-17 16.9L0 49.2v-8.4l22.4-22.4s.1-.1.2-.1h.2l8-.1z"/>
	<linearGradient id="a" x1="98.4146" x2="-1.5854" y1="98.6753" y2="7.6753" gradientTransform="matrix(1 0 0 -1 0 101.433)" gradientUnits="userSpaceOnUse">
		<stop offset="0" stop-color="#1d418a"/>
		<stop offset=".5104" stop-color="#0d6fba"/>
		<stop offset=".776" stop-color="#057fc8"/>
		<stop offset="1" stop-color="#0c6eb7"/>
	</linearGradient>
	<path fill="url(#a)" d="M0 49.2v46.2h48.2L100 43.8V4.5H44.8L0 49.2z"/>
	<path fill="#fafffd" d="M74.6 54.6c.4-.4.8-.8.9-1.3 1.1-3.1 2.2-6.3 3.3-9.4.6-1.6.8-3.1-1.3-3.6-1.1 0-1.8.5-2.2 1.5-.7 2.3-1.4 4.6-2.1 6.8-.1.2-.1.2-.2 0-.6-2.1-1.3-4.2-2-6.3-.2-.6-.4-1.1-.6-1.3-.9-1-2.8-.9-3.5.2-.1.2-.4.9-.7 2-.6 1.8-1.2 3.7-1.7 5.5 0 0 0 .1-.1.1h-.1c-.6-1.8-1.1-3.7-1.7-5.5-.4-1.2-.7-2-1-2.3-1.2-1.3-3.9-.1-3.3 1.7 1.2 3.5 2.4 7.1 3.6 10.6.6 1.6 2.7 2.4 3.9 1.2.3-.3.6-1 .9-1.9.6-1.9 1.2-3.9 1.9-5.8.1-.2.1-.2.2 0 .6 1.9 1.2 3.9 1.8 6 .2.7.4 1.2.6 1.5.9.8 2.3.9 3.4.3zm-27.2 0c1.3-.2 1.9-.9 1.9-2.1V46c0-.7.1-1.2.2-1.5.7-1.4 3-1.5 3.7-.3.2.4.3 1 .3 1.7v6.3c0 1.7 1.3 2.7 2.8 2.2 1.4-.4 1.4-1.5 1.4-2.9v-6.4c0-1.1-.1-1.9-.3-2.4-1.5-3.8-6.3-3.8-8.9-1.3-.1.1-.2.1-.2 0-2.3-2.6-5.8-2-8.2 0-.1.1-.1.1-.2 0s-.3-.2-.4-.3c-2.5-2.2-6.3-1.8-7.8 1.4-1 2.3-2 4.5-3 6.8 0 .1-.1.1-.2 0-.4-1-.9-2.1-1.3-3.1-.6-1.5-1.3-3-1.9-4.5-.4-1-.7-1.7-1.7-1.9-1.7-.3-3 1.2-2.3 2.8 1.4 3 2.8 6.1 4.1 9.1.5 1.1.9 1.9 1.3 2.2 1.7 1.4 3.6.6 4.5-1.2.7-1.5 2-4.4 4-8.8.3-.6 1.3-.6 1.3.2v8.4c0 2.9 4.2 2.9 4.2-.1v-6.5c0-.6.1-1.1.3-1.5.8-1.4 3.2-1.3 3.8.1.2.4.2 1.1.2 2.3v4.7c.1 1.8.4 3.1 2.4 3.1z"/>
</svg>