<svg xmlns="http://www.w3.org/2000/svg" viewBox="0 0 100 100">
	<linearGradient id="a" x1="0" x2="77.543" y1="42.7265" y2="42.7265" gradientTransform="matrix(1 0 0 -1 0 101.433)" gradientUnits="userSpaceOnUse">
		<stop offset="0" stop-color="#0658d4"/>
		<stop offset="1" stop-color="#2c7ef9"/>
	</linearGradient>
	<path fill="url(#a)" d="M20.8 28.7C9.3 28.7 0 38.2 0 50s9.3 21.3 20.8 21.3c1.2 0 2.4-.1 3.6-.3 4.1 10.4 14 17.7 25.6 17.7 10.8 0 20.2-6.4 24.7-15.7-2.3-.5-4.5-1.3-6.6-2.4-3.5 6.6-10.3 11.1-18.1 11.1-8.6 0-16-5.4-19.1-13.1-.7-1.6-1.1-3.3-1.3-5-.1-.7-.8-1.2-1.5-1.2-.2 0-.4 0-.5.1-.1.1-.2.1-.4.2-1.4.7-2.9 1.2-4.5 1.5-.6.1-1.2.1-1.9.1-7.7 0-14-6.4-14-14.3s6.3-14.3 14-14.3c3.1 0 6.1 1.1 8.5 3 .6.4 1.1 1 1.6 1.5 1.1 1.2 2 2.6 2.7 4.1 0 .1.1.1.1.2.2.5.7.8 1.3.8.4 0 .8-.2 1.1-.4 1.2-1.2 2.6-2.2 4-3 3-1.7 6.4-2.6 9.9-2.6 3.6 0 6.9.9 9.9 2.6 2.2 1.2 4.1 2.8 5.7 4.7.9 1 1.6 2.1 2.3 3.3 1.4 2.4 2.3 5.2 2.6 8.1l.1.1c.4.5.9.9 1.3 1.3 1.6 1.3 3.5 2.1 5.5 2.4 0-.4.1-.9.1-1.3 0-3.7-.7-7.3-2-10.6-1.2-3-2.9-5.8-5-8.2-.5-.5-1-1.1-1.5-1.6-1.7-1.6-3.5-3.1-5.6-4.2-4-2.3-8.6-3.6-13.5-3.6-4.7 0-9.4 1.2-13.5 3.6-1.6-1.9-3.5-3.4-5.6-4.6-2-1.1-4.2-1.9-6.5-2.4-1-.1-2.2-.2-3.5-.2z"/>
	<linearGradient id="b" x1="110.1787" x2="45.3577" y1="36.2337" y2="64.0127" gradientTransform="matrix(1 0 0 -1 0 101.433)" gradientUnits="userSpaceOnUse">
		<stop offset="0" stop-color="#198852"/>
		<stop offset="1" stop-color="#43b476"/>
	</linearGradient>
	<path fill="url(#b)" d="M50 11.3c-10.8 0-20.2 6.4-24.7 15.7 2.3.5 4.5 1.3 6.6 2.4 3.5-6.6 10.3-11 18.1-11 8.6 0 16 5.4 19.1 13.1.7 1.6 1.1 3.3 1.3 5 .1.7.7 1.2 1.5 1.2.2 0 .4 0 .5-.1.1-.1.2-.1.4-.2 1.4-.7 2.9-1.2 4.5-1.5.6-.1 1.2-.1 1.9-.1 7.7 0 14 6.4 14 14.3s-6.3 14.3-14 14.3c-3.1 0-6.1-1.1-8.5-3-.6-.5-1.1-1-1.6-1.5-1.1-1.2-2-2.6-2.7-4.1 0-.1-.1-.1-.1-.2-.2-.5-.7-.8-1.3-.8-.4 0-.8.2-1.1.4-1.2 1.2-2.6 2.2-4 3-3 1.7-6.4 2.6-9.9 2.6s-6.9-.9-9.9-2.6c-2.2-1.2-4.1-2.8-5.7-4.7-.9-1-1.6-2.1-2.3-3.3-1.4-2.4-2.3-5.2-2.6-8.1l-.1-.1c-.4-.5-.9-.9-1.3-1.3-1.6-1.3-3.5-2.1-5.5-2.4 0 .4-.1.9-.1 1.3 0 3.7.7 7.3 2 10.6 1.2 3 2.9 5.8 5 8.2.5.5 1 1.1 1.5 1.6 1.7 1.6 3.5 3.1 5.6 4.2 4 2.3 8.6 3.6 13.5 3.6s9.5-1.3 13.5-3.6c1.6 1.9 3.5 3.4 5.6 4.6 2 1.1 4.2 1.9 6.5 2.4 1.2.2 2.4.3 3.6.3 11.5 0 20.8-9.5 20.8-21.3s-9.3-21.3-20.8-21.3c-1.2 0-2.4.1-3.6.3C71.6 18.6 61.6 11.3 50 11.3z"/>
</svg>