<svg xmlns="http://www.w3.org/2000/svg" viewBox="0 0 100 100">
	<path fill="#08e" d="M13 15c2-2 5.3-2 7.3 0l.1.1 15.5 17c1.5 1.6 1.4 4.1-.1 5.7-1.6 1.5-4 1.6-5.7.1l-17-15.5c-2.1-1.9-2.3-5.2-.3-7.3 0 0 .1-.1.2-.1z"/>
	<path fill="#2c2" d="M49 0c2.9 0 5.2 2.4 5.1 5.2v.2l-1.1 23c-.1 2.2-1.9 3.9-4.1 3.9-2.2 0-4-1.7-4.1-3.9l-1-23C43.7 2.6 45.9.2 48.7 0h.3z"/>
	<path fill="#e62" d="M85.1 15c2 2 2 5.3-.1 7.3l-.1.1L67.8 38c-1.6 1.5-4.1 1.4-5.7-.1-1.5-1.6-1.6-4-.1-5.7l15.6-17c1.9-2.1 5.2-2.2 7.3-.3.1 0 .1.1.2.1z"/>
	<path fill="#fc0" d="M100 51c0 2.9-2.3 5.2-5.2 5.2h-.2l-23-1c-2.2-.1-3.9-1.9-3.9-4.1 0-2.2 1.7-4 3.9-4.1l23-1.1c2.8-.1 5.2 2.1 5.4 4.9v.2z"/>
	<path fill="#5dd" d="M85 87c-2 2-5.3 2-7.3 0l-.1-.1-15.6-17c-1.5-1.6-1.4-4.1.1-5.7 1.6-1.5 4-1.6 5.7-.1l17 15.5c2.1 1.9 2.3 5.2.3 7.3l-.1.1z"/>
	<path d="M2.2 89.4c-2.6 2-3 5.8-1 8.3s5.8 3 8.3 1c.4-.3.8-.7 1.1-1.1 15.4-16.4 28.3-30.1 42.5-45 1.5-1.6 1.4-4.1-.1-5.7-1.6-1.5-4-1.6-5.7-.1-15 14.3-30 28.5-45.1 42.6z"/>
</svg>