<svg xmlns="http://www.w3.org/2000/svg" viewBox="0 0 100 100">
	<path fill="#ea5906" d="M30.8 4.3c0-1.8 1.4-3.2 3.2-3.2h31.6c1.8 0 3.2 1.4 3.2 3.2v14c0 1.8-1.4 3.2-3.2 3.2H34c-1.8 0-3.2-1.4-3.2-3.2v-14zm34.8 18.2c2.4 0 4.3-1.9 4.3-4.3v-14c0-2.4-1.9-4.3-4.3-4.3H34c-2.4 0-4.3 1.9-4.3 4.3v14c0 2.4 1.9 4.3 4.3 4.3h31.6zM46.1 13c-.1 2.6-2.2 4.6-4.7 4.5-2.5-.1-4.4-2-4.5-4.5 0-2.6 2.1-4.6 4.6-4.6 2.5 0 4.6 2 4.6 4.6zm1.1 0c0-3.1-2.6-5.7-5.7-5.7s-5.7 2.6-5.7 5.7 2.6 5.7 5.7 5.7 5.7-2.6 5.7-5.7zm-19 6V7.8c-3.1 0-5.6 2.5-5.6 5.6 0 3.1 2.5 5.6 5.6 5.6zm2.1 16.3h-1.8v-1.8h1.8v1.8zm3.2 0h-1.8v-1.8h1.8v1.8zm1.1 0h1.8v-1.8h-1.8v1.8zm4.9 0h-1.8v-1.8h1.8v1.8zM71.3 7.8c3.1 0 5.6 2.5 5.6 5.6 0 3.1-2.5 5.6-5.6 5.6V7.8zM45.4 13c0 2.1-1.7 3.9-3.9 3.9s-3.9-1.8-3.9-3.9c0-2.1 1.7-3.9 3.9-3.9 2.1 0 3.8 1.8 3.9 3.9zM58 8.4c2.6 0 4.6 2.1 4.6 4.6-.1 2.6-2.2 4.6-4.7 4.5-2.5-.1-4.5-2.1-4.5-4.5 0-2.6 2.1-4.6 4.6-4.6zm0 10.3c3.1 0 5.7-2.6 5.7-5.7S61.1 7.3 58 7.3s-5.7 2.6-5.7 5.7 2.6 5.7 5.7 5.7zm3.9-5.7c0 2.1-1.7 3.9-3.9 3.9s-3.9-1.8-3.9-3.9c0-2.1 1.7-3.9 3.9-3.9s3.9 1.8 3.9 3.9zm3.9-.6h1.8v-1.8h-1.8v1.8zm1.8 2.6h-1.8v-1.8h1.8V15zm10.5 13.4c-.1-2.3-2-4.2-4.3-4.2H25.5c-2.2.1-4.2 1.7-4.2 4.7C14.7 30 8.8 35.3 8.8 43v22.7c-2.3 1.6-2.3 3.7-.7 5.3.2 4.4-1.7 6.9.4 9 .6.6 1.4.9 2.4.9 4.6 0 2.5-5 3.9-5 .3 0 .5.1.9.6 1.7 2.4 6.8.8 3.8-3.4-.6-.8-.7-1.6-.7-2.1 1.7-1.6 1.5-3.8-.7-5.3V45.1c0-2.2 1.7-3.7 3.2-3.9v32.6c0 2.5 2 4.3 4.3 4.3h2.9v12H26c-.1 0-4.2.9-4.7 5.3v4.6h14.9l4.6-1.6c0-4.6.2-6.2-.9-7.3v-13h19.6v13c-1.2 1.3-.9 3.3-.9 7.3l4.6 1.6h14.9v-4.8c-.4-2.8-2.4-4.7-4.8-5.2h-2.5V78h3.1c2.3-.1 4.2-2 4.2-4.3V41.2c.6.1 1.2.3 1.6.8 2.1 1.9 1.6.3 1.6 23.7-2.3 1.5-2.4 3.7-.7 5.3 0 .5-.1 1.2-.7 2.1-3 4.3 2.2 5.8 3.8 3.4.3-.5.6-.6.9-.6 1.4 0-.7 5 3.9 5 2.5 0 3.7-2.3 3.4-3.8-.2-1.3-.7-4.5-.6-6.1 1.7-1.6 1.5-3.8-.7-5.3v-23c-.1-10.2-9.6-13.3-12.5-13.8v-.5zM64 94.8h12.9c0 .2.1.4.1.6H64v-.6zm-41.4 0h12.9v.6h-13c0-.2 0-.3.1-.6zm37-.8c.1-4.7 3.4-1.7 3.3 1.3l-3.3-1.2V94zm-20.4-2.2c.4.4.6 1.2.7 2.4l-3.3 1.2c-.1-1.9 1.5-4.7 2.6-3.6zm23.1-.7h10.9c.3.1 2.6.7 3.5 3H63.9c-.3-1.3-1-2.3-1.6-3zm-36.1 0h10.9c-.8.7-1.4 1.9-1.6 3H22.8c.6-1.6 2-2.6 3.4-3zm3-13h1.4v12h-1.4v-12zm8.2 0h1.5v12h-1.5v-2.7h.5v-2.3h-.5v-7zm31.4 0h1.4v12h-1.4v-12zm-8.2 0h1.5v7.1h-.5v2.3h.5v2.7h-1.5V78.1zM9.2 71.7c.7.4 1.6.7 2.4.9-.3 2.4-.4 2.3-.8 3.8-.4 1.6.3 2.6 1.7 2.9-.7.7-2.4.8-3.2 0-1.4-1.5-.2-3-.1-7.6zm78.7.9c.8-.2 1.6-.4 2.4-.9.1 4.4 1.3 6.1-.1 7.5-.8.8-2.5.7-3.2 0 2.7-.6 1.7-2.9 1.3-4.3-.1-.4-.2-.9-.4-2.3zm-3.5 0c.8.1 1.6.2 2.5.1.2 1.8.3 2.2.6 3.3.4 1.2.6 2.1-.9 2.3-.1-.6-.1-1.3-.2-1.7-.2-2.1-2.3-2.3-3.4-.6-.1.1-.1.2-.2.3-1.3-1.1.6-2 1.6-3.7zm-69.3 0c1 1.6 2.9 2.6 1.7 3.5-.4-.4-.7-1.4-2.1-1.4-1.9 0-1.5 2.3-1.8 3.5-1.7-.2-1.2-1.3-.9-2.3.3-.9.3-1.1.6-3.2.9.1 1.7.1 2.5-.1zm66.6-.9c.6.3 1.1.6 1.8.7-.9 1.3-3 2.6-1.6 4.1-.7.1-1.5-.2-1.7-.9-.3-1.1 1.3-2.2 1.5-3.9zm-65.7.7c.6-.2 1.2-.4 1.8-.7.3 1.7 1.8 2.8 1.5 3.9-.1.7-1 .9-1.7.9 1.4-1.4-.5-2.7-1.6-4.1zm11.5-7.7h44.9v6.5c-.1 2.3-2 4.2-4.3 4.2H31.7c-2.3-.1-4.2-1.9-4.2-4.3v-6.4zm50.6-27.8v-6.5c5.7 1.1 11 5.6 11 12.6v21.3h-5c.1-18.8 1.8-25.1-6-27.4zm-56.7-6.5v6.5c-4.3 1.3-6.1 4.3-6.1 8.3v19.1h-5V42.8c.1-6.7 5.3-11.3 11.1-12.4zm27.3 13.8h23.7v5.7c-8-7.4-5.8 6.8-12.5 2.5-4.1-2.7-8.3-3.6-11.1.3l-.1-8.5zm23.7 6.6c-3.9-3.7-5-2.7-6.5.1-1.6 2.8-3.1 4.2-6.4 2-5.6-3.6-8.6-2.4-10.6.8l-.1-.1v3.2h23.7l-.1-6zm-44.6-5.6h.7v10.6h-.7V45.2zm6.8 5.3c0-2.9 2.4-5.3 5.3-5.3s5.3 2.4 5.3 5.3-2.4 5.3-5.3 5.3c-3 0-5.3-2.3-5.3-5.3zm-.7-5.3h.7l-4.3 10.6h-.7l4.3-10.6zm10.6 5.3c0-2.6-2-4.7-4.6-4.7-2.6 0-4.7 2.1-4.7 4.7s2.1 4.6 4.7 4.6c2.5 0 4.6-2.1 4.6-4.6zM31.8 26.9h36.3c2.3 0 4.3 1.9 4.3 4.2v5.3H27.5V31c.1-2.3 2-4.1 4.3-4.1zm1.7 39.2c4.7 0 5.3 6.9.7 7.7 0-3.8.2-4.5-.7-4.5-.9 0-.7.7-.7 4.5-4.6-.9-4-7.7.7-7.7zm0 8.5c2.5 0 4.6-2 4.7-4.5 0-2.6-2.1-4.7-4.7-4.7-2.5 0-4.6 2.1-4.5 4.7 0 2.4 2 4.4 4.5 4.5zm6.7-4.6c0 2.1 1.7 3.9 3.9 3.9 3.3 0 5-3.8 3-6.3 0 .1-1 1.1-2.5 2.9-.6.7-1.7-.2-1.1-.9l2.4-2.8s0-.1.1-.1c-2.5-1.6-5.8.2-5.8 3.3zm-.7 0c0-2.5 2-4.6 4.5-4.7 2.6 0 4.7 2.1 4.7 4.7 0 2.5-2.1 4.6-4.7 4.5-2.4 0-4.5-2.1-4.5-4.5zM54 66.6c-1 0-1 1.4 0 1.4 14.1 0 14.1.3 14.2-.7 0-.4-.3-.7-.7-.7H54zm-.7 3.2c0-.4.3-.7.7-.7 13.9 0 14.1-.3 14.1.7s-.2.7-14.1.7c-.4 0-.7-.3-.7-.7zm.7 1.8c-1 0-1 1.4 0 1.4 8.2 0 8.5.2 8.5-.7 0-1-.3-.7-8.5-.7z"/>
</svg>