<svg xmlns="http://www.w3.org/2000/svg" viewBox="0 0 100 100">
	<path fill="#9D0002" d="M97.2 56.749h-.675v1.765h-.59v-1.765h-.685v-.508h1.95v.508Zm.268-.509h.869l.397 1.516.397-1.515H100v2.273h-.555v-1.728h-.009l-.471 1.728h-.453l-.48-1.728h-.01v1.728h-.554V56.24ZM73.72 58.384a6.378 6.378 0 0 1-2.504.527c-1.33 0-2.532-.23-3.594-.693a7.666 7.666 0 0 1-2.69-1.913 8.441 8.441 0 0 1-1.681-2.864c-.388-1.1-.582-2.283-.582-3.549 0-1.302.194-2.504.582-3.622.388-1.118.942-2.088 1.672-2.91.73-.832 1.627-1.479 2.69-1.95 1.062-.471 2.254-.712 3.594-.712.896 0 1.755.139 2.587.407.832.268 1.59.665 2.264 1.183a6.345 6.345 0 0 1 1.663 1.93c.435.768.703 1.646.804 2.634h-3.64c-.232-.97-.666-1.7-1.313-2.19-.647-.49-1.432-.73-2.365-.73-.86 0-1.59.167-2.19.5a4.07 4.07 0 0 0-1.46 1.34 5.923 5.923 0 0 0-.813 1.912 9.714 9.714 0 0 0-.26 2.218c0 .73.084 1.441.26 2.134a5.76 5.76 0 0 0 .813 1.867c.37.554.86.998 1.46 1.33.6.333 1.33.5 2.19.5 1.266 0 2.245-.324 2.938-.962.693-.637 1.09-1.561 1.21-2.78h-3.843v-2.875h7.29v9.398h-2.43l-.388-1.968c-.674.877-1.432 1.487-2.264 1.838Zm11.283-17.251V55.28h8.473v3.225h-12.29V41.133h3.817Z"/>
	<path fill="#9D0002" d="M66.965 60.667c-5.83 3.548-14.572 5.563-24.32 5.563-17.567 0-31.797-7.31-31.797-16.337 0-9.019 14.24-16.337 31.797-16.337 9.785 0 18.554 2.06 24.385 5.627C60.673 33.204 49.251 29.009 36.204 29 16.208 29 0 38.351 0 49.893c0 11.54 16.208 20.901 36.195 20.901 13.001 0 24.385-4.185 30.77-10.127Z"/>
	<path fill="#9D0002" d="m34.929 39.774-3.354 14.508-4.048-14.508H24.46l-4.047 14.508-3.354-14.508h-3.17L18.86 58.69h2.975l4.186-14.859 4.13 14.859h2.985l5.147-18.916H34.93Zm11.726 7.966a4.623 4.623 0 0 0-1.728-1.498c-.702-.35-1.516-.526-2.421-.526-1.017 0-1.931.185-2.726.545a5.113 5.113 0 0 0-1.904 1.506c-.951 1.21-1.45 2.92-1.45 4.944 0 .896.13 1.746.379 2.504.25.767.628 1.441 1.108 2.005 1.017 1.183 2.468 1.811 4.196 1.811.905 0 1.644-.092 2.264-.286a4.467 4.467 0 0 0 1.192-.582 5.39 5.39 0 0 0 1.035-.906c.258-.305.49-.637.692-.998.352-.647.527-1.257.564-1.57l.028-.213h-2.467l-.01.175c-.064.804-1.118 2.236-2.993 2.236-2.68 0-3.318-1.94-3.364-3.65h8.982v-.194c0-1.1-.111-2.106-.333-2.984-.25-.915-.591-1.691-1.044-2.32Zm-4.436.194c1.987 0 3.05 1.071 3.244 3.27h-6.431c.101-1.783 1.515-3.27 3.188-3.27Zm18.223 1.616a6.083 6.083 0 0 0-1.044-2.004 4.897 4.897 0 0 0-1.7-1.35 5.293 5.293 0 0 0-2.283-.49c-.767.01-1.46.176-2.07.5a4.335 4.335 0 0 0-1.35 1.09v-5.803h-2.457V58.68h2.338v-1.173c.203.268.471.554.822.804.666.48 1.488.72 2.44.72 1.025 0 1.95-.23 2.726-.683a5.116 5.116 0 0 0 1.746-1.728c.407-.647.712-1.414.915-2.273.175-.74.268-1.553.268-2.348a7.85 7.85 0 0 0-.351-2.448Zm-2.209 2.791c0 1.35-.268 2.477-.785 3.271-.545.841-1.34 1.267-2.356 1.267-1.47 0-3.188-1.026-3.188-3.928 0-1.386.175-2.458.526-3.27.508-1.174 1.368-1.738 2.615-1.738 1.33 0 2.227.518 2.726 1.599.407.887.462 1.968.462 2.8Z"/>
</svg>