<svg xmlns="http://www.w3.org/2000/svg" viewBox="0 0 100 100">
	<path fill="#fff" d="m50.193 0 44.193 24.997v50.006L50.193 100 6 75.003V24.997L50.193 0Z"/>
	<path fill="#8ED6FB" d="m86.496 73.278-34.841 19.71V77.64l21.708-11.945 13.133 7.583Zm2.386-2.158V29.907l-12.744 7.366v26.493l12.744 7.354Zm-75.128 2.158 34.84 19.71V77.64l-21.72-11.945-13.12 7.583Zm-2.387-2.158V29.907l12.744 7.366v26.493L11.367 71.12Zm1.496-43.885L48.595 7.022v14.834L25.699 34.452l-.183.103-12.653-7.32Zm74.523 0L51.655 7.022v14.834L74.551 34.44l.183.103 12.652-7.308Z"/>
	<path fill="#1C78C0" d="M48.594 74.147 27.172 62.362v-23.33l21.422 12.367v22.748Zm3.06 0 21.424-11.774V39.032L51.655 51.399v22.748Zm-23.032-37.81 21.503-11.82 21.502 11.82L50.126 48.75 28.622 36.337Z"/>
</svg>