<svg xmlns="http://www.w3.org/2000/svg" viewBox="0 0 100 100">
	<path fill="#F60" d="M33.019 98.011c12.43 0 22.506-10.076 22.506-22.507 0-12.43-10.076-22.506-22.506-22.506S10.512 63.074 10.512 75.504s10.076 22.507 22.507 22.507Z"/>
	<path fill="#FC0" d="M77.493 66.524c12.43 0 22.507-10.076 22.507-22.507 0-12.43-10.077-22.506-22.507-22.506-12.43 0-22.506 10.076-22.506 22.506s10.076 22.507 22.506 22.507Z"/>
	<path fill="#0089CC" d="M22.507 66.014c12.43 0 22.507-10.077 22.507-22.507C45.014 31.077 34.937 21 22.507 21 10.077 21 0 31.077 0 43.507c0 12.43 10.077 22.507 22.507 22.507Z"/>
	<path fill="#009939" d="M67.493 98.011C79.923 98.011 90 87.935 90 75.504c0-12.43-10.077-22.506-22.507-22.506-12.43 0-22.506 10.076-22.506 22.506s10.076 22.507 22.506 22.507Z"/>
	<path fill="#BF0000" d="M50 46.014c12.43 0 22.507-10.077 22.507-22.507C72.507 11.077 62.431 1 50.001 1S27.494 11.077 27.494 23.507c0 12.43 10.077 22.507 22.507 22.507Z"/>
	<path fill="#FC0007" d="M55.014 44.019c0 .485.054.943.08 1.401 9.974-2.29 17.413-11.213 17.413-21.887 0-.485-.054-.943-.08-1.401-9.974 2.29-17.413 11.213-17.413 21.887Z"/>
	<path fill="#1CD306" d="M57.98 55.153c3.88 6.766 11.158 11.348 19.514 11.348 3.423 0 6.63-.782 9.515-2.13-3.882-6.765-11.16-11.347-19.515-11.347-3.396 0-6.63.755-9.515 2.13Z"/>
	<path fill="#0F7504" d="M45.014 75.504a22.282 22.282 0 0 0 5.256 14.421c3.262-3.908 5.256-8.949 5.256-14.42a22.282 22.282 0 0 0-5.256-14.421 22.282 22.282 0 0 0-5.256 14.42Z"/>
	<path fill="#0C5E87" d="M13.613 64.157a22.247 22.247 0 0 0 8.895 1.833c8.274 0 15.498-4.502 19.407-11.16a22.249 22.249 0 0 0-8.895-1.832c-8.302.027-15.499 4.5-19.407 11.159Z"/>
	<path fill="#6B0001" d="M27.602 21.621c-.054.62-.108 1.267-.108 1.887 0 10.674 7.44 19.569 17.412 21.887.054-.62.108-1.267.108-1.887 0-10.674-7.44-19.569-17.412-21.887Z"/>
	<path fill="#fff" d="M29.704 72.728h-3.531c-3.1 0-5.634-2.507-5.634-5.607v-31.86c0-3.1 2.534-5.606 5.634-5.606h44.124c3.1 0 5.633 2.533 5.633 5.606v31.833c0 3.1-2.533 5.607-5.633 5.607h-15.04L25.095 87.47l4.609-14.743Z"/>
</svg>