<svg xmlns="http://www.w3.org/2000/svg" viewBox="0 0 100 100">
	<linearGradient id="a" x1="35.8143" x2="61.6893" y1="99.3503" y2="6.1836" gradientTransform="matrix(1 0 0 -1 0 101.433)" gradientUnits="userSpaceOnUse">
		<stop offset=".28" stop-color="#07c3f2"/>
		<stop offset=".94" stop-color="#087cfa"/>
	</linearGradient>
	<path fill="url(#a)" d="M13.5 90.4 0 10.5 24.9.1l15.9 9.5 14.6-7.9 30.4 11.7-17 86.6-55.3-9.6z"/>
	<linearGradient id="b" x1="43.8799" x2="87.6612" y1="87.523" y2="23.325" gradientTransform="matrix(1 0 0 -1 0 101.433)" gradientUnits="userSpaceOnUse">
		<stop offset=".14" stop-color="#fcf84a"/>
		<stop offset=".37" stop-color="#07c3f2"/>
	</linearGradient>
	<path fill="url(#b)" d="M100 33.9 87.1 2 63.7 0 27.5 34.7l9.7 44.8 18.2 12.7L100 65.8 89.1 45.3 100 33.9z"/>
	<linearGradient id="c" x1="87.2608" x2="93.0108" y1="79.589" y2="59.2244" gradientTransform="matrix(1 0 0 -1 0 101.433)" gradientUnits="userSpaceOnUse">
		<stop offset=".28" stop-color="#07c3f2"/>
		<stop offset=".94" stop-color="#087cfa"/>
	</linearGradient>
	<path fill="url(#c)" d="m80 29.1 9.1 16.2L100 33.9 92 14 80 29.1z"/>
	<path d="M18.8 18.8h62.5v62.5H18.8V18.8z"/>
	<path fill="#fff" d="M26.5 69.4H50v3.9H26.5v-3.9zM48.7 26.5l-3.5 13.7-4-13.7h-4l-4 13.7-3.5-13.7h-5.5L31 50h4.4l3.8-13.6L43.1 50h4.4l6.7-23.4h-5.5zM55.2 46.6l3.1-3.7c1.9 1.8 4.4 2.8 7 2.9 2.1 0 3.4-.8 3.4-2.2v-.1c0-1.3-.8-2-4.7-3-4.7-1.2-7.8-2.5-7.8-7.2v-.1c0-4.3 3.4-7.1 8.2-7.1 3.2-.1 6.3 1 8.7 3L70.4 33c-1.8-1.4-3.9-2.2-6.1-2.3-2 0-3 .9-3 2.1v.1c0 1.5 1 2.1 5.1 3.1 4.8 1.2 7.5 3 7.5 7.1v.1c0 4.7-3.6 7.3-8.6 7.3-3.8 0-7.4-1.3-10.1-3.9"/>
</svg>