<svg xmlns="http://www.w3.org/2000/svg" viewBox="0 0 100 100">
	<linearGradient id="a" x1="44.1223" x2="13.3914" y1="91.5628" y2=".7761" gradientTransform="matrix(1 0 0 -1 0 101.433)" gradientUnits="userSpaceOnUse">
		<stop offset="0" stop-color="#114a8b"/>
		<stop offset="1" stop-color="#0669bc"/>
	</linearGradient>
	<path fill="url(#a)" d="M33.3 2.9h29.6l-30.7 91c-.6 1.9-2.4 3.2-4.5 3.2h-23C2.1 97.1 0 95 0 92.4c0-.5.1-1 .2-1.5L28.9 6.1c.6-1.9 2.4-3.2 4.4-3.2z"/>
	<path fill="#0078d4" d="M76.3 63.9H29.4c-1.2 0-2.2 1-2.2 2.2 0 .6.2 1.2.7 1.6l30.2 28.1c.9.8 2 1.3 3.2 1.3h26.6L76.3 63.9z"/>
	<linearGradient id="b" x1="53.7216" x2="46.6126" y1="49.2551" y2="46.8511" gradientTransform="matrix(1 0 0 -1 0 101.433)" gradientUnits="userSpaceOnUse">
		<stop offset="0" stop-opacity=".3"/>
		<stop offset=".071" stop-opacity=".2"/>
		<stop offset=".321" stop-opacity=".1"/>
		<stop offset=".623" stop-opacity=".05"/>
		<stop offset="1" stop-opacity="0"/>
	</linearGradient>
	<path fill="url(#b)" d="M33.3 2.9c-2 0-3.9 1.3-4.5 3.3L.3 90.8c-.9 2.4.4 5.1 2.8 6 .5.2 1.1.3 1.6.3h23.6c1.8-.3 3.3-1.6 3.9-3.3L37.9 77l20.4 19c.9.7 1.9 1.1 3 1.1h26.5L76.2 63.9H42.4L63 2.9H33.3z"/>
	<linearGradient id="c" x1="50.0333" x2="83.7672" y1="94.294" y2="4.4223" gradientTransform="matrix(1 0 0 -1 0 101.433)" gradientUnits="userSpaceOnUse">
		<stop offset="0" stop-color="#3ccbf4"/>
		<stop offset="1" stop-color="#2892df"/>
	</linearGradient>
	<path fill="url(#c)" d="M71.1 6.1c-.6-1.9-2.4-3.2-4.5-3.2h-33c2 0 3.8 1.3 4.5 3.2l28.6 84.8c.8 2.5-.5 5.1-3 6-.5.2-1 .2-1.5.2h33c2.6 0 4.7-2.1 4.7-4.7 0-.5-.1-1-.2-1.5L71.1 6.1z"/>
</svg>