<svg xmlns="http://www.w3.org/2000/svg" viewBox="0 0 100 100">
	<path fill="#D10" d="M97.95 65.657 84.313 50 97.95 34.343l-20.201-4.04 2.02-20.707-18.687 8.08L50.475 0 39.869 17.677 21.182 9.596l2.02 20.707L3 34.343 16.636 50 3 65.657l20.202 4.04-2.02 20.707 18.687-8.08L50.475 100 61.08 82.323l18.687 8.081-2.02-20.707"/>
	<path fill="#fff" d="M62.09 34.344s-4.545 3.03-11.615 3.03c-7.071 0-11.111-3.03-11.111-3.03s1.01 5.05-.505 11.616c-1.516 4.04-3.536 7.07-6.566 9.596 0 0 6.06 1.01 10.606 4.04 4.545 3.535 7.576 9.596 7.576 9.596s2.525-6.06 7.07-9.09c4.546-3.536 11.111-4.041 11.111-4.041s-4.545-5.556-6.565-10.101c-2.02-5.05 0-11.616 0-11.616Zm-6.565 22.222c-3.03 2.02-5.05 5.555-5.05 5.555l-5.05-5.555-6.566-2.526s2.525-3.535 3.535-7.07c1.01-2.02 1.01-4.546 1.01-7.07 0 0 3.535 1.514 7.07 1.514 3.031 0 7.071-1.515 7.071-1.515s-1.01 4.04.505 7.576c1.01 3.03 4.04 6.566 4.04 6.566l-6.565 2.525Zm14.142-13.637c-1.01-3.535 2.525-22.727 2.525-22.727S59.06 29.293 49.97 29.293c-9.091 0-21.212-9.09-21.212-9.09s4.04 13.636 1.515 22.726c-2.02 8.586-14.647 18.687-14.647 18.687s16.162.505 22.222 5.05c6.566 4.041 12.627 20.203 12.627 20.203s8.08-17.677 11.616-20.202c3.535-2.526 23.232-5.556 23.232-5.556S71.182 46.97 69.667 42.93ZM60.07 63.636c-6.566 4.04-9.596 14.142-9.596 14.142s-5.05-11.111-10.101-14.647c-5.05-3.535-16.162-4.545-16.162-4.545s8.586-7.07 10.606-14.141c2.02-6.566-.505-16.667-.505-16.667s9.091 5.556 15.657 5.556c7.07 0 16.666-5.556 16.666-5.556s-3.03 10.606-.505 16.667c2.02 6.565 10.606 14.141 10.606 14.141s-10.1.505-16.666 5.05Z"/>
</svg>