<svg xmlns="http://www.w3.org/2000/svg" viewBox="0 0 100 100">
	<path fill="#7F54B3" d="M61.592 74.415h29.196A9.197 9.197 0 0 0 100 65.359V34.134C100 29.058 95.863 25 90.867 25H9.133C4.06 25 0 29.06 0 34.055v31.226a9.095 9.095 0 0 0 9.133 9.133h38.72l17.408 10.227-3.668-10.226h-.001Z"/>
	<path fill="#fff" d="M10.773 64.735s2.185 9.211 6.635 3.044c4.45-6.167 8.743-15.847 8.743-15.847s.313-2.42 1.561 2.889c1.25 5.308 6.636 12.49 6.636 12.49s4.918 6.167 6.948-.312c-.781-8.587 2.185-24.2 5.23-31.694 1.249-6.636-5.699-4.762-6.323-3.2-.625 1.56-4.918 11.553-5.23 22.013 0 0-3.67-9.992-3.982-13.583-.312-3.669-4.137-4.606-6.323-1.093-2.186 3.513-8.821 17.096-8.821 17.096l-4.294-22.17s-4.293-5.699-6.791 1.249c0 0 4.45 27.244 6.01 29.118Zm57.142-24.2c-6.635-11.085-16.471-2.654-16.471-2.654s-7.494 8.665-4.137 20.453c5.386 11.631 12.958 6.479 14.988 5.542 2.108-1.015 11.007-11.163 5.62-23.341Zm-5.074 9.758c0 4.606-3.825 8.9-6.947 7.962-1.718-1.014-2.81-3.747-2.81-8.43 1.56-7.573 4.995-8.587 6.79-8.431 3.358 1.795 3.201 5.776 2.967 8.899Zm29.977-9.758c-6.635-11.085-16.472-2.654-16.472-2.654s-7.494 8.665-4.137 20.453c5.386 11.631 12.959 6.479 14.988 5.542 2.03-1.015 11.007-11.163 5.62-23.341Zm-5.074 9.758c0 4.606-3.825 8.9-6.948 7.962-1.717-1.014-2.81-3.747-2.81-8.43 1.561-7.573 4.996-8.587 6.791-8.431 3.279 1.795 3.123 5.776 2.967 8.899Z"/>
</svg>