<svg xmlns="http://www.w3.org/2000/svg" viewBox="0 0 100 100">
	<path fill="#fff" d="M50 99.7c27.5 0 49.8-22.3 49.8-49.8S77.5.1 50 .1.2 22.4.2 49.9C.2 77.4 22.5 99.7 50 99.7z"/>
	<path fill="#ff8400" d="M36.5 84.2c-2.2.9-4.9 3-7.3 1-2.4-2.1-.3-6-.3-6s17.9-41.9 18.9-46.7c.8-3.9-1.3-3.5-3.7-1.4-1.4 1.2-20.3 17.7-23.1 19.1-1.9 1-4.3 1.9-6 .3-1.8-1.6.2-5.4.2-5.4L34.8 2.4c-1.2.4-2.4.8-3.7 1.3C5.5 14.1-6.7 43.3 3.7 68.9s39.6 37.8 65.2 27.4c18.8-7.7 31-25.9 31.1-46.1-22.2 12-62.1 33.5-63.5 34z"/>
	<path fill="#ff8400" d="M46.6.2c-4.3 9.3-10.3 22.2-10.1 23.7.4 2.4 3 .2 3 .2S57.3 9 60.7 7c3.4-2 4.4.8 3.9 2.5-.5 1.7-10.9 28.2-10.4 31.2s4.2.5 5.6-.5c1.4-1 26.8-24.5 26.8-24.5C76.2 4.9 61.5-.9 46.6.2z"/>
</svg>