<svg xmlns="http://www.w3.org/2000/svg" viewBox="0 0 100 100">
	<path fill="#3498DB" d="M28.854 5c-2.7.006-5.345 1.543-6.704 3.888L1.004 45.72c-1.339 2.351-1.339 5.425 0 7.776L22.15 90.328c1.36 2.345 4.003 3.882 6.704 3.888h42.292c2.7-.006 5.344-1.543 6.704-3.888l21.146-36.832c1.339-2.352 1.339-5.425 0-7.776L77.85 8.888C76.49 6.543 73.847 5.005 71.146 5H28.854Zm.384 21.547a.921.921 0 0 1 .177 0h7.295a.961.961 0 0 1 .797.475l12.375 22.111c.062.11.102.231.117.356a.955.955 0 0 1 .118-.356l12.345-22.111a.964.964 0 0 1 .827-.475h7.295c.646.006 1.13.822.827 1.395L59.33 49.608l12.08 21.636c.331.577-.165 1.43-.827 1.425h-7.295a.965.965 0 0 1-.827-.505L50.117 50.053a.955.955 0 0 1-.117-.356.954.954 0 0 1-.118.356L37.507 72.164a.964.964 0 0 1-.797.505h-7.295c-.663.005-1.158-.848-.827-1.425l12.08-21.636-12.08-21.666c-.29-.523.064-1.283.65-1.395Z"/>
</svg>