<svg xmlns="http://www.w3.org/2000/svg" viewBox="0 0 100 100">
	<linearGradient id="a" x1="44.6567" x2="44.6567" y1="-9599.0928" y2="-881.3851" gradientTransform="matrix(1 0 0 -1 -9.5e-7 -875.4407)" gradientUnits="userSpaceOnUse">
		<stop offset="0" stop-color="#1578e4"/>
		<stop offset="1" stop-color="#00c3f2"/>
	</linearGradient>
	<path fill="url(#a)" d="M20.1 7.3h49c10.5 0 19 8.5 19 19v49c0 10.5-8.5 19-19 19h-49c-10.5 0-19-8.5-19-19V26.4c.1-10.6 8.6-19.1 19-19.1z"/>
	<path fill="#fff" d="M67.8 12H21.6c-8.8 0-15.9 7.1-15.9 15.9V74c0 8.8 7.1 15.9 15.9 15.9h46.1c8.8 0 15.9-7.1 15.9-15.9V27.8c.1-8.7-7-15.8-15.8-15.8zm14.6 62.2c0 8-6.4 14.4-14.4 14.4H21.4C13.5 88.6 7 82.2 7 74.2V27.7c0-8 6.4-14.4 14.4-14.4H68c7.9 0 14.4 6.4 14.4 14.4v46.5z"/>
	<path fill="#69c5f3" d="M44.8 15.1c-19.7 0-35.7 16-35.7 35.7s16 35.7 35.7 35.7 35.7-16 35.7-35.7-16-35.7-35.7-35.7zm0 70.7c-19.4 0-35.1-15.7-35.1-35.1s15.7-35.1 35.1-35.1C64.2 15.7 80 31.4 80 50.8s-15.8 35-35.2 35z"/>
	<path fill="#68c5f4" d="M44.8 22.4c-15.7 0-28.4 12.7-28.4 28.4S29.1 79 44.8 79s28.4-12.7 28.4-28.4c.1-15.5-12.7-28.2-28.4-28.2zm0 56.1C29.4 78.5 17 66.1 17 50.8S29.4 23 44.8 23s27.8 12.4 27.8 27.8c.1 15.3-12.5 27.7-27.8 27.7z"/>
	<path fill="#fff" d="M17.6 57.3h54.2c5.3 0 5.3 8 0 8H17.6c-5.2-.1-5.4-8 0-8z"/>
	<path fill="#0a93e9" d="M17.4 58.1h54.3c4.3 0 4.2 6.5 0 6.5H17.4c-1.6 0-3.2-1.2-3.2-3.4.1-1.7 1.5-3.1 3.2-3.1z"/>
	<path fill="#1694ea" d="m73.2 64.2.4-.3h-58c.8.5 0 .3 57.6.3z"/>
	<path fill="#319dec" d="m74.5 63.1.2-.3h-60c.2.5 0 .3 59.8.3z"/>
	<path fill="#65b1ee" d="M14.3 61.5H75v-.3H14.3v.3z"/>
	<path fill="#8ec6f3" d="m74.6 59.4.2.4h-60l.1-.2c0-.3 0-.2 59.7-.2z"/>
	<path fill="#95caf3" d="M16.2 58.4h56.9l.3.1.3.2h-58c.4-.2.2-.2.5-.3z"/>
	<linearGradient id="b" x1="70.8242" x2="70.8242" y1="-1581.8872" y2="-932.1044" gradientTransform="matrix(1 0 0 -1 -9.5e-7 -875.4407)" gradientUnits="userSpaceOnUse">
		<stop offset="0" stop-color="#1492e7"/>
		<stop offset="1" stop-color="#dbedfb"/>
	</linearGradient>
	<path fill="url(#b)" d="M70.3 58.1h-.4c1.9 1.2 2.1 5.2 0 6.5h.4c2.1-1.1 1.9-5.5 0-6.5z"/>
	<linearGradient id="c" x1="66.5366" x2="66.5366" y1="-1581.8872" y2="-932.1044" gradientTransform="matrix(1 0 0 -1 -9.5e-7 -875.4407)" gradientUnits="userSpaceOnUse">
		<stop offset="0" stop-color="#1492e7"/>
		<stop offset="1" stop-color="#dbedfb"/>
	</linearGradient>
	<path fill="url(#c)" d="M66.1 58.1h-.4c1.6 1.4 1.9 4.8 0 6.5h.4c1.9-1.5 1.6-5.3 0-6.5z"/>
	<linearGradient id="d" x1="44.7067" x2="44.7067" y1="-1581.8872" y2="-932.1044" gradientTransform="matrix(1 0 0 -1 -9.5e-7 -875.4407)" gradientUnits="userSpaceOnUse">
		<stop offset="0" stop-color="#1492e7"/>
		<stop offset="1" stop-color="#dbedfb"/>
	</linearGradient>
	<path fill="url(#d)" d="M44.5 58.1h.4v6.5h-.4v-6.5z"/>
	<linearGradient id="e" x1="40.3176" x2="40.3176" y1="-1581.8872" y2="-932.1044" gradientTransform="matrix(1 0 0 -1 -9.5e-7 -875.4407)" gradientUnits="userSpaceOnUse">
		<stop offset="0" stop-color="#1492e7"/>
		<stop offset="1" stop-color="#dbedfb"/>
	</linearGradient>
	<path fill="url(#e)" d="M40.2 58.1h.4c-.2 2.1-.3 4.4 0 6.5h-.4c-.3-2.7-.2-3.7 0-6.5z"/>
	<linearGradient id="f" x1="36.1109" x2="36.1109" y1="-1581.8872" y2="-932.1044" gradientTransform="matrix(1 0 0 -1 -9.5e-7 -875.4407)" gradientUnits="userSpaceOnUse">
		<stop offset="0" stop-color="#1492e7"/>
		<stop offset="1" stop-color="#dbedfb"/>
	</linearGradient>
	<path fill="url(#f)" d="M36.1 58.1h.4c-.5 2.1-.6 4.4 0 6.5h-.4c-.5-2.1-.6-4.5 0-6.5z"/>
	<linearGradient id="g" x1="31.7231" x2="31.7231" y1="-1581.8872" y2="-932.1044" gradientTransform="matrix(1 0 0 -1 -9.5e-7 -875.4407)" gradientUnits="userSpaceOnUse">
		<stop offset="0" stop-color="#1492e7"/>
		<stop offset="1" stop-color="#dbedfb"/>
	</linearGradient>
	<path fill="url(#g)" d="M31.8 58.1h.4c-.7 2.1-.8 4.4 0 6.5h-.4s-.6-1.6-.6-3.1c0-1.7.6-3.4.6-3.4z"/>
	<linearGradient id="h" x1="27.3902" x2="27.3902" y1="-1581.8872" y2="-932.1044" gradientTransform="matrix(1 0 0 -1 -9.5e-7 -875.4407)" gradientUnits="userSpaceOnUse">
		<stop offset="0" stop-color="#1492e7"/>
		<stop offset="1" stop-color="#dbedfb"/>
	</linearGradient>
	<path fill="url(#h)" d="M27.5 58.1h.5c-1 1.6-1.3 4.4 0 6.5h-.4c-1.3-2.1-1-4.8-.1-6.5z"/>
	<linearGradient id="i" x1="22.9142" x2="22.9142" y1="-1581.8872" y2="-932.1044" gradientTransform="matrix(1 0 0 -1 -9.5e-7 -875.4407)" gradientUnits="userSpaceOnUse">
		<stop offset="0" stop-color="#1492e7"/>
		<stop offset="1" stop-color="#dbedfb"/>
	</linearGradient>
	<path fill="url(#i)" d="M23.3 58.1h.4c-1.6 1.4-1.9 4.8 0 6.5h-.4c-1.8-1.5-1.5-5.2 0-6.5z"/>
	<linearGradient id="j" x1="18.5892" x2="18.5892" y1="-1581.8872" y2="-932.1044" gradientTransform="matrix(1 0 0 -1 -9.5e-7 -875.4407)" gradientUnits="userSpaceOnUse">
		<stop offset="0" stop-color="#1492e7"/>
		<stop offset="1" stop-color="#dbedfb"/>
	</linearGradient>
	<path fill="url(#j)" d="M19.1 58.1h.4c-1.9 1.2-2.1 5.2 0 6.5h-.4c-2.1-1.1-1.9-5.5 0-6.5z"/>
	<path fill="#fff" d="m43 25 27.1 46.9c1.1 1.9.4 4.3-1.5 5.5-1.9 1.1-4.3.4-5.5-1.5L36 29c-1.1-1.9-.4-4.3 1.5-5.5 1.9-1.1 4.4-.4 5.5 1.5z"/>
	<linearGradient id="k" x1="53.0961" x2="53.0961" y1="-6249.1689" y2="-901.1638" gradientTransform="matrix(1 0 0 -1 -9.5e-7 -875.4407)" gradientUnits="userSpaceOnUse">
		<stop offset="0" stop-color="#1285e7"/>
		<stop offset="1" stop-color="#00b5ef"/>
	</linearGradient>
	<path fill="url(#k)" d="m42.3 25.3 27.2 47c.9 1.5.3 3.5-1.1 4.3-2 1-3.7.3-4.5-1L36.7 28.5c-.9-1.5-.3-3.5 1.1-4.3.9-.9 3.4-.7 4.5 1.1z"/>
	<linearGradient id="l" x1="2695.2964" x2="278.8762" y1="-5508.1064" y2="-1322.6691" gradientTransform="matrix(1 0 0 -1 -9.5e-7 -875.4407)" gradientUnits="userSpaceOnUse">
		<stop offset="0" stop-color="#2b90e7"/>
		<stop offset="1" stop-color="#00b6ef"/>
	</linearGradient>
	<path fill="url(#l)" d="m36.2 27.2 28.5 49.4.6.3-29-50.2-.1.5z"/>
	<linearGradient id="m" x1="2789.3284" x2="289.8581" y1="-5668.8389" y2="-1339.657" gradientTransform="matrix(1 0 0 -1 -9.5e-7 -875.4407)" gradientUnits="userSpaceOnUse">
		<stop offset="0" stop-color="#3795ea"/>
		<stop offset="1" stop-color="#49c4f2"/>
	</linearGradient>
	<path fill="url(#m)" d="m36.5 25.6 29.8 51.6h.3l-30-51.8-.1.2z"/>
	<linearGradient id="n" x1="2829.5437" x2="296.1668" y1="-5734.9307" y2="-1346.9999" gradientTransform="matrix(1 0 0 -1 -9.5e-7 -875.4407)" gradientUnits="userSpaceOnUse">
		<stop offset="0" stop-color="#3696ea"/>
		<stop offset="1" stop-color="#90d9f6"/>
	</linearGradient>
	<path fill="url(#n)" d="m37.7 24.3 30.4 52.5.3-.2L38 24.1l-.3.2z"/>
	<linearGradient id="o" x1="2789.2031" x2="288.6176" y1="-5661.5786" y2="-1330.4563" gradientTransform="matrix(1 0 0 -1 -9.5e-7 -875.4407)" gradientUnits="userSpaceOnUse">
		<stop offset="0" stop-color="#3097ea"/>
		<stop offset="1" stop-color="#b5e5f9"/>
	</linearGradient>
	<path fill="url(#o)" d="m39.9 23.8 29.7 51.5-.2.4-30-51.9h.5z"/>
	<linearGradient id="p" x1="2695.0999" x2="280.8226" y1="-5496.1909" y2="-1314.5378" gradientTransform="matrix(1 0 0 -1 -9.5e-7 -875.4407)" gradientUnits="userSpaceOnUse">
		<stop offset="0" stop-color="#3a98ea"/>
		<stop offset="1" stop-color="#bce7fa"/>
	</linearGradient>
	<path fill="url(#p)" d="M41.4 24.3 70 73.6v.5L41 24l.4.3z"/>
	<path fill="#3c98ea" d="m68.7 70.8-.2-.3c-.3 2.1-3.1 4.5-5.6 3.3l.2.3s1.4 1 3.5-.3 2.1-3 2.1-3zm-2.2-3.7-.2-.3c-.5 2-3.3 4-5.6 3.3l.2.3c2 .8 5.2-1 5.6-3.3z"/>
	<path fill="#4ca4ed" d="m64.4 63.5-.2-.3c-1 1.9-3.4 3.3-5.5 3.3l.2.3c2.1 0 4.5-1.4 5.5-3.3z"/>
	<path fill="#4da7ee" d="m62.3 59.9-.2-.3c-1.4 1.9-3.6 3-5.6 3.3l.2.3s1.7-.3 3-1c1.4-.9 2.6-2.3 2.6-2.3z"/>
	<linearGradient id="q" x1="-51.9356" x2="426.8123" y1="-981.6229" y2="-705.212" gradientTransform="matrix(1 0 0 -1 -9.5e-7 -875.4407)" gradientUnits="userSpaceOnUse">
		<stop offset="0" stop-color="#00a4ec"/>
		<stop offset="1" stop-color="#b9dff6"/>
	</linearGradient>
	<path fill="url(#q)" d="m53.7 45.1.2.3c-2.1 1-3.9 1.9-5.6 3.3l-.2-.3c1.9-1.5 3-2.1 5.6-3.3z"/>
	<linearGradient id="r" x1="-60.6286" x2="420.7698" y1="-981.8683" y2="-703.8837" gradientTransform="matrix(1 0 0 -1 -9.5e-7 -875.4407)" gradientUnits="userSpaceOnUse">
		<stop offset="0" stop-color="#00a4ec"/>
		<stop offset="1" stop-color="#b9dff6"/>
	</linearGradient>
	<path fill="url(#r)" d="m51.6 41.5.2.3c-2.1.6-4.3 2.1-5.5 3.4l-.2-.3c1.3-1.4 3.7-2.9 5.5-3.4z"/>
	<path fill="#9dd4f7" d="M47.7 38.6c1.1-.3 2-.5 2-.5l-.2-.3c-2.3.3-2.3 1-1.8.8z"/>
	<linearGradient id="s" x1="-78.7421" x2="400.4197" y1="-977.0852" y2="-700.4905" gradientTransform="matrix(1 0 0 -1 -9.5e-7 -875.4407)" gradientUnits="userSpaceOnUse">
		<stop offset="0" stop-color="#00b4ef"/>
		<stop offset="1" stop-color="#c3e9fa"/>
	</linearGradient>
	<path fill="url(#s)" d="m45.3 30.5.2.3c-2.2-.5-5.2.9-5.6 3.3l-.2-.3s.2-1.5 2-2.6c1.9-1.2 3.6-.7 3.6-.7z"/>
	<linearGradient id="t" x1="-84.1538" x2="398.2785" y1="-975.2018" y2="-696.6635" gradientTransform="matrix(1 0 0 -1 -9.5e-7 -875.4407)" gradientUnits="userSpaceOnUse">
		<stop offset="0" stop-color="#00b4ef"/>
		<stop offset="1" stop-color="#c3e9fa"/>
	</linearGradient>
	<path fill="url(#t)" d="m43.2 26.8.3.3c-2.3-.9-5.6.9-5.6 3.3l-.3-.3c-.3-2 3.4-4.4 5.6-3.3z"/>
	<path fill="#fff" d="M37.4 57.3c7.6-13 16.3-28.2 16.3-28.2 1.1-1.9.4-4.3-1.5-5.5-1.9-1.1-4.3-.4-5.5 1.5 0 0-10.6 18.4-18.6 32.2h9.3zm-4.7 7.9C29 71.5 26.5 76 26.5 76c-1.1 1.9-3.6 2.6-5.5 1.5s-2.6-3.6-1.5-5.5c0 0 1.5-2.7 3.8-6.7 3-.1 8.4-.1 9.4-.1z"/>
	<linearGradient id="u" x1="36.556" x2="36.556" y1="-6248.9014" y2="-897.4756" gradientTransform="matrix(1 0 0 -1 -9.5e-7 -875.4407)" gradientUnits="userSpaceOnUse">
		<stop offset="0" stop-color="#1285e7"/>
		<stop offset="1" stop-color="#00b5ef"/>
	</linearGradient>
	<path fill="url(#u)" d="M36.4 57.3c7.7-13.2 16.5-28.6 16.5-28.6.9-1.5.3-3.5-1.1-4.3-.9-.9-3.4-.7-4.4 1 0 0-10.4 18.1-18.4 31.9h7.4zm-4.6 7.9c-3.5 6.1-6 10.4-6 10.4-.9 1.5-2.8 2-4.3 1.1h-.2c-1.5-.9-2-2.8-1.1-4.3 0 0 1.7-2.9 4.2-7.2h7.4z"/>
	<linearGradient id="v" x1="-1886.2007" x2="532.4922" y1="-4261.8091" y2="-72.5923" gradientTransform="matrix(1 0 0 -1 -9.5e-7 -875.4407)" gradientUnits="userSpaceOnUse">
		<stop offset="0" stop-color="#3194e9"/>
		<stop offset="1" stop-color="#71cff4"/>
	</linearGradient>
	<path fill="url(#v)" d="m36.1 57.3 17.3-29.9v-.5s-9.6 16.6-17.6 30.4h.3zm-4.7 7.9-6.6 11.5-.3.2-.3.1s3-5.1 6.8-11.7l.4-.1z"/>
	<linearGradient id="w" x1="-1955.7191" x2="544.0573" y1="-4380.187" y2="-50.4021" gradientTransform="matrix(1 0 0 -1 -9.5e-7 -875.4407)" gradientUnits="userSpaceOnUse">
		<stop offset="0" stop-color="#5aa6ec"/>
		<stop offset="1" stop-color="#a2def8"/>
	</linearGradient>
	<path fill="url(#w)" d="m34.8 57.3 18.3-31.6-.1-.1-.1-.2s-10 17.3-18.3 31.8l.2.1zm-4.6 7.9-7 12h-.3s3-5.1 7-12.1c.2.1.3.1.3.1z"/>
	<linearGradient id="x" x1="-1979.7094" x2="552.222" y1="-4418.2896" y2="-32.8764" gradientTransform="matrix(1 0 0 -1 -9.5e-7 -875.4407)" gradientUnits="userSpaceOnUse">
		<stop offset="0" stop-color="#66abee"/>
		<stop offset="1" stop-color="#bee8fa"/>
	</linearGradient>
	<path fill="url(#x)" d="M32.9 57.3c8.6-14.9 19-32.9 19-32.9l-.3-.2-19.1 33 .4.1c0-.1 0 0 0 0zm-4.7 8C24.4 72 21.5 77 21.5 77l-.3-.2s2.8-4.9 6.6-11.5c.3-.1.2-.1.4 0z"/>
	<linearGradient id="y" x1="-1951.9347" x2="549.5016" y1="-4366.7319" y2="-34.1371" gradientTransform="matrix(1 0 0 -1 -9.5e-7 -875.4407)" gradientUnits="userSpaceOnUse">
		<stop offset="0" stop-color="#7bb6f0"/>
		<stop offset="1" stop-color="#b1e3f9"/>
	</linearGradient>
	<path fill="url(#y)" d="M30.8 57.3c8.6-14.9 19.3-33.5 19.3-33.5h-.3S39.1 42.3 30.5 57.3h.3zm-5 7.9c-3.5 6-5.8 10.1-5.8 10.1l.2.4s2.5-4.3 6.1-10.4l-.5-.1z"/>
	<linearGradient id="z" x1="-1887.4464" x2="526.6171" y1="-4252.7339" y2="-71.4121" gradientTransform="matrix(1 0 0 -1 -9.5e-7 -875.4407)" gradientUnits="userSpaceOnUse">
		<stop offset="0" stop-color="#5aa6ec"/>
		<stop offset="1" stop-color="#afe3f9"/>
	</linearGradient>
	<path fill="url(#z)" d="m29.5 57.3 19.1-33.1-.4.2-19.1 33 .4-.1c0 .1 0 0 0 0zm-4.6 7.9c-3 5.3-5.2 9-5.2 9v-.7s1.9-3.3 4.9-8.4c.2.1.2.1.3.1z"/>
	<linearGradient id="aa" x1="127.2509" x2="610.9041" y1="-948.1329" y2="-1227.3757" gradientTransform="matrix(1 0 0 -1 -9.5e-7 -875.4407)" gradientUnits="userSpaceOnUse">
		<stop offset="0" stop-color="#c1e7fa"/>
		<stop offset="1" stop-color="#89d4f5"/>
	</linearGradient>
	<path fill="url(#aa)" d="m46.5 26.8-.2.3c2-1 5.6.5 5.7 3.2l.2-.3c.3-2.3-3.7-4.4-5.7-3.2z"/>
	<linearGradient id="ab" x1="118.0124" x2="594.7974" y1="-947.8314" y2="-1223.0363" gradientTransform="matrix(1 0 0 -1 -9.5e-7 -875.4407)" gradientUnits="userSpaceOnUse">
		<stop offset="0" stop-color="#c1e7fa"/>
		<stop offset="1" stop-color="#89d4f5"/>
	</linearGradient>
	<path fill="url(#ab)" d="m44.4 30.5-.2.3c2.1-.6 5.1.7 5.7 3.1l.2-.3S49.9 32 48 31c-2-1.1-3.6-.5-3.6-.5z"/>
	<linearGradient id="ac" x1="111.9559" x2="586.3589" y1="-949.6818" y2="-1223.5532" gradientTransform="matrix(1 0 0 -1 -9.5e-7 -875.4407)" gradientUnits="userSpaceOnUse">
		<stop offset="0" stop-color="#c1e7fa"/>
		<stop offset="1" stop-color="#89d4f5"/>
	</linearGradient>
	<path fill="url(#ac)" d="m42.2 34.2-.2.3c1.9-.1 4.7 1.4 5.6 3.3l.2-.3c-1.1-1.9-3.5-3.3-5.6-3.3z"/>
	<linearGradient id="ad" x1="103.2624" x2="577.6301" y1="-949.6608" y2="-1223.5852" gradientTransform="matrix(1 0 0 -1 -9.5e-7 -875.4407)" gradientUnits="userSpaceOnUse">
		<stop offset="0" stop-color="#b0dff8"/>
		<stop offset="1" stop-color="#52bdf2"/>
	</linearGradient>
	<path fill="url(#ad)" d="m40.1 37.9-.1.4c2.2.4 4.2 1.4 5.6 3.2l.2-.3s-1-1.3-2.4-2.1c-1.5-.9-3.3-1.2-3.3-1.2z"/>
	<linearGradient id="ae" x1="102.4315" x2="576.9864" y1="-954.1552" y2="-1228.1019" gradientTransform="matrix(1 0 0 -1 -9.5e-7 -875.4407)" gradientUnits="userSpaceOnUse">
		<stop offset="0" stop-color="#b4def8"/>
		<stop offset="1" stop-color="#4eb5f0"/>
	</linearGradient>
	<path fill="url(#ae)" d="m38 41.6-.2.3c2 .5 4.2 1.8 5.6 3.2l.2-.3c-1.5-1.5-3.4-2.6-5.6-3.2z"/>
	<linearGradient id="af" x1="101.6237" x2="576.0262" y1="-958.786" y2="-1232.6575" gradientTransform="matrix(1 0 0 -1 -9.5e-7 -875.4407)" gradientUnits="userSpaceOnUse">
		<stop offset="0" stop-color="#b4def8"/>
		<stop offset="1" stop-color="#4eb5f0"/>
	</linearGradient>
	<path fill="url(#af)" d="m35.9 45.2-.3.4c1.7.6 4.2 2.1 5.6 3.2l.2-.3c-2-1.6-5.5-3.2-5.5-3.3z"/>
	<linearGradient id="ag" x1="93.4094" x2="567.718" y1="-959.0308" y2="-1232.8905" gradientTransform="matrix(1 0 0 -1 -9.5e-7 -875.4407)" gradientUnits="userSpaceOnUse">
		<stop offset="0" stop-color="#b5ddf8"/>
		<stop offset="1" stop-color="#46aeee"/>
	</linearGradient>
	<path fill="url(#ag)" d="m33.5 49.3.2-.3 5.7 3.2-.2.3-5.7-3.2z"/>
	<linearGradient id="ah" x1="85.0039" x2="557.0303" y1="-959.2695" y2="-1231.8005" gradientTransform="matrix(1 0 0 -1 -9.5e-7 -875.4407)" gradientUnits="userSpaceOnUse">
		<stop offset="0" stop-color="#96cef4"/>
		<stop offset="1" stop-color="#46aaee"/>
	</linearGradient>
	<path fill="url(#ah)" d="m31.4 53.1.2-.3c1.7 1.2 4.1 2.5 5.7 3.2l-.2.3c-2.6-1-5.8-3.2-5.7-3.2z"/>
	<path fill="#73b9f1" d="M30.1 57.3c-.4-.3-.7-.6-.7-.6l.2-.3s.5.4 1.2 1l-.7-.1c0 .1 0 0 0 0z"/>
	<linearGradient id="ai" x1="66.6997" x2="407.1695" y1="-963.6332" y2="-1160.2169" gradientTransform="matrix(1 0 0 -1 -9.5e-7 -875.4407)" gradientUnits="userSpaceOnUse">
		<stop offset="0" stop-color="#8fc1f2"/>
		<stop offset="1" stop-color="#3193ea"/>
	</linearGradient>
	<path fill="url(#ai)" d="M26.7 65.2c1 1 2.8 1.7 4.2 1.6l-.2.3c-2.3.1-4-1.4-4.6-1.9h.6z"/>
	<linearGradient id="aj" x1="65.4523" x2="545.2551" y1="-968.2217" y2="-1245.2415" gradientTransform="matrix(1 0 0 -1 -9.5e-7 -875.4407)" gradientUnits="userSpaceOnUse">
		<stop offset="0" stop-color="#8fc1f2"/>
		<stop offset="1" stop-color="#3193ea"/>
	</linearGradient>
	<path fill="url(#aj)" d="m22.9 67.7.2-.3c.5 2 3.3 4.1 5.6 3.2l-.2.3c-2 .9-5.1-1.1-5.6-3.2z"/>
	<linearGradient id="ak" x1="63.4641" x2="548.9128" y1="-972.1674" y2="-1252.4897" gradientTransform="matrix(1 0 0 -1 -9.5e-7 -875.4407)" gradientUnits="userSpaceOnUse">
		<stop offset="0" stop-color="#8fc1f2"/>
		<stop offset="1" stop-color="#3193ea"/>
	</linearGradient>
	<path fill="url(#ak)" d="m20.8 71.4.2-.3c.2 2.2 3.5 4.3 5.7 3.3-2 2-5.9-.9-5.9-3z"/>
	<radialGradient id="al" cx="-6782.2222" cy="3225.1467" r=".9768" gradientTransform="matrix(-646.5387 1786.4326 1024.3569 370.7312 -7690246 10922545)" gradientUnits="userSpaceOnUse">
		<stop offset="0"/>
		<stop offset="1" stop-opacity="0"/>
	</radialGradient>
	<path fill="url(#al)" d="m70.9 7.3 17.4 8.3v25c-6-2.9-46.1-22-46.1-22s2.8-5.8 5.4-11.2l23.3-.1z"/>
	<radialGradient id="am" cx="-6772.751" cy="3218.8491" r=".977" gradientTransform="matrix(630.7592 441.3523 367.5018 -525.2158 3089307 4680531.5)" gradientUnits="userSpaceOnUse">
		<stop offset=".417" stop-color="#0c0c12"/>
		<stop offset="1" stop-color="#3d4651"/>
	</radialGradient>
	<path fill="url(#am)" d="M27.8 91c-2.7 4.5 4.7 9 8.7 9 2.3 0 3.1-1 4-2.7.9-1.7-11.7-8.3-12.7-6.3z"/>
	<linearGradient id="an" x1="1241.5188" x2="1767.1876" y1="-1505.4164" y2="-1773.2592" gradientTransform="matrix(1 0 0 -1 -9.5e-7 -875.4407)" gradientUnits="userSpaceOnUse">
		<stop offset="0" stop-color="#344351"/>
		<stop offset=".1" stop-color="#9697a0"/>
		<stop offset=".181" stop-color="#8b8c95"/>
		<stop offset=".351" stop-color="#787a83"/>
		<stop offset=".47" stop-color="#71747d"/>
		<stop offset=".591" stop-color="#777982"/>
		<stop offset=".749" stop-color="#87898f"/>
		<stop offset=".8" stop-color="#8e8f94"/>
		<stop offset=".849" stop-color="#3d3b42"/>
		<stop offset=".9" stop-color="#606e84"/>
	</linearGradient>
	<path fill="url(#an)" d="M67.9 17.1s9 2.2 9.7 2.8c.7.6-1.1 4.1-1.5 4.6-2.9 3.5-11.8 22.7-11.8 22.7L56 42.5c9.9-18.3 11.5-20.4 11.9-25.4z"/>
	<linearGradient id="ao" x1="1087.501" x2="202.0323" y1="-2241.916" y2="-1045.3516" gradientTransform="matrix(1 0 0 -1 -9.5e-7 -875.4407)" gradientUnits="userSpaceOnUse">
		<stop offset=".27" stop-color="#262b33"/>
		<stop offset=".45" stop-color="#74747e"/>
		<stop offset=".54" stop-color="#b0b0bc"/>
		<stop offset=".73" stop-color="#74747e"/>
	</linearGradient>
	<path fill="url(#ao)" d="M93.8 13.2c1.1-.2-.6 1.5-2.5 5.3s-1.8 4.1-2.1 3.8c-.3-.3-8.9-5.1-8.6-5.6.3-.4 1.7-9.9 2.4-9.7 4.1 1.3 3 7.7 10.8 6.2z"/>
	<linearGradient id="ap" x1="-4.5276" x2="1392.7953" y1="-907.4168" y2="-726.9223" gradientTransform="matrix(1 0 0 -1 -9.5e-7 -875.4407)" gradientUnits="userSpaceOnUse">
		<stop offset=".14" stop-color="#606e84"/>
		<stop offset=".4" stop-color="#9899a5"/>
		<stop offset=".73" stop-color="#475768"/>
		<stop offset=".92" stop-color="#262b33"/>
	</linearGradient>
	<path fill="url(#ap)" d="M75.2 23.3c.6-1 3.4-6.9 7.8-6.9 2 0 5.8 5 6.2 5.7.3.6-.6 3-1 1.9-.5-1.3-2.7-4.1-5-4.1s-5.6 2.7-6.3 3.7c-.9.9-2.3.7-1.7-.3z"/>
	<linearGradient id="aq" x1="218.4647" x2="139.5456" y1="-1675.7645" y2="-1228.2413" gradientTransform="matrix(1 0 0 -1 -9.5e-7 -875.4407)" gradientUnits="userSpaceOnUse">
		<stop offset="0" stop-color="#101215" stop-opacity=".1"/>
		<stop offset=".46" stop-color="#101215" stop-opacity=".7"/>
		<stop offset=".7" stop-color="#474951"/>
		<stop offset=".91" stop-color="#7b7d88"/>
	</linearGradient>
	<path fill="url(#aq)" d="M75 23c1.6-2.9 5.7-8 8.9-8.5 3-.4 6 8.1 1.2 3.8-1-.8-1.7-2.3-5 .2-1.1.9-2.3 1.6-4.9 5.3-.8.9-.6-.1-.2-.8z"/>
	<linearGradient id="ar" x1="2253.0139" x2="2964.2273" y1="-2030.9154" y2="-2380.876" gradientTransform="matrix(1 0 0 -1 -9.5e-7 -875.4407)" gradientUnits="userSpaceOnUse">
		<stop offset=".115" stop-color="#2c3952"/>
		<stop offset=".374" stop-color="#3d414e"/>
		<stop offset=".55" stop-color="#474a54"/>
		<stop offset=".754" stop-color="#4e5057"/>
		<stop offset=".892" stop-color="#323945"/>
		<stop offset="1" stop-color="#143052"/>
	</linearGradient>
	<path fill="url(#ar)" d="M64.2 48.4c.3-.7.8-1.7-.2-2.5s-5.9-3.4-6.8-3.6c-.9-.2-1.6 0-1.9.6-.3.6-27 46.2-27.6 47.6-.5 1.3-.6 2.3.2 2.5.8.3 9.7 4.5 10.6 5.5s1.3-.1 1.7-.6c1.7-2.2 23.6-48.8 24-49.5z"/>
	<linearGradient id="as" x1="-444.9636" x2="188.5823" y1="-2006.4016" y2="-616.3149" gradientTransform="matrix(1 0 0 -1 -9.5e-7 -875.4407)" gradientUnits="userSpaceOnUse">
		<stop offset=".118" stop-color="#6d7078" stop-opacity="0"/>
		<stop offset=".2" stop-color="#6d7078" stop-opacity=".7"/>
		<stop offset=".34" stop-color="#35363a"/>
		<stop offset=".374" stop-color="#1d1f22"/>
		<stop offset=".4" stop-color="#101215"/>
		<stop offset=".5" stop-color="#16171a"/>
		<stop offset=".56" stop-color="#292a2e"/>
		<stop offset=".688" stop-color="#4b4d51"/>
		<stop offset=".807" stop-color="#63666b"/>
		<stop offset=".915" stop-color="#72757b"/>
		<stop offset="1" stop-color="#777a80"/>
	</linearGradient>
	<path fill="url(#as)" d="M75.6 22.8c.4-.6 1.5-2.3 2.8-3.9.9-1 5.6-3.3 6.6-7 .6-2-.3-4-1.7-4.9-15.1-9.3-29.7-7.8-34-4.4h3.8l13.3 5.2c1.5 6.3 2.4 7.7 1.1 12-.5 2.2-.7 3.5-1.5 5.7.6.3 2-.7 3.6-.3 1.4.3 2.3 2.3 3.2 1.1 1.6-2.1 2.1-2.5 2.8-3.5z"/>
	<linearGradient id="at" x1="46.0604" x2="1953.3733" y1="-885.4094" y2="-885.4094" gradientTransform="matrix(1 0 0 -1 -9.5e-7 -875.4407)" gradientUnits="userSpaceOnUse">
		<stop offset="0" stop-color="#4a4d56"/>
		<stop offset="1" stop-color="#29292d"/>
	</linearGradient>
	<path fill="url(#at)" d="M67.8 17.4C67.1 11 65.5 4.9 49.2 5c1-1 3.6-2.1 3.6-2.1l-3.6-.3s.5-.4 1.6-.5c9.6-.8 18.1 1.2 17.5 13.7-.2 2-.3 2.8-.5 1.6z"/>
	<linearGradient id="au" x1="46.0604" x2="1695.2689" y1="-881.0111" y2="-881.0111" gradientTransform="matrix(1 0 0 -1 -9.5e-7 -875.4407)" gradientUnits="userSpaceOnUse">
		<stop offset="0" stop-color="#767880"/>
		<stop offset=".41" stop-color="#0c0a0b"/>
	</linearGradient>
	<path fill="url(#au)" d="M49.2 5c3.9-1.4 12.7-.1 15.8 2.8 1 .9.9.2-.2-1C62.1 3.7 58 3 52.7 2.9c-.6-.1-2.6 1-3.5 2.1z"/>
	<linearGradient id="av" x1="-353.9238" x2="219.1785" y1="-1670.2882" y2="-677.644" gradientTransform="matrix(1 0 0 -1 -9.5e-7 -875.4407)" gradientUnits="userSpaceOnUse">
		<stop offset="0" stop-color="#858997"/>
		<stop offset=".23" stop-color="#244668"/>
		<stop offset=".282" stop-color="#1a3249"/>
		<stop offset=".4" stop-color="#040506"/>
		<stop offset=".464" stop-color="#313236"/>
		<stop offset=".546" stop-color="#65656e"/>
		<stop offset=".607" stop-color="#868691"/>
		<stop offset=".64" stop-color="#92929e"/>
	</linearGradient>
	<path fill="url(#av)" d="m94 13.2 4.8 2.4c-2.6 3.5-4.7 7.6-5.9 11.4l-4.6-2.8c2.4-6.9 5.8-11 5.7-11z"/>
	<path fill="#bfc0d0" d="M96.3 21.7c-4.5 8.2-4.7 6.3-1.1-.6 3.6-7.3 5.2-7.4 1.1.6z"/>
</svg>