<svg xmlns="http://www.w3.org/2000/svg" viewBox="0 0 100 100">
	<path fill="#110E0C" d="M90.832 42.71c-3.99 0-7.216 2.051-8.914 3.406l.49-2.607h-9.886l-3.483 16.13h10.335l1.766-9.386c.863-1.098 2.296-2.511 3.964-2.511 2.724 0 2.134 2.174 1.91 3.89l-1.398 7.757 10.076.02s1.177-6.182 1.319-6.862c1.413-6.77-.225-9.838-6.18-9.838Zm-33.7 3.659c3.594 0 2.471 3.318 2.471 3.318h-6.179s.113-3.318 3.708-3.318Zm11.683 6.52s3.932-10.222-10.56-10.222c-14.491 0-15.615 10.223-15.615 10.223s-1.797 7.435 12.245 7.435 13.48-5.49 13.48-5.49H58.032s-.787 2.172-2.922 2.172c-2.134 0-3.482-.8-2.92-4.117h16.626Z"/>
	<path fill="#110E0C" d="M54.484 36.76H38.082l-9.29 7.117-5.426-7.117H10.223l10.272 13.472L0 65.93h16.401l10.141-7.768 5.923 7.768h13.143L34.84 51.807 54.483 36.76ZM26.745 68.58c-3.421 0-6.621-.946-9.355-2.588l-.593.455-.175.134H8.537c4.465 5.013 10.966 8.174 18.208 8.174 7.242 0 13.743-3.16 18.208-8.174h-9.918a18.114 18.114 0 0 1-8.29 1.999Z"/>
	<path fill="#110E0C" d="M8.543 50.378c0-3.882 1.22-7.478 3.29-10.433l-2.127-2.79-.796-1.044h6.54a18.12 18.12 0 0 1 11.295-3.935A18.12 18.12 0 0 1 38.04 36.11h8.466C42.078 29.989 34.879 26 26.746 26c-13.465 0-24.38 10.914-24.38 24.378 0 3.934.937 7.646 2.592 10.935l5.018-3.843a18.142 18.142 0 0 1-1.434-7.092Zm39.77-6.188a14.57 14.57 0 0 1 1.776-.822c-.195-.65-.414-1.29-.66-1.917l-5.174 3.963c.154.544.283 1.1.387 1.664.955-1.083 2.2-2.085 3.671-2.889Zm-4.835 13.34c-.4.934-.872 1.83-1.417 2.676l3.919 5.14a24.386 24.386 0 0 0 2.97-4.93c-2.31-.524-4.246-1.575-5.472-2.887Z"/>
	<path fill="#000" d="M97.783 41.045v-1.503h.735c.095 0 .182.02.26.06.08.039.144.096.19.17a.483.483 0 0 1 .071.27.483.483 0 0 1-.073.27.478.478 0 0 1-.196.17.633.633 0 0 1-.27.058h-.503v-.283h.421a.211.211 0 0 0 .147-.055c.042-.037.063-.091.063-.163 0-.075-.021-.128-.063-.159a.224.224 0 0 0-.145-.049h-.246v1.214h-.391Zm.959-.694.342.694h-.428l-.32-.694h.406Zm-.37 1.59c-.226 0-.437-.042-.634-.127a1.636 1.636 0 0 1-.996-1.502c0-.225.042-.436.127-.633a1.637 1.637 0 0 1 1.502-.996c.226 0 .437.042.633.126a1.638 1.638 0 0 1 .87.87c.084.197.126.408.126.633 0 .225-.042.436-.126.633a1.638 1.638 0 0 1-.87.87 1.593 1.593 0 0 1-.633.126Zm0-.43c.222 0 .423-.053.604-.16a1.23 1.23 0 0 0 .434-.434c.107-.182.16-.384.16-.605 0-.221-.054-.422-.162-.603a1.208 1.208 0 0 0-1.037-.596 1.207 1.207 0 0 0-1.036.597c-.107.18-.16.38-.16.602 0 .221.053.423.16.605.107.18.252.325.434.433.181.108.382.161.602.161Z"/>
</svg>