<svg xmlns="http://www.w3.org/2000/svg" viewBox="0 0 100 100">
	<path fill="#AF0084" d="M92.781 38.306c.205-1.772.343-3.982 1.042-5.502.525 1.576.701 3.616 1.782 4.803 1.4-.33 2.954-.25 4.395.06-.863 1.138-2.743 1.91-3.866 2.641 1.351 1.138 2.01 2.463 2.751 4.04-1.961-.038-3.752-1.74-5.266-2.658-1.302 1.471-2.222 2.901-4.134 3.43.69-1.471 2.303-2.74 2.507-4.267-1.53-.57-3.427-1.788-4.42-3.023 1.58.094 3.63.295 5.209.48"/>
	<path fill="#98C000" d="M94.409 49.521c.15-1.284.25-2.893.755-3.998.382 1.145.51 2.625 1.294 3.486 1.01-.239 2.149-.182 3.19.043-.627.821-1.986 1.39-2.8 1.918.985.821 1.466 1.788 1.995 2.934-1.425-.028-2.727-1.268-3.826-1.926-.944 1.065-1.611 2.105-3.003 2.487.5-1.065 1.677-1.991 1.815-3.097-1.107-.413-2.482-1.3-3.206-2.194 1.139.07 2.636.217 3.776.35"/>
	<path fill="#F08400" d="M89.526 58.38c.102-.894.172-2 .521-2.763.263.791.353 1.812.895 2.405.7-.165 1.482-.125 2.206.031-.434.568-1.375.96-1.937 1.325.679.57 1.01 1.235 1.376 2.024-.985-.017-1.88-.87-2.645-1.333-.656.737-1.115 1.455-2.076 1.723.346-.737 1.156-1.374 1.254-2.138-.766-.286-1.718-.894-2.214-1.52.79.05 1.823.15 2.612.243"/>
	<path fill="#005FAD" d="M16.522 57.811c-.813 0-10.01 8.94-10.906 9.997-.747.828-1.155 2.356-2.441 2.527-1.368.184-1.677-.347-2.336-1.373-.623-.976-1.376-2.707-.287-3.414 1.05-.674 14.08-12.597 14.486-13.085.507-.513-.05-1.788-.292-3.714-.31-2.47-.469-4.738-.278-7.184.194-2.512.797-5.608 1.448-8.046.402-1.487.17-4.43 2.247-4.519.424.1 3.622 2.308 2.759 5.218-1.245 4.169-2.442 8.858-2.076 13.328.071.862.419 1.61.969 1.211 5.9-4.21 15.138-8.777 17.498-9.59 1.14-.362 2.303-.645 3.483-.793.847.1 1.49.894 2.157 1.455 3.345 2.86-3.15 13.003-3.703 16.092.52 0 1.082-.787 2.075-1.683 1.058-.959 2.702-2.47 3.915-3.64 1.856-1.39 3.475-2.666 5.827-2.967 5.657-.717 3.964 7.412 2.686 10.321.73 0 2.515-2.048 3.94-3.397.718-.68 1.513-1.398 2.237-2.064.863-.792 1.262-1.203 1.913-.886.436.125 2.328 1.268 2.433 3.015.089 1.414-.492 2.804-.777 4.161-.237 1.138-.178 4.836 1.36 4.844.606-.437 1.399-.625 2.123-.745 1.164-.197 1.107.18 2.068.538 1.505.558.147 2.69-.645 3.479-1.066 1.056-2.588 1.755-4.11 1.73-1.677-.028-2.995-1.056-3.752-2.503-.413-.794-.944-3.722-1.148-4.591-.205-.854-.026-1.878-.935-1.008-2.564 2.462-5.21 4.754-7.813 7.184-2.873 2.674-5.616-1-5.095-3.998.513-2.934 3.052-6.518 3.508-9.428-1.213 0-3.256 2.113-4.03 2.983-1.252 1.414-2.644 2.982-4.06 4.47-1.425 1.495-2.645 2.869-4.078 4.356-1.033 1.073-2.214 2.6-3.955 2.698-.855-.135-2.222-1.56-2.458-3.373-.192-1.511.191-3.177.771-4.567 1.677-4.023 6.275-12.516 7.35-16.742-2.206.212-11.557 4.527-17.742 9.671-1.791 1.471-.138 4.17.61 5.965.802 1.919 3.167 5.389 3.875 5.982 1.855 1.536.373 2.893-1.465 2.796-.78-.552-1.726-1.146-2.458-1.878-.796-.793-1.481-1.698-2.108-2.625-1.27-1.877-2.482-4.047-2.808-6.323m66.511-23.958c-.526-1.942-2.963 1.024-4.184 2.593-3.377 4.34-6.454 13.166-6.95 14.791-1.514 4.99-2.1 11.135 1.172 15.523 1.904 2.56 5.257 2.755 8.546 1.813 1.692-.487 3.393-1.699 3.971-3.024.479-1.097.727-3.145-1.693-1.584-.936.604-2.653 1.267-5.73 1.219-1.033-.017-2.726-1.496-3.181-3.024-.801-2.487-.46-5.81-.46-5.81.7-4.292 2.694-8.94 4.443-12.842.68-1.503 2.751-5.258 3.524-6.453 0 0 .993-1.56.549-3.218l-.007.016Z"/>
</svg>