<svg xmlns="http://www.w3.org/2000/svg" viewBox="0 0 100 100">
	<linearGradient id="a" x1="68.0183" x2="-14.4817" y1="26.3186" y2="141.3186" gradientTransform="matrix(1 0 0 -1 0 101.433)" gradientUnits="userSpaceOnUse">
		<stop offset="0" stop-color="#4643b9"/>
		<stop offset="1" stop-color="#1e8aff"/>
	</linearGradient>
	<path fill="url(#a)" d="M100 50c0 27.6-22.4 50-50 50S0 77.6 0 50C0 22.6 22.1.3 49.4 0h1.2C77.9.3 100 22.6 100 50z"/>
	<linearGradient id="b" x1="34.0613" x2="-56.8924" y1="22.0103" y2="37.8526" gradientTransform="matrix(1 0 0 -1 0 101.433)" gradientUnits="userSpaceOnUse">
		<stop offset="0" stop-color="#ff002e"/>
		<stop offset="1" stop-color="#ffada1"/>
	</linearGradient>
	<path fill="url(#b)" d="M30.8 96.2V61.5H1.3C5 77.2 16.1 90.1 30.8 96.2z"/>
	<linearGradient id="c" x1="31.2207" x2="54.1177" y1="-121.6165" y2="65.6409" gradientTransform="matrix(1 0 0 -1 0 101.433)" gradientUnits="userSpaceOnUse">
		<stop offset="0" stop-color="#3c3ba0"/>
		<stop offset=".49" stop-color="#1e8aff"/>
		<stop offset="1" stop-color="#00b2ff"/>
	</linearGradient>
	<path fill="url(#c)" d="M69.2 96.2c-5.7 2.4-12 3.7-18.6 3.8h-1.2c-6.6-.1-12.9-1.4-18.6-3.8v-47c0-6.5 0-9.7 1.3-12.2.2-.5.5-.9.8-1.4 1.1-1.6 2.5-2.8 4.2-3.7.8-.4 1.8-.7 2.9-.9 2.2-.4 5-.4 9.3-.4h20v65.6z"/>
	<linearGradient id="d" x1="50.9728" x2="138.0571" y1="60.9634" y2="15.9635" gradientTransform="matrix(1 0 0 -1 0 101.433)" gradientUnits="userSpaceOnUse">
		<stop offset="0" stop-color="#ffea1a"/>
		<stop offset="1" stop-color="#ffb800"/>
	</linearGradient>
	<path fill="url(#d)" d="M69.2 96.2V3.8C87.3 11.4 100 29.2 100 50S87.3 88.6 69.2 96.2z"/>
</svg>