<svg xmlns="http://www.w3.org/2000/svg" viewBox="0 0 100 100">
	<path fill="#1a4a7f" d="M50 100c27.6 0 50-22.4 50-50S77.6 0 50 0 0 22.4 0 50s22.4 50 50 50z"/>
	<linearGradient id="a" x1="18.1569" x2="89.9215" y1="11.8557" y2="77.8393" gradientTransform="matrix(1 0 0 -1 0 101.433)" gradientUnits="userSpaceOnUse">
		<stop offset=".2" stop-color="#ffd60f"/>
		<stop offset="1" stop-color="#ffc306"/>
	</linearGradient>
	<path fill="url(#a)" d="M100 50c0-7.3-1.6-14.5-4.7-21.2-3.1-6.6-7.6-12.5-13.2-17.2l-53.6 13c-3.5.8-6.5 3-8.3 6.1-1.9 3-2.5 6.7-1.7 10.2.7 2.9 2.3 5.5 4.6 7.4 2.3 1.9 5.3 2.9 8.3 2.9 1.1 0 2.1-.1 3.1-.4l25.8-6.3-45 41.3c7.3 7.1 16.6 11.7 26.6 13.4L79.2 65l-8.5 25.4c-.5 1.4-.7 2.8-.7 4.3 0 .4 0 .8.1 1.2C79 92 86.6 85.6 91.9 77.4c5.3-8.1 8.1-17.7 8.1-27.4z"/>
</svg>