<svg xmlns="http://www.w3.org/2000/svg" viewBox="0 0 100 100">
	<path fill="#40B3D8" d="M69.175 63.567c-.675-8.907-3.548-14.681-4.947-17.954-1.398-3.271-3.548-6.334-3.55-6.33-.004.015-1.936 10.424-5.409 17.955-.58 1.258-1.35 2.829-2.126 4.093-2.398 4.234-5.877 8.284-7.95 12.389-2.057 4.068-2.438 8.097-2.247 12.678.193 4.606 1.257 9.124 2.279 13.602 3.851-.83 7.203-2.253 10.103-4.07 7.631-4.785 12.242-12.437 13.553-20.68 0 0 .063-.335.092-.744.59-6.371.395-8.382.202-10.939Z"/>
	<path fill="#83C933" d="M69.175 63.567c-.675-8.907-3.548-14.681-4.947-17.954-1.398-3.271-3.549-6.334-3.55-6.33v.003-.002l-.513-.764C48.91 22.723 27.328 14.835 9.093 22.146c-.878 11.073 4.256 30.125 22.985 35.44 7.571 2.329 13.634 1.725 21.065 3.745 0 0 7.553 2.633 11.947 6.58 1.976 1.775 3.955 4.112 3.856 6.89.626-6.613.425-8.636.229-11.234Z"/>
	<path fill="#F18A2A" d="M60.996 30.013c-2.66-7.785-1.533-13.002 3.335-20.262C66.653 6.287 70.662 2.27 74.176 0 88.352 8.883 93.594 25.43 88.38 40.797c-3.794 11.181-7.354 15.87-16.355 27.374 1.05-12.321-3.287-20.863-7.544-30.354-1.084-2.415-2.582-5.164-3.485-7.804Z"/>
	<path fill="#7FB93C" d="M68.946 74.801c.1-2.778-1.88-5.115-3.856-6.89-4.395-3.947-11.947-6.58-11.947-6.58.777-1.264 1.547-2.835 2.126-4.093 3.474-7.531 5.405-17.94 5.41-17.954 0-.005 2.15 3.058 3.55 6.33 1.398 3.272 4.27 9.045 4.946 17.953.196 2.598.397 4.621-.229 11.234Z"/>
</svg>