<svg xmlns="http://www.w3.org/2000/svg" viewBox="0 0 100 100">
	<linearGradient id="a" x1="81.5722" x2="22.1991" y1="34.1176" y2="22.9275" gradientTransform="matrix(1 0 0 -1 0 101.433)" gradientUnits="userSpaceOnUse">
		<stop offset="0" stop-color="#07c3f2"/>
		<stop offset="1" stop-color="#6b57ff"/>
	</linearGradient>
	<path fill="url(#a)" d="m25.6 99.6 64.6-11.1c2.4-.4 4.5-1.5 6.2-3.2 1.7-1.7 2.9-3.8 3.3-6.2.3-1.6.3-3.2-.1-4.7-.3-1.5-1-3-1.9-4.3-.9-1.3-2.1-2.4-3.4-3.2-1.4-.8-2.9-1.4-4.4-1.6l-64.9-9c-2.9-.4-5.9-.2-8.7.5-2.8.8-5.5 2.1-7.8 3.9-2.3 1.8-4.2 4-5.7 6.6C1.4 69.9.5 72.7.1 75.6c-.4 3.4 0 6.8 1.2 10s3.1 6.1 5.5 8.4c2.5 2.3 5.5 4.1 8.7 5 3.3 1 6.8 1.2 10.1.6z"/>
	<linearGradient id="b" x1="79.5388" x2="17.3138" y1="80.3223" y2="18.7817" gradientTransform="matrix(1 0 0 -1 0 101.433)" gradientUnits="userSpaceOnUse">
		<stop offset="0" stop-color="#07c3f2"/>
		<stop offset="1" stop-color="#6b57ff"/>
	</linearGradient>
	<path fill="url(#b)" d="M69 5 7.2 62c-2.3 2.1-4.2 4.8-5.4 7.7C.6 72.6 0 75.8.1 78.9c.1 3.2.9 6.3 2.4 9.1 1.4 2.8 3.5 5.3 6 7.3 4.3 3.4 9.8 5 15.3 4.6 5.5-.4 10.6-2.9 14.3-7l57-61.7c1.7-1.8 3-4 3.8-6.4.8-2.4 1.2-4.9 1-7.4-.2-2.5-.8-4.9-2-7.2C96.8 8 95.2 6 93.3 4.4 89.9 1.5 85.5 0 81 .1 76.5.2 72.2 1.9 69 5z"/>
	<linearGradient id="c" x1="87.4868" x2="20.9268" y1="19.7075" y2="80.9058" gradientTransform="matrix(1 0 0 -1 0 101.433)" gradientUnits="userSpaceOnUse">
		<stop offset=".15" stop-color="#07c3f2"/>
		<stop offset=".53" stop-color="#6b57ff"/>
		<stop offset="1" stop-color="#ff318c"/>
	</linearGradient>
	<path fill="url(#c)" d="M81.3 86.4 8.1 33.8C5.8 32.1 4 30 2.6 27.6 1.3 25.2.5 22.5.3 19.7c-.2-2.8.3-5.5 1.4-8.1C2.8 9 4.4 6.7 6.5 4.9 10 1.7 14.6 0 19.3.1c4.7.1 9.2 2 12.6 5.3l64.5 63c1.1 1.1 2 2.4 2.6 3.9.6 1.5.9 3 .9 4.6 0 1.6-.3 3.1-1 4.6-.6 1.4-1.5 2.8-2.7 3.8-2 1.9-4.6 3-7.3 3.2-2.7.3-5.4-.5-7.6-2.1z"/>
	<path d="M18.9 18.9h62.2v62.2H18.9V18.9z"/>
	<path fill="#fff" d="M26.6 69.4H50v3.9H26.6v-3.9zM33.4 40.8l-9-14.2h6L36 36l5.7-9.4h5.8l-9 14.1V50h-5.2v-9.2zM57.8 31.3h-7.1v-4.7h19.4v4.7H63V50h-5.2V31.3z"/>
</svg>