<svg xmlns="http://www.w3.org/2000/svg" viewBox="0 0 100 100">
	<linearGradient id="a" x1=".000604" x2="99.9994" y1="50" y2="50" gradientUnits="userSpaceOnUse">
		<stop offset="0" stop-color="#f9ae00"/>
		<stop offset="1" stop-color="#fc0"/>
	</linearGradient>
	<path fill="url(#a)" d="M99.6 44.1c-3.7.9-7.5-1.4-8.4-5.1-.9-3.6 1.3-7.3 4.8-8.3-1.6-3.8-3.7-7.4-6.1-10.7-2.8 2.7-7.1 2.6-9.8-.2-2.6-2.7-2.6-7 0-9.6-3.1-2.5-6.6-4.5-10.3-6.1-.8 3-3.6 5.1-6.7 5.1-3.8 0-6.9-3.1-6.9-6.9 0-.6.1-1.2.2-1.8C52.3 0 48.2 0 44.1.4c1 3.7-1.2 7.5-4.9 8.5S31.7 7.7 30.7 4v-.1c-3.8 1.6-7.4 3.6-10.6 6.1 2.8 2.7 2.8 7.1.2 9.8-2.7 2.8-7.1 2.8-9.8.2l-.2-.2C7.9 23 5.8 26.5 4.2 30.2c2.9.8 5.1 3.5 5.1 6.7 0 3.8-3.1 6.9-6.9 6.9-.6 0-1.2-.1-1.8-.3C.1 45.6 0 47.8 0 50c0 2 .1 3.9.3 5.8.6-.2 1.2-.2 1.8-.2 3.8 0 6.9 3.1 6.9 6.9 0 3.2-2.2 5.9-5.2 6.7 1.6 3.8 3.6 7.3 6.1 10.6 2.8-2.6 7.2-2.5 9.8.2 1.2 1.3 1.9 3 1.9 4.8 0 1.8-.7 3.5-2 4.8 3.3 2.5 6.8 4.6 10.6 6.2.9-2.9 3.6-4.8 6.6-4.8 3.8 0 6.9 3.1 6.9 6.9 0 .5-.1 1-.2 1.5 2.1.3 4.2.4 6.4.4 2 0 4-.1 6-.4-.1-.5-.2-1-.2-1.6 0-3.8 3.1-6.9 6.9-6.9 3.1 0 5.8 2 6.7 5 3.8-1.6 7.3-3.6 10.6-6.1-2.6-2.8-2.4-7.2.4-9.8 1.3-1.2 3-1.8 4.7-1.8 1.8 0 3.4.7 4.7 1.9 2.5-3.2 4.5-6.7 6.1-10.4-2.9-.9-4.8-3.6-4.8-6.6 0-3.8 3.1-6.9 6.9-6.9.5 0 1 .1 1.5.2.3-2.1.4-4.2.4-6.4.2-2 .1-4-.2-5.9zM43.9 70.2c-6.6 6.9-16.3 9.9-26.4 4.6l5.9-.3c4.5-.7 8.6-1.2 13.6-6.7 3.8-4.3 6-10.3 7.7-15.7-5.2 6.3-13.9 14-20.5 7.2-5.3-6.8 7.6-18.8 5.7-32.3l10.7-.8c.3 11.7-9.4 24.3-7.4 27.4 2.3 3.1 10.7-1.5 13.5-8 5.7-12.1 5-21.6 15.7-19.5.1 1.4-2 9.9-7.1 22.7-3 7.2-5.9 15.7-11.4 21.4zM62.6 75c-1.8 2.6-5.2 3.3-7.5 1.6-2.3-1.6-2.7-5.1-.9-7.6 1.8-2.6 5.2-3.3 7.5-1.6 2.3 1.7 2.7 5.1.9 7.6zM69 58.8c-3.6 4.4-7 5.6-11.3 4.2 2.8-4.7 3.8-8.4 5.3-13.3 2.8-10.2 5.1-26.2 18-23.9-3 4.7-1.1 19.7-12 33z"/>
</svg>