<svg xmlns="http://www.w3.org/2000/svg" viewBox="0 0 100 100">
	<path d="M62.1 21.4c2.1-.3 3.9-.4 5.4-1.1 1.9-.9 1.2-4 .5-6-1.4-3.3-4.8-8.3-9.4-8-1 .1-2.1.5-2.5.8-2.3 1.4-4.2 3.8-4.8 6.8-.3 1.5.2 3.1.7 4 1.8 3 5 4.2 10.1 3.5zM99.1 89.1c-1.7-3.8-3.9-7.4-6.2-10.7C86.3 69 76.4 62 66.1 58.1c-4.4-1.7-11.3-3.6-17.3-3.2 0 0 5.4-6.7 7.6-9 2.2-2.3 4.6-4.5 4.6-4.5s1.5.8 2.1 1c1.8.7 4.2 1.6 6.8 1.4 5.4-.4 9.7-4.5 10.6-5.4 1-1 5.3-4.5 5-7.9-.3-2.5-2-3.8-5-4.3-.8-.1-2.3-.1-3.1 0-2.5.5-4.4 1.8-6.4 3.1-.8.6-3 2.1-3 2.1s-3.2-1.3-7.6-3c-2.3-.9-5-1.9-7.9-2.7-2.6-.7-5.5-1.1-8.2-1.1-5.8 0-9.3 1.2-11.1 1.9C26 29.3 20.8 33.6 16 39.3c-1.6 1.9-3.1 3.7-4.3 5.9-.3.5-1.2 1.7-.6 2.5.4.6 1.8.2 2.6 0 2.4-.6 4.5-1.5 6.6-2.4 1.5-.7 3.5-1.7 3.9-2.9.3-.7 0-2.1.2-3 .2-1.2.7-2.6 1.4-3.4 1.9-2.3 6.7-5 10.3-6 2.9-.7 6.3.5 8.4 1.4 3.3 1.4 6 3.4 8.9 5.3 1.3.9 4.4 2.8 4.4 2.8s-7.8 6.3-15 16.2c-1.3.4-6.6 1.6-11.8 4.2-3.8 1.8-11.3 5.7-16.3 9.4-3.7 2.8-6.4 5.2-7.8 6.7-1.4 1.5-4.5 4.9-5.8 7.6-1.3 2.6-1.3 4.6-.7 5.3.6.7 6 1.3 14.5-2.8 4.4-2.1 8.6-4.9 12.3-7.7 2.1-1.6 9.3-8.7 11.2-10.7l2.3-2.7c.7 0 6.8-.8 15.9.4 9.1 1.2 12.9 1.8 18.2 3.9 2.7 1.1 5.6 2.4 7.3 4.5.7.9 1.7 2.3 1.4 4-.2 1.1-.9 2.5-.6 3.6.4 1.7 2.5 3.6 3.9 4.7 3 2.4 7.2 5.6 9.1 6.5 1.1.5 3 1.7 3.8.7.8-.9-.1-3.1-.6-4.2zM76.4 30.2c1.1-.4 2.5-.7 3.7-.8 1.2-.1 3.3.3 3.3 1.1 0 .7-.7 1.3-1.4 1.8-3 1.8-6.9 1.3-10.2.2 1.5-.8 2.9-1.6 4.6-2.3zM33.8 66.7c-.4.5-2 2.2-3.3 3.5-3.8 4.1-10 9.3-16.4 12.8-1.7.9-3.6 1.8-5.8 2.3-1 .2-2.2.1-2.7-.6-.5-.8 0-2.1.2-2.7.9-2.1 2-3.8 3.5-5.3 4.5-4.5 14.5-8.4 18.3-9.4 1.4-.4 3.5-1 4.4-1.1.9-.2 2.6-.5 2.6-.5.1 0-.3.5-.8 1z"/>
</svg>