<svg xmlns="http://www.w3.org/2000/svg" viewBox="0 0 100 100">
	<path fill="#0292ff" d="M83.3 51.6c-3.5-2.2-7.4-4.1-11.3-5.4.2-1.9 1.1-5.8.8-12.3C72.3 24.1 66 4.1 50 4.1S27.6 24.2 27 33.9c-.3 5.6.5 9.9.8 12.3-3.8 1.4-7 2.7-11.2 5.4C8.5 56.9-5.7 72.5 2.4 86.4c3.5 6.1 10 9.4 18.6 9.4 15.4-.2 23.6-7.4 29-11.4 3 2.5 6.2 4.8 10.3 7 12.4 6 30.3 7.2 37.2-5 8.2-14-6.1-29.5-14.2-34.8zM41.7 22.5c2.1-4 4.8-7.1 8.3-7.1 6.8 0 11.3 12.6 11.6 19.1.2 3.8-.2 6-.4 8.5-7.9-1.3-15-1.2-22.3 0-1-6.1-1.3-12.4 2.8-20.5zm-.9 54.7c-5.9 4.4-11.9 7.1-19.7 7.1-18.5 0-7.7-20.8 9.7-27.1 2.3 6.2 6.3 13.9 11.1 19.3l-1.1.7zm9.2-8.9c-4.4-5.4-6.5-9.5-8.3-14.1 6.6-.9 10.1-.9 16.5 0 0 0-4.5 9.6-8.2 14.1zm34.2 15.2c-5.4 1.9-13.5.1-18.8-2.3-3.2-1.8-5.2-3.1-7.2-4.7 4.6-5.2 8.6-12.8 11-19.3 2.2 1 4.5 1.8 7.8 4 8.6 5.3 16.8 19.1 7.2 22.3z"/>
	<linearGradient id="a" x1="64.4061" x2="26.3852" y1="1001.8542" y2="1067.4792" gradientTransform="translate(0 -978.567)" gradientUnits="userSpaceOnUse">
		<stop offset="0" stop-color="#0291ff"/>
		<stop offset=".3281" stop-color="#0739f3"/>
		<stop offset=".599" stop-color="#0076ff"/>
		<stop offset="1" stop-color="#0291ff"/>
	</linearGradient>
	<path fill="url(#a)" d="M64.6 67c6-10.1 8.6-22 8.3-33.2C72.3 24.2 66 4.1 50 4.1h.2l-.1 11.3c6.7.3 11.1 12.7 11.4 19.1.4 8.9-2.4 19.2-6.9 27.4.1-.2.2-.3.2-.5l9.8 5.6z"/>
	<linearGradient id="b" x1="11.9792" x2="88.0208" y1="1042.708" y2="1042.708" gradientTransform="translate(0 -978.567)" gradientUnits="userSpaceOnUse">
		<stop offset="0" stop-color="#0291ff"/>
		<stop offset=".3281" stop-color="#0739f3"/>
		<stop offset=".599" stop-color="#0076ff"/>
		<stop offset="1" stop-color="#0291ff"/>
	</linearGradient>
	<path fill="url(#b)" d="M83.2 51.5c8.1 5.3 22.4 20.8 14.3 34.7l.1-.2-9.8-5.6C90.9 74.5 82.3 64.5 77 61c-14.6-9.7-37.5-10.6-54.1 0-5.4 3.5-14.1 13.7-10.7 19.6l-9.8 5.6c-8-13.9 6.2-29.4 14.3-34.8 19.6-12.5 46.9-12.4 66.5.1z"/>
	<linearGradient id="c" x1="74.096" x2="35.5853" y1="1068.0712" y2="1001.9786" gradientTransform="translate(0 -978.567)" gradientUnits="userSpaceOnUse">
		<stop offset="0" stop-color="#0291ff"/>
		<stop offset=".3281" stop-color="#0739f3"/>
		<stop offset=".599" stop-color="#0076ff"/>
		<stop offset="1" stop-color="#0291ff"/>
	</linearGradient>
	<path fill="url(#c)" d="M35.4 67.1c17.4 30.6 52.5 36.4 62.3 19.4l-9.8-5.7c-3.4 5.9-16.6 3.4-22.4.5-17.7-9.2-27.8-29.4-27.1-47.1.4-6.4 4.7-18.8 11.4-19.1v-11h.2c-16 0-22.3 20.1-22.9 29.8-.5 9.4 2.3 23.6 8.3 33.2z"/>
	<linearGradient id="d" x1="64.5008" x2="26.4799" y1="1001.9089" y2="1067.5339" gradientTransform="translate(0 -978.567)" gradientUnits="userSpaceOnUse">
		<stop offset="0" stop-color="#0291ff"/>
		<stop offset=".3281" stop-color="#0739f3"/>
		<stop offset=".599" stop-color="#0076ff"/>
		<stop offset="1" stop-color="#0291ff"/>
	</linearGradient>
	<path fill="url(#d)" d="M64.6 67.1s0-.1 0 0L55 61.3c-.1.2-.2.3-.2.5-6.1 9.6-13.7 16.3-20.3 19.7-5.8 2.9-18.9 5.4-22.4-.5l-9.8 5.7c8 13.9 28.6 9.4 37.2 5 9.8-5.2 19.5-14.4 25.1-24.6z"/>
</svg>