<svg xmlns="http://www.w3.org/2000/svg" viewBox="0 0 100 100">
	<path fill="#FDBD39" d="m15.413 65.113-5.232 1.912-.28 15.561 18.109-6.613c-6.212-2.087-10.747-5.758-12.597-10.86Z"/>
	<path fill="#F69833" d="M18.15 48.652 0 55.282l10.183 11.741 5.23-1.911c-1.845-5.087-.708-10.835 2.737-16.46Z"/>
	<path fill="#FECF33" d="M48.696 26.198C25.581 34.64 10.68 52.064 15.413 65.114l83.7-30.576c-4.732-13.05-27.304-16.783-50.417-8.34Z"/>
	<path fill="#EE6723" d="M65.833 73.454c23.113-8.445 38.041-25.79 33.283-38.916L15.412 65.114c4.76 13.127 27.306 16.783 50.42 8.34Z"/>
	<path fill="#F69833" d="M99.116 34.538 15.412 65.114c1.638 4.52 7.89 6.747 16.658 6.747 8.55 0 19.495-2.115 30.905-6.284 23.113-8.443 39.374-22.114 36.138-31.04"/>
	<path fill="#FDBD39" d="M82.456 27.79c-8.55 0-19.495 2.114-30.905 6.283-23.113 8.443-39.375 22.113-36.138 31.04l83.7-30.577c-1.638-4.52-7.888-6.746-16.657-6.746Z"/>
	<path fill="#EE6723" d="M77.833 83.412c-2.463 0-6.095-2.225-10.8-6.611-5.562-5.19-11.935-12.792-17.945-21.407-6.008-8.611-10.947-17.223-13.903-24.246-3.22-7.654-3.68-12.358-1.365-13.987.508-.357 1.12-.537 1.82-.537 1.883 0 5.553 1.402 12.338 8.084l.15.145-.022.208c-.046.48-.088.965-.126 1.44l-.075.943-.667-.67c-7.312-7.366-10.53-8.161-11.575-8.161-.298 0-.535.06-.705.18-1.005.705-1.07 4.162 2.053 11.58 2.905 6.898 7.77 15.378 13.7 23.88 5.934 8.503 12.209 15.993 17.674 21.09 5.891 5.496 8.546 6.09 9.416 6.09.3 0 .542-.064.724-.192 1.058-.744 1.06-4.447-2.424-12.434l-.16-.365.35-.191c.35-.192.69-.38 1.007-.56l.42-.239.193.442c2.468 5.658 4.777 12.85 1.75 14.978-.51.359-1.125.54-1.828.54Z"/>
	<path fill="#EE6723" d="m66.392 73.215-.033.433c-.585 7.231-2.125 15.923-6.136 16.276-.08.007-.164.01-.247.01-2.727 0-5.305-3.905-7.663-11.605-2.234-7.286-3.967-17.066-4.879-27.544-.913-10.474-.9-20.41.039-27.975 1.021-8.245 2.968-12.55 5.785-12.798a3.21 3.21 0 0 1 .255-.012c1.976 0 4.956 2.24 8.006 12.667l-1.991.383c-1.019-3.483-2.129-6.317-3.23-8.267-1.02-1.8-2.01-2.791-2.79-2.791-.027 0-.052 0-.079.003-1.22.107-2.998 3.068-3.988 11.06-.922 7.43-.933 17.216-.033 27.556.903 10.342 2.606 19.979 4.8 27.133.981 3.204 2.058 5.845 3.115 7.637.973 1.653 1.915 2.563 2.651 2.563.025 0 .05 0 .077-.003 1.167-.102 3.368-3.183 4.295-14.025l2.046-.701Z"/>
</svg>